<svg width="180" height="180" viewBox="0 0 180 180" fill="none" xmlns="http://www.w3.org/2000/svg">
<rect width="180" height="180" fill="#1E2121"/>
<path d="M20.9784 125.659C14.8071 125.659 9.75785 123.705 5.83067 119.795C1.94356 115.846 0 110.405 0 103.473C0 96.5408 1.94356 91.1201 5.83067 87.2107C9.75785 83.3013 14.8071 81.3466 20.9784 81.3466C27.2298 81.3466 32.3191 83.3013 36.2463 87.2107C40.1735 91.1201 42.1371 96.5408 42.1371 103.473C42.1371 110.405 40.1535 115.846 36.1862 119.795C32.259 123.705 27.1897 125.659 20.9784 125.659ZM33.4812 169.61H20.6778L64.3778 82.9185H77.3014L33.4812 169.61ZM20.9784 114.778C23.7434 114.778 25.9074 113.77 27.4703 111.755C29.0331 109.74 29.8145 106.979 29.8145 103.473C29.8145 99.9665 29.0331 97.2259 27.4703 95.2511C25.9475 93.2359 23.7835 92.2284 20.9784 92.2284C18.2534 92.2284 16.1295 93.2359 14.6067 95.2511C13.0839 97.2259 12.3225 99.9665 12.3225 103.473C12.3225 106.979 13.0839 109.74 14.6067 111.755C16.1295 113.77 18.2534 114.778 20.9784 114.778ZM77.3014 171C71.09 171 66.0208 169.045 62.0936 165.136C58.2065 161.227 56.2629 155.786 56.2629 148.813C56.2629 141.841 58.2065 136.4 62.0936 132.491C66.0208 128.581 71.09 126.627 77.3014 126.627C83.4727 126.627 88.5219 128.602 92.4491 132.551C96.4164 136.461 98.4 141.881 98.4 148.813C98.4 155.745 96.4164 161.186 92.4491 165.136C88.5219 169.045 83.4727 171 77.3014 171ZM77.3014 160.058C80.0264 160.058 82.1703 159.05 83.7332 157.035C85.296 155.02 86.0775 152.279 86.0775 148.813C86.0775 145.307 85.296 142.566 83.7332 140.592C82.2104 138.576 80.0665 137.569 77.3014 137.569C74.4963 137.569 72.3323 138.576 70.8095 140.592C69.3268 142.566 68.5855 145.307 68.5855 148.813C68.5855 152.32 69.3268 155.08 70.8095 157.096C72.3323 159.07 74.4963 160.058 77.3014 160.058Z" fill="#28BCA9" fill-opacity="0.5"/>
<path fill-rule="evenodd" clip-rule="evenodd" d="M121.283 116.131C126.646 119.725 134.71 120.101 142.096 116.501C149.482 112.902 154.154 106.32 154.628 99.8814C149.265 96.2869 141.202 95.9113 133.816 99.5105C126.43 103.11 121.757 109.692 121.283 116.131Z" fill="#4AFEBF"/>
<rect x="113.559" y="79.2521" width="7.7216" height="52.9481" fill="#28BCA9"/>
<circle cx="118.08" cy="52.92" r="45.92" fill="#51EEDA"/>
<circle cx="118.08" cy="52.9201" r="38.86" stroke="#28BCA9"/>
<path d="M85.5418 134.81C84.9078 131.142 87.7319 127.788 91.4541 127.788H144.49C148.213 127.788 151.037 131.142 150.403 134.81L144.755 167.485C144.258 170.361 141.762 172.463 138.843 172.463H97.1016C94.1822 172.463 91.6865 170.361 91.1893 167.484L85.5418 134.81Z" fill="#51EEDA"/>
<path fill-rule="evenodd" clip-rule="evenodd" d="M100.498 127.788C91.8983 127.788 85.3315 135.468 86.6678 143.963L87.5937 149.849H147.941L148.867 143.963C150.203 135.468 143.637 127.788 135.037 127.788H100.498Z" fill="#28BCA9"/>
<rect x="76.0547" y="122.272" width="83.283" height="18.7525" rx="6" fill="#51EEDA"/>
<rect x="97.6318" y="28.9219" width="41.5467" height="49.856" rx="5" fill="white"/>
<circle cx="110.811" cy="41.6736" r="7.33104" fill="#51EEDA"/>
<circle cx="119.785" cy="47.8854" r="8.97404" fill="url(#paint0_linear_6368_376)"/>
<circle cx="128.759" cy="53.7753" r="4.57054" fill="#4AFEBF"/>
<path fill-rule="evenodd" clip-rule="evenodd" d="M103.975 63.5125C103.975 63.2486 104.189 63.0348 104.453 63.0348H132.356C132.62 63.0348 132.834 63.2486 132.834 63.5125C132.834 63.7763 132.62 63.9902 132.356 63.9902H104.453C104.189 63.9902 103.975 63.7763 103.975 63.5125Z" fill="#1E2121"/>
<path fill-rule="evenodd" clip-rule="evenodd" d="M103.975 67.531C103.975 67.2672 104.189 67.0533 104.453 67.0533H132.356C132.62 67.0533 132.834 67.2672 132.834 67.531C132.834 67.7948 132.62 68.0087 132.356 68.0087H104.453C104.189 68.0087 103.975 67.7948 103.975 67.531Z" fill="#1E2121"/>
<path fill-rule="evenodd" clip-rule="evenodd" d="M103.975 71.9145C103.975 71.6506 104.189 71.4368 104.453 71.4368H132.356C132.62 71.4368 132.834 71.6506 132.834 71.9145C132.834 72.1783 132.62 72.3922 132.356 72.3922H104.453C104.189 72.3922 103.975 72.1783 103.975 71.9145Z" fill="#1E2121"/>
<defs>
<linearGradient id="paint0_linear_6368_376" x1="119.785" y1="38.9113" x2="119.785" y2="56.8594" gradientUnits="userSpaceOnUse">
<stop stop-color="#4AFEBF"/>
<stop offset="1" stop-color="#51EEDA"/>
</linearGradient>
</defs>
</svg>
