<svg width="180" height="180" viewBox="0 0 180 180" fill="none" xmlns="http://www.w3.org/2000/svg">
<rect width="180" height="180" fill="#1E2121"/>
<circle cx="61.1054" cy="40.02" r="23.02" fill="#28BCA9"/>
<path opacity="0.8" fill-rule="evenodd" clip-rule="evenodd" d="M61.1055 56.801C70.3733 56.801 77.8863 49.288 77.8863 40.0202C77.8863 30.7524 70.3733 23.2394 61.1055 23.2394C51.8377 23.2394 44.3247 30.7524 44.3247 40.0202C44.3247 49.288 51.8377 56.801 61.1055 56.801ZM61.1055 58.2776C71.1888 58.2776 79.3629 50.1035 79.3629 40.0202C79.3629 29.9369 71.1888 21.7628 61.1055 21.7628C51.0223 21.7628 42.8481 29.9369 42.8481 40.0202C42.8481 50.1035 51.0223 58.2776 61.1055 58.2776Z" fill="white"/>
<g clip-path="url(#clip0_6368_506)">
<path d="M2.77788 57.4743C2.34827 55.9115 3.26692 54.2963 4.82976 53.8667L59.1611 38.9314C60.7239 38.5018 62.3391 39.4205 62.7687 40.9833L81.0022 107.313C81.4318 108.876 80.5132 110.491 78.9503 110.92L24.619 125.856C23.0562 126.285 21.441 125.367 21.0114 123.804L2.77788 57.4743Z" fill="white"/>
<circle cx="26.0907" cy="67.8256" r="10.9782" transform="rotate(-15.3706 26.0907 67.8256)" fill="#51EEDA"/>
<ellipse cx="41.5146" cy="73.2341" rx="13.4386" ry="13.4386" transform="rotate(-15.3706 41.5146 73.2341)" fill="url(#paint0_linear_6368_506)"/>
<ellipse cx="56.8102" cy="78.1759" rx="6.84439" ry="6.84439" transform="rotate(-15.3706 56.8102 78.1759)" fill="#4AFEBF"/>
<path fill-rule="evenodd" clip-rule="evenodd" d="M24.8893 102.074C24.7846 101.693 25.0085 101.299 25.3895 101.194L65.6798 90.1188C66.0607 90.0141 66.4544 90.238 66.5592 90.6189C66.6639 90.9999 66.44 91.3936 66.059 91.4983L25.7687 102.574C25.3878 102.679 24.994 102.455 24.8893 102.074Z" fill="#1E2121"/>
<path fill-rule="evenodd" clip-rule="evenodd" d="M26.4845 107.876C26.3798 107.495 26.6037 107.101 26.9847 106.996L67.275 95.9208C67.6559 95.8161 68.0497 96.04 68.1544 96.421C68.2591 96.8019 68.0352 97.1957 67.6542 97.3004L27.3639 108.376C26.983 108.481 26.5893 108.257 26.4845 107.876Z" fill="#1E2121"/>
<path fill-rule="evenodd" clip-rule="evenodd" d="M28.2243 114.205C28.1196 113.824 28.3435 113.431 28.7244 113.326L69.0147 102.25C69.3957 102.146 69.7894 102.37 69.8941 102.751C69.9989 103.132 69.7749 103.525 69.394 103.63L29.1037 114.706C28.7227 114.81 28.329 114.586 28.2243 114.205Z" fill="#1E2121"/>
</g>
<path d="M5.73291 106.591H101.279C103.488 106.591 105.279 108.382 105.279 110.591V174.82C105.279 177.029 103.488 178.82 101.279 178.82H9.73291C7.52377 178.82 5.73291 177.029 5.73291 174.82V106.591Z" fill="#51EEDA"/>
<rect x="41.8184" y="106.591" width="27.3751" height="72.1708" fill="white"/>
<rect x="5.73291" y="114.057" width="99.5459" height="12.4432" fill="#28BCA9"/>
<rect opacity="0.6" x="41.8184" y="115.302" width="27.3751" height="11.1989" fill="white"/>
<rect x="2" y="106.591" width="105.768" height="12.4432" rx="2" fill="#51EEDA"/>
<path d="M92.8354 106.591H101.279C103.488 106.591 105.279 108.382 105.279 110.591V173.785L92.8354 106.591Z" fill="#28BCA9"/>
<path d="M146.543 59.993C141.337 53.5985 126.577 52.7922 122.828 54.2304C117.58 56.2438 114.805 77.4124 114.644 84.4669L125.458 112.66C125.806 112.818 128.099 111.472 134.494 104.823C142.488 96.5119 153.05 67.986 146.543 59.993Z" fill="white"/>
<path d="M126.582 84.1716C124.586 98.0293 120.973 108.976 118.513 108.622C116.053 108.267 115.677 96.7461 117.673 82.8884C119.669 69.0308 123.282 58.0842 125.742 58.4385C128.202 58.7929 128.578 70.314 126.582 84.1716Z" fill="#A9E4DD"/>
<path d="M178.393 143.023C178.8 151.258 168.366 161.729 164.617 163.167C159.368 165.181 143.148 151.299 138.31 146.162L127.495 117.969C127.648 117.619 130.253 117.086 139.454 117.752C150.956 118.585 177.885 132.729 178.393 143.023Z" fill="white"/>
<path d="M147.383 138.397C136.631 129.43 126.624 123.707 125.032 125.616C123.441 127.525 130.866 136.342 141.618 145.309C152.37 154.277 162.377 159.999 163.969 158.09C165.561 156.181 158.135 147.365 147.383 138.397Z" fill="#A9E4DD"/>
<path d="M130.684 127.09C124.238 129.562 117.008 126.341 114.535 119.895C112.062 113.449 115.283 106.219 121.729 103.746C128.175 101.273 135.406 104.494 137.878 110.94C140.351 117.387 137.13 124.617 130.684 127.09Z" fill="#28BCA9"/>
<path d="M101.256 61.0177C103.371 60.2066 105.743 61.2632 106.554 63.3777L146.4 167.251C147.211 169.365 146.154 171.737 144.04 172.548L125.76 179.561C123.645 180.372 121.274 179.315 120.463 177.201L80.6164 73.3274C79.8053 71.2129 80.8619 68.8411 82.9764 68.03L101.256 61.0177Z" fill="#51EEDA"/>
<defs>
<linearGradient id="paint0_linear_6368_506" x1="41.5146" y1="59.7955" x2="41.5146" y2="86.6727" gradientUnits="userSpaceOnUse">
<stop stop-color="#4AFEBF"/>
<stop offset="1" stop-color="#51EEDA"/>
</linearGradient>
<clipPath id="clip0_6368_506">
<rect width="62.2162" height="74.6594" fill="white" transform="translate(2 54.6446) rotate(-15.3706)"/>
</clipPath>
</defs>
</svg>
