<svg width="174" height="54" viewBox="0 0 174 54" fill="none" xmlns="http://www.w3.org/2000/svg">
<g clip-path="url(#clip0_6254_2249)">
<path d="M26.3933 52.7865C41.0196 52.7865 52.7865 41.0196 52.7865 26.3933C52.7865 11.7669 41.0196 0 26.3933 0C11.7669 0 0 11.7669 0 26.3933C0 41.0196 11.7669 52.7865 26.3933 52.7865Z" fill="#6FF5E4"/>
<path d="M33.6514 30.5721C33.6514 26.7232 31.342 25.4035 26.7232 24.8537C23.424 24.4137 22.7642 23.5341 22.7642 21.9943C22.7642 20.4545 23.864 19.465 26.0634 19.465C28.0429 19.465 29.1427 20.1249 29.6924 21.7744C29.8025 22.1043 30.1324 22.3242 30.4623 22.3242H32.2217C32.6617 22.3242 32.9916 21.9943 32.9916 21.5546V21.4445C32.5516 19.0251 30.5721 17.1556 28.0429 16.9358V14.2965C28.0429 13.8565 27.7129 13.5266 27.1632 13.4165H25.5136C25.0736 13.4165 24.7437 13.7464 24.6336 14.2965V16.8257C21.3345 17.2657 19.2452 19.465 19.2452 22.2144C19.2452 25.8435 21.4445 27.2729 26.0634 27.823C29.1427 28.3727 30.1324 29.0326 30.1324 30.7922C30.1324 32.5518 28.5926 33.7614 26.5033 33.7614C23.6439 33.7614 22.6542 32.5516 22.3242 30.902C22.2144 30.4623 21.8845 30.2422 21.5546 30.2422H19.6849C19.2452 30.2422 18.9153 30.5721 18.9153 31.012V31.1221C19.355 33.8712 21.1146 35.8507 24.7437 36.4007V39.0401C24.7437 39.4798 25.0736 39.8097 25.6234 39.9197H27.273C27.7129 39.9197 28.0429 39.5898 28.1529 39.0401V36.4007C31.4521 35.8507 33.6514 33.5413 33.6514 30.5721Z" fill="white"/>
<path d="M20.7848 42.1193C12.207 39.0402 7.80798 29.4727 10.9974 21.0047C12.6469 16.3858 16.276 12.8668 20.7848 11.2173C21.2248 10.9974 21.4446 10.6675 21.4446 10.1174V8.57793C21.4446 8.13795 21.2248 7.80804 20.7848 7.69824C20.6747 7.69824 20.4549 7.69824 20.3448 7.80804C9.89754 11.1072 4.17889 22.2145 7.47806 32.6618C9.45756 38.8201 14.1865 43.549 20.3448 45.5285C20.7848 45.7483 21.2248 45.5285 21.3346 45.0885C21.4446 44.9787 21.4446 44.8687 21.4446 44.6488V43.109C21.4446 42.7791 21.1147 42.3394 20.7848 42.1193ZM32.442 7.80804C32.002 7.58818 31.562 7.80804 31.4522 8.24801C31.3421 8.35807 31.3421 8.46787 31.3421 8.68799V10.2275C31.3421 10.6675 31.6721 11.1072 32.002 11.3273C40.5798 14.4064 44.9788 23.9739 41.7894 32.4419C40.1399 37.0607 36.5108 40.5798 32.002 42.2293C31.562 42.4492 31.3421 42.7791 31.3421 43.3291V44.8687C31.3421 45.3086 31.562 45.6385 32.002 45.7483C32.112 45.7483 32.3319 45.7483 32.442 45.6386C42.8892 42.3394 48.6079 31.2321 45.3087 20.7848C43.3292 14.5164 38.4903 9.78753 32.442 7.80804Z" fill="white"/>
</g>
<g filter="url(#filter0_d_6254_2249)">
<g clip-path="url(#clip1_6254_2249)">
<path d="M56.6965 0C71.2741 0 83.0897 11.8156 83.0897 26.3933C83.0897 40.9709 71.2741 52.7865 56.6965 52.7865C42.1189 52.7865 30.3032 40.9709 30.3032 26.3933C30.3032 11.8156 42.1189 0 56.6965 0Z" fill="#50DBC9"/>
<path d="M44.809 26.3935L44.828 33.3725L50.7581 36.862V40.9478L41.3576 35.4344V24.3527L44.809 26.3935ZM44.809 19.4145V23.4813L41.3555 21.4384V17.3716L44.809 15.3286L48.2795 17.3716L44.809 19.4145ZM53.2345 17.3716L56.6881 15.3286L60.1586 17.3716L56.6881 19.4145L53.2345 17.3716Z" fill="white"/>
<path d="M47.3044 31.9259V27.84L50.758 29.883V33.9498L47.3044 31.9259ZM53.2345 38.3254L56.688 40.3684L60.1585 38.3254V42.3923L56.688 44.4352L53.2345 42.3923V38.3254ZM65.1114 17.3716L68.565 15.3286L72.0354 17.3716V21.4384L68.565 23.4813V19.4145L65.1114 17.3716ZM68.565 33.3725L68.584 26.3935L72.0375 24.3505V35.4323L62.6371 40.9457V36.8598L68.565 33.3725Z" fill="white"/>
<path d="M66.0886 31.9257L62.635 33.9496V29.8828L66.0886 27.8398V31.9257Z" fill="white"/>
<path d="M66.0885 20.8609L66.1075 24.9467L60.1606 28.4362V35.4321L56.707 37.4561L53.2535 35.4321V28.4362L47.3066 24.9467V20.8609L50.7749 18.8179L56.6859 22.3243L62.6328 18.8179L66.1033 20.8609H66.0885ZM47.3044 13.884L56.688 8.35156L66.0885 13.884L62.6349 15.9269L56.688 12.4205L50.758 15.9269L47.3044 13.884Z" fill="white"/>
</g>
</g>
<g filter="url(#filter1_d_6254_2249)">
<circle cx="86.9999" cy="26.3933" r="26.3933" fill="#3DBAAA"/>
<path d="M95.9601 20.483C95.3108 20.0891 94.4667 20.0891 93.7526 20.483L88.6881 23.5027L85.2469 25.4721L80.1826 28.4919C79.5333 28.8858 78.6893 28.8858 77.975 28.4919L73.9495 26.1286C73.3002 25.7348 72.8457 25.0127 72.8457 24.2248V19.564C72.8457 18.7762 73.2353 18.0541 73.9495 17.6602L77.9101 15.3626C78.5594 14.9687 79.4034 14.9687 80.1177 15.3626L84.0783 17.6602C84.7275 18.0541 85.182 18.7762 85.182 19.564V22.5837L88.6232 20.5487V17.5289C88.6232 16.7412 88.2337 16.019 87.5195 15.6252L80.1826 11.2925C79.5333 10.8986 78.6893 10.8986 77.975 11.2925L70.5083 15.6252C69.7941 16.019 69.4045 16.7412 69.4045 17.5289V26.2599C69.4045 27.0476 69.7941 27.7698 70.5083 28.1636L77.975 32.4963C78.6243 32.8903 79.4684 32.8903 80.1826 32.4963L85.2469 29.5422L88.6881 27.5072L93.7526 24.5531C94.4018 24.1592 95.2459 24.1592 95.9601 24.5531L99.9207 26.8508C100.57 27.2446 101.025 27.9668 101.025 28.7545V33.4154C101.025 34.2031 100.635 34.9253 99.9207 35.3191L95.9601 37.6825C95.3108 38.0763 94.4667 38.0763 93.7526 37.6825L89.792 35.3848C89.1426 34.9909 88.6881 34.2688 88.6881 33.481V30.4613L85.2469 32.4963V35.5161C85.2469 36.3038 85.6365 37.0259 86.3508 37.4198L93.8175 41.7526C94.4667 42.1464 95.3108 42.1464 96.025 41.7526L103.492 37.4198C104.141 37.0259 104.596 36.3038 104.596 35.5161V26.7851C104.596 25.9974 104.206 25.2752 103.492 24.8814L95.9601 20.483Z" fill="white"/>
</g>
<g filter="url(#filter2_d_6254_2249)">
<g clip-path="url(#clip2_6254_2249)">
<path d="M117.303 52.7865C131.88 52.7865 143.697 40.9698 143.697 26.3933C143.697 11.8167 131.88 0 117.303 0C102.727 0 90.9102 11.8167 90.9102 26.3933C90.9102 40.9698 102.727 52.7865 117.303 52.7865Z" fill="#239A8B"/>
<path d="M133.002 22.086H129.867C128.114 17.3352 123.553 13.9463 118.19 13.9463H107.306V22.086H103.843V24.9364H107.306V27.9875H103.843V30.838H107.306V38.8404H118.19C123.5 38.8404 128.03 35.5149 129.814 30.838H133.002V27.9875H130.532C130.595 27.4702 130.637 26.9318 130.637 26.3933C130.637 25.8972 130.606 25.4115 130.553 24.9364H133.013V22.086H133.002ZM110.156 16.6701H118.074C121.864 16.6701 125.126 18.8871 126.657 22.086H110.156V16.6701ZM118.074 36.1166H110.156V30.838H126.594C125.042 33.9629 121.811 36.1166 118.074 36.1166ZM127.586 26.1822V26.6151C127.586 27.0796 127.554 27.5441 127.491 27.9875H110.156V24.9364H127.502C127.554 25.3482 127.586 25.7599 127.586 26.1822Z" fill="white"/>
</g>
</g>
<g filter="url(#filter3_d_6254_2249)">
<g clip-path="url(#clip3_6254_2249)">
<path d="M147.607 52.7865C162.183 52.7865 174 40.9699 174 26.3933C174 11.8167 162.183 0 147.607 0C133.03 0 121.214 11.8167 121.214 26.3933C121.214 40.9699 133.03 52.7865 147.607 52.7865Z" fill="#0D7669"/>
<path d="M148.428 6.59814V21.2299L160.795 26.756L148.428 6.59814Z" fill="white" fill-opacity="0.602"/>
<path d="M148.428 6.59814L136.06 26.756L148.428 21.2299V6.59814Z" fill="white"/>
<path d="M148.428 36.2376V46.1796L160.803 29.0586L148.428 36.2376Z" fill="white" fill-opacity="0.602"/>
<path d="M148.428 46.1796V36.2359L136.06 29.0586L148.428 46.1796Z" fill="white"/>
<path d="M148.428 33.9363L160.795 26.7557L148.428 21.2329V33.9363Z" fill="white" fill-opacity="0.2"/>
<path d="M136.06 26.7557L148.428 33.9363V21.2329L136.06 26.7557Z" fill="white" fill-opacity="0.602"/>
</g>
</g>
<defs>
<filter id="filter0_d_6254_2249" x="25.3032" y="0" width="57.7866" height="53.7866" filterUnits="userSpaceOnUse" color-interpolation-filters="sRGB">
<feFlood flood-opacity="0" result="BackgroundImageFix"/>
<feColorMatrix in="SourceAlpha" type="matrix" values="0 0 0 0 0 0 0 0 0 0 0 0 0 0 0 0 0 0 127 0" result="hardAlpha"/>
<feOffset dx="-5" dy="1"/>
<feComposite in2="hardAlpha" operator="out"/>
<feColorMatrix type="matrix" values="0 0 0 0 0 0 0 0 0 0.221029 0 0 0 0 0.193663 0 0 0 0.5 0"/>
<feBlend mode="normal" in2="BackgroundImageFix" result="effect1_dropShadow_6254_2249"/>
<feBlend mode="normal" in="SourceGraphic" in2="effect1_dropShadow_6254_2249" result="shape"/>
</filter>
<filter id="filter1_d_6254_2249" x="55.6067" y="0" width="57.7866" height="53.7866" filterUnits="userSpaceOnUse" color-interpolation-filters="sRGB">
<feFlood flood-opacity="0" result="BackgroundImageFix"/>
<feColorMatrix in="SourceAlpha" type="matrix" values="0 0 0 0 0 0 0 0 0 0 0 0 0 0 0 0 0 0 127 0" result="hardAlpha"/>
<feOffset dx="-5" dy="1"/>
<feComposite in2="hardAlpha" operator="out"/>
<feColorMatrix type="matrix" values="0 0 0 0 0 0 0 0 0 0.221029 0 0 0 0 0.193663 0 0 0 0.5 0"/>
<feBlend mode="normal" in2="BackgroundImageFix" result="effect1_dropShadow_6254_2249"/>
<feBlend mode="normal" in="SourceGraphic" in2="effect1_dropShadow_6254_2249" result="shape"/>
</filter>
<filter id="filter2_d_6254_2249" x="85.9102" y="0" width="57.7866" height="53.7866" filterUnits="userSpaceOnUse" color-interpolation-filters="sRGB">
<feFlood flood-opacity="0" result="BackgroundImageFix"/>
<feColorMatrix in="SourceAlpha" type="matrix" values="0 0 0 0 0 0 0 0 0 0 0 0 0 0 0 0 0 0 127 0" result="hardAlpha"/>
<feOffset dx="-5" dy="1"/>
<feComposite in2="hardAlpha" operator="out"/>
<feColorMatrix type="matrix" values="0 0 0 0 0 0 0 0 0 0.221029 0 0 0 0 0.193663 0 0 0 0.5 0"/>
<feBlend mode="normal" in2="BackgroundImageFix" result="effect1_dropShadow_6254_2249"/>
<feBlend mode="normal" in="SourceGraphic" in2="effect1_dropShadow_6254_2249" result="shape"/>
</filter>
<filter id="filter3_d_6254_2249" x="116.214" y="0" width="57.7866" height="53.7866" filterUnits="userSpaceOnUse" color-interpolation-filters="sRGB">
<feFlood flood-opacity="0" result="BackgroundImageFix"/>
<feColorMatrix in="SourceAlpha" type="matrix" values="0 0 0 0 0 0 0 0 0 0 0 0 0 0 0 0 0 0 127 0" result="hardAlpha"/>
<feOffset dx="-5" dy="1"/>
<feComposite in2="hardAlpha" operator="out"/>
<feColorMatrix type="matrix" values="0 0 0 0 0 0 0 0 0 0.221029 0 0 0 0 0.193663 0 0 0 0.5 0"/>
<feBlend mode="normal" in2="BackgroundImageFix" result="effect1_dropShadow_6254_2249"/>
<feBlend mode="normal" in="SourceGraphic" in2="effect1_dropShadow_6254_2249" result="shape"/>
</filter>
<clipPath id="clip0_6254_2249">
<rect width="52.7865" height="52.7865" fill="white"/>
</clipPath>
<clipPath id="clip1_6254_2249">
<rect x="30.3032" width="52.7865" height="52.7865" rx="26.3933" fill="white"/>
</clipPath>
<clipPath id="clip2_6254_2249">
<rect x="90.9102" width="52.7865" height="52.7865" rx="26.3933" fill="white"/>
</clipPath>
<clipPath id="clip3_6254_2249">
<rect x="121.214" width="52.7865" height="52.7865" rx="26.3933" fill="white"/>
</clipPath>
</defs>
</svg>
