<svg width="180" height="180" viewBox="0 0 180 180" fill="none" xmlns="http://www.w3.org/2000/svg">
<g clip-path="url(#clip0_6368_601)">
<rect width="180" height="180" fill="#1E2121"/>
<g clip-path="url(#clip1_6368_601)">
<path d="M58.7359 170.151L58.558 176.074H58.5447C58.5438 176.162 58.5109 176.246 58.4521 176.312C58.3933 176.377 58.3128 176.419 58.2254 176.429L52.2672 177.24C51.9032 177.29 51.5615 177.444 51.2836 177.684C51.0056 177.923 50.8033 178.238 50.7012 178.59C50.1066 180.646 49.2221 182.608 48.0742 184.416C47.8782 184.726 47.7764 185.087 47.7811 185.454C47.7858 185.821 47.8969 186.179 48.1009 186.484L51.4411 191.482C51.4864 191.556 51.5053 191.643 51.4948 191.73C51.4843 191.816 51.445 191.896 51.3833 191.957L47.056 196.028C47.0205 196.064 46.9778 196.092 46.9308 196.11C46.8837 196.128 46.8333 196.136 46.783 196.133C46.7076 196.132 46.6349 196.105 46.5767 196.057L41.7825 192.441C41.4887 192.219 41.1369 192.088 40.7697 192.062C40.4025 192.035 40.0355 192.116 39.7132 192.293C37.8393 193.333 35.8256 194.098 33.7336 194.567C33.3743 194.645 33.0461 194.828 32.7901 195.091C32.5341 195.354 32.3618 195.687 32.2948 196.048L31.1182 201.928C31.1019 202.014 31.0551 202.091 30.9864 202.146C30.9177 202.201 30.8316 202.229 30.7439 202.225L24.8061 202.052C24.7177 202.051 24.6326 202.019 24.5664 201.96C24.5003 201.902 24.4575 201.821 24.4459 201.734L23.6331 195.791C23.5828 195.429 23.4281 195.088 23.1877 194.811C22.9474 194.534 22.6316 194.332 22.2788 194.23C20.2717 193.645 18.3519 192.796 16.5704 191.704C16.2828 191.529 15.9547 191.431 15.618 191.421C15.2228 191.405 14.8333 191.519 14.5082 191.743L9.46684 195.1C9.40239 195.141 9.32786 195.163 9.25164 195.163C9.2021 195.162 9.15334 195.151 9.10836 195.13C9.06339 195.109 9.02317 195.08 8.99019 195.043L4.90748 190.731C4.84945 190.665 4.81504 190.582 4.80972 190.495C4.80441 190.408 4.82849 190.321 4.87814 190.249L8.4913 185.498C8.71311 185.201 8.84499 184.848 8.87132 184.479C8.89764 184.11 8.8173 183.741 8.63981 183.416C7.58722 181.553 6.80855 179.549 6.32767 177.465C6.24301 177.11 6.05848 176.786 5.79574 176.531C5.53299 176.277 5.20295 176.103 4.84435 176.029L-1.09074 174.841C-1.17885 174.825 -1.2581 174.778 -1.31373 174.708C-1.36936 174.638 -1.39757 174.55 -1.39309 174.461L-1.21968 168.538C-1.21859 168.45 -1.18563 168.366 -1.12691 168.301C-1.06818 168.235 -0.987707 168.194 -0.900429 168.183L5.00975 167.367C5.37705 167.319 5.72215 167.164 6.00271 166.923C6.28326 166.681 6.48707 166.364 6.58912 166.008C7.16676 163.949 8.037 161.982 9.17338 160.169C9.36854 159.859 9.46874 159.5 9.46163 159.134C9.45452 158.769 9.34041 158.414 9.13336 158.112L5.76742 153.086C5.72017 153.012 5.7001 152.924 5.71064 152.838C5.72119 152.751 5.76171 152.671 5.82522 152.61L10.1489 148.539C10.2125 148.477 10.2962 148.44 10.3849 148.435C10.4736 148.43 10.5612 148.456 10.6318 148.51L15.3957 152.114C15.693 152.335 16.0477 152.466 16.4177 152.492C16.7876 152.518 17.1573 152.438 17.4829 152.261C19.3508 151.211 21.3604 150.434 23.4499 149.955C23.8064 149.87 24.1312 149.686 24.3862 149.424C24.6412 149.161 24.8159 148.832 24.8897 148.474L26.0805 142.555C26.0963 142.468 26.1433 142.389 26.2128 142.334C26.2822 142.278 26.3695 142.25 26.4584 142.254L32.397 142.427C32.4857 142.428 32.5709 142.461 32.6364 142.521C32.702 142.58 32.7434 142.662 32.7527 142.749L33.5709 148.644C33.6202 149.01 33.7753 149.354 34.0172 149.634C34.2591 149.913 34.5774 150.117 34.9333 150.219C37.0444 150.813 39.0592 151.705 40.9164 152.869C41.2271 153.067 41.5886 153.17 41.9569 153.166C42.3252 153.162 42.6845 153.052 42.9911 152.848L47.9586 149.502C48.023 149.46 48.0973 149.437 48.1738 149.434C48.2749 149.439 48.3703 149.482 48.4406 149.555L52.518 153.872C52.5774 153.935 52.6128 154.018 52.6182 154.105C52.6235 154.192 52.5985 154.278 52.5473 154.349L48.9208 159.13C48.6989 159.424 48.5669 159.776 48.5407 160.143C48.5145 160.51 48.5952 160.876 48.7732 161.199C49.8159 163.067 50.5841 165.076 51.0542 167.162C51.1332 167.521 51.3159 167.848 51.5798 168.104C51.8436 168.36 52.1769 168.533 52.5384 168.602L58.4344 169.772C58.5218 169.789 58.6001 169.836 58.6554 169.906C58.7107 169.975 58.7392 170.062 58.7359 170.151ZM43.2276 172.656C43.4633 164.637 37.1245 157.933 29.088 157.696C21.0515 157.459 14.3259 163.787 14.0876 171.806C13.8492 179.825 20.1952 186.529 28.2361 186.762C36.277 186.996 42.9929 180.669 43.2276 172.656Z" fill="#1A1A1A"/>
<g style="mix-blend-mode:soft-light">
<path d="M16.9932 73.9114H123.058C124.104 73.9114 125.107 74.3257 125.846 75.0632C126.586 75.8007 127.001 76.801 127.001 77.844V151.029H13.0537V77.844C13.0537 76.8016 13.4687 75.8019 14.2074 75.0645C14.9461 74.3271 15.9481 73.9123 16.9932 73.9114Z" fill="black"/>
<path d="M84.7776 160.162H55.2729V176.904H84.7776V160.162Z" fill="black"/>
<path d="M124.603 79.6002H15.4473V151.316H124.603V79.6002Z" fill="black"/>
<path d="M13.0541 151.029H127V156.102C127 158.525 126.035 160.849 124.317 162.562C122.599 164.275 120.269 165.238 117.84 165.238H22.2075C19.7782 165.238 17.4484 164.275 15.7306 162.562C14.0129 160.849 13.0479 158.525 13.0479 156.102V151.029H13.0541Z" fill="black"/>
<path d="M104.108 179.949H35.9426C35.5418 179.949 35.1448 179.87 34.7745 179.717C34.4041 179.564 34.0676 179.34 33.7842 179.057C33.5008 178.775 33.276 178.439 33.1227 178.069C32.9694 177.7 32.8905 177.304 32.8906 176.904C32.8906 176.097 33.2122 175.323 33.7845 174.752C34.3569 174.181 35.1332 173.86 35.9426 173.86H104.108C104.918 173.86 105.694 174.181 106.266 174.752C106.839 175.323 107.161 176.097 107.161 176.904C107.161 177.712 106.839 178.486 106.267 179.057C105.694 179.628 104.918 179.949 104.108 179.949Z" fill="black"/>
<path d="M102.181 161.849C104.231 161.365 105.499 159.314 105.013 157.269C104.527 155.225 102.471 153.96 100.421 154.445C98.3705 154.93 97.1026 156.98 97.5887 159.025C98.0749 161.07 100.131 162.334 102.181 161.849Z" fill="black"/>
</g>
<path d="M12.9505 70H119.661C120.713 70 121.722 70.4288 122.466 71.1919C123.21 71.9551 123.628 72.9902 123.628 74.0695V148.802C123.628 149.354 123.18 149.802 122.628 149.802H9.9834C9.43111 149.802 8.9834 149.354 8.9834 148.802V74.0695C8.9834 72.9902 9.40136 71.9551 10.1453 71.1919C10.8893 70.4288 11.8984 70 12.9505 70Z" fill="#28BCA9"/>
<path d="M79.8557 156.25H52.3511C51.7988 156.25 51.3511 156.698 51.3511 157.25V171.993C51.3511 172.545 51.7988 172.993 52.3511 172.993H79.8557C80.408 172.993 80.8557 172.545 80.8557 171.993V157.25C80.8557 156.698 80.408 156.25 79.8557 156.25Z" fill="#28BCA9"/>
<path d="M115.899 74.0001H16C14.3431 74.0001 13 75.3432 13 77.0001V140.575C13 142.232 14.3431 143.575 16 143.575H115.899C117.556 143.575 118.899 142.232 118.899 140.575V77.0001C118.899 75.3432 117.556 74.0001 115.899 74.0001Z" fill="white"/>
<path d="M115.653 74H16C14.3431 74 13 75.3431 13 77V140.686C13 142.343 14.3431 143.686 16 143.686H115.653C117.31 143.686 118.653 142.343 118.653 140.686V77C118.653 75.3431 117.31 74 115.653 74Z" fill="url(#paint0_linear_6368_601)"/>
<path d="M57.0931 97.1888C57.0931 97.5472 56.9012 97.8782 56.5903 98.0564L47.8888 103.043C47.2222 103.425 46.3916 102.944 46.3916 102.175V100.613C46.3916 100.256 46.5819 99.926 46.891 99.7473L51.682 96.9766C52.3491 96.5907 52.3474 95.627 51.6789 95.2435L46.894 92.4988C46.5833 92.3205 46.3916 91.9896 46.3916 91.6314V90.0714C46.3916 89.303 47.2221 88.8217 47.8888 89.2038L56.5903 94.1903C56.9012 94.3685 57.0931 94.6995 57.0931 95.0579V97.1888Z" fill="#343D3D"/>
<path d="M39.7176 104.582C39.6108 105.033 39.208 105.351 38.7445 105.351H36.679C36.0336 105.351 35.5572 104.749 35.706 104.121L39.5806 87.7607C39.6874 87.3097 40.0902 86.9911 40.5537 86.9911H42.6192C43.2646 86.9911 43.741 87.5935 43.5923 88.2216L39.7176 104.582Z" fill="#343D3D"/>
<path d="M33.9042 102.173C33.9042 102.942 33.0728 103.423 32.4061 103.04L23.7309 98.0566C23.4204 97.8783 23.229 97.5475 23.229 97.1895V95.0572C23.229 94.6992 23.4204 94.3684 23.7309 94.1901L32.4061 89.2064C33.0728 88.8234 33.9042 89.3047 33.9042 90.0735V91.6314C33.9042 91.9896 33.7126 92.3205 33.4018 92.4988L28.6169 95.2435C27.9484 95.627 27.9467 96.5907 28.6139 96.9766L33.4049 99.7473C33.7139 99.926 33.9042 100.256 33.9042 100.613V102.173Z" fill="#343D3D"/>
<path fill-rule="evenodd" clip-rule="evenodd" d="M68.209 87.4909C68.209 87.2149 68.5201 86.9911 68.9039 86.9911H109.496C109.879 86.9911 110.19 87.2149 110.19 87.4909C110.19 87.7669 109.879 87.9907 109.496 87.9907H68.9039C68.5201 87.9907 68.209 87.7669 68.209 87.4909Z" fill="#1E2121"/>
<path fill-rule="evenodd" clip-rule="evenodd" d="M68.209 96.4869C68.209 96.2109 68.5201 95.9871 68.9039 95.9871H109.496C109.879 95.9871 110.19 96.2109 110.19 96.4869C110.19 96.7629 109.879 96.9867 109.496 96.9867H68.9039C68.5201 96.9867 68.209 96.7629 68.209 96.4869Z" fill="#1E2121"/>
<path fill-rule="evenodd" clip-rule="evenodd" d="M68.209 105.483C68.209 105.207 68.5201 104.983 68.9039 104.983H109.496C109.879 104.983 110.19 105.207 110.19 105.483C110.19 105.759 109.879 105.983 109.496 105.983H68.9039C68.5201 105.983 68.209 105.759 68.209 105.483Z" fill="#1E2121"/>
<path fill-rule="evenodd" clip-rule="evenodd" d="M22.2295 114.479C22.2295 114.203 22.8814 113.979 23.6855 113.979H108.735C109.539 113.979 110.191 114.203 110.191 114.479C110.191 114.755 109.539 114.979 108.735 114.979H23.6855C22.8814 114.979 22.2295 114.755 22.2295 114.479Z" fill="#1E2121"/>
<path fill-rule="evenodd" clip-rule="evenodd" d="M22.2295 123.475C22.2295 123.199 22.8814 122.975 23.6855 122.975H108.735C109.539 122.975 110.191 123.199 110.191 123.475C110.191 123.751 109.539 123.975 108.735 123.975H23.6855C22.8814 123.975 22.2295 123.751 22.2295 123.475Z" fill="#1E2121"/>
<path fill-rule="evenodd" clip-rule="evenodd" d="M22.2295 132.471C22.2295 132.195 22.8814 131.971 23.6855 131.971H108.735C109.539 131.971 110.191 132.195 110.191 132.471C110.191 132.747 109.539 132.971 108.735 132.971H23.6855C22.8814 132.971 22.2295 132.747 22.2295 132.471Z" fill="#1E2121"/>
<path d="M8.98608 147.554H123.628V152.37C123.628 154.669 122.657 156.875 120.929 158.501C119.201 160.128 116.857 161.041 114.413 161.041H18.1987C15.7546 161.041 13.4107 160.128 11.6825 158.501C9.95429 156.875 8.9834 154.669 8.9834 152.37V147.554H8.98608Z" fill="#51EEDA"/>
<path d="M99.9582 178H32.0409C31.6415 178 31.246 177.897 30.877 177.695C30.508 177.494 30.1727 177.2 29.8904 176.828C29.608 176.457 29.384 176.016 29.2312 175.53C29.0785 175.045 28.9999 174.525 29 173.999C29 173.474 29.0787 172.954 29.2315 172.469C29.3843 171.984 29.6083 171.543 29.8907 171.171C30.173 170.8 30.5083 170.505 30.8772 170.304C31.2462 170.103 31.6416 170 32.0409 170H99.9582C100.765 170 101.538 170.421 102.109 171.171C102.679 171.921 103 172.939 103 173.999C103 175.06 102.68 176.078 102.109 176.828C101.539 177.579 100.765 178 99.9582 178Z" fill="#51EEDA"/>
<path d="M98.0435 157.028C99.5901 156.663 100.547 155.116 100.18 153.573C99.8131 152.031 98.262 151.077 96.7154 151.442C95.1688 151.808 94.2123 153.355 94.5791 154.898C94.9458 156.44 96.4969 157.394 98.0435 157.028Z" fill="white"/>
<g filter="url(#filter0_d_6368_601)">
<path d="M172.435 111.319L171.011 117.377L170.992 117.373C170.973 117.463 170.922 117.543 170.848 117.598C170.774 117.653 170.682 117.679 170.59 117.671L164.306 117.26C163.922 117.235 163.539 117.323 163.203 117.511C162.868 117.7 162.594 117.981 162.415 118.322C161.378 120.314 160.062 122.148 158.507 123.77C158.241 124.049 158.061 124.398 157.989 124.777C157.916 125.156 157.955 125.547 158.101 125.905L160.481 131.745C160.512 131.83 160.513 131.924 160.485 132.011C160.456 132.097 160.399 132.172 160.322 132.222L155.028 135.506C154.984 135.535 154.934 135.555 154.882 135.564C154.83 135.572 154.777 135.57 154.726 135.557C154.649 135.54 154.579 135.497 154.53 135.436L150.368 130.712C150.113 130.423 149.779 130.214 149.408 130.11C149.036 130.006 148.643 130.012 148.275 130.128C146.132 130.806 143.903 131.173 141.657 131.218C141.271 131.223 140.896 131.341 140.578 131.559C140.261 131.776 140.014 132.083 139.87 132.44L137.429 138.245C137.395 138.33 137.331 138.4 137.249 138.442C137.167 138.483 137.072 138.494 136.983 138.472L130.925 137.053C130.836 137.033 130.756 136.981 130.701 136.907C130.647 136.833 130.62 136.742 130.627 136.651L131.038 130.366C131.063 129.982 130.975 129.599 130.787 129.264C130.598 128.929 130.316 128.655 129.976 128.477C128.037 127.454 126.243 126.177 124.643 124.68C124.384 124.439 124.068 124.27 123.725 124.188C123.322 124.09 122.899 124.125 122.518 124.289L116.64 126.689C116.566 126.717 116.485 126.724 116.406 126.709C116.356 126.697 116.308 126.675 116.266 126.645C116.224 126.614 116.189 126.575 116.163 126.53L112.878 121.239C112.832 121.16 112.813 121.067 112.826 120.976C112.839 120.885 112.882 120.801 112.949 120.738L117.653 116.604C117.942 116.345 118.152 116.009 118.256 115.635C118.36 115.261 118.355 114.864 118.241 114.493C117.551 112.356 117.171 110.131 117.115 107.886C117.103 107.503 116.981 107.131 116.765 106.814C116.548 106.498 116.246 106.25 115.893 106.099L110.046 103.633C109.961 103.597 109.892 103.532 109.85 103.449C109.809 103.367 109.798 103.272 109.821 103.183L111.24 97.1253C111.259 97.0353 111.311 96.9555 111.385 96.9006C111.459 96.8457 111.55 96.8196 111.642 96.827L117.879 97.223C118.266 97.2499 118.652 97.1632 118.991 96.9735C119.33 96.7838 119.605 96.4993 119.784 96.1551C120.809 94.1567 122.114 92.3153 123.661 90.6866C123.926 90.4093 124.104 90.0605 124.173 89.6831C124.243 89.3056 124.2 88.9162 124.051 88.5628L121.651 82.6847C121.618 82.5992 121.615 82.5047 121.644 82.4176C121.673 82.3304 121.731 82.2561 121.809 82.2074L127.1 78.9224C127.144 78.893 127.193 78.8733 127.246 78.8646C127.298 78.8559 127.351 78.8584 127.402 78.8718C127.48 78.8906 127.55 78.9331 127.603 78.9934L131.735 83.6972C131.994 83.9871 132.331 84.1965 132.705 84.3007C133.079 84.4049 133.475 84.3995 133.847 84.2851C135.984 83.5953 138.21 83.2163 140.455 83.16C140.838 83.1472 141.21 83.0255 141.526 82.809C141.843 82.5925 142.091 82.2902 142.242 81.9376L144.705 76.0966C144.739 76.0102 144.804 75.9392 144.887 75.8967C144.97 75.8542 145.065 75.8431 145.156 75.8653L151.214 77.2849C151.305 77.3045 151.386 77.3567 151.44 77.4316C151.495 77.5066 151.521 77.599 151.512 77.6914L151.116 83.9287C151.09 84.3156 151.177 84.7017 151.367 85.0399C151.556 85.3781 151.84 85.6538 152.184 85.8335C154.226 86.8861 156.107 88.2256 157.769 89.8113C158.046 90.0795 158.396 90.2613 158.775 90.3344C159.153 90.4075 159.545 90.3688 159.903 90.2231L165.702 87.8183C165.777 87.7894 165.858 87.7809 165.937 87.7939C166.04 87.8201 166.129 87.8844 166.186 87.9738L169.466 93.268C169.513 93.3464 169.532 93.4387 169.52 93.5294C169.507 93.6202 169.464 93.7038 169.397 93.7663L164.672 97.9269C164.382 98.183 164.173 98.5172 164.07 98.8893C163.966 99.2614 163.972 99.6555 164.087 100.024C164.765 102.165 165.132 104.393 165.178 106.638C165.184 107.023 165.303 107.398 165.52 107.717C165.737 108.035 166.043 108.283 166.399 108.429L172.205 110.866C172.291 110.901 172.361 110.967 172.404 111.05C172.446 111.133 172.457 111.229 172.435 111.319ZM155.993 110.655C157.916 102.452 152.817 94.2297 144.618 92.3048C136.419 90.3799 128.19 95.4864 126.265 103.688C124.34 111.889 129.447 120.114 137.651 122.035C145.854 123.956 154.072 118.853 155.993 110.655Z" fill="#236F65"/>
</g>
<path opacity="0.52" d="M64.5895 41.5154L65.662 45.6945L65.6496 45.6981C65.6667 45.7597 65.6608 45.8254 65.6329 45.8829C65.6051 45.9404 65.5574 45.9858 65.4985 46.0106L61.5051 47.7783C61.2613 47.8868 61.0542 48.0636 60.9087 48.2872C60.7632 48.5109 60.6856 48.772 60.6853 49.0388C60.6883 50.5962 60.4695 52.1461 60.0357 53.642C59.9617 53.8989 59.9636 54.1716 60.041 54.4275C60.1185 54.6834 60.2683 54.9114 60.4723 55.0841L63.8123 57.9066C63.8589 57.9493 63.8898 58.0066 63.8999 58.069C63.91 58.1314 63.8988 58.1955 63.8681 58.2508L61.6713 61.9705C61.6538 62.0027 61.6296 62.0307 61.6004 62.0528C61.5712 62.0749 61.5376 62.0906 61.5019 62.0987C61.4492 62.1134 61.393 62.1095 61.3428 62.0876L57.2671 60.5234C57.0174 60.4279 56.7453 60.4066 56.4838 60.4624C56.2223 60.5181 55.9826 60.6484 55.7935 60.8374C54.6953 61.9429 53.444 62.8849 52.0779 63.6346C51.843 63.7616 51.6508 63.9551 51.5254 64.1909C51.4 64.4267 51.347 64.6943 51.3731 64.9601L51.7402 69.3106C51.7463 69.3741 51.7293 69.4377 51.6924 69.4898C51.6554 69.5418 51.601 69.5788 51.539 69.5939L47.3611 70.6694C47.2996 70.6858 47.2342 70.6796 47.1768 70.6518C47.1195 70.6241 47.074 70.5767 47.0486 70.5183L45.281 66.5252C45.1726 66.2815 44.9958 66.0744 44.7721 65.929C44.5484 65.7837 44.2874 65.7062 44.0207 65.7061C42.5008 65.701 40.9885 65.493 39.5237 65.0878C39.2877 65.0232 39.039 65.0209 38.8018 65.0811C38.523 65.1502 38.2741 65.3079 38.0927 65.5306L35.2535 68.8948C35.2167 68.9362 35.1691 68.9665 35.116 68.9822C35.0812 68.9914 35.0449 68.9933 35.0093 68.9878C34.9738 68.9824 34.9397 68.9697 34.9092 68.9505L31.1901 66.7565C31.1361 66.7226 31.0951 66.6715 31.0738 66.6114C31.0524 66.5514 31.0519 66.4858 31.0723 66.4255L32.6334 62.3737C32.728 62.1216 32.7484 61.8477 32.6921 61.5843C32.6358 61.321 32.5053 61.0793 32.3159 60.8878C31.2049 59.7969 30.2566 58.5517 29.5004 57.1906C29.3695 56.9591 29.1752 56.7698 28.9404 56.6449C28.7056 56.5201 28.44 56.4649 28.1749 56.4858L23.7903 56.85C23.7265 56.8555 23.6628 56.8379 23.6108 56.8005C23.5589 56.7632 23.522 56.7084 23.5069 56.6462L22.4315 52.4686C22.4145 52.407 22.4205 52.3414 22.4483 52.2839C22.4761 52.2265 22.5238 52.181 22.5826 52.1561L26.5414 50.3944C26.7879 50.2865 26.9975 50.1089 27.1445 49.8835C27.2915 49.6581 27.3695 49.3947 27.3688 49.1256C27.3559 47.5685 27.5658 46.0176 27.9922 44.5199C28.066 44.2643 28.0634 43.9927 27.9846 43.7385C27.9058 43.4844 27.7544 43.2589 27.5489 43.0898L24.1851 40.25C24.1371 40.2082 24.1052 40.151 24.0949 40.0882C24.0847 40.0254 24.0966 39.9609 24.1288 39.906L26.3231 36.187C26.3406 36.1548 26.3648 36.1268 26.394 36.1046C26.4232 36.0825 26.4567 36.0669 26.4924 36.0588C26.5463 36.0453 26.603 36.0489 26.6547 36.069L30.706 37.6301C30.9581 37.725 31.2321 37.7455 31.4955 37.6892C31.759 37.6329 32.0007 37.5022 32.192 37.3125C33.2833 36.2016 34.5288 35.2533 35.8901 34.4968C36.1215 34.3658 36.3107 34.1715 36.4355 33.9367C36.5603 33.702 36.6157 33.4365 36.595 33.1714L36.2301 28.7913C36.2236 28.727 36.2406 28.6626 36.2779 28.6099C36.3151 28.5571 36.3702 28.5196 36.4329 28.5042L40.6113 27.4285C40.6734 27.4114 40.7396 27.4176 40.7974 27.446C40.8551 27.4745 40.9005 27.5231 40.9247 27.5827L42.6866 31.5419C42.7951 31.7879 42.9727 31.997 43.198 32.1438C43.4232 32.2906 43.6863 32.3687 43.9552 32.3686C45.5481 32.3588 47.1342 32.5771 48.6651 33.0169C48.9218 33.0925 49.1949 33.0919 49.4511 33.015C49.7074 32.9381 49.9358 32.7883 50.1084 32.5839L52.8983 29.2421C52.9349 29.2003 52.9821 29.169 53.0348 29.1516C53.1064 29.1346 53.1816 29.1456 53.2454 29.1822L56.9623 31.3803C57.0167 31.4131 57.058 31.4637 57.0795 31.5235C57.1009 31.5833 57.1011 31.6487 57.08 31.7086L55.5148 35.7836C55.4195 36.034 55.3985 36.3065 55.4544 36.5684C55.5102 36.8304 55.6406 37.0706 55.8297 37.2602C56.9346 38.3576 57.8765 39.6076 58.6266 40.9723C58.754 41.2071 58.9476 41.3994 59.1832 41.5253C59.4189 41.6511 59.6864 41.705 59.9524 41.6803L64.3025 41.3106C64.3669 41.305 64.4312 41.3225 64.4838 41.36C64.5364 41.3976 64.5739 41.4527 64.5895 41.5154ZM54.2753 46.3931C52.8195 40.7356 47.0432 37.3235 41.3873 38.7767C35.7315 40.23 32.3181 46.0125 33.7718 51.6698C35.2255 57.3272 41.0076 60.7384 46.665 59.2813C52.3225 57.8242 55.7307 52.0473 54.2753 46.3931Z" fill="#236F65"/>
<g filter="url(#filter1_d_6368_601)">
<path d="M118.055 56.6627L148.108 26.1839C147.852 25.9407 147.601 25.6914 147.336 25.4526C130.146 9.96305 103.794 11.1115 87.9934 27.8486L118.055 56.6627Z" fill="#236F65"/>
</g>
<g filter="url(#filter2_d_6368_601)">
<path d="M167.359 43.2419C165.273 36.7136 161.632 30.7899 156.75 25.9805L154.461 25.6454L127.378 55.7029L167.359 43.2419Z" fill="#236F65"/>
</g>
<g filter="url(#filter3_d_6368_601)">
<path d="M120.188 64.4277L120.144 64.4765L87.1158 34.7166C87.0901 34.7452 84.8278 34.3816 84.8278 34.3816C69.1128 51.8222 72.7239 79.1151 90.165 94.8306C107.606 110.546 134.483 109.146 150.198 91.7055C160.48 80.2946 163.422 64.8494 159.351 51.1276L157.063 50.7926L120.188 64.4231" fill="#236F65"/>
</g>
<path d="M118.055 56.6628L145.82 25.8489C145.563 25.6056 145.313 25.3564 145.048 25.1176C127.858 9.62803 101.506 10.7764 85.7051 27.5136L118.055 56.6628Z" fill="url(#paint1_linear_6368_601)"/>
<path d="M165.071 42.9069C162.985 36.3786 159.344 30.4549 154.461 25.6454L127.378 55.7029L165.071 42.9069Z" fill="#4AFEBF"/>
<path d="M117.9 64.0927L117.856 64.1415L84.828 34.3817C84.8023 34.4103 84.7771 34.4382 84.7518 34.4662C69.0345 51.9047 70.4361 78.7801 87.8772 94.4956C105.318 110.211 132.196 108.811 147.911 91.3705C158.192 79.9597 161.135 64.5144 157.063 50.7927L117.901 64.0881" fill="url(#paint2_linear_6368_601)"/>
</g>
</g>
<defs>
<filter id="filter0_d_6368_601" x="105.809" y="75.8541" width="70.6367" height="70.6292" filterUnits="userSpaceOnUse" color-interpolation-filters="sRGB">
<feFlood flood-opacity="0" result="BackgroundImageFix"/>
<feColorMatrix in="SourceAlpha" type="matrix" values="0 0 0 0 0 0 0 0 0 0 0 0 0 0 0 0 0 0 127 0" result="hardAlpha"/>
<feOffset dy="4"/>
<feGaussianBlur stdDeviation="2"/>
<feComposite in2="hardAlpha" operator="out"/>
<feColorMatrix type="matrix" values="0 0 0 0 0 0 0 0 0 0 0 0 0 0 0 0 0 0 0.25 0"/>
<feBlend mode="normal" in2="BackgroundImageFix" result="effect1_dropShadow_6368_601"/>
<feBlend mode="normal" in="SourceGraphic" in2="effect1_dropShadow_6368_601" result="shape"/>
</filter>
<filter id="filter1_d_6368_601" x="80.9937" y="14.5291" width="68.1147" height="50.1337" filterUnits="userSpaceOnUse" color-interpolation-filters="sRGB">
<feFlood flood-opacity="0" result="BackgroundImageFix"/>
<feColorMatrix in="SourceAlpha" type="matrix" values="0 0 0 0 0 0 0 0 0 0 0 0 0 0 0 0 0 0 127 0" result="hardAlpha"/>
<feOffset dx="-3" dy="4"/>
<feGaussianBlur stdDeviation="2"/>
<feComposite in2="hardAlpha" operator="out"/>
<feColorMatrix type="matrix" values="0 0 0 0 0 0 0 0 0 0 0 0 0 0 0 0 0 0 0.13 0"/>
<feBlend mode="normal" in2="BackgroundImageFix" result="effect1_dropShadow_6368_601"/>
<feBlend mode="normal" in="SourceGraphic" in2="effect1_dropShadow_6368_601" result="shape"/>
</filter>
<filter id="filter2_d_6368_601" x="120.378" y="25.6454" width="47.981" height="38.0575" filterUnits="userSpaceOnUse" color-interpolation-filters="sRGB">
<feFlood flood-opacity="0" result="BackgroundImageFix"/>
<feColorMatrix in="SourceAlpha" type="matrix" values="0 0 0 0 0 0 0 0 0 0 0 0 0 0 0 0 0 0 127 0" result="hardAlpha"/>
<feOffset dx="-3" dy="4"/>
<feGaussianBlur stdDeviation="2"/>
<feComposite in2="hardAlpha" operator="out"/>
<feColorMatrix type="matrix" values="0 0 0 0 0 0 0 0 0 0 0 0 0 0 0 0 0 0 0.13 0"/>
<feBlend mode="normal" in2="BackgroundImageFix" result="effect1_dropShadow_6368_601"/>
<feBlend mode="normal" in="SourceGraphic" in2="effect1_dropShadow_6368_601" result="shape"/>
</filter>
<filter id="filter3_d_6368_601" x="67.8379" y="34.3816" width="94.2778" height="79.3778" filterUnits="userSpaceOnUse" color-interpolation-filters="sRGB">
<feFlood flood-opacity="0" result="BackgroundImageFix"/>
<feColorMatrix in="SourceAlpha" type="matrix" values="0 0 0 0 0 0 0 0 0 0 0 0 0 0 0 0 0 0 127 0" result="hardAlpha"/>
<feOffset dx="-3" dy="4"/>
<feGaussianBlur stdDeviation="2"/>
<feComposite in2="hardAlpha" operator="out"/>
<feColorMatrix type="matrix" values="0 0 0 0 0 0 0 0 0 0 0 0 0 0 0 0 0 0 0.13 0"/>
<feBlend mode="normal" in2="BackgroundImageFix" result="effect1_dropShadow_6368_601"/>
<feBlend mode="normal" in="SourceGraphic" in2="effect1_dropShadow_6368_601" result="shape"/>
</filter>
<linearGradient id="paint0_linear_6368_601" x1="93.3555" y1="182.102" x2="-68.1347" y2="-91.1588" gradientUnits="userSpaceOnUse">
<stop offset="0.25" stop-color="white"/>
<stop offset="1" stop-color="#999999" stop-opacity="0.15"/>
</linearGradient>
<linearGradient id="paint1_linear_6368_601" x1="99.5965" y1="12.0968" x2="131.946" y2="41.246" gradientUnits="userSpaceOnUse">
<stop stop-color="#4AFEBF"/>
<stop offset="1" stop-color="#50F1D6"/>
</linearGradient>
<linearGradient id="paint2_linear_6368_601" x1="82.6674" y1="36.7795" x2="145.824" y2="93.6868" gradientUnits="userSpaceOnUse">
<stop stop-color="#51EEDA"/>
<stop offset="1" stop-color="#00D9BD"/>
</linearGradient>
<clipPath id="clip0_6368_601">
<rect width="180" height="180" fill="white"/>
</clipPath>
<clipPath id="clip1_6368_601">
<rect width="180" height="180" fill="white"/>
</clipPath>
</defs>
</svg>
