<svg width="180" height="180" viewBox="0 0 180 180" fill="none" xmlns="http://www.w3.org/2000/svg">
<g clip-path="url(#clip0_6368_340)">
<rect width="180" height="180" fill="#1E2121"/>
<g clip-path="url(#clip1_6368_340)">
<path d="M162.123 94.8511L147.05 92.1587L151.103 69.4254C153.018 58.6278 145.801 48.3021 135.032 46.3869C124.234 44.4716 113.908 51.6885 111.993 62.4584L107.94 85.1916L92.8682 82.4991L96.9207 59.7659C100.307 40.6689 118.627 27.9005 137.696 31.3147C156.765 34.7288 169.562 53.0486 166.175 72.1456L162.123 94.8511Z" fill="white"/>
<path opacity="0.51" d="M96.0789 64.625L92.8887 82.5515L107.946 85.2311L111.136 67.3045L96.0789 64.625Z" fill="#8DE3DC"/>
<path opacity="0.51" d="M149.867 74.4216L146.677 92.3481L161.734 95.0277L164.924 77.1011L149.867 74.4216Z" fill="#8DE3DC"/>
<path d="M88.3716 71.0631C82.1262 69.9528 76.1584 74.1164 75.0481 80.3618L63.3345 146.313C62.2242 152.559 66.3878 158.526 72.6332 159.637L114.935 167.159L128.675 78.2245L88.3716 71.0631Z" fill="#00EDD7"/>
<path d="M170.311 85.6357L128.675 78.2245L114.936 167.159L154.545 174.209C160.791 175.32 166.758 171.156 167.869 164.911L179.61 98.9315C180.72 92.7138 176.557 86.746 170.311 85.6357Z" fill="#00DDC5"/>
<path d="M115.213 141.428L116.85 132.185C112.298 128.854 109.717 123.136 110.772 117.196C112.243 108.869 120.209 103.317 128.508 104.816C130.118 105.094 131.645 105.649 133.005 106.37C130.896 104.316 128.175 102.873 125.039 102.318C116.712 100.847 108.773 106.398 107.302 114.698C106.247 120.638 108.801 126.356 113.381 129.687L111.743 138.93C111.132 142.288 113.159 145.508 116.323 146.48C115.351 145.064 114.907 143.288 115.213 141.428Z" fill="#1E2121"/>
<path d="M133.033 106.37C136.558 109.785 138.39 114.836 137.474 120.055C136.419 125.995 132.033 130.464 126.593 132.046L124.955 141.289C124.317 144.925 120.82 147.368 117.183 146.702C116.906 146.646 116.628 146.591 116.351 146.507C117.322 147.895 118.849 148.895 120.625 149.228C124.261 149.866 127.731 147.451 128.397 143.815L130.035 134.572C135.475 133.017 139.861 128.549 140.916 122.581C142.109 115.863 138.751 109.396 133.033 106.37Z" fill="#00BBA7"/>
<path d="M124.956 141.261L126.593 132.018C132.034 130.464 136.419 125.995 137.474 120.027C138.39 114.836 136.586 109.757 133.033 106.343C131.645 105.621 130.146 105.066 128.536 104.788C120.209 103.317 112.271 108.869 110.799 117.168C109.745 123.108 112.298 128.826 116.878 132.157L115.241 141.4C114.908 143.232 115.379 145.036 116.379 146.452C116.656 146.535 116.934 146.618 117.211 146.646C120.82 147.34 124.317 144.925 124.956 141.261Z" fill="#1E2121"/>
<g filter="url(#filter0_d_6368_340)">
<path d="M103.908 126.034L109.846 143.377L117.605 140.708L111.667 123.365L115.408 122.089L119.116 132.898L126.876 130.229L123.168 119.42L121.927 115.836L121.087 113.432C120.072 110.487 116.848 108.891 113.903 109.906L56.2484 129.692C49.2264 117.748 34.5384 111.981 20.9105 116.649C4.74661 122.186 -3.57442 140.256 3.06883 156.311C8.91344 170.393 24.8259 177.817 39.3969 173.298C53.5272 168.904 61.9424 155.086 60.132 141.041L92.4334 129.973L96.1413 140.782L103.901 138.113L100.193 127.304L103.908 126.034ZM46.0607 139.521C48.9902 148.077 44.4505 157.39 35.8943 160.319C27.3382 163.249 18.0253 158.709 15.0958 150.153C12.1664 141.597 16.7061 132.284 25.2622 129.355C33.8184 126.425 43.1313 130.965 46.0607 139.521Z" fill="white"/>
</g>
<path opacity="0.58" d="M103.855 126.046L107.596 124.77L112.928 140.262L116.979 138.89L117.605 140.708L109.872 143.371L103.908 126.034L103.855 126.046Z" fill="#E7E7E7"/>
<path opacity="0.58" d="M115.429 122.305L119.138 121.009L122.179 129.816L126.223 128.417L126.855 130.261L119.116 132.898L115.408 122.089L115.362 122.127L115.429 122.305Z" fill="#E7E7E7"/>
<path opacity="0.58" d="M96.1222 128.709L99.198 137.673L103.275 136.295L103.907 138.139L96.1415 140.782L92.4336 129.973L96.1222 128.709Z" fill="#E7E7E7"/>
<path d="M50.4272 67.8155C65.5579 67.8155 77.8237 55.5497 77.8237 40.419C77.8237 25.2884 65.5579 13.0226 50.4272 13.0226C35.2966 13.0226 23.0308 25.2884 23.0308 40.419C23.0308 55.5497 35.2966 67.8155 50.4272 67.8155Z" fill="#50ECD8"/>
<path fill-rule="evenodd" clip-rule="evenodd" d="M54.3967 60.5986C65.5551 58.4058 72.8276 47.5804 70.6347 36.4498C68.4419 25.3191 57.6166 18.0189 46.4859 20.2117C35.3274 22.4046 28.055 33.2299 30.2479 44.3606C32.4129 55.519 43.2383 62.7914 54.3967 60.5986ZM54.7576 62.3751C66.8875 59.9879 74.7983 48.2188 72.4112 36.0889C70.0241 23.959 58.255 16.0481 46.125 18.4353C33.9951 20.8224 26.0843 32.5915 28.4714 44.7214C30.8308 56.8514 42.5999 64.7622 54.7576 62.3751Z" fill="#28BAA7"/>
<path d="M47.0962 26.6792L42.0166 40.1415C41.9611 40.308 42.0444 40.4746 42.2109 40.5578L50.7324 43.8609C50.8435 43.9165 50.9822 43.8887 51.0655 43.8054L57.5052 37.56C57.6162 37.449 57.644 37.2547 57.5052 37.1159L47.6236 26.5959C47.4571 26.4016 47.1795 26.4571 47.0962 26.6792Z" fill="white"/>
<path d="M51.7871 47.9413L57.5052 42.6119C57.755 42.3898 58.1436 42.6396 58.0048 42.9727L53.3971 54.2422C53.3138 54.4365 53.0362 54.492 52.8974 54.3532L43.8486 45.8317C43.5987 45.5819 43.8486 45.1933 44.1816 45.3043L51.4818 48.0246C51.5928 48.0523 51.7039 48.0246 51.7871 47.9413Z" fill="white"/>
<path d="M77.8235 41.7514C87.6959 41.7514 95.6992 33.7482 95.6992 23.8757C95.6992 14.0032 87.6959 6 77.8235 6C67.951 6 59.9478 14.0032 59.9478 23.8757C59.9478 33.7482 67.951 41.7514 77.8235 41.7514Z" fill="#4AFEBF"/>
<path fill-rule="evenodd" clip-rule="evenodd" d="M75.9915 37.1992C83.3472 38.2262 90.12 33.0911 91.147 25.7354C92.174 18.3797 87.0389 11.607 79.6833 10.5799C72.3276 9.55292 65.5548 14.688 64.5278 22.0437C63.5007 29.3716 68.6358 36.1722 75.9915 37.1992ZM75.825 38.365C83.8191 39.4753 91.2025 33.8961 92.3128 25.902C93.4231 17.9079 87.8439 10.5244 79.8498 9.41413C71.8557 8.30384 64.4722 13.8831 63.3619 21.8772C62.2517 29.8713 67.8309 37.2547 75.825 38.365Z" fill="#28BAA7"/>
</g>
</g>
<defs>
<filter id="filter0_d_6368_340" x="-3.22803" y="109.6" width="134.104" height="73.0186" filterUnits="userSpaceOnUse" color-interpolation-filters="sRGB">
<feFlood flood-opacity="0" result="BackgroundImageFix"/>
<feColorMatrix in="SourceAlpha" type="matrix" values="0 0 0 0 0 0 0 0 0 0 0 0 0 0 0 0 0 0 127 0" result="hardAlpha"/>
<feOffset dy="4"/>
<feGaussianBlur stdDeviation="2"/>
<feComposite in2="hardAlpha" operator="out"/>
<feColorMatrix type="matrix" values="0 0 0 0 0 0 0 0 0 0 0 0 0 0 0 0 0 0 0.25 0"/>
<feBlend mode="normal" in2="BackgroundImageFix" result="effect1_dropShadow_6368_340"/>
<feBlend mode="normal" in="SourceGraphic" in2="effect1_dropShadow_6368_340" result="shape"/>
</filter>
<clipPath id="clip0_6368_340">
<rect width="180" height="180" fill="white"/>
</clipPath>
<clipPath id="clip1_6368_340">
<rect width="180" height="180" fill="white"/>
</clipPath>
</defs>
</svg>
