<svg width="180" height="180" viewBox="0 0 180 180" fill="none" xmlns="http://www.w3.org/2000/svg">
<g clip-path="url(#clip0_6368_418)">
<rect width="180" height="180" fill="#1E2121"/>
<g clip-path="url(#clip1_6368_418)">
<rect width="180" height="180" fill="#1E2121"/>
<path d="M78.9007 76.1562C65.4696 59.3975 35.2797 56.0697 29.9051 78.0098C26.4115 92.2708 37.9872 102.278 51.681 107.638C68.1427 114.081 73.531 118.186 78.3352 121.631" stroke="white" stroke-width="2"/>
<mask id="mask0_6368_418" style="mask-type:luminance" maskUnits="userSpaceOnUse" x="102" y="3" width="33" height="33">
<path d="M128.532 6.91953C135.572 12.3455 136.854 22.4256 131.427 29.4262C125.997 36.4465 115.897 37.7165 108.877 32.2947C101.838 26.8687 100.556 16.7886 105.982 9.78806C111.389 2.7833 121.493 1.49352 128.532 6.91953Z" fill="white"/>
</mask>
<g mask="url(#mask0_6368_418)">
<path d="M128.532 6.9195C135.572 12.3455 136.854 22.4256 131.427 29.4262C125.997 36.4465 115.897 37.7165 108.877 32.2947C101.857 26.8729 100.556 16.7886 105.982 9.78803C111.389 2.78327 121.493 1.49349 128.532 6.9195Z" fill="#5AEDD8"/>
<path d="M112.967 15.1817L110.386 18.5447L111.945 22.4347L110.407 24.4049L107.919 18.2485L112.038 12.9153L112.967 15.1817ZM115.567 11.823L114.053 13.7777L113.144 11.5155L114.658 9.56079L117.081 9.86835L117.986 12.1504L115.567 11.823ZM120.376 13.9821L122.799 14.2896L123.704 16.5716L121.261 16.2599L120.376 13.9821Z" fill="white"/>
<path d="M112.102 18.7641L113.621 16.7896L114.53 19.0518L113.016 21.0065L112.102 18.7641ZM112.575 24.0581L113.485 26.3203L115.928 26.6321L114.414 28.5868L111.97 28.275L111.061 26.0128L112.575 24.0581ZM126.114 18.4074L128.538 18.715L129.443 20.997L127.928 22.9517L125.485 22.6399L126.999 20.6852L126.114 18.4074ZM121.823 27.3871L124.423 24.0284L126.847 24.3359L122.728 29.6691L116.145 28.8303L117.664 26.8558L121.823 27.3871Z" fill="white"/>
<path d="M121.173 25.7595L118.75 25.4519L120.264 23.4972L122.687 23.8048L121.173 25.7595Z" fill="white"/>
<path d="M125.288 20.4461L123.769 22.4205L119.61 21.8893L117.01 25.248L114.587 24.9404L113.677 22.6782L116.278 19.3195L114.719 15.4295L116.237 13.455L118.66 13.7626L120.199 17.6484L124.379 18.1839L125.288 20.4461ZM118.817 10.0921L125.4 10.9309L127.868 17.0831L125.445 16.7756L123.886 12.8856L119.722 12.3741L118.817 10.0921Z" fill="white"/>
</g>
<path d="M159.998 56.4107C168.141 58.1394 176.14 52.9545 177.865 44.8298C179.59 36.7052 174.387 28.7174 166.244 26.9886C158.102 25.2598 150.102 30.4447 148.377 38.5694C146.652 46.6941 151.855 54.6819 159.998 56.4107Z" fill="#236F65"/>
<path d="M168.824 39.4548C168.513 39.1612 168.036 39.0601 167.593 39.1936L164.398 40.2741L162.242 40.9544L159.047 42.0349C158.644 42.1769 158.168 42.0758 157.817 41.7737L155.856 39.9711C155.545 39.6775 155.371 39.2267 155.468 38.7713L156.019 36.1776C156.111 35.742 156.418 35.3726 156.861 35.239L159.357 34.4239C159.76 34.2819 160.236 34.3831 160.587 34.6851L162.536 36.4439C162.847 36.7376 163.021 37.1883 162.924 37.6437L162.567 39.3267L164.732 38.6067L165.089 36.9238C165.181 36.4882 165.051 36.0261 164.701 35.724L161.106 32.4364C160.795 32.1428 160.319 32.0417 159.876 32.1752L155.196 33.706C154.752 33.8396 154.45 34.1892 154.353 34.6446L153.319 39.5153C153.227 39.9509 153.357 40.413 153.708 40.715L157.362 44.0153C157.673 44.3089 158.149 44.41 158.592 44.2765L161.779 43.2356L163.943 42.5157L167.13 41.4748C167.533 41.3328 168.009 41.4339 168.36 41.736L170.309 43.4948C170.62 43.7884 170.794 44.2392 170.698 44.6946L170.147 47.2883C170.054 47.7239 169.748 48.0933 169.305 48.2269L166.801 49.0816C166.397 49.2235 165.921 49.1224 165.57 48.8204L163.621 47.0616C163.31 46.7679 163.136 46.3172 163.233 45.8618L163.59 44.1788L161.426 44.8987L161.068 46.5817C160.976 47.0173 161.106 47.4794 161.457 47.7815L165.111 51.0817C165.422 51.3754 165.898 51.4765 166.341 51.3429L171.021 49.8121C171.425 49.6701 171.767 49.3289 171.863 48.8735L172.897 44.0029C172.99 43.5673 172.86 43.1051 172.509 42.8031L168.824 39.4548Z" fill="white"/>
<mask id="mask1_6368_418" style="mask-type:luminance" maskUnits="userSpaceOnUse" x="53" y="42" width="113" height="91">
<path d="M71.6798 42.8609C69.4374 42.3849 67.1746 44.0564 66.6324 46.6105L53.7486 107.296C53.2063 109.85 54.5948 112.297 56.8371 112.773L147.603 132.043C149.845 132.519 152.108 130.847 152.65 128.293L165.534 67.6078C166.076 65.0537 164.688 62.6069 162.445 62.1309L71.6798 42.8609Z" fill="white"/>
</mask>
<g mask="url(#mask1_6368_418)">
<path d="M166.513 62.9945L67.6118 41.9973L52.7734 111.889L151.675 132.887L166.513 62.9945Z" fill="#28BCA9"/>
</g>
<path d="M146.293 131.765L58.1464 113.051C57.3924 112.891 56.9243 112.067 57.1051 111.216L70.2874 49.1247C70.4681 48.2733 71.2304 47.711 71.9845 47.8711L160.15 66.5891C160.905 66.7492 161.373 67.5728 161.192 68.4242L148.014 130.496C147.809 131.363 147.047 131.925 146.293 131.765Z" fill="white"/>
<mask id="mask2_6368_418" style="mask-type:luminance" maskUnits="userSpaceOnUse" x="74" y="24" width="35" height="35">
<path d="M88.1569 25.1159C97.1706 23.2339 106.045 28.9866 107.939 37.9837C109.851 46.9845 104.08 55.8143 95.0628 57.7138C86.0453 59.6132 77.1922 53.8468 75.2807 44.846C73.3867 35.8489 79.1394 27.0153 88.1569 25.1159Z" fill="white"/>
</mask>
<g mask="url(#mask2_6368_418)">
<path d="M95.0629 57.7138C104.08 55.8143 109.851 46.9845 107.939 37.9837C106.027 28.9829 97.1744 23.2164 88.1569 25.1159C79.1394 27.0154 73.3692 35.8452 75.2808 44.846C77.1923 53.8468 86.0454 59.6132 95.0629 57.7138Z" fill="#34BBA7"/>
<path d="M89.5259 29.0925L91.4475 38.1319L99.8265 39.9291L89.5259 29.0925Z" fill="white" fill-opacity="0.602"/>
<path d="M89.526 29.0926L84.514 43.1382L91.4514 38.1146L89.526 29.0926Z" fill="white"/>
<path d="M93.412 47.3996L94.7071 53.5323L100.126 41.3614L93.412 47.3996Z" fill="white" fill-opacity="0.602"/>
<path d="M94.7069 53.5323L93.4119 47.3996L84.8306 44.5741L94.7069 53.5323Z" fill="white"/>
<path d="M93.1124 45.9673L99.8262 39.9291L91.4473 38.1319L93.1124 45.9673Z" fill="white" fill-opacity="0.2"/>
<path d="M84.5136 43.1381L93.0949 45.9636L91.4297 38.1283L84.5136 43.1381Z" fill="white" fill-opacity="0.602"/>
</g>
<g filter="url(#filter0_d_6368_418)">
<mask id="mask3_6368_418" style="mask-type:luminance" maskUnits="userSpaceOnUse" x="103" y="37" width="53" height="52">
<path d="M122.051 37.3686L103.75 70.4187L136.885 88.7122L155.186 55.6622L122.051 37.3686Z" fill="white"/>
</mask>
<g mask="url(#mask3_6368_418)">
<path d="M120.318 79.5557C129.506 84.6308 140.969 81.3329 146.022 72.1839C151.099 63.0193 147.784 51.5763 138.612 46.5252C129.424 41.4501 117.961 44.7481 112.907 53.8971C107.83 63.0617 111.126 74.5004 120.318 79.5557Z" fill="#5AEDD8"/>
<path d="M132.565 68.1683C133.906 65.7629 132.906 64.1229 130.207 62.1842C128.289 60.7632 128.183 59.9957 128.719 59.0335C129.255 58.0713 130.28 57.8338 131.676 58.5853C132.921 59.2636 133.374 60.0631 133.157 61.2793C133.106 61.5169 133.239 61.7726 133.44 61.8982L134.535 62.5031C134.812 62.6653 135.123 62.5659 135.286 62.29L135.322 62.215C135.882 60.5544 135.283 58.689 133.775 57.6859L134.685 56.0375C134.847 55.7616 134.747 55.4507 134.432 55.1769L133.392 54.6044C133.115 54.4422 132.804 54.5416 132.53 54.8558L131.652 56.4491C129.43 55.5842 127.362 56.2417 126.396 57.9609C125.144 60.2404 126.017 61.8947 128.736 63.8376C130.47 65.2405 130.867 66.0076 130.262 67.0999C129.657 68.1923 128.258 68.4332 126.961 67.7027C125.158 66.7199 124.96 65.6018 125.327 64.459C125.414 64.1464 125.282 63.8907 125.076 63.7849L123.906 63.1433C123.629 62.9811 123.318 63.0805 123.156 63.3565L123.119 63.4314C122.453 65.2972 122.866 67.1643 124.952 68.766L124.042 70.4144C123.88 70.6903 123.98 71.0012 124.295 71.275L125.335 71.8476C125.611 72.0097 125.923 71.9103 126.197 71.5961L127.107 69.9477C129.37 70.7178 131.545 70.0417 132.565 68.1683Z" fill="white"/>
<path d="M120.488 70.9426C116.175 66.0541 116.734 58.5375 121.671 54.3299C124.299 52.0117 127.799 51.058 131.21 51.596C131.56 51.6082 131.817 51.4764 132.011 51.1453L132.547 50.1831C132.71 49.9072 132.665 49.6287 132.445 49.3957C132.37 49.3591 132.239 49.29 132.132 49.3085C124.435 47.7573 116.995 52.7164 115.443 60.4154C114.54 64.9622 115.889 69.5523 119.049 72.9339C119.256 73.2262 119.606 73.2385 119.824 72.995C119.936 72.9566 119.968 72.9014 120.041 72.7515L120.577 71.7893C120.683 71.5841 120.62 71.1983 120.488 70.9426ZM139.702 53.5024C139.495 53.21 139.145 53.1978 138.927 53.4413C138.816 53.4796 138.783 53.5348 138.71 53.6847L138.174 54.6469C138.011 54.9228 138.075 55.3087 138.207 55.5644C142.52 60.4529 141.961 67.9695 137.023 72.1771C134.395 74.4953 130.895 75.449 127.484 74.911C127.134 74.8988 126.878 75.0306 126.683 75.3617L126.147 76.3239C125.985 76.5998 126.03 76.8783 126.25 77.1112C126.325 77.1479 126.455 77.217 126.563 77.1984C134.259 78.7497 141.7 73.7906 143.251 66.0915C144.211 61.4741 142.811 56.8317 139.702 53.5024Z" fill="white"/>
</g>
</g>
<g filter="url(#filter1_d_6368_418)">
<mask id="mask4_6368_418" style="mask-type:luminance" maskUnits="userSpaceOnUse" x="52" y="50" width="101" height="83">
<path d="M56.6928 50.9356C54.4504 50.4596 52.7438 51.856 52.8977 54.0614L53.4287 108.118C53.5826 110.323 55.5272 112.495 57.7695 112.971L148.535 132.241C150.777 132.717 152.484 131.321 152.33 129.115L152.625 87.0905C152.373 83.3951 150.011 80.4521 146.777 79.7654L106.891 71.2974C104.648 70.8213 102.704 68.6497 102.55 66.4443L102.543 66.3807C102.299 62.9356 100.091 60.1493 97.0749 59.509L56.6928 50.9356Z" fill="white"/>
</mask>
<g mask="url(#mask4_6368_418)">
<g filter="url(#filter2_d_6368_418)">
<path d="M164.683 73.8624L53.1011 50.1731L40.5493 109.294L152.131 132.984L164.683 73.8624Z" fill="#51EEDA"/>
</g>
</g>
</g>
<g filter="url(#filter3_d_6368_418)">
<path d="M123.667 162.403C117.498 167.761 108.53 166.317 104.201 161.403C99.8712 156.489 94.2174 148.823 94.2174 148.823C94.2174 148.823 90.0145 156.799 79.9322 154.776C74.9544 153.777 72.311 150.702 70.9109 147.845L64.8325 148.525L58.7669 149.31C58.0869 152.419 56.2511 156.034 51.6539 158.189C42.3427 162.554 36.3625 155.806 36.3625 155.806C36.3625 155.806 32.6964 164.599 29.6595 170.401C26.6226 176.202 18.2526 179.741 10.9904 176.004C5.29035 173.073 4.51858 166.709 4.45178 164.101C4.43287 163.384 4.46769 162.951 4.46769 162.951L4.89348 135.548C4.70333 134.723 4.56359 133.887 4.47505 133.046C4.42661 132.586 4.39481 132.133 4.37965 131.688C4.01912 121.448 11.9914 115.579 11.9914 115.579L12.631 110.177C12.7493 109.174 13.1335 108.222 13.744 107.417C14.3544 106.613 15.1688 105.986 16.103 105.601C17.4073 105.065 19.2245 104.603 21.7448 104.405C25.7277 104.091 28.4774 104.682 30.223 105.341C30.9349 105.613 31.5845 106.026 32.1325 106.555C32.6806 107.085 33.1157 107.719 33.4118 108.421L35.2191 112.67L85.0569 106.655L85.8066 102.091C85.9272 101.339 86.199 100.619 86.6055 99.9745C87.012 99.33 87.5448 98.7744 88.1719 98.3411C89.7103 97.2849 92.2397 96.0574 96.1837 95.4144C98.6789 95.0083 100.553 95.0238 101.948 95.2338C102.947 95.3849 103.887 95.7999 104.671 96.4361C105.456 97.0722 106.056 97.9062 106.409 98.8519L108.316 103.946C108.316 103.946 117.456 107.75 119.542 117.782C119.633 118.217 119.709 118.664 119.773 119.123C119.887 119.962 119.95 120.806 119.961 121.653L126.896 148.168C126.896 148.168 127.034 148.58 127.185 149.281C127.74 151.835 128.505 158.2 123.667 162.403Z" fill="#A9E4DD"/>
<path d="M127.184 149.286C127.26 152.273 126.576 156.168 123.261 159.047C117.092 164.405 108.124 162.961 103.794 158.047C99.465 153.133 93.8113 145.467 93.8113 145.467C93.8113 145.467 89.6085 153.444 79.5261 151.42C74.5483 150.422 71.9049 147.346 70.5047 144.488L64.4265 145.17L58.3607 145.954C57.6808 149.063 55.8452 152.68 51.2479 154.834C41.94 159.197 35.9563 152.45 35.9563 152.45C35.9563 152.45 32.2902 161.243 29.2534 167.046C26.2166 172.848 17.8465 176.386 10.5843 172.649C6.67941 170.641 5.08771 167.021 4.45084 164.102C3.90338 161.592 4.06163 159.596 4.06163 159.596L4.47761 133.046L4.49093 132.192C4.45139 132.019 4.41575 131.856 4.38221 131.689C4.02168 121.448 11.994 115.579 11.994 115.579L12.6336 110.178C12.7519 109.175 13.1361 108.222 13.7465 107.418C14.357 106.613 15.1714 105.986 16.1056 105.602C17.4099 105.066 19.2271 104.603 21.7474 104.406C25.7303 104.092 28.48 104.682 30.2255 105.342C30.9375 105.614 31.5871 106.027 32.1351 106.556C32.6831 107.085 33.1183 107.72 33.4144 108.422L35.2216 112.671L85.0594 106.655L85.8064 102.091C85.9271 101.339 86.1988 100.619 86.6053 99.9745C87.0118 99.33 87.5447 98.7744 88.1717 98.3411C89.7101 97.2849 92.2395 96.0574 96.1836 95.4144C98.6787 95.0083 100.553 95.0238 101.948 95.2338C102.947 95.3849 103.887 95.7999 104.671 96.436C105.456 97.0722 106.056 97.9062 106.409 98.8519L108.316 103.946C108.316 103.946 117.455 107.75 119.542 117.782C119.549 117.953 119.553 118.124 119.556 118.296L119.772 119.123L126.494 144.811C126.494 144.811 127.118 146.716 127.184 149.286Z" fill="white"/>
<path d="M53.5783 144.586C53.8271 146.658 53.269 148.747 52.0196 150.42C50.7702 152.093 48.9252 153.221 46.8663 153.573C44.8074 153.924 42.6923 153.47 40.9589 152.306C39.2254 151.142 38.0062 149.357 37.5537 147.319C37.1011 145.282 37.4499 143.148 38.5277 141.36C39.6056 139.572 41.33 138.267 43.3441 137.714C45.3582 137.161 47.5078 137.403 49.3479 138.39C51.188 139.377 52.5779 141.034 53.2297 143.017C53.3975 143.527 53.5142 144.053 53.5783 144.586Z" fill="url(#paint0_linear_6368_418)"/>
<path opacity="0.38" d="M35 112.5L12 115.5C13 107 13.5 104.972 22 104.5C30.9998 104 33 106.5 35 112.5Z" fill="url(#paint1_linear_6368_418)"/>
<path opacity="0.38" d="M84.9998 107L108 104C105.499 95.5001 103.249 93.8987 94.9996 96C86.2648 98.2249 85.1063 100.676 84.9998 107Z" fill="url(#paint2_linear_6368_418)"/>
<path d="M90.7139 140.103C90.9641 142.177 90.4069 144.267 89.1577 145.942C87.9084 147.617 86.0628 148.747 84.0027 149.1C81.9426 149.453 79.8259 149 78.0906 147.836C76.3553 146.673 75.1343 144.886 74.6804 142.848C74.2264 140.809 74.5742 138.674 75.6519 136.884C76.7295 135.095 78.4544 133.787 80.4695 133.233C82.4847 132.679 84.6358 132.92 86.4777 133.907C88.3196 134.894 89.7112 136.55 90.3644 138.534C90.5324 139.044 90.6495 139.57 90.7139 140.103Z" fill="url(#paint3_linear_6368_418)"/>
<path d="M105.114 129.581C105.234 130.574 104.954 131.574 104.336 132.362C103.718 133.149 102.812 133.659 101.818 133.779C100.824 133.899 99.8227 133.619 99.035 133.002C98.2472 132.384 97.7373 131.479 97.6174 130.486C97.5837 130.204 97.5813 129.919 97.6101 129.637C97.7084 128.715 98.1426 127.862 98.83 127.24C99.5174 126.617 100.41 126.27 101.337 126.263C102.265 126.256 103.162 126.59 103.859 127.202C104.555 127.814 105.002 128.661 105.114 129.581Z" fill="#A9E4DD"/>
<path d="M103.313 112.728C103.38 113.223 103.349 113.728 103.219 114.211C103.09 114.694 102.866 115.147 102.56 115.543C102.254 115.939 101.872 116.27 101.437 116.518C101.001 116.765 100.521 116.923 100.024 116.983C99.5269 117.043 99.0229 117.004 98.5412 116.867C98.0596 116.731 97.6099 116.5 97.2184 116.188C96.8269 115.876 96.5014 115.49 96.2608 115.051C96.0202 114.612 95.8694 114.13 95.817 113.632C95.7833 113.351 95.7809 113.066 95.8097 112.784C95.8994 111.934 96.275 111.14 96.8751 110.531C97.4752 109.922 98.2642 109.535 99.113 109.433C99.9619 109.33 100.82 109.519 101.548 109.967C102.276 110.416 102.83 111.098 103.119 111.902C103.214 112.169 103.279 112.446 103.313 112.728Z" fill="#A9E4DD"/>
<path d="M95.8968 122.041C95.9643 122.536 95.9325 123.041 95.8032 123.524C95.6739 124.007 95.4497 124.46 95.1437 124.856C94.8376 125.252 94.4558 125.584 94.0205 125.831C93.5851 126.078 93.105 126.236 92.6079 126.296C92.1108 126.356 91.6068 126.317 91.1252 126.18C90.6435 126.044 90.1939 125.813 89.8024 125.501C89.4109 125.189 89.0853 124.803 88.8447 124.364C88.6041 123.925 88.4533 123.443 88.4009 122.946C88.367 122.664 88.3643 122.38 88.3929 122.098C88.4911 121.177 88.9253 120.323 89.6126 119.701C90.2999 119.079 91.1923 118.731 92.1197 118.724C93.0471 118.717 93.9446 119.051 94.6412 119.662C95.3378 120.274 95.7847 121.121 95.8968 122.041Z" fill="#A9E4DD"/>
<path d="M112.761 120.239C112.875 121.195 112.619 122.158 112.045 122.931C111.471 123.705 110.623 124.229 109.674 124.397C108.725 124.565 107.748 124.364 106.944 123.835C106.139 123.306 105.567 122.489 105.346 121.552C105.125 120.615 105.271 119.629 105.754 118.796C106.238 117.963 107.022 117.347 107.945 117.073C108.869 116.8 109.863 116.89 110.722 117.325C111.581 117.76 112.241 118.508 112.566 119.414C112.661 119.681 112.727 119.957 112.761 120.239Z" fill="#A9E4DD"/>
<path d="M105.114 128.581C105.234 129.574 104.954 130.575 104.336 131.362C103.718 132.149 102.812 132.659 101.818 132.779C100.824 132.899 99.8227 132.619 99.035 132.002C98.2472 131.384 97.7373 130.479 97.6174 129.486C97.5837 129.204 97.5813 128.919 97.6101 128.637C97.7084 127.716 98.1426 126.862 98.83 126.24C99.5174 125.617 100.41 125.27 101.337 125.263C102.265 125.256 103.162 125.59 103.859 126.202C104.555 126.814 105.002 127.661 105.114 128.581Z" fill="#34BBA7"/>
<path d="M103.313 111.728C103.38 112.223 103.349 112.728 103.219 113.211C103.09 113.694 102.866 114.147 102.56 114.543C102.254 114.939 101.872 115.27 101.437 115.518C101.001 115.765 100.521 115.923 100.024 115.983C99.5269 116.043 99.0229 116.004 98.5412 115.867C98.0596 115.731 97.6099 115.5 97.2184 115.188C96.8269 114.876 96.5014 114.49 96.2608 114.051C96.0202 113.612 95.8694 113.13 95.817 112.632C95.7833 112.351 95.7809 112.066 95.8097 111.784C95.8994 110.934 96.275 110.14 96.8751 109.531C97.4752 108.922 98.2642 108.535 99.113 108.433C99.9619 108.33 100.82 108.519 101.548 108.967C102.276 109.416 102.83 110.098 103.119 110.902C103.214 111.169 103.279 111.446 103.313 111.728Z" fill="#34BBA7"/>
<path d="M95.8968 121.041C95.9643 121.537 95.9325 122.041 95.8032 122.524C95.6739 123.008 95.4497 123.46 95.1437 123.856C94.8376 124.252 94.4558 124.584 94.0205 124.831C93.5851 125.078 93.105 125.236 92.6079 125.296C92.1108 125.356 91.6068 125.317 91.1252 125.18C90.6435 125.044 90.1939 124.813 89.8024 124.501C89.4109 124.189 89.0853 123.803 88.8447 123.364C88.6041 122.925 88.4533 122.443 88.4009 121.946C88.367 121.664 88.3643 121.38 88.3929 121.098C88.4911 120.177 88.9253 119.323 89.6126 118.701C90.2999 118.079 91.1923 117.731 92.1197 117.724C93.0471 117.717 93.9446 118.051 94.6412 118.662C95.3378 119.274 95.7847 120.121 95.8968 121.041Z" fill="#34BBA7"/>
<path d="M112.761 119.239C112.875 120.195 112.619 121.158 112.045 121.932C111.471 122.705 110.623 123.229 109.674 123.397C108.725 123.565 107.748 123.364 106.944 122.835C106.139 122.306 105.567 121.489 105.346 120.552C105.125 119.615 105.271 118.629 105.754 117.796C106.238 116.963 107.022 116.347 107.945 116.073C108.869 115.8 109.863 115.89 110.722 116.325C111.581 116.76 112.241 117.508 112.566 118.414C112.661 118.681 112.727 118.958 112.761 119.239Z" fill="#34BBA7"/>
<path d="M25.6969 121.805L26.1565 125.613C26.1735 125.752 26.1573 125.894 26.1093 126.026C26.0613 126.158 25.9829 126.277 25.8804 126.373L23.7245 128.398C23.5856 128.528 23.4087 128.611 23.2196 128.634C23.0305 128.656 22.8391 128.618 22.6731 128.525L20.0975 127.071C19.975 127.002 19.8705 126.905 19.7924 126.788C19.7144 126.671 19.665 126.538 19.6482 126.398L19.1885 122.59C19.16 122.354 19.2266 122.116 19.3735 121.929C19.5205 121.742 19.7358 121.621 19.9721 121.592L24.6983 121.022C24.8153 121.008 24.934 121.017 25.0475 121.048C25.161 121.08 25.2672 121.134 25.3599 121.206C25.4526 121.279 25.5301 121.369 25.5879 121.472C25.6458 121.575 25.6828 121.688 25.6969 121.805Z" fill="#A9E4DD"/>
<path d="M27.2422 134.609L27.7019 138.418C27.7163 138.535 27.7074 138.654 27.6758 138.767C27.6442 138.881 27.5904 138.987 27.5176 139.08C27.4448 139.173 27.3544 139.25 27.2516 139.308C27.1488 139.366 27.0356 139.403 26.9184 139.417L22.1923 139.987C22.0753 140.002 21.9567 139.993 21.8432 139.961C21.7297 139.929 21.6235 139.876 21.5308 139.803C21.4381 139.731 21.3606 139.64 21.3028 139.538C21.2449 139.435 21.2079 139.322 21.1938 139.205L20.734 135.397C20.7173 135.257 20.7335 135.116 20.7815 134.984C20.8295 134.852 20.9079 134.733 21.0103 134.637L23.1661 132.612C23.3053 132.482 23.4822 132.4 23.6712 132.377C23.8602 132.354 24.0515 132.392 24.2176 132.485L26.7932 133.938C26.9153 134.007 27.0196 134.104 27.0975 134.22C27.1755 134.337 27.2251 134.47 27.2422 134.609Z" fill="#A9E4DD"/>
<path d="M32.3365 127.011L32.9066 131.734C32.9351 131.97 32.8686 132.208 32.7216 132.395C32.5747 132.582 32.3593 132.703 32.123 132.732L28.3116 133.192C28.172 133.209 28.0305 133.193 27.8984 133.145C27.7663 133.097 27.6473 133.018 27.5511 132.916L25.5293 130.763C25.3982 130.624 25.3151 130.447 25.2922 130.257C25.2693 130.067 25.3078 129.875 25.402 129.708L25.5105 129.517L26.8567 127.134C26.9257 127.012 27.0225 126.907 27.1395 126.829C27.2564 126.751 27.3901 126.702 27.5297 126.685L31.3376 126.225C31.4548 126.211 31.5737 126.22 31.6874 126.252C31.8011 126.284 31.9074 126.338 32.0002 126.411C32.093 126.484 32.1705 126.575 32.2282 126.677C32.2859 126.78 32.3227 126.894 32.3365 127.011Z" fill="#A9E4DD"/>
<path d="M21.4374 131.257L19.9835 133.831C19.9144 133.954 19.8175 134.058 19.7006 134.136C19.5837 134.214 19.4501 134.263 19.3106 134.28L15.4982 134.74C15.2621 134.768 15.0244 134.702 14.8374 134.555C14.6504 134.408 14.5293 134.193 14.5005 133.957L13.9302 129.233C13.9018 128.997 13.9682 128.759 14.115 128.572C14.2617 128.385 14.4768 128.264 14.713 128.235L18.5253 127.775C18.6648 127.758 18.8064 127.774 18.9386 127.822C19.0707 127.87 19.1896 127.948 19.2858 128.051L21.1595 130.045L21.3104 130.205C21.4405 130.344 21.5229 130.521 21.5457 130.71C21.5685 130.899 21.5306 131.091 21.4374 131.257Z" fill="#A9E4DD"/>
<path d="M25.6969 121.805L25.9867 124.205C26.0034 124.345 25.9871 124.487 25.9392 124.619C25.8912 124.751 25.8129 124.87 25.7105 124.966L23.5546 126.99C23.4156 127.12 23.2388 127.203 23.0497 127.226C22.8605 127.248 22.6691 127.21 22.5032 127.117L19.9276 125.664C19.8053 125.595 19.7009 125.498 19.6228 125.381C19.5448 125.264 19.4953 125.131 19.4783 124.991L19.1885 122.59C19.16 122.354 19.2266 122.116 19.3735 121.929C19.5205 121.742 19.7358 121.621 19.9721 121.592L24.6983 121.022C24.8153 121.008 24.934 121.017 25.0475 121.048C25.161 121.08 25.2672 121.134 25.3599 121.206C25.4526 121.279 25.5301 121.369 25.5879 121.472C25.6458 121.575 25.6828 121.688 25.6969 121.805Z" fill="#34BBA7"/>
<path d="M27.2419 134.609L27.5317 137.01C27.5458 137.127 27.5367 137.245 27.505 137.359C27.4732 137.472 27.4194 137.578 27.3466 137.671C27.2739 137.763 27.1835 137.841 27.0808 137.899C26.9781 137.956 26.865 137.993 26.748 138.007L22.0218 138.578C21.9049 138.592 21.7862 138.583 21.6728 138.551C21.5593 138.52 21.4531 138.466 21.3604 138.393C21.2676 138.321 21.1902 138.231 21.1323 138.128C21.0745 138.025 21.0375 137.912 21.0234 137.796L20.7336 135.395C20.7168 135.255 20.7331 135.114 20.781 134.982C20.829 134.85 20.9074 134.731 21.0098 134.635L23.1657 132.61C23.3048 132.48 23.4817 132.398 23.6707 132.375C23.8597 132.352 24.051 132.39 24.2171 132.483L26.7927 133.937C26.9151 134.006 27.0195 134.103 27.0975 134.219C27.1756 134.336 27.225 134.47 27.2419 134.609Z" fill="#34BBA7"/>
<path d="M32.3363 127.011L32.7364 130.326C32.7649 130.562 32.6984 130.8 32.5514 130.987C32.4045 131.174 32.1891 131.296 31.9528 131.324L28.1414 131.784C28.0018 131.801 27.8603 131.785 27.7282 131.737C27.5961 131.689 27.4771 131.61 27.3809 131.508L25.5062 129.514L26.8524 127.13C26.9214 127.008 27.0183 126.903 27.1352 126.825C27.2521 126.747 27.3858 126.698 27.5254 126.681L31.3368 126.221C31.4545 126.207 31.5737 126.216 31.6877 126.248C31.8018 126.28 31.9083 126.335 32.0012 126.408C32.0941 126.481 32.1716 126.573 32.2291 126.676C32.2866 126.78 32.323 126.893 32.3363 127.011Z" fill="#34BBA7"/>
<path d="M21.1591 130.042L19.8138 132.425C19.7447 132.547 19.6477 132.652 19.5308 132.73C19.414 132.808 19.2803 132.857 19.1408 132.874L15.3285 133.334C15.0923 133.362 14.8547 133.296 14.6677 133.149C14.4807 133.002 14.3595 132.787 14.3308 132.551L13.9302 129.233C13.9018 128.997 13.9682 128.759 14.115 128.572C14.2617 128.385 14.4768 128.264 14.713 128.235L18.5253 127.775C18.6648 127.758 18.8064 127.774 18.9386 127.822C19.0707 127.87 19.1896 127.948 19.2858 128.051L21.1591 130.042Z" fill="#34BBA7"/>
<path d="M52.5119 125.355L52.8184 127.894C52.8288 127.982 52.8038 128.071 52.7489 128.14C52.694 128.21 52.6137 128.255 52.5255 128.266L48.1122 128.799C48.024 128.809 47.9352 128.785 47.8653 128.73C47.7954 128.675 47.75 128.595 47.7391 128.507L47.4326 125.968C47.4222 125.88 47.4472 125.791 47.5021 125.721C47.557 125.652 47.6374 125.606 47.7255 125.596L52.1389 125.063C52.2271 125.052 52.3158 125.077 52.3858 125.132C52.4557 125.187 52.5011 125.267 52.5119 125.355Z" fill="#A9E4DD"/>
<path d="M65.2572 134.908L65.5408 137.258C65.5613 137.428 65.4027 137.587 65.188 137.613L59.9931 138.24C59.7767 138.266 59.5848 138.149 59.5643 137.98L59.2806 135.629C59.2601 135.46 59.4189 135.302 59.6353 135.276L64.8303 134.649C65.0449 134.623 65.2366 134.738 65.2572 134.908Z" fill="#A9E4DD"/>
<path d="M75.2318 124.63L70.4687 126.787C70.4208 126.808 70.3684 126.819 70.3159 126.816C70.2634 126.814 70.2121 126.799 70.1663 126.774C70.1205 126.748 70.0814 126.712 70.0523 126.668C70.0231 126.624 70.0047 126.574 69.9984 126.522L69.6217 123.4C69.6153 123.348 69.6213 123.295 69.6392 123.246C69.6572 123.197 69.6865 123.152 69.7248 123.116C69.7632 123.08 69.8095 123.054 69.86 123.039C69.9104 123.024 69.9637 123.022 70.0154 123.031L73.7592 123.734L75.1554 123.997C75.2249 124.01 75.2884 124.045 75.3366 124.097C75.3849 124.149 75.4154 124.215 75.4239 124.285C75.4324 124.356 75.4184 124.427 75.3839 124.489C75.3493 124.551 75.2961 124.6 75.2318 124.63Z" fill="#A9E4DD"/>
<path d="M52.1389 125.063L47.7255 125.596C47.5416 125.618 47.4106 125.785 47.4327 125.969L47.5604 127.026C47.5826 127.21 47.7496 127.341 47.9335 127.319L52.3469 126.786C52.5308 126.764 52.6619 126.597 52.6397 126.413L52.512 125.356C52.4898 125.172 52.3228 125.041 52.1389 125.063Z" fill="#34BBA7"/>
<path d="M65.2572 134.908L65.3619 135.776C65.3824 135.946 65.2239 136.105 65.0092 136.131L59.8142 136.758C59.5978 136.784 59.4059 136.667 59.3854 136.497L59.2806 135.629C59.2601 135.46 59.4189 135.302 59.6353 135.276L64.8303 134.649C65.0449 134.623 65.2366 134.738 65.2572 134.908Z" fill="#34BBA7"/>
<path d="M73.7591 123.733L70.2901 125.307C70.2422 125.329 70.1898 125.339 70.1372 125.337C70.0846 125.335 70.0333 125.32 69.9874 125.294C69.9415 125.268 69.9025 125.232 69.8733 125.188C69.8442 125.145 69.8259 125.094 69.8198 125.042L69.6217 123.4C69.6153 123.348 69.6213 123.295 69.6392 123.246C69.6572 123.197 69.6865 123.152 69.7249 123.116C69.7632 123.08 69.8095 123.054 69.86 123.039C69.9104 123.024 69.9637 123.022 70.0154 123.031L73.7591 123.733Z" fill="#34BBA7"/>
</g>
<path d="M29.9049 78.0098C26.4113 92.2708 37.987 102.278 51.6808 107.638C68.1425 114.081 73.5308 118.186 78.335 121.631" stroke="white" stroke-width="2"/>
</g>
</g>
<defs>
<filter id="filter0_d_6368_418" x="106.524" y="36.1426" width="45.877" height="45.7957" filterUnits="userSpaceOnUse" color-interpolation-filters="sRGB">
<feFlood flood-opacity="0" result="BackgroundImageFix"/>
<feColorMatrix in="SourceAlpha" type="matrix" values="0 0 0 0 0 0 0 0 0 0 0 0 0 0 0 0 0 0 127 0" result="hardAlpha"/>
<feOffset dy="-4"/>
<feGaussianBlur stdDeviation="2"/>
<feComposite in2="hardAlpha" operator="out"/>
<feColorMatrix type="matrix" values="0 0 0 0 0 0 0 0 0 0 0 0 0 0 0 0 0 0 0.25 0"/>
<feBlend mode="normal" in2="BackgroundImageFix" result="effect1_dropShadow_6368_418"/>
<feBlend mode="normal" in="SourceGraphic" in2="effect1_dropShadow_6368_418" result="shape"/>
</filter>
<filter id="filter1_d_6368_418" x="48.8882" y="44.8425" width="107.737" height="89.4915" filterUnits="userSpaceOnUse" color-interpolation-filters="sRGB">
<feFlood flood-opacity="0" result="BackgroundImageFix"/>
<feColorMatrix in="SourceAlpha" type="matrix" values="0 0 0 0 0 0 0 0 0 0 0 0 0 0 0 0 0 0 127 0" result="hardAlpha"/>
<feOffset dy="-2"/>
<feGaussianBlur stdDeviation="2"/>
<feComposite in2="hardAlpha" operator="out"/>
<feColorMatrix type="matrix" values="0 0 0 0 0 0 0 0 0 0 0 0 0 0 0 0 0 0 0.25 0"/>
<feBlend mode="normal" in2="BackgroundImageFix" result="effect1_dropShadow_6368_418"/>
<feBlend mode="normal" in="SourceGraphic" in2="effect1_dropShadow_6368_418" result="shape"/>
</filter>
<filter id="filter2_d_6368_418" x="36.5493" y="50.1731" width="132.133" height="90.8106" filterUnits="userSpaceOnUse" color-interpolation-filters="sRGB">
<feFlood flood-opacity="0" result="BackgroundImageFix"/>
<feColorMatrix in="SourceAlpha" type="matrix" values="0 0 0 0 0 0 0 0 0 0 0 0 0 0 0 0 0 0 127 0" result="hardAlpha"/>
<feOffset dy="4"/>
<feGaussianBlur stdDeviation="2"/>
<feComposite in2="hardAlpha" operator="out"/>
<feColorMatrix type="matrix" values="0 0 0 0 0 0 0 0 0 0 0 0 0 0 0 0 0 0 0.25 0"/>
<feBlend mode="normal" in2="BackgroundImageFix" result="effect1_dropShadow_6368_418"/>
<feBlend mode="normal" in="SourceGraphic" in2="effect1_dropShadow_6368_418" result="shape"/>
</filter>
<filter id="filter3_d_6368_418" x="2.04053" y="90.0888" width="131.555" height="90.4533" filterUnits="userSpaceOnUse" color-interpolation-filters="sRGB">
<feFlood flood-opacity="0" result="BackgroundImageFix"/>
<feColorMatrix in="SourceAlpha" type="matrix" values="0 0 0 0 0 0 0 0 0 0 0 0 0 0 0 0 0 0 127 0" result="hardAlpha"/>
<feOffset dx="2" dy="-1"/>
<feGaussianBlur stdDeviation="2"/>
<feComposite in2="hardAlpha" operator="out"/>
<feColorMatrix type="matrix" values="0 0 0 0 0 0 0 0 0 0 0 0 0 0 0 0 0 0 0.11 0"/>
<feBlend mode="normal" in2="BackgroundImageFix" result="effect1_dropShadow_6368_418"/>
<feBlend mode="normal" in="SourceGraphic" in2="effect1_dropShadow_6368_418" result="shape"/>
</filter>
<linearGradient id="paint0_linear_6368_418" x1="44.5237" y1="137.482" x2="46.4729" y2="153.63" gradientUnits="userSpaceOnUse">
<stop offset="0.305" stop-color="#0DE7BF"/>
<stop offset="1" stop-color="#09BAA4"/>
</linearGradient>
<linearGradient id="paint1_linear_6368_418" x1="23" y1="110" x2="25" y2="118.5" gradientUnits="userSpaceOnUse">
<stop stop-color="#A9E4DD" stop-opacity="0"/>
<stop offset="1" stop-color="#A9E4DD"/>
</linearGradient>
<linearGradient id="paint2_linear_6368_418" x1="96.1156" y1="100.608" x2="96.7596" y2="109.316" gradientUnits="userSpaceOnUse">
<stop stop-color="#A9E4DD" stop-opacity="0"/>
<stop offset="1" stop-color="#A9E4DD"/>
</linearGradient>
<linearGradient id="paint3_linear_6368_418" x1="81.654" y1="133" x2="83.6044" y2="149.158" gradientUnits="userSpaceOnUse">
<stop offset="0.305" stop-color="#0DE7BF"/>
<stop offset="1" stop-color="#09BAA4"/>
</linearGradient>
<clipPath id="clip0_6368_418">
<rect width="180" height="180" fill="white"/>
</clipPath>
<clipPath id="clip1_6368_418">
<rect width="180" height="180" fill="white"/>
</clipPath>
</defs>
</svg>
