<svg width="180" height="180" viewBox="0 0 180 180" fill="none" xmlns="http://www.w3.org/2000/svg">
<g clip-path="url(#clip0_6368_545)">
<rect width="180" height="180" fill="#141616"/>
<g clip-path="url(#clip1_6368_545)">
<mask id="mask0_6368_545" style="mask-type:luminance" maskUnits="userSpaceOnUse" x="0" y="0" width="180" height="180">
<path d="M180 0H0V180H180V0Z" fill="white"/>
</mask>
<g mask="url(#mask0_6368_545)">
<path d="M180 0H0V180H180V0Z" fill="#1E2121"/>
<path opacity="0.62" d="M62.5999 87.6655V37.8802C62.5999 37.5127 62.2935 37.212 61.919 37.212H55.3137C54.7689 37.212 54.4284 36.5773 54.803 36.143L70.6012 16.6668C70.8736 16.3327 71.3843 16.3327 71.6567 16.6668L87.4549 36.143C87.7953 36.5773 87.4889 37.212 86.9441 37.212H79.9984C79.6239 37.212 79.3174 37.5127 79.3174 37.8802V87.6655" fill="#236F65"/>
<path opacity="0.29" d="M98.0707 66.2906V28.3294C98.0707 28.0492 97.8388 27.8199 97.5554 27.8199H92.5568C92.1446 27.8199 91.8869 27.3359 92.1703 27.0048L104.126 12.1542C104.332 11.8995 104.719 11.8995 104.925 12.1542L116.88 27.0048C117.138 27.3359 116.906 27.8199 116.494 27.8199H111.237C110.954 27.8199 110.722 28.0492 110.722 28.3294V66.2906" fill="#236F65"/>
<path fill-rule="evenodd" clip-rule="evenodd" d="M53.7762 139.606L53.777 139.106C54.6454 139.107 55.5271 139.024 56.4124 138.851L58.8505 138.372L58.9467 138.863L56.5087 139.341C55.5912 139.521 54.677 139.607 53.7762 139.606ZM151.593 120.689L151.497 120.199L153.935 119.72C154.82 119.547 155.668 119.29 156.471 118.961L156.661 119.424C155.827 119.765 154.949 120.031 154.031 120.211L151.593 120.689ZM161.21 116.4L160.857 116.046C162.112 114.795 163.112 113.307 163.796 111.672L164.258 111.865C163.549 113.56 162.512 115.103 161.21 116.4ZM154.869 51.7528L154.378 51.8491L153.935 49.5871C153.761 48.7018 153.505 47.8542 153.175 47.0506L153.638 46.861C153.979 47.6945 154.245 48.5734 154.425 49.4909L154.869 51.7528ZM150.614 42.3116L150.26 42.6646C149.009 41.4095 147.521 40.4094 145.886 39.7255L146.079 39.2643C147.774 39.9734 149.317 41.0102 150.614 42.3116ZM42.9079 57.0994L40.4699 57.5777C39.5524 57.7577 38.6735 58.0235 37.84 58.3651L38.0296 58.8278C38.8332 58.4984 39.6807 58.242 40.5661 58.0683L43.0042 57.5901L42.9079 57.0994ZM33.2906 61.389L33.6436 61.7432C32.3884 62.9939 31.3884 64.4821 30.7045 66.1167L30.2432 65.9237C30.9524 64.2288 31.9892 62.6859 33.2906 61.389ZM39.6319 126.036L40.1226 125.94L40.5663 128.202C40.7399 129.087 40.9963 129.935 41.3257 130.738L40.863 130.928C40.5214 130.094 40.2556 129.215 40.0756 128.298L39.6319 126.036ZM43.8869 135.477L44.2411 135.124C45.4918 136.379 46.98 137.379 48.6146 138.063L48.4216 138.525C46.7267 137.815 45.1838 136.779 43.8869 135.477ZM38.7445 121.512L39.2351 121.416L38.3477 116.892L37.8571 116.988L38.7445 121.512ZM36.9696 112.464L37.4603 112.368L36.5729 107.844L36.0822 107.94L36.9696 112.464ZM35.1948 103.416L35.6855 103.32L34.798 98.7961L34.3074 98.8924L35.1948 103.416ZM33.42 94.3684L33.9106 94.2722L33.0232 89.7483L32.5326 89.8445L33.42 94.3684ZM31.6451 85.3206L32.1358 85.2243L31.2484 80.7004L30.7577 80.7967L31.6451 85.3206ZM29.8703 76.2727L30.3609 76.1765L29.9172 73.9145C29.7436 73.0291 29.6607 72.1475 29.6621 71.2791L29.1621 71.2783C29.1607 72.1791 29.2466 73.0932 29.4266 74.0108L29.8703 76.2727ZM47.784 56.1429L47.8803 56.6336L52.7564 55.6771L52.6602 55.1864L47.784 56.1429ZM57.5363 54.2299L57.6325 54.7206L62.5086 53.7641L62.4124 53.2734L57.5363 54.2299ZM67.2885 52.3169L67.3848 52.8076L72.2609 51.8511L72.1646 51.3604L67.2885 52.3169ZM77.0407 50.4039L77.137 50.8946L82.0131 49.938L81.9169 49.4474L77.0407 50.4039ZM86.793 48.4909L86.8892 48.9815L91.7653 48.025L91.6691 47.5344L86.793 48.4909ZM96.5452 46.5779L96.6415 47.0685L101.518 46.112L101.421 45.6214L96.5452 46.5779ZM106.297 44.6649L106.394 45.1555L111.27 44.199L111.174 43.7084L106.297 44.6649ZM116.05 42.7519L116.146 43.2425L121.022 42.286L120.926 41.7954L116.05 42.7519ZM125.802 40.8389L125.898 41.3295L130.774 40.373L130.678 39.8824L125.802 40.8389ZM135.554 38.9258L135.65 39.4165L138.088 38.9383C138.974 38.7646 139.855 38.6818 140.724 38.6832L140.725 38.1832C139.824 38.1817 138.91 38.2676 137.992 38.4476L135.554 38.9258ZM155.756 56.2768L155.266 56.373L156.153 60.897L156.644 60.8007L155.756 56.2768ZM157.531 65.3246L157.041 65.4209L157.928 69.9448L158.419 69.8486L157.531 65.3246ZM159.306 74.3725L158.815 74.4687L159.703 78.9927L160.193 78.8964L159.306 74.3725ZM161.081 83.4203L160.59 83.5166L161.478 88.0405L161.968 87.9443L161.081 83.4203ZM162.856 92.4682L162.365 92.5645L163.253 97.0884L163.743 96.9921L162.856 92.4682ZM164.631 101.516L164.14 101.612L164.584 103.874C164.757 104.76 164.84 105.641 164.839 106.51L165.339 106.511C165.34 105.61 165.254 104.696 165.074 103.778L164.631 101.516ZM146.717 121.646L146.621 121.155L141.744 122.112L141.841 122.602L146.717 121.646ZM136.965 123.559L136.868 123.068L131.992 124.025L132.089 124.515L136.965 123.559ZM127.212 125.472L127.116 124.981L122.24 125.938L122.336 126.428L127.212 125.472ZM117.46 127.385L117.364 126.894L112.488 127.851L112.584 128.341L117.46 127.385ZM107.708 129.298L107.612 128.807L102.736 129.764L102.832 130.254L107.708 129.298ZM97.9557 131.211L97.8594 130.72L92.9833 131.677L93.0796 132.167L97.9557 131.211ZM88.2034 133.124L88.1072 132.633L83.2311 133.59L83.3273 134.08L88.2034 133.124ZM78.4512 135.037L78.355 134.546L73.4788 135.503L73.5751 135.993L78.4512 135.037ZM68.699 136.95L68.6027 136.459L63.7266 137.416L63.8228 137.906L68.699 136.95Z" fill="white"/>
<path d="M14.8135 123.953V50.6788C14.8135 50.1379 14.3584 49.6954 13.8022 49.6954H3.99295C3.18394 49.6954 2.67831 48.7612 3.2345 48.122L26.6959 19.4568C27.1004 18.9651 27.8589 18.9651 28.2634 19.4568L51.7248 48.122C52.2304 48.7612 51.7753 49.6954 50.9663 49.6954H40.6514C40.0952 49.6954 39.6401 50.1379 39.6401 50.6788V123.953" fill="white"/>
<path d="M11.3892 97.3873H44.9461V102.98H11.3892V97.3873Z" fill="#1E2121"/>
<path d="M11.3892 108.573H44.9461V114.166H11.3892V108.573Z" fill="#1E2121"/>
<path d="M11.3892 119.759H44.9461V125.351H11.3892V119.759Z" fill="#1E2121"/>
<mask id="mask1_6368_545" style="mask-type:luminance" maskUnits="userSpaceOnUse" x="2" y="121" width="50" height="50">
<path d="M27.3975 121.484C40.8455 121.834 51.5318 132.994 51.2038 146.422C50.8995 159.861 39.7304 170.479 26.2712 170.151C12.812 169.824 2.16053 158.653 2.46486 145.213C2.79283 131.785 13.9383 121.157 27.3975 121.484Z" fill="white"/>
</mask>
<g mask="url(#mask1_6368_545)">
<path d="M26.2712 170.152C39.7304 170.479 50.8995 159.862 51.2038 146.422C51.5082 132.982 40.8567 121.811 27.3975 121.484C13.9383 121.157 2.7692 131.774 2.46486 145.213C2.16053 158.653 12.812 169.824 26.2712 170.152Z" fill="#34BBA7"/>
<path d="M28.0086 127.598L27.7056 141.095L39.0158 146.464L28.0086 127.598Z" fill="white" fill-opacity="0.602"/>
<path d="M28.0085 127.598L16.166 145.885L27.7166 141.072L28.0085 127.598Z" fill="white"/>
<path d="M27.3867 154.932L27.1689 164.087L38.9601 148.601L27.3867 154.932Z" fill="white" fill-opacity="0.602"/>
<path d="M27.169 164.087L27.3868 154.932L16.1343 148.033L27.169 164.087Z" fill="white"/>
<path d="M27.4424 152.795L39.0158 146.464L27.7057 141.095L27.4424 152.795Z" fill="white" fill-opacity="0.2"/>
<path d="M16.166 145.885L27.4186 152.784L27.6819 141.084L16.166 145.885Z" fill="white" fill-opacity="0.602"/>
</g>
<g filter="url(#filter0_d_6368_545)">
<path d="M37.1762 75.1398C36.2743 70.5419 39.5916 63.4014 44.1895 62.4995L138.161 46.685C142.759 45.7831 147.217 48.7792 148.119 53.3771L158.287 105.21C159.189 109.808 156.192 114.266 151.595 115.168L57.3021 133.665C52.7043 134.567 48.2458 131.571 47.3438 126.973L37.1762 75.1398Z" fill="#40DFB9"/>
</g>
<path d="M38.7683 71.233C37.9178 66.8973 40.7431 62.6931 45.0788 61.8426L140.321 43.1598C144.656 42.3093 148.861 45.1346 149.711 49.4703L160.065 102.253C160.915 106.588 158.09 110.793 153.755 111.643L58.5125 130.326C54.1769 131.176 49.9727 128.351 49.1222 124.015L38.7683 71.233Z" fill="#61FFE8"/>
<path fill-rule="evenodd" clip-rule="evenodd" d="M139.315 49.5244L48.9117 67.2579C46.2019 67.7894 44.4361 70.417 44.9677 73.1268L54.1467 119.92C54.6782 122.63 57.3058 124.395 60.0156 123.864L150.418 106.13C153.128 105.599 154.894 102.971 154.363 100.261L145.184 53.4684C144.652 50.7586 142.024 48.9928 139.315 49.5244ZM48.7192 66.2766C45.4675 66.9144 43.3485 70.0676 43.9864 73.3193L53.1654 120.112C53.8032 123.364 56.9564 125.483 60.2081 124.845L150.611 107.112C153.863 106.474 155.982 103.321 155.344 100.069L146.165 53.2759C145.527 50.0242 142.374 47.9052 139.122 48.5431L48.7192 66.2766Z" fill="#28BAA7"/>
<g filter="url(#filter1_d_6368_545)">
<path d="M165.136 122.988L157.655 120.772L160.994 109.503C162.576 104.15 159.505 98.5175 154.158 96.9382C148.798 95.3574 143.159 98.4225 141.58 103.762L138.24 115.031L130.759 112.814L134.098 101.545C136.894 92.0775 146.896 86.6575 156.361 89.4655C165.826 92.2734 171.271 102.265 168.474 111.733L165.136 122.988Z" fill="white"/>
<mask id="mask2_6368_545" style="mask-type:alpha" maskUnits="userSpaceOnUse" x="130" y="102" width="44" height="17">
<path d="M173.89 113.972L132.649 102.097L130.616 108.469L166.498 118.095L173.89 113.972Z" fill="#C5F1ED"/>
</mask>
<g mask="url(#mask2_6368_545)">
<path d="M165.136 122.988L157.655 120.772L160.994 109.503C162.576 104.15 159.505 98.5175 154.158 96.9382C148.798 95.3574 143.159 98.4225 141.58 103.762L138.24 115.031L130.759 112.814L134.098 101.545C136.894 92.0775 146.896 86.6575 156.361 89.4655C165.826 92.2734 171.271 102.265 168.474 111.733L165.136 122.988Z" fill="#AEE6DF"/>
</g>
<g filter="url(#filter2_d_6368_545)">
<path fill-rule="evenodd" clip-rule="evenodd" d="M123.089 112.691C124.014 109.557 127.299 107.767 130.423 108.692L150.586 114.66L150.579 114.685L150.657 114.428L172.039 118.715C175.196 119.645 176.38 124.151 174.965 127.953L165.896 161.119C164.965 164.256 161.649 166.045 158.492 165.116L137.166 159.033L137.171 159.017L117.315 153.136C114.19 152.211 111.317 148.219 112.19 143.367L123.089 112.691Z" fill="#AEE6DF"/>
</g>
<path fill-rule="evenodd" clip-rule="evenodd" d="M122.078 109.938C123.002 106.804 126.287 105.013 129.412 105.939L149.574 111.907L149.565 111.942L170.691 117.876C173.848 118.806 175.653 122.105 174.723 125.227L164.884 158.365C163.953 161.502 160.637 163.292 157.48 162.362L134.235 155.734L134.248 155.698L116.303 150.383C113.179 149.458 111.395 146.165 112.32 143.031L122.078 109.938Z" fill="white"/>
</g>
<path d="M150.423 138.803L141.952 128.653C141.867 128.551 141.741 128.514 141.672 128.572L139.668 130.244C139.568 130.328 139.357 130.203 139.325 130.025L138.922 122.031C138.894 121.897 138.988 121.818 139.116 121.87L146.908 123.697C147.072 123.766 147.163 123.99 147.063 124.073L144.996 125.798C144.927 125.856 144.94 125.986 145.026 126.089L153.496 136.238" fill="#1E2121"/>
<path d="M135.61 130.212L144.08 140.362C144.166 140.464 144.292 140.501 144.361 140.444L146.365 138.771C146.465 138.687 146.675 138.812 146.707 138.99L147.111 146.984C147.139 147.119 147.045 147.197 146.917 147.146L139.125 145.318C138.961 145.25 138.87 145.026 138.97 144.942L141.037 143.217C141.106 143.16 141.092 143.029 141.007 142.927L132.537 132.777" fill="#1E2121"/>
<path fill-rule="evenodd" clip-rule="evenodd" d="M145.854 148.836C154.058 147.412 159.554 139.608 158.131 131.404C156.707 123.2 148.902 117.703 140.698 119.127C132.494 120.551 126.998 128.356 128.421 136.56C129.845 144.764 137.65 150.26 145.854 148.836ZM146.359 151.748C156.171 150.045 162.745 140.71 161.042 130.898C159.339 121.086 150.005 114.512 140.193 116.215C130.381 117.918 123.807 127.253 125.51 137.065C127.213 146.877 136.547 153.451 146.359 151.748Z" fill="#D84747"/>
<path fill-rule="evenodd" clip-rule="evenodd" d="M156.733 125.252L132.306 145.963L130.395 143.709L154.822 122.998L156.733 125.252Z" fill="#D84747"/>
<g opacity="0.85">
<path d="M128.582 94.2443C128.687 94.7865 128.333 95.3112 127.79 95.4163L124.738 96.0079C124.196 96.113 123.671 95.7586 123.566 95.2164L119.519 74.3355C119.414 73.7933 118.889 73.4389 118.347 73.544L111.768 74.8192C111.226 74.9243 110.701 74.57 110.596 74.0278L110.088 71.4067C109.983 70.8645 110.337 70.3397 110.879 70.2346L130.977 66.3391C131.519 66.234 132.044 66.5884 132.149 67.1306L132.657 69.7517C132.762 70.2939 132.408 70.8186 131.865 70.9237L125.326 72.1913C124.784 72.2964 124.429 72.8211 124.534 73.3633L128.582 94.2443Z" fill="#1E2121"/>
<path d="M103.984 100.031L93.3668 102.089C92.8246 102.194 92.2999 101.839 92.1948 101.297L87.2587 75.8317C87.1537 75.2895 87.508 74.7648 88.0502 74.6597L97.6874 72.7917C98.6278 72.6094 99.5573 72.5106 100.476 72.4951C101.394 72.4797 102.32 72.5713 103.253 72.7699C104.212 72.9635 105.061 73.2869 105.799 73.7401C106.559 74.162 107.22 74.7792 107.784 75.5914C108.369 76.3724 108.768 77.3115 108.981 78.4087C109.476 80.9631 108.591 83.1508 106.327 84.9718C106.317 84.9792 106.313 84.9911 106.315 85.0026C106.318 85.015 106.327 85.0248 106.34 85.0275C109.778 85.7712 111.787 87.6421 112.368 90.6402C112.626 91.9725 112.577 93.1881 112.221 94.2871C111.891 95.3811 111.312 96.3065 110.483 97.0635C109.675 97.7893 108.724 98.4073 107.63 98.9174C106.557 99.3964 105.342 99.7675 103.984 100.031ZM93.9088 78.037C93.3666 78.1421 93.0123 78.6668 93.1174 79.209L94.1115 84.3379C94.2166 84.8801 94.7414 85.2344 95.2836 85.1293L100.023 84.2107C101.512 83.9221 102.6 83.3858 103.289 82.6019C103.977 81.818 104.22 80.9036 104.017 79.8587C103.769 78.5787 103.171 77.7323 102.224 77.3196C101.303 76.9019 99.9933 76.8576 98.2954 77.1867L93.9088 78.037ZM96.1114 89.4004C95.5692 89.5055 95.2149 90.0302 95.32 90.5724L96.3673 95.9756C96.4724 96.5178 96.9971 96.8721 97.5393 96.767L102.866 95.7345C106.236 95.0813 107.691 93.5661 107.23 91.189C107.007 90.0396 106.386 89.2113 105.366 88.7043C104.367 88.1661 103.097 88.0463 101.556 88.3451L96.1114 89.4004Z" fill="#1E2121"/>
<path d="M67.4192 104.524C66.9488 104.322 66.7371 103.782 66.9155 103.302L67.9391 100.548C68.1408 100.006 68.7587 99.7499 69.2998 99.9554C70.5156 100.417 71.7804 100.744 73.0942 100.936C74.7679 101.181 76.2709 101.174 77.6032 100.916C79.3795 100.572 80.6772 99.9949 81.4961 99.1856C82.3099 98.3503 82.6105 97.3839 82.3978 96.2868C82.1801 95.1635 81.5946 94.4504 80.6414 94.1473C79.7144 93.8391 78.3453 93.6979 76.5343 93.7237C73.5073 93.7683 71.4882 93.6989 70.4768 93.5155C67.0889 92.817 65.0499 90.827 64.3596 87.5457C63.8533 84.9334 64.4067 82.6849 66.02 80.8001C67.6544 78.8842 69.9475 77.6401 72.8994 77.0679C74.8063 76.6983 76.563 76.6017 78.1692 76.7783C79.5254 76.9057 81.0242 77.2679 82.6658 77.8649C83.173 78.0493 83.4227 78.6138 83.2375 79.1207L82.2813 81.7371C82.0858 82.272 81.4843 82.5329 80.948 82.3413C78.4357 81.4438 76.1144 81.2016 73.9839 81.6145C72.3382 81.9335 71.1059 82.4976 70.287 83.3069C69.4681 84.1161 69.1801 85.1476 69.4232 86.4015C69.5194 86.8978 69.7074 87.3086 69.9873 87.6338C70.2672 87.959 70.558 88.2009 70.8597 88.3592C71.1614 88.5176 71.6043 88.635 72.1884 88.7115C72.7985 88.783 73.3071 88.8198 73.7141 88.8222C74.1473 88.8196 74.7684 88.8077 75.5774 88.7864C78.7249 88.6642 80.9707 88.7845 82.315 89.1474C85.1021 89.9624 86.8125 91.9347 87.4462 95.0644C87.9272 97.5461 87.3531 99.7578 85.7238 101.7C84.1156 103.611 81.7702 104.865 78.6878 105.462C74.513 106.272 70.7568 105.959 67.4192 104.524Z" fill="#1E2121"/>
</g>
</g>
</g>
</g>
<defs>
<filter id="filter0_d_6368_545" x="33.0278" y="46.5247" width="129.419" height="95.3005" filterUnits="userSpaceOnUse" color-interpolation-filters="sRGB">
<feFlood flood-opacity="0" result="BackgroundImageFix"/>
<feColorMatrix in="SourceAlpha" type="matrix" values="0 0 0 0 0 0 0 0 0 0 0 0 0 0 0 0 0 0 127 0" result="hardAlpha"/>
<feOffset dy="4"/>
<feGaussianBlur stdDeviation="2"/>
<feComposite in2="hardAlpha" operator="out"/>
<feColorMatrix type="matrix" values="0 0 0 0 0 0 0 0 0 0 0 0 0 0 0 0 0 0 0.25 0"/>
<feBlend mode="normal" in2="BackgroundImageFix" result="effect1_dropShadow_6368_545"/>
<feBlend mode="normal" in="SourceGraphic" in2="effect1_dropShadow_6368_545" result="shape"/>
</filter>
<filter id="filter1_d_6368_545" x="108.031" y="84.7245" width="71.5249" height="84.637" filterUnits="userSpaceOnUse" color-interpolation-filters="sRGB">
<feFlood flood-opacity="0" result="BackgroundImageFix"/>
<feColorMatrix in="SourceAlpha" type="matrix" values="0 0 0 0 0 0 0 0 0 0 0 0 0 0 0 0 0 0 127 0" result="hardAlpha"/>
<feOffset/>
<feGaussianBlur stdDeviation="2"/>
<feComposite in2="hardAlpha" operator="out"/>
<feColorMatrix type="matrix" values="0 0 0 0 0 0 0 0 0 0 0 0 0 0 0 0 0 0 0.25 0"/>
<feBlend mode="normal" in2="BackgroundImageFix" result="effect1_dropShadow_6368_545"/>
<feBlend mode="normal" in="SourceGraphic" in2="effect1_dropShadow_6368_545" result="shape"/>
</filter>
<filter id="filter2_d_6368_545" x="108.031" y="108.448" width="71.5249" height="64.9131" filterUnits="userSpaceOnUse" color-interpolation-filters="sRGB">
<feFlood flood-opacity="0" result="BackgroundImageFix"/>
<feColorMatrix in="SourceAlpha" type="matrix" values="0 0 0 0 0 0 0 0 0 0 0 0 0 0 0 0 0 0 127 0" result="hardAlpha"/>
<feOffset dy="4"/>
<feGaussianBlur stdDeviation="2"/>
<feComposite in2="hardAlpha" operator="out"/>
<feColorMatrix type="matrix" values="0 0 0 0 0 0 0 0 0 0 0 0 0 0 0 0 0 0 0.25 0"/>
<feBlend mode="normal" in2="BackgroundImageFix" result="effect1_dropShadow_6368_545"/>
<feBlend mode="normal" in="SourceGraphic" in2="effect1_dropShadow_6368_545" result="shape"/>
</filter>
<clipPath id="clip0_6368_545">
<rect width="180" height="180" fill="white"/>
</clipPath>
<clipPath id="clip1_6368_545">
<rect width="180" height="180" fill="white"/>
</clipPath>
</defs>
</svg>
