<svg width="152" height="89" viewBox="0 0 152 89" fill="none" xmlns="http://www.w3.org/2000/svg">
<g clip-path="url(#clip0)">
<circle cx="76.0533" cy="34.9557" r="15.5104" fill="#4AFEBF"/>
<circle cx="108.096" cy="64.2266" r="10.6077" fill="#4AFEBF"/>
<path d="M27.264 72.4084C45.984 72.4084 54.528 56.6644 54.528 37.5604C54.528 18.4564 45.984 2.7124 27.264 2.7124C8.64 2.7124 0 18.4564 0 37.5604C0 56.6644 8.64 72.4084 27.264 72.4084ZM27.264 61.1764C15.744 61.1764 12.48 49.5604 12.48 37.5604C12.48 25.5604 15.744 13.9444 27.264 13.9444C38.784 13.9444 42.144 25.5604 42.144 37.5604C42.144 49.5604 38.88 61.1764 27.264 61.1764Z" fill="white"/>
<path d="M110.216 71.1604V60.1204H82.0882L98.5042 43.2244C105.224 36.4084 108.2 30.4564 108.2 22.9684C108.2 10.8724 99.7522 2.7124 86.3122 2.7124C76.7122 2.7124 69.3203 6.84041 62.6003 13.3684L70.1842 21.9124C76.0403 16.1524 80.7443 13.9444 85.5443 13.9444C91.7843 13.9444 95.7203 17.5924 95.7203 23.7364C95.7203 28.8244 93.4163 32.0884 88.9043 36.6004L63.6562 62.4244L63.5602 71.1604H110.216Z" fill="white"/>
<path fill-rule="evenodd" clip-rule="evenodd" d="M125.541 1.08361C118.09 1.34592 107.838 2.30914 96.6354 5.11144L96.3927 4.14133C107.68 1.31795 118.004 0.348335 125.506 0.0842322C129.258 -0.0478403 132.305 -0.00353157 134.417 0.0739548C135.473 0.1127 136.294 0.159744 136.853 0.1972C137.133 0.215928 137.347 0.23226 137.491 0.243959C137.563 0.249809 137.618 0.254501 137.655 0.257756L137.698 0.261524L137.709 0.262535L137.712 0.26281C137.712 0.262833 137.713 0.262928 137.666 0.760719C138.12 0.968958 138.12 0.969218 138.12 0.969607L138.117 0.976225L138.108 0.995864L138.073 1.07169C138.041 1.1383 137.995 1.23677 137.933 1.36559C137.809 1.62324 137.623 2.00231 137.376 2.49073C136.881 3.46756 136.139 4.88193 135.146 6.63723C133.16 10.1476 130.172 15.023 126.159 20.4901C118.135 31.4208 105.998 44.736 89.5632 54.2249C73.128 63.7138 55.5284 67.5668 42.0502 69.0504C35.3089 69.7924 29.5926 69.9424 25.5598 69.9068C23.5433 69.8889 21.9472 69.8247 20.8538 69.7648C20.3072 69.7348 19.8861 69.7059 19.601 69.6845C19.4584 69.6737 19.3499 69.6648 19.2766 69.6586L19.1932 69.6514L19.1716 69.6494L19.1644 69.6487C19.164 69.6487 19.1637 69.6487 19.2106 69.1509C18.756 68.9426 18.7561 68.9425 18.7562 68.9423L18.7578 68.9389L18.7622 68.9293L18.7794 68.8922C18.7945 68.8598 18.817 68.8118 18.8469 68.7488C18.9066 68.6228 18.9957 68.4367 19.1145 68.1947C19.352 67.7105 19.708 67.0023 20.1832 66.1019C21.1336 64.3013 22.5616 61.7321 24.4745 58.6513C28.2998 52.4907 34.0677 44.279 41.8393 36.0751L42.5652 36.7628C34.8511 44.9061 29.1231 53.0603 25.324 59.1788C23.4248 62.2376 22.0084 64.7863 21.0676 66.5687C20.5972 67.4599 20.2457 68.1594 20.0123 68.6351C19.9999 68.6604 19.9879 68.6849 19.9761 68.7089C20.2254 68.7261 20.5373 68.7459 20.9086 68.7663C21.9879 68.8254 23.5686 68.8891 25.5687 68.9068C29.5691 68.9422 35.2452 68.7934 41.9408 68.0564C55.3362 66.5819 72.788 62.7554 89.0632 53.3588C105.338 43.9623 117.378 30.7619 125.353 19.8984C129.339 14.4684 132.306 9.62706 134.275 6.14491C135.26 4.40397 135.995 3.00316 136.484 2.03887C136.652 1.70717 136.791 1.42714 136.9 1.2027C136.864 1.20017 136.826 1.19759 136.787 1.19496C136.237 1.15814 135.425 1.11164 134.38 1.07328C132.29 0.996569 129.266 0.952479 125.541 1.08361ZM19.2106 69.1509L18.7562 68.9423L18.4629 69.5826L19.1644 69.6487L19.2106 69.1509ZM137.666 0.760719L138.12 0.969607L138.414 0.329018L137.713 0.262928L137.666 0.760719ZM66.1846 17.514C61.6842 20.2287 57.5184 23.2286 53.6835 26.377L53.049 25.6041C56.9175 22.4281 61.1225 19.3997 65.6681 16.6578L66.1846 17.514Z" fill="url(#paint0_linear)"/>
<path fill-rule="evenodd" clip-rule="evenodd" d="M134.931 39.5543C125.138 40.6322 112.385 43.4292 100.495 50.294C95.3181 53.2831 90.7261 56.8 86.7093 60.4751L86.0343 59.7373C90.0962 56.0209 94.7461 52.4587 99.9954 49.428C112.045 42.4708 124.946 39.6474 134.822 38.5603C139.762 38.0165 143.951 37.9066 146.906 37.9327C148.384 37.9458 149.555 37.9929 150.357 38.0369C150.758 38.0588 151.067 38.08 151.276 38.0958C151.381 38.1037 151.461 38.1102 151.515 38.1148L151.577 38.1202L151.593 38.1217L151.597 38.1221L151.598 38.1222C151.599 38.1222 151.599 38.1222 151.552 38.62C152.007 38.8283 152.007 38.8285 152.006 38.8288L152.006 38.8299L151.997 38.8485L151.971 38.9046C151.948 38.9537 151.914 39.0262 151.868 39.1208C151.777 39.3102 151.641 39.5884 151.459 39.9468C151.096 40.6634 150.552 41.7003 149.824 42.9869C148.369 45.5598 146.179 49.1327 143.239 53.1389C137.359 61.1478 128.464 70.9083 116.414 77.8654C104.364 84.8225 91.4631 87.646 81.5876 88.7331C76.6476 89.2769 72.4586 89.3868 69.5028 89.3606C68.0247 89.3476 66.8545 89.3005 66.0524 89.2565C65.6514 89.2345 65.3423 89.2133 65.1328 89.1976C65.028 89.1897 64.9481 89.1831 64.894 89.1786L64.8324 89.1732L64.8163 89.1717L64.812 89.1713L64.8108 89.1712C64.8104 89.1712 64.8102 89.1712 64.8571 88.6734C64.4025 88.4651 64.4026 88.465 64.4026 88.4649L64.4057 88.4581L64.4143 88.4396L64.4476 88.3684C64.477 88.3061 64.5207 88.2141 64.5789 88.0941C64.6951 87.854 64.869 87.5019 65.1008 87.0505C65.5645 86.1476 66.2601 84.8472 67.1909 83.2514C69.052 80.0602 71.8545 75.6853 75.6225 70.9449L76.4054 71.5672C72.6727 76.263 69.8967 80.5967 68.0547 83.7552C67.1338 85.3342 66.4466 86.6188 65.9904 87.5073C65.8457 87.7889 65.7243 88.0307 65.626 88.2294C65.7668 88.2385 65.9274 88.2482 66.1071 88.258C66.8952 88.3012 68.05 88.3478 69.5116 88.3607C72.4351 88.3865 76.584 88.2778 81.4782 87.7391C91.2709 86.6611 104.024 83.8641 115.914 76.9994C127.804 70.1347 136.602 60.489 142.432 52.5471C145.346 48.578 147.515 45.0393 148.954 42.4946C149.674 41.2224 150.211 40.199 150.567 39.4949C150.649 39.3344 150.721 39.1904 150.783 39.0639C150.642 39.0549 150.482 39.0452 150.302 39.0354C149.514 38.9922 148.359 38.9456 146.898 38.9327C143.974 38.9068 139.825 39.0156 134.931 39.5543ZM64.8571 88.6734L64.4026 88.4649L64.1094 89.1051L64.8108 89.1712L64.8571 88.6734ZM151.552 38.62L152.006 38.8288L152.3 38.1883L151.598 38.1222L151.552 38.62Z" fill="url(#paint1_linear)"/>
</g>
<defs>
<linearGradient id="paint0_linear" x1="78.4382" y1="0" x2="78.4382" y2="69.9116" gradientUnits="userSpaceOnUse">
<stop stop-color="#4AFEBF"/>
<stop offset="1" stop-color="#51EEDA"/>
</linearGradient>
<linearGradient id="paint1_linear" x1="108.205" y1="37.9292" x2="108.205" y2="89.3642" gradientUnits="userSpaceOnUse">
<stop stop-color="#4AFEBF"/>
<stop offset="1" stop-color="#51EEDA"/>
</linearGradient>
<clipPath id="clip0">
<rect width="152" height="89" fill="white"/>
</clipPath>
</defs>
</svg>
