<svg width="152" height="97" viewBox="0 0 152 97" fill="none" xmlns="http://www.w3.org/2000/svg">
<g clip-path="url(#clip0)">
<circle cx="103.194" cy="11.4902" r="8.26657" fill="#4AFEBF"/>
<circle cx="63.9072" cy="86.5068" r="8.26657" fill="#4AFEBF"/>
<circle cx="11.7099" cy="72.6035" r="8.26657" fill="#4AFEBF"/>
<path d="M30.6292 81.2741C49.3492 81.2741 57.8932 65.5301 57.8932 46.4261C57.8932 27.3221 49.3492 11.5781 30.6292 11.5781C12.0052 11.5781 3.36523 27.3221 3.36523 46.4261C3.36523 65.5301 12.0052 81.2741 30.6292 81.2741ZM30.6292 70.0421C19.1092 70.0421 15.8452 58.4261 15.8452 46.4261C15.8452 34.4261 19.1092 22.8101 30.6292 22.8101C42.1492 22.8101 45.5092 34.4261 45.5092 46.4261C45.5092 58.4261 42.2452 70.0421 30.6292 70.0421Z" fill="white"/>
<path d="M63.4072 70.5221C69.2632 77.0501 78.1912 81.2741 88.3672 81.2741C101.615 81.2741 112.943 74.6501 112.943 61.4981C112.943 52.0901 106.895 47.7701 101.999 45.7541V45.6581C106.511 43.3541 111.119 39.0341 111.119 30.6821C111.119 17.4341 99.6952 11.5781 88.6552 11.5781C79.4392 11.5781 70.7032 15.5141 64.5592 22.4261L72.0472 30.6821C77.5192 25.0181 82.1272 22.5221 87.6952 22.5221C94.3192 22.5221 98.7352 25.9781 98.7352 32.2181C98.7352 36.2501 96.3352 40.9541 87.8872 40.9541H76.8472V51.2261H88.2712C96.0472 51.2261 100.463 55.0661 100.463 60.7301C100.463 66.2021 97.1032 70.3301 88.3672 70.3301C82.2232 70.3301 76.3672 67.9301 70.9912 62.0741L63.4072 70.5221Z" fill="white"/>
<path fill-rule="evenodd" clip-rule="evenodd" d="M122.957 0.707107L105.707 17.9571L105 17.25L122.25 0L122.957 0.707107ZM97.1446 26.5196L82.3946 41.2696L81.6875 40.5625L96.4375 25.8125L97.1446 26.5196ZM35.3536 36.8964L60.3536 61.8964L76.6875 45.5625L77.3946 46.2696L60.3536 63.3107L35.3536 38.3107L0.707107 72.9571L0 72.25L35.3536 36.8964Z" fill="url(#paint0_linear)"/>
<path fill-rule="evenodd" clip-rule="evenodd" d="M125.387 11.8438L111.085 26.1461L110.377 25.439L124.68 11.1367L125.387 11.8438ZM37.7832 48.0332L62.7832 73.0332L64.3149 71.5015L65.022 72.2086L62.7832 74.4474L37.7832 49.4474L3.13679 84.0938L2.42969 83.3867L37.7832 48.0332ZM85.7095 51.5211L73.147 64.0836L72.4399 63.3765L85.0024 50.814L85.7095 51.5211Z" fill="url(#paint1_linear)"/>
<path fill-rule="evenodd" clip-rule="evenodd" d="M125.387 25.1383L103.794 46.7308L103.087 46.0237L124.68 24.4312L125.387 25.1383ZM96.888 53.6371L81.2005 69.3246L80.4934 68.6175L96.1809 52.93L96.888 53.6371ZM37.7832 61.3276L62.7832 86.3276L71.8608 77.25L72.5679 77.9571L62.7832 87.7418L37.7832 62.7418L3.13679 97.3883L2.42969 96.6812L37.7832 61.3276Z" fill="url(#paint2_linear)"/>
</g>
<defs>
<linearGradient id="paint0_linear" x1="61.4786" y1="0" x2="61.4786" y2="72.9571" gradientUnits="userSpaceOnUse">
<stop stop-color="#4AFEBF"/>
<stop offset="1" stop-color="#51EEDA"/>
</linearGradient>
<linearGradient id="paint1_linear" x1="63.9082" y1="11.1367" x2="63.9082" y2="84.0938" gradientUnits="userSpaceOnUse">
<stop stop-color="#4AFEBF"/>
<stop offset="1" stop-color="#51EEDA"/>
</linearGradient>
<linearGradient id="paint2_linear" x1="63.9082" y1="24.4312" x2="63.9082" y2="97.3883" gradientUnits="userSpaceOnUse">
<stop stop-color="#4AFEBF"/>
<stop offset="1" stop-color="#51EEDA"/>
</linearGradient>
<clipPath id="clip0">
<rect width="152" height="97" fill="white"/>
</clipPath>
</defs>
</svg>
