<svg width="152" height="93" viewBox="0 0 152 93" fill="none" xmlns="http://www.w3.org/2000/svg">
<g clip-path="url(#clip0)">
<circle cx="84.0061" cy="57.6711" r="24.1995" fill="#4AFEBF"/>
<path d="M27.264 69.696C45.984 69.696 54.528 53.952 54.528 34.848C54.528 15.744 45.984 0 27.264 0C8.64 0 0 15.744 0 34.848C0 53.952 8.64 69.696 27.264 69.696ZM27.264 58.464C15.744 58.464 12.48 46.848 12.48 34.848C12.48 22.848 15.744 11.232 27.264 11.232C38.784 11.232 42.144 22.848 42.144 34.848C42.144 46.848 38.88 58.464 27.264 58.464Z" fill="white"/>
<path d="M88.9043 68.448V1.248H81.2243L60.9682 9.888L65.1922 20.736L76.6162 15.648V68.448H88.9043Z" fill="white"/>
<path fill-rule="evenodd" clip-rule="evenodd" d="M110.85 13.1958C104.868 12.5272 97.3557 13.4028 89.0848 15.7608L88.8107 14.7991C97.1587 12.4191 104.808 11.5142 110.961 12.202C117.105 12.8887 121.846 15.1782 124.213 19.2781C125.977 22.3329 126.211 26.0317 125.191 30.0566C124.172 34.0783 121.894 38.4586 118.583 42.9324C111.96 51.8812 101.14 61.2831 87.7031 69.0411C74.266 76.799 60.714 81.4679 49.6523 82.7296C44.1223 83.3604 39.1901 83.1425 35.1977 82.0141C31.2021 80.8849 28.1159 78.8329 26.3522 75.7781C25.2577 73.8825 24.7509 71.7346 24.7701 69.4136L25.77 69.4218C25.7522 71.5888 26.2243 73.5566 27.2182 75.2781C28.8153 78.0444 31.6449 79.9709 35.4697 81.0518C39.2976 82.1337 44.0902 82.3576 49.539 81.7361C60.4347 80.4933 73.8559 75.8811 87.2031 68.175C100.55 60.469 111.255 51.1521 117.779 42.3374C121.042 37.9294 123.244 33.6669 124.222 29.8109C125.198 25.9581 124.944 22.5444 123.347 19.7781C121.206 16.0689 116.84 13.8653 110.85 13.1958ZM76.7829 20.1545C72.3659 22.0388 67.8591 24.2848 63.3621 26.8811C60.3356 28.6285 57.4443 30.459 54.7063 32.3483L54.1384 31.5252C56.8986 29.6206 59.8126 27.7757 62.8621 26.0151C67.3931 23.3991 71.9358 21.1351 76.3905 19.2347L76.7829 20.1545ZM42.222 42.3143C36.3617 47.768 31.8599 53.334 29.0582 58.5243L28.1783 58.0492C31.0457 52.7371 35.6255 47.0871 41.5407 41.5823L42.222 42.3143Z" fill="url(#paint0_linear)"/>
<path fill-rule="evenodd" clip-rule="evenodd" d="M111.969 27.8208C105.6 27.6343 97.6203 29.2044 89.0604 32.4395L88.7068 31.5041C97.3455 28.2392 105.459 26.6298 111.998 26.8212C118.516 27.012 123.603 29.0023 125.964 33.0924C127.486 35.7287 127.685 38.9162 126.809 42.3748C125.933 45.8302 123.978 49.5893 121.139 53.4245C115.461 61.0964 106.189 69.1527 94.6768 75.799C83.1651 82.4453 71.5521 86.447 62.0688 87.5287C57.3281 88.0695 53.095 87.8833 49.6647 86.9138C46.2313 85.9435 43.5703 84.1775 42.0482 81.5411C40.5261 78.9048 40.3272 75.7173 41.2036 72.2587C42.0791 68.8033 44.0344 65.0442 46.8731 61.209C52.5515 53.5371 61.8236 45.4808 73.3353 38.8345C74.3519 38.2475 75.3692 37.6813 76.3856 37.1359L76.8585 38.0171C75.8512 38.5575 74.843 39.1187 73.8353 39.7005C62.4135 46.2949 53.256 54.2662 47.6769 61.8039C44.8869 65.5734 43.0065 69.2146 42.1729 72.5043C41.3402 75.7909 41.5587 78.6933 42.9143 81.0411C44.2698 83.3889 46.6741 85.0294 49.9367 85.9515C53.2024 86.8745 57.296 87.0667 61.9555 86.5352C71.2729 85.4724 82.755 81.5274 94.1768 74.933C105.599 68.3386 114.756 60.3673 120.335 52.8296C123.125 49.0601 125.006 45.4189 125.839 42.1292C126.672 38.8426 126.453 35.9402 125.098 33.5924C122.997 29.9528 118.359 28.0078 111.969 27.8208Z" fill="url(#paint1_linear)"/>
<path fill-rule="evenodd" clip-rule="evenodd" d="M111.017 45.0609C104.812 45.3884 97.0891 47.5439 89.1031 51.408L88.6675 50.5079C96.7371 46.6034 104.592 44.3987 110.964 44.0622C117.297 43.7279 122.351 45.2374 124.525 49.0038C125.737 51.1037 125.891 53.6357 125.199 56.3682C124.507 59.0975 122.965 62.06 120.732 65.0767C116.266 71.1114 108.977 77.4424 99.9342 82.6635C90.8911 87.8845 81.764 91.0308 74.3045 91.8817C70.5756 92.307 67.2388 92.1616 64.5293 91.3958C61.8167 90.6292 59.7009 89.2298 58.4886 87.13C56.3855 83.4873 57.4587 78.5671 60.6522 73.4448C63.8643 68.2928 69.3065 62.7843 76.2705 57.8353L76.8498 58.6505C69.9593 63.5471 64.6237 68.9649 61.5008 73.9739C58.3594 79.0126 57.5407 83.4881 59.3546 86.63C60.4004 88.4413 62.2595 89.7151 64.8013 90.4335C67.3463 91.1528 70.5435 91.3042 74.1912 90.8881C81.4848 90.0562 90.4809 86.9666 99.4342 81.7974C108.387 76.6283 115.561 70.3822 119.928 64.4817C122.113 61.5308 123.58 58.6862 124.23 56.1225C124.878 53.5621 124.705 51.3152 123.659 49.5038C121.783 46.2539 117.261 44.7312 111.017 45.0609Z" fill="url(#paint2_linear)"/>
<path fill-rule="evenodd" clip-rule="evenodd" d="M121.049 70.7914C121.429 69.2913 121.306 68.0667 120.759 67.1197C120.212 66.1727 119.213 65.4538 117.724 65.0329C116.229 64.6103 114.304 64.5105 112.055 64.7671C107.56 65.2798 101.966 67.193 96.371 70.4233C90.7758 73.6537 86.3218 77.5418 83.6305 81.178C82.2838 82.9974 81.4079 84.714 81.0263 86.2203C80.6462 87.7204 80.7693 88.945 81.3161 89.892C81.8628 90.839 82.8618 91.5579 84.3509 91.9788C85.8462 92.4014 87.7708 92.5012 90.0198 92.2446C94.5145 91.732 100.109 89.8187 105.704 86.5884C111.299 83.358 115.753 79.4699 118.444 75.8337C119.791 74.0143 120.667 72.2977 121.049 70.7914ZM106.204 87.4544C117.574 80.8899 124.478 71.5619 121.625 66.6197C118.771 61.6776 107.241 62.9928 95.871 69.5573C84.5009 76.1218 77.5967 85.4498 80.45 90.392C83.3034 95.3341 94.8338 94.0189 106.204 87.4544Z" fill="url(#paint3_linear)"/>
</g>
<defs>
<linearGradient id="paint0_linear" x1="75.2826" y1="11.978" x2="75.2826" y2="83.0781" gradientUnits="userSpaceOnUse">
<stop stop-color="#4AFEBF"/>
<stop offset="1" stop-color="#51EEDA"/>
</linearGradient>
<linearGradient id="paint1_linear" x1="84.0061" y1="26.8059" x2="84.0061" y2="87.8276" gradientUnits="userSpaceOnUse">
<stop stop-color="#4AFEBF"/>
<stop offset="1" stop-color="#51EEDA"/>
</linearGradient>
<linearGradient id="paint2_linear" x1="91.5063" y1="44.0171" x2="91.5063" y2="92.1169" gradientUnits="userSpaceOnUse">
<stop stop-color="#4AFEBF"/>
<stop offset="1" stop-color="#51EEDA"/>
</linearGradient>
<linearGradient id="paint3_linear" x1="101.037" y1="63.627" x2="101.037" y2="93.3848" gradientUnits="userSpaceOnUse">
<stop stop-color="#4AFEBF"/>
<stop offset="1" stop-color="#51EEDA"/>
</linearGradient>
<clipPath id="clip0">
<rect width="152" height="93" fill="white"/>
</clipPath>
</defs>
</svg>
