<svg width="600" height="1000" viewBox="0 0 600 1000" fill="none" xmlns="http://www.w3.org/2000/svg">
<g clip-path="url(#clip0_5703_1070)">
<rect width="600" height="1000" rx="40" fill="white"/>
<rect width="600" height="1000" fill="url(#paint0_linear_5703_1070)"/>
<rect x="30.5" y="30.5" width="539" height="939" rx="15.5" stroke="white"/>
<path d="M80.176 126H74.032V92.4H80.176V126ZM93.9483 126H87.9483V100.944H91.8363L92.9883 105.024C94.0443 103.152 96.8763 100.416 100.908 100.416C106.188 100.416 110.124 103.152 110.124 111.312V126H104.172V112.128C104.172 107.808 102.156 105.984 99.1803 105.984C96.0603 105.984 93.9483 108.48 93.9483 112.416V126ZM137.355 126L136.299 122.208C134.523 124.464 131.451 126.528 126.939 126.528C120.219 126.528 115.467 120.72 115.467 113.472C115.467 106.176 120.219 100.416 126.939 100.416C131.115 100.416 133.899 102.672 135.243 104.4V89.856H141.243V126H137.355ZM128.427 121.056C132.459 121.056 135.243 117.696 135.243 113.472C135.243 109.2 132.459 105.888 128.427 105.888C124.299 105.888 121.515 109.104 121.515 113.472C121.515 117.792 124.299 121.056 128.427 121.056ZM171.4 115.776H153.064C153.784 119.328 156.328 121.296 160.072 121.296C162.808 121.296 164.44 120.768 167.08 118.944L169.864 122.976C166.792 125.52 163.96 126.528 159.88 126.528C152.296 126.528 146.92 120.816 146.92 113.472C146.92 106.128 152.536 100.416 159.64 100.416C167.368 100.416 171.4 106.416 171.4 113.568V115.776ZM153.016 111.456H165.496C165.208 108.432 163.432 105.552 159.688 105.552C156.28 105.552 153.688 107.664 153.016 111.456ZM180.474 126H173.418L182.202 113.424L173.466 100.944H180.522L185.898 108.72L191.322 100.944H198.33L189.594 113.424L198.426 126H191.37L185.898 118.176L180.474 126ZM218.645 126H212.501V92.4H218.405L235.493 115.536H235.541V92.4H241.685V126H235.733L218.693 102.816H218.645V126ZM265.798 126L264.742 122.688C263.686 124.56 261.334 126.528 256.822 126.528C252.022 126.528 247.846 123.648 247.846 118.368C247.846 113.232 252.214 110.736 257.83 110.736C260.662 110.736 262.534 111.12 264.31 111.6C264.31 106.752 263.398 105.744 258.55 105.744C256.054 105.744 252.982 106.128 250.966 106.752L249.67 101.616C250.966 101.184 255.526 100.416 259.606 100.416C268.87 100.416 270.31 104.16 270.31 112.32V126H265.798ZM264.454 116.112V115.872C262.87 115.44 261.094 115.104 258.598 115.104C255.478 115.104 253.942 116.352 253.942 118.416C253.942 120.528 255.67 121.68 258.214 121.68C262.774 121.68 264.454 119.088 264.454 116.112ZM283.558 126H277.558V100.944H281.446L282.598 104.976C283.702 103.008 286.15 100.416 290.182 100.416C293.878 100.416 296.422 101.712 297.718 104.928C299.062 102.768 301.702 100.416 305.686 100.416C310.966 100.416 314.374 103.104 314.374 111.264V126H308.374V112.128C308.374 107.808 306.982 105.984 304.006 105.984C301.078 105.984 299.206 108.048 298.966 111.648V126H292.966V112.128C292.966 107.808 291.526 105.984 288.55 105.984C285.382 105.984 283.558 108.48 283.558 112.416V126ZM344.181 115.776H325.845C326.565 119.328 329.109 121.296 332.853 121.296C335.589 121.296 337.221 120.768 339.861 118.944L342.645 122.976C339.573 125.52 336.741 126.528 332.661 126.528C325.077 126.528 319.701 120.816 319.701 113.472C319.701 106.128 325.317 100.416 332.421 100.416C340.149 100.416 344.181 106.416 344.181 113.568V115.776ZM325.797 111.456H338.277C337.989 108.432 336.213 105.552 332.469 105.552C329.061 105.552 326.469 107.664 325.797 111.456Z" fill="#141616"/>
<path d="M75.088 196H72.016V179.2H75.088L80.608 188.2H80.632L86.176 179.2H89.224V196H86.152V184.864H86.128L80.92 193.432H80.32L75.112 184.864H75.088V196ZM94.7624 196H91.2824L98.7464 179.2H101.65L109.09 196H105.61L104.098 192.52H96.2984L94.7624 196ZM100.162 183.448L97.3784 189.784H103.018L100.21 183.448H100.162ZM116.305 196H113.233V182.008H108.001V179.2H121.513V182.008H116.305V196ZM130.531 196H127.459V182.008H122.227V179.2H135.739V182.008H130.531V196ZM150.11 196H138.11V179.2H149.99V181.96H141.182V186.16H149.558V188.92H141.182V193.24H150.11V196ZM156.604 196H153.532V179.2H160.756C163.444 179.2 166.468 180.4 166.468 184.096C166.468 187.312 164.092 188.608 161.668 188.872L166.9 196H163.324L158.116 188.92H156.604V196ZM156.604 181.96V186.256H160.468C162.676 186.256 163.348 185.32 163.348 184.096C163.348 182.8 162.676 181.96 160.468 181.96H156.604Z" fill="#141616"/>
<path d="M86.088 236H83.016V219.2H85.968L94.512 230.768H94.536V219.2H97.608V236H94.632L86.112 224.408H86.088V236ZM104.721 236H101.649V219.2H104.721V236ZM111.799 236H108.727V219.2H120.583V221.912L111.799 221.888V226.184H120.367V228.896H111.799V236ZM130.375 236H127.303V222.008H122.071V219.2H135.583V222.008H130.375V236ZM136.97 234.152L138.506 231.632C140.138 232.784 142.202 233.504 143.834 233.504C146.042 233.504 147.194 232.64 147.194 231.32C147.194 229.808 145.802 229.448 144.026 229.136C141.218 228.632 137.546 228.272 137.546 224.096C137.546 220.808 140.258 218.888 143.786 218.888C146.042 218.888 147.722 219.32 149.954 220.784L148.466 223.256C146.81 222.152 145.394 221.696 143.906 221.696C141.986 221.696 140.666 222.392 140.666 224C140.666 225.536 142.154 225.8 144.026 226.112C146.81 226.544 150.314 227 150.314 231.176C150.314 234.224 147.746 236.312 143.954 236.312C141.41 236.312 138.866 235.592 136.97 234.152ZM161.004 236H157.932V229.688L151.5 219.2H155.148L159.492 226.424L163.812 219.2H167.436L161.004 229.688V236Z" fill="#141616"/>
<path d="M102.032 274.152L103.568 271.632C105.2 272.784 107.264 273.504 108.896 273.504C111.104 273.504 112.256 272.64 112.256 271.32C112.256 269.808 110.864 269.448 109.088 269.136C106.28 268.632 102.608 268.272 102.608 264.096C102.608 260.808 105.32 258.888 108.848 258.888C111.104 258.888 112.784 259.32 115.016 260.784L113.528 263.256C111.872 262.152 110.456 261.696 108.968 261.696C107.048 261.696 105.728 262.392 105.728 264C105.728 265.536 107.216 265.8 109.088 266.112C111.872 266.544 115.376 267 115.376 271.176C115.376 274.224 112.808 276.312 109.016 276.312C106.472 276.312 103.928 275.592 102.032 274.152ZM126.28 276.312C121.432 276.312 117.664 272.496 117.664 267.6C117.664 262.704 121.432 258.888 126.28 258.888C131.128 258.888 134.896 262.704 134.896 267.6C134.896 272.496 131.128 276.312 126.28 276.312ZM126.28 273.504C129.664 273.504 131.8 270.744 131.8 267.6C131.8 264.456 129.664 261.696 126.28 261.696C122.92 261.696 120.784 264.456 120.784 267.6C120.784 270.744 122.92 273.504 126.28 273.504ZM137.722 269.088V259.2H140.794V268.968C140.794 272.088 142.33 273.504 144.802 273.504C147.298 273.504 148.81 272.088 148.81 268.968V259.2H151.882V269.088C151.882 273.864 148.714 276.312 144.802 276.312C140.89 276.312 137.722 273.864 137.722 269.088ZM166.647 276H155.727V259.2H158.799V273.288H166.647V276Z" fill="#141616"/>
<path d="M195.44 196H192.368V182.8L189.512 184.072L188.456 181.36L193.52 179.2H195.44V196ZM210.171 196.312C205.515 196.312 203.355 192.376 203.355 187.6C203.355 182.824 205.515 178.888 210.171 178.888C214.851 178.888 216.987 182.824 216.987 187.6C216.987 192.376 214.851 196.312 210.171 196.312ZM210.171 193.504C213.075 193.504 213.891 190.6 213.891 187.6C213.891 184.6 213.051 181.696 210.171 181.696C207.291 181.696 206.475 184.6 206.475 187.6C206.475 190.6 207.291 193.504 210.171 193.504ZM226.085 196.312C221.429 196.312 219.269 192.376 219.269 187.6C219.269 182.824 221.429 178.888 226.085 178.888C230.765 178.888 232.901 182.824 232.901 187.6C232.901 192.376 230.765 196.312 226.085 196.312ZM226.085 193.504C228.989 193.504 229.805 190.6 229.805 187.6C229.805 184.6 228.965 181.696 226.085 181.696C223.205 181.696 222.389 184.6 222.389 187.6C222.389 190.6 223.205 193.504 226.085 193.504ZM241.999 196.312C237.343 196.312 235.183 192.376 235.183 187.6C235.183 182.824 237.343 178.888 241.999 178.888C246.679 178.888 248.815 182.824 248.815 187.6C248.815 192.376 246.679 196.312 241.999 196.312ZM241.999 193.504C244.903 193.504 245.719 190.6 245.719 187.6C245.719 184.6 244.879 181.696 241.999 181.696C239.119 181.696 238.303 184.6 238.303 187.6C238.303 190.6 239.119 193.504 241.999 193.504ZM262.717 196.312C258.061 196.312 255.901 192.376 255.901 187.6C255.901 182.824 258.061 178.888 262.717 178.888C267.397 178.888 269.533 182.824 269.533 187.6C269.533 192.376 267.397 196.312 262.717 196.312ZM262.717 193.504C265.621 193.504 266.437 190.6 266.437 187.6C266.437 184.6 265.597 181.696 262.717 181.696C259.837 181.696 259.021 184.6 259.021 187.6C259.021 190.6 259.837 193.504 262.717 193.504ZM278.632 196.312C273.976 196.312 271.816 192.376 271.816 187.6C271.816 182.824 273.976 178.888 278.632 178.888C283.312 178.888 285.448 182.824 285.448 187.6C285.448 192.376 283.312 196.312 278.632 196.312ZM278.632 193.504C281.536 193.504 282.352 190.6 282.352 187.6C282.352 184.6 281.512 181.696 278.632 181.696C275.752 181.696 274.936 184.6 274.936 187.6C274.936 190.6 275.752 193.504 278.632 193.504ZM294.546 196.312C289.89 196.312 287.73 192.376 287.73 187.6C287.73 182.824 289.89 178.888 294.546 178.888C299.226 178.888 301.362 182.824 301.362 187.6C301.362 192.376 299.226 196.312 294.546 196.312ZM294.546 193.504C297.45 193.504 298.266 190.6 298.266 187.6C298.266 184.6 297.426 181.696 294.546 181.696C291.666 181.696 290.85 184.6 290.85 187.6C290.85 190.6 291.666 193.504 294.546 193.504Z" fill="#141616"/>
<path d="M195.44 236H192.368V222.8L189.512 224.072L188.456 221.36L193.52 219.2H195.44V236ZM210.171 236.312C205.515 236.312 203.355 232.376 203.355 227.6C203.355 222.824 205.515 218.888 210.171 218.888C214.851 218.888 216.987 222.824 216.987 227.6C216.987 232.376 214.851 236.312 210.171 236.312ZM210.171 233.504C213.075 233.504 213.891 230.6 213.891 227.6C213.891 224.6 213.051 221.696 210.171 221.696C207.291 221.696 206.475 224.6 206.475 227.6C206.475 230.6 207.291 233.504 210.171 233.504ZM226.085 236.312C221.429 236.312 219.269 232.376 219.269 227.6C219.269 222.824 221.429 218.888 226.085 218.888C230.765 218.888 232.901 222.824 232.901 227.6C232.901 232.376 230.765 236.312 226.085 236.312ZM226.085 233.504C228.989 233.504 229.805 230.6 229.805 227.6C229.805 224.6 228.965 221.696 226.085 221.696C223.205 221.696 222.389 224.6 222.389 227.6C222.389 230.6 223.205 233.504 226.085 233.504ZM241.999 236.312C237.343 236.312 235.183 232.376 235.183 227.6C235.183 222.824 237.343 218.888 241.999 218.888C246.679 218.888 248.815 222.824 248.815 227.6C248.815 232.376 246.679 236.312 241.999 236.312ZM241.999 233.504C244.903 233.504 245.719 230.6 245.719 227.6C245.719 224.6 244.879 221.696 241.999 221.696C239.119 221.696 238.303 224.6 238.303 227.6C238.303 230.6 239.119 233.504 241.999 233.504ZM262.717 236.312C258.061 236.312 255.901 232.376 255.901 227.6C255.901 222.824 258.061 218.888 262.717 218.888C267.397 218.888 269.533 222.824 269.533 227.6C269.533 232.376 267.397 236.312 262.717 236.312ZM262.717 233.504C265.621 233.504 266.437 230.6 266.437 227.6C266.437 224.6 265.597 221.696 262.717 221.696C259.837 221.696 259.021 224.6 259.021 227.6C259.021 230.6 259.837 233.504 262.717 233.504ZM278.632 236.312C273.976 236.312 271.816 232.376 271.816 227.6C271.816 222.824 273.976 218.888 278.632 218.888C283.312 218.888 285.448 222.824 285.448 227.6C285.448 232.376 283.312 236.312 278.632 236.312ZM278.632 233.504C281.536 233.504 282.352 230.6 282.352 227.6C282.352 224.6 281.512 221.696 278.632 221.696C275.752 221.696 274.936 224.6 274.936 227.6C274.936 230.6 275.752 233.504 278.632 233.504ZM294.546 236.312C289.89 236.312 287.73 232.376 287.73 227.6C287.73 222.824 289.89 218.888 294.546 218.888C299.226 218.888 301.362 222.824 301.362 227.6C301.362 232.376 299.226 236.312 294.546 236.312ZM294.546 233.504C297.45 233.504 298.266 230.6 298.266 227.6C298.266 224.6 297.426 221.696 294.546 221.696C291.666 221.696 290.85 224.6 290.85 227.6C290.85 230.6 291.666 233.504 294.546 233.504Z" fill="#141616"/>
<path d="M195.44 276H192.368V262.8L189.512 264.072L188.456 261.36L193.52 259.2H195.44V276ZM210.171 276.312C205.515 276.312 203.355 272.376 203.355 267.6C203.355 262.824 205.515 258.888 210.171 258.888C214.851 258.888 216.987 262.824 216.987 267.6C216.987 272.376 214.851 276.312 210.171 276.312ZM210.171 273.504C213.075 273.504 213.891 270.6 213.891 267.6C213.891 264.6 213.051 261.696 210.171 261.696C207.291 261.696 206.475 264.6 206.475 267.6C206.475 270.6 207.291 273.504 210.171 273.504ZM226.085 276.312C221.429 276.312 219.269 272.376 219.269 267.6C219.269 262.824 221.429 258.888 226.085 258.888C230.765 258.888 232.901 262.824 232.901 267.6C232.901 272.376 230.765 276.312 226.085 276.312ZM226.085 273.504C228.989 273.504 229.805 270.6 229.805 267.6C229.805 264.6 228.965 261.696 226.085 261.696C223.205 261.696 222.389 264.6 222.389 267.6C222.389 270.6 223.205 273.504 226.085 273.504ZM241.999 276.312C237.343 276.312 235.183 272.376 235.183 267.6C235.183 262.824 237.343 258.888 241.999 258.888C246.679 258.888 248.815 262.824 248.815 267.6C248.815 272.376 246.679 276.312 241.999 276.312ZM241.999 273.504C244.903 273.504 245.719 270.6 245.719 267.6C245.719 264.6 244.879 261.696 241.999 261.696C239.119 261.696 238.303 264.6 238.303 267.6C238.303 270.6 239.119 273.504 241.999 273.504ZM262.717 276.312C258.061 276.312 255.901 272.376 255.901 267.6C255.901 262.824 258.061 258.888 262.717 258.888C267.397 258.888 269.533 262.824 269.533 267.6C269.533 272.376 267.397 276.312 262.717 276.312ZM262.717 273.504C265.621 273.504 266.437 270.6 266.437 267.6C266.437 264.6 265.597 261.696 262.717 261.696C259.837 261.696 259.021 264.6 259.021 267.6C259.021 270.6 259.837 273.504 262.717 273.504ZM278.632 276.312C273.976 276.312 271.816 272.376 271.816 267.6C271.816 262.824 273.976 258.888 278.632 258.888C283.312 258.888 285.448 262.824 285.448 267.6C285.448 272.376 283.312 276.312 278.632 276.312ZM278.632 273.504C281.536 273.504 282.352 270.6 282.352 267.6C282.352 264.6 281.512 261.696 278.632 261.696C275.752 261.696 274.936 264.6 274.936 267.6C274.936 270.6 275.752 273.504 278.632 273.504ZM294.546 276.312C289.89 276.312 287.73 272.376 287.73 267.6C287.73 262.824 289.89 258.888 294.546 258.888C299.226 258.888 301.362 262.824 301.362 267.6C301.362 272.376 299.226 276.312 294.546 276.312ZM294.546 273.504C297.45 273.504 298.266 270.6 298.266 267.6C298.266 264.6 297.426 261.696 294.546 261.696C291.666 261.696 290.85 264.6 290.85 267.6C290.85 270.6 291.666 273.504 294.546 273.504Z" fill="#141616"/>
<rect x="70" y="672" width="138" height="42" rx="8" fill="white" fill-opacity="0.75"/>
<path d="M98.78 697.04L99.56 697.9C98.28 699.36 96.24 700.26 94.24 700.26C90.24 700.26 87.08 697.04 87.08 693C87.08 688.96 90.24 685.74 94.24 685.74C96.3 685.74 98.28 686.66 99.6 688.1L98.76 688.98C97.82 687.88 96.24 686.86 94.24 686.86C90.88 686.86 88.26 689.68 88.26 693C88.26 696.32 90.88 699.14 94.24 699.14C96.24 699.14 97.76 698.18 98.78 697.04ZM103.692 700H102.532V684.94H103.692V691.76C103.972 691.06 105.052 689.46 107.232 689.46C109.332 689.46 111.112 690.8 111.112 693.88V700H109.972V694.12C109.972 691.58 108.672 690.58 106.952 690.58C105.032 690.58 103.692 692.38 103.692 694.38V700ZM121.794 700L121.634 697.9C120.974 699.38 119.594 700.22 117.774 700.22C115.674 700.22 114.034 698.9 114.034 696.92C114.034 694.8 115.834 693.76 118.214 693.76C119.554 693.76 120.554 694 121.554 694.32C121.554 691.26 120.934 690.58 118.514 690.58C117.214 690.58 115.954 690.8 115.174 691L114.914 689.92C115.354 689.74 117.154 689.46 118.634 689.46C121.974 689.46 122.714 690.82 122.714 694.3V700H121.794ZM121.554 695.64V695.38C120.574 695.04 119.614 694.8 118.294 694.8C116.434 694.8 115.194 695.52 115.194 696.92C115.194 698.3 116.294 699.12 117.894 699.12C120.454 699.12 121.554 697.42 121.554 695.64ZM126.215 685.78C126.215 685.26 126.595 684.84 127.135 684.84C127.635 684.84 128.055 685.26 128.055 685.78C128.055 686.28 127.635 686.7 127.135 686.7C126.595 686.7 126.215 686.28 126.215 685.78ZM127.715 700H126.555V689.68H127.715V700ZM132.93 700H131.79V689.68H132.67L132.81 692.02C133.11 691.14 134.25 689.46 136.49 689.46C138.57 689.46 140.37 690.8 140.37 693.88V700H139.21V694.12C139.21 691.58 137.91 690.58 136.19 690.58C134.27 690.58 132.93 692.38 132.93 694.38V700ZM143.831 690.56C143.831 690.02 144.251 689.56 144.831 689.56C145.391 689.56 145.831 690.02 145.831 690.56C145.831 691.12 145.391 691.58 144.831 691.58C144.251 691.58 143.831 691.12 143.831 690.56ZM143.831 699.22C143.831 698.66 144.251 698.22 144.831 698.22C145.391 698.22 145.831 698.66 145.831 699.22C145.831 699.76 145.391 700.22 144.831 700.22C144.251 700.22 143.831 699.76 143.831 699.22ZM163.149 700H153.149V686H163.049V688.3H155.709V691.8H162.689V694.1H155.709V697.7H163.149V700ZM171.54 700H168.98V688.34H164.62V686H175.88V688.34H171.54V700ZM180.416 700H177.856V686H180.416V691.8H186.976V686H189.536V700H186.976V694.1H180.416V700Z" fill="#141616"/>
<rect x="70" y="726" width="131" height="42" rx="8" fill="white" fill-opacity="0.75"/>
<path d="M98.78 751.04L99.56 751.9C98.28 753.36 96.24 754.26 94.24 754.26C90.24 754.26 87.08 751.04 87.08 747C87.08 742.96 90.24 739.74 94.24 739.74C96.3 739.74 98.28 740.66 99.6 742.1L98.76 742.98C97.82 741.88 96.24 740.86 94.24 740.86C90.88 740.86 88.26 743.68 88.26 747C88.26 750.32 90.88 753.14 94.24 753.14C96.24 753.14 97.76 752.18 98.78 751.04ZM103.692 754H102.532V738.94H103.692V745.76C103.972 745.06 105.052 743.46 107.232 743.46C109.332 743.46 111.112 744.8 111.112 747.88V754H109.972V748.12C109.972 745.58 108.672 744.58 106.952 744.58C105.032 744.58 103.692 746.38 103.692 748.38V754ZM121.794 754L121.634 751.9C120.974 753.38 119.594 754.22 117.774 754.22C115.674 754.22 114.034 752.9 114.034 750.92C114.034 748.8 115.834 747.76 118.214 747.76C119.554 747.76 120.554 748 121.554 748.32C121.554 745.26 120.934 744.58 118.514 744.58C117.214 744.58 115.954 744.8 115.174 745L114.914 743.92C115.354 743.74 117.154 743.46 118.634 743.46C121.974 743.46 122.714 744.82 122.714 748.3V754H121.794ZM121.554 749.64V749.38C120.574 749.04 119.614 748.8 118.294 748.8C116.434 748.8 115.194 749.52 115.194 750.92C115.194 752.3 116.294 753.12 117.894 753.12C120.454 753.12 121.554 751.42 121.554 749.64ZM126.215 739.78C126.215 739.26 126.595 738.84 127.135 738.84C127.635 738.84 128.055 739.26 128.055 739.78C128.055 740.28 127.635 740.7 127.135 740.7C126.595 740.7 126.215 740.28 126.215 739.78ZM127.715 754H126.555V743.68H127.715V754ZM132.93 754H131.79V743.68H132.67L132.81 746.02C133.11 745.14 134.25 743.46 136.49 743.46C138.57 743.46 140.37 744.8 140.37 747.88V754H139.21V748.12C139.21 745.58 137.91 744.58 136.19 744.58C134.27 744.58 132.93 746.38 132.93 748.38V754ZM149.535 754H148.375V740H149.535V754ZM159.023 754H153.903V740H159.023C163.003 740 165.923 742.96 165.923 747C165.923 751.04 163.003 754 159.023 754ZM155.063 741.12V752.88H159.003C162.403 752.88 164.743 750.3 164.743 747C164.743 743.7 162.403 741.12 159.003 741.12H155.063ZM168.636 744.56C168.636 744.02 169.056 743.56 169.636 743.56C170.196 743.56 170.636 744.02 170.636 744.56C170.636 745.12 170.196 745.58 169.636 745.58C169.056 745.58 168.636 745.12 168.636 744.56ZM168.636 753.22C168.636 752.66 169.056 752.22 169.636 752.22C170.196 752.22 170.636 752.66 170.636 753.22C170.636 753.76 170.196 754.22 169.636 754.22C169.056 754.22 168.636 753.76 168.636 753.22ZM182.473 754H179.913V743L177.533 744.06L176.653 741.8L180.873 740H182.473V754Z" fill="#141616"/>
<rect x="70" y="780" width="92" height="42" rx="8" fill="white" fill-opacity="0.75"/>
<path d="M89.34 808H88.18V794H89.34V808ZM98.8273 808H93.7073V794H98.8273C102.807 794 105.727 796.96 105.727 801C105.727 805.04 102.807 808 98.8273 808ZM94.8673 795.12V806.88H98.8073C102.207 806.88 104.547 804.3 104.547 801C104.547 797.7 102.207 795.12 98.8073 795.12H94.8673ZM108.441 798.56C108.441 798.02 108.861 797.56 109.441 797.56C110.001 797.56 110.441 798.02 110.441 798.56C110.441 799.12 110.001 799.58 109.441 799.58C108.861 799.58 108.441 799.12 108.441 798.56ZM108.441 807.22C108.441 806.66 108.861 806.22 109.441 806.22C110.001 806.22 110.441 806.66 110.441 807.22C110.441 807.76 110.001 808.22 109.441 808.22C108.861 808.22 108.441 807.76 108.441 807.22ZM122.278 808H119.718V797L117.338 798.06L116.458 795.8L120.678 794H122.278V808ZM130.13 808H127.57V797L125.19 798.06L124.31 795.8L128.53 794H130.13V808ZM138.401 808.26C134.521 808.26 132.721 804.98 132.721 801C132.721 797.02 134.521 793.74 138.401 793.74C142.301 793.74 144.081 797.02 144.081 801C144.081 804.98 142.301 808.26 138.401 808.26ZM138.401 805.92C140.821 805.92 141.501 803.5 141.501 801C141.501 798.5 140.801 796.08 138.401 796.08C136.001 796.08 135.321 798.5 135.321 801C135.321 803.5 136.001 805.92 138.401 805.92Z" fill="#141616"/>
<rect x="70" y="834" width="195" height="42" rx="8" fill="white" fill-opacity="0.75"/>
<path d="M93.3 862H88.18V848H93.3C97.28 848 100.2 850.96 100.2 855C100.2 859.04 97.28 862 93.3 862ZM89.34 849.12V860.88H93.28C96.68 860.88 99.02 858.3 99.02 855C99.02 851.7 96.68 849.12 93.28 849.12H89.34ZM110.29 862L110.13 859.9C109.47 861.38 108.09 862.22 106.27 862.22C104.17 862.22 102.53 860.9 102.53 858.92C102.53 856.8 104.33 855.76 106.71 855.76C108.05 855.76 109.05 856 110.05 856.32C110.05 853.26 109.43 852.58 107.01 852.58C105.71 852.58 104.45 852.8 103.67 853L103.41 851.92C103.85 851.74 105.65 851.46 107.13 851.46C110.47 851.46 111.21 852.82 111.21 856.3V862H110.29ZM110.05 857.64V857.38C109.07 857.04 108.11 856.8 106.79 856.8C104.93 856.8 103.69 857.52 103.69 858.92C103.69 860.3 104.79 861.12 106.39 861.12C108.95 861.12 110.05 859.42 110.05 857.64ZM120.011 860.7L120.431 861.7C119.751 862.06 118.931 862.22 118.191 862.22C116.211 862.22 115.191 861.04 115.191 858.86V852.78H113.731V851.72H115.211V849.34H116.351V851.72H120.131V852.78H116.351V858.86C116.351 860.36 116.911 861.12 118.191 861.12C118.851 861.12 119.411 860.96 120.011 860.7ZM132.313 857.4H123.493C123.733 859.5 125.433 861.12 127.593 861.12C129.113 861.12 129.873 860.72 131.033 859.84L131.653 860.76C130.333 861.74 129.253 862.22 127.593 862.22C124.593 862.22 122.293 859.82 122.293 856.86C122.293 853.88 124.633 851.46 127.573 851.46C130.593 851.46 132.313 853.96 132.313 856.9V857.4ZM123.493 856.34H131.173C131.053 854.34 129.753 852.56 127.593 852.56C125.433 852.56 123.733 854.2 123.493 856.34ZM134.945 852.56C134.945 852.02 135.365 851.56 135.945 851.56C136.505 851.56 136.945 852.02 136.945 852.56C136.945 853.12 136.505 853.58 135.945 853.58C135.365 853.58 134.945 853.12 134.945 852.56ZM134.945 861.22C134.945 860.66 135.365 860.22 135.945 860.22C136.505 860.22 136.945 860.66 136.945 861.22C136.945 861.76 136.505 862.22 135.945 862.22C135.365 862.22 134.945 861.76 134.945 861.22ZM149.202 862.26C145.322 862.26 143.522 858.98 143.522 855C143.522 851.02 145.322 847.74 149.202 847.74C153.102 847.74 154.882 851.02 154.882 855C154.882 858.98 153.102 862.26 149.202 862.26ZM149.202 859.92C151.622 859.92 152.302 857.5 152.302 855C152.302 852.5 151.602 850.08 149.202 850.08C146.802 850.08 146.122 852.5 146.122 855C146.122 857.5 146.802 859.92 149.202 859.92ZM162.044 862H159.484V851L157.104 852.06L156.224 849.8L160.444 848H162.044V862ZM164.915 860.6C164.915 859.72 165.635 859 166.535 859C167.435 859 168.155 859.72 168.155 860.6C168.155 861.48 167.435 862.22 166.535 862.22C165.635 862.22 164.915 861.48 164.915 860.6ZM175.999 862.26C172.119 862.26 170.319 858.98 170.319 855C170.319 851.02 172.119 847.74 175.999 847.74C179.899 847.74 181.679 851.02 181.679 855C181.679 858.98 179.899 862.26 175.999 862.26ZM175.999 859.92C178.419 859.92 179.099 857.5 179.099 855C179.099 852.5 178.399 850.08 175.999 850.08C173.599 850.08 172.919 852.5 172.919 855C172.919 857.5 173.599 859.92 175.999 859.92ZM183.101 859.96L184.741 858.18C185.721 859.26 186.881 859.92 188.381 859.92C190.081 859.92 190.941 858.96 190.941 857.68C190.941 856.28 190.001 855.56 188.181 855.56H183.941L184.901 848H192.821V850.3H187.101L186.721 853.28H188.401C191.301 853.28 193.541 854.4 193.541 857.54C193.541 860.62 191.441 862.26 188.381 862.26C186.201 862.26 184.361 861.34 183.101 859.96ZM195.579 860.6C195.579 859.72 196.299 859 197.199 859C198.099 859 198.819 859.72 198.819 860.6C198.819 861.48 198.099 862.22 197.199 862.22C196.299 862.22 195.579 861.48 195.579 860.6ZM210.683 862H200.963L200.983 860.18L206.243 854.8C207.183 853.86 207.663 853.18 207.663 852.12C207.663 850.84 206.843 850.08 205.543 850.08C204.543 850.08 203.563 850.54 202.343 851.74L200.763 849.96C202.163 848.6 203.703 847.74 205.703 847.74C208.503 847.74 210.263 849.44 210.263 851.96C210.263 853.52 209.643 854.76 208.243 856.18L204.823 859.7H210.683V862ZM218.186 862.26C214.306 862.26 212.506 858.98 212.506 855C212.506 851.02 214.306 847.74 218.186 847.74C222.086 847.74 223.866 851.02 223.866 855C223.866 858.98 222.086 862.26 218.186 862.26ZM218.186 859.92C220.606 859.92 221.286 857.5 221.286 855C221.286 852.5 220.586 850.08 218.186 850.08C215.786 850.08 215.106 852.5 215.106 855C215.106 857.5 215.786 859.92 218.186 859.92ZM235.468 862H225.748L225.768 860.18L231.028 854.8C231.968 853.86 232.448 853.18 232.448 852.12C232.448 850.84 231.628 850.08 230.328 850.08C229.328 850.08 228.348 850.54 227.128 851.74L225.548 849.96C226.948 848.6 228.488 847.74 230.488 847.74C233.288 847.74 235.048 849.44 235.048 851.96C235.048 853.52 234.428 854.76 233.028 856.18L229.608 859.7H235.468V862ZM243.396 858.82H236.576V856.82L243.156 848H245.856V856.54H247.696V858.82H245.856V862H243.396V858.82ZM243.436 851.34L239.536 856.56H243.436V851.34Z" fill="#141616"/>
<rect x="70" y="888" width="173" height="42" rx="8" fill="white" fill-opacity="0.75"/>
<path d="M93.64 916H88.18V902H93.14C95.42 902 98 902.94 98 905.74C98 907.86 96.4 908.64 95.56 908.88V908.9C96.26 909.08 98.5 909.82 98.5 912.34C98.5 914.94 96.28 916 93.64 916ZM89.34 903.12V908.36H93.62C95.42 908.36 96.82 907.56 96.82 905.8C96.82 903.92 95.32 903.12 93.04 903.12H89.34ZM89.34 909.48V914.88H93.52C96.18 914.88 97.32 913.88 97.32 912.28C97.32 910.5 95.76 909.48 93.74 909.48H89.34ZM102.793 916H101.633V900.94H102.793V916ZM105.808 910.86C105.808 907.88 108.108 905.46 111.088 905.46C114.088 905.46 116.388 907.88 116.388 910.86C116.388 913.82 114.088 916.22 111.088 916.22C108.108 916.22 105.808 913.82 105.808 910.86ZM111.088 915.12C113.428 915.12 115.228 913.22 115.228 910.86C115.228 908.48 113.428 906.58 111.088 906.58C108.748 906.58 106.968 908.48 106.968 910.86C106.968 913.22 108.748 915.12 111.088 915.12ZM126.687 913.8L127.487 914.6C126.307 915.74 125.067 916.22 123.667 916.22C120.687 916.22 118.387 913.82 118.387 910.86C118.387 907.88 120.687 905.46 123.667 905.46C125.067 905.46 126.387 906 127.467 907.08L126.687 907.88C125.907 907.12 124.927 906.58 123.667 906.58C121.327 906.58 119.547 908.48 119.547 910.86C119.547 913.22 121.327 915.12 123.667 915.12C124.887 915.12 125.827 914.66 126.687 913.8ZM131.524 916H130.384V900.94H131.524V910.96L136.904 905.68H138.464L134.064 910L138.744 916H137.324L133.264 910.78L131.524 912.52V916ZM140.941 906.56C140.941 906.02 141.361 905.56 141.941 905.56C142.501 905.56 142.941 906.02 142.941 906.56C142.941 907.12 142.501 907.58 141.941 907.58C141.361 907.58 140.941 907.12 140.941 906.56ZM140.941 915.22C140.941 914.66 141.361 914.22 141.941 914.22C142.501 914.22 142.941 914.66 142.941 915.22C142.941 915.76 142.501 916.22 141.941 916.22C141.361 916.22 140.941 915.76 140.941 915.22ZM153.042 913.96L154.682 912.18C155.662 913.26 156.822 913.92 158.322 913.92C160.022 913.92 160.882 912.96 160.882 911.68C160.882 910.28 159.942 909.56 158.122 909.56H153.882L154.842 902H162.762V904.3H157.042L156.662 907.28H158.342C161.242 907.28 163.482 908.4 163.482 911.54C163.482 914.62 161.382 916.26 158.322 916.26C156.142 916.26 154.302 915.34 153.042 913.96ZM164.761 913.96L166.401 912.18C167.381 913.26 168.541 913.92 170.041 913.92C171.741 913.92 172.601 912.96 172.601 911.68C172.601 910.28 171.661 909.56 169.841 909.56H165.601L166.561 902H174.481V904.3H168.761L168.381 907.28H170.061C172.961 907.28 175.201 908.4 175.201 911.54C175.201 914.62 173.101 916.26 170.041 916.26C167.861 916.26 166.021 915.34 164.761 913.96ZM176.48 913.96L178.12 912.18C179.1 913.26 180.26 913.92 181.76 913.92C183.46 913.92 184.32 912.96 184.32 911.68C184.32 910.28 183.38 909.56 181.56 909.56H177.32L178.28 902H186.2V904.3H180.48L180.1 907.28H181.78C184.68 907.28 186.92 908.4 186.92 911.54C186.92 914.62 184.82 916.26 181.76 916.26C179.58 916.26 177.74 915.34 176.48 913.96ZM192.202 913.96L193.842 912.18C194.822 913.26 195.982 913.92 197.482 913.92C199.182 913.92 200.042 912.96 200.042 911.68C200.042 910.28 199.102 909.56 197.282 909.56H193.042L194.002 902H201.922V904.3H196.202L195.822 907.28H197.502C200.402 907.28 202.642 908.4 202.642 911.54C202.642 914.62 200.542 916.26 197.482 916.26C195.302 916.26 193.462 915.34 192.202 913.96ZM203.921 913.96L205.561 912.18C206.541 913.26 207.701 913.92 209.201 913.92C210.901 913.92 211.761 912.96 211.761 911.68C211.761 910.28 210.821 909.56 209.001 909.56H204.761L205.721 902H213.641V904.3H207.921L207.541 907.28H209.221C212.121 907.28 214.361 908.4 214.361 911.54C214.361 914.62 212.261 916.26 209.201 916.26C207.021 916.26 205.181 915.34 203.921 913.96ZM215.64 913.96L217.28 912.18C218.26 913.26 219.42 913.92 220.92 913.92C222.62 913.92 223.48 912.96 223.48 911.68C223.48 910.28 222.54 909.56 220.72 909.56H216.48L217.44 902H225.36V904.3H219.64L219.26 907.28H220.94C223.84 907.28 226.08 908.4 226.08 911.54C226.08 914.62 223.98 916.26 220.92 916.26C218.74 916.26 216.9 915.34 215.64 913.96Z" fill="#141616"/>
<path d="M21.208 752.581C21.208 755.605 18.584 756.965 15.4 756.965C12.216 756.965 9.592 755.605 9.592 752.581C9.592 749.557 12.216 748.197 15.4 748.197C18.584 748.197 21.208 749.557 21.208 752.581ZM20.312 752.581C20.312 750.005 17.832 749.141 15.4 749.141C12.968 749.141 10.488 750.021 10.488 752.581C10.488 755.157 12.968 756.037 15.4 756.037C17.832 756.037 20.312 755.157 20.312 752.581ZM21 745.683L21 746.851L16.856 743.651L12.744 746.819L12.744 745.651L16.136 743.027L12.744 740.403L12.744 739.251L16.856 742.403L21 739.203L21 740.371L17.576 743.027L21 745.683ZM21.208 733.659C21.208 736.683 18.584 738.043 15.4 738.043C12.216 738.043 9.592 736.683 9.592 733.659C9.592 730.635 12.216 729.275 15.4 729.275C18.584 729.275 21.208 730.635 21.208 733.659ZM20.312 733.659C20.312 731.083 17.832 730.219 15.4 730.219C12.968 730.219 10.488 731.099 10.488 733.659C10.488 736.235 12.968 737.115 15.4 737.115C17.832 737.115 20.312 736.235 20.312 733.659ZM21.208 723.221C21.208 726.245 18.584 727.605 15.4 727.605C12.216 727.605 9.592 726.245 9.592 723.221C9.592 720.197 12.216 718.837 15.4 718.837C18.584 718.837 21.208 720.197 21.208 723.221ZM20.312 723.221C20.312 720.645 17.832 719.781 15.4 719.781C12.968 719.781 10.488 720.661 10.488 723.221C10.488 725.797 12.968 726.677 15.4 726.677C17.832 726.677 20.312 725.797 20.312 723.221ZM21.208 712.784C21.208 715.808 18.584 717.168 15.4 717.168C12.216 717.168 9.592 715.808 9.592 712.784C9.592 709.76 12.216 708.4 15.4 708.4C18.584 708.4 21.208 709.76 21.208 712.784ZM20.312 712.784C20.312 710.208 17.832 709.344 15.4 709.344C12.968 709.344 10.488 710.224 10.488 712.784C10.488 715.36 12.968 716.24 15.4 716.24C17.832 716.24 20.312 715.36 20.312 712.784ZM21.208 702.346C21.208 705.37 18.584 706.73 15.4 706.73C12.216 706.73 9.592 705.37 9.592 702.346C9.592 699.322 12.216 697.962 15.4 697.962C18.584 697.962 21.208 699.322 21.208 702.346ZM20.312 702.346C20.312 699.77 17.832 698.906 15.4 698.906C12.968 698.906 10.488 699.786 10.488 702.346C10.488 704.922 12.968 705.802 15.4 705.802C17.832 705.802 20.312 704.922 20.312 702.346ZM21.208 691.909C21.208 694.933 18.584 696.293 15.4 696.293C12.216 696.293 9.592 694.933 9.592 691.909C9.592 688.885 12.216 687.525 15.4 687.525C18.584 687.525 21.208 688.885 21.208 691.909ZM20.312 691.909C20.312 689.333 17.832 688.469 15.4 688.469C12.968 688.469 10.488 689.349 10.488 691.909C10.488 694.485 12.968 695.365 15.4 695.365C17.832 695.365 20.312 694.485 20.312 691.909ZM21.208 681.471C21.208 684.495 18.584 685.855 15.4 685.855C12.216 685.855 9.592 684.495 9.592 681.471C9.592 678.447 12.216 677.087 15.4 677.087C18.584 677.087 21.208 678.447 21.208 681.471ZM20.312 681.471C20.312 678.895 17.832 678.031 15.4 678.031C12.968 678.031 10.488 678.911 10.488 681.471C10.488 684.047 12.968 684.927 15.4 684.927C17.832 684.927 20.312 684.047 20.312 681.471ZM21.208 671.034C21.208 674.058 18.584 675.418 15.4 675.418C12.216 675.418 9.592 674.058 9.592 671.034C9.59199 668.01 12.216 666.65 15.4 666.65C18.584 666.65 21.208 668.01 21.208 671.034ZM20.312 671.034C20.312 668.458 17.832 667.594 15.4 667.594C12.968 667.594 10.488 668.474 10.488 671.034C10.488 673.61 12.968 674.49 15.4 674.49C17.832 674.49 20.312 673.61 20.312 671.034ZM21.208 660.596C21.208 663.62 18.584 664.98 15.4 664.98C12.216 664.98 9.59199 663.62 9.59199 660.596C9.59199 657.572 12.216 656.212 15.4 656.212C18.584 656.212 21.208 657.572 21.208 660.596ZM20.312 660.596C20.312 658.02 17.832 657.156 15.4 657.156C12.968 657.156 10.488 658.036 10.488 660.596C10.488 663.172 12.968 664.052 15.4 664.052C17.832 664.052 20.312 663.172 20.312 660.596ZM21.208 650.159C21.208 653.183 18.584 654.543 15.4 654.543C12.216 654.543 9.59199 653.183 9.59199 650.159C9.59199 647.135 12.216 645.775 15.4 645.775C18.584 645.775 21.208 647.135 21.208 650.159ZM20.312 650.159C20.312 647.583 17.832 646.719 15.4 646.719C12.968 646.719 10.488 647.599 10.488 650.159C10.488 652.735 12.968 653.615 15.4 653.615C17.832 653.615 20.312 652.735 20.312 650.159ZM21.208 639.721C21.208 642.745 18.584 644.105 15.4 644.105C12.216 644.105 9.59199 642.745 9.59199 639.721C9.59199 636.697 12.216 635.337 15.4 635.337C18.584 635.337 21.208 636.697 21.208 639.721ZM20.312 639.721C20.312 637.145 17.832 636.281 15.4 636.281C12.968 636.281 10.488 637.161 10.488 639.721C10.488 642.297 12.968 643.177 15.4 643.177C17.832 643.177 20.312 642.297 20.312 639.721ZM21.208 629.284C21.208 632.308 18.584 633.668 15.4 633.668C12.216 633.668 9.59199 632.308 9.59199 629.284C9.59199 626.26 12.216 624.9 15.4 624.9C18.584 624.9 21.208 626.26 21.208 629.284ZM20.312 629.284C20.312 626.708 17.832 625.844 15.4 625.844C12.968 625.844 10.488 626.724 10.488 629.284C10.488 631.86 12.968 632.74 15.4 632.74C17.832 632.74 20.312 631.86 20.312 629.284ZM21.208 618.846C21.208 621.87 18.584 623.23 15.4 623.23C12.216 623.23 9.59199 621.87 9.59199 618.846C9.59199 615.822 12.216 614.462 15.4 614.462C18.584 614.462 21.208 615.822 21.208 618.846ZM20.312 618.846C20.312 616.27 17.832 615.406 15.4 615.406C12.968 615.406 10.488 616.286 10.488 618.846C10.488 621.422 12.968 622.302 15.4 622.302C17.832 622.302 20.312 621.422 20.312 618.846ZM21.208 608.409C21.208 611.433 18.584 612.793 15.4 612.793C12.216 612.793 9.59199 611.433 9.59199 608.409C9.59199 605.385 12.216 604.025 15.4 604.025C18.584 604.025 21.208 605.385 21.208 608.409ZM20.312 608.409C20.312 605.833 17.832 604.969 15.4 604.969C12.968 604.969 10.488 605.849 10.488 608.409C10.488 610.985 12.968 611.865 15.4 611.865C17.832 611.865 20.312 610.985 20.312 608.409ZM21.208 597.971C21.208 600.995 18.584 602.355 15.4 602.355C12.216 602.355 9.59199 600.995 9.59199 597.971C9.59199 594.947 12.216 593.587 15.4 593.587C18.584 593.587 21.208 594.947 21.208 597.971ZM20.312 597.971C20.312 595.395 17.832 594.531 15.4 594.531C12.968 594.531 10.488 595.411 10.488 597.971C10.488 600.547 12.968 601.427 15.4 601.427C17.832 601.427 20.312 600.547 20.312 597.971ZM21.208 587.534C21.208 590.558 18.584 591.918 15.4 591.918C12.216 591.918 9.59199 590.558 9.59199 587.534C9.59199 584.51 12.216 583.15 15.4 583.15C18.584 583.15 21.208 584.51 21.208 587.534ZM20.312 587.534C20.312 584.958 17.832 584.094 15.4 584.094C12.968 584.094 10.488 584.974 10.488 587.534C10.488 590.11 12.968 590.99 15.4 590.99C17.832 590.99 20.312 590.11 20.312 587.534ZM21.208 577.096C21.208 580.12 18.584 581.48 15.4 581.48C12.216 581.48 9.59199 580.12 9.59199 577.096C9.59199 574.072 12.216 572.712 15.4 572.712C18.584 572.712 21.208 574.072 21.208 577.096ZM20.312 577.096C20.312 574.52 17.832 573.656 15.4 573.656C12.968 573.656 10.488 574.536 10.488 577.096C10.488 579.672 12.968 580.552 15.4 580.552C17.832 580.552 20.312 579.672 20.312 577.096ZM21.208 566.659C21.208 569.683 18.584 571.043 15.4 571.043C12.216 571.043 9.59199 569.683 9.59199 566.659C9.59199 563.635 12.216 562.275 15.4 562.275C18.584 562.275 21.208 563.635 21.208 566.659ZM20.312 566.659C20.312 564.083 17.832 563.219 15.4 563.219C12.968 563.219 10.488 564.099 10.488 566.659C10.488 569.235 12.968 570.115 15.4 570.115C17.832 570.115 20.312 569.235 20.312 566.659ZM21.208 556.221C21.208 559.245 18.584 560.605 15.4 560.605C12.216 560.605 9.59199 559.245 9.59199 556.221C9.59199 553.197 12.216 551.837 15.4 551.837C18.584 551.837 21.208 553.197 21.208 556.221ZM20.312 556.221C20.312 553.645 17.832 552.781 15.4 552.781C12.968 552.781 10.488 553.661 10.488 556.221C10.488 558.797 12.968 559.677 15.4 559.677C17.832 559.677 20.312 558.797 20.312 556.221ZM21.208 545.784C21.208 548.808 18.584 550.168 15.4 550.168C12.216 550.168 9.59199 548.808 9.59199 545.784C9.59199 542.76 12.216 541.4 15.4 541.4C18.584 541.4 21.208 542.76 21.208 545.784ZM20.312 545.784C20.312 543.208 17.832 542.344 15.4 542.344C12.968 542.344 10.488 543.224 10.488 545.784C10.488 548.36 12.968 549.24 15.4 549.24C17.832 549.24 20.312 548.36 20.312 545.784ZM21.208 535.346C21.208 538.37 18.584 539.73 15.4 539.73C12.216 539.73 9.59199 538.37 9.59199 535.346C9.59199 532.322 12.216 530.962 15.4 530.962C18.584 530.962 21.208 532.322 21.208 535.346ZM20.312 535.346C20.312 532.77 17.832 531.906 15.4 531.906C12.968 531.906 10.488 532.786 10.488 535.346C10.488 537.922 12.968 538.802 15.4 538.802C17.832 538.802 20.312 537.922 20.312 535.346ZM21.208 524.909C21.208 527.933 18.584 529.293 15.4 529.293C12.216 529.293 9.59199 527.933 9.59199 524.909C9.59199 521.885 12.216 520.525 15.4 520.525C18.584 520.525 21.208 521.885 21.208 524.909ZM20.312 524.909C20.312 522.333 17.832 521.469 15.4 521.469C12.968 521.469 10.488 522.349 10.488 524.909C10.488 527.485 12.968 528.365 15.4 528.365C17.832 528.365 20.312 527.485 20.312 524.909ZM21.208 514.471C21.208 517.495 18.584 518.855 15.4 518.855C12.216 518.855 9.59199 517.495 9.59199 514.471C9.59199 511.447 12.216 510.087 15.4 510.087C18.584 510.087 21.208 511.447 21.208 514.471ZM20.312 514.471C20.312 511.895 17.832 511.031 15.4 511.031C12.968 511.031 10.488 511.911 10.488 514.471C10.488 517.047 12.968 517.927 15.4 517.927C17.832 517.927 20.312 517.047 20.312 514.471ZM21.208 504.034C21.208 507.058 18.584 508.418 15.4 508.418C12.216 508.418 9.59199 507.058 9.59199 504.034C9.59199 501.01 12.216 499.65 15.4 499.65C18.584 499.65 21.208 501.01 21.208 504.034ZM20.312 504.034C20.312 501.458 17.832 500.594 15.4 500.594C12.968 500.594 10.488 501.474 10.488 504.034C10.488 506.61 12.968 507.49 15.4 507.49C17.832 507.49 20.312 506.61 20.312 504.034ZM21.208 493.596C21.208 496.62 18.584 497.98 15.4 497.98C12.216 497.98 9.59199 496.62 9.59199 493.596C9.59199 490.572 12.216 489.212 15.4 489.212C18.584 489.212 21.208 490.572 21.208 493.596ZM20.312 493.596C20.312 491.02 17.832 490.156 15.4 490.156C12.968 490.156 10.488 491.036 10.488 493.596C10.488 496.172 12.968 497.052 15.4 497.052C17.832 497.052 20.312 496.172 20.312 493.596ZM21.208 483.159C21.208 486.183 18.584 487.543 15.4 487.543C12.216 487.543 9.59199 486.183 9.59199 483.159C9.59199 480.135 12.216 478.775 15.4 478.775C18.584 478.775 21.208 480.135 21.208 483.159ZM20.312 483.159C20.312 480.583 17.832 479.719 15.4 479.719C12.968 479.719 10.488 480.599 10.488 483.159C10.488 485.735 12.968 486.615 15.4 486.615C17.832 486.615 20.312 485.735 20.312 483.159ZM21.208 472.721C21.208 475.745 18.584 477.105 15.4 477.105C12.216 477.105 9.59199 475.745 9.59199 472.721C9.59199 469.697 12.216 468.337 15.4 468.337C18.584 468.337 21.208 469.697 21.208 472.721ZM20.312 472.721C20.312 470.145 17.832 469.281 15.4 469.281C12.968 469.281 10.488 470.161 10.488 472.721C10.488 475.297 12.968 476.177 15.4 476.177C17.832 476.177 20.312 475.297 20.312 472.721ZM21.208 462.284C21.208 465.308 18.584 466.668 15.4 466.668C12.216 466.668 9.59199 465.308 9.59199 462.284C9.59199 459.26 12.216 457.9 15.4 457.9C18.584 457.9 21.208 459.26 21.208 462.284ZM20.312 462.284C20.312 459.708 17.832 458.844 15.4 458.844C12.968 458.844 10.488 459.724 10.488 462.284C10.488 464.86 12.968 465.74 15.4 465.74C17.832 465.74 20.312 464.86 20.312 462.284ZM21.208 451.846C21.208 454.87 18.584 456.23 15.4 456.23C12.216 456.23 9.59199 454.87 9.59199 451.846C9.59199 448.822 12.216 447.462 15.4 447.462C18.584 447.462 21.208 448.822 21.208 451.846ZM20.312 451.846C20.312 449.27 17.832 448.406 15.4 448.406C12.968 448.406 10.488 449.286 10.488 451.846C10.488 454.422 12.968 455.302 15.4 455.302C17.832 455.302 20.312 454.422 20.312 451.846ZM21.208 441.409C21.208 444.433 18.584 445.793 15.4 445.793C12.216 445.793 9.59199 444.433 9.59199 441.409C9.59198 438.385 12.216 437.025 15.4 437.025C18.584 437.025 21.208 438.385 21.208 441.409ZM20.312 441.409C20.312 438.833 17.832 437.969 15.4 437.969C12.968 437.969 10.488 438.849 10.488 441.409C10.488 443.985 12.968 444.865 15.4 444.865C17.832 444.865 20.312 443.985 20.312 441.409ZM21.208 430.971C21.208 433.995 18.584 435.355 15.4 435.355C12.216 435.355 9.59198 433.995 9.59198 430.971C9.59198 427.947 12.216 426.587 15.4 426.587C18.584 426.587 21.208 427.947 21.208 430.971ZM20.312 430.971C20.312 428.395 17.832 427.531 15.4 427.531C12.968 427.531 10.488 428.411 10.488 430.971C10.488 433.547 12.968 434.427 15.4 434.427C17.832 434.427 20.312 433.547 20.312 430.971ZM21.208 420.534C21.208 423.558 18.584 424.918 15.4 424.918C12.216 424.918 9.59198 423.558 9.59198 420.534C9.59198 417.51 12.216 416.15 15.4 416.15C18.584 416.15 21.208 417.51 21.208 420.534ZM20.312 420.534C20.312 417.958 17.832 417.094 15.4 417.094C12.968 417.094 10.488 417.974 10.488 420.534C10.488 423.11 12.968 423.99 15.4 423.99C17.832 423.99 20.312 423.11 20.312 420.534ZM21.208 410.096C21.208 413.12 18.584 414.48 15.4 414.48C12.216 414.48 9.59198 413.12 9.59198 410.096C9.59198 407.072 12.216 405.712 15.4 405.712C18.584 405.712 21.208 407.072 21.208 410.096ZM20.312 410.096C20.312 407.52 17.832 406.656 15.4 406.656C12.968 406.656 10.488 407.536 10.488 410.096C10.488 412.672 12.968 413.552 15.4 413.552C17.832 413.552 20.312 412.672 20.312 410.096ZM21.208 399.659C21.208 402.683 18.584 404.043 15.4 404.043C12.216 404.043 9.59198 402.683 9.59198 399.659C9.59198 396.635 12.216 395.275 15.4 395.275C18.584 395.275 21.208 396.635 21.208 399.659ZM20.312 399.659C20.312 397.083 17.832 396.219 15.4 396.219C12.968 396.219 10.488 397.099 10.488 399.659C10.488 402.235 12.968 403.115 15.4 403.115C17.832 403.115 20.312 402.235 20.312 399.659ZM21.208 389.221C21.208 392.245 18.584 393.605 15.4 393.605C12.216 393.605 9.59198 392.245 9.59198 389.221C9.59198 386.197 12.216 384.837 15.4 384.837C18.584 384.837 21.208 386.197 21.208 389.221ZM20.312 389.221C20.312 386.645 17.832 385.781 15.4 385.781C12.968 385.781 10.488 386.661 10.488 389.221C10.488 391.797 12.968 392.677 15.4 392.677C17.832 392.677 20.312 391.797 20.312 389.221ZM21.208 378.784C21.208 381.808 18.584 383.168 15.4 383.168C12.216 383.168 9.59198 381.808 9.59198 378.784C9.59198 375.76 12.216 374.4 15.4 374.4C18.584 374.4 21.208 375.76 21.208 378.784ZM20.312 378.784C20.312 376.208 17.832 375.344 15.4 375.344C12.968 375.344 10.488 376.224 10.488 378.784C10.488 381.36 12.968 382.24 15.4 382.24C17.832 382.24 20.312 381.36 20.312 378.784ZM21.208 368.346C21.208 371.37 18.584 372.73 15.4 372.73C12.216 372.73 9.59198 371.37 9.59198 368.346C9.59198 365.322 12.216 363.962 15.4 363.962C18.584 363.962 21.208 365.322 21.208 368.346ZM20.312 368.346C20.312 365.77 17.832 364.906 15.4 364.906C12.968 364.906 10.488 365.786 10.488 368.346C10.488 370.922 12.968 371.802 15.4 371.802C17.832 371.802 20.312 370.922 20.312 368.346ZM21.208 357.909C21.208 360.933 18.584 362.293 15.4 362.293C12.216 362.293 9.59198 360.933 9.59198 357.909C9.59198 354.885 12.216 353.525 15.4 353.525C18.584 353.525 21.208 354.885 21.208 357.909ZM20.312 357.909C20.312 355.333 17.832 354.469 15.4 354.469C12.968 354.469 10.488 355.349 10.488 357.909C10.488 360.485 12.968 361.365 15.4 361.365C17.832 361.365 20.312 360.485 20.312 357.909ZM21.208 347.471C21.208 350.495 18.584 351.855 15.4 351.855C12.216 351.855 9.59198 350.495 9.59198 347.471C9.59198 344.447 12.216 343.087 15.4 343.087C18.584 343.087 21.208 344.447 21.208 347.471ZM20.312 347.471C20.312 344.895 17.832 344.031 15.4 344.031C12.968 344.031 10.488 344.911 10.488 347.471C10.488 350.047 12.968 350.927 15.4 350.927C17.832 350.927 20.312 350.047 20.312 347.471ZM21.208 337.034C21.208 340.058 18.584 341.418 15.4 341.418C12.216 341.418 9.59198 340.058 9.59198 337.034C9.59198 334.01 12.216 332.65 15.4 332.65C18.584 332.65 21.208 334.01 21.208 337.034ZM20.312 337.034C20.312 334.458 17.832 333.594 15.4 333.594C12.968 333.594 10.488 334.474 10.488 337.034C10.488 339.61 12.968 340.49 15.4 340.49C17.832 340.49 20.312 339.61 20.312 337.034ZM21.208 326.596C21.208 329.62 18.584 330.98 15.4 330.98C12.216 330.98 9.59198 329.62 9.59198 326.596C9.59198 323.572 12.216 322.212 15.4 322.212C18.584 322.212 21.208 323.572 21.208 326.596ZM20.312 326.596C20.312 324.02 17.832 323.156 15.4 323.156C12.968 323.156 10.488 324.036 10.488 326.596C10.488 329.172 12.968 330.052 15.4 330.052C17.832 330.052 20.312 329.172 20.312 326.596Z" fill="black"/>
<path d="M479.794 888.038C478.872 887.309 478.715 885.971 479.444 885.049L483.052 880.482C483.78 879.56 485.119 879.403 486.041 880.132C486.963 880.86 487.12 882.199 486.391 883.121L482.783 887.688C482.055 888.61 480.716 888.767 479.794 888.038Z" fill="white"/>
<path d="M504.007 896.005C504.007 899.876 500.87 903.013 496.999 903.013C493.129 903.013 489.992 899.876 489.992 896.005C489.992 892.135 493.129 888.997 496.999 888.997C500.87 888.997 504.007 892.135 504.007 896.005Z" fill="white"/>
<path fill-rule="evenodd" clip-rule="evenodd" d="M501.646 924.668C499.211 927.533 494.789 927.533 492.354 924.668L472.198 900.947C470.264 898.671 470.264 895.329 472.198 893.052L474.215 890.679C475.305 889.396 477.228 889.24 478.511 890.33C479.794 891.42 479.95 893.344 478.86 894.627L476.844 897L497 920.721L502.841 913.846C503.931 912.564 505.855 912.407 507.138 913.497C508.42 914.588 508.577 916.511 507.487 917.794L501.646 924.668ZM514.247 905.131C512.964 904.041 512.808 902.118 513.898 900.835L517.156 897L497 873.279L492.755 878.275C491.665 879.558 489.741 879.714 488.458 878.624C487.176 877.534 487.019 875.61 488.109 874.327L492.354 869.331C494.789 866.466 499.211 866.466 501.646 869.331L521.802 893.052C523.736 895.329 523.736 898.671 521.802 900.947L518.543 904.782C517.453 906.065 515.53 906.221 514.247 905.131Z" fill="white"/>
<path fill-rule="evenodd" clip-rule="evenodd" d="M497 860.096C476.619 860.096 460.096 876.619 460.096 897C460.096 917.381 476.619 933.903 497 933.903C498.683 933.903 500.048 935.268 500.048 936.952C500.048 938.635 498.683 940 497 940C473.252 940 454 920.748 454 897C454 873.252 473.252 854 497 854C498.683 854 500.048 855.365 500.048 857.048C500.048 858.732 498.683 860.096 497 860.096Z" fill="white"/>
<path fill-rule="evenodd" clip-rule="evenodd" d="M522.955 927.525C521.77 926.329 521.779 924.399 522.974 923.215C529.727 916.524 533.904 907.252 533.904 897C533.904 886.747 529.727 877.476 522.974 870.785C521.779 869.6 521.77 867.67 522.955 866.474C524.14 865.279 526.069 865.27 527.265 866.455C535.126 874.243 540 885.055 540 897C540 908.944 535.126 919.756 527.265 927.545C526.069 928.73 524.14 928.721 522.955 927.525Z" fill="white"/>
<path d="M515.137 933.916C515.137 935.726 513.669 937.193 511.86 937.193C510.05 937.193 508.583 935.726 508.583 933.916C508.583 932.107 510.05 930.64 511.86 930.64C513.669 930.64 515.137 932.107 515.137 933.916Z" fill="white"/>
<rect x="70" y="502" width="98" height="42" rx="8" fill="#141616"/>
<path d="M100.208 526.248L102.2 528.456C100.64 530.256 97.976 531.312 95.624 531.312C90.776 531.312 87.008 527.496 87.008 522.6C87.008 517.704 90.776 513.888 95.624 513.888C98 513.888 100.496 514.896 102.224 516.72L100.16 519C98.816 517.44 97.4 516.696 95.624 516.696C92.264 516.696 90.104 519.456 90.104 522.6C90.104 525.744 92.264 528.504 95.624 528.504C97.4 528.504 98.864 527.76 100.208 526.248ZM112.405 531.312C107.557 531.312 103.789 527.496 103.789 522.6C103.789 517.704 107.557 513.888 112.405 513.888C117.253 513.888 121.021 517.704 121.021 522.6C121.021 527.496 117.253 531.312 112.405 531.312ZM112.405 528.504C115.789 528.504 117.925 525.744 117.925 522.6C117.925 519.456 115.789 516.696 112.405 516.696C109.045 516.696 106.909 519.456 106.909 522.6C106.909 525.744 109.045 528.504 112.405 528.504ZM123.126 529.152L124.662 526.632C126.294 527.784 128.358 528.504 129.99 528.504C132.198 528.504 133.35 527.64 133.35 526.32C133.35 524.808 131.958 524.448 130.182 524.136C127.374 523.632 123.702 523.272 123.702 519.096C123.702 515.808 126.414 513.888 129.942 513.888C132.198 513.888 133.878 514.32 136.11 515.784L134.622 518.256C132.966 517.152 131.55 516.696 130.062 516.696C128.142 516.696 126.822 517.392 126.822 519C126.822 520.536 128.31 520.8 130.182 521.112C132.966 521.544 136.47 522 136.47 526.176C136.47 529.224 133.902 531.312 130.11 531.312C127.566 531.312 125.022 530.592 123.126 529.152ZM146.203 531H143.131V517.008H137.899V514.2H151.411V517.008H146.203V531Z" fill="white"/>
<path d="M210.464 529.272L211.256 528.048C213.008 529.272 215.072 529.968 216.944 529.968C219.92 529.968 221.744 528.576 221.744 526.392C221.744 524.112 219.488 523.632 217.088 523.248C214.112 522.744 210.896 522.528 210.896 518.784C210.896 515.832 213.392 513.888 216.848 513.888C218.984 513.888 220.568 514.296 222.68 515.568L221.96 516.792C220.136 515.664 218.6 515.232 216.896 515.232C214.16 515.232 212.288 516.528 212.288 518.784C212.288 521.184 214.544 521.376 217.088 521.76C219.968 522.192 223.136 522.792 223.136 526.344C223.136 529.344 220.736 531.312 217.016 531.312C214.688 531.312 212.384 530.64 210.464 529.272ZM233.009 529.44L233.513 530.64C232.697 531.072 231.713 531.264 230.825 531.264C228.449 531.264 227.225 529.848 227.225 527.232V519.936H225.473V518.664H227.249V515.808H228.617V518.664H233.153V519.936H228.617V527.232C228.617 529.032 229.289 529.944 230.825 529.944C231.617 529.944 232.289 529.752 233.009 529.44ZM245.39 531L245.198 528.48C244.406 530.256 242.75 531.264 240.566 531.264C238.046 531.264 236.078 529.68 236.078 527.304C236.078 524.76 238.238 523.512 241.094 523.512C242.702 523.512 243.902 523.8 245.102 524.184C245.102 520.512 244.358 519.696 241.454 519.696C239.894 519.696 238.382 519.96 237.446 520.2L237.134 518.904C237.662 518.688 239.822 518.352 241.598 518.352C245.606 518.352 246.494 519.984 246.494 524.16V531H245.39ZM245.102 525.768V525.456C243.926 525.048 242.774 524.76 241.19 524.76C238.958 524.76 237.47 525.624 237.47 527.304C237.47 528.96 238.79 529.944 240.71 529.944C243.782 529.944 245.102 527.904 245.102 525.768ZM252.496 531H251.128V518.616H252.208L252.352 521.616C252.832 520.56 254.032 518.256 257.704 518.352L257.512 519.816C254.2 519.672 252.496 522.312 252.496 525.048V531ZM266.993 529.44L267.497 530.64C266.681 531.072 265.697 531.264 264.809 531.264C262.433 531.264 261.209 529.848 261.209 527.232V519.936H259.457V518.664H261.233V515.808H262.601V518.664H267.137V519.936H262.601V527.232C262.601 529.032 263.273 529.944 264.809 529.944C265.601 529.944 266.273 529.752 266.993 529.44Z" fill="#141616"/>
<path d="M305.84 534.008H303.312V530.936C300.368 530.712 297.552 529.784 295.408 528.088L297.36 524.856C299.152 526.136 301.36 527.064 303.312 527.352V521.592C299.856 520.984 296.176 520.088 296.176 515.352C296.176 511.256 299.184 509.016 303.312 508.664V505.592H305.84V508.632C308.176 508.824 310.192 509.496 312.688 511.128L310.8 514.296C309.136 513.144 307.44 512.472 305.84 512.248V517.976C309.296 518.52 313.168 519.288 313.168 524.344C313.168 528.12 310.448 530.616 305.84 530.968V534.008ZM303.312 517.56V512.216C301.392 512.44 300.208 513.272 300.208 515.032C300.208 516.664 301.52 517.208 303.312 517.56ZM305.84 522.04V527.384C308.048 527.128 309.008 526.136 309.008 524.632C309.008 522.936 307.664 522.424 305.84 522.04ZM324.67 531H320.574V513.4L316.766 515.096L315.358 511.48L322.11 508.6H324.67V531ZM337.905 531.416C331.697 531.416 328.817 526.168 328.817 519.8C328.817 513.432 331.697 508.184 337.905 508.184C344.145 508.184 346.993 513.432 346.993 519.8C346.993 526.168 344.145 531.416 337.905 531.416ZM337.905 527.672C341.777 527.672 342.865 523.8 342.865 519.8C342.865 515.8 341.745 511.928 337.905 511.928C334.065 511.928 332.977 515.8 332.977 519.8C332.977 523.8 334.065 527.672 337.905 527.672Z" fill="#141616"/>
<path d="M216.728 581H215.336V565.544H209.48V564.2H222.56V565.544H216.728V581ZM222.621 574.832C222.621 571.256 225.381 568.352 228.957 568.352C232.557 568.352 235.317 571.256 235.317 574.832C235.317 578.384 232.557 581.264 228.957 581.264C225.381 581.264 222.621 578.384 222.621 574.832ZM228.957 579.944C231.765 579.944 233.925 577.664 233.925 574.832C233.925 571.976 231.765 569.696 228.957 569.696C226.149 569.696 224.013 571.976 224.013 574.832C224.013 577.664 226.149 579.944 228.957 579.944ZM248.948 581L248.876 578.168C248.3 579.272 246.716 581.264 243.668 581.264C240.212 581.264 237.692 578.336 237.692 574.832C237.692 571.328 240.212 568.352 243.668 568.352C246.476 568.352 247.988 570.248 248.66 571.256V562.928H250.028V581H248.948ZM243.908 579.944C246.62 579.944 248.684 577.52 248.684 574.808C248.684 572.096 246.62 569.696 243.908 569.696C241.076 569.696 239.084 571.976 239.084 574.832C239.084 577.664 241.076 579.944 243.908 579.944ZM263.132 581L262.94 578.48C262.148 580.256 260.492 581.264 258.308 581.264C255.788 581.264 253.82 579.68 253.82 577.304C253.82 574.76 255.98 573.512 258.836 573.512C260.444 573.512 261.644 573.8 262.844 574.184C262.844 570.512 262.1 569.696 259.196 569.696C257.636 569.696 256.124 569.96 255.188 570.2L254.876 568.904C255.404 568.688 257.564 568.352 259.34 568.352C263.348 568.352 264.236 569.984 264.236 574.16V581H263.132ZM262.844 575.768V575.456C261.668 575.048 260.516 574.76 258.932 574.76C256.7 574.76 255.212 575.624 255.212 577.304C255.212 578.96 256.532 579.944 258.452 579.944C261.524 579.944 262.844 577.904 262.844 575.768ZM271.366 585.608H269.902L271.822 580.904L266.782 568.616H268.246L272.542 579.176H272.59L276.886 568.616H278.35L271.366 585.608Z" fill="#141616"/>
<path d="M305.84 584.008H303.312V580.936C300.368 580.712 297.552 579.784 295.408 578.088L297.36 574.856C299.152 576.136 301.36 577.064 303.312 577.352V571.592C299.856 570.984 296.176 570.088 296.176 565.352C296.176 561.256 299.184 559.016 303.312 558.664V555.592H305.84V558.632C308.176 558.824 310.192 559.496 312.688 561.128L310.8 564.296C309.136 563.144 307.44 562.472 305.84 562.248V567.976C309.296 568.52 313.168 569.288 313.168 574.344C313.168 578.12 310.448 580.616 305.84 580.968V584.008ZM303.312 567.56V562.216C301.392 562.44 300.208 563.272 300.208 565.032C300.208 566.664 301.52 567.208 303.312 567.56ZM305.84 572.04V577.384C308.048 577.128 309.008 576.136 309.008 574.632C309.008 572.936 307.664 572.424 305.84 572.04ZM324.67 581H320.574V563.4L316.766 565.096L315.358 561.48L322.11 558.6H324.67V581ZM337.905 581.416C331.697 581.416 328.817 576.168 328.817 569.8C328.817 563.432 331.697 558.184 337.905 558.184C344.145 558.184 346.993 563.432 346.993 569.8C346.993 576.168 344.145 581.416 337.905 581.416ZM337.905 577.672C341.777 577.672 342.865 573.8 342.865 569.8C342.865 565.8 341.745 561.928 337.905 561.928C334.065 561.928 332.977 565.8 332.977 569.8C332.977 573.8 334.065 577.672 337.905 577.672ZM359.123 581.416C352.915 581.416 350.035 576.168 350.035 569.8C350.035 563.432 352.915 558.184 359.123 558.184C365.363 558.184 368.211 563.432 368.211 569.8C368.211 576.168 365.363 581.416 359.123 581.416ZM359.123 577.672C362.995 577.672 364.083 573.8 364.083 569.8C364.083 565.8 362.963 561.928 359.123 561.928C355.283 561.928 354.195 565.8 354.195 569.8C354.195 573.8 355.283 577.672 359.123 577.672ZM380.342 581.416C374.134 581.416 371.254 576.168 371.254 569.8C371.254 563.432 374.134 558.184 380.342 558.184C386.582 558.184 389.43 563.432 389.43 569.8C389.43 576.168 386.582 581.416 380.342 581.416ZM380.342 577.672C384.214 577.672 385.302 573.8 385.302 569.8C385.302 565.8 384.182 561.928 380.342 561.928C376.502 561.928 375.414 565.8 375.414 569.8C375.414 573.8 376.502 577.672 380.342 577.672Z" fill="#141616"/>
<line x1="564" y1="632.5" x2="553.426" y2="632.5" stroke="white"/>
<line x1="542.852" y1="632.5" x2="532.278" y2="632.5" stroke="white"/>
<line x1="521.704" y1="632.5" x2="511.131" y2="632.5" stroke="white"/>
<line x1="500.557" y1="632.5" x2="489.983" y2="632.5" stroke="white"/>
<line x1="479.409" y1="632.5" x2="468.835" y2="632.5" stroke="white"/>
<line x1="458.261" y1="632.5" x2="447.687" y2="632.5" stroke="white"/>
<line x1="437.113" y1="632.5" x2="426.539" y2="632.5" stroke="white"/>
<line x1="415.965" y1="632.5" x2="405.391" y2="632.5" stroke="white"/>
<line x1="394.817" y1="632.5" x2="32" y2="632.5" stroke="white"/>
</g>
<defs>
<linearGradient id="paint0_linear_5703_1070" x1="300" y1="0" x2="300" y2="1000" gradientUnits="userSpaceOnUse">
<stop stop-color="#49DF6A"/>
<stop offset="1" stop-color="#49DFB2"/>
</linearGradient>
<clipPath id="clip0_5703_1070">
<rect width="600" height="1000" rx="40" fill="white"/>
</clipPath>
</defs>
</svg>
