<svg width="32" height="32" fill="none" xmlns="http://www.w3.org/2000/svg"><path fill-rule="evenodd" clip-rule="evenodd" d="M21.42 2.92a14.11 14.11 0 0 1 7.66 7.66.62.62 0 1 1-1.14.47 12.88 12.88 0 0 0-7-7 .62.62 0 1 1 .48-1.13Zm7.33 17.7c.31.12.46.48.33.8a14.11 14.11 0 0 1-7.66 7.66.62.62 0 1 1-.47-1.14 12.88 12.88 0 0 0 7-7 .62.62 0 0 1 .8-.33ZM11.39 3.24a.62.62 0 0 1-.34.8 12.88 12.88 0 0 0-7 7 .62.62 0 1 1-1.13-.47 14.11 14.11 0 0 1 7.66-7.66c.32-.13.68.02.8.33ZM3.25 20.61c.32-.13.68.02.8.34a12.88 12.88 0 0 0 7 7 .62.62 0 1 1-.47 1.13 14.11 14.11 0 0 1-7.66-7.66.62.62 0 0 1 .33-.8Z" fill="#fff"/><circle cx="29.54" cy="16" r="2.46" fill="#4AFEBF"/><circle cx="16.05" cy="29.54" r="2.46" fill="#4AFEBF"/><circle cx="16.05" cy="2.46" r="2.46" fill="#4AFEBF"/><circle cx="2.46" cy="16" r="2.46" fill="#4AFEBF"/><path d="M15.23 10.36a1 1 0 0 1 1.54 0l4.05 5.12c.24.3.24.73 0 1.04l-4.05 5.12a1 1 0 0 1-1.54 0l-4.05-5.12a.83.83 0 0 1 0-1.04l4.05-5.12Z" fill="#4AFEBF"/></svg>