<svg width="1627" height="500" viewBox="0 0 1627 500" fill="none" xmlns="http://www.w3.org/2000/svg">
<path d="M150.9 197.9C145.5 193.7 144.6 185.9 148.9 180.5L169.9 154C174.1 148.6 181.9 147.7 187.3 152C192.7 156.2 193.6 164 189.3 169.4L168.3 195.9C164 201.2 156.2 202.1 150.9 197.9Z" fill="#4AFEBF"/>
<path d="M291.6 244.2C291.6 266.7 273.4 284.9 250.9 284.9C228.4 284.9 210.2 266.7 210.2 244.2C210.2 221.7 228.4 203.5 250.9 203.5C273.4 203.5 291.6 221.7 291.6 244.2Z" fill="#51EEDA"/>
<path fill-rule="evenodd" clip-rule="evenodd" d="M277.9 410.9C263.7 427.6 238 427.6 223.9 410.9L106.7 273C95.4998 259.8 95.4998 240.3 106.7 227.1L118.4 213.3C124.7 205.8 135.9 204.9 143.4 211.3C150.9 217.6 151.8 228.8 145.4 236.3L133.7 250L250.9 387.9L284.9 347.9C291.2 340.4 302.4 339.5 309.9 345.9C317.4 352.2 318.3 363.4 311.9 370.9L277.9 410.9ZM351.2 297.3C343.7 291 342.8 279.8 349.2 272.3L368.1 250L250.9 112.1L226.2 141.1C219.9 148.6 208.7 149.5 201.2 143.1C193.7 136.8 192.8 125.6 199.2 118.1L223.9 89.1002C238.1 72.4002 263.8 72.4002 277.9 89.1002L395.1 227C406.3 240.2 406.3 259.7 395.1 272.9L376.2 295.2C369.8 302.7 358.6 303.6 351.2 297.3Z" fill="url(#paint0_linear_4423_59)"/>
<path fill-rule="evenodd" clip-rule="evenodd" d="M250.9 35.4C132.4 35.4 36.2999 131.5 36.2999 250C36.2999 368.5 132.4 464.6 250.9 464.6C260.7 464.6 268.6 472.5 268.6 482.3C268.6 492.1 260.7 500 250.9 500C112.8 500 0.899902 388.1 0.899902 250C0.899902 111.9 112.8 0 250.9 0C260.7 0 268.6 7.9 268.6 17.7C268.6 27.5 260.7 35.4 250.9 35.4Z" fill="url(#paint1_linear_4423_59)"/>
<path fill-rule="evenodd" clip-rule="evenodd" d="M401.8 427.5C394.9 420.5 395 409.3 401.9 402.4C441.2 363.5 465.4 309.6 465.4 250C465.4 190.4 441.1 136.5 401.9 97.5999C394.9 90.6999 394.9 79.4999 401.8 72.4999C408.7 65.4999 419.9 65.4999 426.9 72.3999C472.6 117.7 500.9 180.5 500.9 250C500.9 319.4 472.6 382.3 426.9 427.6C419.9 434.5 408.7 434.4 401.8 427.5Z" fill="url(#paint2_linear_4423_59)"/>
<path d="M1524.69 378.519H1493.69V201.447H1513.53L1518.98 220.791C1528.41 209.135 1544.03 198.719 1567.34 198.719C1602.06 198.719 1626.86 228.479 1626.86 266.175C1626.86 303.623 1602.06 333.631 1567.34 333.631C1546.02 333.631 1531.38 321.975 1524.69 312.799V378.519ZM1559.66 305.359C1580.98 305.359 1595.37 288.495 1595.37 266.175C1595.37 243.607 1580.98 226.991 1559.66 226.991C1539.07 226.991 1524.44 244.103 1524.44 266.175C1524.44 287.999 1539.07 305.359 1559.66 305.359Z" fill="white"/>
<path d="M1329.98 266.175C1329.98 228.231 1358.5 198.719 1397.19 198.719C1435.88 198.719 1464.4 228.231 1464.4 266.175C1464.4 304.119 1435.88 333.631 1397.19 333.631C1358.5 333.631 1329.98 304.119 1329.98 266.175ZM1397.19 305.359C1418.27 305.359 1432.9 288.495 1432.9 266.175C1432.9 243.607 1418.27 226.991 1397.19 226.991C1376.11 226.991 1361.23 243.607 1361.23 266.175C1361.23 288.495 1376.11 305.359 1397.19 305.359Z" fill="white"/>
<path d="M1300.66 330.903H1269.66V144.159H1300.66V330.903Z" fill="white"/>
<path d="M1240.19 278.079H1145.46C1149.18 296.431 1162.32 306.599 1181.66 306.599C1195.8 306.599 1204.23 303.871 1217.87 294.447L1232.26 315.279C1216.38 328.423 1201.75 333.631 1180.67 333.631C1141.49 333.631 1113.71 304.119 1113.71 266.175C1113.71 228.231 1142.73 198.719 1179.43 198.719C1219.36 198.719 1240.19 229.719 1240.19 266.671V278.079ZM1145.21 255.759H1209.69C1208.2 240.135 1199.02 225.255 1179.68 225.255C1162.07 225.255 1148.68 236.167 1145.21 255.759Z" fill="white"/>
<path d="M1051.99 330.903H1021.24L969.406 201.447H1001.89L1036.37 291.471H1036.86L1071.33 201.447H1103.57L1051.99 330.903Z" fill="white"/>
<path d="M867.391 330.903H836.391V201.447H856.479L862.431 222.527C867.887 212.855 882.519 198.719 903.351 198.719C930.631 198.719 950.967 212.855 950.967 255.015V330.903H920.215V259.231C920.215 236.911 909.799 227.487 894.423 227.487C878.303 227.487 867.391 240.383 867.391 260.719V330.903Z" fill="white"/>
<path d="M802.272 330.903H678.272V157.303H801.032V185.823H710.016V229.223H796.568V257.743H710.016V302.383H802.272V330.903Z" fill="white"/>
<defs>
<linearGradient id="paint0_linear_4423_59" x1="250.894" y1="423.356" x2="250.894" y2="76.6434" gradientUnits="userSpaceOnUse">
<stop stop-color="#4AFEBF"/>
<stop offset="1" stop-color="#51EEDA"/>
</linearGradient>
<linearGradient id="paint1_linear_4423_59" x1="134.755" y1="0" x2="134.755" y2="500" gradientUnits="userSpaceOnUse">
<stop stop-color="#4AFEBF"/>
<stop offset="1" stop-color="#51EEDA"/>
</linearGradient>
<linearGradient id="paint2_linear_4423_59" x1="448.776" y1="432.723" x2="448.776" y2="67.2794" gradientUnits="userSpaceOnUse">
<stop stop-color="#4AFEBF"/>
<stop offset="1" stop-color="#51EEDA"/>
</linearGradient>
</defs>
</svg>
