<svg width="31" height="31" viewBox="0 0 31 31" fill="none" xmlns="http://www.w3.org/2000/svg">
<path d="M9.10285 12.0123C8.77737 11.7551 8.72201 11.2827 8.97917 10.9573L10.2524 9.34575C10.5096 9.02033 10.9819 8.96491 11.3074 9.22207C11.6328 9.47923 11.6882 9.95153 11.431 10.277L10.1578 11.8885C9.90064 12.214 9.42834 12.2694 9.10285 12.0123Z" fill="#4AFEBF"/>
<path d="M17.6474 14.8239C17.6474 16.1898 16.5401 17.2971 15.1743 17.2971C13.8084 17.2971 12.7012 16.1898 12.7012 14.8239C12.7012 13.4581 13.8084 12.3508 15.1743 12.3508C16.5401 12.3508 17.6474 13.4581 17.6474 14.8239Z" fill="#51EEDA"/>
<path fill-rule="evenodd" clip-rule="evenodd" d="M16.8142 24.939C15.9551 25.9501 14.3944 25.9501 13.5353 24.939L6.4221 16.5678C5.73951 15.7645 5.73951 14.5849 6.4221 13.7816L7.13373 12.9441C7.51837 12.4915 8.19727 12.4362 8.64996 12.821C9.10273 13.2057 9.15787 13.8845 8.77315 14.3373L8.06154 15.1747L15.1748 23.5459L17.2361 21.12C17.6208 20.6673 18.2996 20.6121 18.7524 20.9968C19.2051 21.3815 19.2602 22.0603 18.8756 22.5131L16.8142 24.939ZM21.2612 18.0443C20.8085 17.6596 20.7533 16.9808 21.138 16.528L22.288 15.1747L15.1748 6.80349L13.6766 8.56657C13.292 9.01926 12.6131 9.07447 12.1604 8.68975C11.7077 8.30504 11.6525 7.62621 12.0372 7.17345L13.5353 5.41041C14.3944 4.39933 15.9551 4.39933 16.8142 5.41041L23.9274 13.7816C24.61 14.5849 24.61 15.7645 23.9274 16.5678L22.7775 17.9212C22.3928 18.3738 21.7139 18.429 21.2612 18.0443Z" fill="url(#paint0_linear_1_7891)"/>
<path fill-rule="evenodd" clip-rule="evenodd" d="M15.1749 2.1514C7.98219 2.1514 2.1514 7.98219 2.1514 15.1749C2.1514 22.3674 7.98219 28.1982 15.1749 28.1982C15.7689 28.1982 16.2505 28.6798 16.2505 29.274C16.2505 29.868 15.7689 30.3496 15.1749 30.3496C6.794 30.3496 0 23.5557 0 15.1749C0 6.79399 6.794 0 15.1749 0C15.7689 0 16.2505 0.481605 16.2505 1.07569C16.2505 1.66979 15.7689 2.1514 15.1749 2.1514Z" fill="url(#paint1_linear_1_7891)"/>
<path fill-rule="evenodd" clip-rule="evenodd" d="M24.334 25.9474C23.9159 25.5254 23.919 24.8443 24.341 24.4261C26.724 22.0649 28.198 18.793 28.198 15.1749C28.198 11.5567 26.724 8.28477 24.341 5.92354C23.919 5.50538 23.9159 4.8243 24.334 4.4023C24.7522 3.98029 25.4333 3.97717 25.8553 4.39533C28.6293 7.14401 30.3494 10.9595 30.3494 15.1749C30.3494 19.3901 28.6293 23.2056 25.8553 25.9544C25.4333 26.3725 24.7522 26.3694 24.334 25.9474Z" fill="url(#paint2_linear_1_7891)"/>
<path d="M21.5754 28.2028C21.5754 28.8414 21.0577 29.3591 20.419 29.3591C19.7804 29.3591 19.2627 28.8414 19.2627 28.2028C19.2627 27.5641 19.7804 27.0464 20.419 27.0464C21.0577 27.0464 21.5754 27.5641 21.5754 28.2028Z" fill="#4AFEBF"/>
<defs>
<linearGradient id="paint0_linear_1_7891" x1="15.1748" y1="25.6973" x2="15.1748" y2="4.6521" gradientUnits="userSpaceOnUse">
<stop stop-color="#4AFEBF"/>
<stop offset="1" stop-color="#51EEDA"/>
</linearGradient>
<linearGradient id="paint1_linear_1_7891" x1="8.12526" y1="0" x2="8.12526" y2="30.3496" gradientUnits="userSpaceOnUse">
<stop stop-color="#4AFEBF"/>
<stop offset="1" stop-color="#51EEDA"/>
</linearGradient>
<linearGradient id="paint2_linear_1_7891" x1="27.1859" y1="26.266" x2="27.1859" y2="4.08374" gradientUnits="userSpaceOnUse">
<stop stop-color="#4AFEBF"/>
<stop offset="1" stop-color="#51EEDA"/>
</linearGradient>
</defs>
</svg>
