<svg width="171" height="136" viewBox="0 0 171 136" fill="none" xmlns="http://www.w3.org/2000/svg">
<path d="M4.52002 53.2V72.8C4.52002 74.06 5.18002 75.2 6.28002 75.84L23.26 85.64C24.34 86.26 25.68 86.26 26.76 85.64L43.74 75.84C44.82 75.22 45.5 74.06 45.5 72.8V53.2C45.5 51.94 44.84 50.8 43.74 50.16L26.76 40.36C25.68 39.74 24.34 39.74 23.26 40.36L6.28002 50.16C5.20002 50.78 4.54002 51.94 4.54002 53.2H4.52002Z" fill="#213147"/>
<path d="M28.7 66.8L26.28 73.44C26.22 73.62 26.22 73.82 26.28 74.02L30.44 85.44L35.26 82.66L29.48 66.8C29.34 66.44 28.84 66.44 28.7 66.8Z" fill="#12AAFF"/>
<path d="M33.5601 55.64C33.4201 55.28 32.9201 55.28 32.7801 55.64L30.3601 62.28C30.3001 62.46 30.3001 62.66 30.3601 62.86L37.1801 81.56L42.0001 78.78L33.5601 55.66V55.64Z" fill="#12AAFF"/>
<path d="M25 41.1C25.12 41.1 25.24 41.14 25.34 41.2L43.7 51.8C43.92 51.92 44.04 52.16 44.04 52.4V73.6C44.04 73.84 43.9 74.08 43.7 74.2L25.34 84.8C25.24 84.86 25.12 84.9 25 84.9C24.88 84.9 24.76 84.86 24.66 84.8L6.30003 74.2C6.08003 74.08 5.96003 73.84 5.96003 73.6V52.38C5.96003 52.14 6.10003 51.9 6.30003 51.78L24.66 41.18C24.76 41.12 24.88 41.08 25 41.08V41.1ZM25 38C24.34 38 23.7 38.16 23.1 38.5L4.74003 49.1C3.56003 49.78 2.84003 51.02 2.84003 52.38V73.58C2.84003 74.94 3.56003 76.18 4.74003 76.86L23.1 87.46C23.68 87.8 24.34 87.96 25 87.96C25.66 87.96 26.3 87.8 26.9 87.46L45.26 76.86C46.44 76.18 47.16 74.94 47.16 73.58V52.38C47.16 51.02 46.44 49.78 45.26 49.1L26.88 38.5C26.3 38.16 25.64 38 24.98 38H25Z" fill="#9DCCED"/>
<path d="M12.84 81.58L14.54 76.94L17.94 79.76L14.76 82.68L12.84 81.58Z" fill="#213147"/>
<path d="M23.44 50.88H18.78C18.44 50.88 18.12 51.1 18 51.42L8.02002 78.78L12.84 81.56L23.84 51.42C23.94 51.14 23.74 50.86 23.46 50.86L23.44 50.88Z" fill="white"/>
<path d="M31.6 50.88H26.94C26.6 50.88 26.28 51.1 26.16 51.42L14.76 82.66L19.58 85.44L31.98 51.42C32.08 51.14 31.88 50.86 31.6 50.86V50.88Z" fill="white"/>
<g clip-path="url(#clip0_302_4322)">
<path d="M158.76 52.2239C157.849 51.6269 156.677 51.6269 155.635 52.2239L148.344 57.1493L143.396 60.2836L136.234 65.209C135.323 65.806 134.151 65.806 133.109 65.209L127.51 61.3284C126.599 60.7313 125.948 59.5373 125.948 58.194V50.7313C125.948 49.5373 126.469 48.3433 127.51 47.597L133.109 43.8657C134.021 43.2687 135.193 43.2687 136.234 43.8657L141.833 47.7463C142.745 48.3433 143.396 49.5373 143.396 50.8806V55.806L148.344 52.5224V47.4478C148.344 46.2537 147.823 45.0597 146.781 44.3134L136.365 37.2985C135.453 36.7015 134.281 36.7015 133.24 37.2985L122.562 44.4627C121.521 45.0597 121 46.2537 121 47.4478V61.4776C121 62.6716 121.521 63.8657 122.562 64.6119L133.109 71.6269C134.021 72.2239 135.193 72.2239 136.234 71.6269L143.396 66.8507L148.344 63.5672L155.505 58.791C156.417 58.194 157.589 58.194 158.63 58.791L164.229 62.5224C165.141 63.1194 165.792 64.3134 165.792 65.6567V73.1194C165.792 74.3134 165.271 75.5075 164.229 76.2537L158.76 79.9851C157.849 80.5821 156.677 80.5821 155.635 79.9851L150.036 76.2537C149.125 75.6567 148.474 74.4627 148.474 73.1194V68.3433L143.526 71.6269V76.5522C143.526 77.7463 144.047 78.9403 145.089 79.6866L155.635 86.7015C156.547 87.2985 157.719 87.2985 158.76 86.7015L169.307 79.6866C170.219 79.0896 170.87 77.8955 170.87 76.5522V62.3731C170.87 61.1791 170.349 59.9851 169.307 59.2388L158.76 52.2239Z" fill="#8247E5"/>
</g>
<path fill-rule="evenodd" clip-rule="evenodd" d="M86 86C99.8081 86 111 97.1919 111 111C111 124.808 99.8081 136 86 136C72.1919 136 61 124.808 61 111C61 97.1919 72.1919 86 86 86Z" fill="#F0B90B"/>
<path d="M74.74 111L74.758 117.611L80.375 120.916V124.786L71.4708 119.564V109.067L74.74 111ZM74.74 104.389V108.242L71.4688 106.306V102.454L74.74 100.519L78.0272 102.454L74.74 104.389ZM82.7208 102.454L85.992 100.519L89.2792 102.454L85.992 104.389L82.7208 102.454Z" fill="white"/>
<path d="M77.1038 116.24V112.37L80.375 114.305V118.157L77.1038 116.24ZM82.7207 122.302L85.992 124.237L89.2792 122.302V126.154L85.992 128.089L82.7207 126.154V122.302ZM93.9707 102.454L97.242 100.519L100.529 102.454V106.306L97.242 108.242V104.389L93.9707 102.454ZM97.242 117.611L97.26 111L100.531 109.065V119.562L91.627 124.784V120.914L97.242 117.611Z" fill="white"/>
<path d="M94.8962 116.24L91.625 118.157V114.305L94.8962 112.37V116.24Z" fill="white"/>
<path d="M94.8962 105.76L94.9143 109.63L89.2812 112.935V119.562L86.01 121.479L82.7388 119.562V112.935L77.1058 109.63V105.76L80.391 103.825L85.99 107.146L91.623 103.825L94.9102 105.76H94.8962ZM77.1038 99.151L85.992 93.9107L94.8962 99.151L91.625 101.086L85.992 97.7648L80.375 101.086L77.1038 99.151Z" fill="white"/>
<g clip-path="url(#clip1_302_4322)">
<path d="M85.5943 0L85.166 1.45507V43.674L85.5943 44.1014L105.188 32.5173L85.5943 0Z" fill="#343434"/>
<path d="M85.5943 0L66 32.5173L85.5943 44.1014V23.6095V0Z" fill="#8C8C8C"/>
<path d="M85.5942 47.8118L85.3528 48.1062V63.1452L85.5942 63.85L105.2 36.2337L85.5942 47.8118Z" fill="#3C3C3B"/>
<path d="M85.5943 63.85V47.8118L66 36.2337L85.5943 63.85Z" fill="#8C8C8C"/>
<path d="M85.5942 44.1014L105.188 32.5173L85.5942 23.6095V44.1014Z" fill="#141414"/>
<path d="M66 32.5173L85.5943 44.1014V23.6095L66 32.5173Z" fill="#393939"/>
</g>
<defs>
<clipPath id="clip0_302_4322">
<rect width="50" height="50" fill="white" transform="translate(121 37)"/>
</clipPath>
<clipPath id="clip1_302_4322">
<rect width="39.2" height="63.85" fill="white" transform="translate(66)"/>
</clipPath>
</defs>
</svg>
