<svg width="38" height="39" viewBox="0 0 38 39" fill="none" xmlns="http://www.w3.org/2000/svg">
<circle cx="19" cy="19.25" r="19" fill="#4AFEBF"/>
<path d="M19.0001 23.001C21.0758 23.001 22.7388 21.3255 22.7388 19.2498L22.7513 11.7473C22.7513 9.67164 21.0758 7.99609 19.0001 7.99609C16.9244 7.99609 15.2488 9.67164 15.2488 11.7473V19.2498C15.2488 21.3255 16.9244 23.001 19.0001 23.001ZM25.6273 19.2498C25.6273 23.001 22.4512 25.6269 19.0001 25.6269C15.5489 25.6269 12.3729 23.001 12.3729 19.2498H10.2472C10.2472 23.5262 13.6483 27.0399 17.7497 27.6526V31.7539H20.2505V27.6526C24.3518 27.0524 27.753 23.5262 27.753 19.2498H25.6273Z" fill="#1E2121"/>
</svg>
