<svg width="41" height="24" viewBox="0 0 41 24" fill="none" xmlns="http://www.w3.org/2000/svg"><rect width="41" height="24" rx="4" fill="#D84747"/><path d="M8.97 17h-1.8V7.2h3.74c1.64 0 3.48.91 3.48 3.18s-1.84 3.2-3.48 3.2H8.97V17Zm0-8.19v3.16h1.78c1.37 0 1.83-.72 1.83-1.6 0-.85-.46-1.56-1.83-1.56H8.97ZM19.94 17H16.1V7.2h3.84a4.78 4.78 0 0 1 4.96 4.9c0 2.86-2.13 4.9-4.96 4.9ZM17.9 8.81v6.58h2.04c1.96 0 3.15-1.46 3.15-3.29s-1.19-3.29-3.15-3.29H17.9ZM28.45 17h-1.8V7.2h6.92v1.58l-5.12-.01v2.5h5v1.59h-5V17Z" fill="#fff"/></svg>