<svg width="165" height="101" viewBox="0 0 165 101" fill="none" xmlns="http://www.w3.org/2000/svg">
<g clip-path="url(#clip0_1814_4604)">
<path d="M33.7912 19.7939C60.6923 -6.35042 104.308 -6.35042 131.209 19.7939L134.447 22.9404C135.792 24.2477 135.792 26.3671 134.447 27.6743L123.371 38.4379C122.699 39.0915 121.608 39.0915 120.936 38.4379L116.481 34.1079C97.7137 15.869 67.2864 15.869 48.5195 34.1079L43.7482 38.745C43.0757 39.3986 41.9853 39.3986 41.3128 38.745L30.2376 27.9814C28.8925 26.6742 28.8925 24.5547 30.2376 23.2475L33.7912 19.7939ZM154.113 42.0542L163.97 51.6339C165.315 52.9411 165.315 55.0605 163.97 56.3677L119.525 99.5636C118.18 100.871 115.999 100.871 114.654 99.5636C114.654 99.5636 114.654 99.5636 114.654 99.5636L83.1091 68.9062C82.7729 68.5794 82.2277 68.5794 81.8914 68.9062C81.8914 68.9062 81.8914 68.9062 81.8914 68.9062L50.3473 99.5636C49.0022 100.871 46.8215 100.871 45.4764 99.5636C45.4764 99.5636 45.4764 99.5636 45.4764 99.5636L1.02955 56.3671C-0.315513 55.0599 -0.315513 52.9405 1.02955 51.6333L10.8865 42.0536C12.2316 40.7464 14.4123 40.7464 15.7574 42.0536L47.3026 72.7114C47.6389 73.0382 48.1841 73.0382 48.5203 72.7114C48.5204 72.7114 48.5204 72.7114 48.5204 72.7114L80.064 42.0536C81.409 40.7464 83.5898 40.7463 84.9349 42.0535C84.9349 42.0536 84.9349 42.0536 84.935 42.0536L116.48 72.7114C116.816 73.0382 117.362 73.0382 117.698 72.7114L149.243 42.0542C150.588 40.747 152.768 40.747 154.113 42.0542Z" fill="white"/>
</g>
<defs>
<clipPath id="clip0_1814_4604">
<rect width="165" height="101" fill="white"/>
</clipPath>
</defs>
</svg>
