<svg width="32" height="32" viewBox="0 0 32 32" fill="none" xmlns="http://www.w3.org/2000/svg">
<path fill-rule="evenodd" clip-rule="evenodd" d="M16 32C24.8365 32 32 24.8365 32 16C32 7.16345 24.8365 0 16 0C7.16345 0 0 7.16345 0 16C0 24.8365 7.16345 32 16 32ZM28.991 15.955V16.0054C29.0943 17.9969 28.3011 19.6509 26.8243 20.5953C26.2618 20.9574 25.6102 21.1625 24.9387 21.189C24.2673 21.2155 23.6011 21.0623 23.011 20.7457C21.7325 20.0407 20.9905 18.5786 20.9905 16.7644V14.293C20.9222 14.3761 20.8583 14.4626 20.7996 14.5524C20.7686 14.5998 20.739 14.6481 20.7109 14.6972L17.6651 19.5698C16.6169 21.2076 15.6492 21.3354 15.004 21.1589C14.3589 20.9825 13.5912 20.3513 13.5912 18.412V14.3533L8.03973 23.1244C8.97296 24.1735 10.1117 25.0259 11.3876 25.6306C12.6636 26.2353 14.0504 26.5797 15.4647 26.6432C16.8791 26.7067 18.2919 26.4879 19.6183 26.0001C20.9448 25.5122 22.1575 24.7653 23.1837 23.8041L23.2093 23.7789C23.4435 23.5681 23.7532 23.4575 24.0701 23.4716C24.3871 23.4857 24.6854 23.6234 24.8994 23.8541C25.1134 24.0849 25.2256 24.39 25.2112 24.7023C25.197 25.0145 25.0573 25.3084 24.8231 25.5193C22.4448 27.7555 19.283 29.0022 15.9955 29C8.83112 29 3 23.1901 3 16.0054C3 8.82159 8.8576 3 15.9955 3C23.1334 3 28.9655 8.82159 28.991 15.955ZM24.921 18.7973C25.1694 18.7797 25.4084 18.697 25.6135 18.5579L25.6144 18.5507C26.33 18.0987 26.6992 17.1893 26.6379 16.0567V16.0054C26.6379 10.1325 21.855 5.36877 15.9955 5.36877C10.136 5.36877 5.35309 10.1325 5.35309 16.0054C5.3559 17.7444 5.78571 19.457 6.60596 20.9969L12.7715 11.2687C13.5126 10.1595 14.2803 10.0829 14.792 10.2333C15.5596 10.4611 15.9699 11.1922 15.9955 12.4266V17.7944L18.7507 13.4349C19.1866 12.7291 20.3618 10.8284 21.9235 11.293C22.8438 11.5433 23.381 12.5274 23.381 13.8869V16.7437C23.381 17.6765 23.689 18.3562 24.2007 18.6578C24.424 18.7667 24.6725 18.8148 24.921 18.7973Z" fill="#4AFEBF"/>
</svg>
