<svg width="32" height="32" viewBox="0 0 32 32" fill="none" xmlns="http://www.w3.org/2000/svg">
<path fill-rule="evenodd" clip-rule="evenodd" d="M32 16C32 24.8365 24.8365 32 16 32C7.16345 32 0 24.8365 0 16C0 7.16345 7.16345 0 16 0C24.8365 0 32 7.16345 32 16ZM15.9182 2.97595C8.73688 3.00964 2.94464 8.8548 2.97595 16.0337C3.00964 23.2126 8.8548 29.0072 16.0337 28.976C23.2126 28.9422 29.0072 23.097 28.976 15.9182C28.9422 8.73688 23.097 2.94464 15.9182 2.97595ZM14.2715 15.338C12.9883 15.338 11.9459 14.298 11.9459 13.0148C11.9459 11.7317 12.9859 10.6917 14.2715 10.6917C15.5546 10.6917 16.5946 11.7317 16.5946 13.0148C16.5946 14.298 15.5546 15.338 14.2715 15.338ZM16.1252 17.8513L16.1372 17.8369L16.1492 17.8224C16.8137 18.2509 17.5696 18.4002 18.3256 18.4243C19.0839 18.4435 19.8542 18.3881 20.615 18.2341C21.3734 18.0776 22.1196 17.8441 22.8394 17.5455C23.2439 17.3795 23.6459 17.1965 24.0287 16.9822C24.0311 16.9798 24.0335 16.9798 24.0359 16.9774C24.2742 16.8329 24.5078 16.6837 24.7365 16.5272C24.787 16.4911 24.8352 16.455 24.8809 16.4165L24.8857 16.4237L24.905 16.4478C24.32 16.9798 23.6243 17.3746 22.9165 17.7237C22.2015 18.0607 21.4552 18.3376 20.6848 18.5374C19.9169 18.7348 19.1152 18.8865 18.3039 18.8118C17.5046 18.7372 16.662 18.4579 16.1252 17.8513ZM22.0908 15.338C22.0908 15.0587 22.3146 14.8348 22.5915 14.8324C22.8707 14.8324 23.0946 15.0563 23.097 15.3331C23.097 15.61 22.8732 15.8387 22.5963 15.8387C22.3195 15.8411 22.0908 15.6172 22.0908 15.338ZM18.1089 27.8083C17.6057 24.2887 20.6776 20.8437 22.4109 19.0815C22.5782 18.9111 22.7849 18.7132 23.0107 18.4969C23.3148 18.2057 23.6536 17.8812 23.9781 17.5455C26.2267 15.4439 26.6744 12.9305 22.0715 11.6739C21.213 11.4249 20.3218 11.0731 19.421 10.7174L19.38 10.7013C19.3511 10.6171 19.3174 10.5376 19.2813 10.463C19.1754 10.2824 18.9924 10.0729 18.7131 9.83704C18.1137 9.31702 16.9919 9.33148 16.0217 9.56018C14.9479 9.30743 13.8911 9.21832 12.8728 9.46149C8.42151 10.6868 7.70648 12.8583 7.53314 15.4752L7.50446 15.82C7.28442 18.4751 7.11597 20.5069 6.08868 22.8154C4.75256 20.887 3.96539 18.5519 3.95575 16.0289C3.92688 9.39166 9.28333 3.98462 15.923 3.95575C22.5626 3.92688 27.9672 9.28333 27.9985 15.923C28.0226 21.8524 23.7518 26.7996 18.1089 27.8083ZM14.2715 14.6711C15.1743 14.6711 15.9061 13.9393 15.9061 13.0365C15.9061 12.1337 15.1743 11.4019 14.2715 11.4019C13.3687 11.4019 12.6368 12.1337 12.6368 13.0365C12.6368 13.9393 13.3687 14.6711 14.2715 14.6711Z" fill="#4AFEBF"/>
</svg>
