<svg width="31" height="31" fill="none" xmlns="http://www.w3.org/2000/svg"><path fill-rule="evenodd" clip-rule="evenodd" d="M30.38 15.19a15.2 15.2 0 1 1-30.38 0 15.2 15.2 0 0 1 30.38 0ZM7.24 20.77l3.1 1.16 1.2 3.85c.07.25.37.34.57.18l1.73-1.41a.52.52 0 0 1 .63-.02l3.11 2.26c.22.16.52.04.57-.22l2.29-10.97a.37.37 0 0 0-.5-.42l-12.7 4.9a.37.37 0 0 0 0 .69Zm4.1.54 6.05-3.73c.11-.07.23.08.13.17l-5 4.64c-.17.17-.28.38-.32.62l-.17 1.26c-.02.17-.25.19-.3.03l-.66-2.3a.6.6 0 0 1 .27-.69ZM5 13h2.47c.6 0 1.14-.13 1.62-.4.49-.27.87-.64 1.15-1.12.27-.49.41-1.03.41-1.63 0-.6-.14-1.15-.41-1.63A2.9 2.9 0 0 0 9.09 7.1a3.28 3.28 0 0 0-1.62-.4H5V13Zm1.15-1.04V7.74h1.32c.4 0 .77.1 1.08.28.3.19.54.44.7.76.16.32.24.67.24 1.07s-.08.75-.24 1.07c-.16.32-.4.57-.7.76-.31.19-.67.28-1.08.28H6.15Zm6.4-.88h3.43v-.4c0-.28-.03-.54-.09-.78a2.37 2.37 0 0 0-.71-1.22 1.87 1.87 0 0 0-.62-.35 2.3 2.3 0 0 0-.78-.13c-.44 0-.84.11-1.2.33-.37.21-.66.5-.87.88-.21.37-.32.79-.32 1.24 0 .45.1.87.31 1.24.2.37.5.67.87.89.37.21.79.32 1.25.32a3 3 0 0 0 1-.15c.3-.1.59-.28.87-.52l-.52-.75a2.11 2.11 0 0 1-1.31.44c-.35 0-.64-.1-.87-.27a1.25 1.25 0 0 1-.45-.77Zm2.32-.8h-2.34c.07-.36.2-.63.43-.82.23-.2.5-.3.83-.3.33 0 .58.11.76.32.19.22.3.48.32.8ZM18.45 13h1.16l1.43-4.63L22.5 13h1.16l2.08-6.3h-1.18l-1.46 4.5-1.46-4.5h-1.16l-1.46 4.5-1.46-4.5h-1.18l2.08 6.3Z" fill="#4AFEBF"/></svg>