<svg width="468" height="1324" fill="none" xmlns="http://www.w3.org/2000/svg"><g opacity=".2"><path d="M154.642 381.511a158.883 158.883 0 0 1 7.89 8.49c36.855 42.648 54.334 104.872 47.842 170.892-5.194 54.334-25.469 110.366-61.725 171.392-9.788 16.38-20.575 32.96-30.962 49.14-36.856 56.831-75.11 115.66-79.903 182.778-1.299 18.278-.1 37.057 1.098 55.037 1.798 27.76 3.696 56.43-3.595 83.69-8.29 31.47-29.464 59.63-59.328 79.31-28.965 18.97-63.023 28.26-95.983 26.27-61.426-3.9-122.052-42.95-162.004-104.48-4.694-7.09-9.088-14.68-13.283-21.87-14.283-24.07-29.065-49.04-52.237-63.82-20.775-13.19-46.044-16.88-70.414-20.278-11.586-1.598-23.672-3.296-35.158-5.993-36.655-8.689-70.913-29.165-98.979-59.228-27.167-29.165-46.544-65.121-56.232-103.974-18.378-73.71-4.095-158.307 39.252-232.217 12.885-21.874 28.166-42.748 42.748-62.924 14.483-19.876 29.465-40.451 42.249-62.024 21.274-36.256 43.747-90.49 29.564-143.226-1.698-6.293-3.995-12.585-6.192-18.778-4.795-13.583-9.888-27.666-9.189-42.548.899-23.072 16.48-46.443 39.651-59.228 18.378-10.188 41.25-14.882 70.115-14.382 36.855.699 74.41 9.488 108.568 25.269 34.259 15.881 65.321 38.953 89.691 66.719 5.394 6.192 10.587 12.585 15.581 18.777 9.089 11.286 18.478 22.872 29.265 32.86 19.077 17.679 40.45 26.668 59.927 25.369 13.683-.899 26.767-6.791 39.452-12.485 5.893-2.696 11.985-5.393 18.178-7.59 50.838-18.478 112.663-2.397 154.113 39.052Zm-400.314 763.069c36.156 36.16 80.702 58.13 125.747 61.03 68.917 4.39 135.935-41.05 152.315-103.37 7.092-26.87 5.294-55.44 3.496-82.8-1.199-18.18-2.397-36.959-1.099-55.437 4.894-67.817 43.248-126.946 80.403-184.076 10.387-15.981 21.174-32.56 30.962-48.941 36.056-60.626 56.132-116.258 61.325-170.193 6.293-65.22-10.886-126.746-47.242-168.695a154.632 154.632 0 0 0-7.791-8.389c-40.75-40.751-101.277-56.532-151.116-38.254-5.993 2.197-12.085 4.894-17.978 7.591-12.984 5.793-26.168 11.786-40.451 12.684-20.375 1.399-42.349-7.79-62.025-26.068-10.886-10.088-20.375-21.773-29.464-33.06-4.994-6.192-10.187-12.584-15.581-18.777-49.04-55.632-122.451-89.691-196.261-91.189-28.266-.5-50.839 4.095-68.717 13.983-22.273 12.485-37.354 34.758-38.153 56.931-.5 14.282 4.394 28.165 9.089 41.449 2.197 6.193 4.394 12.585 6.192 18.977 14.482 53.635-8.19 108.668-29.864 145.324-12.684 21.673-27.866 42.248-42.448 62.224-14.682 20.076-29.864 40.85-42.648 62.624-42.848 73.211-57.131 157.009-38.853 230.02 19.776 79.504 81.301 144.225 153.114 161.104 11.286 2.697 23.272 4.295 34.758 5.993 24.67 3.496 50.239 7.095 71.613 20.675 23.771 15.18 38.753 40.35 53.135 64.72 4.295 7.29 8.689 14.68 13.384 21.77 10.287 15.49 21.673 29.67 34.158 42.15Z" fill="url(#a)"/><path d="M145.753 399.19a182.463 182.463 0 0 1 8.49 9.089c35.756 41.949 52.736 102.675 46.543 166.597-5.094 53.036-24.97 107.669-60.626 166.898-9.489 15.68-19.676 31.461-29.564 46.743-35.957 55.332-73.111 112.463-79.204 177.684-1.598 17.379-1.099 35.059-.6 52.139.8 26.37 1.699 53.83-5.692 79.8-17.28 61.23-83.699 105.47-151.117 100.98-59.627-4.1-118.755-42.05-157.908-101.78-4.494-6.89-8.989-14.18-13.284-21.27-14.082-23.27-28.665-47.45-51.437-61.43-20.475-12.68-45.245-16.478-69.216-20.074-11.985-1.798-24.37-3.795-36.156-6.792-35.856-9.088-69.316-29.564-96.383-59.228-26.368-28.765-45.145-64.122-54.334-102.275-17.479-72.412-3.096-155.511 39.552-227.923 12.585-21.174 27.367-41.35 41.55-60.926 14.981-20.575 30.562-41.949 43.547-64.322 20.275-35.257 41.849-88.393 28.964-141.428-1.398-5.394-2.896-10.687-4.394-15.981-4.395-15.381-8.69-29.863-7.191-45.145 2.197-22.173 18.177-43.147 41.449-54.833 18.278-9.089 40.151-12.984 68.916-11.986 69.116 2.198 136.135 31.662 185.675 81.202 2.796 2.796 5.593 5.793 8.29 8.689 6.991 7.591 13.583 15.781 20.075 23.671 8.39 10.188 16.98 20.775 26.168 29.964 13.484 13.484 34.06 29.464 56.732 28.965 12.984-.2 25.269-5.494 37.154-10.587 5.294-2.298 10.887-4.695 16.58-6.592 26.268-9.089 55.333-8.79 83.998.499 23.572 8.19 45.645 21.873 63.423 39.652Zm-394.82 737c35.457 35.46 79.104 57.13 123.15 60.23 66.22 4.5 131.34-38.85 148.22-98.88 7.191-25.57 6.392-51.54 5.593-78.9-.599-17.18-.998-34.961.6-52.539 6.092-65.82 43.447-123.35 79.603-178.883 9.888-15.281 20.175-30.962 29.564-46.743 35.457-58.828 55.133-113.063 60.327-165.798 6.092-63.224-10.687-123.151-45.945-164.6-38.952-45.745-101.876-65.521-152.814-47.942-5.493 1.898-10.986 4.195-16.28 6.492-12.185 5.194-24.77 10.587-38.254 10.887-23.67.499-44.945-15.981-58.728-29.764-9.389-9.389-17.978-19.976-26.368-30.163-6.492-7.891-13.084-16.081-19.976-23.572-49.739-54.334-119.655-86.694-192.066-88.992-28.366-.998-49.94 2.797-67.618 11.686-22.473 11.286-37.854 31.462-40.052 52.636-1.498 14.682 2.597 28.965 7.092 44.047 1.498 5.293 3.096 10.687 4.494 16.08 13.184 53.935-8.689 107.769-29.164 143.426-12.984 22.572-28.565 43.946-43.747 64.521-14.283 19.477-28.965 39.552-41.45 60.627-42.348 71.912-56.631 154.112-39.352 225.925 19.077 78.804 77.406 141.328 148.819 159.406l-.299 1.299.299-1.299c11.686 2.897 23.971 4.795 35.857 6.692 24.27 3.696 49.24 7.491 70.214 20.471 23.372 14.39 38.154 38.76 52.337 62.33 4.195 6.99 8.689 14.28 13.184 21.17 9.788 14.78 20.874 28.27 32.76 40.15Z" fill="url(#b)"/><path d="M136.264 416.269c3.296 3.296 6.592 6.792 9.588 10.387 34.758 41.35 51.138 100.478 45.145 162.403-5.094 51.837-24.57 104.873-59.627 162.503-9.089 14.882-18.678 29.863-28.166 44.346-35.057 53.834-71.213 109.567-78.505 172.79-1.897 16.48-2.097 33.062-2.097 49.042-.3 26.47-.5 51.44-7.89 76.21-8.79 29.16-28.965 54.93-56.831 72.81-27.267 17.48-59.228 25.87-90.091 23.57-57.53-4.2-115.16-41.25-153.913-98.98-4.395-6.59-8.589-13.39-12.684-20.08-13.983-22.77-28.466-46.24-51.138-59.52-20.176-11.99-44.346-15.985-67.818-19.88-12.485-2.098-25.369-4.195-37.454-7.491-70.714-19.177-128.045-81.901-146.322-159.706-16.68-71.413-2.098-152.914 39.951-223.728 12.285-20.675 26.767-40.351 40.651-59.428 15.481-21.075 31.461-43.048 44.545-66.12 27.267-48.441 37.455-97.981 28.366-139.63-.799-3.596-1.698-7.291-2.497-10.887-4.095-17.279-7.891-33.659-5.094-50.039 3.496-20.875 20.176-40.151 43.347-50.339 18.078-7.89 39.053-10.887 67.918-9.588 35.956 1.598 72.012 10.088 104.073 24.57 34.159 15.381 63.024 36.655 85.796 63.223 5.094 5.893 10.288 12.085 15.381 18.178 10.588 12.585 21.374 25.569 32.361 37.554 19.277 21.075 37.255 32.061 53.435 32.661 12.185.399 23.172-3.995 34.858-8.69 4.794-1.997 9.788-3.995 14.982-5.593 46.343-15.181 101.077.799 139.73 39.452ZM-252.564 1127.7c34.958 34.96 77.706 56.54 120.554 59.63 63.423 4.7 126.746-36.85 144.125-94.38 7.29-24.27 7.59-49.14 7.79-75.31.1-16.08.3-32.662 2.197-49.342 7.292-63.822 43.747-119.854 79.004-173.888 9.489-14.483 19.077-29.465 28.166-44.347 34.758-57.13 54.134-109.866 59.029-161.304 5.992-61.125-10.288-119.554-44.546-160.405-38.154-45.344-97.082-65.12-146.822-49.34-4.994 1.598-9.988 3.596-14.682 5.494-11.386 4.594-23.172 9.388-35.856 8.889-16.98-.599-35.657-11.886-55.333-33.559-10.987-11.986-21.874-25.07-32.361-37.555-4.994-5.992-10.188-12.185-15.281-18.078-44.247-51.837-112.663-83.498-187.872-86.794-28.465-1.299-48.941 1.598-66.719 9.388-22.373 9.788-38.353 28.366-41.749 48.342-2.697 15.681 1.099 31.861 5.094 48.84.799 3.596 1.698 7.291 2.497 10.887 9.188 42.149-.999 92.488-28.566 141.428-13.084 23.272-29.164 45.145-44.645 66.419-13.884 19.077-28.266 38.653-40.451 59.228-41.849 70.215-56.332 151.017-39.752 221.731 17.778 76.906 74.51 138.831 144.225 157.808 11.985 3.196 24.77 5.394 37.155 7.391 23.671 3.895 48.141 7.99 68.716 20.177 23.172 13.78 37.954 37.55 52.037 60.43 4.095 6.69 8.29 13.48 12.685 19.87a247.045 247.045 0 0 0 31.361 38.35Z" fill="url(#c)"/><path d="M127.175 433.748c3.596 3.595 6.992 7.391 10.288 11.286 33.659 40.651 49.739 98.281 43.846 158.108-4.994 50.139-24.07 101.776-58.628 157.908-8.39 13.584-17.379 27.367-25.969 40.75-34.358 52.736-70.015 107.37-78.504 168.995-2.198 15.381-2.897 30.665-3.696 45.445-1.298 25.47-2.597 49.34-10.188 72.91-9.088 27.87-28.765 52.54-55.532 69.52-26.368 16.78-57.33 24.57-87.094 22.17-55.533-4.39-111.565-40.45-149.918-96.38-4.195-6.2-8.39-12.79-12.285-19.08-13.783-21.97-28.166-44.75-50.539-57.53-19.776-11.186-43.447-15.481-66.219-19.476-12.884-2.297-26.268-4.695-38.753-8.39l.4-1.199-.4 1.199c-69.216-20.076-125.048-82.1-142.227-158.008-15.881-70.215-1.199-150.217 40.451-219.433 12.085-20.076 26.068-39.253 39.651-57.83 15.881-21.674 32.361-44.146 45.545-68.117 25.969-46.943 35.857-95.984 27.766-137.833l-.199-1.198c-4.295-22.073-7.891-41.05-3.396-59.328 4.794-19.776 21.773-36.955 45.245-45.844 22.472-8.49 47.442-8.29 66.719-7.192 69.016 4.095 131.24 30.363 173.589 72.712 4.195 4.195 8.09 8.49 11.885 12.884 7.691 9.089 15.781 18.578 23.472 27.667a3165.069 3165.069 0 0 1 25.469 30.063c19.376 22.972 35.756 34.958 50.339 36.356 11.386 1.198 21.673-2.697 32.46-6.692 4.395-1.598 8.79-3.396 13.384-4.594 44.246-12.885 96.083 3.196 133.038 40.151Zm-383.334 685.562c34.358 34.36 76.307 55.74 117.957 59.03 61.625 4.9 121.852-33.76 140.03-89.89 7.59-23.17 8.689-47.04 10.087-72.21.8-14.78 1.498-30.064 3.696-45.645 8.69-62.224 44.346-117.057 78.904-169.993 8.689-13.284 17.678-27.067 26.068-40.651 34.259-55.832 53.335-107.069 58.229-156.909 5.793-59.128-9.987-116.059-43.147-156.21-36.556-44.146-93.187-64.422-140.829-50.539-4.495 1.299-8.89 2.897-13.184 4.595-10.587 3.995-21.574 8.19-33.66 6.891-15.18-1.598-32.16-13.783-52.036-37.254-8.19-9.788-17.079-20.076-25.469-30.064-7.79-9.189-15.781-18.577-23.471-27.666-41.65-49.44-108.668-80.303-183.677-84.797-18.977-1.199-43.647-1.298-65.62 7.091-22.573 8.59-38.853 25.07-43.647 44.047-4.395 17.778-.799 36.555 3.496 58.229l.199 1.199c8.19 42.348-1.698 91.988-28.066 139.53-13.184 23.971-29.763 46.543-45.744 68.317-13.583 18.577-27.567 37.754-39.552 57.53-41.15 68.716-55.832 147.92-40.151 217.536 17.079 75.008 72.012 136.334 140.129 156.11 12.385 3.595 25.669 5.893 38.454 8.29 23.072 4.095 46.943 8.39 67.018 19.873 23.072 13.09 37.555 36.16 51.538 58.33 3.895 6.29 8.09 12.89 12.285 19.08 9.189 13.18 19.276 25.27 30.163 36.15Z" fill="url(#d)"/><path d="M117.986 450.926a164.838 164.838 0 0 1 11.187 12.385c32.66 40.052 48.141 96.084 42.448 153.913-4.794 48.741-23.671 98.98-57.53 153.414-7.79 12.585-16.08 25.269-24.17 37.554-33.66 51.637-68.517 104.873-78.305 164.8-2.297 14.083-3.696 27.668-4.994 40.948-2.397 24.57-4.694 47.84-12.585 70.52-19.077 54.83-78.704 92.28-138.531 87.19-53.535-4.59-108.169-39.65-145.823-93.69-4.095-5.89-8.09-12.08-11.986-18.17-13.683-21.28-27.966-43.35-50.039-55.44-19.376-10.583-42.348-14.978-64.521-19.173-13.484-2.497-27.367-5.194-40.351-9.189-67.418-20.874-121.353-82.2-137.533-156.31-15.082-69.016-.2-147.421 40.85-215.238 11.786-19.576 25.469-38.254 38.753-56.332 16.38-22.373 33.26-45.444 46.543-69.915 24.67-45.644 34.359-93.886 27.167-136.034-3.995-23.572-5.493-42.848.2-60.327 6.093-18.478 23.671-33.859 46.943-41.35 21.674-6.891 45.245-6.292 65.52-4.794 68.517 4.994 129.343 30.663 169.694 70.814 4.095 4.095 7.891 8.29 11.586 12.585 6.193 7.391 12.685 14.882 18.977 22.173 10.687 12.285 21.674 25.069 31.362 37.554 13.284 17.079 30.663 37.055 47.043 40.051 10.587 1.998 20.075-1.298 30.063-4.694 3.895-1.298 7.89-2.697 11.886-3.695 23.172-5.993 48.64-4.095 73.31 5.593 19.377 7.591 37.455 19.476 52.836 34.857Zm-377.74 659.794c33.759 33.76 74.909 54.94 115.359 58.43 58.729 5 117.158-31.66 135.935-85.59 7.79-22.38 10.088-45.45 12.585-69.92 1.298-13.28 2.697-27.065 4.994-41.148 9.888-60.426 44.845-113.961 78.704-165.798 7.99-12.185 16.28-24.87 24.071-37.454 33.659-54.235 52.336-104.074 57.13-152.415 5.594-57.131-9.688-112.563-41.949-152.016-35.456-43.447-88.392-63.822-134.736-51.836-3.995.998-7.79 2.397-11.685 3.695-9.789 3.396-20.076 6.892-31.263 4.894-17.179-3.196-34.258-22.473-48.64-41.05-9.689-12.485-20.775-25.169-31.362-37.554-6.293-7.291-12.885-14.882-18.977-22.173-39.253-47.043-104.673-77.107-179.482-82.6-20.076-1.498-43.447-2.097-64.622 4.694-22.572 7.192-39.651 22.073-45.345 39.752-5.593 16.979-4.094 35.856-.199 59.128 7.291 42.648-2.497 91.389-27.467 137.533-13.284 24.67-30.263 47.842-46.643 70.215-13.184 17.978-26.868 36.655-38.653 56.031-40.651 67.219-55.433 144.924-40.451 213.441 16.08 73.411 69.416 133.937 135.835 154.612 12.784 3.995 26.568 6.592 40.051 9.089 22.473 4.295 45.645 8.69 65.221 19.48 22.772 12.38 37.155 34.75 50.938 56.33 3.795 5.99 7.791 12.18 11.886 18.08 8.889 12.48 18.477 23.87 28.765 34.15Z" fill="url(#e)"/><path d="M108.698 468.206c4.195 4.195 8.29 8.689 12.085 13.484 31.562 39.352 46.544 93.885 41.15 149.618-4.694 47.442-23.172 96.083-56.531 149.019-7.191 11.386-14.682 22.872-21.973 33.958C50.369 864.724 16.21 917.06 5.024 975.389c-2.297 12.086-3.995 23.572-5.793 34.761-3.696 24.47-7.191 47.54-15.681 69.81-9.688 25.47-28.466 47.84-53.135 62.93-24.67 15.28-53.535 22.17-81.202 19.67-52.336-4.99-103.973-38.05-141.728-90.99-3.995-5.59-7.89-11.48-11.585-17.18-13.584-20.57-27.567-41.95-49.64-53.43-18.877-9.89-41.15-14.384-62.624-18.679-14.083-2.896-28.665-5.893-42.049-10.287-65.72-21.774-117.957-82.4-133.038-154.612-14.283-67.818.699-144.724 41.15-210.944 11.586-18.977 24.969-37.155 37.854-54.833 16.779-22.773 34.158-46.544 47.542-71.713 23.372-44.147 32.76-91.889 26.668-134.137-3.696-25.469-2.398-44.546 4.194-60.127 7.292-17.279 25.17-30.763 48.841-36.855 20.575-5.194 43.048-4.295 64.422-2.497 40.95 3.595 113.961 17.279 165.199 68.516 3.995 3.996 7.89 8.29 11.586 12.785 6.093 7.291 12.585 14.782 18.877 21.873 11.386 12.985 23.172 26.368 32.86 39.852 14.383 19.976 29.664 39.851 43.947 43.747 9.688 2.696 18.377 0 27.566-2.797 3.396-.999 6.892-2.097 10.388-2.796 40.25-8.69 85.396 7.091 119.055 40.75Zm-371.449 634.924c33.06 33.06 72.512 53.34 112.364 57.03 55.732 5.2 112.363-29.66 131.84-81.1 8.29-22.07 11.885-45.04 15.58-69.31 1.698-11.289 3.396-22.775 5.694-34.86C13.913 916.161 48.27 863.625 81.53 812.987c7.291-11.087 14.782-22.573 21.973-33.959 33.06-52.636 51.438-100.977 56.132-148.02 5.393-55.133-9.289-108.967-40.551-147.82-33.859-42.049-84.297-62.924-128.643-53.136-3.396.799-6.792 1.798-10.188 2.797-9.189 2.797-18.478 5.693-28.865 2.697-14.982-4.195-30.563-24.371-45.245-44.646-9.688-13.484-21.374-26.767-32.76-39.752-6.392-7.191-12.884-14.682-18.977-21.973-50.639-61.026-131.54-76.607-175.187-80.502-21.075-1.898-43.348-2.797-63.623 2.297-23.072 5.893-40.151 18.777-47.242 35.457-6.393 15.181-7.691 33.859-4.095 58.828 6.292 42.848-3.296 90.99-26.768 135.636-13.384 25.369-30.762 49.14-47.642 72.012-12.984 17.579-26.168 35.757-37.754 54.534-40.151 65.72-54.933 142.027-40.85 209.245 14.682 71.613 66.319 131.441 131.24 153.014l-.399 1.199.399-1.199c13.184 4.395 27.766 7.391 41.749 10.188 21.774 4.395 44.147 8.989 63.323 18.977 22.573 11.789 36.756 33.359 50.439 54.239 3.696 5.69 7.591 11.58 11.486 17.07 8.59 11.99 17.878 23.08 27.766 32.96Z" fill="url(#f)"/><path d="M99.21 485.085c4.594 4.595 8.988 9.589 13.183 14.782 30.563 38.753 45.046 91.589 39.652 145.324-4.594 45.944-22.772 93.286-55.432 144.524-6.393 9.988-12.985 20.175-19.477 29.864-32.66 49.639-66.22 100.977-78.904 157.808-1.798 8.19-3.496 16.08-5.094 23.673-5.593 27.17-10.487 50.64-20.075 74.01-20.875 50.64-75.608 83.4-130.142 78-50.339-4.99-100.578-37.25-137.833-88.29-3.895-5.29-7.59-10.79-11.186-16.18-13.484-19.88-27.367-40.55-49.04-51.437-18.278-9.089-39.752-13.783-60.527-18.178-14.782-3.196-30.063-6.492-44.046-11.286l.299-1.099-.299 1.099c-64.022-22.473-114.461-82.5-128.644-152.815-13.484-66.619 1.798-142.027 41.55-206.748 11.286-18.478 24.37-36.156 36.955-53.335 17.179-23.372 34.957-47.543 48.341-73.511 22.073-42.648 31.362-89.691 25.968-132.239-2.996-24.171-.399-43.747 8.091-59.828 11.486-21.873 36.655-29.664 50.738-32.36 20.275-3.896 42.348-2.198 63.323 0 75.608 7.69 136.933 35.856 172.69 79.203 6.093 7.292 12.585 14.782 18.977 21.974 11.985 13.383 24.37 27.366 34.059 41.849l1.797 2.597c13.784 20.575 26.868 40.051 38.953 44.945 8.79 3.596 16.68 1.498 25.07-.699 2.896-.699 5.892-1.498 8.889-2.098 38.852-6.692 80.302 8.59 112.163 40.451Zm-365.656 609.355c32.56 32.57 71.213 52.64 109.866 56.54 53.535 5.39 107.17-26.87 127.645-76.51 9.588-23.17 14.383-46.54 20.076-73.61 1.598-7.592 3.196-15.583 4.994-23.773 12.684-57.23 46.443-108.768 79.103-158.607 6.393-9.788 13.085-19.876 19.377-29.764 32.56-50.938 50.539-97.881 55.033-143.525 5.294-53.036-8.989-105.472-39.152-143.626-32.56-41.15-79.504-61.925-122.751-54.434-2.897.5-5.893 1.299-8.79 1.998-8.39 2.197-16.979 4.395-26.467.499-12.685-5.093-26.069-24.869-40.052-45.844l-1.797-2.597c-9.689-14.282-21.974-28.166-33.859-41.649-6.392-7.191-13.084-14.682-19.077-22.073-35.357-42.948-96.083-70.714-170.992-78.305-20.675-2.098-42.648-3.895-62.524 0-13.584 2.597-37.954 10.187-49.041 31.062-8.29 15.681-10.786 34.758-7.89 58.429 5.294 43.048-3.995 90.49-26.268 133.738-13.484 26.068-31.362 50.338-48.641 73.81-12.585 17.179-25.669 34.858-36.955 53.135-39.552 64.322-54.534 139.031-41.25 205.051 13.983 69.516 63.922 128.843 127.146 151.116 13.783 4.795 29.064 8.091 43.746 11.187 20.875 4.494 42.449 9.089 61.026 18.477 22.173 11.185 36.356 31.965 50.039 52.235 3.596 5.4 7.291 10.89 11.087 16.08 8.19 11.39 17.079 21.68 26.368 30.96Z" fill="url(#g)"/><path d="M90.22 502.664a172.385 172.385 0 0 1 13.783 15.581c29.465 38.054 43.448 89.391 38.254 141.129-4.495 44.645-22.273 90.39-54.434 140.129-5.393 8.39-10.987 16.78-16.38 24.97-32.26 49.04-65.72 99.679-79.803 155.311-8.69 34.456-16.28 63.026-28.965 90.886-10.387 22.98-28.365 42.95-50.738 56.34-23.272 13.88-49.34 19.77-75.209 17.07-48.341-5.19-97.082-36.35-133.737-85.59-3.696-4.9-7.291-10.09-10.687-15.08-13.983-20.18-27.167-39.16-48.641-49.443-17.679-8.49-38.254-13.084-58.129-17.579-15.482-3.495-31.662-7.091-46.244-12.485-62.324-23.171-111.065-82.499-124.149-151.116-12.485-65.42 2.796-139.231 41.949-202.554 11.086-17.878 23.871-35.257 36.156-51.937 17.678-23.871 35.856-48.64 49.24-75.208 20.775-41.15 29.764-87.494 25.369-130.441-2.397-23.372 1.698-43.448 12.085-59.628 12.186-18.977 35.258-25.669 52.437-27.866 18.577-2.397 38.253-.5 62.124 2.397 48.941 5.793 114.161 21.873 157.808 65.52 3.696 3.696 7.092 7.491 10.488 11.486 6.092 7.491 12.884 14.882 19.276 22.073 12.585 13.983 25.569 28.366 35.157 43.747 2.497 4.095 4.994 7.991 7.291 11.886 11.187 18.377 20.875 34.258 30.164 39.352 7.89 4.295 14.882 2.897 22.572 1.398 2.397-.399 4.894-.899 7.491-1.298 36.955-4.395 75.608 11.086 105.472 40.95Zm-360.462 583.196c32.061 32.06 69.915 52.13 107.47 56.13 51.237 5.49 102.076-24.17 123.65-72.12 12.584-27.76 19.875-55.03 28.764-90.485 14.183-55.932 47.642-106.771 80.103-156.011 5.393-8.19 10.987-16.58 16.38-24.969 31.961-49.34 49.54-94.885 54.034-139.131 5.094-51.038-8.689-101.976-37.854-139.531-30.562-39.352-75.308-60.726-116.658-55.732-2.497.3-4.994.799-7.29 1.298-7.692 1.499-15.482 3.097-24.072-1.697-9.788-5.394-19.676-21.474-31.062-40.252-2.297-3.895-4.794-7.79-7.291-11.885-9.489-15.082-22.373-29.564-35.057-43.447-6.493-7.291-13.284-14.682-19.377-22.173-42.648-51.837-114.261-70.115-166.897-76.208-24.47-2.896-43.247-4.694-61.625-2.297-16.78 2.197-39.153 8.59-50.838 26.867-10.088 15.681-14.083 35.258-11.686 58.23 4.395 43.347-4.694 90.19-25.669 131.74-13.483 26.867-31.761 51.537-49.44 75.608-12.285 16.679-24.969 33.958-36.056 51.837-38.853 62.823-54.134 136.034-41.649 200.856 13.084 67.817 61.225 126.546 122.85 149.418 14.383 5.393 30.363 8.989 45.845 12.485 20.075 4.494 40.65 9.089 58.628 17.678 21.974 10.591 36.056 30.661 49.54 50.141 3.396 4.99 7.092 10.09 10.687 15.08 7.691 10.29 15.881 19.88 24.57 28.57Z" fill="url(#h)"/><path d="M78.235 516.647a188.785 188.785 0 0 1 17.379 19.975c28.565 37.355 41.949 87.294 36.955 136.834-4.295 43.248-21.774 87.694-53.335 135.635-4.095 6.293-8.29 12.685-12.485 18.877-32.36 48.941-65.82 99.38-81.501 154.013-8.89 30.659-18.278 55.029-32.66 83.999-22.972 46.14-73.012 74.41-121.752 68.82-46.344-5.4-93.686-35.56-129.643-82.9-3.496-4.7-6.991-9.39-10.287-14.09-13.883-19.47-27.067-37.851-48.242-47.439-16.879-7.691-36.455-12.285-55.432-16.68-16.48-3.895-33.46-7.89-48.641-13.883-29.964-11.786-57.031-32.061-78.305-58.529-21.174-26.368-35.557-57.929-41.549-90.889-11.686-64.222 3.695-136.534 42.348-198.359 10.887-17.479 23.372-34.358 35.457-50.639 17.978-24.37 36.655-49.639 50.139-76.906 19.476-39.652 28.365-85.297 24.77-128.644-1.798-22.972 3.695-43.447 15.981-59.328 13.383-17.378 36.855-22.273 54.333-23.371 17.379-1.199 35.258 1.298 56.132 3.995l4.894.699c76.407 10.088 131.54 35.257 164.001 74.909 6.093 7.491 12.984 14.982 19.576 22.173 13.184 14.383 26.867 29.464 36.256 45.645 13.883 23.671 27.067 44.845 34.658 55.232 3.995 5.594 9.488 4.695 15.88 3.496 3.297-.499 6.693-1.099 9.988-.799 29.265-6.692 64.822 7.891 95.085 38.154Zm-352.272 560.423c31.662 31.66 68.717 51.53 105.272 55.73 47.842 5.49 96.982-22.28 119.555-67.62 14.282-28.86 23.77-53.14 32.56-83.698C-.869 926.549 32.69 875.81 65.15 826.77c4.096-6.293 8.39-12.585 12.486-18.877 31.361-47.742 48.64-91.789 52.935-134.637 4.894-49.04-8.39-98.48-36.455-135.335C61.456 495.073 18.108 472.7-16.25 480.89h-.4c-2.996-.399-6.392.2-9.488.699-6.492 1.099-13.184 2.198-17.978-4.394-7.591-10.587-20.675-31.262-34.658-55.433-9.389-15.98-22.972-30.962-36.056-45.245-6.592-7.191-13.384-14.782-19.677-22.273-32.16-39.152-86.794-64.022-162.602-74.11l-4.894-.699c-20.675-2.697-38.553-5.194-55.732-3.995-16.88 1.099-39.852 5.893-52.736 22.572-12.085 15.482-17.379 35.557-15.581 57.93 3.596 43.747-5.394 89.891-24.97 129.842-13.483 27.467-32.161 52.736-50.239 77.206-12.085 16.281-24.47 33.06-35.257 50.439-38.753 61.326-54.134 133.038-42.548 196.761 12.085 66.02 58.529 124.049 118.456 147.82 15.082 5.893 31.961 9.988 48.341 13.783 19.077 4.295 38.753 8.99 55.932 16.78 21.674 9.888 35.557 29.367 49.14 48.137 3.296 4.7 6.792 9.39 10.288 14.09 7.091 9.49 14.782 18.18 22.872 26.27Z" fill="url(#i)"/><path d="M68.247 532.827C74.84 539.419 81.331 546.91 87.424 555c27.466 36.656 40.451 84.997 35.557 132.639-4.295 41.849-21.374 84.897-52.237 131.141-2.297 3.496-4.694 7.091-6.991 10.587-33.06 49.44-67.119 100.478-84.897 155.012-9.289 28.661-20.475 48.441-31.162 67.721-1.798 3.19-3.496 6.29-5.294 9.48-20.275 36.66-64.422 70.82-117.557 64.23-44.246-5.5-90.09-34.76-125.547-80.21-3.296-4.29-6.592-8.79-9.788-12.98-13.784-18.78-26.868-36.456-47.842-45.445-16.181-6.991-34.658-11.486-52.536-15.781-17.379-4.195-35.457-8.689-51.438-15.281l.4-.999-.4.999c-59.727-24.97-103.974-81.601-115.36-147.721-10.886-63.023 4.695-133.737 42.748-194.164 10.687-16.879 22.873-33.459 34.658-49.24 18.478-24.869 37.555-50.538 50.938-78.504 18.278-38.054 26.868-82.999 24.171-126.846-1.798-29.165 9.888-48.242 19.976-59.128 11.586-12.585 30.563-18.977 56.032-18.877 14.582 0 29.464 2.297 46.743 4.994 4.294.699 8.689 1.298 13.184 1.997 70.114 10.388 118.356 30.263 150.117 62.025 3.396 3.396 6.592 6.991 9.688 10.687 6.193 7.591 13.085 15.081 19.876 22.273 13.784 14.982 28.066 30.463 37.455 47.642a1055.29 1055.29 0 0 1 15.78 30.363c6.293 12.485 11.287 22.473 15.382 28.365 5.493 3.896 9.788 4.195 14.382 4.595 2.398.2 4.994.399 7.79 1.198 26.17-5.593 58.63 8.69 86.995 37.055Zm-346.279 535.453c31.262 31.26 67.618 51.03 103.075 55.53 52.037 6.49 95.584-27.07 115.46-63.12 1.797-3.2 3.495-6.3 5.293-9.49 10.787-19.18 21.774-38.96 30.962-67.321 17.779-54.733 52.037-105.971 84.997-155.511 2.297-3.496 4.694-7.091 6.992-10.587 30.662-46.044 47.742-88.692 51.936-130.242 4.795-47.142-7.99-94.884-35.257-131.14-31.661-42.249-72.511-65.121-104.373-58.429l-.3.1-.3-.1c-2.696-.699-5.193-.999-7.59-1.199-4.694-.499-9.588-.799-15.58-5.194l-.1-.099-.1-.1c-4.196-5.993-9.29-16.081-15.682-28.865-4.594-9.189-9.788-19.576-15.78-30.363-9.29-16.88-23.472-32.261-37.155-47.143-6.692-7.291-13.584-14.782-19.876-22.273-31.062-37.654-81.301-60.526-158.408-71.912-4.494-.7-8.889-1.299-13.183-1.998-17.08-2.697-31.962-4.994-46.344-4.994-24.97 0-43.248 6.093-54.534 18.178-9.788 10.587-21.174 29.164-19.376 57.53 2.596 44.146-6.093 89.591-24.371 127.845-13.483 28.066-32.56 53.934-51.138 78.904-11.785 15.78-23.871 32.26-34.558 49.14-37.754 59.927-53.235 130.142-42.448 192.666 11.286 65.42 55.033 121.352 114.161 146.122 15.781 6.592 33.759 10.987 51.138 15.182 17.978 4.394 36.456 8.889 52.836 15.88 21.474 9.289 35.257 28.063 48.641 46.243 3.096 4.3 6.492 8.69 9.788 12.99 6.692 8.29 13.783 16.38 21.174 23.77Z" fill="url(#j)"/><path d="M57.36 547.909c7.391 7.391 14.683 15.881 21.574 25.369 26.368 35.956 38.853 82.799 34.258 128.344-4.194 40.551-20.874 82-51.237 126.746-8.09 11.886-16.88 23.871-25.27 35.457-28.265 38.453-57.43 78.205-64.421 122.551v.2l-.1.1c-6.892 11.486-12.085 22.274-16.68 31.864-6.991 14.78-13.184 27.56-23.471 38.45-14.383 39.95-64.122 66.12-113.363 59.63-42.248-5.7-86.594-33.86-121.652-77.51-3.096-3.89-6.192-7.99-9.288-11.88-13.684-18.08-26.768-35.161-47.443-43.651-15.181-6.192-32.56-10.587-49.14-14.782-18.478-4.694-37.654-9.488-54.534-16.979l.4-.999-.4.999c-58.029-25.669-100.577-81.601-110.965-145.923-9.988-61.725 5.693-130.941 43.048-189.869 10.487-16.48 22.373-32.56 33.959-48.141 18.877-25.27 38.253-51.438 51.737-80.103 16.979-36.356 25.369-80.702 23.671-124.948-1.199-29.564 12.385-48.341 23.871-58.829 12.684-11.486 31.562-16.18 57.83-14.482 11.985.799 24.57 3.196 37.854 5.693 6.691 1.299 13.583 2.597 20.874 3.696 57.231 9.488 110.965 33.858 155.311 70.414 24.371 20.175 45.345 45.744 58.73 72.112 9.088 17.879 16.28 35.058 21.673 47.642 2.497 5.893 4.594 11.187 6.392 14.982 4.794 4.395 8.19 5.394 11.985 6.392 1.998.6 3.995 1.199 6.293 2.098 23.77-3.995 52.336 9.189 78.504 35.357Zm-87.094 438.067c7.092-44.845 36.356-84.697 64.722-123.25 8.49-11.486 17.179-23.371 25.169-35.357 30.063-44.446 46.743-85.696 50.838-125.747 4.595-45.145-7.691-91.389-33.859-126.946-30.862-42.248-68.616-65.021-98.38-59.627l-.3.1-.3-.1c-2.297-1.099-4.294-1.698-6.192-2.197-3.995-1.199-7.79-2.198-12.984-6.992l-.1-.1-.1-.1c-1.798-3.795-3.995-9.189-6.592-15.181-5.194-12.585-12.385-29.764-21.574-47.543-13.084-25.668-34.358-51.737-58.229-71.413-44.046-36.455-97.382-60.626-154.312-70.015-7.391-1.198-14.283-2.497-20.875-3.695-13.284-2.497-25.869-4.894-37.654-5.693-25.669-1.698-44.147 2.796-56.332 13.983-11.186 10.187-24.37 28.365-23.271 57.23 1.697 44.646-6.692 89.392-23.871 125.947-13.384 28.765-33.06 55.033-51.837 80.402-11.486 15.482-23.472 31.462-33.959 47.942-37.155 58.529-52.736 127.246-42.848 188.471 10.487 63.223 52.636 118.556 109.966 143.925 16.58 7.391 35.757 12.185 54.135 16.78 16.779 4.195 34.158 8.589 49.439 14.882 21.175 8.589 34.958 26.768 48.242 44.248 2.996 3.99 6.092 7.89 9.289 11.88 34.657 43.25 78.604 71.22 120.353 76.81 48.341 6.39 97.182-19.28 111.265-58.53v-.2l.2-.2c10.187-10.59 16.28-23.27 23.272-38.05 4.594-9.39 9.688-20.277 16.68-31.664Z" fill="url(#k)"/><path d="M-104.144 394.395c17.48 17.479 32.161 37.555 41.75 57.53 14.083 29.265 22.073 57.031 24.87 66.42 4.095 5.093 6.691 6.692 9.788 8.389 1.498.899 2.896 1.698 4.694 3.097 27.766-3.796 63.623 19.876 93.786 61.825 25.369 35.357 37.255 80.602 32.86 124.149-4.095 39.252-20.475 79.203-50.14 122.251-7.89 11.486-16.48 23.072-24.769 34.159-27.367 36.555-55.632 74.409-62.824 116.558v.2l-.2.199c-6.99 9.988-12.384 19.178-17.179 27.368-8.39 14.18-15.58 26.37-26.667 36.06-14.183 37.55-62.025 61.82-109.167 55.03-55.034-7.89-97.282-50.34-117.558-74.81-2.996-3.6-5.892-7.29-8.589-10.79-13.783-17.38-26.668-33.856-47.143-41.747-14.183-5.393-30.163-9.588-45.445-13.483-19.875-5.094-40.351-10.388-58.029-18.678l.399-.799-.399.799c-56.232-26.268-96.982-81.6-106.471-144.224-9.189-60.527 6.692-128.145 43.547-185.575 10.288-16.08 21.974-31.761 33.26-46.843 19.177-25.768 39.152-52.336 52.436-81.601 20.076-44.246 23.672-91.389 23.072-123.15-.599-31.961 17.179-50.339 27.866-58.629 13.684-10.487 32.561-13.583 59.728-9.988 9.688 1.299 19.576 3.596 30.263 6.093 8.59 1.998 17.579 3.995 27.367 5.793 55.932 10.188 108.168 33.859 151.016 68.317 5.893 4.694 12.085 10.287 17.878 16.08Zm68.218 128.744c-1-.999-2.098-2.297-3.396-3.796l-.1-.099v-.2c-2.597-9.189-10.587-36.955-24.77-66.32-12.585-26.368-34.358-53.135-59.628-73.41-42.648-34.259-94.485-57.73-150.117-67.818-9.788-1.798-18.777-3.795-27.367-5.793-10.587-2.397-20.675-4.694-30.163-5.993-26.568-3.595-45.046-.499-58.23 9.689-10.387 7.99-27.666 25.868-27.067 57.03.6 31.961-2.896 79.404-23.171 124.05-13.384 29.364-33.36 56.131-52.636 82-11.287 15.082-22.973 30.763-33.16 46.743-36.556 57.131-52.337 124.249-43.248 184.276 9.489 62.025 49.84 116.758 105.472 142.827 17.579 8.19 38.054 13.483 57.73 18.577 15.381 3.995 31.462 8.09 45.744 13.583 20.975 7.991 34.059 24.675 48.042 42.245 2.797 3.6 5.693 7.3 8.59 10.79 20.175 24.37 61.924 66.32 116.358 74.21 46.244 6.69 93.387-17.08 107.07-53.93l.1-.3.2-.2c11.086-9.49 17.878-21.08 26.468-35.66 4.794-8.19 10.187-17.379 17.179-27.366 7.29-42.449 35.656-80.403 63.023-117.158 8.29-11.087 16.78-22.573 24.77-34.159 29.464-42.847 45.744-82.499 49.839-121.352 4.495-43.048-7.39-87.893-32.46-122.751-29.864-41.649-65.22-65.021-92.288-60.926h-.4l-.3-.299c-1.797-1.399-3.295-2.298-4.793-3.197-2.497-1.298-4.595-2.596-7.291-5.293Z" fill="url(#l)"/><path d="M-98.75 404.184c17.679 17.678 32.161 37.953 41.25 58.229 12.385 27.566 19.177 54.334 21.474 70.214 3.596 6.193 5.493 8.29 7.79 10.987.9.899 1.798 1.998 2.797 3.196 25.37-2.397 58.13 21.174 87.494 63.123 24.27 34.658 35.756 78.305 31.461 119.955-3.895 37.854-20.075 76.407-49.14 117.856-7.79 11.187-16.18 22.173-24.37 32.96C-7.561 917.06-33.63 951.319-41.12 991.17v.2l-.2.2c-6.392 7.99-11.785 15.38-16.58 21.97-10.487 14.49-18.777 25.97-31.161 34.56-13.884 35.26-59.928 57.33-104.973 50.44-52.137-7.99-93.586-48.64-113.462-72.11-2.797-3.2-5.394-6.4-7.99-9.59-13.684-16.68-26.668-32.462-46.943-39.953-12.885-4.694-27.367-8.389-41.25-12.085-21.174-5.593-43.248-11.286-62.025-20.675l.4-.799-.4.799C-520.138 917.26-559.19 862.626-567.88 801.6c-8.389-59.128 7.691-125.347 43.947-181.379 10.088-15.681 21.574-30.962 32.66-45.645 19.577-26.168 39.852-53.235 53.136-83.099 14.782-33.559 22.472-74.409 22.472-121.352 0-23.971 11.586-45.145 31.762-58.329 19.077-12.285 44.146-8.989 61.425-5.494 7.691 1.499 15.581 3.796 24.071 6.093 10.188 2.797 20.675 5.693 32.46 8.09 54.634 10.887 105.472 33.759 146.822 66.12 7.191 5.194 13.983 11.186 20.375 17.579Zm72.712 144.624-.4-.4c-1.198-1.398-2.097-2.497-3.096-3.495-2.597-2.797-4.395-4.994-8.09-11.487l-.1-.299c-2.197-15.781-8.989-42.349-21.374-69.915-12.185-27.167-34.458-54.634-60.926-75.309-41.15-32.161-91.489-54.933-146.022-65.72-11.886-2.297-22.473-5.293-32.461-8.09-8.39-2.397-16.28-4.494-23.971-5.993-16.979-3.396-41.649-6.692-60.027 5.294-9.289 6.092-30.962 23.571-30.962 56.731-.1 47.243-7.591 88.293-22.673 122.151-13.284 30.064-33.659 57.231-53.335 83.499-11.086 14.682-22.473 30.063-32.56 45.545-35.957 55.732-51.937 121.452-43.647 180.081 8.489 60.426 47.242 114.56 101.177 141.128 18.677 9.289 40.551 14.982 61.725 20.575 13.983 3.596 28.365 7.391 41.35 12.185 20.674 7.491 33.858 23.472 47.841 40.451 2.597 3.2 5.294 6.49 7.991 9.59 19.875 23.27 60.926 63.52 112.463 71.51 44.246 6.89 89.491-14.98 102.975-49.44l.1-.3.2-.2c12.185-8.39 20.475-19.87 30.862-34.26 4.694-6.49 10.088-13.879 16.48-21.869 7.59-40.152 34.957-76.108 61.425-110.966 8.09-10.687 16.58-21.773 24.27-32.86 28.965-41.15 44.846-79.403 48.841-116.957 4.295-41.051-7.19-84.298-31.162-118.656-29.264-41.65-61.425-65.021-86.195-62.225l-.7-.299Z" fill="url(#m)"/><path d="M-93.457 413.872c17.879 17.878 32.261 38.453 40.95 58.928 9.988 23.572 13.684 46.244 16.38 62.724.7 4.295 1.3 8.09 1.898 11.286 1.499 7.291 2.897 9.888 4.895 13.284.699 1.099 1.298 2.297 2.097 3.895 23.072-.898 52.636 22.473 81.201 64.422 23.272 34.059 34.159 76.108 30.064 115.56-3.796 36.555-19.477 73.61-48.042 113.362-7.69 10.687-15.98 21.374-23.87 31.661-26.569 34.359-51.838 66.819-59.429 104.174v.2l-.2.199c-5.093 5.494-9.588 10.783-13.683 15.283-13.583 15.58-23.471 26.87-37.754 34.36-13.683 32.86-57.93 52.93-100.678 45.74-49.34-8.19-89.79-47.04-109.566-69.41-2.397-2.8-4.795-5.6-7.192-8.39-13.683-16.085-26.667-31.266-46.843-38.058-11.486-3.895-23.671-7.091-36.455-10.487-22.873-6.093-46.644-12.285-66.719-22.772-52.536-27.367-89.991-81.401-97.682-140.829-7.491-57.83 8.59-122.451 44.346-177.185 9.889-15.281 21.175-30.163 31.962-44.546 19.975-26.567 40.65-54.034 53.834-84.597 13.684-31.861 20.875-71.014 21.874-119.555.799-35.157 25.269-52.236 35.756-57.929 19.876-10.887 44.246-6.292 63.223-1.099 6.293 1.698 12.585 3.796 19.277 6.093 10.587 3.595 22.672 7.491 36.056 10.487 53.635 11.686 102.875 33.759 142.427 63.922 7.691 5.893 14.982 12.385 21.873 19.277Zm65.021 151.915-.3-.499c-.898-1.698-1.597-2.996-2.296-4.295-1.898-3.496-3.596-6.192-4.994-13.783-.6-3.196-1.199-6.992-1.998-11.386-2.597-16.38-6.292-38.853-16.18-62.324-11.886-28.066-34.458-56.232-62.225-77.406-39.352-29.964-88.392-52.037-141.727-63.623-13.484-2.897-25.569-6.992-36.256-10.487a417.292 417.292 0 0 0-19.277-6.093c-18.677-5.094-42.548-9.588-61.925.999-10.187 5.593-34.058 22.273-34.857 56.431-.999 48.741-8.19 88.093-22.073 120.154-13.184 30.763-33.959 58.329-54.035 84.997-10.787 14.382-22.073 29.264-31.961 44.546-35.357 54.334-51.437 118.556-43.947 175.986 7.591 58.928 44.746 112.263 96.683 139.43l-.4.799.4-.799c19.976 10.388 43.547 16.58 66.419 22.673 12.785 3.396 24.97 6.592 36.556 10.587 20.575 6.991 33.659 22.273 47.642 38.656 2.397 2.79 4.794 5.59 7.191 8.39 19.576 22.17 59.728 60.72 108.468 68.91 42.149 6.99 85.496-12.78 98.78-45.04l.1-.3.3-.1c14.083-7.29 23.97-18.58 37.554-34.16 3.995-4.59 8.49-9.689 13.584-15.182 7.79-37.754 32.96-70.314 59.727-104.673 7.89-10.287 16.28-20.874 23.871-31.661 28.266-39.452 43.947-76.307 47.742-112.463 4.095-39.053-6.792-80.702-29.764-114.461-28.565-41.75-57.73-64.921-80.202-63.623l-.6-.2Z" fill="url(#n)"/><path d="M-88.163 423.361c18.078 18.078 32.36 38.952 40.65 59.827 11.487 28.865 13.484 57.23 14.683 74.21l.2 3.595c.799 10.388 1.398 13.184 3.196 19.976 20.475.499 47.142 23.771 75.008 65.62 22.174 33.36 32.76 73.91 28.666 111.365-3.796 35.157-19.077 70.814-46.943 108.867-7.491 10.288-15.681 20.476-23.472 30.463-25.768 32.361-49.94 62.924-57.73 98.081l-.1.3-.2.2c-2.496 2.297-4.694 4.495-6.99 6.595-18.778 17.97-31.163 29.96-48.242 36.25-13.484 30.47-55.732 48.54-96.483 41.15-44.046-7.89-81.601-40.65-105.472-66.72-2.197-2.39-4.294-4.69-6.392-7.19-13.783-15.379-26.867-30.061-46.743-36.353-9.888-3.097-19.976-5.793-30.763-8.59-24.969-6.592-50.638-13.484-72.112-25.169l.399-.799-.399.799c-50.738-27.966-86.595-81.202-93.287-139.031-6.592-56.532 9.689-119.555 44.646-172.89 9.788-14.982 20.775-29.365 31.462-43.447 20.375-26.968 41.449-54.834 54.434-85.996 16.28-38.853 19.975-83.299 21.374-117.657 1.498-37.454 30.762-53.535 39.651-57.63 21.075-9.688 45.845-3.296 65.021 3.296 5.094 1.698 10.288 3.895 15.781 5.993 11.187 4.394 23.871 9.488 38.454 12.884 52.735 12.385 100.577 33.859 138.132 61.825 8.29 6.093 16.28 12.884 23.571 20.176Zm57.43 159.306-.3-1.299c-1.797-6.991-2.496-9.887-3.195-20.375l-.2-3.595c-1.299-17.879-3.196-44.946-14.583-73.711-11.585-28.965-34.657-57.83-63.622-79.403-37.455-27.866-84.997-49.041-137.533-61.426-14.682-3.495-27.467-8.489-38.753-12.984-5.493-2.097-10.687-4.295-15.781-5.993-18.877-6.492-43.147-12.784-63.722-3.395-8.69 3.895-37.155 19.775-38.653 56.231-1.399 34.558-5.094 79.204-21.374 118.256-13.084 31.262-34.259 59.228-54.734 86.296-10.587 13.983-21.574 28.565-31.362 43.347-34.857 53.035-51.038 115.559-44.346 171.791 6.792 57.33 42.149 110.066 92.388 137.733 21.274 11.685 46.943 18.577 71.813 25.069 10.786 2.797 20.974 5.593 30.862 8.69 20.375 6.392 33.559 21.174 47.542 36.751 2.098 2.3 4.195 4.8 6.393 7.2 23.671 25.86 61.025 58.42 104.572 66.21 40.152 7.2 81.701-10.58 94.685-40.55l.1-.3h.2c16.98-6.19 29.264-18.07 48.042-36.05 2.097-2.099 4.394-4.197 6.691-6.494 7.89-35.457 32.261-66.02 57.93-98.48 7.89-9.888 15.98-20.176 23.471-30.463 27.667-37.854 42.948-73.111 46.644-108.169 3.895-37.055-6.492-77.206-28.466-110.166-27.866-41.849-54.234-64.821-74.21-64.821l-.499.1Z" fill="url(#o)"/><path d="M-83.17 432.749c18.279 18.278 32.461 39.452 40.552 60.726 11.785 31.562 12.285 61.625 11.685 81.601-.2 3.795-.3 6.692-.4 9.388-.299 4.895-.399 8.39-.199 13.584 22.573 2.397 49.74 37.554 68.617 66.819 21.074 32.66 31.162 71.713 27.366 107.07-3.595 33.359-19.076 68.616-45.944 104.473-7.49 9.888-15.381 19.776-23.172 29.364-24.67 30.463-48.041 59.028-55.932 91.888l-.1.3-.2.2c-23.47 19.478-38.952 31.558-59.028 36.058-13.483 28.46-53.035 44.24-92.188 36.65-41.15-8.19-77.805-39.45-101.376-64.22-1.898-1.9-3.596-3.79-5.394-5.79-13.883-14.883-26.967-28.966-46.843-34.659-7.79-2.198-15.681-4.295-24.17-6.592-27.267-7.092-55.433-14.483-78.605-27.867l.499-.699-.499.699c-48.94-28.365-82.999-81.001-88.892-137.433-5.793-55.332 10.687-116.758 45.045-168.694 9.689-14.483 20.376-28.766 30.863-42.449 20.775-27.367 42.249-55.632 55.133-87.294 14.882-36.855 18.577-79.104 20.675-115.759 1.798-30.763 23.671-49.84 43.547-57.33 22.273-8.49 47.442-.3 66.819 7.69 4.294 1.698 8.589 3.796 13.283 5.893 11.486 5.294 24.471 11.286 39.852 15.281 52.836 13.484 97.881 33.56 133.937 59.628 8.99 6.592 17.479 13.883 25.07 21.474Zm50.14 166.797-.1-.699c-.4-5.593-.2-9.389.1-14.482.2-2.597.3-5.494.5-9.289.599-19.776.1-49.64-11.587-80.902-11.186-29.963-34.857-59.627-65.021-81.401-35.956-25.968-80.702-45.944-133.338-59.428-15.581-3.995-28.665-10.087-40.151-15.381-4.594-2.197-8.889-4.095-13.184-5.993-19.077-7.89-43.747-15.98-65.62-7.69-19.376 7.391-40.751 25.968-42.548 55.932-2.198 36.955-5.793 79.303-20.875 116.358-12.984 31.961-34.558 60.327-55.333 87.694-10.487 13.683-21.274 27.866-30.762 42.348-34.259 51.638-50.639 112.763-44.846 167.696 5.893 55.833 39.652 107.969 88.093 136.035 22.972 13.384 51.038 20.675 78.205 27.666 8.49 2.298 16.38 4.395 24.171 6.592 20.275 5.893 33.659 20.076 47.542 35.158 1.798 2 3.596 3.8 5.393 5.79 23.372 24.57 59.828 55.64 100.578 63.63 38.653 7.49 77.606-8.09 90.59-36.06l.2-.4h.399c19.876-4.3 35.157-16.38 58.43-35.657 8.09-33.06 31.461-61.825 56.23-92.188 7.692-9.488 15.682-19.276 23.073-29.264 26.667-35.657 42.049-70.615 45.544-103.674 3.696-35.058-6.192-73.711-27.166-106.071-27.167-41.949-50.739-64.922-68.118-66.12l-.4-.2Z" fill="url(#p)"/><path d="M-77.975 442.137c18.477 18.478 32.66 40.052 40.35 61.726 11.687 33.059 10.887 64.621 8.39 85.296-.699 5.693-1.598 9.788-2.396 13.583-.9 4.095-1.698 7.691-1.998 12.385 15.281 3.096 35.657 25.469 62.424 68.018 20.475 32.46 29.664 69.016 25.968 102.875-3.495 32.061-18.577 65.72-44.845 99.978-7.391 9.588-15.281 19.077-22.872 28.266-23.572 28.365-45.944 55.133-54.035 85.596l-.1.3-.2.2c-24.57 17.58-41.948 27.57-62.823 29.26-13.184 25.97-50.938 39.76-87.993 32.06-30.263-6.29-62.424-26.46-95.684-59.72l-1.598-1.6-4.294-4.296c-13.983-14.382-27.367-27.966-47.143-33.159-5.194-1.399-10.687-2.697-16.18-4.195-30.064-7.491-61.126-15.382-86.296-30.763-47.742-29.165-79.303-79.903-84.497-135.635-4.994-53.935 11.586-113.862 45.445-164.5 9.488-14.083 20.076-28.066 30.263-41.45 21.174-27.766 43.048-56.431 55.732-88.692 13.884-35.457 17.179-76.108 19.976-112.064l.1-1.897c2.597-31.962 27.167-50.739 47.442-57.031 23.771-7.391 49.141 2.597 68.517 12.185a658.177 658.177 0 0 1 11.386 5.993c11.586 6.192 24.57 13.184 40.551 17.578 53.035 14.682 95.384 33.46 129.642 57.53 9.788 6.592 18.678 14.083 26.768 22.173Zm42.648 174.289.1-.699c.3-5.094 1.098-8.89 2.097-13.284.7-3.696 1.698-7.891 2.298-13.484 2.596-20.575 3.296-51.837-8.29-84.597-10.887-31.062-35.058-61.425-66.32-83.299-33.959-23.971-76.207-42.648-129.143-57.23-16.08-4.495-29.264-11.486-40.95-17.779a657.983 657.983 0 0 0-11.386-5.992c-19.177-9.389-44.147-19.377-67.418-12.086-19.776 6.193-43.947 24.57-46.444 55.633l-.1 1.897c-2.896 36.057-6.092 76.807-20.075 112.563-12.785 32.561-34.758 61.326-55.932 89.092-10.188 13.384-20.775 27.167-30.164 41.35-33.659 50.239-50.139 109.866-45.245 163.501 5.094 55.233 36.356 105.472 83.699 134.437 25.069 15.281 56.032 23.072 85.895 30.563a380.571 380.571 0 0 1 16.181 4.195c20.275 5.293 33.659 19.076 47.941 33.559a8693.36 8693.36 0 0 1 4.295 4.295c33.659 34.059 66.12 54.529 96.683 60.929 36.555 7.59 73.71-6 86.494-31.57l.2-.39h.4c20.575-1.6 37.754-11.39 62.224-28.869 8.29-30.663 30.663-57.431 54.334-85.896 7.59-9.189 15.581-18.578 22.772-28.166 26.168-33.959 41.15-67.318 44.546-99.279 3.596-33.559-5.593-69.715-25.769-101.876-26.867-42.848-47.342-64.921-62.124-67.518h-.799Z" fill="url(#q)"/><path d="M-72.981 451.526c18.777 18.777 32.76 40.551 40.25 62.824 12.585 37.954 8.59 72.112 4.995 89.091-1.299 6.493-2.997 11.187-4.495 15.881-1.398 4.195-2.797 8.19-3.696 13.084C-20.246 637.7.43 668.762 20.405 701.722c19.376 31.761 28.066 66.819 24.67 98.58-3.396 30.963-18.078 63.024-43.847 95.584-7.29 9.289-15.081 18.278-22.672 27.067-22.573 26.368-43.947 51.138-52.237 79.207l-.1.3-.2.2c-28.165 17.38-46.243 23.47-66.518 22.37-12.985 23.57-48.941 35.36-83.799 27.47-28.765-6.6-59.228-25.87-93.386-58.833l-2.697-2.697c-14.282-13.883-27.766-26.967-47.742-31.761l-6.292-1.498c-32.061-7.491-68.317-16.18-96.083-33.959-45.944-29.564-75.808-79.603-80.103-133.837-4.195-53.335 12.185-110.266 45.844-160.305 9.389-13.784 19.676-27.267 29.764-40.351 21.474-28.066 43.847-57.031 56.332-90.091 11.985-31.362 15.181-65.92 18.277-99.379.4-4.395.799-8.59 1.199-12.784 3.196-33.16 29.764-51.338 51.338-56.732 25.369-6.392 50.938 5.594 70.414 16.68 3.296 1.898 6.692 3.896 10.088 6.093 11.486 7.091 24.57 14.982 40.85 19.876 33.759 9.988 83.499 26.767 125.248 55.332a189.558 189.558 0 0 1 28.266 23.272Zm35.357 181.779.1-.699c.898-5.294 2.297-9.488 3.895-13.883 1.498-4.495 3.096-9.289 4.494-15.681 3.496-16.88 7.491-50.639-4.994-88.293-10.687-32.061-35.257-63.223-67.717-85.296-41.65-28.465-91.289-45.145-124.849-55.133-16.48-4.894-29.564-12.984-41.15-19.976-3.495-2.097-6.791-4.195-10.087-6.092-19.177-10.987-44.446-22.673-69.216-16.48-21.175 5.393-47.043 23.072-50.239 55.432-.4 4.195-.899 8.49-1.199 12.785-3.096 33.459-6.392 68.117-18.377 99.679-12.585 33.159-34.958 62.324-56.632 90.39-10.087 13.084-20.375 26.567-29.664 40.251-33.559 49.739-49.739 106.271-45.644 159.306 4.195 53.735 33.859 103.375 79.403 132.739l-.399.599.399-.599c27.467 17.678 63.623 26.268 95.484 33.759l6.293 1.498c20.375 4.794 34.058 18.078 48.441 32.061l2.697 2.697c33.858 32.861 64.222 51.841 92.687 58.331 34.358 7.79 69.815-3.9 82.4-27.07l.2-.4h.399c20.076 1.1 37.954-4.79 65.92-21.97 8.39-28.168 29.764-53.138 52.436-79.605 7.59-8.79 15.282-17.879 22.673-27.067 25.469-32.261 40.15-64.122 43.447-94.785 3.396-31.562-5.294-66.22-24.37-97.682-20.076-33.059-40.85-64.221-56.132-68.716l-.7-.1Z" fill="url(#r)"/><path d="M-67.987 460.715c18.977 18.977 32.96 41.15 40.151 63.922 13.084 42.249 5.593 78.904 1.698 92.787-1.898 7.092-4.295 12.485-6.592 17.579-2.097 4.694-3.995 8.989-5.493 14.282 12.684 6.692 30.063 36.256 50.239 70.415 18.278 31.062 26.468 64.621 23.271 94.385-3.296 29.664-17.678 60.227-42.748 91.089-7.29 8.89-14.981 17.579-22.472 26.069-21.474 24.27-41.85 47.242-50.24 72.807l-.1.3-.299.1c-28.365 14.99-48.741 19.58-70.314 15.58-12.785 20.98-46.843 30.87-79.604 22.88-34.458-8.49-65.919-34.36-89.291-55.935l-.899-.899c-14.682-13.483-28.465-26.268-48.741-30.563-36.156-7.59-73.81-16.679-102.176-36.056l.4-.599-.4.599c-44.046-29.864-72.312-79.303-75.608-132.139-3.296-52.037 13.084-107.37 46.244-156.111 9.189-13.383 19.277-26.667 29.265-39.452 21.973-28.365 44.645-57.829 57.03-91.389 10.388-28.365 13.584-59.327 16.68-89.191.699-7.291 1.398-14.183 2.297-21.074 3.796-32.161 30.563-51.538 55.333-56.332 27.367-5.393 54.334 9.389 72.212 21.074a777.32 777.32 0 0 1 9.289 6.293c11.286 7.89 24.071 16.679 40.551 21.973 41.15 13.184 84.197 28.665 121.053 53.135 10.487 7.491 20.475 15.681 29.264 24.471Zm28.166 189.369.2-.599c1.598-5.593 3.595-10.187 5.693-15.081 2.297-5.094 4.594-10.388 6.591-17.379 3.896-13.684 11.387-50.139-1.697-91.989-10.388-33.159-35.457-65.02-69.016-87.393-36.656-24.471-79.704-39.952-120.754-53.036-16.679-5.293-29.664-14.282-40.95-22.173a500.545 500.545 0 0 0-9.189-6.192c-17.678-11.486-44.346-26.169-71.113-20.775-24.371 4.794-50.439 23.671-54.234 55.233-.899 6.891-1.599 13.783-2.298 21.074-3.096 30.064-6.292 61.026-16.779 89.491-12.385 33.759-35.257 63.224-57.131 91.689-9.788 12.784-19.976 25.968-29.164 39.352-33.06 48.441-49.44 103.574-46.144 155.211 3.296 52.437 31.362 101.477 75.009 131.141 28.165 19.177 65.72 28.166 101.676 35.757 20.575 4.394 34.558 17.179 49.34 30.962l.899.899c23.272 21.474 54.434 47.244 88.792 55.634 32.361 7.99 65.92-1.8 78.305-22.57l.2-.4.499.1c21.374 3.99 41.549-.4 69.615-15.29 8.49-25.864 28.865-48.836 50.439-73.206 7.49-8.49 15.181-17.179 22.473-26.069 24.87-30.662 39.252-61.026 42.448-90.39 3.296-29.464-4.994-62.724-23.072-93.586-20.275-34.458-37.754-64.322-50.139-70.115l-.5-.3Z" fill="url(#s)"/><path d="M-62.993 469.904c19.176 19.176 33.16 41.749 40.05 65.221 13.185 44.745 3.297 82.399-1.597 96.482-2.597 7.591-5.693 13.484-8.69 19.277-2.696 5.094-5.193 9.988-7.29 15.681 7.79 6.192 17.878 24.27 31.66 49.44 3.896 7.091 7.991 14.382 12.386 22.173 12.085 21.474 25.868 54.633 21.873 90.19-3.196 28.366-17.179 57.53-41.65 86.595-7.19 8.589-14.981 16.979-22.372 25.169-20.375 22.173-39.652 43.248-48.142 66.518l-.1.3-.3.1c-29.164 12.99-51.337 15.58-74.109 8.79-12.585 18.58-44.845 26.47-75.408 18.28-30.763-8.19-59.128-30.37-85.297-53.337-13.883-12.085-28.165-24.57-48.84-28.466-31.961-5.992-72.512-15.381-101.976-36.455-42.149-30.164-68.717-78.904-71.314-130.442-2.497-50.638 14.083-104.573 46.544-151.815 8.989-13.184 18.977-25.969 28.665-38.453 22.373-28.765 45.445-58.429 57.53-92.688 9.089-25.669 12.185-53.734 15.182-80.901.998-9.589 1.997-18.578 3.296-27.467 4.594-33.16 33.858-52.237 59.228-56.032 22.273-3.296 45.744 4.794 74.01 25.469 2.796 1.998 5.593 4.195 8.589 6.592 10.987 8.59 23.571 18.378 40.251 24.071 37.754 12.984 80.602 27.666 116.758 51.038 11.486 7.091 21.874 15.481 31.063 24.67Zm20.974 197.16.2-.399c2.097-6.093 4.694-11.087 7.59-16.38 2.897-5.693 5.993-11.586 8.69-19.077 4.794-13.983 14.582-51.338 1.598-95.684-10.088-34.458-35.757-66.919-70.414-89.391-36.056-23.272-78.805-38.054-116.459-50.938-16.779-5.793-29.364-15.581-40.55-24.171-2.897-2.297-5.694-4.495-8.59-6.592-27.966-20.375-51.238-28.465-73.011-25.269-24.87 3.695-53.635 22.472-58.13 54.933-1.198 8.989-2.197 17.978-3.296 27.467-2.996 27.167-5.992 55.332-15.181 81.301-12.185 34.358-35.357 64.122-57.73 93.087-9.688 12.484-19.676 25.269-28.665 38.453-32.361 47.143-48.841 100.777-46.344 151.016 2.397 51.138 28.865 99.579 70.714 129.443l-.399.599.399-.599c29.265 20.875 69.516 30.363 101.377 36.256 20.875 3.895 35.457 16.48 49.34 28.765 25.968 22.776 54.234 44.846 84.797 53.036 30.263 8.09 62.124.2 74.21-18.08l.2-.4.399-.2c22.473 6.89 44.546 4.4 73.41-8.49 8.59-23.369 27.867-44.443 48.342-66.716 7.49-8.091 15.182-16.58 22.373-25.17 24.27-28.865 38.253-57.83 41.35-85.895 3.895-35.258-9.689-68.018-21.774-89.292-4.395-7.79-8.49-15.082-12.385-22.173-13.484-24.47-24.07-43.647-31.761-49.34l-.3-.1Z" fill="url(#t)"/><path d="M-58 479.093c19.377 19.376 33.36 42.349 40.052 66.419 12.984 46.943.998 85.696-4.895 100.179-3.196 7.99-7.09 14.482-10.786 20.774-3.296 5.693-6.592 10.987-9.09 17.279 4.096 5.094 9.49 16.081 16.88 31.063 5.693 11.685 12.785 26.168 21.174 41.749 11.387 20.974 24.171 52.935 20.575 85.895-3.096 27.067-16.78 54.734-40.65 82.2-7.291 8.29-15.082 16.48-22.573 24.371-19.276 20.075-37.454 39.052-45.944 59.928l-.1.3-.3.1c-30.163 11.18-54.134 11.78-77.905 2-12.485 16.28-42.248 22.07-71.113 13.78-30.663-8.89-59.927-32.961-81.301-50.539-14.683-12.086-28.366-22.373-47.942-25.369-44.846-7.092-78.105-19.177-101.776-37.055-40.152-30.363-65.221-78.405-66.819-128.744-1.598-49.14 15.081-101.576 47.043-147.521 8.789-12.784 18.777-25.369 28.165-37.554 22.673-29.065 46.144-59.128 58.13-93.886 7.99-23.571 10.986-49.14 13.583-73.91 1.299-11.286 2.497-22.073 4.095-32.66 5.394-34.358 36.556-52.936 63.124-55.732 29.464-3.097 59.128 8.589 75.907 29.963 10.887 13.883 27.866 25.669 47.642 32.86 4.395 1.598 8.989 3.196 13.484 4.894 33.759 12.185 68.617 24.87 99.08 43.947 11.885 7.091 22.672 15.681 32.26 25.269Zm-36.356 528.957c8.59-20.974 26.868-40.051 46.144-60.127 7.491-7.89 15.282-15.881 22.473-24.27 23.771-27.167 37.255-54.634 40.351-81.501 3.696-32.661-8.99-64.322-20.375-85.097-8.49-15.481-15.481-30.063-21.175-41.749-7.49-15.282-12.784-26.368-16.979-31.162l-.3-.3.1-.3c2.697-6.492 5.993-11.985 9.389-17.778 3.696-6.292 7.49-12.684 10.687-20.675 5.793-14.382 17.778-52.736 4.894-99.379-9.788-35.557-35.956-68.916-71.813-91.389-30.263-19.077-65.021-31.661-98.78-43.847-4.494-1.698-9.089-3.296-13.483-4.894-19.976-7.391-37.155-19.176-48.242-33.259-16.38-20.975-45.744-32.561-74.809-29.464-26.168 2.796-56.631 21.074-61.924 54.733-1.698 10.487-2.897 21.274-4.095 32.66-2.797 24.77-5.594 50.539-13.684 74.21-11.985 34.958-35.557 65.121-58.329 94.286-9.488 12.085-19.376 24.769-28.166 37.554-31.761 45.744-48.341 97.881-46.743 146.821 1.598 49.94 26.368 97.682 66.32 127.845l-.3.499.3-.499c23.471 17.679 56.531 29.764 101.177 36.855 19.776 3.196 33.659 13.484 48.441 25.669 21.274 17.479 50.438 41.448 80.702 50.338 28.165 8.19 58.229 2.3 70.014-13.68l.3-.3.4.2c23.771 9.59 47.642 9.09 77.505-2Z" fill="url(#u)"/><path d="M-53.505 487.782c19.776 19.776 34.158 43.547 40.45 68.017 8.99 34.558 5.993 72.512-8.19 103.874-3.895 8.49-8.39 15.581-12.884 22.273-3.995 6.192-7.79 11.985-10.986 18.777 1.598 3.396 3.595 8.59 6.192 15.182 5.494 14.083 13.584 35.357 25.869 58.828 15.481 29.864 21.973 57.33 19.176 81.701-2.996 25.968-16.28 52.037-39.551 77.705-7.391 8.19-15.182 15.981-22.773 23.572-17.978 17.978-34.957 34.957-43.547 53.339l-.1.3-.299.1c-31.262 9.48-57.331 7.99-81.601-4.9-12.285 13.68-40.251 17.68-66.919 9.19-25.968-8.19-50.738-27.367-72.612-44.246l-4.594-3.596c-15.681-12.085-29.065-20.075-47.043-22.472-29.664-3.896-71.313-13.584-101.477-37.555-38.253-30.463-61.625-78.005-62.424-126.945-.799-47.742 16.081-98.581 47.443-143.326 8.689-12.485 18.377-24.77 27.666-36.656 23.172-29.364 47.043-59.827 58.629-95.184 7.091-21.674 9.788-45.145 12.385-67.917 1.398-12.785 2.796-24.97 4.894-36.856 5.993-33.958 38.153-53.535 67.018-55.432 30.264-1.898 60.627 11.486 77.606 34.258 11.386 15.381 27.866 27.866 46.643 35.257 7.991 3.196 16.281 6.293 24.471 9.289 28.465 10.687 58.029 21.674 83.798 37.454 11.785 7.391 22.972 16.181 32.76 25.969Zm-47.343 522.568c8.69-18.481 25.67-35.46 43.648-53.438 7.59-7.591 15.38-15.382 22.772-23.572 23.072-25.469 36.356-51.337 39.252-77.006 2.697-24.071-3.596-51.338-19.077-81.002-12.185-23.571-20.475-44.845-25.868-59.028-2.597-6.792-4.695-12.085-6.193-15.381l-.1-.3.1-.299c3.296-6.892 7.092-12.885 11.187-19.177 4.394-6.792 8.889-13.683 12.684-22.073 14.183-31.162 17.08-68.817 8.19-103.075-9.388-36.356-36.755-71.313-73.21-93.387-25.869-15.68-55.234-26.667-83.699-37.354-8.09-3.096-16.48-6.093-24.47-9.289-18.778-7.391-35.557-19.976-47.043-35.656-16.68-22.473-46.743-35.757-76.607-33.859-28.266 1.897-59.927 21.174-65.92 54.533-2.097 11.886-3.496 23.871-4.894 36.656-2.597 22.772-5.194 46.344-12.385 68.117-11.786 35.557-35.657 66.02-58.828 95.584-9.289 11.885-18.977 24.17-27.767 36.555-31.162 44.546-47.941 95.085-47.242 142.727.799 48.741 23.971 95.883 62.024 126.147l-.399.399.399-.399c30.064 23.871 71.414 33.459 100.878 37.354 18.178 2.397 31.761 10.388 47.642 22.673l4.594 3.595c21.774 16.78 46.444 35.855 72.213 44.045 26.367 8.39 54.234 4.5 65.919-9.19l.3-.3.4.2c24.67 12.89 50.438 14.49 81.5 5.2Z" fill="url(#v)"/><path d="M-48.611 496.871c19.975 19.976 34.358 44.146 40.45 69.416 8.79 35.956 4.695 75.208-11.486 107.569-4.494 8.889-9.688 16.48-14.782 23.771-4.694 6.692-9.088 13.084-12.984 20.375 2.497 11.486 8.99 41.15 25.969 75.309 14.582 29.564 20.375 54.933 17.778 77.306-2.996 24.77-15.88 49.44-38.453 73.211-7.591 7.99-15.581 15.581-23.372 22.972-16.68 15.681-32.46 30.662-40.95 46.54l-.2.2h-.2c-32.56 7.79-60.526 4-85.496-11.78-11.985 11.18-38.253 13.08-62.624 4.69-21.773-7.589-43.347-23.37-62.324-37.353a1333.835 1333.835 0 0 0-10.887-7.89c-12.484-8.89-26.567-17.379-46.144-19.377-23.771-2.397-68.516-10.587-101.276-38.154-36.456-30.662-58.03-77.405-58.03-125.347.1-46.244 17.079-95.784 47.842-139.131 8.59-12.185 18.078-24.071 27.267-35.657 23.471-29.664 47.842-60.426 59.228-96.383 6.292-20.075 8.789-41.749 10.987-62.723 1.398-13.384 3.096-27.267 5.593-40.152 6.891-35.057 40.85-54.234 70.814-55.033 31.062-.899 62.224 14.283 79.303 38.753 8.39 11.986 23.072 28.266 45.545 37.555 10.387 4.394 20.974 8.389 32.161 12.584 24.37 9.189 49.54 18.777 71.713 31.961 12.784 7.591 24.37 16.58 34.558 26.768Zm-58.629 515.669c8.59-15.976 24.37-30.958 41.05-46.639 7.79-7.391 15.78-14.982 23.272-22.872 22.472-23.672 35.357-48.142 38.253-72.612 2.597-22.373-3.196-47.343-17.678-76.807-16.98-34.358-23.472-64.421-25.969-75.708v-.2l.1-.099c3.895-7.491 8.29-13.884 13.084-20.675 5.094-7.291 10.288-14.682 14.782-23.572C-4.365 641.195-.17 602.243-8.96 566.486c-9.288-37.654-37.054-73.411-74.41-95.384-22.272-13.084-47.342-22.572-71.612-31.861-10.687-4.095-21.873-8.29-32.261-12.685-22.672-9.488-37.554-25.968-45.944-37.954-16.979-24.17-47.742-39.152-78.405-38.253-29.564.799-62.923 19.776-69.815 54.234-2.497 12.884-4.095 26.068-5.493 40.051-2.297 21.075-4.794 42.748-11.087 62.824-11.386 36.156-35.756 66.919-59.328 96.683-9.188 11.585-18.577 23.571-27.266 35.656-30.663 43.248-47.543 92.488-47.643 138.532 0 47.542 21.474 93.986 57.73 124.449l-.399.399.399-.399c32.561 27.366 77.007 35.456 100.778 37.854 19.376 2.197 33.659 10.687 46.244 19.676 3.495 2.497 7.191 5.193 10.886 7.89 18.877 13.883 40.351 29.564 62.025 37.052 24.27 8.49 50.239 6.5 61.825-4.69l.299-.3.4.2c24.77 15.98 52.436 19.87 84.797 12.08Z" fill="url(#w)"/><path d="M-43.617 505.86c20.175 20.176 34.458 44.846 40.55 70.714C5.524 613.929.13 654.48-17.847 687.839c-4.994 9.389-10.987 17.379-16.78 25.17-5.393 7.191-10.487 14.082-14.882 21.873.2 16.18 5.493 45.844 19.876 76.607 9.389 19.976 19.576 46.344 16.38 73.111-2.796 23.172-15.78 46.943-37.454 68.816-7.89 7.891-16.18 15.182-24.171 22.373-15.182 13.584-29.664 26.271-37.954 39.751l-.2.2h-.199c-33.859 6.29-63.923 0-89.292-18.577-11.885 8.687-35.956 8.787-58.429.1-18.078-6.892-35.657-19.276-52.536-31.162-5.793-3.995-11.186-7.791-16.58-11.386-15.681-10.288-29.264-15.282-45.345-16.38-39.851-2.897-76.707-16.98-101.077-38.553-34.558-30.563-54.633-76.807-53.635-123.55.899-44.846 17.978-92.688 48.242-134.936 8.489-11.886 17.778-23.572 26.867-34.858 23.871-30.063 48.641-61.026 59.727-97.681 5.594-18.578 7.791-38.753 9.888-58.03 1.499-14.282 3.196-29.164 6.093-42.848 3.596-16.579 13.484-30.662 28.565-40.75 13.384-8.989 30.263-14.083 46.244-14.083 31.861.1 63.723 16.979 81.101 43.148 12.885 19.276 27.367 32.36 44.446 40.051 11.986 5.393 25.17 10.387 37.755 15.182 20.974 7.99 42.648 16.28 62.024 27.266 12.984 7.391 25.07 16.68 35.557 27.167Zm-70.115 508.98c8.49-13.48 22.872-26.266 38.054-39.85 7.99-7.191 16.38-14.582 24.17-22.373 15.082-15.081 33.66-39.052 37.155-68.117 3.197-26.568-7.091-52.836-16.28-72.612-14.382-30.962-19.776-60.926-19.976-77.106v-.2l.1-.099c4.495-7.891 9.788-15.182 14.982-22.174 5.693-7.69 11.686-15.681 16.68-25.069C-.97 654.18 4.425 613.829-4.165 576.674c-8.99-39.152-37.354-75.508-75.808-97.381-19.276-10.887-40.95-19.177-61.925-27.167-12.584-4.795-25.768-9.788-37.754-15.182-17.179-7.79-31.961-20.974-44.945-40.351-17.179-25.769-48.741-42.548-80.302-42.748-30.064-.1-66.12 18.777-73.711 53.935-2.896 13.683-4.494 28.465-6.192 42.748-2.098 19.476-4.295 39.651-9.988 58.329-11.187 36.755-35.857 67.817-59.827 97.981-9.089 11.286-18.378 22.972-26.768 34.757-30.063 42.049-47.143 89.691-48.042 134.337-.898 46.444 18.977 92.288 53.236 122.751l-.4.399.4-.399c24.27 21.474 60.926 35.557 100.478 38.353 16.18 1.199 29.963 6.193 45.744 16.58 5.294 3.496 10.787 7.391 16.58 11.386 16.879 11.886 34.458 24.071 52.436 31.063 22.473 8.685 46.244 8.485 57.83-.3l.299-.3.3.3c25.269 18.875 55.133 25.165 88.792 19.075Z" fill="url(#x)"/><path d="M-38.723 514.749c20.375 20.376 34.758 45.545 40.45 72.213 8.39 38.752 1.799 80.502-18.077 114.96-5.593 9.788-12.285 18.278-18.678 26.468-5.793 7.391-11.885 15.081-16.88 23.471-2.496 15.881-.299 45.645 13.784 77.905 9.489 21.674 17.978 45.145 14.982 68.917-3.396 27.966-21.674 50.438-36.356 64.321-8.29 7.891-17.08 15.082-25.469 22.074-13.583 11.186-26.368 21.772-34.558 32.762l-.1.1h-.2c-35.257 4.69-67.418-4.1-93.086-25.571-11.686 6.092-33.859 4.295-54.234-4.295-14.583-6.193-29.265-16.081-43.448-25.669-7.59-5.194-14.782-9.988-21.773-14.183-14.383-8.589-28.066-12.684-44.346-13.383-38.753-1.598-76.507-16.181-100.878-39.153-32.66-30.662-51.038-76.207-49.24-121.752 1.798-43.347 18.977-89.691 48.541-130.641 8.29-11.486 17.479-22.872 26.368-33.959 24.371-30.363 49.44-61.625 60.227-98.78 4.994-17.379 6.991-35.956 8.889-54.034 1.498-15.082 3.196-30.763 6.592-45.145 8.789-36.755 47.043-55.433 78.605-54.434 36.455 1.299 65.22 26.468 82.799 47.442 2.497 2.897 4.794 5.993 7.391 9.189 9.888 12.485 20.076 25.469 36.056 33.26 13.084 6.292 27.567 11.786 41.649 17.079 18.178 6.792 36.956 13.983 53.835 23.272 13.783 7.391 26.368 16.779 37.155 27.566Zm-81.401 502.291c8.19-10.99 20.974-21.575 34.558-32.761 8.39-6.992 17.179-14.183 25.469-22.074 14.582-13.783 32.76-36.156 36.156-63.722 2.796-23.572-5.493-46.843-14.982-68.517-14.183-32.361-16.38-62.524-13.783-78.504v-.2c5.094-8.49 11.186-16.181 16.98-23.771 6.391-8.19 13.083-16.68 18.677-26.468C2.727 666.864 9.219 625.215.929 586.762c-8.79-40.551-37.655-77.806-77.206-99.379-16.78-9.189-35.557-16.381-53.735-23.172-14.083-5.294-28.565-10.787-41.65-17.08-16.18-7.79-26.867-21.473-36.455-33.459-2.597-3.196-4.894-6.292-7.291-9.089-17.579-20.775-46.044-45.844-82.3-47.142-31.162-.999-68.917 17.378-77.706 53.734-3.396 14.383-4.994 29.964-6.592 44.946-1.898 18.078-3.795 36.755-8.889 54.234-10.787 37.354-36.056 68.816-60.427 99.179-8.889 11.087-17.978 22.373-26.368 33.959-29.464 40.85-46.643 86.994-48.441 130.142-1.797 45.345 16.58 90.689 48.941 121.052l-.3.3.3-.3c24.27 22.673 61.725 37.355 100.278 38.953 16.48.699 30.363 4.794 44.845 13.484 6.992 4.195 14.183 8.989 21.774 14.182 14.083 9.489 28.665 19.477 43.148 25.569 23.671 10.088 44.445 9.289 53.734 4.195l.3-.1.2.2c25.768 21.57 57.729 30.36 92.787 25.87Z" fill="url(#y)"/><path d="M-34.228 523.439c20.675 20.674 35.457 46.843 40.95 73.91 8.19 39.951.3 83.198-21.374 118.655-5.294 8.69-11.886 16.081-18.178 23.172-8.29 9.489-16.18 18.378-21.374 29.764-6.392 14.183-6.592 44.146 7.69 79.204 8.49 20.675 16.38 42.748 13.684 64.621-3.296 26.468-21.074 47.243-35.357 59.927-8.89 7.891-18.378 14.982-27.467 21.874-11.785 8.794-22.872 17.084-30.463 25.664l-.1.1h-.199c-37.155 3-70.614-8.09-96.883-32.356-9.588 2.796-28.765 1.198-50.039-8.889-11.386-5.394-23.172-13.184-34.458-20.675-9.289-6.093-18.078-11.886-26.667-16.48-13.284-7.092-26.368-10.188-43.548-10.388-38.353-.399-76.007-15.281-100.577-39.651l-.3-.3c-30.563-30.563-47.143-75.308-44.446-119.754 2.497-42.449 19.476-86.196 48.941-126.447 8.19-11.186 17.179-22.373 25.868-33.06 24.77-30.562 50.339-62.324 60.726-100.078 4.495-16.28 6.193-33.559 7.791-50.339 1.498-15.681 3.196-31.961 6.991-46.943 9.888-37.854 49.84-56.231 82.5-54.134 30.064 1.898 60.227 20.275 84.597 51.837 2.497 3.096 4.795 6.392 7.291 9.888 9.489 13.084 19.377 26.768 35.158 34.958 13.683 7.091 29.164 12.784 44.146 18.377 15.881 5.893 32.161 11.986 46.943 19.776 14.083 7.092 26.967 16.58 38.154 27.767Zm-92.488 495.801c7.691-8.49 18.777-16.78 30.563-25.573 9.089-6.892 18.478-13.883 27.367-21.774 14.182-12.584 31.861-33.059 35.157-59.327 2.697-21.674-5.294-43.647-13.683-64.222-14.383-35.158-14.183-65.521-7.691-79.803 5.194-11.387 13.084-20.476 21.474-29.864 6.392-7.191 12.784-14.582 18.078-23.072C6.223 680.348 14.013 637.4 5.823 597.648c-8.49-41.449-38.553-80.302-78.505-101.476-14.782-7.791-31.062-13.884-46.943-19.776-14.981-5.594-30.462-11.287-44.246-18.478-15.98-8.19-25.868-21.873-35.357-35.157-2.497-3.496-4.894-6.692-7.191-9.788-14.183-18.178-43.847-49.041-84.098-51.538-32.36-1.997-71.812 16.081-81.601 53.435-3.895 14.882-5.493 31.063-6.991 46.744-1.698 16.879-3.396 34.158-7.791 50.538-10.387 37.954-36.056 69.616-60.926 100.278-8.689 10.687-17.678 21.874-25.868 33.06-29.365 40.151-46.244 83.798-48.741 126.047-2.697 44.246 13.883 88.792 44.246 119.155l.3.3-.3.299.3-.299c24.47 24.27 61.825 39.052 99.978 39.452 17.379.2 30.463 3.296 43.847 10.487 8.59 4.594 17.379 10.387 26.668 16.48 11.286 7.491 22.972 15.182 34.358 20.575 21.274 10.088 40.251 11.686 49.64 8.689h.199l.2.2c26.068 24.275 59.428 35.455 96.283 32.365Z" fill="url(#z)"/><path d="M-29.334 532.328c20.874 20.874 35.656 47.442 41.05 75.408 7.89 41.25-1.099 85.796-24.77 122.251-5.993 9.189-13.184 17.379-20.175 25.17-8.89 9.888-17.18 19.176-23.272 30.862-8.29 15.681-11.087 46.643 1.598 80.502l.3.899c6.891 18.278 14.582 38.953 11.985 59.528-2.497 19.676-14.682 39.252-34.358 55.333-9.888 8.09-20.376 14.981-30.463 21.669-9.589 6.4-18.678 12.29-25.469 18.28l-.1.1h-.2c-38.154 1.4-73.61-12.28-99.978-38.651l-.7-.699c-8.689.499-25.868-2.697-45.844-13.284-8.39-4.395-17.179-10.188-25.769-15.781-10.387-6.792-21.074-13.883-31.361-18.577-14.982-6.992-29.265-7.691-42.748-7.391-37.555.799-76.008-14.483-100.378-40.251-28.865-30.463-44.047-74.61-40.451-118.356 3.296-40.851 20.375-83.099 49.34-122.252 8.09-10.887 16.979-21.773 25.469-32.261 25.169-30.962 51.238-62.823 61.325-101.277 3.995-15.181 5.494-31.461 6.892-47.042 1.498-16.281 2.996-32.96 7.391-48.342 4.894-17.279 16.879-32.26 33.859-42.049 15.681-9.088 34.758-13.383 52.536-11.785 42.748 3.795 72.612 36.855 86.395 56.231 2.397 3.396 4.694 6.892 7.191 10.588 9.089 13.683 18.578 27.966 34.159 36.555 13.983 7.791 30.163 13.584 45.744 19.177 13.783 4.994 28.166 10.187 41.15 16.779a153.64 153.64 0 0 1 39.652 28.666Zm-103.874 489.202c6.792-5.99 15.781-11.98 25.469-18.27 10.088-6.697 20.575-13.588 30.463-21.678 19.376-15.981 31.462-35.457 34.059-54.834 2.596-20.375-5.194-40.95-11.986-59.128l-.3-.899C-68.286 832.762-65.39 801.5-57.1 785.62c6.192-11.586 14.882-21.474 23.371-30.963 6.992-7.79 14.083-15.88 20.076-25.069 23.471-36.256 32.46-80.602 24.57-121.652-8.19-43.148-38.853-82.8-79.903-103.475-12.984-6.592-27.267-11.685-41.15-16.779-15.581-5.593-31.661-11.486-45.844-19.277-15.681-8.689-25.17-22.972-34.358-36.755-2.497-3.696-4.795-7.191-7.192-10.587-13.883-19.277-43.447-52.237-85.895-55.932-33.36-2.997-74.61 14.682-85.496 53.335-4.295 15.281-5.793 31.961-7.292 48.241-1.498 15.681-2.996 31.961-6.891 47.243-9.988 38.553-36.156 70.514-61.426 101.576-8.489 10.488-17.378 21.375-25.469 32.261-28.865 39.053-45.844 81.202-49.14 121.852-3.595 43.547 11.386 87.494 40.251 117.757 24.271 25.469 62.424 40.85 99.879 39.951 13.483-.299 27.966.4 43.047 7.491 10.288 4.894 21.075 11.886 31.462 18.678 8.49 5.493 17.279 11.286 25.569 15.78 19.976 10.588 37.155 13.784 45.645 13.284h.199l.1.1.799.799c25.869 25.871 61.026 39.451 98.98 38.051Z" fill="url(#A)"/><path d="M-24.34 541.117c21.074 21.075 35.756 48.142 41.05 77.007 7.69 42.448-2.598 88.292-27.967 125.847-6.691 9.888-14.582 18.577-22.273 27.067-8.889 9.888-18.078 20.075-25.169 31.761-9.488 15.881-16.38 46.943-4.495 81.801a67.311 67.311 0 0 1 1.599 4.794c5.693 16.68 11.585 33.759 9.288 51.437-3.296 25.07-22.273 42.648-33.26 50.839-11.386 8.59-23.87 15.48-34.957 21.57-6.891 3.9-13.483 7.49-18.877 11.09l-.1.1h-.2c-40.55-.2-77.605-16.68-104.473-46.144-11.186-2.198-26.867-8.889-41.649-17.878-5.493-3.296-10.987-6.992-16.879-10.887-11.886-7.891-24.171-16.181-36.256-20.875-13.684-5.493-27.067-5.293-41.85-4.295-37.354 2.198-75.807-13.483-100.178-40.65-27.067-30.263-40.55-73.91-35.956-116.658 4.095-39.253 21.374-80.103 49.74-118.057 7.99-10.587 16.579-21.174 24.969-31.362 25.569-31.162 52.137-63.523 61.825-102.375 3.496-14.283 4.794-29.365 6.093-44.047 1.398-16.58 2.796-33.759 7.69-49.44 5.394-17.578 18.078-32.66 35.657-42.448 16.28-9.089 36.256-13.084 54.534-10.987 32.86 3.696 65.021 25.869 88.192 60.627a281.835 281.835 0 0 1 7.192 11.386c8.689 14.282 17.778 28.964 33.159 38.153 14.083 8.29 30.463 14.083 46.444 19.676 12.185 4.195 24.67 8.69 36.156 14.183 15.381 6.992 29.165 16.98 40.95 28.765Zm-115.261 482.613c5.394-3.6 11.886-7.09 18.778-10.99 10.986-6.19 23.471-13.08 34.757-21.57 10.987-8.19 29.664-25.669 33.06-50.439 2.297-17.478-3.596-34.558-9.289-51.038-.599-1.598-1.098-3.296-1.598-4.794-11.885-35.057-4.994-66.319 4.595-82.3 6.991-11.785 16.18-21.973 25.17-31.761 7.69-8.49 15.58-17.179 22.172-26.967 25.27-37.455 35.457-83.199 27.866-125.348-8.09-44.845-39.252-85.196-81.3-105.472-11.487-5.493-24.072-9.888-36.157-14.182-15.98-5.594-32.46-11.287-46.543-19.776-15.382-9.189-24.57-23.971-33.36-38.354-2.397-3.995-4.694-7.69-7.191-11.386-23.072-34.658-55.033-56.631-87.693-60.327-34.858-3.895-77.806 14.882-89.392 53.036-4.794 15.581-6.192 32.76-7.591 49.34-1.298 14.682-2.497 29.864-6.092 44.246-9.688 39.053-36.256 71.413-61.925 102.675-8.39 10.188-16.979 20.775-24.97 31.362-28.265 37.854-45.444 78.605-49.539 117.657-4.495 42.648 8.889 85.996 35.856 116.159 24.271 27.067 62.424 42.648 99.579 40.451 14.882-.899 28.266-1.099 42.149 4.395 11.985 4.794 24.37 12.984 36.356 20.974 5.892 3.895 11.386 7.591 16.779 10.787 14.882 8.889 30.363 15.581 41.55 17.778l.1.1.099.1c26.568 29.164 63.423 45.444 103.774 45.644Z" fill="url(#B)"/><path d="M-19.746 549.707a154.283 154.283 0 0 1 12.984 14.782c14.682 19.077 24.47 41.25 28.265 64.022 7.292 43.647-3.995 90.889-31.262 129.542-7.39 10.588-15.98 19.976-24.47 29.065-9.388 10.188-18.977 20.775-26.867 32.66-11.786 18.178-20.775 49.54-10.587 83.099.699 2.497 1.598 5.194 2.297 7.691 4.594 14.383 9.189 29.165 7.291 44.246-2.397 17.379-14.083 34.259-32.26 46.446-13.784 9.19-29.365 15.78-41.75 20.97-3.496 1.5-6.892 2.9-9.888 4.3h-.2c-41.849-1.9-81.301-21.18-108.168-53.038-10.288-4.894-23.672-12.885-37.455-22.273-2.497-1.698-4.894-3.496-7.491-5.294-12.784-8.989-27.266-19.276-41.449-23.871-12.585-3.995-24.97-2.796-38.054-1.698l-2.896.3c-36.656 3.496-75.908-12.785-99.979-41.25-12.585-14.982-22.173-33.559-27.566-53.535-5.294-19.676-6.692-40.85-3.996-61.325 4.894-37.655 22.173-76.907 50.04-113.762 7.79-10.388 16.38-20.575 24.57-30.563 26.068-31.462 53.035-64.022 62.324-103.674 3.096-13.484 4.195-27.567 5.194-41.35 1.298-16.879 2.596-34.358 7.79-50.339 5.893-17.878 19.077-33.059 37.455-42.848 17.079-9.089 37.654-12.884 56.531-10.387 34.458 4.694 67.318 28.366 89.991 65.021 2.497 3.895 4.794 8.19 7.191 12.185 8.39 14.782 17.079 30.064 32.061 39.652 13.883 8.889 30.463 14.482 46.543 19.776 10.687 3.496 21.674 7.291 31.862 11.886a150.516 150.516 0 0 1 41.949 29.564Zm-126.347 476.323c2.997-1.4 6.293-2.7 9.788-4.2 13.084-5.49 27.966-11.78 41.75-20.97 17.878-12.087 29.564-28.767 31.86-46.046 1.998-14.982-2.696-29.664-7.19-43.946l-2.397-7.791c-10.088-33.859-1.1-65.42 10.686-83.598 7.691-11.886 17.48-22.473 26.768-32.76 8.39-9.189 16.98-18.578 24.47-29.065 27.167-38.553 38.553-85.696 31.162-129.243-7.89-46.643-39.552-87.893-82.7-107.469-10.187-4.595-21.073-8.29-31.86-11.886-16.181-5.393-32.761-10.987-46.644-19.876-15.081-9.688-23.871-25.069-32.261-39.851-2.297-4.095-4.694-8.29-7.091-12.086-22.672-36.455-55.333-60.127-89.691-64.721-35.856-4.894-80.502 13.583-93.386 52.836-5.194 15.781-6.493 33.259-7.791 50.139-.999 13.783-2.197 27.966-5.294 41.449-9.188 39.752-36.255 72.412-62.424 103.974-8.29 9.888-16.779 20.176-24.57 30.563-27.766 36.755-45.045 76.008-49.939 113.462-5.394 41.749 6.292 84.597 31.562 114.461 23.871 28.266 62.823 44.446 99.379 41.05l2.896-.3c13.184-1.198 25.569-2.397 38.354 1.599 14.182 4.594 28.865 14.881 41.649 23.87 2.597 1.798 4.994 3.596 7.491 5.294 13.883 9.488 27.067 17.479 37.454 22.273 26.968 31.758 66.32 50.938 107.969 52.838Z" fill="url(#C)"/><path d="M-15.052 558.196c21.574 21.574 36.656 50.039 41.45 80.602 7.091 44.846-5.493 93.387-34.558 133.238-8.19 11.187-17.579 21.374-26.768 31.162-9.788 10.587-19.875 21.474-28.365 33.56-17.679 25.269-23.871 56.83-16.78 84.497.8 3.196 1.798 6.592 2.797 9.788 3.596 12.385 7.291 25.07 5.493 37.854-2.197 16.18-13.883 31.863-31.162 41.953-17.479 10.28-35.557 16.78-49.639 17.87-43.847 3.3-79.304-27.76-111.964-59.823-5.294-5.294-12.485-10.687-20.575-16.979-4.095-3.097-8.39-6.393-12.685-9.888-13.384-10.787-29.165-22.573-44.945-26.368-10.987-2.597-21.474-1.099-32.761.599-2.397.399-4.894.699-7.391.999-17.978 2.397-37.154-.4-54.933-7.991-17.678-7.49-33.159-19.176-44.546-33.759-11.985-15.181-20.475-33.059-25.169-53.335-4.495-19.276-5.194-39.951-1.998-59.927 5.693-36.456 22.673-73.211 50.439-109.567 7.691-10.087 15.981-19.975 24.071-29.664 26.568-31.761 54.034-64.621 62.823-104.772 2.797-12.585 3.596-25.969 4.495-38.853 1.099-17.079 2.297-34.858 7.99-50.938 6.393-18.178 20.376-33.559 39.253-43.248 17.878-9.089 39.252-12.684 58.529-9.588 18.677 2.897 36.555 10.987 53.035 24.071 14.982 11.785 28.366 27.566 38.653 45.245a319.781 319.781 0 0 1 7.091 13.084c8.091 15.281 16.381 31.162 31.063 41.25 13.483 9.288 30.063 14.482 46.044 19.676 9.388 2.996 19.076 6.092 28.066 9.888 16.08 6.891 30.563 16.979 42.947 29.364Zm-458.642 326.603c23.971 23.971 58.329 36.356 90.789 32.061 2.497-.299 4.895-.699 7.391-.999 11.287-1.697 21.874-3.296 32.96-.599 15.981 3.796 31.662 15.681 45.245 26.468 4.395 3.596 8.59 6.792 12.685 9.888 8.19 6.192 15.281 11.686 20.575 16.979 32.56 31.963 68.017 63.023 111.664 59.723 13.883-1.09 31.961-7.59 49.34-17.77 17.08-10.09 28.566-25.573 30.863-41.653 1.698-12.685-1.998-25.369-5.493-37.654-.9-3.296-1.998-6.592-2.797-9.788-3.796-14.982-3.995-30.563-.3-46.244 3.097-13.683 9.09-27.067 17.18-38.553 8.49-12.086 18.577-22.972 28.365-33.559 9.189-9.789 18.577-19.976 26.767-31.163C20.505 732.185 32.99 683.744 26 638.998 18.508 591.156-14.552 548.108-58 529.431c-8.99-3.795-18.678-6.891-28.066-9.888-16.081-5.094-32.661-10.287-46.244-19.676-14.782-10.188-23.072-26.068-31.262-41.45-2.297-4.294-4.595-8.789-6.992-12.984-22.173-38.353-55.532-63.523-91.488-69.116-36.756-5.793-83.299 12.385-97.282 52.536-5.593 15.981-6.792 33.759-7.891 50.839-.899 12.884-1.698 26.268-4.594 38.952-8.789 40.351-36.356 73.311-62.924 105.072-8.09 9.689-16.479 19.677-24.07 29.664-27.767 36.157-44.646 73.012-50.439 109.368-6.492 41.05 3.696 83.198 27.067 112.763 2.597 3.196 5.493 6.292 8.49 9.288Z" fill="url(#D)"/><path d="M-10.058 566.786c21.674 21.674 36.855 50.839 41.45 82.4C38.182 695.13 24.4 745.07-6.464 786.12c-8.889 11.885-19.176 22.772-29.164 33.359-10.288 10.887-20.875 22.073-29.864 34.259-11.885 16.08-30.663 48.64-22.872 85.795.799 3.796 1.798 7.591 2.797 11.386 2.696 10.488 5.693 21.275 4.095 32.061-2.298 15.082-13.684 29.46-30.064 37.45-14.682 7.3-31.961 10.99-47.442 10.49-21.674-.9-43.248-7.89-64.422-20.87-18.178-11.189-35.457-26.67-51.437-45.847-10.188-12.185-19.377-22.173-29.165-31.362-14.582-13.783-28.365-21.773-40.95-23.771-9.788-1.598-19.077.5-29.065 2.697-3.296.699-6.692 1.498-10.188 1.998-36.156 6.192-76.107-10.787-99.379-42.249-11.186-15.182-18.877-33.06-22.772-52.936-3.596-18.777-3.696-39.052-.1-58.429 6.392-34.558 23.571-70.114 50.838-105.372 7.491-9.688 15.781-19.376 23.671-28.865 27.068-32.061 55.034-65.22 63.324-106.071 2.397-11.985 3.096-24.47 3.795-36.555.899-17.279 1.997-35.158 7.99-51.338 6.892-18.477 21.574-33.958 41.25-43.647 18.877-9.288 40.451-12.485 60.626-8.889 19.377 3.396 37.754 12.185 54.634 25.869 15.381 12.584 28.865 29.064 38.953 47.742 2.497 4.494 4.794 9.188 7.091 13.883 7.791 15.781 15.781 32.161 30.064 42.848 13.084 9.688 29.364 14.582 45.145 19.176 8.29 2.497 16.78 4.994 24.77 8.19 16.58 6.792 31.561 16.98 44.246 29.664Zm-249.197 413.997c30.962 30.967 65.92 48.537 100.178 49.837 15.381.6 32.66-3.29 47.243-10.48 16.18-7.99 27.666-22.278 29.763-37.159 1.598-10.787-1.298-21.474-3.995-31.962-.999-3.795-1.997-7.59-2.796-11.386-3.097-14.682-2.298-30.263 2.496-46.244 4.096-13.683 11.187-27.366 20.376-39.951 9.089-12.285 19.676-23.472 29.963-34.358 9.988-10.587 20.276-21.474 29.065-33.26 30.763-40.95 44.546-90.69 37.754-136.634-7.39-49.939-40.95-93.686-85.396-111.564-7.99-3.196-16.48-5.693-24.77-8.19-15.88-4.695-32.161-9.589-45.245-19.277-14.383-10.787-22.473-27.067-30.163-42.948-2.198-4.594-4.595-9.388-6.992-13.783-21.474-39.652-56.331-67.118-93.287-73.511-42.947-7.59-87.493 15.382-101.177 52.237-5.992 16.18-7.091 34.059-8.09 51.238-.699 12.085-1.398 24.57-3.895 36.655-8.39 40.95-36.356 74.11-63.523 106.271-7.99 9.389-16.08 19.077-23.571 28.765-27.267 35.257-44.446 70.614-50.838 105.172-7.591 40.95.699 81.401 22.772 111.065 23.272 31.462 63.023 48.242 98.98 42.049a306.063 306.063 0 0 0 10.187-1.997c9.888-2.098 19.377-4.195 29.165-2.597 12.784 1.997 26.568 9.988 41.25 23.871 9.788 9.188 19.077 19.276 29.164 31.362 5.194 5.992 10.188 11.585 15.382 16.779Z" fill="url(#E)"/><path d="M-5.564 575.076c4.795 4.794 9.29 9.888 13.384 15.381 15.082 20.276 24.97 44.147 28.465 69.016 3.297 24.071 1.1 49.041-6.492 74.01-7.091 23.472-19.176 46.544-34.657 66.619-9.689 12.485-20.875 24.271-31.662 35.457-10.587 11.187-21.674 22.673-31.262 35.058-16.28 20.874-34.358 52.935-28.965 87.094.7 4.095 1.598 8.19 2.597 12.185 2.098 8.889 4.295 17.878 2.997 26.967-2.198 13.987-13.584 26.967-29.065 33.057-12.285 4.7-27.167 5.8-45.345 3-23.272-3.5-46.543-11.99-67.118-24.77-20.675-12.685-38.753-29.565-52.337-48.741-2.996-4.195-5.893-8.69-8.589-12.985-4.994-7.79-10.188-15.78-16.381-22.972-11.186-12.784-24.27-20.275-36.955-20.974-8.989-.599-17.778 1.997-26.268 4.494-3.895 1.099-7.99 2.398-11.985 3.197-17.878 3.895-37.155 1.598-55.433-6.692-17.379-7.791-32.96-20.575-43.747-36.156-20.375-29.365-27.067-69.416-18.477-109.767 7.091-33.26 23.871-66.419 51.238-101.177 7.391-9.389 15.381-18.777 23.171-27.966 27.567-32.361 56.032-65.82 63.923-107.27 2.097-11.286 2.696-23.072 3.196-34.358.799-17.379 1.698-35.257 8.09-51.637 7.491-18.677 22.772-34.358 43.048-44.047 19.676-9.288 41.849-12.285 62.524-8.19 38.653 7.491 74.309 36.756 95.384 78.205 2.397 4.795 4.794 9.788 6.991 14.782 7.491 16.281 15.082 33.06 29.065 44.247 12.485 10.087 28.365 14.382 43.747 18.577 7.191 1.998 14.782 3.995 21.873 6.692 16.58 6.392 31.861 16.48 45.045 29.664Zm-260.383 406.606c26.967 26.968 62.923 45.548 100.478 51.138 18.078 2.7 32.86 1.7 45.145-3 15.381-5.99 26.668-18.87 28.765-32.757 1.398-8.989-.8-17.978-2.897-26.867-.998-3.996-1.997-8.19-2.696-12.285-5.394-34.359 12.784-66.52 29.064-87.394 9.589-12.385 20.675-23.871 31.362-35.158 10.687-11.286 21.974-22.972 31.662-35.456 32.56-42.149 47.542-93.287 41.05-140.33-7.091-51.238-42.049-96.982-86.795-113.562-7.09-2.697-14.582-4.594-21.873-6.692-15.381-4.195-31.362-8.589-43.847-18.677-13.883-11.286-21.673-28.066-29.064-44.446-2.298-4.894-4.495-9.888-6.892-14.682-20.975-41.35-56.531-70.514-95.084-77.905-43.947-8.59-90.191 14.282-105.173 52.036-6.492 16.281-7.391 34.159-8.09 51.438-.599 11.386-.999 23.172-3.196 34.558-7.89 41.649-36.356 75.109-64.022 107.569-7.691 9.089-15.781 18.577-23.172 27.966-27.367 34.758-44.046 67.818-51.238 100.977-8.589 40.152-1.997 80.103 18.378 109.467 22.673 32.86 63.323 50.339 98.78 42.648 4.095-.898 8.09-2.097 11.985-3.196 8.49-2.497 17.479-5.093 26.468-4.494 12.785.799 26.069 8.29 37.155 21.174 6.193 7.191 11.386 15.182 16.38 22.972 2.697 4.295 5.593 8.789 8.59 12.984 5.493 7.691 11.885 15.082 18.777 21.974Z" fill="url(#F)"/></g><defs><linearGradient id="a" x1="-508.594" y1="976.536" x2="120.536" y2="347.406" gradientUnits="userSpaceOnUse"><stop stop-color="#4AFEBF"/><stop offset="1" stop-color="#51EEDA"/></linearGradient><linearGradient id="b" x1="-506.111" y1="973.162" x2="106.807" y2="360.244" gradientUnits="userSpaceOnUse"><stop stop-color="#4AFEBF"/><stop offset="1" stop-color="#51EEDA"/></linearGradient><linearGradient id="c" x1="-504.044" y1="970.807" x2="93.379" y2="373.384" gradientUnits="userSpaceOnUse"><stop stop-color="#4AFEBF"/><stop offset="1" stop-color="#51EEDA"/></linearGradient><linearGradient id="d" x1="-501.795" y1="967.185" x2="79.409" y2="385.981" gradientUnits="userSpaceOnUse"><stop stop-color="#4AFEBF"/><stop offset="1" stop-color="#51EEDA"/></linearGradient><linearGradient id="e" x1="-499.764" y1="963.841" x2="65.568" y2="398.508" gradientUnits="userSpaceOnUse"><stop stop-color="#4AFEBF"/><stop offset="1" stop-color="#51EEDA"/></linearGradient><linearGradient id="f" x1="-497.95" y1="960.405" x2="51.474" y2="410.982" gradientUnits="userSpaceOnUse"><stop stop-color="#4AFEBF"/><stop offset="1" stop-color="#51EEDA"/></linearGradient><linearGradient id="g" x1="-496.546" y1="956.5" x2="37.039" y2="422.915" gradientUnits="userSpaceOnUse"><stop stop-color="#4AFEBF"/><stop offset="1" stop-color="#51EEDA"/></linearGradient><linearGradient id="h" x1="-495.048" y1="952.98" x2="22.744" y2="435.188" gradientUnits="userSpaceOnUse"><stop stop-color="#4AFEBF"/><stop offset="1" stop-color="#51EEDA"/></linearGradient><linearGradient id="i" x1="-493.557" y1="949.131" x2="8.581" y2="446.993" gradientUnits="userSpaceOnUse"><stop stop-color="#4AFEBF"/><stop offset="1" stop-color="#51EEDA"/></linearGradient><linearGradient id="j" x1="-492.367" y1="945.521" x2="-5.713" y2="458.867" gradientUnits="userSpaceOnUse"><stop stop-color="#4AFEBF"/><stop offset="1" stop-color="#51EEDA"/></linearGradient><linearGradient id="k" x1="-490.038" y1="942.593" x2="-18.997" y2="471.552" gradientUnits="userSpaceOnUse"><stop stop-color="#4AFEBF"/><stop offset="1" stop-color="#51EEDA"/></linearGradient><linearGradient id="l" x1="-488.721" y1="938.86" x2="-24.2" y2="474.339" gradientUnits="userSpaceOnUse"><stop stop-color="#4AFEBF"/><stop offset="1" stop-color="#51EEDA"/></linearGradient><linearGradient id="m" x1="-488.503" y1="934.753" x2="-28.341" y2="474.592" gradientUnits="userSpaceOnUse"><stop stop-color="#4AFEBF"/><stop offset="1" stop-color="#51EEDA"/></linearGradient><linearGradient id="n" x1="-487.517" y1="930.287" x2="-32.279" y2="475.049" gradientUnits="userSpaceOnUse"><stop stop-color="#4AFEBF"/><stop offset="1" stop-color="#51EEDA"/></linearGradient><linearGradient id="o" x1="-485.194" y1="927.884" x2="-34.417" y2="477.107" gradientUnits="userSpaceOnUse"><stop stop-color="#4AFEBF"/><stop offset="1" stop-color="#51EEDA"/></linearGradient><linearGradient id="p" x1="-481.988" y1="926.5" x2="-35.703" y2="480.215" gradientUnits="userSpaceOnUse"><stop stop-color="#4AFEBF"/><stop offset="1" stop-color="#51EEDA"/></linearGradient><linearGradient id="q" x1="-478.746" y1="925.455" x2="-36.702" y2="483.411" gradientUnits="userSpaceOnUse"><stop stop-color="#4AFEBF"/><stop offset="1" stop-color="#51EEDA"/></linearGradient><linearGradient id="r" x1="-475.798" y1="924.036" x2="-38.135" y2="486.373" gradientUnits="userSpaceOnUse"><stop stop-color="#4AFEBF"/><stop offset="1" stop-color="#51EEDA"/></linearGradient><linearGradient id="s" x1="-472.742" y1="922.636" x2="-39.404" y2="489.298" gradientUnits="userSpaceOnUse"><stop stop-color="#4AFEBF"/><stop offset="1" stop-color="#51EEDA"/></linearGradient><linearGradient id="t" x1="-469.986" y1="921.866" x2="-40.509" y2="492.388" gradientUnits="userSpaceOnUse"><stop stop-color="#4AFEBF"/><stop offset="1" stop-color="#51EEDA"/></linearGradient><linearGradient id="u" x1="-467.159" y1="920.919" x2="-41.666" y2="495.427" gradientUnits="userSpaceOnUse"><stop stop-color="#4AFEBF"/><stop offset="1" stop-color="#51EEDA"/></linearGradient><linearGradient id="v" x1="-464.124" y1="919.58" x2="-42.916" y2="498.371" gradientUnits="userSpaceOnUse"><stop stop-color="#4AFEBF"/><stop offset="1" stop-color="#51EEDA"/></linearGradient><linearGradient id="w" x1="-461.693" y1="918.396" x2="-44.39" y2="501.093" gradientUnits="userSpaceOnUse"><stop stop-color="#4AFEBF"/><stop offset="1" stop-color="#51EEDA"/></linearGradient><linearGradient id="x" x1="-459.074" y1="917.598" x2="-45.476" y2="504.001" gradientUnits="userSpaceOnUse"><stop stop-color="#4AFEBF"/><stop offset="1" stop-color="#51EEDA"/></linearGradient><linearGradient id="y" x1="-455.35" y1="918.029" x2="-45.397" y2="508.076" gradientUnits="userSpaceOnUse"><stop stop-color="#4AFEBF"/><stop offset="1" stop-color="#51EEDA"/></linearGradient><linearGradient id="z" x1="-451.74" y1="918.739" x2="-45.334" y2="512.333" gradientUnits="userSpaceOnUse"><stop stop-color="#4AFEBF"/><stop offset="1" stop-color="#51EEDA"/></linearGradient><linearGradient id="A" x1="-448.295" y1="919.447" x2="-45.255" y2="516.407" gradientUnits="userSpaceOnUse"><stop stop-color="#4AFEBF"/><stop offset="1" stop-color="#51EEDA"/></linearGradient><linearGradient id="B" x1="-444.581" y1="920.336" x2="-44.852" y2="520.606" gradientUnits="userSpaceOnUse"><stop stop-color="#4AFEBF"/><stop offset="1" stop-color="#51EEDA"/></linearGradient><linearGradient id="C" x1="-440.761" y1="920.864" x2="-44.675" y2="524.778" gradientUnits="userSpaceOnUse"><stop stop-color="#4AFEBF"/><stop offset="1" stop-color="#51EEDA"/></linearGradient><linearGradient id="D" x1="-436.964" y1="922.033" x2="-44.09" y2="529.158" gradientUnits="userSpaceOnUse"><stop stop-color="#4AFEBF"/><stop offset="1" stop-color="#51EEDA"/></linearGradient><linearGradient id="E" x1="-433.52" y1="923.22" x2="-43.572" y2="533.272" gradientUnits="userSpaceOnUse"><stop stop-color="#4AFEBF"/><stop offset="1" stop-color="#51EEDA"/></linearGradient><linearGradient id="F" x1="-429.79" y1="924.296" x2="-43.067" y2="537.573" gradientUnits="userSpaceOnUse"><stop stop-color="#4AFEBF"/><stop offset="1" stop-color="#51EEDA"/></linearGradient></defs></svg>