<svg width="378" height="691" fill="none" xmlns="http://www.w3.org/2000/svg"><g opacity=".3"><path d="M432.451 656.344c-2.42.648-4.954 1.231-7.422 1.7-36.371 6.96-77.515-3.535-112.944-28.916-29.207-20.802-54.427-50.744-77.238-91.417-6.104-10.95-11.994-22.533-17.788-33.758-20.227-39.637-41.132-80.725-77.744-105.5-9.973-6.743-21.05-12.229-31.672-17.453-16.388-8.098-33.32-16.434-46.44-29.539-15.176-15.051-24.246-36.35-25.63-59.805-1.283-22.713 4.62-45.142 16.583-63.238 22.393-33.668 64.527-55.334 112.655-57.854 5.577-.341 11.339-.348 16.809-.373 18.386-.219 37.448-.427 53.47-8.755 14.325-7.489 24.729-20.652 34.666-33.402 4.715-6.067 9.651-12.385 14.958-18.034 16.985-18.001 39.887-30.767 66.211-36.86 25.517-5.876 52.339-5.09 77.627 2.161 47.974 13.757 91.414 49.672 119.227 98.612 8.212 14.516 15.069 30.067 21.758 44.991 6.551 14.769 13.336 30.051 21.411 44.412 13.639 24.013 37.114 54.614 71.777 63.868 4.138 1.1 8.472 1.86 12.717 2.644 9.303 1.735 18.989 3.463 27.227 8.749 12.831 8.09 21.01 24.632 20.672 42.015-.24 13.803-5.082 28.358-14.848 44.616-12.504 20.739-29.841 39.219-50.04 53.47-20.289 14.274-43.619 24.368-67.422 29.113-5.295 1.035-10.638 1.89-15.801 2.697-9.407 1.464-19.083 3-28.309 5.856-16.324 5.047-28.46 14.255-34.119 25.762-3.983 8.081-4.928 17.461-5.856 26.548-.401 4.238-.868 8.59-1.652 12.835-6.187 34.994-35.644 64.887-72.843 74.855ZM129.798 177.928c-32.448 8.695-59.582 26.821-76.027 51.498-25.138 37.767-21.297 90.825 8.782 120.617 12.957 12.86 29.8 21.22 45.96 29.187 10.736 5.289 21.813 10.775 31.9 17.583 36.977 25.062 58.019 66.306 78.319 106.211 5.68 11.16 11.57 22.743 17.674 33.693 22.65 40.428 47.707 70.125 76.687 90.796 35.041 25.004 75.688 35.44 111.498 28.535a101.85 101.85 0 0 0 7.332-1.676c36.571-9.799 65.431-39.052 71.404-73.412.718-4.132 1.185-8.484 1.586-12.722.97-9.291 1.891-18.76 6.071-27.182 5.897-12.051 18.343-21.535 35.205-26.726 9.316-2.88 19.082-4.44 28.488-5.904 5.164-.807 10.507-1.662 15.802-2.696 47.761-9.628 91.253-40.207 116.351-81.709 9.568-15.918 14.369-30.27 14.616-43.69.213-16.773-7.505-32.67-19.858-40.408-7.962-4.976-17.468-6.752-26.568-8.444-4.245-.784-8.604-1.634-12.831-2.711-35.273-9.378-59.137-40.355-72.872-64.727-8.165-14.336-14.884-29.732-21.459-44.591-6.599-14.948-13.432-30.409-21.621-44.835-27.578-48.427-70.564-84.08-118.107-97.664-51.73-14.864-108.763-1.119-141.956 34.195-5.242 5.535-10.088 11.829-14.827 17.806-10.093 12.888-20.537 26.254-35.287 33.953-16.446 8.538-35.687 8.794-54.277 8.972-5.559.048-11.208.121-16.784.462-12.188.768-23.997 2.587-35.201 5.589Z" fill="url(#a)"/><path d="M425.313 645.479a120.047 120.047 0 0 1-7.96 1.845c-35.612 6.564-75.74-3.723-110.074-28.244-28.501-20.319-53.056-49.574-75.042-89.316-5.804-10.55-11.436-21.53-16.883-32.175-19.67-38.633-39.97-78.539-75.076-103.429-9.363-6.618-19.585-12.141-29.466-17.467-15.265-8.207-31.187-16.718-43.534-29.453-29.159-29.943-32.515-82.266-7.812-119.147 21.917-32.58 62.933-53.754 109.776-56.41 5.397-.294 11.022-.456 16.467-.57 17.867-.368 36.409-.725 51.845-9.088 13.942-7.483 24.238-20.329 34.158-32.786 4.96-6.229 10.165-12.619 15.741-18.34 16.949-17.415 39.589-29.726 65.358-35.382 25.027-5.553 51.312-4.622 76.037 2.683 46.941 13.841 89.495 49.321 116.685 97.372 7.913 14.115 14.536 29.153 21.016 43.653 6.784 15.282 13.827 31.168 22.291 45.904 13.399 23.118 36.544 52.846 70.951 62.937 3.528.976 7.032 1.862 10.536 2.749 10.194 2.552 19.845 4.866 28.047 10.738 11.894 8.533 18.578 24.515 17.582 41.594-.833 13.385-5.801 27.11-15.819 43.147-23.953 38.602-62.731 67.054-107.19 78.967-2.51.672-5.133 1.279-7.667 1.862-6.615 1.484-13.44 2.544-20.062 3.646-8.552 1.427-17.397 2.836-25.644 5.046-12.1 3.242-27.951 9.699-35.115 22.763-4.151 7.453-5.175 16.181-6.181 24.617-.432 3.766-.905 7.736-1.695 11.598-3.458 17.931-13.176 34.369-27.877 47.627-12.402 10.72-27.438 18.784-43.393 23.059ZM135.687 178.752c-31.821 8.527-58.49 26.24-74.72 50.283-24.309 36.199-21.037 87.489 7.57 116.81 12.186 12.491 27.223 20.566 43.056 29.101 9.971 5.302 20.217 10.915 29.693 17.598 35.447 25.088 55.909 65.238 75.627 104.051 5.447 10.645 10.989 21.649 16.883 32.175 21.824 39.497 46.217 68.507 74.515 88.785 33.97 24.234 73.577 34.372 108.741 27.928 38.822-7.136 70.743-36.44 77.474-71.196.724-3.748 1.222-7.628 1.654-11.395 1.047-8.639 2.113-17.57 6.371-25.34 7.492-13.632 23.856-20.323 36.226-23.637 8.426-2.258 17.271-3.667 25.823-5.094 6.622-1.102 13.447-2.162 19.972-3.622 47.252-10.452 88.63-39.6 113.723-80.044 9.886-15.811 14.813-29.332 15.563-42.31.96-16.493-5.466-31.872-16.791-40.077-7.862-5.675-17.333-8.037-27.39-10.434-3.504-.887-7.097-1.749-10.625-2.725-35.017-10.216-58.461-40.344-72.022-63.706-8.578-14.802-15.62-30.688-22.34-46.084-6.389-14.524-12.988-29.472-20.878-43.498-27.003-47.716-69.08-82.844-115.613-96.602-51.102-15.032-105.836-2.384-139.579 32.308l-.64-.597.64.597c-5.487 5.697-10.602 12.064-15.586 18.203-10.075 12.594-20.436 25.554-34.713 33.223-15.861 8.572-34.582 8.977-52.651 9.304-5.356.09-10.981.252-16.378.545-11.626.714-22.939 2.592-33.605 5.45Z" fill="url(#b)"/><path d="M418.713 634.47c-2.958.793-6.03 1.52-9.06 2.044-34.943 6.192-73.965-3.911-107.228-27.662-27.82-19.926-51.597-48.428-72.869-87.304-5.482-10.06-10.856-20.436-15.979-30.592-19.114-37.63-38.946-76.508-72.522-101.424-8.753-6.493-18.12-12.053-27.212-17.302-14.96-8.865-29.102-17.181-40.767-29.522-13.705-14.581-21.74-34.525-22.758-56.252-.987-21.255 4.738-42.195 16.183-59 21.284-31.353 61.297-51.97 106.872-55.055 5.194-.335 10.436-.491 15.589-.622 17.549-.476 35.661-1.006 50.666-9.542 13.446-7.541 23.659-19.981 33.585-32.055 5.295-6.415 10.72-13.056 16.565-18.85 34.139-33.933 88.658-45.947 138.93-30.789 46.109 13.968 87.689 49.037 114.166 96.222 7.728 13.781 14.165 28.484 20.459 42.649 6.905 15.73 14.157 32.04 22.986 47.063 18.604 31.426 43.443 53.495 70.125 62.005 2.308.727 4.706 1.429 7.014 2.156 11.176 3.346 21.742 6.567 30.143 13.539 10.728 8.845 16.217 24.667 14.402 41.198-1.449 12.877-6.635 25.795-16.855 41.791-12.72 19.932-29.394 37.658-48.166 51.142-19.971 14.381-41.557 23.816-64.153 28.045-5.026.963-10.255 1.883-15.395 2.78-10.637 1.89-21.568 3.762-31.996 6.076-18.322 4.045-30.479 10.664-36.135 19.673-4.23 6.802-5.338 14.496-6.506 22.687-.438 3.384-.942 6.881-1.739 10.361-6.586 31.354-33.657 57.246-68.345 66.54ZM141.665 179.552c-31.372 8.406-57.689 25.641-73.525 49.002-23.504 34.543-20.665 84.219 6.358 113.004 11.413 12.121 25.465 20.461 40.287 29.17 9.117 5.339 18.484 10.899 27.351 17.458 33.916 25.113 53.821 64.26 72.982 102.069 5.123 10.155 10.497 20.532 15.979 30.592 21.087 38.541 44.726 66.889 72.384 86.569 32.809 23.489 71.4 33.419 105.895 27.346 38.332-6.812 68.94-33.843 76.3-67.326.732-3.367 1.236-6.864 1.698-10.158 1.126-7.988 2.27-16.268 6.721-23.321 5.918-9.463 18.475-16.382 37.269-20.458 10.428-2.313 21.448-4.21 31.997-6.075 5.05-.873 10.279-1.794 15.305-2.756 44.027-8.147 84.514-36.672 111.094-78.379 10.089-15.769 15.167-28.37 16.575-41.044 1.78-15.944-3.54-31.139-13.79-39.633-8.036-6.685-18.488-9.84-29.461-13.145-2.308-.726-4.706-1.429-7.014-2.155-26.999-8.617-52.293-30.949-71.083-62.709-8.942-15.089-16.105-31.423-23.124-47.219-6.293-14.165-12.706-28.779-20.41-42.47-26.202-46.874-67.417-81.656-113.096-95.451-49.596-15.148-103.463-3.212-137.16 30.219-5.756 5.769-11.205 12.321-16.41 18.711-9.992 12.188-20.36 24.766-34.051 32.469-15.454 8.656-33.834 9.258-51.473 9.757-5.153.132-10.395.288-15.475.688a162.454 162.454 0 0 0-32.123 5.245Z" fill="url(#c)"/><path d="M411.754 623.558c-3.227.864-6.502 1.55-9.801 2.145-34.185 5.798-72.255-3.984-104.358-26.989-26.887-19.311-49.999-47.127-70.584-85.227-4.972-9.235-9.861-18.877-14.654-28.161-18.718-36.871-38.09-75.104-70.362-100.177-8.03-6.302-16.495-11.72-24.642-17.03-14.064-9.105-27.22-17.685-38.137-29.747-12.869-14.324-20.441-33.623-21.31-54.429-.884-20.514 4.854-40.689 15.995-56.836 20.741-30.152 59.661-50.187 104.082-53.636 4.901-.352 10.03-.574 14.889-.723 17.03-.624 34.71-1.327 49.333-9.856 12.861-7.577 23.08-19.634 32.833-31.278 5.539-6.576 11.3-13.403 17.503-19.293l.551.621-.551-.621c34.159-32.785 87.787-44.177 136.618-29.017 45.165 14.03 85.86 48.662 111.559 95.095 7.452 13.471 13.77 27.725 19.878 41.556 7.114 16.155 14.487 32.913 23.794 48.288 18.178 30.195 42.832 51.93 69.299 61.073l.748.28c13.969 4.808 25.947 8.996 34.87 17.557 9.677 9.223 13.873 24.527 11.221 40.801-2.552 15.574-10.868 29.715-17.825 40.322-25 37.921-60.385 64.695-98.39 74.879-3.765 1.008-7.488 1.814-11.235 2.53-7.697 1.39-15.753 2.876-23.451 4.266a2061.719 2061.719 0 0 1-25.471 4.615c-19.434 3.478-31.634 8.861-37.22 16.698-4.422 6.085-5.585 13.217-6.855 20.667-.535 3.025-.955 6.116-1.782 9.124-7.204 29.406-33.381 53.616-66.545 62.503ZM147.619 180.262c-30.834 8.262-56.774 25.108-72.33 47.722-23.028 33.454-20.82 80.417 5.145 109.197 10.69 11.931 23.911 20.397 37.772 29.46 8.147 5.311 16.612 10.728 24.755 17.096 32.548 25.384 52.033 63.683 70.799 100.733 4.704 9.307 9.593 18.949 14.565 28.185 20.513 37.831 43.398 65.515 70.147 84.671 31.738 22.719 69.312 32.441 103.049 26.764 37.125-6.297 67.263-31.857 75.014-63.523.737-2.984 1.272-6.009 1.716-9.011 1.205-7.336 2.427-14.964 7.136-21.414 5.896-8.112 18.406-13.77 38.289-17.369 8.259-1.444 17.032-3.122 25.471-4.615 7.787-1.414 15.753-2.876 23.451-4.266 41.81-7.456 81.383-35.449 108.58-76.649 6.915-10.403 15.076-24.406 17.52-39.664 2.528-15.664-1.501-30.34-10.723-39.301-8.671-8.34-20.536-12.463-34.278-17.138l-.747-.281c-26.785-9.251-51.779-31.182-70.167-61.801-9.307-15.375-16.704-32.223-23.842-48.467-6.108-13.831-12.426-28.086-19.74-41.401-25.579-45.985-65.819-80.355-110.578-94.301-48.286-14.922-101.222-3.812-134.849 28.447-6.114 5.865-11.785 12.669-17.348 19.155-9.909 11.782-20.193 23.952-33.323 31.601-15.023 8.829-32.907 9.49-50.115 10.162-4.86.15-9.988.371-14.89.724-10.519.897-20.708 2.666-30.479 5.284Z" fill="url(#d)"/><path d="M404.998 612.687a108.258 108.258 0 0 1-10.721 2.296c-33.515 5.426-70.48-4.172-101.512-26.407-26.156-18.738-48.539-45.981-68.387-83.125-4.601-8.567-9.095-17.45-13.427-26.088-18.322-36.113-37.161-73.432-68.041-98.686-7.258-5.933-14.527-11.19-21.658-16.293-13.192-9.434-25.678-18.386-35.985-30.322-24.931-28.866-26.654-75.094-4.104-107.46 20.199-28.949 58.092-48.517 101.203-52.191 4.698-.395 9.534-.633 14.279-.848 16.599-.797 33.849-1.673 47.976-10.261 12.388-7.547 22.435-19.173 32.105-30.411 5.85-6.851 11.944-13.864 18.482-19.939 34.023-31.5 86.63-42.042 134.11-26.904 44.221 14.09 83.941 48.312 109.041 93.944 7.267 13.136 13.399 27.056 19.321 40.552 7.348 16.669 14.93 33.851 24.489 49.447 17.866 29.03 42.13 50.388 68.473 60.142 14.723 5.47 26.183 10.95 34.257 19.93 8.512 9.536 11.489 24.59 8.106 40.291-3.198 14.595-11.282 27.809-18.795 38.853-25.347 37.342-59.932 63.517-96.031 73.286-3.675.984-7.308 1.766-10.966 2.458-6.239 1.095-12.633 2.328-18.849 3.513-10.5 2.045-21.382 4.096-31.668 5.507-14.081 1.948-31.155 5.274-38.24 13.609-4.614 5.368-5.856 11.849-7.204 18.647-.541 2.643-1.058 5.375-1.802 7.976-4.202 15.152-13.648 29.019-27.264 39.873-10.683 8.531-23.384 14.912-37.188 18.611Zm-251.31-431.649c-30.297 8.118-55.86 24.575-71.137 46.441-22.133 31.773-20.47 77.057 4.047 105.457 10.17 11.782 22.542 20.667 35.645 30.126 7.131 5.102 14.514 10.426 21.771 16.359 31.132 25.474 50.108 62.949 68.478 99.241 4.309 8.548 8.802 17.431 13.403 25.998 19.8 36.965 42.021 63.963 67.95 82.57 30.667 21.949 67.226 31.463 100.269 26.068 36.366-5.902 65.347-29.327 73.751-59.631.744-2.601 1.195-5.22 1.736-7.863 1.283-6.684 2.674-13.685 7.485-19.394 7.461-8.724 24.039-12.109 39.333-14.19 10.286-1.411 21.144-3.552 31.668-5.507 6.216-1.185 12.7-2.442 18.849-3.513 39.659-6.88 78.253-34.226 105.952-74.984 7.447-10.93 15.465-24.03 18.557-38.308 3.323-15.205.466-29.811-7.722-38.857-7.823-8.76-19.055-14.108-33.575-19.536-26.66-9.861-51.176-31.441-69.227-60.805-9.673-15.661-17.279-32.933-24.627-49.602-5.898-13.407-12.03-27.327-19.183-40.397-24.891-45.208-64.246-79.144-108.15-93.126-47.049-14.966-99.005-4.503-132.586 26.495-6.472 5.962-12.477 12.951-18.327 19.802-9.825 11.375-19.937 23.115-32.505 30.71-14.527 8.888-31.98 9.722-48.782 10.477-4.656.191-9.492.43-14.19.824-10.023.956-19.651 2.671-28.883 5.145Z" fill="url(#e)"/><path d="M398.218 601.726c-3.765 1.009-7.667 1.862-11.641 2.447-32.757 5.03-68.706-4.359-98.643-25.735-25.45-18.255-47.055-44.745-66.214-81.114-4.116-7.831-8.191-15.866-12.103-23.656-17.838-35.378-36.394-72.004-65.906-97.529-6.121-5.277-12.099-10.016-17.872-14.713-12.709-10.141-24.687-19.708-34.57-31.855-11.31-13.878-17.87-31.911-18.347-50.901-.59-19.055 4.97-37.742 15.478-52.662 20.033-28.137 55.805-46.656 98.324-50.748 4.495-.436 9.127-.716 13.58-.949 16.168-.969 32.922-1.904 46.708-10.69 11.826-7.492 21.7-18.687 31.197-29.494 6.274-7.061 12.769-14.374 19.666-20.545 33.976-30.239 85.628-40.044 131.667-24.904 43.276 14.151 82.111 47.937 106.499 92.703 6.991 12.826 12.937 26.412 18.763 39.549 7.445 17.027 15.261 34.724 25.184 50.606 17.44 27.799 41.519 48.823 67.558 59.234 15.704 6.264 26.132 13.269 32.831 22.138 7.436 9.824 9.235 24.425 4.926 39.894-3.804 13.412-11.697 25.903-19.741 37.473-15.498 22.117-47.266 59.162-93.248 71.483a116.926 116.926 0 0 1-11.08 2.393 646.365 646.365 0 0 0-18.645 3.555c-11.128 2.213-22.614 4.522-33.468 5.605-16.09 1.621-32.418 3.787-39.325 10.633-4.717 4.626-6.037 10.456-7.464 16.603-.548 2.26-1.071 4.61-1.821 6.828-8.278 25.755-32.086 46.257-62.293 54.351ZM158.99 181.827c-29.669 7.95-54.164 23.736-69.357 45.195-21.262 30.003-20.032 73.674 2.836 101.651 9.835 11.967 21.724 21.559 34.319 31.634 5.863 4.673 11.84 9.412 17.962 14.689 29.739 25.656 48.343 62.461 66.229 98.018 3.912 7.79 7.987 15.825 12.103 23.657 19.087 36.099 40.554 62.435 65.777 80.558 29.597 21.179 65.049 30.51 97.423 25.486 35.046-5.452 63.491-27.292 72.489-55.738.661-2.195 1.208-4.455 1.755-6.715 1.427-6.147 2.83-12.383 7.947-17.309 7.308-7.145 23.905-9.383 40.264-11.076 10.854-1.083 22.25-3.368 33.378-5.581a629.404 629.404 0 0 1 18.735-3.579c51.355-8.765 86.794-49.676 103.348-73.23 8.002-11.366 15.83-23.743 19.592-36.952 4.226-15.063 2.506-29.012-4.655-38.526-6.538-8.624-16.738-15.498-32.125-21.654-26.446-10.495-50.686-31.764-68.377-59.783-10.038-15.948-17.854-33.644-25.322-50.761-5.736-13.162-11.748-26.634-18.625-39.394-24.203-44.432-62.762-77.908-105.632-91.975-45.567-15.17-96.568-5.444-130.168 24.406l-.55-.621.55.621c-6.831 6.058-13.326 13.37-19.51 20.407-9.653 10.945-19.616 22.164-31.597 29.794-14.121 8.971-31.054 9.954-47.425 10.882-4.453.233-9.086.513-13.49.925-9.641.95-19 2.593-27.874 4.971Z" fill="url(#f)"/><path d="M391.731 590.783c-4.123 1.105-8.408 1.965-12.741 2.645-32.087 4.659-66.906-4.457-95.706-25.176-24.631-17.706-45.595-43.6-64.019-79.012-3.583-6.918-7.214-14.015-10.593-20.891-17.514-34.888-35.699-70.845-63.866-96.73a1860.146 1860.146 0 0 0-11.795-10.674c-13.619-12.106-25.366-22.6-35.513-35.733-21.954-28.51-22.614-70.412-1.632-99.668 19.377-26.999 54.234-44.986 95.51-49.417 4.291-.477 8.631-.775 12.88-1.049 15.738-1.143 32.061-2.25 45.375-11.005 11.175-7.414 20.899-18.089 30.224-28.466 6.674-7.36 13.569-14.972 20.89-21.353l.526.532-.526-.532c33.816-29.043 84.536-38.022 129.201-22.994 42.332 14.211 80.216 47.676 103.981 91.553 6.805 12.491 12.566 25.742 18.206 38.545 7.654 17.451 15.566 35.506 25.945 51.651 17.014 26.568 40.727 47.305 66.707 58.213 14.736 6.235 25.021 14.143 31.381 24.255 8.672 13.72 4.837 30.6 1.745 39.498-4.444 12.815-12.661 24.816-20.801 36.027-29.211 40.491-65.38 66.131-101.788 72.235a635.95 635.95 0 0 0-18.736 3.579c-11.551 2.423-23.575 4.876-34.997 5.631l-2.068.17c-16.234 1.084-31.613 2.13-38.367 7.398-4.933 3.82-6.332 8.998-7.838 14.493-.553 1.878-1.083 3.845-1.726 5.747-8.955 24.303-31.265 42.866-59.859 50.528ZM165.148 182.579c-29.221 7.829-53.34 23.226-68.253 43.939-20.654 28.687-19.917 69.799 1.6 97.754 10.034 13.067 21.756 23.472 35.286 35.602 3.794 3.403 7.815 6.937 11.884 10.65 28.395 26.016 46.628 62.153 64.255 97.106 3.47 6.852 7.011 13.973 10.57 20.801 18.285 35.258 39.088 60.906 63.581 78.457 28.436 20.433 62.961 29.532 94.577 24.903 34.108-5.008 61.347-24.892 71.291-51.958.668-1.812 1.197-3.78 1.751-5.657 1.506-5.496 3.077-11.104 8.41-15.223 7.065-5.544 22.713-6.663 39.239-7.728l2.069-.17c11.308-.821 23.242-3.25 34.818-5.583 6.191-1.275 12.651-2.621 18.825-3.603 36.049-6.009 71.794-31.438 100.72-71.564 7.984-11.074 16.225-22.985 20.538-35.573 2.984-8.582 6.671-24.941-1.564-38.105-6.199-9.868-16.232-17.555-30.651-23.683-26.231-11.128-50.172-31.997-67.462-58.875-10.402-16.235-18.338-34.379-26.016-51.92-5.641-12.803-11.401-26.054-18.093-38.48-23.603-43.631-61.188-76.696-103.113-90.825-44.144-14.879-94.303-5.954-127.743 22.701-7.255 6.267-14.15 13.878-20.735 21.215-9.414 10.4-19.115 21.165-30.559 28.651-13.648 8.941-30.126 10.186-46.157 11.311-4.249.274-8.589.572-12.79 1.025a165.136 165.136 0 0 0-26.278 4.832Z" fill="url(#g)"/><path d="M384.683 579.894a113.28 113.28 0 0 1-13.393 2.724c-31.329 4.264-65.131-4.644-92.86-24.594-23.925-17.222-44.112-42.364-61.847-77-3.001-5.825-5.937-11.763-8.826-17.522-17.304-34.464-35.124-70.134-62.15-96.421-16.75-16.263-30.509-29.965-42.197-46.335-9.658-13.456-15.117-30.246-15.383-47.372-.255-17.801 4.956-34.568 14.987-48.4 18.835-25.798 52.575-43.292 92.631-47.973 3.998-.495 8.134-.835 12.091-1.126 16.072-1.329 31.2-2.596 44.107-11.434 10.637-7.27 20.009-17.467 29.096-27.299 7.074-7.659 14.434-15.684 22.293-22.209 33.656-27.848 83.421-36.09 126.759-20.996 41.322 14.387 78.296 47.327 101.463 90.403 6.53 12.18 12.218 25.163 17.673 37.631 7.774 17.9 15.896 36.379 26.615 52.72 16.588 25.337 40.003 45.675 65.882 57.282 14.084 6.313 24.161 15.238 29.955 26.463 6.794 13.166 3.023 28.491-1.37 38.987-4.739 11.357-12.282 21.928-21.771 34.558-19.372 25.942-49.945 57.767-89.115 68.263-3.317.888-6.591 1.574-9.98 2.194-6.263 1.005-12.699 2.442-18.891 3.716-12.089 2.567-24.537 5.23-36.438 5.633-3.15.075-6.186.216-9.157.244-14.131.328-26.348.623-32.298 4.235-5.035 3.078-6.536 7.515-8.21 12.383-.56 1.495-1.096 3.08-1.722 4.689-9.639 22.469-31.144 39.375-57.944 46.556ZM171.282 183.241c-28.773 7.709-52.629 22.652-67.238 42.706-19.956 27.347-19.779 66.016.411 94.038 11.664 16.281 24.782 29.386 42.036 46.091 27.163 26.442 45.097 62.178 62.449 96.821 2.888 5.759 5.825 11.697 8.826 17.522 17.574 34.391 37.712 59.353 61.409 76.445 27.365 19.663 60.874 28.553 91.821 24.296 32.428-4.462 59.287-22.899 70.029-48.066.65-1.519 1.186-3.103 1.656-4.574 1.674-4.868 3.324-9.825 8.873-13.138 6.284-3.797 18.681-4.141 33.104-4.451 2.971-.027 6.007-.168 9.158-.244 11.697-.444 24.169-3.017 36.235-5.674 6.28-1.299 12.717-2.735 18.98-3.741 43.502-7.237 77.425-41.977 98.181-69.923 9.686-12.971 16.877-23.064 21.55-34.307 4.261-10.269 7.974-25.097 1.413-37.75-5.608-10.89-15.433-19.594-29.291-25.776-26.106-11.738-49.772-32.297-66.521-57.878-10.857-16.497-18.889-35-26.777-52.965-5.455-12.469-11.119-25.362-17.649-37.542-22.981-42.742-59.615-75.485-100.596-89.674-42.883-14.833-92.11-6.734-125.366 20.814-7.793 6.411-15.088 14.322-22.162 21.982-9.152 9.946-18.525 20.143-29.317 27.55-13.242 9.024-29.29 10.442-44.8 11.716-3.957.291-8.069.721-12.091 1.126-8.379.996-16.525 2.506-24.323 4.596Z" fill="url(#h)"/><path d="M380.664 568.482a124.009 124.009 0 0 1-17.074 3.326c-30.636 3.982-63.445-4.808-89.99-23.922-23.195-16.65-42.741-41.194-59.65-74.899-2.235-4.397-4.494-8.883-6.639-13.304-17.215-34.488-34.921-70.093-60.854-96.961-14.526-15.129-25.307-28.476-37.062-46.174-18.708-28.227-18.353-65.982.84-91.876 18.292-24.595 51.004-41.623 89.751-46.529 3.819-.447 7.638-.893 11.392-1.227 15.641-1.501 30.428-2.965 42.838-11.863 9.921-7.077 18.965-16.706 27.699-26.059 7.63-8.097 15.48-16.445 23.877-23.114 16.548-13.176 36.974-21.916 59.021-25.326 21.958-3.385 44.639-1.2 65.36 6.216 40.378 14.448 76.468 46.952 98.946 89.252 6.368 11.936 11.871 24.584 17.164 36.807 7.96 18.234 16.201 37.161 27.286 53.79 16.162 24.106 39.212 44.157 65.055 56.35 13.661 6.523 23.505 16.374 28.505 28.58 5.492 13.324.566 28.285-4.55 38.591-5.027 10.281-12.32 19.633-20.712 30.624l-2.005 2.554c-30.838 40.159-63.268 63.259-96.491 68.702-6.263 1.006-12.789 2.466-19.046 3.855-12.513 2.776-25.589 5.607-37.879 5.634-18.028.123-34.406.669-42.809 1.575-4.495.436-5.788 3.857-7.206 7.887-.798 2.04-1.573 4.169-2.826 5.945-5.805 18.849-25.782 34.289-52.941 41.566ZM177.529 183.968c-28.414 7.614-51.894 22.168-66.289 41.588-18.84 25.415-19.185 62.494-.8 90.232 11.731 17.608 22.423 30.979 36.924 46.019 26.071 27.023 43.915 62.783 61.153 97.36 2.235 4.397 4.405 8.908 6.64 13.304 16.86 33.526 36.245 57.826 59.212 74.344 26.294 18.893 58.787 27.576 88.975 23.714 35.106-4.507 62.074-21.821 68.701-44.059l.065-.114.066-.113c1.211-1.574 1.986-3.703 2.719-5.628 1.507-4.055 3.08-8.223 8.406-8.786 8.517-.841 24.578-1.493 42.923-1.509 12.176-.093 25.162-2.9 37.586-5.652 6.256-1.389 12.806-2.759 19.135-3.879 32.84-5.437 64.936-28.351 95.577-68.168l2.006-2.555c8.325-10.877 15.619-20.229 20.58-30.397 4.919-9.964 9.738-24.609 4.48-37.419-4.838-11.961-14.521-21.567-27.841-27.893-26.071-12.325-49.372-32.597-65.672-56.858-11.198-16.694-19.439-35.621-27.423-53.944-5.293-12.224-10.772-24.782-17.116-36.628-22.161-42.193-57.91-74.501-97.971-88.84-41.531-14.811-89.803-7.449-123.013 18.838-8.307 6.645-16.181 14.904-23.721 22.976-8.71 9.443-17.844 19.096-27.92 26.311-12.745 9.083-28.386 10.585-43.532 12.145-3.753.333-7.572.78-11.391 1.227-7.728.918-15.198 2.439-22.459 4.384Z" fill="url(#i)"/><path d="M374.739 557.484c-5.916 1.586-12.31 2.819-18.914 3.628-29.878 3.586-61.647-4.906-87.145-23.34-22.399-16.19-41.281-40.048-57.454-72.798-1.234-2.455-2.492-5-3.727-7.455-17.269-35.05-35.119-71.193-60.306-99.221-13.258-14.701-20.835-27.561-28.292-39.974-1.228-2.073-2.432-4.056-3.66-6.128-14.195-23.577-19.128-59.914 2.077-87.98 17.66-23.37 49.369-39.84 86.871-45.085 3.527-.465 7.166-.864 10.603-1.304 15.211-1.674 29.567-3.311 41.571-12.292 9.293-6.909 17.92-15.946 26.236-24.707 8.095-8.509 16.591-17.319 25.591-24.245l.437.555-.437-.555c33.826-25.78 80.58-32.352 121.939-17.11 39.433 14.508 74.548 46.601 96.428 88.101 6.093 11.625 11.523 24.004 16.63 35.893 8.08 18.682 16.418 37.967 27.933 54.769 15.647 22.899 38.397 42.55 64.229 55.418 17.184 8.557 24.199 21.472 27.08 30.788 3.354 10.726.757 23.622-7.666 38.08-4.79 8.297-10.985 16.009-18.196 24.954-1.808 2.214-3.593 4.518-5.467 6.845-28.941 36.48-56.096 57.398-84.6 65.035-3.047.817-6.143 1.454-9.263 2.002-6.353 1.03-12.878 2.49-19.201 3.992-13.051 2.921-26.551 5.962-39.409 5.66a693.337 693.337 0 0 1-22.459-.995c-9.17-.521-16.493-.961-21.191-.566-4.02 1.845-5.602 4.191-7.338 6.673-.901 1.298-1.868 2.71-3.241 4.039-5.414 16.726-24.203 30.502-49.659 37.323ZM183.842 184.583c-28.055 7.517-51.249 21.706-65.453 40.402-20.787 27.474-15.998 63.274-2.013 86.426 1.228 2.073 2.432 4.056 3.66 6.129 7.367 12.436 15.01 25.183 28.13 39.729 25.301 28.094 43.199 64.416 60.558 99.441 1.234 2.456 2.493 5.001 3.727 7.456 16.124 32.57 34.779 56.297 57.04 72.332 25.247 18.213 56.61 26.622 86.194 23.018 34.438-4.136 60.87-19.865 67.528-40.19l.042-.204.155-.137c1.284-1.305 2.274-2.627 3.176-3.925 1.826-2.507 3.604-5.193 8.073-7.159l.089-.024.09-.024c4.787-.419 12.2-.003 21.573.56 6.738.404 14.354.861 22.459.995 12.655.26 26.065-2.757 39.027-5.654 6.346-1.412 12.872-2.872 19.201-3.992 31.627-5.304 61.143-26.374 92.949-66.504 1.874-2.327 3.659-4.631 5.467-6.844 7.145-8.832 13.34-16.544 18.065-24.727 8.202-14.207 10.739-26.607 7.571-36.998-2.809-9.047-9.638-21.628-26.367-29.922-25.97-13.024-48.972-32.896-64.732-55.861-11.539-16.89-19.991-36.242-28.095-55.013-5.107-11.889-10.513-24.179-16.606-35.804-21.694-41.165-56.558-73.038-95.674-87.438-40.928-15.069-87.121-8.552-120.636 16.953-8.935 6.813-17.34 15.598-25.436 24.108-8.406 8.785-17.032 17.821-26.391 24.844-12.339 9.167-27.549 10.841-42.288 12.484-3.461.351-7.076.839-10.603 1.304-6.914 1.084-13.847 2.461-20.48 4.239Z" fill="url(#j)"/><path d="M369.735 546.336c-6.633 1.777-13.859 3.137-21.521 3.941-29.119 3.191-59.871-5.093-84.274-22.667-21.694-15.707-39.798-38.813-55.282-70.786-4.105-8.507-8.037-17.445-11.872-26.024-12.594-28.713-25.63-58.364-48.564-76.909l-.114-.065-.024-.09c-4.271-7.694-8.702-14.192-12.649-19.956-6.113-8.833-11.353-16.556-14.168-25.985-18.006-21.307-16.555-58.202 3.313-84.084 17.117-22.168 47.709-38.146 84.058-43.755 3.233-.482 6.58-.898 9.813-1.381 14.78-1.846 28.796-3.68 40.417-12.655 8.51-6.603 16.719-15.047 24.552-23.102 8.74-8.971 17.767-18.307 27.574-25.45l.437.556-.437-.556c33.666-24.584 79.465-30.419 119.473-15.2 38.399 14.593 72.629 46.251 93.885 86.861 5.932 11.38 11.177 23.424 16.236 35.134 8.176 19.041 16.699 38.661 28.579 55.748 15.108 21.603 37.582 40.943 63.314 54.512 17.214 9.029 23.435 22.925 25.629 32.905 2.369 10.99-1.161 23.272-10.756 37.66-4.392 6.556-9.889 12.929-15.674 19.667-2.937 3.38-5.939 6.875-8.959 10.662-24.198 29.445-55.714 52.012-91.08 65.235-19.484 7.238-40.921 10.772-60.319 9.726-13.158-.702-25.294-2.254-34.226-3.319-4.173-.515-7.873-1.06-10.623-1.284-4.076 1.284-5.759 2.888-7.574 4.719-.997.94-1.995 1.879-3.261 2.891-5.535 14.837-22.419 26.759-45.903 33.051Zm-220.63-193.45c23.185 18.766 36.246 48.506 48.863 77.309 3.747 8.603 7.655 17.451 11.849 25.934 15.412 31.704 33.402 54.744 54.844 70.23 24.176 17.444 54.522 25.645 83.348 22.436 34.175-3.681 59.533-17.681 66.242-36.387l.041-.203.155-.138c1.38-.946 2.377-1.886 3.285-2.801 1.994-1.88 3.809-3.711 8.243-5.091l.089-.024.09-.024c2.75.224 6.54.745 10.803 1.236 8.866 1.179 21.002 2.731 34.136 3.343 18.902.987 40.722-2.554 59.758-9.672 35.21-13.085 66.481-35.49 90.524-64.797 3.109-3.811 6.112-7.306 8.959-10.663 5.784-6.737 11.282-13.11 15.608-19.553 9.398-14.047 12.91-26.036 10.548-36.643-2.121-9.711-8.133-23.183-24.916-32.04-25.959-13.699-48.662-33.171-63.817-54.953-11.969-17.063-20.451-36.886-28.717-55.903-5.035-11.62-10.19-23.689-16.122-35.069-21.095-40.365-55.073-71.802-93.155-86.288-39.416-14.801-84.743-8.996-118.009 15.288-9.651 7.006-18.678 16.341-27.329 25.288-7.898 8.169-16.107 16.613-24.707 23.241-11.842 9.225-26.712 11.096-41.02 12.912-3.258.393-6.491.875-9.814 1.381-35.99 5.512-66.337 21.33-83.233 43.245-19.516 25.404-20.955 61.624-3.249 82.53l.114.066.048.179c2.677 9.274 7.893 16.907 14.006 25.741 3.833 5.698 8.353 12.172 12.535 19.89Z" fill="url(#k)"/><path d="M510.128 504.875c-15.686 4.204-31.931 5.962-46.446 4.856-21.276-1.6-39.698-6.175-45.958-7.668-4.244.657-6.006 1.609-7.989 2.813-1.004.557-1.918 1.09-3.304 1.654-6.961 17.044-32.207 29.669-65.982 33.051-28.45 2.82-58.096-5.28-81.429-22.085-20.987-15.224-38.337-37.667-53.085-68.684-3.943-8.263-7.713-16.956-11.298-25.314-11.809-27.578-24.061-56.094-45.679-74.031l-.114-.065-.048-.18c-3.386-7.258-6.842-13.345-9.927-18.763-5.313-9.433-9.884-17.527-11.754-27.017-16.708-20.405-14.802-55.597 4.548-80.188 22.567-28.719 60.596-38.813 81.178-42.311 3.03-.523 6.084-.957 8.959-1.343 14.415-2.134 28.024-4.051 39.239-13.108 7.727-6.298 15.363-14.012 22.599-21.427 9.427-9.635 19.165-19.545 29.689-26.88l.323.489-.323-.489c33.416-23.365 78.283-28.374 117.03-13.201 37.455 14.653 70.71 45.9 91.278 85.734 5.77 11.135 10.853 22.935 15.726 34.31 8.362 19.375 16.916 39.467 29.203 56.638 18.579 25.956 44.22 43.488 62.487 53.58 18.381 10.158 22.997 26.309 24.204 35.113 1.471 11.23-2.968 22.987-13.937 37.263-3.922 5.085-8.477 9.956-13.408 15.217-3.958 4.23-8.047 8.689-12.285 13.667-24.169 28.476-54.796 50.42-88.476 63.48-4.606 1.811-9.822 3.496-15.021 4.889Zm-95.657-3.478c.896-.24 1.996-.438 3.275-.685l.089-.024.114.066c6.081 1.541 24.503 6.115 45.869 7.692 19.136 1.501 41.518-2.094 61.354-9.811 33.5-13.012 63.882-34.794 87.896-63.133 4.238-4.978 8.327-9.436 12.285-13.667 4.842-5.236 9.462-10.221 13.318-15.193 10.773-13.935 15.081-25.464 13.615-36.312-1.134-8.534-5.63-24.238-23.556-34.133-18.382-10.158-44.226-27.731-62.967-53.932-12.31-17.26-20.978-37.418-29.364-56.883-4.873-11.376-9.956-23.175-15.702-34.221-20.496-39.564-53.5-70.59-90.638-85.137-38.405-14.976-82.801-9.997-115.906 13.092-10.434 7.311-20.172 17.222-29.533 26.743-7.326 7.439-14.938 15.243-22.755 21.564-11.436 9.309-25.224 11.274-39.818 13.456-2.965.41-6.019.844-8.959 1.343-20.493 3.474-58.074 13.448-80.444 41.826-18.997 24.112-20.958 58.742-4.484 78.634l.137.155.049.179c1.756 9.425 6.117 17.095 11.592 26.772 3.085 5.418 6.541 11.505 9.927 18.763 21.756 18.092 34.033 46.698 45.955 74.342 3.585 8.358 7.331 16.962 11.298 25.313 14.7 30.839 31.912 53.126 52.672 68.219 23.016 16.697 52.435 24.666 80.502 21.853 33.506-3.31 58.418-15.749 64.979-32.494l.131-.227.269-.072c1.386-.564 2.39-1.121 3.393-1.678 1.559-.994 2.987-1.761 5.407-2.41Z" fill="url(#l)"/><path d="M502.787 504.729c-15.865 4.251-32.158 5.83-46.679 4.341-19.753-2.008-37.213-6.937-47.003-10.846-4.704.011-6.521.402-8.81.823-.806.216-1.727.367-2.737.541-6.969 15.222-31.141 26.118-64.654 29.045-27.691 2.424-56.297-5.378-78.583-21.503-20.257-14.651-36.877-36.52-50.912-66.672-3.806-8.107-7.301-16.49-10.748-24.693-11.629-27.626-22.557-53.711-42.77-71.063l-.114-.066-.048-.179c-2.446-6.262-4.88-11.758-7.056-16.651-4.794-10.724-8.606-19.214-9.425-29.082-15.499-19.48-12.933-52.927 5.785-76.292 21.672-27.038 58.415-37.268 78.298-40.866 2.737-.542 5.409-.969 8.08-1.397 13.985-2.306 27.229-4.51 38.151-13.585 6.903-5.788 13.762-12.814 20.425-19.499 10.138-10.21 20.628-20.898 32.137-28.497l.324.489-.324-.489c33.167-22.145 77.079-26.418 114.654-11.316 36.397 14.65 68.79 45.551 88.76 84.584 5.608 10.89 10.53 22.445 15.241 33.575 8.458 19.734 17.198 40.161 29.825 57.529 14.238 19.433 34.954 37.228 61.662 52.648 13.638 7.874 21.88 21.421 22.753 37.23.723 14.89-9.387 28.07-17.051 36.753-3.379 3.883-7.278 7.618-11.374 11.694-4.937 4.877-10.03 9.892-15.265 15.811-24.141 27.507-53.853 48.918-85.848 61.814-5.317 2.386-10.957 4.282-16.694 5.819Zm-106.168-6.138.358-.096c1.189-.222 2.11-.373 3.006-.613 2.444-.559 4.285-.86 9.193-.83l.203.042c9.7 3.933 27.047 8.796 46.799 10.805 19.459 1.991 42.403-1.659 62.86-9.926 31.815-12.848 61.307-34.008 85.357-61.492 5.212-6.008 10.394-11.047 15.266-15.811 4.12-3.986 7.905-7.786 11.284-11.67 7.509-8.545 17.488-21.498 16.706-35.891-.415-7.286-3.24-25.359-22.107-36.251-26.846-15.575-47.74-33.322-62.05-53.024-12.741-17.434-21.505-37.95-29.987-57.773-4.712-11.131-9.723-22.662-15.217-33.486-19.898-38.765-52.04-69.445-88.12-83.987-37.168-15.019-80.698-10.753-113.53 11.206-11.42 7.576-21.844 18.15-31.982 28.36-6.639 6.775-13.523 13.711-20.515 19.524-11.054 9.302-24.476 11.554-38.73 13.932-2.671.427-5.433.879-8.08 1.396-19.769 3.664-56.154 13.798-77.63 40.495-18.455 22.91-20.872 55.838-5.696 74.828l.137.155.048.18c.771 9.688 4.583 18.178 9.354 28.812 2.151 4.803 4.585 10.3 7.031 16.561 20.351 17.508 31.819 44.89 42.957 71.399 3.422 8.113 6.941 16.585 10.723 24.602 13.898 29.997 30.445 51.598 50.5 66.207 21.944 15.928 50.323 23.599 77.745 21.247 33.309-2.969 57.171-13.59 63.716-28.601l.401-.3Z" fill="url(#m)"/><path d="M495.536 504.558c-16.045 4.299-32.475 5.724-46.979 3.942-16.692-2.06-30.805-7.405-41.067-11.285-2.673-1.013-5.03-1.918-7.045-2.627-4.64-1.543-6.577-1.6-9.165-1.579-.855.037-1.734-.016-2.906-.086-7.067 13.422-30.075 22.565-63.326 25.038-27.022 2.052-54.521-5.566-75.623-20.855-19.551-14.168-35.483-35.261-48.716-64.571-3.554-7.886-6.911-16.113-10.173-23.982-10.821-26.402-20.989-51.441-39.748-68.03l-.114-.066-.048-.179c-1.452-4.703-2.987-8.999-4.199-12.805-4.403-12.847-7.577-22.18-7.147-32.767-14.201-18.579-11.089-50.347 7.045-72.306 20.867-25.382 56.26-35.634 75.485-39.537l7.135-1.335c13.644-2.503 26.547-4.904 37.038-14.151 5.989-5.256 11.81-11.139 17.942-17.297 10.98-11.012 22.311-22.502 34.872-30.479 32.828-20.901 75.874-24.462 112.212-9.316 35.362 14.734 66.847 45.11 86.242 83.433 5.446 10.645 10.206 21.955 14.846 32.817 8.554 20.092 17.389 40.877 30.447 58.418 13.633 18.251 33.547 35.203 60.836 51.716 19.74 12.003 21.419 31.536 21.213 39.373-.334 14.884-10.954 27.241-20.142 36.332-3.033 3.022-6.293 5.913-9.799 8.966-5.523 4.842-11.709 10.439-17.81 17.069-24.267 26.677-53 47.441-83.154 60.036-5.879 2.44-11.967 4.456-18.152 6.113ZM387.745 491.65l.383-.006c1.261.046 2.23.075 3.198.103 2.612.069 4.704-.011 9.482 1.687 2.016.709 4.372 1.614 7.135 2.603 10.172 3.903 24.172 9.183 40.774 11.267 19.872 2.457 43.312-1.134 64.48-9.976 29.974-12.547 58.642-33.198 82.753-59.737 6.077-6.72 12.377-12.251 17.876-17.183a273.948 273.948 0 0 0 9.799-8.966c9.033-8.953 19.431-21.058 19.773-35.56.164-7.634-1.485-26.694-20.657-38.369-27.403-16.579-47.43-33.597-61.111-52.027-13.171-17.606-22.031-38.481-30.609-58.663-4.64-10.862-9.399-22.172-14.846-32.817-19.299-37.964-50.556-68.209-85.691-82.812-36.021-15.038-78.571-11.419-111.088 9.207l-.323-.49.323.49c-12.472 7.953-23.738 19.33-34.717 30.342-6.132 6.158-11.953 12.041-18.032 17.32-10.736 9.41-23.728 11.834-37.641 14.409l-7.135 1.336c-19.046 3.854-54.17 14.034-74.84 39.075-17.823 21.684-20.811 52.842-6.819 70.997l.137.156-.041.203c-.478 10.407 2.695 19.741 7.098 32.587a411.93 411.93 0 0 1 4.176 12.715c18.921 16.834 29.178 41.85 39.934 68.365 3.261 7.869 6.529 16.12 10.172 23.982 13.162 29.041 28.98 50.069 48.304 64.105 20.874 15.158 48.146 22.645 74.899 20.665 33.137-2.539 55.901-11.52 62.544-24.733l.31-.275Z" fill="url(#n)"/><path d="M488.398 504.453c-16.223 4.347-32.792 5.616-47.391 3.476-20.196-2.947-36.991-11.128-47.045-16.023l-2.111-1.068c-6.173-2.957-7.961-3.535-12.415-4.743-7.01 11.485-29.01 19.013-61.974 21.121-26.263 1.657-52.812-5.639-72.777-20.272-18.756-13.708-34.023-34.115-46.52-62.47-3.393-7.641-6.499-15.647-9.622-23.361-9.947-25.291-19.396-49.082-36.84-65.063l-.138-.155-.048-.179c-.487-2.176-1.015-4.148-1.454-6.144-4.06-16.588-6.811-27.572-4.781-39.356-12.903-17.678-9.31-47.654 8.281-68.411 18.958-22.468 49.932-33.074 72.605-38.092 2.086-.463 4.082-.902 6.191-1.275 13.279-2.789 25.93-5.41 36.039-14.652 5.01-4.609 9.858-9.462 14.992-14.681 11.953-12.041 24.306-24.381 38.008-32.76l.324.489-.324-.489c32.578-19.682 74.645-22.595 109.745-7.406 34.329 14.819 64.838 44.784 83.7 82.192 5.309 10.491 9.883 21.466 14.385 32.172 8.65 20.451 17.582 41.595 31.047 59.218 16.757 22.026 40.831 38.728 59.92 50.81 20.817 13.155 20.353 35.087 19.763 41.49-1.41 15.173-13.184 27.166-23.233 35.911-2.64 2.34-5.596 4.573-8.594 7.01-6.175 4.921-13.239 10.465-19.962 17.646-24.369 25.935-52.302 46.101-80.549 58.281-6.189 2.716-12.678 5.031-19.222 6.784Zm-109.502-19.655.837.256c4.569 1.274 6.446 1.828 12.643 4.875l2.111 1.067c10.598 5.134 26.622 12.946 46.728 15.916 20.285 2.923 44.286-.722 66.075-10.115 28.158-12.156 55.822-32.25 80.125-58.072 6.812-7.205 13.853-12.838 20.118-17.783 2.997-2.437 5.954-4.67 8.593-7.01 9.894-8.608 21.447-20.35 22.864-35.14.638-6.223.953-27.635-19.296-40.463-19.203-12.147-43.39-28.915-60.261-51.006-13.489-17.713-22.445-38.946-31.119-59.487-4.478-10.616-9.165-21.657-14.36-32.082-18.725-37.254-48.983-66.997-83.174-81.661-34.849-14.968-76.467-12.175-108.711 7.321-13.637 8.265-25.989 20.606-37.852 32.623-5.135 5.218-10.073 10.096-15.082 14.705-10.33 9.492-23.071 12.138-36.529 14.975-1.996.439-4.106.812-6.191 1.275-22.494 4.97-53.289 15.528-72.026 37.745-17.281 20.481-20.814 49.961-8.031 67.191l.137.155-.065.114c-2.055 11.694.672 22.588 4.733 39.177.504 1.882.943 3.878 1.495 5.94 17.582 16.136 26.965 40.041 37.002 65.308 3.034 7.737 6.229 15.719 9.622 23.361 12.449 28.175 27.489 48.451 46.221 62.069 19.803 14.388 46.059 21.667 72.029 19.992 32.964-2.107 54.695-9.563 61.257-20.929l.107-.317Z" fill="url(#o)"/><path d="M481.417 504.21c-16.404 4.396-33.109 5.509-47.871 3.124-21.828-3.662-39.097-13.253-50.265-20.156-2.094-1.36-3.709-2.368-5.211-3.311-2.686-1.778-4.642-2.983-7.662-4.576-8.779 12.055-37.706 15.964-60.556 17.091-25.505 1.262-51.038-5.827-69.907-19.601-17.799-13.003-32.773-33.393-44.348-60.457-3.165-7.51-6.199-15.247-9.096-22.83-9.228-24.042-17.803-46.723-33.907-62.006l-.137-.155-.048-.179c-3.371-19.752-5.162-32.53-1.125-45.428-11.766-17.022-7.752-44.709 9.427-64.491 18.177-20.722 48.004-31.308 69.84-36.583 1.703-.456 3.341-.799 5.068-1.166 13.027-3.01 25.337-5.828 35.105-15.266 3.81-3.711 7.595-7.511 11.691-11.587 12.991-13.184 26.448-26.781 41.674-35.568l.234.513-.234-.513c32.215-18.527 73.35-20.615 107.392-5.431 33.385 14.88 62.919 44.434 81.183 81.042 5.057 10.269 9.673 21.041 14.013 31.503 8.746 20.809 17.774 42.312 31.555 60.042 16.081 20.574 38.904 36.554 59.07 49.788 16.912 11.128 20.581 29.84 18.314 43.609-2.486 15.46-15.414 27.09-26.324 35.49-2.377 1.886-4.981 3.64-7.717 5.622-6.784 4.796-14.459 10.215-21.785 17.654-25.027 25.632-51.246 44.666-77.921 56.617a143.174 143.174 0 0 1-20.452 7.209Zm-111.37-26.263.431.173c3.313 1.61 5.407 2.97 8.207 4.814 1.412.966 3.027 1.975 5.121 3.335 11.054 6.837 28.209 16.363 49.834 19.983 20.723 3.478 45.376-.246 67.672-10.255 26.586-11.927 52.649-30.823 77.611-56.341 7.391-7.553 15.155-12.996 21.94-17.792 2.759-1.892 5.25-3.712 7.74-5.532 10.756-8.262 23.462-19.641 25.931-34.809 2.16-13.452-1.389-31.715-17.846-42.58-20.304-13.39-43.217-29.346-59.345-50.099-13.92-17.886-22.972-39.478-31.718-60.287-4.34-10.462-8.866-21.258-13.989-31.413-18.126-36.454-47.522-65.852-80.68-80.601-33.701-14.987-74.453-12.906-106.334 5.436-15.16 8.673-28.528 22.246-41.429 35.406-4.096 4.076-7.881 7.876-11.691 11.587-10.012 9.6-22.478 12.556-35.619 15.5-1.727.367-3.341.799-5.068 1.166-21.656 5.226-51.304 15.765-69.236 36.325-16.959 19.531-20.889 46.811-9.243 63.385l.162.245-.132.227c-4.085 12.719-2.229 25.383 1.094 44.956 16.152 15.462 24.841 38.208 33.979 62.275 2.873 7.492 5.817 15.254 9.072 22.74 11.527 26.885 26.363 47.119 44.024 59.968 18.732 13.618 43.972 20.689 69.273 19.386 32.791-1.678 53.604-7.543 59.994-17.037l.245-.161Z" fill="url(#p)"/><path d="M474.369 504.081c-16.583 4.444-33.516 5.426-48.374 2.682-22.647-4.211-40.342-15.033-51.285-23.245-3.009-2.268-5.044-4.124-6.941-5.825-2.034-1.857-3.817-3.493-6.39-5.205-6.781 7.677-26.203 11.92-59.204 13.173-25.194.987-49.011-5.793-67.061-19.018-17.092-12.52-31.289-32.157-42.151-58.356-3.028-7.354-5.834-14.961-8.569-22.298-8.396-22.728-16.276-44.25-30.95-58.859l-.138-.156-.048-.179c-1.931-19.753-1.904-32.922 3.986-45.356-10.444-16.032-5.884-42.039 10.664-60.595 13.521-15.152 35.564-26.822 65.412-34.82l1.434-.385 3.854-1.032c12.777-3.231 24.901-6.384 34.352-15.93 2.502-2.495 5.045-5.194 7.702-7.828 14.137-14.644 28.83-29.725 45.849-38.992 32.276-17.583 71.511-18.873 104.925-3.521 32.327 14.875 60.976 43.994 78.665 79.891 4.896 10.025 9.374 20.642 13.642 30.834 8.842 21.168 17.966 43.029 32.154 60.843 15.613 19.546 37.658 34.774 57.197 48.176l1.047.68c17.331 11.977 19.944 32.124 16.864 45.726-3.604 15.953-17.62 27.106-29.44 34.98a423.176 423.176 0 0 1-7.15 4.51c-7.329 4.558-15.571 9.649-23.321 17.297-25.775 25.352-50.369 43.278-75.317 54.862-6.966 3.404-14.148 6.001-21.408 7.946Zm-113.171-32.986.365.287c2.8 1.843 4.697 3.545 6.869 5.557 1.873 1.611 3.931 3.557 6.917 5.736 10.853 8.236 28.41 18.903 50.854 23.072 21.249 4.009 46.464.231 69.178-10.37 24.793-11.447 49.298-29.349 74.983-54.677 7.839-7.673 16.148-12.877 23.566-17.459a433.894 433.894 0 0 0 7.15-4.509c11.641-7.827 25.526-18.753 29.022-34.388 2.973-13.286.456-33.074-16.396-44.698l-1.047-.681c-19.563-13.491-41.698-28.696-57.449-48.397-14.325-17.969-23.473-39.92-32.316-61.087-4.268-10.193-8.632-20.744-13.617-30.745-17.527-35.653-46.039-64.615-78.162-79.449-33.098-15.245-71.951-13.961-103.981 3.46-16.93 9.243-31.533 24.3-45.604 38.831a252.777 252.777 0 0 1-7.702 7.828c-9.672 9.796-21.91 12.883-34.842 16.252l-3.854 1.033c-30.434 7.963-52.746 19.705-66.422 34.994-16.327 18.305-20.804 43.906-10.456 59.579l.162.245-.131.227c-5.849 12.231-5.924 25.221-4.017 44.885 14.722 14.788 22.603 36.31 31.022 59.128 2.735 7.337 5.452 14.967 8.545 22.208 10.725 26.044 24.784 45.526 41.852 57.956 17.913 13.07 41.502 19.719 66.427 18.804 33.204-1.211 52.489-5.61 58.822-13.167l.262-.455Z" fill="url(#q)"/><path d="M467.387 503.839c-16.851 4.515-33.832 5.318-48.965 2.264-25.728-5.307-43.85-18.801-52.329-26.424-3.268-2.871-5.381-5.379-7.559-7.774-1.928-2.173-3.741-4.281-6.231-6.4-8.162 7.183-32.627 8.742-57.941 9.281-24.435.591-47.236-5.981-64.191-18.346-16.5-12.103-29.919-30.988-39.979-56.345-2.89-7.199-5.445-14.584-7.953-21.79-7.587-21.504-14.659-41.802-27.904-55.737l-.137-.156-.048-.179c-.636-21.734 1.836-34.02 9.121-45.195-9.146-15.13-4.04-39.459 11.899-56.699 13.2-14.201 34.174-25.201 64.147-33.808l2.42-.649c12.59-3.566 24.464-6.939 33.753-16.73l2.919-3.088c14.794-15.78 31.647-33.553 50.883-43.511 31.912-16.429 70.192-16.983 102.459-1.611 31.723 15.133 58.733 43.153 76.146 78.741 4.758 9.869 9.051 20.151 13.181 30.188 8.914 21.437 18.045 43.68 32.753 61.643 13.907 17.121 32.518 30.291 50.538 43.044 2.369 1.671 4.625 3.276 6.88 4.881 17.816 12.711 19.432 33.798 15.414 47.844-4.697 16.534-19.915 27.144-32.62 34.583-2.163 1.252-4.415 2.528-6.78 3.738-7.808 4.206-16.595 9.058-24.727 16.713-16.772 15.927-42.658 38.714-72.624 53.084a124.582 124.582 0 0 1-22.525 8.438ZM352.35 464.243l.365.287c2.716 2.25 4.643 4.424 6.619 6.777 2.065 2.328 4.268 4.812 7.445 7.708 8.455 7.533 26.35 20.895 51.875 26.161 21.751 4.451 47.552.708 70.773-10.509 29.877-14.346 55.672-37.11 72.379-52.923 8.198-7.768 17.098-12.555 24.882-16.85 2.342-1.3 4.618-2.486 6.78-3.738 12.55-7.302 27.499-17.84 32.113-33.967 3.886-13.819 2.326-34.344-15.036-46.792-2.256-1.606-4.535-3.301-6.88-4.882-18.02-12.752-36.656-26.012-50.676-43.199-14.732-18.052-23.976-40.361-32.825-61.912-4.13-10.037-8.422-20.319-13.156-30.099-17.276-35.432-44.125-63.207-75.644-78.299-31.951-15.264-69.937-14.693-101.605 1.574l-.209-.424.209.424c-19.08 9.82-35.844 27.57-50.572 43.237l-2.919 3.088c-9.421 10.017-21.473 13.439-34.153 17.029l-2.421.648c-29.817 8.47-50.588 19.512-63.632 33.574-15.719 16.99-20.717 41.001-11.667 55.773l.161.245-.131.227c-7.219 11.061-9.739 23.169-9.152 44.723 13.269 14.025 20.455 34.388 28.066 55.982 2.507 7.206 5.152 14.567 7.952 21.791 9.989 25.087 23.294 43.907 39.656 55.854 16.842 12.3 39.415 18.74 63.582 18.221 25.403-.562 49.957-2.146 57.534-9.364l.287-.365Z" fill="url(#r)"/><path d="M460.519 503.662c-17.031 4.563-34.239 5.235-49.558 1.846-28.335-6.434-46.73-22.736-53.349-29.513-3.411-3.409-5.693-6.544-7.836-9.525-1.982-2.735-3.802-5.225-6.322-7.817-7.974 5.019-30.503 5.195-56.565 5.454-23.676.195-45.46-6.168-61.345-17.764-15.794-11.619-28.458-29.842-37.783-54.243-2.662-7.068-5.08-14.298-7.449-21.349-6.755-20.19-13.132-39.328-24.924-52.5l-.138-.156.042-.203c.794-21.06 4.873-34.161 14.232-45.123-7.734-14.164-2.172-36.79 13.136-52.804 16.149-16.816 41.201-26.219 61.153-32.429l.807-.217c12.494-3.924 24.295-7.566 33.399-17.691 16.195-18.078 33.735-36.516 54.077-46.289l.21.424-.21-.424c31.46-15.251 68.873-15.092 100.017.388 30.689 15.218 56.79 42.713 73.629 77.59 4.596 9.624 8.84 19.727 12.833 29.609 8.921 21.82 18.237 44.398 33.262 62.468 12.726 15.227 29.293 27.216 45.267 38.788 3.918 2.793 7.609 5.454 11.235 8.229 17.051 12.724 19.283 34.318 13.874 49.986-5.921 17.342-23.189 27.829-35.711 34.162a498.637 498.637 0 0 1-6.631 3.218c-8.197 3.83-17.397 8.216-25.822 15.854-21.018 19.081-43.966 38.488-69.995 51.419-7.707 3.506-15.648 6.498-23.535 8.612Zm-116.994-46.18.275.31c2.657 2.747 4.615 5.392 6.711 8.193 2.143 2.981 4.4 6.026 7.722 9.459 6.506 6.711 24.786 22.948 52.894 29.251 22.279 4.983 48.641 1.185 72.394-10.559 25.963-12.817 48.911-32.224 69.84-51.282 8.491-7.751 17.87-12.185 26.067-16.015a325.42 325.42 0 0 0 6.541-3.194c12.342-6.285 29.456-16.634 35.18-33.635 5.277-15.441 3.1-36.473-13.61-49-3.626-2.775-7.317-5.437-11.236-8.23-16.087-11.637-32.653-23.626-45.404-38.943-15.139-18.135-24.389-40.827-33.4-62.622-4.058-9.769-8.213-19.896-12.809-29.52-16.701-34.722-42.688-62.151-73.15-77.238-30.916-15.349-68.037-15.49-99.252-.401-20.162 9.725-37.613 28.139-53.742 46.103-9.259 10.263-21.126 14.019-33.824 17.901l-.807.217c-19.861 6.186-44.759 15.451-60.818 32.244-15.176 15.786-20.631 38.095-12.88 51.966l.162.245-.221.251c-9.294 10.848-13.421 23.771-14.173 44.627 11.929 13.328 18.306 32.466 25.085 52.746 2.37 7.051 4.787 14.281 7.45 21.349 9.276 24.222 21.827 42.378 37.484 53.843 15.681 11.553 37.327 17.762 60.824 17.614 26.266-.216 48.998-.351 56.362-5.495l.335-.185Z" fill="url(#s)"/><path d="M453.65 503.484c-17.21 4.612-34.646 5.153-50.264 1.364-29.789-7.197-47.964-25.192-54.369-32.602-3.465-3.971-5.801-7.669-8.113-11.276-2.012-3.208-3.976-6.236-6.526-9.3-6.083 2.399-19.682 2.2-38.53 1.774a1496.26 1496.26 0 0 0-16.683-.237c-16.188-.178-39.581-3.228-58.499-17.181-15.089-11.136-27.089-28.672-35.587-52.142-2.525-6.913-4.739-14.101-6.971-20.996-5.922-18.876-11.581-36.766-22.032-49.241l-.138-.155.042-.203c2.192-20.859 7.998-34.327 19.343-45.052-6.436-13.263-.328-34.21 14.371-48.908 14.765-14.812 36.698-23.667 58.364-31.01 11.436-3.929 23.231-7.954 32.238-18.437 13.909-16.216 32.57-36.203 54.239-46.044 31.007-14.073 67.465-13.178 97.64 2.274 29.631 15.213 54.871 42.363 71.087 76.35 4.548 9.445 8.541 19.327 12.462 28.94 9.016 22.178 18.315 45.049 33.837 63.178 11.618 13.603 26.569 24.584 41.042 35.212 5.127 3.718 9.913 7.239 14.544 10.898 17.357 13.506 18.598 36.423 12.424 52.103-5.441 13.755-17.754 24.452-38.802 33.742-2.055.935-4.224 1.805-6.572 2.722-8.496 3.429-18.199 7.374-26.917 14.994-19.789 17.215-42.217 36.77-67.391 49.664-7.807 4.206-15.993 7.36-24.239 9.569Zm-119.064-52.83.161.245c2.778 3.194 4.766 6.312 6.826 9.699 2.288 3.518 4.624 7.216 8 11.211 6.381 7.32 24.418 25.16 53.914 32.339 22.919 5.58 49.819 1.638 73.989-10.698 25.085-12.87 47.537-32.336 67.236-49.527 8.808-7.644 18.511-11.589 27.072-15.132 2.259-.893 4.427-1.763 6.572-2.722 20.779-9.218 33.026-19.801 38.36-33.239 6.067-15.363 4.833-37.897-12.159-51.117-4.721-3.635-9.507-7.156-14.545-10.898-14.472-10.628-29.513-21.585-41.269-35.343-15.546-18.219-24.868-41.18-33.999-63.423-3.921-9.613-7.914-19.496-12.462-28.941-16.192-33.897-41.294-60.891-70.697-75.973-29.883-15.434-66.138-16.288-96.875-2.287l-.21-.424.21.424c-21.49 9.793-40.11 29.577-53.929 45.769-9.073 10.597-21.023 14.759-32.573 18.623-21.487 7.294-43.33 16.125-58.029 30.824-14.544 14.56-20.52 35.28-14.091 48.16l.162.245-.018.292c-11.303 10.523-17.133 23.901-19.284 44.556 10.476 12.564 16.134 30.454 22.08 49.42 2.143 6.92 4.447 14.084 6.971 20.997 8.451 23.29 20.337 40.76 35.288 51.741 18.78 13.798 41.881 16.831 57.955 16.943 5.876.059 11.369.124 16.683.237 18.352.366 32.74.642 38.505-1.863l.156-.138Z" fill="url(#t)"/><path d="M446.782 503.307c-17.389 4.66-35.053 5.069-50.946.97-30.973-8.033-49.085-27.582-55.389-35.691-3.496-4.444-5.91-8.792-8.276-12.962-2.156-3.745-4.086-7.359-6.845-10.847-4.244.657-12.266.116-23.218-.6-8.519-.599-19.088-1.322-30.709-1.667-15.673-.411-38.057-3.636-55.628-16.509-14.383-10.652-25.629-27.526-33.415-50.129-2.322-6.872-4.422-13.994-6.451-20.848-5.09-17.562-9.916-34.138-19.004-45.825l-.137-.155.041-.204c3.544-20.836 11.077-34.671 24.454-44.98-5.161-12.451 1.32-31.288 15.518-44.988 15.13-14.525 38.438-23.269 55.46-29.655 11.699-4.384 22.047-8.789 30.182-18.943 18.766-23.186 36.567-38.139 54.514-45.734 30.464-12.87 66.033-11.352 95.198 4.274 28.483 15.232 52.838 41.947 68.479 75.223 4.386 9.2 8.266 19.017 12.114 28.361 9.089 22.447 18.484 45.676 34.322 63.913 10.787 12.288 24.35 22.392 37.59 32.006 5.994 4.446 11.738 8.671 17.236 13.058 17.777 14.355 18.11 38.187 10.974 54.221-7.917 17.781-24.309 30.82-41.982 33.346-11.475 1.633-23.758 7.422-34.345 16.312-2.353 1.975-4.771 4.064-7.214 6.064-18.022 15.204-36.689 30.87-57.549 41.935-7.939 4.433-16.369 7.749-24.974 10.054ZM157.774 308.869c9.112 11.777 13.961 28.442 19.051 46.004 2.029 6.854 4.016 13.911 6.427 20.759 7.648 22.448 18.846 39.142 33.116 49.729 17.368 12.831 39.548 16.014 55.108 16.36 11.597.255 22.19 1.068 30.709 1.667 11.155.758 19.201 1.388 23.307.576l.269-.072.138.155c2.807 3.667 4.85 7.347 7.031 11.182 2.366 4.169 4.756 8.428 8.252 12.871 6.28 8.021 24.164 27.438 54.934 35.429 23.446 6.111 51.021 2.181 75.585-10.838 20.795-10.952 39.372-26.593 57.394-41.798 2.443-1.999 4.861-4.088 7.214-6.064 10.767-8.937 23.115-14.84 34.77-16.521 17.314-2.43 33.551-15.331 41.337-32.884 7.005-15.807 6.612-39.143-10.8-53.211-5.409-4.411-11.152-8.637-17.236-13.059-13.175-9.727-26.917-19.783-37.727-32.162-15.952-18.302-25.371-41.621-34.484-64.157-3.759-9.368-7.728-19.161-12.114-28.361-15.594-33.097-39.811-59.656-68.18-74.823-28.938-15.495-64.237-17.085-94.522-4.262l-.186-.335.186.335c-17.768 7.547-35.504 22.386-54.204 45.458-8.315 10.202-18.728 14.721-30.516 19.129-16.933 6.362-40.151 15.081-55.15 29.38-13.912 13.334-20.434 32.374-15.214 44.329l.073.269-.245.162c-13.264 10.375-20.821 24.12-24.323 44.753Z" fill="url(#u)"/><path d="M440.362 503.01c-17.748 4.756-35.997 5.13-51.986.672-22.615-6.237-43.224-20.409-56.409-38.78-3.551-5.005-6.109-9.892-8.44-14.647-2.211-4.307-4.26-8.37-7.074-12.419-2.457-.206-6.068-.776-10.672-1.464-9.817-1.5-24.578-3.886-41.968-4.606-22.076-1.002-39.836-6.33-52.783-15.927-13.79-10.235-24.258-26.356-31.218-48.028-2.232-6.895-4.105-13.887-5.931-20.699-4.323-16.134-8.406-31.372-16.04-42.296l-.138-.155.042-.203c4.87-20.904 14.286-35.243 29.589-44.82-3.75-11.484 3.163-28.708 16.753-41.091 13.19-12.085 32.237-19.878 49.026-26.779l3.555-1.433c12.027-4.951 20.969-9.941 28.239-19.383 11.96-15.597 31.153-36.111 54.7-45.399 29.897-11.758 64.624-9.438 92.731 6.184 27.425 15.227 50.805 41.531 65.961 74.072 4.249 9.045 8.056 18.593 11.767 27.782 9.095 22.829 18.586 46.417 34.897 64.623 10.001 11.154 22.47 20.398 34.573 29.356 6.814 4.995 13.288 9.793 19.361 14.891 17.352 14.564 17.926 39.293 9.524 56.339-8.861 17.841-26.45 30.72-44.983 32.9-12.492 1.426-25.008 6.701-35.382 14.957-4.443 3.496-8.927 7.195-13.322 10.871-15.431 12.685-31.393 25.896-48.836 35.373-8.077 4.278-16.752 7.755-25.536 10.109ZM158.6 304.421c7.658 11.013 11.741 26.251 16.064 42.385 1.825 6.812 3.699 13.804 5.931 20.699 6.912 21.493 17.266 37.548 30.919 47.628 12.809 9.441 30.389 14.818 52.352 15.754 17.414.81 32.241 3.082 42.081 4.672 4.718.754 8.418 1.299 10.786 1.529l.203.042.138.155c2.838 4.139 5.001 8.267 7.236 12.664 2.42 4.731 4.865 9.552 8.392 14.467 13.071 18.306 33.542 32.323 55.954 38.519 23.768 6.6 52.647 2.513 77.181-10.978 17.419-9.567 33.315-22.665 48.746-35.35 4.419-3.585 8.88-7.375 13.323-10.871 10.373-8.255 23.045-13.668 35.74-15.052 18.264-2.108 35.698-14.849 44.428-32.464 8.205-16.705 7.638-41.051-9.374-55.418-6.073-5.098-12.433-9.83-19.247-14.825-12.103-8.958-24.661-18.178-34.687-29.422-16.359-18.385-25.85-41.973-35.058-64.868-3.712-9.189-7.519-18.737-11.678-27.806-15.108-32.362-38.35-58.51-65.686-73.762-27.993-15.556-62.427-17.858-92.145-6.148l-.096-.359.096.359c-23.457 9.263-42.495 29.64-54.39 45.124-7.335 9.555-16.343 14.658-28.549 19.658l-3.555 1.433c-16.699 6.876-35.656 14.646-48.78 26.617-13.435 12.246-20.373 29.38-16.426 40.523l.072.269-.245.162c-15.434 9.803-24.808 23.94-29.726 44.664Z" fill="url(#v)"/><path d="M433.583 502.809c-17.927 4.804-36.404 5.047-52.782.213-23.344-6.811-44.332-22.034-57.428-41.87-3.582-5.477-6.194-10.926-8.669-16.219-2.266-4.869-4.459-9.469-7.328-14.08-7.355-2.352-26.365-8.403-51.377-9.963-21.61-1.415-37.947-6.452-49.823-15.279-13.108-9.841-22.912-25.275-29.022-45.926-2.053-6.944-3.747-13.983-5.393-20.843-3.442-14.641-6.783-28.541-13.029-38.588l-.048-.179.065-.114c6.264-21.084 17.609-35.749 34.79-44.771-2.428-10.494 5.121-26.063 17.9-37.172 11.471-9.895 27.536-16.986 41.725-23.189a907.55 907.55 0 0 0 8.066-3.602c9.158-4.184 18.615-9.407 26.182-19.889 9.172-12.737 28.53-35.505 54.975-45.089 29.421-10.669 63.102-7.589 90.378 8.159 26.278 15.247 48.886 41.181 63.443 72.922 4.112 8.889 7.757 18.192 11.331 27.226 9.167 23.098 18.664 47.069 35.381 65.358 9.355 10.174 20.866 18.715 32.078 26.854 7.155 5.192 14.496 10.719 21.007 16.372 17.682 15.437 17.437 41.057 8.05 58.367-9.692 17.968-28.566 30.711-48.099 32.39-9.575.836-23.66 3.842-36.327 13.577-5.913 4.466-11.663 9.177-17.725 14.164-13.233 10.847-26.956 22.017-41.74 30.302-8.519 4.78-17.439 8.419-26.581 10.869ZM159.449 300.062c6.27 10.136 9.611 24.036 13.053 38.677 1.646 6.86 3.34 13.9 5.369 20.754 6.086 20.561 15.776 35.93 28.747 45.616 11.876 8.826 27.985 13.732 49.506 15.171 25.126 1.626 44.363 7.808 51.604 10.094l.114.066.024.09c2.982 4.676 5.176 9.277 7.465 14.235 2.475 5.293 4.974 10.676 8.555 16.153 13.049 19.657 33.833 34.839 57.064 41.583 24.475 7.084 53.939 3.032 78.711-11.003 14.761-8.374 28.394-19.521 41.651-30.278 5.841-4.735 11.902-9.722 17.814-14.188 12.846-9.783 27.111-12.837 36.686-13.673 19.329-1.721 37.958-14.302 47.519-32.043 9.257-17.083 9.418-42.296-7.923-57.536-6.511-5.653-13.487-10.893-20.983-16.282-11.236-8.229-22.747-16.769-32.102-26.944-16.831-18.355-26.328-42.325-35.519-65.513-3.574-9.034-7.309-18.312-11.33-27.226-14.534-31.652-37.004-57.43-63.168-72.611-27.049-15.617-60.527-18.656-89.769-8.034l-.096-.359.096.359c-26.266 9.535-45.468 32.165-54.64 44.902-7.615 10.303-17.137 15.64-26.385 19.848-2.569 1.168-5.318 2.385-8.066 3.602-14.099 6.18-30.075 13.246-41.456 23.117-12.803 11.02-20.197 26.451-17.638 36.717l.072.269-.245.162c-17.228 8.843-28.533 23.304-34.73 44.275Z" fill="url(#w)"/><path d="M426.828 502.698c-18.106 4.851-36.834 4.874-53.553-.157-24.075-7.384-45.374-23.773-58.449-44.959-3.701-5.926-6.278-11.96-8.808-17.815-2.32-5.431-4.568-10.593-7.556-15.652-9.272-5.201-27.888-11.934-50.115-13.856-14.449-1.22-32.798-4.085-46.977-14.696-12.265-9.203-21.524-24.399-26.85-43.915-1.897-7.081-3.322-14.193-4.789-21.101-2.742-13.099-5.201-25.506-10.15-34.651l-.048-.18.066-.113c7.542-21.331 20.997-36.369 39.9-44.7-1.039-9.617 6.811-23.345 19.136-33.276 9.86-8.022 22.68-13.955 34.987-19.655 4.176-1.983 8.107-3.805 11.925-5.693 11.004-5.542 18.307-11.63 24.214-20.418 14.739-21.722 34.858-38.065 55.137-44.844 28.741-9.622 61.646-5.854 87.912 10.069 25.22 15.242 46.829 40.675 60.925 71.771 3.974 8.734 7.571 17.858 11.007 26.736 9.264 23.457 18.743 47.721 35.956 66.069 8.733 9.285 19.49 17.162 29.768 24.688 7.634 5.544 15.544 11.398 22.377 17.541 8.252 7.492 13.017 17.743 13.802 29.638.718 10.567-1.928 21.844-7.178 30.936-10.523 18.095-30.592 30.678-51.189 31.97-15.2.998-27.401 4.94-37.387 12.131-7.006 5.047-14.178 10.908-21.039 16.493-11.436 9.309-23.272 18.917-35.888 26.332-8.47 4.96-17.725 8.785-27.136 11.307ZM160.274 295.614c4.883 9.259 7.432 21.642 10.174 34.741 1.467 6.908 2.916 14.109 4.789 21.101 3.627 13.535 11.163 31.978 26.551 43.515 14.066 10.545 32.39 13.321 46.66 14.589 22.34 1.987 41.16 8.761 50.431 13.963l.114.065.024.09c3.013 5.149 5.422 10.556 7.694 15.807 2.506 5.766 5.083 11.8 8.784 17.725 12.937 21.032 34.123 37.355 58.084 44.673 25.228 7.746 55.231 3.55 80.307-11.143 12.526-7.391 24.362-16.999 35.798-26.308 6.861-5.585 14.033-11.446 21.039-16.493 10.075-7.215 22.432-11.295 37.721-12.318 20.304-1.309 40.219-13.754 50.7-31.646 9.932-17.071 11.036-43.786-6.474-59.654-6.833-6.142-14.719-11.907-22.287-17.565-10.392-7.591-21.149-15.468-29.905-24.843-17.238-18.438-26.807-42.677-36.094-66.224-3.436-8.878-7.034-18.001-10.983-26.646-14.048-30.917-35.544-56.284-60.65-71.461-26.129-15.767-58.741-19.518-87.326-10.033l-.096-.359.096.359c-20.19 6.755-40.243 22.984-54.827 44.568-5.997 8.812-13.365 15.014-24.459 20.58-3.728 1.864-7.748 3.71-11.924 5.693-12.307 5.7-25.014 11.698-34.898 19.63-12.325 9.932-20.02 23.522-18.825 33.001l.072.269-.269.072c-19.041 8.176-32.431 23.1-40.021 44.252Z" fill="url(#x)"/><path d="M420.163 502.562c-18.286 4.9-37.33 4.815-54.373-.706-24.804-7.956-46.392-25.421-59.468-48.048-3.732-6.397-6.364-12.993-8.924-19.321-2.302-5.723-4.676-11.716-7.809-17.313-8.215-6.637-25.871-15.164-48.852-17.749-15.448-1.721-31.591-4.601-44.131-14.114-14.796-11.118-21.578-28.899-24.654-41.813-1.766-7.308-2.97-14.671-4.192-21.741-1.903-11.403-3.727-22.155-7.287-30.423l-.024-.09.065-.114c8.911-21.601 24.476-37.012 45.125-44.562.372-8.65 8.679-20.675 20.259-29.446 8.313-6.263 18.762-11.368 28.876-16.288 5.448-2.612 10.538-5.129 15.221-7.729 9.612-5.361 16.436-11.801 22.182-20.834 13.639-21.524 34.337-38.214 55.412-44.533 28.174-8.51 60.123-4.006 85.446 11.978 24.071 15.262 44.796 40.259 58.383 70.531 3.812 8.489 7.272 17.457 10.659 26.157 9.27 23.839 18.822 48.371 36.418 66.713 8.247 8.55 18.16 15.789 27.822 22.807 8.089 5.807 16.453 11.924 23.52 18.58 18.025 17.074 16.086 44.974 5.15 62.603-12.714 20.315-36.483 28.413-54.19 31.524-2.468.47-4.985.76-7.656 1.187-10.351 1.525-21.085 3.056-30.767 9.589-7.878 5.377-15.761 11.813-23.398 18.086-9.836 8.112-20.095 16.433-30.925 22.985a104.423 104.423 0 0 1-27.888 12.084ZM161.124 291.255c3.561 8.269 5.385 19.02 7.287 30.423 1.222 7.07 2.426 14.433 4.193 21.741 3.052 12.825 9.809 30.516 24.378 41.503 12.492 9.334 28.456 12.262 43.904 13.983 23.07 2.561 40.953 11.219 49.192 17.945l.114.066c3.157 5.687 5.531 11.68 7.947 17.469 2.56 6.327 5.192 12.923 8.924 19.321 12.938 22.472 34.502 39.846 59.103 47.761 25.959 8.32 56.636 4.135 81.903-11.282 10.74-6.528 20.999-14.849 30.835-22.961 7.637-6.273 15.52-12.709 23.398-18.086 9.747-6.647 21.043-8.232 31.012-9.75 2.671-.428 5.187-.718 7.566-1.163 17.594-3.177 41.208-11.138 53.856-31.339 10.804-17.402 12.75-44.919-5.047-61.862-7.068-6.656-15.408-12.683-23.407-18.514-9.662-7.018-19.665-14.233-27.936-22.872-17.71-18.408-27.309-43.12-36.579-66.959-3.388-8.699-6.824-17.578-10.66-26.157-13.563-30.182-34.173-55.114-58.132-70.31-25.208-15.918-57.044-20.357-84.949-11.919l-.072-.269.072.269c-20.872 6.361-41.528 22.848-55.102 44.258-5.811 9.146-12.701 15.7-22.402 21.086-4.684 2.599-9.773 5.116-15.222 7.729-10.024 4.895-20.497 9.911-28.72 16.15-13.515 10.154-19.885 22.236-20.038 29.194l-.042.203-.179.048c-20.739 7.575-36.238 22.872-45.197 44.294Z" fill="url(#y)"/><path d="M413.743 502.265c-18.555 4.972-38.299 4.786-55.503-.98-25.421-8.463-47.434-27.159-60.488-51.137-3.205-5.866-5.245-12.044-7.213-17.954-2.675-7.833-5.141-15.242-9.913-21.937-5.969-8.296-22.952-18.252-47.589-21.642-14.552-1.961-29.702-4.722-41.261-13.442-13.976-10.569-19.956-27.509-22.482-39.801-1.569-7.65-2.487-15.378-3.422-22.813-1.129-9.592-2.204-18.623-4.598-25.763l-.024-.09.066-.114c10.5-22.123 27.798-37.518 50.236-44.491 1.558-6.374 8.767-16.759 21.494-25.55 6.809-4.706 15.113-8.852 23.082-12.813 6.518-3.284 12.701-6.381 18.136-9.759 8.398-5.229 14.458-11.656 20.215-21.364 12.825-21.69 33.661-38.225 55.598-44.199l.269-.072c27.428-7.349 58.332-2.084 82.734 14.05 23.33 15.364 42.643 39.395 55.865 69.38 3.674 8.334 7.086 17.123 10.312 25.578 9.252 24.132 18.924 49.112 36.992 67.424 7.786 7.905 17.06 14.547 26.081 20.968 8.43 6.003 17.135 12.317 24.412 19.397 18.289 18.061 15.621 46.828 3.7 64.721-10.955 16.481-31.319 27.606-57.282 31.104-2.581.403-5.211.628-8.02.9-10.561 1.101-21.595 2.232-31.438 8.52-8.53 5.456-16.854 12.394-24.957 19.08-8.57 7.1-17.384 14.361-26.672 20.212-8.661 5.683-18.291 9.897-28.33 12.587ZM162.039 286.783c2.304 7.164 3.379 16.195 4.508 25.788.936 7.435 1.83 15.073 3.399 22.722 2.501 12.203 8.343 28.987 22.206 39.491 11.445 8.654 26.572 11.326 41.034 13.311 24.727 3.366 41.936 13.453 47.93 21.838 4.772 6.695 7.351 14.17 9.937 22.028 1.992 5.999 4.097 12.063 7.189 17.864 12.94 23.912 34.816 42.453 60.123 50.851 26.371 8.785 58.352 4.443 83.522-11.332 9.288-5.851 18.103-13.113 26.672-20.212 8.103-6.687 16.428-13.625 25.047-19.105 9.909-6.401 20.942-7.532 31.617-8.567 2.809-.273 5.415-.587 7.931-.877 15.001-2.098 42.304-8.837 56.947-30.918 11.766-17.755 14.44-46.14-3.598-63.979-7.187-7.105-15.868-13.329-24.297-19.332-9.046-6.511-18.319-13.153-26.195-21.034-18.182-18.377-27.764-43.382-37.04-67.604-3.226-8.454-6.638-17.243-10.312-25.577-13.199-29.896-32.487-53.837-55.704-69.135-24.288-16.069-55.079-21.268-82.328-13.967l-.269.072-.072-.269.072.269c-21.846 5.95-42.527 22.347-55.287 43.923-5.822 9.823-11.882 16.25-20.37 21.502-5.435 3.378-11.618 6.476-18.136 9.759-7.969 3.961-16.183 8.083-22.992 12.79-12.728 8.79-19.871 19.062-21.25 25.388l-.065.114-.18.048c-22.371 6.859-39.694 22.164-50.039 44.15Z" fill="url(#z)"/><path d="M407.078 502.13c-18.734 5.019-38.705 4.702-56.388-1.415-26.061-9.061-48.453-28.808-61.419-54.251-3.259-6.428-5.557-13.21-7.693-19.746-2.705-8.306-5.267-16.074-9.914-23.379-6.199-9.867-22.896-21.629-46.327-25.534l-.61-.125c-12.663-2.083-26.952-4.499-37.805-12.735-10.375-7.884-17.51-21.247-20.196-37.724-1.355-8.283-1.831-16.513-2.324-24.451-.488-7.555-.855-14.662-2.033-20.495l-.024-.089.065-.114c11.738-22.167 31.17-37.845 54.833-44.186l.628-.168c2.57-5.108 10.031-13.832 22.617-21.719 5.256-3.33 11.439-6.428 17.443-9.478 7.276-3.679 14.821-7.43 20.871-11.741 8.899-6.227 13.989-14.124 18.247-21.893 11.882-21.629 33.207-38.488 55.874-43.889 26.813-6.416 56.917-.552 80.626 15.864 22.159 15.294 40.586 38.889 53.347 68.229 3.537 8.179 6.811 16.813 9.989 25.088 9.348 24.491 18.913 49.788 37.477 68.159 7.325 7.26 16.096 13.46 24.501 19.374 8.771 6.2 17.769 12.531 25.076 20.084 8.224 8.461 12.81 20.201 12.802 33.077.02 11.907-3.803 24.172-10.552 33.762-16.201 23.074-44.82 29.206-60.372 30.683-2.72.248-5.463.407-8.386.614-10.771.676-22.014 1.383-32.019 7.426-9.025 5.397-17.636 12.7-25.937 19.727-7.368 6.202-15.048 12.679-23.063 17.901a100.95 100.95 0 0 1-29.334 13.144ZM162.865 282.335c1.179 5.832 1.635 12.915 2.033 20.494.494 7.938.97 16.168 2.325 24.451 2.727 16.274 9.838 29.548 20.009 37.39 10.74 8.17 25.005 10.497 37.578 12.604l.61.124c23.52 3.881 40.356 15.799 46.668 25.732 4.557 7.329 7.329 15.52 9.939 23.467 2.135 6.537 4.409 13.23 7.668 19.657 12.918 25.264 35.196 44.945 61.144 53.94 27.239 9.514 59.871 5.093 85.118-11.471 8.016-5.222 15.605-11.675 23.064-17.9 8.3-7.028 16.935-14.241 26.026-19.751 10.095-6.068 21.338-6.774 32.198-7.475 2.923-.207 5.667-.365 8.386-.614 15.528-1.566 43.992-7.56 60.038-30.497 12.663-17.996 16.154-47.272-2.261-66.163-7.284-7.463-16.281-13.795-25.052-19.995-8.429-6.003-17.2-12.203-24.615-19.439-18.654-18.347-28.242-43.734-37.615-68.314-3.178-8.275-6.452-16.909-9.988-25.088-12.738-29.251-31.141-52.757-53.186-67.985-23.595-16.35-53.52-22.262-80.22-15.78-22.463 5.442-43.747 22.097-55.539 43.702-4.258 7.77-9.413 15.78-18.402 22.032-6.164 4.245-13.685 8.086-20.961 11.765-5.914 3.025-12.097 6.123-17.377 9.363-12.586 7.888-20.047 16.612-22.552 21.606l-.065.114-.09.024-.717.192c-23.215 6.221-42.492 21.761-54.164 43.815Z" fill="url(#A)"/><path d="M400.436 502.084c-18.913 5.067-39.135 4.53-57.297-1.94-26.677-9.568-49.381-30.48-62.414-57.25-3.428-7.056-5.78-14.399-8.084-21.564-2.706-8.305-5.483-16.88-9.803-24.753-5.918-10.615-21.327-24.739-45.064-29.427a44.077 44.077 0 0 1-3.252-.666c-11.36-2.24-23.013-4.497-32.317-11.611-13.181-10.11-16.948-26.682-17.999-35.623-1.147-9.299-.967-18.666-.792-26.975.048-5.201.168-10.133-.106-14.382l-.024-.09.065-.114c13.434-23.005 34.982-38.674 60.571-44.282 4.925-5.643 13.883-12.366 23.853-17.824 3.68-2.042 7.587-3.954 11.739-6.027 8.394-4.171 17.146-8.437 23.786-13.771 7.62-5.981 11.903-13.661 16.191-22.399 11.02-21.975 32.573-38.702 56.035-43.644 26.109-5.459 55.371 1.207 78.183 17.863 20.988 15.224 38.554 38.473 50.83 67.079 3.399 8.024 6.601 16.389 9.641 24.509 9.331 24.783 19.015 50.529 37.938 68.804 6.978 6.68 15.132 12.373 23.059 17.934 8.974 6.242 18.289 12.681 25.603 20.616 8.23 8.843 12.644 21.014 12.438 34.231-.176 12.248-4.465 24.925-11.662 34.636-12.897 17.481-36.077 28.496-63.464 30.262-2.833.183-5.78.3-8.84.351-10.98.253-22.319.601-32.6 6.334-9.342 5.289-18.019 12.706-26.451 19.961-6.389 5.554-13.047 11.181-19.946 15.912-9.03 6.454-19.24 11.016-29.817 13.85ZM163.714 277.976c.274 4.25.131 9.092.083 14.292-.086 8.285-.266 17.652.857 26.862 1.051 8.941 4.86 25.309 17.838 35.378 9.19 7.048 20.842 9.306 32.089 11.48 1.106.184 2.236.458 3.252.666 23.851 4.753 39.373 18.943 45.316 29.648 4.409 7.849 7.187 16.424 9.803 24.753 2.304 7.164 4.656 14.508 8.059 21.474 13.009 26.68 35.689 47.502 62.163 57.029 28.173 10.128 61.366 5.653 86.715-11.611 6.898-4.73 13.532-10.447 19.945-15.912 8.432-7.255 17.085-14.761 26.541-19.985 10.28-5.732 21.709-6.105 32.779-6.381 3.06-.052 5.918-.145 8.84-.351 27.298-1.743 50.298-12.709 63.129-30.077 13.666-18.553 17.091-49.156-.811-68.281-7.29-7.845-16.605-14.284-25.578-20.526-7.927-5.561-16.171-11.23-23.173-18-19.037-18.341-28.721-44.086-38.076-68.96-3.04-8.119-6.242-16.484-9.641-24.508-12.252-28.516-29.794-51.676-50.668-66.834-22.788-16.566-51.847-23.191-77.867-17.756-23.372 4.918-44.77 21.507-55.724 43.368-4.377 8.763-8.66 16.443-16.346 22.537-6.665 5.245-15.393 9.601-23.876 13.795-4.152 2.073-8.059 3.985-11.649 6.003-9.946 5.548-18.838 12.157-23.763 17.8l-.09.024-.089.024c-25.321 5.536-46.689 21.157-60.058 44.049Z" fill="url(#B)"/><path d="M394.04 501.876a101.372 101.372 0 0 1-12.675 2.532c-15.677 2.087-31.507.372-45.71-4.949-27.228-10.189-50.399-32.128-63.434-60.339-3.596-7.683-6.116-15.654-8.499-23.469-2.712-8.689-5.586-17.622-9.756-26.015-6.471-12.677-21.362-28.093-43.802-33.32-1.65-.423-3.48-.797-5.13-1.219-9.692-2.111-19.611-4.353-27.569-10.386-9.1-7.073-14.865-19.266-15.827-33.611-.7-10.86.667-21.891 1.781-30.643.296-2.481.616-4.873.804-7.037l.066-.113c14.826-23.187 38.753-39.301 65.706-44.121 6.164-4.246 15.106-9.236 24.975-13.994 1.787-.863 3.597-1.636 5.473-2.523 9.314-4.321 19.924-9.181 27.197-15.742 6.407-5.847 9.793-13.287 13.466-21.092l.781-1.747c10.052-22.003 32.208-38.988 56.31-43.333 12.658-2.238 26.377-1.591 39.514 1.902 12.934 3.451 25.44 9.611 36.204 17.871 19.815 15.153 36.472 37.878 48.287 65.839 3.351 7.844 6.326 16.078 9.318 24.018 9.337 25.167 19.004 51.205 38.513 69.515 6.654 6.191 14.306 11.442 21.82 16.538 9.177 6.283 18.695 12.763 26.081 20.967 8.236 9.226 12.543 21.714 12.075 35.385-.439 12.703-5.038 25.656-12.66 35.576-13.989 18.063-38.251 28.983-66.554 29.841-3.036.142-6.234.038-9.295.089-11.166-.082-22.715-.158-33.091 5.216-9.618 4.979-18.246 12.575-26.54 19.985-5.5 4.932-11.268 9.936-17.229 14.224a98.883 98.883 0 0 1-30.6 14.155Zm-229.5-228.348c-.188 2.164-.532 4.465-.828 6.946-1.173 9.249-2.481 19.783-1.781 30.644 1.003 14.141 6.655 26.269 15.731 33.252 7.868 6.057 17.763 8.21 27.366 10.344l5.219 1.195c22.578 5.383 37.582 20.865 44.053 33.541 4.236 8.28 7.045 17.327 9.847 25.991 2.472 7.792 4.992 15.763 8.498 23.469 13.011 28.121 36.092 50.085 63.296 60.184 29.13 10.833 62.999 6.369 88.31-11.75 5.961-4.287 11.64-9.267 17.229-14.223 8.383-7.434 17.012-15.03 26.63-20.009 10.466-5.398 22.104-5.346 33.27-5.264 3.085.038 6.259.052 9.206-.065 28.189-.924 52.385-11.731 66.285-29.77 14.563-18.792 18.715-50.263.615-70.487-7.273-8.139-16.791-14.619-25.968-20.903-7.514-5.096-15.189-10.436-21.844-16.627-19.598-18.286-29.289-44.414-38.65-69.67-2.903-7.964-5.967-16.174-9.318-24.018-11.791-27.872-28.448-50.596-48.15-65.684-21.982-16.782-50.198-24.209-75.49-19.641-23.923 4.296-45.924 21.143-56 43.057l-.781 1.747c-3.649 7.894-7.035 15.334-13.508 21.296-7.272 6.56-17.948 11.534-27.262 15.855-1.876.887-3.686 1.66-5.472 2.523-9.959 4.782-18.836 9.658-24.976 13.993-26.929 4.91-50.766 21.001-65.527 44.074Z" fill="url(#C)"/><path d="M387.668 501.758c-19.361 5.188-40.511 4.418-59.474-2.893-27.844-10.697-51.328-33.802-64.454-63.429-3.674-8.334-6.387-17.022-8.937-25.465-2.808-9.047-5.689-18.363-9.776-27.163-8.57-18.358-24.493-32.249-42.563-37.302-2.081-.596-4.341-1.143-6.488-1.624-8.227-2.023-16.658-4.087-23.341-9.309-8.484-6.566-13.567-18.365-13.631-31.51-.111-13.323 2.133-25.742 6.134-34.115 12.528-26.029 41.848-35.999 70.817-44.049 4.751-1.273 10.182-3.593 16.419-6.129 3.107-1.313 6.393-2.674 9.793-3.969 10.533-4.071 22.423-9.178 29.766-16.91 5.086-5.398 7.679-11.857 10.42-18.836.56-1.495 1.21-3.014 1.859-4.533 4.542-11.016 12.432-21.008 22.591-28.63 10.069-7.597 21.803-12.567 33.84-14.255 12.574-1.832 25.535-.79 38.613 3.2 12.443 3.775 24.436 10.168 34.751 18.548 18.872 15.214 34.206 36.948 45.77 64.688 3.213 7.69 6.116 15.654 8.971 23.439 9.343 25.549 19.017 51.97 38.974 70.16 6.241 5.725 13.593 10.576 20.628 15.32 9.357 6.235 19.078 12.757 26.357 21.278 8.243 9.608 12.401 22.616 11.712 36.539-.702 13.157-5.677 26.499-13.771 36.449-7.783 9.675-18.258 17.19-31.116 22.268-11.627 4.653-25.002 7.084-38.439 7.13a210.74 210.74 0 0 1-9.774-.264c-11.351-.417-23.11-.917-33.672 4.123-9.714 4.621-18.115 12.348-26.32 19.734-4.788 4.357-9.732 8.852-14.845 12.72-9.203 6.885-19.699 11.811-30.814 14.789ZM352.504 133.53c-21.512 5.764-39.845 21.244-48.064 41.123-.65 1.519-1.21 3.014-1.86 4.533-2.741 6.979-5.31 13.528-10.486 18.95-7.408 7.845-19.322 12.863-29.921 17.048-3.489 1.319-6.686 2.656-9.792 3.968-6.214 2.626-11.669 4.856-16.419 6.129-28.88 8.027-58.2 17.996-70.662 43.912-3.935 8.26-6.18 20.678-6.092 33.912.129 13.031 5.164 24.651 13.558 31.24 6.659 5.133 15.09 7.197 23.228 9.244 2.171.571 4.407 1.029 6.488 1.624 9.77 2.762 18.701 7.766 26.408 15.02 6.769 6.256 12.415 14.062 16.292 22.438 4.087 8.8 6.968 18.115 9.776 27.162 2.551 8.443 5.263 17.131 8.937 25.466 13.102 29.537 36.562 52.552 64.317 63.273 29.68 11.453 65.031 6.784 89.93-11.8 5.112-3.868 10.056-8.363 14.844-12.72 8.181-7.476 16.582-15.203 26.386-19.847 10.651-5.064 22.41-4.564 33.851-4.171 3.198.104 6.51.273 9.684.287 29.105-.017 54.383-10.729 69.376-29.349 15.37-19.009 20.316-51.461 2.065-72.606-7.254-8.431-16.976-14.953-26.332-21.189-7.035-4.743-14.388-9.594-20.653-15.409-20.071-18.255-29.768-44.766-39.112-70.315-2.854-7.785-5.781-15.839-8.97-23.439-11.45-27.674-26.874-49.384-45.656-64.622-21.223-17.178-48.55-25.227-73.048-21.641-2.671.427-5.384 1.058-8.073 1.779Z" fill="url(#D)"/><path d="M381.14 501.778c-19.45 5.212-41.031 4.269-60.497-3.484-28.371-11.228-52.256-35.474-65.474-66.518-3.842-8.961-6.657-18.391-9.399-27.551-2.815-9.429-5.702-19.127-9.682-28.244-5.245-12.045-17.602-33.424-41.3-41.196-2.422-.792-4.91-1.47-7.397-2.149-6.853-1.91-13.974-3.749-19.586-8.202-7.826-6.261-12.269-17.463-11.435-29.407.675-10.749 4.248-21.794 9.618-30.438 7.63-12.035 18.695-22.013 33.038-29.795 12.335-6.668 26.819-11.414 42.979-14.207 10.279-1.793 18.98-3.74 27.424-6.291 12.632-3.769 21.705-8.986 26.976-15.49 4.124-5.044 5.982-11.018 8.013-17.422.684-2.105 1.345-4.3 2.21-6.453 8.353-22.605 31.137-39.758 56.681-42.663 12.312-1.378 25.011.119 37.598 4.432 11.865 4.122 23.433 10.725 33.276 19.136 17.562 14.988 32.149 36.442 43.252 63.537 3.052 7.445 5.841 15.344 8.647 22.95 9.35 25.931 19.03 52.735 39.549 70.87 6.032 5.301 12.905 9.799 19.551 14.167 9.536 6.187 19.347 12.685 26.584 21.41 8.249 9.99 12.235 23.429 11.283 37.806-.916 13.791-6.184 27.116-14.857 37.413-8.297 9.909-19.334 17.478-32.664 22.587-12.213 4.617-26.018 6.875-39.958 6.479-3.378-.055-6.803-.29-10.228-.525-11.538-.752-23.482-1.586-34.254 3.03-9.81 4.261-17.942 11.916-25.74 19.386-4.144 3.896-8.353 7.906-12.796 11.402-9.311 7.202-20.028 12.38-31.412 15.43ZM227.454 224.006c-27.787 7.445-49.271 21.56-61.263 40.625-5.394 8.554-8.853 19.665-9.552 30.324-.769 11.83 3.584 23.057 11.362 29.138 5.613 4.453 12.645 6.316 19.497 8.226 2.488.679 4.975 1.357 7.397 2.149 9.37 3.061 17.973 8.634 25.49 16.611 6.44 6.825 11.896 15.354 16.038 24.716 4.004 9.207 6.89 18.905 9.705 28.334 2.743 9.16 5.558 18.589 9.376 27.462 13.194 30.953 36.965 55.134 65.336 66.362 30.841 12.199 66.754 7.475 91.526-11.939 4.443-3.497 8.652-7.507 12.796-11.403 7.888-7.493 16.02-15.148 25.83-19.41 10.862-4.64 22.782-3.895 34.343-3.054 3.336.259 6.851.47 10.139.55 29.613.807 56.691-10.003 72.467-28.928 18.426-21.942 19.989-54.832 3.515-74.724-7.237-8.724-17.048-15.222-26.494-21.434-6.647-4.367-13.52-8.866-19.576-14.256-20.543-18.225-30.223-45.029-39.597-71.05-2.717-7.63-5.571-15.415-8.623-22.86-11.102-27.095-25.576-48.483-43.138-63.472-20.805-17.77-46.543-26.341-70.671-23.526-25.544 2.906-48.149 20.01-56.437 42.502a202.887 202.887 0 0 0-2.21 6.452c-2.054 6.315-3.978 12.403-8.102 17.447-5.336 6.617-14.41 11.834-27.131 15.627-8.444 2.551-17.234 4.522-27.424 6.292-5.115.986-9.938 1.99-14.599 3.239Z" fill="url(#E)"/><path d="M374.948 501.612c-4.303 1.153-8.677 2.037-13.148 2.562-16.49 1.921-33.319-.295-48.617-6.475-14.778-6.032-28.262-15.484-39.975-28.005-11.025-11.744-20.182-26.199-26.519-41.602-3.921-9.613-6.952-19.849-9.773-29.66-2.887-9.699-5.78-19.779-9.677-29.303-6.528-16.119-18.831-36.936-40.037-45.088a108.082 108.082 0 0 0-7.786-2.525c-5.747-1.727-11.583-3.43-16.327-7.154-7.234-5.843-10.881-16.587-9.263-27.396 1.365-8.532 5.628-17.359 13.191-26.783 9.633-12.092 22.108-22.544 36.14-30.051 14.008-7.596 29.55-12.337 44.923-13.766 3.371-.327 6.879-.498 10.209-.622 6.072-.282 12.324-.612 18.45-1.773 10.948-2.165 19.508-7.149 24.073-14.136 3.293-4.918 4.703-10.771 6.071-16.422.655-2.577 1.261-5.333 2.119-7.869 3.656-11.451 11.295-21.664 22.016-29.34 10.141-7.329 22.533-11.994 34.941-13.013 23.4-1.947 48.385 7.402 68.521 25.544 16.594 14.96 29.948 35.399 40.734 62.386 2.914 7.289 5.631 14.92 8.3 22.37 9.356 26.314 19.042 53.5 40.033 71.605 5.733 4.901 12.241 9.113 18.499 13.105 9.625 6.163 19.501 12.547 26.721 21.565 8.166 10.397 12.068 24.242 10.92 38.96-1.179 14.246-6.757 27.846-15.879 38.264-16.958 19.531-45.321 30.204-75.826 28.579-3.515-.211-7.144-.487-10.707-.878-11.723-1.085-23.764-2.278-34.721 2.003-9.841 3.789-17.501 11.414-24.94 18.787-3.499 3.435-7.129 7.098-10.992 10.247-9.084 7.333-19.843 12.714-31.674 15.884ZM229.141 219.904c-24.201 6.484-46.582 20.839-62.1 40.368-7.473 9.4-11.76 18.138-13.125 26.67-1.643 10.72 1.98 21.373 9.19 27.127 4.655 3.748 10.491 5.451 16.238 7.178 2.601.744 5.316 1.553 7.875 2.501 21.32 8.217 33.647 29.124 40.176 45.244 3.896 9.523 6.79 19.604 9.701 29.391 2.91 9.788 5.852 20.048 9.772 29.661 13.285 32.371 37.459 57.693 66.357 69.452 31.481 12.796 68.99 7.933 93.121-12.079 3.864-3.149 7.404-6.787 10.993-10.247 7.439-7.373 15.189-15.021 25.029-18.811 10.982-4.191 23.088-3.112 34.835-1.936 3.539.3 7.102.69 10.617.901 30.416 1.65 58.689-9 75.558-28.507 19.323-22.182 21.5-56.006 4.941-76.931-7.13-9.042-17.007-15.426-26.608-21.499-6.281-4.082-12.855-8.18-18.612-13.171-21.104-18.17-30.791-45.356-40.171-71.76-2.645-7.361-5.386-15.081-8.3-22.37-10.786-26.987-24.116-47.337-40.62-62.321-20.023-18.076-44.918-27.449-68.318-25.502-26.143 2.105-49.441 19.492-56.712 42.192-.834 2.625-1.464 5.291-2.119 7.869-1.368 5.65-2.843 11.617-6.137 16.535-4.654 7.011-13.28 12.108-24.252 14.184-6.125 1.161-12.378 1.491-18.45 1.773-3.33.124-6.838.295-10.209.622-6.18.599-12.485 1.808-18.67 3.466Z" fill="url(#F)"/></g><defs><linearGradient id="a" x1="311.774" y1="83.54" x2="463.059" y2="648.142" gradientUnits="userSpaceOnUse"><stop stop-color="#4AFEBF"/><stop offset="1" stop-color="#51EEDA"/></linearGradient><linearGradient id="b" x1="312.878" y1="86.061" x2="460.265" y2="636.114" gradientUnits="userSpaceOnUse"><stop stop-color="#4AFEBF"/><stop offset="1" stop-color="#51EEDA"/></linearGradient><linearGradient id="c" x1="313.539" y1="88.011" x2="457.199" y2="624.158" gradientUnits="userSpaceOnUse"><stop stop-color="#4AFEBF"/><stop offset="1" stop-color="#51EEDA"/></linearGradient><linearGradient id="d" x1="314.861" y1="90.48" x2="454.621" y2="612.071" gradientUnits="userSpaceOnUse"><stop stop-color="#4AFEBF"/><stop offset="1" stop-color="#51EEDA"/></linearGradient><linearGradient id="e" x1="316.097" y1="92.733" x2="452.04" y2="600.082" gradientUnits="userSpaceOnUse"><stop stop-color="#4AFEBF"/><stop offset="1" stop-color="#51EEDA"/></linearGradient><linearGradient id="f" x1="317.455" y1="94.894" x2="449.573" y2="587.965" gradientUnits="userSpaceOnUse"><stop stop-color="#4AFEBF"/><stop offset="1" stop-color="#51EEDA"/></linearGradient><linearGradient id="g" x1="319.215" y1="96.976" x2="447.525" y2="575.833" gradientUnits="userSpaceOnUse"><stop stop-color="#4AFEBF"/><stop offset="1" stop-color="#51EEDA"/></linearGradient><linearGradient id="h" x1="320.726" y1="98.984" x2="445.238" y2="563.669" gradientUnits="userSpaceOnUse"><stop stop-color="#4AFEBF"/><stop offset="1" stop-color="#51EEDA"/></linearGradient><linearGradient id="i" x1="322.427" y1="101.097" x2="443.174" y2="551.732" gradientUnits="userSpaceOnUse"><stop stop-color="#4AFEBF"/><stop offset="1" stop-color="#51EEDA"/></linearGradient><linearGradient id="j" x1="324.09" y1="102.96" x2="441.114" y2="539.699" gradientUnits="userSpaceOnUse"><stop stop-color="#4AFEBF"/><stop offset="1" stop-color="#51EEDA"/></linearGradient><linearGradient id="k" x1="324.991" y1="105.246" x2="438.26" y2="527.975" gradientUnits="userSpaceOnUse"><stop stop-color="#4AFEBF"/><stop offset="1" stop-color="#51EEDA"/></linearGradient><linearGradient id="l" x1="326.682" y1="107.223" x2="438.383" y2="524.099" gradientUnits="userSpaceOnUse"><stop stop-color="#4AFEBF"/><stop offset="1" stop-color="#51EEDA"/></linearGradient><linearGradient id="m" x1="328.947" y1="108.695" x2="439.6" y2="521.659" gradientUnits="userSpaceOnUse"><stop stop-color="#4AFEBF"/><stop offset="1" stop-color="#51EEDA"/></linearGradient><linearGradient id="n" x1="331.164" y1="110.724" x2="440.633" y2="519.269" gradientUnits="userSpaceOnUse"><stop stop-color="#4AFEBF"/><stop offset="1" stop-color="#51EEDA"/></linearGradient><linearGradient id="o" x1="331.768" y1="112.835" x2="440.165" y2="517.377" gradientUnits="userSpaceOnUse"><stop stop-color="#4AFEBF"/><stop offset="1" stop-color="#51EEDA"/></linearGradient><linearGradient id="p" x1="331.503" y1="115.113" x2="438.819" y2="515.624" gradientUnits="userSpaceOnUse"><stop stop-color="#4AFEBF"/><stop offset="1" stop-color="#51EEDA"/></linearGradient><linearGradient id="q" x1="331.032" y1="117.301" x2="437.329" y2="514.006" gradientUnits="userSpaceOnUse"><stop stop-color="#4AFEBF"/><stop offset="1" stop-color="#51EEDA"/></linearGradient><linearGradient id="r" x1="330.871" y1="119.444" x2="436.114" y2="512.218" gradientUnits="userSpaceOnUse"><stop stop-color="#4AFEBF"/><stop offset="1" stop-color="#51EEDA"/></linearGradient><linearGradient id="s" x1="330.664" y1="121.642" x2="434.867" y2="510.535" gradientUnits="userSpaceOnUse"><stop stop-color="#4AFEBF"/><stop offset="1" stop-color="#51EEDA"/></linearGradient><linearGradient id="t" x1="330.196" y1="123.464" x2="433.471" y2="508.891" gradientUnits="userSpaceOnUse"><stop stop-color="#4AFEBF"/><stop offset="1" stop-color="#51EEDA"/></linearGradient><linearGradient id="u" x1="329.807" y1="125.383" x2="432.123" y2="507.235" gradientUnits="userSpaceOnUse"><stop stop-color="#4AFEBF"/><stop offset="1" stop-color="#51EEDA"/></linearGradient><linearGradient id="v" x1="329.572" y1="127.55" x2="430.858" y2="505.557" gradientUnits="userSpaceOnUse"><stop stop-color="#4AFEBF"/><stop offset="1" stop-color="#51EEDA"/></linearGradient><linearGradient id="w" x1="329.446" y1="129.322" x2="429.794" y2="503.824" gradientUnits="userSpaceOnUse"><stop stop-color="#4AFEBF"/><stop offset="1" stop-color="#51EEDA"/></linearGradient><linearGradient id="x" x1="329.04" y1="131.074" x2="428.496" y2="502.25" gradientUnits="userSpaceOnUse"><stop stop-color="#4AFEBF"/><stop offset="1" stop-color="#51EEDA"/></linearGradient><linearGradient id="y" x1="327.572" y1="133.052" x2="426.152" y2="500.957" gradientUnits="userSpaceOnUse"><stop stop-color="#4AFEBF"/><stop offset="1" stop-color="#51EEDA"/></linearGradient><linearGradient id="z" x1="325.982" y1="134.872" x2="423.709" y2="499.595" gradientUnits="userSpaceOnUse"><stop stop-color="#4AFEBF"/><stop offset="1" stop-color="#51EEDA"/></linearGradient><linearGradient id="A" x1="324.447" y1="136.599" x2="421.365" y2="498.301" gradientUnits="userSpaceOnUse"><stop stop-color="#4AFEBF"/><stop offset="1" stop-color="#51EEDA"/></linearGradient><linearGradient id="B" x1="322.722" y1="138.421" x2="418.843" y2="497.151" gradientUnits="userSpaceOnUse"><stop stop-color="#4AFEBF"/><stop offset="1" stop-color="#51EEDA"/></linearGradient><linearGradient id="C" x1="321.167" y1="140.42" x2="416.412" y2="495.882" gradientUnits="userSpaceOnUse"><stop stop-color="#4AFEBF"/><stop offset="1" stop-color="#51EEDA"/></linearGradient><linearGradient id="D" x1="319.254" y1="142.197" x2="413.728" y2="494.776" gradientUnits="userSpaceOnUse"><stop stop-color="#4AFEBF"/><stop offset="1" stop-color="#51EEDA"/></linearGradient><linearGradient id="E" x1="317.447" y1="143.766" x2="411.217" y2="493.719" gradientUnits="userSpaceOnUse"><stop stop-color="#4AFEBF"/><stop offset="1" stop-color="#51EEDA"/></linearGradient><linearGradient id="F" x1="315.61" y1="145.536" x2="408.604" y2="492.594" gradientUnits="userSpaceOnUse"><stop stop-color="#4AFEBF"/><stop offset="1" stop-color="#51EEDA"/></linearGradient></defs></svg>