<svg width="1259" height="1470" fill="none" xmlns="http://www.w3.org/2000/svg"><g opacity=".2"><path d="M540.245 1028.07c3.819 3.8 7.92 7.6 12.02 11.11 60.369 51.87 148.303 76.3 241.501 66.87 76.701-7.55 155.74-36.41 241.764-87.85 23.09-13.88 46.46-29.181 69.27-43.913 80.1-52.27 163.01-106.522 257.77-113.561 25.8-1.906 52.32-.289 77.71 1.331 39.22 2.427 79.7 4.992 118.17-5.413 44.4-11.832 84.08-41.844 111.75-84.092 26.68-40.976 39.66-89.106 36.7-135.639-5.74-86.721-61.13-172.172-148.17-228.338-10.03-6.601-20.77-12.776-30.94-18.67-34.04-20.071-69.36-40.844-90.33-73.505-18.7-29.282-24.02-64.949-28.91-99.347-2.3-16.354-4.75-33.412-8.6-49.62-12.42-51.725-41.47-100.017-84.03-139.527-41.29-38.244-92.14-65.46-147.05-78.985-104.15-25.655-223.55-5.148-327.742 56.358-30.834 18.28-60.249 39.943-88.679 60.615-28.008 20.53-57.001 41.767-87.413 59.906-51.11 30.186-127.601 62.136-202.124 42.321-8.892-2.373-17.786-5.591-26.539-8.669-19.2-6.715-39.106-13.852-60.118-12.805-32.575 1.362-65.514 23.457-83.474 56.228-14.311 25.991-20.848 58.307-20.027 99.064 1.135 52.039 13.697 105.032 36.117 153.202 22.562 48.311 55.265 92.08 94.571 126.381 8.765 7.591 17.812 14.899 26.576 21.926 15.974 12.789 32.371 26 46.518 41.191 25.04 26.867 37.818 57.012 36.063 84.519-1.214 19.325-9.483 37.824-17.471 55.758-3.784 8.332-7.568 16.946-10.646 25.699-25.887 71.86-2.932 159.096 55.763 217.455ZM1616.14 459.748c51.2 50.91 82.4 113.723 86.67 177.317 6.49 97.296-57.42 192.112-145.35 215.492-37.91 10.121-78.26 7.697-116.91 5.268-25.67-1.619-52.19-3.237-78.28-1.329-95.74 7.183-179.08 61.577-259.6 114.271-22.52 14.731-45.89 30.033-68.98 43.913-85.464 51.16-163.94 79.73-240.077 87.28-92.07 9.15-179.016-14.86-238.396-66.03a219.94 219.94 0 0 1-11.878-10.97c-57.705-57.376-80.232-142.78-54.622-213.229 3.078-8.471 6.862-17.085 10.646-25.416 8.128-18.358 16.537-36.999 17.749-57.17 1.893-28.777-11.17-59.767-37.059-87.477-14.288-15.333-30.827-28.684-46.8-41.473-8.764-7.027-17.811-14.335-26.577-21.926-78.752-69.024-127.14-172.548-129.551-276.766-.819-39.91 5.578-71.802 19.469-97.087 17.54-31.501 48.93-52.886 80.236-54.103 20.166-.763 39.789 6.092 58.566 12.668 8.753 3.077 17.788 6.155 26.821 8.667 75.793 20.235 153.412-12 205.084-42.752 30.554-17.998 59.546-39.518 87.694-60.189 28.289-20.812 57.563-42.333 88.257-60.473 103.206-60.797 221.478-81.3 324.648-55.785 112.34 27.606 203.98 114.223 228.1 215.559 3.85 15.926 6.16 32.844 8.6 49.056 5.04 34.821 10.22 70.911 29.48 101.038 21.53 33.505 57.14 54.56 91.61 74.771 10.31 6.035 20.76 12.211 30.79 18.811 21.91 14.464 41.98 30.485 59.66 48.064Z" fill="url(#a)"/><path d="M565.173 1015.45c4.101 4.08 8.485 8.16 12.868 11.95 59.377 50.32 145.194 74.06 235.431 65.06 74.869-7.41 151.934-35.69 235.428-86.28 22.1-13.462 44.34-27.911 65.88-41.935 77.99-50.994 158.51-103.688 250.58-112.552 24.54-2.327 49.5-1.692 73.62-1.056 37.24 1.023 76.02 2.182 112.66-8.359 86.39-24.644 148.6-118.609 141.98-213.789-6.02-84.181-59.85-167.521-144.34-222.567-9.75-6.318-20.07-12.636-30.1-18.672-32.92-19.792-67.1-40.286-86.94-72.386-17.99-28.861-23.45-63.822-28.63-97.656-2.58-16.917-5.45-34.397-9.73-51.027-12.98-50.594-42.02-97.759-84.02-135.86-40.72-37.117-90.73-63.49-144.64-76.312-102.32-24.39-219.6-3.748-321.678 56.764-29.849 17.855-58.278 38.81-85.864 58.914-28.993 21.238-59.112 43.325-90.651 61.749-49.704 28.772-124.647 59.448-199.588 41.467-7.621-1.952-15.102-4.047-22.583-6.141-21.737-6.144-42.204-12.15-63.776-9.973-31.301 3.192-60.854 25.841-77.262 58.749-12.76 25.846-18.173 56.748-16.647 97.361 3.38 97.587 45.254 192.103 115.405 261.857 3.961 3.937 8.203 7.874 12.304 11.671 10.746 9.842 22.337 19.117 33.505 28.252 14.419 11.806 29.403 23.893 42.415 36.831 19.094 18.986 41.742 47.975 41.128 79.991-.23 18.335-7.656 35.704-14.801 52.507-3.222 7.484-6.585 15.392-9.242 23.438-12.728 37.129-12.188 78.168 1.043 118.608 11.659 33.251 31.069 64.365 56.245 89.396ZM1604.28 454.987c50.21 49.925 80.99 111.47 85.54 173.654 6.61 93.487-54.34 185.615-139.03 209.691-36.08 10.257-72.75 9.233-111.4 8.214-24.26-.777-49.36-1.27-74.18 1.057-92.92 8.867-174 61.845-252.27 113.122-21.54 14.023-43.64 28.613-65.89 41.935-82.924 50.3-159.426 78.3-233.871 85.85-89.25 8.85-173.938-14.6-232.608-64.22-64.75-54.817-92.927-143.589-68.31-215.587 2.658-7.764 5.879-15.53 9.102-23.014 7.285-17.227 14.85-35.019 15.219-54.06.61-33.427-22.745-63.401-42.263-82.809-13.295-13.219-28.279-25.306-42.698-37.111-11.168-9.136-22.759-18.411-33.365-28.113-76.922-70.017-122.897-168.611-126.431-270.851-1.525-40.05 3.748-70.528 16.229-95.527 15.847-31.778 44.274-53.578 74.165-56.766 20.725-2.174 40.91 3.551 62.224 9.837 7.481 2.094 15.103 4.329 22.724 6.282 76.212 18.4 152.141-12.702 202.408-41.757 31.822-18.425 61.94-40.512 90.933-62.032 27.444-20.246 55.733-41.058 85.441-58.772 101.374-60.087 217.391-80.585 318.861-56.474 111.35 26.621 199.87 108.734 225.69 209.501l1.83-.428-1.83.428c4.13 16.489 6.86 33.829 9.59 50.604 5.32 34.257 10.78 69.5 29.19 99.065 20.41 32.944 54.88 53.72 88.22 73.652 9.89 5.895 20.2 12.212 29.95 18.531 20.91 13.762 40 29.363 56.83 46.098Z" fill="url(#b)"/><path d="M589.251 1001.98c4.668 4.64 9.617 9.28 14.706 13.5 58.528 48.92 142.086 71.81 229.503 63.1 73.176-7.4 147.987-35.12 229.22-84.852 20.98-12.894 42.1-26.493 62.51-39.95 75.88-49.718 154.43-100.996 243.67-111.545 23.27-2.746 46.68-3.095 69.24-3.159 37.37-.529 72.63-.911 107.58-11.447 41.15-12.528 77.45-41.12 102.58-80.541 24.58-38.572 36.29-83.737 32.93-127.307-6.16-81.218-58.71-162.446-140.39-216.936-9.32-6.179-18.93-12.075-28.39-17.831-32.22-19.653-65.42-40.009-84.27-71.97-17-28.441-22.74-62.555-28.33-95.683-3.01-17.62-6.03-35.805-10.73-52.857-27.36-99.775-116.16-180.477-226.1-205.974-100.91-23.266-215.932-2.348-315.757 57.311-29.144 17.43-56.87 37.959-83.752 57.64-29.696 21.944-60.659 44.598-93.186 63.166-68.292 38.696-138.204 53.281-197.051 40.613-5.081-1.113-10.303-2.368-15.383-3.482-24.415-5.713-47.56-11.006-70.678-6.992-29.462 5.02-56.615 28.65-70.908 61.411-11.069 25.559-15.216 55.188-13.266 95.941 2.4 50.766 14.533 101.645 35.112 146.859 21.856 48.172 52.012 88.846 89.618 120.895 8.342 7.169 17.107 14.478 25.73 21.646 17.813 14.899 36.191 30.079 53.159 45.544 29.835 27.135 45.421 52.477 46.332 75.322.613 17.205-5.548 32.736-12.13 49.256-2.801 6.778-5.602 13.838-7.838 21.178-21.251 65.5 1.534 142.723 56.269 197.144ZM1592.28 450.085c49.5 49.221 80.13 109.497 84.68 169.988 6.88 89.538-51.54 179.12-132.7 203.891-34.24 10.393-69.36 10.916-106.31 11.303-22.71.205-46.12.554-69.66 3.3-90.09 10.552-169.07 62.254-245.23 112.256-20.41 13.456-41.52 27.056-62.5 39.949-80.533 49.308-154.922 76.878-227.534 83.998-86.289 8.71-168.859-14.05-226.68-62.26-64.182-53.69-92.343-136.821-70.259-207.119 2.236-7.058 5.037-14.118 7.698-20.754 6.442-16.096 13.164-32.758 12.408-50.667-.915-23.973-16.926-50.301-47.61-77.998-16.968-15.466-35.487-30.786-53.158-45.544-8.482-7.028-17.247-14.337-25.589-21.506-73.374-62.27-118.356-158.751-123.312-264.937-1.948-40.189 2.06-69.113 12.99-94.248 13.731-31.631 39.899-54.271 68.093-59.146 22.131-3.871 44.994 1.423 68.986 6.997 5.08 1.114 10.302 2.368 15.382 3.482 59.553 12.806 130.594-1.781 199.59-40.903 32.808-18.569 63.63-41.363 93.608-63.309 26.882-19.68 54.467-40.068 83.471-57.356 98.979-59.375 213.016-80.15 312.936-57.021 108.67 24.795 196.34 104.654 223.41 203.02 4.56 16.911 7.72 34.954 10.59 52.435 5.59 33.409 11.47 67.946 28.76 96.95 19.56 32.665 53.18 53.442 85.54 73.236 9.46 5.756 19.07 11.652 28.11 17.832 20.07 13.2 38.16 28.098 54.29 44.131Z" fill="url(#c)"/><path d="M613.896 989.08c5.092 5.063 10.464 9.843 15.978 14.48 57.536 47.37 138.977 69.84 223.433 61.28 70.779-7.25 143.617-34.4 222.743-83.42 19.14-11.901 38.57-24.649 57.43-36.832 74.33-48.727 151.33-99.296 238.32-111.531 21.71-3.164 43.28-4.213 64.15-5.4 35.96-1.936 69.66-3.865 102.92-14.678 39.31-12.946 74.07-40.829 97.93-78.694 23.59-37.3 34.47-81.052 30.96-123.071-6.42-78.397-57.56-157.372-136.69-211.305-8.77-5.898-18.09-11.795-26.99-17.27-31.08-19.375-63.3-39.593-81.44-71.133-15.87-27.88-22.03-61.287-27.77-93.427-3.29-18.184-6.73-37.073-12-54.688l-1.69.569 1.69-.569c-28.62-97.656-116.43-176.245-223.69-200.198-99.21-22.143-212.115-1.09-309.685 58-28.299 17.145-55.321 36.966-81.499 56.222-30.541 22.51-62.207 45.872-96.003 64.584-66.181 36.858-135.389 51.017-194.515 39.761l-1.693-.277c-31.186-5.976-57.997-10.977-83.788-4.558-27.906 6.849-52.095 30.894-64.553 64.073-11.898 31.766-11.516 67.024-9.887 94.239 6.059 97.438 43.401 185.197 103.369 244.825 5.94 5.907 12.021 11.39 18.241 16.732 12.865 10.823 26.296 22.208 39.161 33.032a4461.323 4461.323 0 0 0 42.553 35.843c32.516 27.268 49.505 50.35 51.538 70.935 1.739 16.073-3.72 30.615-9.319 45.863-2.239 6.212-4.76 12.424-6.434 18.917-18.015 62.53 4.899 135.662 57.23 187.696Zm966.514-544.039c48.66 48.378 79.01 107.527 83.83 166.324 7.16 86.999-47.18 172.197-126.37 198.091-32.69 10.811-66.39 12.458-101.93 14.534-20.87 1.187-42.44 2.236-64.43 5.401-87.83 12.52-165.12 63.089-239.73 112.099-18.72 12.323-38.15 25.072-57.29 36.973-78.704 48.597-150.978 75.737-221.334 82.857-83.469 8.41-163.922-13.64-220.751-60.3-62.483-51.446-91.34-131.331-71.928-198.66 1.816-6.351 4.055-12.563 6.435-18.635 5.599-14.965 11.478-30.496 9.596-47.556-2.317-21.431-19.591-45.357-52.814-73.329-13.854-11.525-28.417-24.036-42.554-35.843-13.006-10.964-26.295-22.209-39.16-33.032-69.979-58.613-113.827-153.123-120.475-259.021-1.768-26.792-2.008-61.627 9.75-92.688 12.039-31.908 35.244-54.963 62.021-61.808 25.087-6.277 51.615-1.275 82.237 4.702l1.693.277c59.831 11.395 129.886-2.766 196.912-40.19 33.795-18.712 65.602-42.215 96.284-64.867 26.177-19.256 53.2-39.077 81.077-56.08 96.866-58.382 208.651-79.432 307.011-57.57 105.98 23.817 192.8 101.14 221 197.245 5.12 17.474 8.42 36.222 11.86 54.265 5.87 32.562 12.03 66.252 28.33 94.554 18.57 32.526 51.21 52.884 82.57 72.539 8.9 5.476 18.23 11.373 26.99 17.271 18.65 12.922 35.76 27.118 51.17 42.447Z" fill="url(#d)"/><path d="M638.116 976.036a232.329 232.329 0 0 0 17.533 15.746c56.685 45.958 135.868 67.598 217.504 59.318 68.805-6.96 139.667-33.82 216.397-81.847 17.74-11.051 35.62-22.808 52.93-34.281 72.78-47.735 147.81-97.17 232.39-111.231 19.88-3.301 39.06-5.33 57.81-7.216 34.68-3.484 67.53-6.821 99.52-18.054 77.35-27.157 130-111.505 122.56-195.964-6.7-75.575-56.42-152.58-132.87-205.533-8.34-5.759-17.1-11.375-25.72-16.851-30.09-19.237-61.32-39.316-78.47-70.436-15.03-27.318-21.33-59.738-27.34-91.031-3.58-19.029-7.44-38.622-13.14-56.941-29.74-95.114-116.55-171.026-221.27-193.576-97.51-21.02-208.163.309-303.76 58.546-27.596 16.72-53.914 36.117-79.388 54.947-31.526 23.219-64.037 47.147-98.537 66.002-64.354 35.019-132.434 48.893-191.979 38.908-33.301-5.547-60.526-7.586-85.184.524-26.067 8.677-47.716 33.56-58.2 66.451-9.644 30.632-8.703 63.914-6.507 92.538 7.327 96.729 43.817 182.516 100.674 239.332 5.799 5.766 11.738 11.109 17.817 16.31 10.461 8.714 21.065 17.851 31.386 26.707 17.39 15.042 35.486 30.504 53.154 44.134 24.17 18.689 52.447 43.149 56.744 66.267 2.863 14.941-1.753 28.353-6.508 42.47-1.818 5.505-3.777 11.152-5.171 16.798-8.369 32.744-5.587 68.7 8.192 103.496 10.796 27.33 27.652 52.81 49.433 74.467Zm930.154-536.037c47.81 47.534 77.87 105.555 82.97 162.66 7.29 82.907-44.24 165.559-120.32 192.29-31.56 11.091-64.13 14.427-98.68 18.051-18.75 1.887-38.21 3.916-58.08 7.217-85.29 14.204-160.74 63.781-233.8 111.8-17.18 11.331-35.05 23.088-52.79 34.139-76.45 47.744-146.751 74.324-214.992 81.284-80.649 8.13-158.984-13.23-214.822-58.625-61.492-49.893-90.475-124.559-73.737-190.047 1.394-5.646 3.353-11.01 5.171-16.516 4.756-13.835 9.651-28.375 6.786-44.163-4.582-24.245-31.871-48.285-58.161-68.519-17.668-13.63-35.623-29.234-53.154-44.134-10.321-8.856-21.066-18.134-31.386-26.708-66.584-55.237-109.298-147.494-117.355-253.106-2.196-28.342-3.136-61.342 6.369-91.268 10.064-31.902 31.01-56.079 55.95-64.189 23.953-7.966 50.615-5.926 83.491-.519 60.251 10.124 129.036-3.893 194.094-39.336 34.782-18.857 67.434-42.925 98.959-66.145 25.334-18.689 51.652-38.085 78.965-54.805 94.753-57.67 204.422-78.855 301.232-57.975 103.72 22.412 189.4 97.481 218.86 191.186 5.69 18.036 9.42 37.489 13 56.518 6.15 31.716 12.45 64.418 27.76 92.017 17.58 32.106 49.23 52.325 79.75 71.702 8.47 5.335 17.23 10.951 25.57 16.71 17.67 12.502 33.78 25.996 48.35 40.481Z" fill="url(#e)"/><path d="M662.478 962.851c5.94 5.906 12.303 11.671 19.088 17.011C737.26 1024.27 814.325 1045.21 893 1037.37c66.972-6.82 135.58-33.11 210.2-80.425 16.04-10.201 32.23-20.824 47.86-31.164 71.09-46.885 144.85-95.328 227.17-111.358 17.06-3.292 33.27-5.736 49.06-8.32 34.54-5.316 67.1-10.345 98.52-22.422 35.92-13.782 67.44-40.387 88.64-75.282 21.48-34.897 31.09-75.684 27.45-114.74-7.26-73.882-54.15-146.664-129.05-199.762-7.91-5.619-16.25-11.096-24.3-16.291-29.11-19.098-59.34-38.757-75.65-69.88-14.04-26.615-20.48-58.048-26.63-88.353-4.14-19.874-8.43-40.453-14.69-59.334-31.01-92.713-116.83-166.23-218.86-187.237-95.82-19.895-204.352 1.568-297.695 58.953-26.75 16.436-52.364 35.407-77.276 53.671-32.088 23.785-65.584 48.421-101.071 67.42-62.243 33.179-129.62 46.628-189.302 38.194-35.978-5.116-62.911-3.206-84.885 6.165-24.37 10.365-43.338 35.664-51.846 69.113-7.251 29.074-5.892 60.803-3.267 90.977 5.241 57.81 24.856 160.851 97.412 232.996a251.311 251.311 0 0 0 18.099 16.308c10.32 8.574 20.923 17.711 30.962 26.568 18.38 16.026 37.326 32.614 56.404 46.24 28.265 20.229 56.392 41.727 61.949 61.88 3.847 13.669.074 25.95-3.838 38.936-1.397 4.799-2.934 9.74-3.907 14.679-12.109 56.871 10.356 120.556 58.019 167.949Zm895.062-527.053c46.82 46.55 75.6 102.177 80.98 158.435 7.56 78.676-41.43 158.782-113.99 186.49-31.13 11.794-63.56 16.964-97.81 22.279-15.93 2.443-32.15 4.887-49.2 8.179-82.89 16.031-156.93 64.758-228.3 111.925-15.63 10.34-31.82 20.964-47.87 31.164-74.19 46.89-142.374 73.04-208.782 79.86-77.829 7.83-153.906-12.68-208.893-56.672-59.511-47.641-89.19-118.78-75.546-181.438 1.114-4.798 2.511-9.598 3.908-14.397 3.912-12.986 7.965-26.114 3.692-40.769-5.984-21.139-34.535-43.059-63.224-63.71-19.078-13.626-37.883-30.074-56.263-46.099-10.18-8.998-20.783-18.135-31.103-26.709-86.375-71.259-108.701-185.434-114.376-247.05-2.765-29.751-4.123-61.198 2.988-89.848 8.228-32.603 26.353-56.771 49.878-66.851 21.411-9.087 47.779-10.996 83.052-6.019 60.529 8.714 128.469-5.019 191.417-38.341 35.769-19 69.265-43.636 101.494-67.562 24.77-18.405 50.385-37.094 76.853-53.53 92.639-56.959 200.325-78.138 295.305-58.522 101.18 20.445 185.86 93.12 216.59 184.705l1.69-.569-1.69.569c6.26 18.599 10.55 39.177 14.55 58.911 6.29 30.728 12.87 62.301 27.05 89.339 16.73 31.827 47.25 51.767 76.79 71.005 8.05 5.195 16.39 10.672 24.16 16.15 16.96 12.081 32.65 25.153 46.65 39.075Z" fill="url(#f)"/><path d="M686.275 949.384c6.506 6.469 13.575 12.655 20.925 18.558 54.844 42.998 129.509 63.238 205.364 55.408 64.857-6.67 131.636-32.531 203.856-78.855 14.08-9.066 28.43-18.415 42.09-27.621 69.96-46.317 142.32-93.911 222.52-112.05a3918.8 3918.8 0 0 1 33.4-7.288c38.34-8.007 71.46-15.011 104.43-28.645 71.42-29.679 117.46-107.097 109.62-184.08-7.25-71.061-53.01-141.871-125.23-194.272-7.49-5.479-15.26-10.676-22.89-15.731-28.12-18.96-57.37-38.481-72.83-69.041-12.9-25.773-19.62-56.077-25.91-85.394-4.57-20.86-9.29-42.425-16.11-62.151l-1.55.428 1.55-.428c-31.99-90.312-116.95-161.294-216.3-181.038-94.12-18.773-200.543 3.108-291.773 59.5-26.046 16.01-50.957 34.557-75.164 52.396-32.933 24.351-66.992 49.552-103.607 68.555-60.133 31.34-126.523 44.645-186.625 37.2-34.142-4.135-61.774-.389-84.447 11.663-30.84 16.307-41.74 51.879-45.491 71.775-5.419 28.646-2.933 59.808.254 89.416 11.163 106.732 51.18 193.214 112.533 243.53 10.319 8.574 20.923 17.711 31.103 26.708 18.947 16.87 38.741 34.303 59.23 47.925l3.674 2.528c29.108 19.38 56.662 37.777 63.622 54.823 5.112 12.396 2.182 23.547-.887 35.402-.976 4.093-2.092 8.327-2.926 12.561-9.294 54.889 12.451 113.356 57.569 158.218Zm858.985-518.77c46.1 45.847 74.61 100.346 80.26 154.911 7.83 75.572-37.51 151.437-107.52 180.548-32.68 13.632-65.66 20.496-103.86 28.643-10.71 2.287-21.99 4.576-33.55 7.147-80.76 18.141-153.4 66.018-223.64 112.336-13.8 9.065-28.01 18.555-41.95 27.48-71.8 46.181-138.011 71.751-202.446 78.281-74.867 7.69-148.968-12.27-202.964-54.705-58.236-45.812-87.76-112.014-77.355-173.112.693-4.092 1.809-8.326 2.785-12.419 3.069-11.856 6.137-23.994.599-37.376-7.244-17.891-35.222-36.71-64.895-56.371l-3.674-2.528c-20.207-13.623-39.86-30.915-58.947-47.643-10.18-8.998-20.785-18.417-31.245-26.849-60.787-49.754-100.238-135.391-111.257-241.136-3.045-29.186-5.672-60.206-.251-88.288 3.612-19.191 14.233-53.633 43.665-69.372 22.109-11.769 49.036-15.371 82.473-11.376 60.807 7.302 127.761-6.004 188.739-37.628 36.756-19.145 70.955-44.487 104.029-68.98 24.207-17.84 49.118-36.386 74.882-52.396 90.667-56.107 196.102-77.562 289.382-59.07 98.21 19.466 182.19 89.745 213.89 178.93 6.82 19.444 11.54 41.009 15.97 61.728 6.43 29.458 13.01 59.903 26.34 86.098 15.88 31.265 45.27 51.208 73.96 70.448 7.63 5.056 15.4 10.252 22.75 15.591 16.11 11.519 30.67 24.029 43.83 37.108Z" fill="url(#g)"/><path d="M711.061 936.621a243.515 243.515 0 0 0 22.057 19.4c53.852 41.452 126.399 60.989 199.434 53.449 63.024-6.52 127.548-31.812 197.648-77.425 11.83-7.649 23.65-15.581 35.2-23.23 69.12-45.75 140.49-93.2 218.98-113.309 48.63-12.408 88.93-23.241 128.23-41.264 32.4-14.76 60.53-40.226 79.34-71.872 19.51-32.916 27.73-69.75 23.81-106.267-7.52-68.239-51.72-136.939-121.4-188.501-6.92-5.198-14.27-10.255-21.34-15.03-28.54-19.664-55.39-38.204-70-68.485-12.06-24.929-18.63-53.963-25.06-82.011-5-21.846-10.14-44.679-17.81-65.249C1327.18 68.915 1243.21.329 1146.26-17.872c-92.42-17.366-196.587 4.508-285.845 60.047-25.201 15.727-49.69 33.849-73.193 51.263-33.636 25.059-68.54 50.826-106.001 69.831-58.023 29.501-123.426 42.38-184.088 36.346-33.012-3.291-61.343 2.572-84.149 17.305-26.748 17.282-36.105 49.888-39.138 74.154-3.311 26.242-.552 54.018 3.634 87.714 8.376 69.083 31.344 161.114 93.151 222.57 5.233 5.204 10.606 9.984 16.261 14.763 10.602 8.573 21.066 18.134 31.246 27.131 19.795 17.714 40.156 35.991 61.914 49.468 5.792 3.51 11.302 7.02 16.812 10.248 25.995 15.722 48.458 29.339 55.688 42.435 6.096 11.124 4.15 21.002 2.065 31.868-.554 3.386-1.249 6.914-1.803 10.582-6.057 52.201 15.958 106.719 58.247 148.768ZM1533.11 425.29c45.4 45.143 73.9 98.514 79.69 151.527 7.97 72.328-33.72 144.234-101.33 174.889-39.15 17.882-77.63 28.287-127.66 40.981-78.92 20.251-150.57 67.702-219.97 113.735-11.54 7.649-23.37 15.58-35.19 23.23-69.55 45.329-133.787 70.333-196.247 76.858-72.048 7.4-144.031-11.861-197.177-52.893-55.69-42.998-86.05-106.096-79.165-164.504.413-3.527 1.109-7.054 1.805-10.3 2.084-10.866 4.31-21.873-2.495-33.983-7.655-13.799-30.401-27.697-56.961-43.7-5.509-3.228-11.02-6.738-16.812-10.248-21.334-13.337-41.836-31.472-61.491-49.328-10.321-9.138-20.785-18.699-31.387-27.272-73.368-60.013-99.464-161.061-108.278-235.362-4.188-34.541-6.802-61.048-3.491-87.008 3.035-23.703 11.972-55.32 37.734-71.894 22.102-14.308 49.728-20.028 82.176-16.735 61.226 6.032 127.335-6.99 185.921-36.774 37.884-19.148 72.646-45.056 106.564-70.115 23.503-17.414 47.851-35.395 73.052-51.122 88.554-55.114 191.872-76.986 283.452-59.617 95.81 18.204 178.94 85.947 211.48 172.873 7.67 20.287 12.81 42.838 17.81 64.684 6.43 28.33 13 57.365 25.2 82.716 15.04 30.985 43.44 50.79 71 69.752 7.06 4.775 14.27 9.973 21.34 15.03 14.55 10.818 28.13 22.345 40.43 34.58Z" fill="url(#h)"/><path d="M730.757 919.641a266.65 266.65 0 0 0 28.277 24.46c52.861 40.186 123.432 58.879 193.364 51.633 61.052-6.238 123.742-31.097 191.312-75.856 8.87-5.808 17.88-11.757 26.6-17.705 68.98-45.891 140.07-93.34 217.15-115.701 43.26-12.675 77.64-26.03 118.48-46.456 65.07-32.622 104.78-103.394 96.68-172.196-7.8-65.418-50.58-132.147-117.57-182.729-6.65-4.918-13.29-9.835-19.93-14.47-27.56-19.526-53.56-38.069-67.19-67.929-10.92-23.804-17.49-51.429-23.77-78.207-5.57-23.255-11.28-47.215-19.8-68.628-16.76-42.263-45.5-80.402-82.96-110.336-37.32-29.793-81.94-49.976-128.51-58.305-90.73-16.244-192.776 5.766-279.921 60.594-24.638 15.442-48.422 33.14-71.362 50.27-34.34 25.484-69.947 51.959-108.395 71.108-55.913 27.66-120.329 40.395-181.553 35.492-32.445-2.446-61.334 5.393-83.71 22.803-24.486 18.969-31.302 52.131-32.783 76.817-1.623 24.544 1.974 49.779 5.866 79.245l1.007 6.908c14.551 107.85 50.313 185.6 106.433 231.277 10.602 8.573 21.207 18.274 31.388 27.553 20.362 18.559 41.713 37.82 64.598 51.013 33.481 19.508 63.433 38.04 78.131 48.717 7.914 5.619 6.667 13.379 5 22.41-.692 4.656-1.525 9.454-1.088 14.107-9.332 41.35 11.402 91.499 54.256 134.111Zm789.933-499.675c44.83 44.581 73.04 96.825 79.11 148.426 7.95 67.533-31.06 137.033-95 169.089-40.7 20.284-74.93 33.779-118.05 46.313-77.51 22.504-149.02 70.095-218.13 116.127-8.87 5.808-17.74 11.898-26.61 17.705-67.29 44.476-129.42 69.052-189.902 75.288-69.228 7.106-139.093-11.451-191.247-50.934-60.634-45.946-92.4-107.065-80.973-155.614l-.001-.282-.001-.282c-.576-4.229.257-9.027.95-13.401 1.525-9.171 3.049-18.625-6.278-25.368-14.98-10.676-44.227-29.069-78.413-48.717-22.603-13.193-43.813-32.313-64.033-50.731-10.181-9.28-20.927-18.84-31.529-27.695-55.415-45.256-90.751-122.301-105.3-229.306l-1.007-6.907c-3.891-29.184-7.488-54.419-5.865-78.681 1.484-23.84 8.161-56.297 31.662-74.557 21.812-17.127 50.139-24.682 81.738-22.233 61.787 4.901 126.908-7.977 183.243-35.78 38.731-19.15 74.337-45.624 108.818-71.25 22.94-17.13 46.584-34.686 71.081-49.987 86.439-54.967 187.637-76.974 277.667-60.87 93.27 16.8 175.4 82.148 209.2 166.673 8.39 21.273 14.24 45.091 19.66 68.205 6.14 26.921 12.85 54.685 23.92 78.912 14.05 30.565 41.61 50.09 68.17 69.196 6.65 4.635 13.29 9.552 19.93 14.47 13.43 9.975 25.73 20.8 37.19 32.191Z" fill="url(#i)"/><path d="M753.565 905.473c9.335 9.282 19.938 18.419 31.386 26.989 51.87 38.637 120.182 56.778 187.436 49.676 59.073-6.232 119.793-30.522 184.963-74.287 4.93-3.258 10-6.657 14.93-9.915 69.68-46.88 141.61-95.177 218.54-120.5 40.44-13.231 68.32-29.107 95.5-44.275 4.5-2.551 8.87-4.961 13.37-7.512 51.68-28.777 99.74-91.251 90.22-166.255-7.94-62.456-49.44-127.073-113.76-176.958-6.07-4.637-12.43-9.273-18.37-13.769-26.57-19.387-51.59-37.792-64.36-67.373-9.94-22.819-16.36-48.893-22.5-74.121-5.99-24.523-12.41-50.032-21.78-72.571l-1.41.568 1.41-.568C1313.64 70.364 1233.5 8.113 1140.09-7.699c-89.04-15.12-188.829 7.165-274.002 61.141-23.792 15.159-47.155 32.431-69.391 49.137-35.043 26.191-71.213 53.231-110.648 72.242-53.661 25.962-117.092 38.271-179.017 34.639-41.189-2.422-68.079 14.156-83.411 28.444-17.724 16.41-26.674 43.233-26.431 79.196.058 20.591 3.362 41.596 7.239 65.984 1.005 6.061 1.869 12.264 2.874 18.608 14.949 98.964 43.208 167.004 88.184 211.725 4.809 4.782 9.899 9.28 15.13 13.638 10.743 8.713 21.348 18.415 31.53 27.976 21.21 19.403 43.128 39.508 67.423 52.697 15.397 8.277 29.944 15.71 42.938 22.161 17.654 8.835 31.778 15.847 40.115 21.606 5.523 7.741 5.963 13.804 6.545 20.29.292 3.384.585 7.05 1.724 10.996-7.793 36.973 12.505 82.752 52.673 122.692ZM1508.26 414.36c44.27 44.018 72.34 95.275 78.83 145.324 9.37 73.453-37.84 135.078-88.67 163.289-4.51 2.551-8.87 4.961-13.38 7.512-27.04 15.309-54.92 30.902-94.93 43.991-77.22 25.324-149.43 73.904-219.25 120.644-4.93 3.258-10 6.657-14.92 9.915-64.9 43.482-125.05 67.77-183.703 73.86-66.549 6.959-134.015-10.902-185.319-49.259-59.785-44.538-92.245-102.129-82.924-147.146l.14-.424-.142-.422c-.998-3.805-1.431-7.33-1.723-10.714-.724-6.627-1.167-13.536-7.396-21.98l-.142-.141-.141-.141c-8.479-5.899-22.744-13.051-40.822-22.026-12.994-6.451-27.682-13.743-42.938-22.162-23.872-13.048-45.648-33.013-66.717-52.275-10.322-9.42-20.927-19.122-31.53-27.977-53.294-43.71-85.793-114.559-102.18-223.391-1.005-6.344-1.869-12.547-2.873-18.608-3.877-24.106-7.18-45.111-7.238-65.42-.1-35.259 8.429-61.092 25.449-77.078 14.911-13.863 41.097-30.016 81.158-27.591 62.347 3.49 126.483-8.962 180.426-34.925 39.576-19.152 76.027-46.194 111.211-72.526 22.236-16.705 45.459-33.837 69.25-48.995C952.255 2.143 1051.34-20 1139.67-5.018c92.42 15.674 171.58 77.222 206.79 160.615 9.37 22.257 15.65 47.626 21.64 72.149 6.28 25.368 12.7 51.441 22.64 74.543 13.2 30.285 39.77 49.672 65.49 68.498 6.08 4.355 12.3 9.132 18.38 13.769 11.73 9.416 23.18 19.397 33.65 29.804Z" fill="url(#j)"/><path d="M774.817 890.04c10.466 10.407 22.483 20.668 35.909 30.361 50.878 37.089 117.073 54.53 181.366 47.86 57.248-6.086 115.708-29.805 178.768-72.859 16.75-11.471 33.64-23.93 49.96-35.824 54.19-40.067 110.2-81.408 172.79-91.458l.29-.001.14-.141c16.19-9.778 31.4-17.155 44.92-23.681 20.85-9.932 38.87-18.727 54.2-33.297 56.36-20.469 93.11-90.809 83.75-160.313-8.21-59.634-48.16-122.141-109.93-171.468-5.52-4.357-11.31-8.712-16.82-13.069-25.59-19.249-49.76-37.656-61.83-66.816-8.8-21.412-15.08-45.934-21.07-69.329-6.7-26.073-13.55-53.132-24.19-76.937l-1.41.569 1.41-.569c-36.48-81.837-115.63-141.693-206.5-156.103-87.2-13.856-184.869 8.564-267.93 61.548-23.228 14.874-45.887 31.722-67.842 48.144-35.606 26.757-72.479 54.223-112.901 73.377-51.269 24.122-113.854 36.147-176.339 33.926-41.751-1.573-68.21 17.683-82.973 33.944-16.168 17.957-22.721 44.631-20.218 81.716 1.176 16.921 4.612 34.682 8.191 53.429 1.86 9.444 3.721 19.17 5.302 29.462 13.628 80.774 48.256 156.552 100.052 219.025 28.587 34.331 64.775 63.846 102.062 82.638 25.282 12.763 49.568 22.848 67.36 30.414 8.331 3.502 15.814 6.442 21.181 8.966 6.225 6.752 7.649 11.543 9.074 16.898.854 2.818 1.709 5.637 2.987 8.877-5.546 33.582 13.185 73.865 50.241 110.711Zm618.223-124.739c-63.29 10.193-119.45 51.676-173.77 91.884-16.19 12.034-32.94 24.352-49.83 35.682-62.64 42.63-120.82 66.348-177.356 72.291-63.729 6.669-129.077-10.493-179.39-47.301-59.782-43.41-92.089-96.629-84.592-138.679l.139-.424-.142-.422c-1.56-3.24-2.415-6.058-3.127-8.736-1.709-5.636-3.134-10.991-9.925-18.306l-.141-.141-.142-.14c-5.366-2.524-12.991-5.605-21.463-9.248-17.791-7.283-42.078-17.368-67.219-30.272-36.298-18.373-73.193-48.308-101.073-81.936-51.654-62.05-85.998-137.265-99.484-217.617-1.722-10.432-3.583-20.158-5.302-29.461-3.579-18.748-7.014-36.508-8.19-53.147-2.5-36.239 3.772-62.348 19.519-79.599 14.341-15.837 39.956-34.527 80.719-33.091 63.049 2.218 126.199-9.808 177.748-34.212 40.564-19.014 77.577-46.903 113.324-73.519 21.815-16.281 44.332-33.27 67.56-48.144C953.4 8.063 1050.37-14.214 1136.86-.497c89.32 14.555 167.62 73.85 203.67 154.701 10.51 23.382 17.35 50.441 23.91 76.373 6 23.677 12.27 48.199 21.22 69.752 12.21 29.865 37.93 49.255 62.67 67.942 5.65 4.215 11.16 8.571 16.82 13.068 61.21 48.766 100.87 110.708 108.94 169.638 9.22 68.235-26.83 137.303-82.2 157.347l-.28.001-.29.282c-14.9 14.428-32.79 23.082-53.64 33.014-13.24 6.525-28.59 13.762-44.64 23.68Z" fill="url(#k)"/><path d="M557.4 662.603c24.751 24.611 53.158 45.263 81.403 58.722 41.379 19.768 80.619 30.94 93.887 34.851 7.209 5.762 9.476 9.422 11.886 13.787 1.276 2.112 2.41 4.084 4.391 6.617-5.248 39.222 28.321 89.758 87.676 132.182 50.028 35.681 113.964 52.283 175.437 45.903 55.41-5.94 111.76-29.23 172.42-71.29 16.19-11.188 32.52-23.363 48.14-35.113 51.51-38.79 104.85-78.855 164.33-89.178l.29-.001.28-.283c14.07-9.913 27.03-17.565 38.57-24.368 19.99-11.903 37.17-22.107 50.81-37.8 52.97-20.178 87.05-87.831 77.27-154.371-11.36-77.678-71.47-137.165-106.11-165.697-5.09-4.217-10.32-8.292-15.26-12.086-24.6-19.393-47.92-37.52-59.14-66.4-7.68-20.005-13.66-42.554-19.23-64.117-7.27-28.045-14.83-56.936-26.6-81.865l-1.13.567 1.13-.567c-37.32-79.297-115.62-136.617-204.08-149.764-85.51-12.732-180.922 9.964-261.869 62.235-22.665 14.592-44.76 31.155-66.011 47.153-36.31 27.182-73.745 55.495-115.014 74.37-62.398 28.525-128.952 33.792-173.803 33.073-45.133-.718-71.012 24.46-82.675 39.583-14.753 19.364-19.05 46.032-13.864 84.379 1.873 13.675 5.156 27.628 8.725 42.709 2.855 12.121 5.712 24.806 8.29 38.62 14.609 78.938 48.244 152.604 97.073 212.969 6.652 8.302 14.575 17.024 22.778 25.18Zm182.066 95.81c-1.414-1.406-3.252-2.952-5.373-4.78l-.141-.14h-.282c-12.986-3.63-52.225-14.801-93.746-34.71-37.283-17.664-75.168-48.302-103.899-83.903-48.546-60.084-81.897-133.186-96.364-211.702-2.578-13.814-5.435-26.499-8.29-38.62-3.427-14.94-6.712-29.175-8.583-42.568-5.184-37.5-.886-63.604 13.446-82.262 11.241-14.699 36.417-39.17 80.422-38.449 45.133.718 112.111-4.408 175.071-33.217 41.411-19.016 79.128-47.331 115.578-74.654 21.251-15.997 43.346-32.561 65.871-47.01C953.701 14.55 1048.41-8.003 1133.21 4.59c87.62 13.15 165.07 69.908 202.1 148.359 11.64 24.789 19.19 53.68 26.47 81.443 5.7 21.703 11.55 44.393 19.36 64.539 11.37 29.585 34.97 47.994 59.85 67.668 5.09 3.934 10.32 8.01 15.27 12.086 34.49 28.391 93.89 87.175 105.25 164.006 9.64 65.272-23.74 131.936-75.73 151.405l-.42.142-.28.283c-13.36 15.693-29.69 25.33-50.24 37.517-11.55 6.803-24.5 14.456-38.58 24.368-59.91 10.466-113.39 50.672-165.18 89.462-15.62 11.751-31.81 23.785-48.13 35.114-60.39 41.777-116.31 64.924-171.16 70.863-60.767 6.519-124.139-10.084-173.461-45.344-58.93-42.002-92.074-91.834-86.4-130.071l-.002-.564-.424-.422c-1.982-2.533-3.257-4.645-4.533-6.757-1.843-3.52-3.685-6.477-7.504-10.274Z" fill="url(#l)"/><path d="M571.243 670.18c25.034 24.892 53.722 45.261 82.388 58.014 38.975 17.377 76.8 26.86 99.233 30.04 8.759 5.053 11.728 7.724 15.545 10.957 1.273 1.266 2.828 2.53 4.525 3.936-3.283 35.832 30.132 81.997 89.484 123.292 49.036 34.133 110.714 50.176 169.512 43.945 53.43-5.652 107.81-28.655 166.22-69.862 15.76-11.045 31.24-22.936 46.44-34.544 51.23-39.071 99.5-76.019 155.74-86.756l.28-.001.28-.283c11.26-9.058 21.68-16.703 30.96-23.5 20.41-14.866 36.6-26.618 48.68-44.141 49.73-19.745 80.71-84.85 70.8-148.429-11.49-73.587-69.06-131.953-102.28-159.925-4.53-3.936-9.05-7.59-13.57-11.244-23.61-19.255-45.95-37.526-56.61-66.126-6.68-18.174-11.95-38.609-17.23-58.198-7.98-29.877-16.11-61.023-29.44-87.5l-1.13.568 1.13-.568C1294.04 73.1 1216.74 18.175 1130.53 6.15c-83.52-11.61-176.962 11.362-255.936 62.782-22.102 14.308-43.634 30.588-64.322 46.301-36.872 27.748-75.011 56.487-117.127 75.364-47.328 21.008-104.98 32.031-171.266 32.219-33.848.097-63.701 16.541-82.236 45.083-17.271 26.987-12.516 62.373-7.511 86.758 2.147 10.854 5.422 21.986 8.7 33.965 3.99 14.374 8.122 29.171 11.554 45.803 15.592 77.102 48.092 148.797 93.953 207.055 7.363 10.134 15.852 19.7 24.904 28.7Zm204.509 102.093-.566-.563c-1.979-1.687-3.534-2.951-4.949-4.358-3.959-3.655-7.069-6.185-16.251-11.377l-.423-.14c-22.293-3.04-59.835-12.523-98.81-29.901-38.41-17.097-77.284-48.438-106.584-85.729-45.578-57.977-77.936-128.966-93.386-205.928-3.292-16.773-7.565-31.711-11.554-45.803-3.418-11.837-6.412-22.971-8.558-33.824-4.863-23.962-9.617-58.784 7.234-84.783 8.566-13.14 33.159-43.815 79.983-43.948 66.708-.33 124.643-11.073 172.393-32.505 42.398-18.878 80.678-47.758 117.691-75.647 20.687-15.713 42.361-31.853 64.181-46.16C954.705 20.613 1047.44-2.216 1130.26 9.254c85.36 11.746 161.96 66.25 199.69 142.301 13.19 26.336 21.32 57.2 29.3 87.077 5.13 19.73 10.55 40.024 17.37 58.339 10.66 29.164 33.28 47.716 57.31 67.393 4.53 3.654 9.19 7.449 13.57 11.244 32.94 27.972 89.95 85.776 101.43 158.517 9.91 62.451-20.79 126.427-69.39 145.605l-.43.142-.28.283c-11.8 17.24-27.98 28.991-48.25 43.717-9.15 6.654-19.56 14.3-30.82 23.358-56.66 10.88-107.33 49.667-156.44 87.181-15.06 11.467-30.68 23.499-46.3 34.403-57.99 41.065-111.95 63.643-164.96 69.435-57.947 6.229-119.06-9.816-167.672-43.527-58.929-41.155-92.06-86.475-88.21-121.462l-.426-.986Z" fill="url(#m)"/><path d="M584.945 677.616c25.317 25.173 54.427 45.399 83.374 57.587 33.324 14.009 65.354 19.136 88.635 22.878 6.067.97 11.429 1.801 15.945 2.634 10.301 2.087 13.974 4.051 18.777 6.858 1.554.983 3.249 1.824 5.509 2.946-1.177 32.582 31.943 74.234 91.292 114.402 48.186 32.724 107.605 47.928 163.293 41.988 51.61-5.506 103.87-27.797 159.88-68.293 15.06-10.902 30.12-22.651 44.62-33.834 48.41-37.653 94.14-73.464 146.86-84.333l.28-.001.28-.282c7.74-7.215 15.19-13.583 21.52-19.383 21.95-19.244 37.85-33.251 48.37-53.449 46.34-19.454 74.51-82.012 64.19-142.346-11.77-69.638-66.79-126.601-98.46-154.436l-11.88-10.12c-22.76-19.257-44.25-37.531-53.92-65.993-5.54-16.203-10.11-33.396-14.95-51.435-8.7-32.272-17.54-65.813-32.43-94.119-38.85-74.074-115.3-126.745-199.25-137.366-81.69-10.346-172.87 12.62-250.013 63.33-21.538 14.023-42.507 30.02-62.773 45.309-37.435 28.314-76.136 57.618-119.239 76.357-44.935 19.449-100.192 29.761-168.73 31.366-49.641 1.269-73.66 35.891-81.656 50.722-15.293 28.11-8.708 62.504-1.298 89.279 2.423 8.879 5.41 17.755 8.68 27.195 5.12 14.936 10.669 31.985 14.953 50.872 16.717 75.688 48.083 145.129 90.834 200.857 8.351 10.836 17.548 21.106 27.307 30.81Zm214.773 91.203-.706-.421c-2.401-1.262-4.237-2.244-6.074-3.226-4.944-2.666-8.758-5.053-19.482-6.997-4.516-.833-9.878-1.664-16.086-2.775-23.14-3.601-54.888-8.729-88.07-22.597-39.679-16.671-79.541-48.431-109.551-87.554-42.468-55.447-73.834-124.606-90.408-199.872-4.144-19.028-9.974-36.076-14.954-51.153a591.806 591.806 0 0 1-8.68-27.195c-7.268-26.353-13.71-60.042 1.162-87.445 7.857-14.408 31.314-48.182 79.544-49.447 68.821-1.606 124.359-11.919 169.575-31.651 43.386-18.74 82.228-48.185 119.804-76.64 20.265-15.29 41.234-31.286 62.772-45.31 76.581-50.144 167.206-73.108 248.326-62.76 83.24 10.481 158.7 62.732 197.27 135.961l1.13-.568-1.13.568c14.75 28.165 23.59 61.424 32.28 93.696 4.85 18.039 9.41 35.232 15.1 51.576 9.95 29.025 31.58 47.439 54.77 67.118l11.88 10.121c31.38 27.554 85.98 84.095 97.74 152.886 10.05 59.489-17.71 120.777-63.21 139.664l-.42.142-.14.423c-10.24 19.915-26.13 33.923-48.08 53.166-6.47 5.66-13.65 12.027-21.38 19.242-53.28 11.152-99.16 46.823-147.57 84.758-14.49 11.183-29.41 23.072-44.61 33.834-55.59 40.071-107.57 62.361-158.61 67.865-55.13 5.94-113.985-9.266-161.747-41.568-59.067-40.169-91.903-81.258-90.16-112.995l-.285-.846Z" fill="url(#n)"/><path d="M598.364 685.053c25.6 25.454 55.133 45.538 84.643 57.16 40.805 16.103 80.866 18.81 104.847 20.435l5.078.267c14.671 1.087 18.622 1.922 28.219 4.433.788 28.91 33.756 66.473 92.961 105.653 47.194 31.176 104.498 45.963 157.368 40.03 49.63-5.5 99.92-27.221 153.54-66.722 14.49-10.619 28.85-22.225 42.92-33.266 45.59-36.516 88.65-70.769 138.26-81.911l.43-.142.28-.283c3.23-3.535 6.32-6.646 9.28-9.899 25.31-26.586 42.18-44.122 51-68.264 42.96-19.162 68.32-78.892 57.72-136.404-11.32-62.165-57.73-115.062-94.64-148.664-3.39-3.094-6.64-6.046-10.18-8.998-21.77-19.401-42.56-37.817-51.52-65.858-4.41-13.95-8.26-28.183-12.25-43.404-9.41-35.232-19.25-71.45-35.83-101.725l-1.13.567 1.13-.567c-39.7-71.533-115.01-121.95-196.7-131.168-79.85-9.082-168.774 14.16-243.946 63.736-21.116 13.881-41.381 29.452-61.224 44.6-37.997 28.879-77.261 58.749-121.212 77.208-54.796 23.145-117.542 28.541-166.052 30.653-52.882 2.266-75.471 43.654-81.217 56.222-13.596 29.797-4.47 64.748 4.915 91.8 2.418 7.186 5.541 14.511 8.525 22.259 6.25 15.778 13.494 33.669 18.348 54.247 17.699 74.416 48.214 141.885 87.854 194.802 8.636 11.681 18.259 22.936 28.583 33.203Zm225.18 80.455-1.835-.418c-9.879-2.511-13.972-3.486-28.784-4.431l-5.078-.268c-25.25-1.762-63.478-4.333-104.141-20.295-40.947-16.244-81.798-48.707-112.377-89.52-39.499-52.776-69.589-119.823-87.288-193.957-4.995-20.718-12.098-38.751-18.49-54.67-2.984-7.748-6.107-15.073-8.525-22.259-9.243-26.629-18.226-60.875-5.051-89.966 5.465-12.285 27.776-52.544 79.247-54.806 48.792-2.113 111.819-7.51 166.898-30.655 44.091-18.601 83.496-48.613 121.634-77.633 19.702-15.006 40.249-30.578 61.083-44.459C955.586 32.738 1043.81 9.64 1123.24 18.863c80.98 9.36 155.59 59.075 194.85 129.904 16.59 29.993 26.42 66.211 35.69 101.303 3.99 15.22 7.98 29.594 12.4 43.544 9.1 28.746 30.03 47.303 52.09 66.985 3.25 2.952 6.78 5.904 10.18 8.997 36.62 33.322 82.75 85.938 93.92 147.397 10.32 56.667-14.62 115.408-56.88 133.863l-.42.142v.282c-8.68 24.001-25.41 41.396-50.72 67.982-2.95 2.97-5.91 6.223-9.14 9.476-50.04 11.284-93.1 45.818-138.83 82.194-13.93 11.182-28.42 22.647-42.92 33.266-53.34 39.218-103.06 60.937-152.55 66.296-52.31 5.649-109.047-8.857-155.677-39.752-59.205-39.181-91.748-76.322-91.828-104.528l.139-.706Z" fill="url(#o)"/><path d="M611.641 692.066c25.883 25.736 55.839 45.678 85.912 57.016 44.614 16.516 87.067 17.1 115.271 16.174 5.359-.297 9.448-.45 13.256-.602 6.909-.443 11.845-.598 19.18-.337 3.475 31.865 53.228 70.085 94.627 96.623 46.202 29.627 101.383 43.715 151.293 38.214 47.1-5.212 96.82-27.213 147.34-65.295 13.93-10.617 27.87-21.799 41.37-32.838 42.92-34.958 83.16-68.074 129.53-79.348l.42-.142.28-.283c27.41-33.221 44.41-55.13 50.68-83.495 40.14-19.154 62.27-75.067 51.39-130.322-11.73-58.073-56.02-109.707-91.09-142.892-2.69-2.672-5.38-5.062-8.2-7.592-21.07-19.544-41.01-37.963-49.13-66.006-3.13-10.992-6.13-22.125-9.41-34.104-10.12-38.474-20.67-78.215-39.66-110.882l-.98.708.98-.708c-40.25-68.993-114.71-116.874-194.42-124.969-78.15-7.958-164.824 15.56-238.024 64.284-20.411 13.738-40.536 28.886-59.815 43.749-38.56 29.445-78.387 59.881-123.043 78.201-51.982 21.162-111.624 26.55-163.375 29.659-43.432 2.662-70.281 33.625-80.779 61.721-11.899 31.484-.233 66.992 11.128 94.32 2.414 6.058 5.393 12.114 8.374 18.734 7.521 16.198 16.035 34.508 21.738 56.211 19.252 74.553 47.78 138.079 84.735 188.888 9.344 12.666 19.673 24.625 30.422 35.313Zm235.728 70.13-.987-.138c-7.9-.542-13.258-.245-20.45.199-3.666.292-7.756.445-13.114.742-27.922.926-70.094.341-114.284-16.035-42.355-15.676-84.337-48.982-115.204-91.486-36.813-50.668-65.199-113.772-84.45-188.042-5.704-21.986-14.359-40.437-21.88-56.634-3.121-6.479-5.818-12.536-8.515-18.593-11.218-26.906-22.741-61.708-11.123-92.628 10.359-27.39 36.506-57.646 78.808-60.305 52.174-3.251 111.958-8.498 164.221-29.943 45.079-18.463 85.046-49.04 123.606-78.485 19.28-14.863 39.263-30.152 59.675-43.608 72.777-48.582 159.028-71.956 236.618-63.997 78.86 8.097 152.61 55.557 192.44 123.846 18.99 32.384 29.4 71.986 39.38 110.319 3.28 11.978 6.27 23.112 9.41 34.104 8.4 28.606 28.48 47.447 49.83 66.991 2.83 2.53 5.37 5.062 8.2 7.592 34.79 32.904 78.8 84.256 90.24 141.766 10.74 54.55-11.11 109.616-50.55 128.063l-.56.283v.564c-5.98 28.083-22.99 49.71-50.11 82.648-46.65 11.557-87.18 44.674-129.95 79.772-13.37 10.898-27.16 22.22-41.23 32.697-50.24 37.799-99.54 59.658-146.21 64.727-49.49 5.359-104.11-8.449-149.889-37.936-59.344-38.193-91.876-71.385-93.638-95.92l-.284-.563Z" fill="url(#p)"/><path d="M624.919 699.363c26.166 26.017 56.686 45.957 87.321 56.73 46.73 16.368 91.293 15.113 120.477 11.504 8.036-1.01 13.815-2.295 19.171-3.439 5.779-1.286 10.853-2.428 17.48-2.87 4.433 21.566 36.107 50.247 96.295 87.873 45.917 28.782 97.577 41.61 145.367 36.256 45.26-5.065 92.73-26.496 141-63.725 13.51-10.475 26.87-21.655 39.82-32.41 39.96-33.398 77.66-65.097 120.65-76.643l.42-.142.28-.283c24.72-34.765 38.76-59.345 41.07-88.828 36.62-18.721 55.93-72.087 44.92-124.379-9.01-42.708-37.62-88.04-84.72-134.871a480.49 480.49 0 0 1-2.26-2.25c-1.98-1.969-4.11-4.079-6.09-6.048-20.36-19.687-39.6-38.531-47.01-66.435-1.99-7.328-3.85-15.079-5.99-22.83-10.69-42.421-21.96-86.251-43.78-121.73-41.37-67.297-113.15-111.66-191.86-118.77-76.18-6.836-160.737 16.816-232.105 64.83-19.848 13.454-39.55 28.46-58.408 42.899-39.122 30.011-79.511 61.012-125.014 79.053-50.012 19.746-107.399 24.563-158.16 28.656l-2.679.149c-45.121 3.795-71.537 38.565-80.34 67.22-10.342 33.596 3.864 69.378 17.48 96.7a935.589 935.589 0 0 0 8.508 16.054c8.791 16.335 18.715 34.642 24.985 57.189 20.945 74.83 47.629 134.553 81.756 182.832 9.347 13.794 19.96 26.316 31.416 37.708Zm246.276 59.522-.987.144c-7.192.443-12.548 1.587-18.749 3.015-5.216 1.002-11.135 2.429-19.03 3.298-29.043 3.749-73.184 4.862-119.489-11.367-43.906-15.248-86.877-49.256-117.889-93.312-33.984-47.855-60.527-107.438-81.33-182.127-6.411-22.689-16.337-41.277-25.269-57.753a935.589 935.589 0 0 1-8.508-16.054c-13.334-27.041-27.537-62.259-17.335-95.149 8.665-27.95 34.518-62.154 78.37-65.804l2.679-.149c50.901-4.234 108.43-8.911 158.864-28.799 45.926-18.183 86.456-49.326 125.578-79.337 18.858-14.439 38.278-29.444 58.267-42.758 70.805-47.73 154.933-71.24 230.693-64.544 78.01 6.971 149.08 50.913 190.17 117.647 21.67 35.338 32.8 79.028 43.5 121.167a527.102 527.102 0 0 0 5.99 22.83c7.55 28.609 27.07 47.452 47.57 67.562 1.98 1.969 3.97 3.938 6.09 6.047 48.22 47.392 77.27 93.146 86.42 136.277 10.86 51.588-8.17 104.107-44.22 122.262l-.57.283v.564c-2.17 29.06-15.92 53.357-40.51 87.98-43.26 11.829-80.97 43.528-121.07 77.067-12.94 10.756-26.17 22.076-39.68 32.269-47.84 37.087-94.89 58.376-140.01 63.3-47.37 5.211-98.46-7.619-143.954-35.978-60.611-37.767-91.862-66.59-95.588-87.453l-.003-1.128Z" fill="url(#q)"/><path d="M638.197 706.377c26.589 26.439 57.391 46.096 88.871 56.584 53.644 17.618 101.861 11.84 125.823 6.695 9.162-1.86 15.784-4.276 22.406-6.411 5.918-1.991 11.554-3.982 18.461-5.27 7.537 22.121 51.482 51.19 98.103 79.265 44.929 27.233 94.469 39.362 139.299 34.439 43.71-4.919 88.92-25.78 134.79-62.297 13.09-10.333 25.75-21.369 38.13-32.123 37.15-31.98 72.04-62.26 111.63-74.079l.43-.142.28-.283c24.42-39.841 32.96-65.393 31.32-94.018 33.23-18.429 49.73-69.249 38.45-118.438-9.42-40.591-36.76-83.529-83.44-131.63l-3.82-3.798c-19.66-20.112-38.19-39.099-45.04-67.286l-2.14-8.879c-10.71-45.242-23.12-96.403-48.34-135.539C1261.48 78.41 1190.7 36.442 1114.1 30.595c-75.33-5.71-155.649 17.648-226.172 65.378-19.425 13.312-38.423 27.893-56.858 42.19-39.545 30.434-80.355 62.142-126.987 79.904-44.237 17.05-93.021 21.702-140.255 26.208-6.204.582-12.126 1.163-18.048 1.744-46.81 4.646-72.372 42.234-79.901 72.719-8.925 35.848 8.102 71.905 23.835 99.362 2.693 4.646 5.527 9.433 8.643 14.22 10.06 16.19 21.254 34.634 28.23 57.603 14.239 47.629 38.132 117.797 78.635 176.634a267.623 267.623 0 0 0 32.975 39.82Zm256.823 49.196-.987.144c-7.471 1.291-13.389 3.282-19.588 5.556-6.34 2.134-13.103 4.41-22.124 6.41-23.821 5.004-71.474 10.78-124.694-6.698-45.315-14.962-89.416-49.531-120.715-95.279-40.361-58.696-64.113-128.723-78.351-176.071-6.977-23.251-18.453-41.694-28.372-58.026-2.976-4.927-5.951-9.573-8.644-14.22-15.59-27.034-32.193-62.669-23.548-97.67 7.531-29.921 32.39-66.519 78.072-71.162 5.922-.581 11.985-1.304 18.048-1.744 47.234-4.506 96.159-9.3 140.678-26.35 46.773-17.904 87.865-49.612 127.408-80.329 18.435-14.297 37.434-28.878 56.718-42.049 70.1-47.587 149.859-70.661 224.769-65.091 75.89 5.708 146.1 47.395 187.75 111.589l.84-.566-.84.566c25.07 38.714 37.35 89.733 48.05 134.693l2.14 8.879c6.85 28.752 25.67 48.02 45.47 68.273l3.82 3.797c46.53 47.679 73.45 90.477 82.73 130.646 11.14 48.484-5.22 98.598-37.89 116.461l-.56.284v.564c1.63 28.343-6.62 53.612-30.76 93.171-39.74 11.959-74.91 42.241-112.19 74.362-12.38 10.753-25.19 21.65-38.13 32.123-45.46 36.093-90.39 56.953-133.67 61.73-44.55 4.922-93.53-7.209-138.029-34.02-46.763-28.216-90.849-57.426-97.257-78.986l-.144-.987Z" fill="url(#r)"/><path d="M651.191 713.392c26.873 26.72 58.239 46.376 90.423 56.439 59.71 18.306 111.44 7.582 131.028 2.026 10.005-2.709 17.612-6.115 24.795-9.379 6.62-2.981 12.677-5.678 20.146-7.814 9.5 17.884 51.316 42.305 99.627 70.657 43.94 25.685 91.36 37.115 133.37 32.482 41.88-4.773 84.98-25.204 128.46-60.728 12.52-10.331 24.76-21.225 36.71-31.837 34.19-30.419 66.55-59.283 102.62-71.232l.42-.142.14-.424c21.04-40.113 27.45-68.903 21.72-99.35 29.56-18.137 43.39-66.269 31.98-112.496-12.13-48.623-48.78-92.944-79.34-125.86l-1.27-1.266c-19.1-20.677-37.21-40.089-43.36-68.701-10.86-51.024-23.84-104.158-51.32-144.133l-.84.566.84-.566C1255 79.557 1185.07 39.844 1110.45 35.401c-73.49-4.445-151.559 18.906-220.251 65.925-18.861 13.029-37.578 27.326-55.591 41.481-39.965 31.141-81.479 63.274-128.817 80.897-40.012 14.782-83.72 19.419-125.876 23.911-10.293 1.016-20.021 2.031-29.749 3.328-45.398 5.488-72.651 43.363-79.321 78.359-7.506 38.665 13.475 76.685 30.048 101.883 2.832 4.223 5.806 8.586 8.922 13.091 11.187 15.905 23.649 33.922 31.19 57.171 18.782 58.053 40.815 118.777 75.516 170.72 10.619 14.779 22.224 28.849 34.67 41.225Zm267.514 39.012-.846.284c-7.891 2.279-14.371 5.118-21.273 8.1-7.183 3.264-14.649 6.529-24.513 9.378-19.306 5.555-70.754 16.279-129.899-2.029-46.865-14.534-91.956-49.806-123.682-97.104-34.7-51.661-56.733-112.384-75.373-170.297-7.542-23.531-20.287-41.83-31.474-57.735-3.116-4.504-6.09-8.868-8.781-12.95-16.29-24.917-37.129-62.514-29.621-100.333 6.672-34.431 33.223-71.317 77.775-76.803 9.727-1.297 19.456-2.312 29.749-3.328 42.438-4.493 86.146-9.13 126.299-24.053 47.619-17.624 89.133-50.039 129.239-81.039 18.014-13.873 36.589-28.311 55.451-41.34 68.269-46.877 146.054-70.227 218.984-65.78 74.05 4.443 143.41 43.877 185.48 105.39 27.19 39.695 40.03 92.687 50.89 143.429 6.29 29.035 24.4 48.729 43.92 69.547l1.28 1.265c30.41 32.775 66.92 76.674 78.91 125.156 11.41 45.663-2.28 93.09-31.56 110.661l-.57.284.15.705c5.72 30.165-.4 58.672-21.3 98.362-36.49 12.091-68.85 40.955-103.18 71.516-11.95 10.611-24.19 21.506-36.72 31.837-43.19 35.24-86.01 55.671-127.46 60.302-41.59 4.772-88.59-6.8-132.24-32.203-48.741-28.492-90.98-53.053-99.21-70.518l-.425-.704Z" fill="url(#s)"/><path d="M664.187 720.407c27.155 27.001 59.085 46.656 92.256 56.293 63.236 18.437 116.366 4.323 136.232-2.644 10.708-3.697 19.017-8.093 27.185-12.347 7.182-3.829 14.082-7.374 22.113-10.359 8.775 10.976 34.343 25.148 69.937 44.51 10.03 5.472 20.34 11.225 31.36 17.399 30.37 16.979 77.25 36.309 127.44 30.525 40.04-4.627 81.17-24.489 122.11-59.159 12.1-10.189 23.92-21.223 35.45-31.693 31.23-28.86 60.91-56.164 93.74-68.245l.42-.142.14-.424c18.22-41.234 21.8-72.554 12.11-104.682 26.19-17.845 37.2-63.43 25.51-106.554-11.69-43.406-43.11-83.37-75.65-120.229-17.12-19.555-34.81-39.673-40.39-68.851-8.59-45.107-22.01-102.329-51.89-143.85C1249.5 80.56 1180.57 43.24 1107.78 39.78c-71.51-3.322-147.603 20.306-214.182 66.331-18.58 12.746-36.593 26.901-54.183 40.631-40.528 31.707-82.323 64.405-130.649 81.608-36.209 12.937-75.827 17.421-114.176 21.762-13.535 1.448-26.225 2.895-38.771 4.764-46.805 6.62-73.625 48.02-78.883 83.858-4.564 31.464 6.953 64.574 36.261 104.404 2.832 3.941 5.946 7.881 9.343 12.102 12.173 15.479 26.044 33.21 34.15 56.74 18.486 53.259 39.39 113.704 72.537 164.664 10.059 16.191 21.948 30.824 34.96 43.763Zm278.485 28.826-.563.283c-8.595 2.987-15.636 6.674-23.099 10.785-8.028 4.113-16.336 8.508-26.903 12.346-19.726 6.826-72.433 20.797-135.104 2.641-48.697-14.107-94.636-50.222-126.508-99.071-33.006-50.82-54.05-111.123-72.394-164.241-8.248-23.67-22.12-41.401-34.293-57.163-3.256-4.08-6.37-8.02-9.343-12.102-28.883-39.408-40.4-72.236-35.975-102.994 5.119-35.133 31.518-75.826 77.336-82.303 12.688-1.728 25.377-3.174 38.771-4.764 38.349-4.34 78.109-8.684 114.741-21.763 48.466-17.344 90.402-50.183 131.212-81.891 17.59-13.731 35.602-27.885 54.183-40.631 66.438-45.884 142.107-69.37 213.057-66.046 72.22 3.18 140.73 40.36 183.06 99.333l.85-.567-.85.567c29.6 41.239 43.16 98.038 51.61 143.004 5.58 29.46 23.41 50.001 40.81 69.555 32.26 36.578 63.54 76.402 75.23 119.525 11.55 42.701.53 87.722-25.23 104.861l-.56.283-.28.565c9.82 31.705 6.38 62.884-11.7 103.694-32.96 12.223-62.64 39.527-94.01 68.528-11.4 10.61-23.35 21.504-35.45 31.693-40.66 34.387-81.51 54.248-121.13 58.733-49.77 5.641-96.08-13.408-126.17-30.387-11.02-6.175-21.33-11.928-31.36-17.4-34.605-18.941-61.726-33.814-69.796-44.651l-.142-.422Z" fill="url(#t)"/><path d="M677.183 727.421c27.438 27.283 59.932 46.935 93.948 56.288 66.338 18.146 121.011 1.066 141.437-7.313 11.27-4.545 20.422-10.071 29.292-15.315 8.026-4.677 15.487-9.352 24.362-12.903 7.21 5.762 22.745 13.334 43.928 23.71 16.53 7.992 37 17.947 59.04 29.732 29.66 15.993 74.84 33.918 121.37 28.708 38.21-4.481 77.22-23.913 115.91-57.731 11.67-10.328 23.21-21.362 34.32-31.971 28.27-27.3 54.99-53.044 84.44-65.116l.42-.142.14-.424c15.67-42.637 16.42-76.487 2.51-110.014 22.94-17.695 31-59.746 19.17-100.472-12.67-43.261-46.78-84.488-71.69-114.599-17.12-20.683-31.7-39.963-36.01-67.594-10.19-63.296-27.39-110.212-52.73-143.565-43.04-56.574-110.98-91.78-182.06-93.835-69.4-2.06-143.374 21.703-208.121 67.019-18.017 12.462-35.748 26.616-52.916 39.922-40.95 32.131-83.307 65.395-132.339 82.458-33.252 11.378-69.344 15.711-104.31 19.477-15.932 1.879-31.159 3.615-46.102 5.914-48.494 7.754-74.601 51.831-78.444 89.357-4.253 41.617 12.367 83.458 42.615 107.065 19.648 15.317 36.358 39.246 46.591 67.142 2.275 6.199 4.55 12.68 6.965 19.02 17.342 47.62 35.393 96.79 62.453 139.729 10.061 16.755 22.233 31.952 35.811 45.453Zm746.767-53.459c-29.58 12.213-56.44 38.099-84.71 65.399-11.12 10.609-22.37 21.642-34.19 31.83-38.26 33.675-76.99 52.825-114.92 57.305-46.1 5.349-90.86-12.435-120.24-28.43-21.89-11.926-42.51-21.739-59.04-29.732-21.606-10.516-37.282-17.946-44.068-23.85l-.425-.422-.422.142c-9.157 3.834-16.9 8.51-25.067 13.329-8.87 5.243-17.881 10.628-29.151 15.173-20.285 8.238-74.394 25.316-140.309 7.31-50.247-13.679-97.458-50.496-129.334-101.037-27.059-42.657-44.969-91.686-62.31-139.307-2.416-6.339-4.691-12.821-6.965-19.02-10.517-28.177-27.228-52.387-47.158-67.986-29.683-23.045-46.16-64.463-41.905-105.516 3.844-36.962 29.531-80.051 77.038-87.66 14.802-2.44 30.029-4.176 46.102-5.914 34.965-4.048 71.341-8.101 104.733-19.619 49.314-17.065 91.812-50.47 132.902-82.742 17.027-13.447 34.899-27.46 52.916-39.923 64.466-45.032 138.023-68.653 207.133-66.593 70.52 2.057 138.04 36.842 180.79 93.134l.7-.425-.7.425c25.06 33.072 42.25 79.706 52.45 142.72 4.59 27.912 19.17 47.474 36.44 68.298 24.76 29.97 58.73 71.056 71.4 113.754 11.68 39.738 3.48 82.213-19.04 98.919l-.42.424.28.564c13.64 33.527 13.03 67.237-2.51 109.45Z" fill="url(#u)"/><path d="M689.47 733.733c28.004 27.845 61.628 48.059 96.206 56.846 48.834 12.554 102.415 8.171 146.643-11.982 11.972-5.534 21.967-11.909 31.399-18.282 8.728-5.667 16.892-11.049 26.47-15.589 4.801 2.242 12.142 5.042 21.462 8.683 19.91 7.7 49.98 19.039 83.17 36.291 42.23 21.741 81.04 30.798 115.45 26.751 36.65-4.335 73.41-23.197 109.56-56.161 11.54-10.469 22.51-21.501 33.19-32.25 25.32-25.458 49.23-49.502 75.14-61.705l.42-.142.14-.424c13.28-44.181 11.06-80.985-7.23-115.205 19.27-17.402 24.8-56.907 12.7-94.529-11.67-36.636-38.84-71.536-62.77-102.355l-5.09-6.473c-17.13-22.094-28.47-40.96-31.92-66.337-5.62-41.871-19.47-100.643-53.44-143.139-43.17-53.894-110.39-86.705-179.5-87.637-67.42-.937-139.141 23.102-202.198 67.566-17.594 12.32-34.903 26.05-51.648 39.213-41.371 32.838-84.291 66.667-134.171 83.169-30.575 10.101-63.708 14.002-95.853 17.761-18.047 2.026-35.247 4.049-52.022 7.058-47.927 8.599-75.441 54.09-78.005 94.857-2.558 42.74 16.462 85.561 48.686 109.445 21.765 16.017 39.461 39.237 49.972 65.722 4.546 11.27 8.951 22.963 13.215 34.516 15.205 40.152 30.837 81.854 53.224 118.177 10.483 16.612 22.939 32.373 36.8 46.155Zm737.7-68.947c-26.06 12.345-49.96 36.388-75.28 61.847-10.69 10.749-21.66 21.781-33.19 32.25-35.87 32.681-72.35 51.542-108.58 55.735-33.98 3.905-72.51-4.871-114.46-26.612-33.33-17.112-63.4-28.732-83.45-36.291-9.6-3.64-17.085-6.58-21.745-8.683l-.423-.139-.423.142c-9.718 4.682-18.165 10.065-27.034 15.872-9.572 6.233-19.286 12.607-31.117 18-43.946 20.152-97.104 24.393-145.514 11.979-51.374-13.112-100.846-51.615-132.161-103.004-22.246-36.464-37.878-77.884-53.082-118.036-4.405-11.411-8.67-23.246-13.215-34.516-10.512-26.485-28.349-50.128-50.538-66.284-31.799-23.463-50.677-65.861-48.117-108.037 2.566-39.921 29.658-84.706 76.74-93.301 16.774-3.01 33.693-5.032 51.739-7.058 32.146-3.758 65.419-7.52 96.136-17.762 50.161-16.784 93.08-50.614 134.733-83.452 16.746-13.164 34.054-26.894 51.507-39.354C962.472 73.901 1033.77 50.004 1101.04 50.8c68.83.933 135.49 33.464 178.38 87.076l.56-.566-.56.566c33.83 42.356 47.53 100.705 53.15 142.295 3.46 25.658 14.8 44.807 32.21 67.182l5.09 6.473c23.78 30.678 50.82 65.437 62.49 101.791 11.95 37.199 6.56 76.563-12.71 93.119l-.42.424.28.564c18.29 34.783 20.65 71.164 7.66 115.062Z" fill="url(#v)"/><path d="M702.324 740.607c28.287 28.126 62.475 48.338 98.181 56.84 50.807 12.267 106.217 6.327 151.847-16.65 12.534-6.383 23.232-13.747 33.507-20.969 9.43-6.655 18.441-12.886 28.721-18.416 16.23 3.48 58.14 12.528 106.44 36.367 41.81 20.472 77.65 28.55 109.23 24.794 34.97-4.331 69.75-22.623 103.23-54.592 11.25-10.751 21.94-22.064 32.34-33.094 22.08-23.616 43.17-45.959 65.56-58.011l.28-.283v-.282c10.87-46.008 5.4-85.482-16.99-120.678 15.75-16.969 18.33-54.068 6.38-88.447-10.8-30.715-33.17-61.115-53-87.855-3.82-5.208-7.64-10.415-11.18-15.341-12.6-17.594-24.65-37.445-27.55-65.08-3.48-33.557-15.22-96.707-54.28-142.855-43.44-51.355-109.53-81.63-177.23-81.438-65.3.326-135.182 24.5-196.267 68.113-17.172 12.178-33.917 25.624-50.24 38.646-41.792 33.262-85.133 67.797-135.86 84.019-28.322 8.966-58.917 12.579-88.525 15.766-18.893 2.028-38.49 4.481-56.673 8.059-49.475 9.872-76.418 57.9-77.426 100.214-1.144 43.865 20.418 87.806 55.04 111.825 16.957 11.799 40.005 32.466 53.211 64.161 6.247 14.65 11.931 29.583 17.899 45.362 13.073 34.376 26.713 69.878 45.419 101.134 10.77 18.022 23.509 34.346 37.936 48.691Zm727.926-84.856c-22.53 12.193-43.63 34.537-65.7 58.152-10.41 11.03-21.09 22.343-32.2 32.953-33.34 31.827-67.84 50.119-102.38 54.307-31.58 3.757-66.87-4.323-108.53-24.655-48.58-23.838-91.06-32.884-107.01-36.365l-.28.001-.14.141c-10.56 5.531-19.57 11.762-29.141 18.559-10.275 7.222-20.691 14.585-33.225 20.967-45.349 22.695-100.335 28.774-150.861 16.507-53.207-12.965-103.808-52.029-134.986-104.688-18.564-31.398-32.063-66.759-45.277-100.993-5.825-15.074-11.793-30.853-18.04-45.503-13.49-31.977-36.82-52.925-53.778-64.724-34.198-23.878-55.476-67.257-54.33-110.558 1.009-41.749 27.672-88.93 76.301-98.8 18.184-3.578 36.794-5.887 56.533-7.917 29.749-3.329 60.343-6.942 88.666-15.907 51.008-16.223 94.349-50.759 136.282-84.162 16.324-13.022 33.21-26.327 50.24-38.646 60.945-43.47 130.406-67.503 195.426-67.829 67.13-.19 132.8 29.946 175.96 81.019l.56-.566-.56.566c38.77 45.867 50.37 108.594 53.85 142.151 3.18 27.352 15.23 47.485 27.97 65.22 3.54 4.926 7.37 10.133 11.19 15.341 19.68 26.599 41.91 56.859 52.57 87.433 12.09 34.237 9.37 70.914-6.38 87.319l-.42.424.28.564c22.67 34.912 28.28 73.963 17.41 119.689Z" fill="url(#w)"/><path d="M715.037 747.623c28.57 28.408 63.462 48.477 100.015 56.976 52.781 11.979 110.019 4.201 157.052-21.319 13.237-7.09 24.496-15.584 35.476-23.795 10.13-7.645 19.84-14.865 30.82-21.102 22.85.217 64.76 7.573 108.26 27.759 28.24 13.177 65.52 27.456 103.3 22.836 32.71-4.042 66.22-22.472 97.02-53.164 11.11-11.173 21.37-22.909 31.5-34.22 19.12-21.492 36.97-41.992 55.98-53.752l.28-.283v-.282c8.75-47.836-.26-90.262-26.59-126.01 12.22-16.818 12.26-50.808-.1-82.505-9.8-25.5-27.36-50.272-44.21-74.059-5.67-8.164-11.05-15.765-16.15-23.366-14.59-22.101-21.69-41.262-23.31-63.964-4.25-56.261-24.28-108.246-54.84-142.571-43.3-48.676-108.68-76.838-174.68-75.24-63.32 1.45-130.803 25.758-190.339 68.661-16.749 12.035-33.213 25.198-49.113 38.078-42.356 33.827-85.977 68.928-137.692 84.73-26.21 7.972-54.69 11.156-81.901 14.195-20.162 2.173-41.169 4.63-60.479 8.775-23.397 5.144-43.243 19.163-57.427 40.499-12.64 18.935-19.765 42.79-19.701 65.355.269 44.99 24.232 89.912 61.253 114.347 27.271 18.116 45.804 38.513 56.732 62.599 7.664 16.903 14.769 35.499 21.589 53.25 11.367 29.585 23.16 60.156 38.751 87.473 10.489 18.305 23.653 35.332 38.504 50.099Zm718.423-101.048c-19 12.042-37 32.402-56.12 53.894-10.12 11.311-20.52 23.188-31.49 34.22-21.24 21.356-55.01 47.685-96.04 52.738-37.5 4.619-74.63-9.802-102.59-22.697-43.78-20.185-86.11-27.681-108.96-27.898l-.28.001-.14.141c-11.13 6.379-21.4 13.883-31.25 21.244-10.84 8.07-22.099 16.564-35.336 23.654-46.611 25.377-103.567 33.155-156.066 21.175-55.321-12.536-106.771-52.444-137.812-106.654-15.45-27.176-27.243-57.747-38.61-87.332-6.82-17.751-13.924-36.347-21.588-53.25-11.07-24.226-29.746-45.047-57.158-63.303-36.456-24.155-60.276-68.654-60.685-113.22-.262-42.451 26.249-93.44 75.863-104.299 19.31-4.145 40.176-6.461 60.337-8.916 27.494-3.04 55.974-6.224 82.324-14.337 51.856-15.944 95.618-50.904 138.114-84.873 15.901-12.879 32.364-26.042 48.973-37.936 59.255-42.62 126.464-66.928 189.494-68.377 65.58-1.455 130.4 26.427 173.55 74.679l.56-.566-.56.566c30.42 34.185 50.45 85.888 54.56 141.726 1.76 22.843 8.86 42.286 23.59 64.527 4.96 7.461 10.48 15.202 16.15 23.366 16.85 23.787 34.13 48.56 44.07 73.918 12.36 31.698 12.17 65.265-.19 81.66l-.42.425.42.421c26.76 35.606 35.76 77.75 27.29 125.303Z" fill="url(#x)"/><path d="M727.608 754.498c28.853 28.689 64.451 48.897 102.13 56.829 54.755 11.691 113.681 2.216 162.258-25.988 13.794-7.938 25.764-17.421 37.294-26.48 10.42-8.21 21.25-16.844 33.08-23.929 22.41-3.589 64.45-.606 110.06 19.15 30.64 13.311 63.82 25.205 97.38 20.879 39.47-4.908 71.13-30.807 90.68-51.595 11.1-11.737 21.22-24.177 31.06-36.052 15.74-19.225 30.64-37.32 46.12-48.929l.14-.141v-.282c6.49-49.804-6.05-95.182-36.48-131.341 8.56-16.526 5.93-47.828-6.28-76.565-8.8-20.566-22.82-41.258-36.42-61.246-7.36-10.698-14.16-20.833-20.11-30.689-12.19-20.274-18.03-39.579-19.08-62.565-2.41-54.715-23.15-107.967-55.69-142.287-43.43-45.995-107.81-71.763-172.12-69.042-61.2 2.713-126.569 27.157-184.274 69.067-16.186 11.752-32.227 24.773-47.846 37.369-42.777 34.534-86.82 70.059-139.241 85.44-24.52 7.121-50.744 10.016-76.264 12.769-21.29 2.176-43.425 4.636-63.721 9.489-51.865 12.558-78.085 66.649-76.548 111.212 1.98 51.472 37.636 91.989 67.324 116.727 4.1 3.514 8.481 6.745 13.004 10.4 17.669 13.912 36.045 28.245 47.109 50.779 8.938 18.451 16.753 38.878 24.284 58.743 9.663 25.641 19.893 52.126 33.077 75.924 10.492 19.433 23.799 37.165 39.074 52.354ZM1436.54 637.54c-15.48 11.609-30.38 29.704-46.12 48.929-9.84 11.875-19.96 24.315-31.07 36.052-19.4 20.647-50.92 46.405-89.83 51.31-33.27 4.044-66.17-7.569-96.81-20.88-45.75-19.897-88.35-22.879-110.91-19.148l-.28.001c-11.97 7.227-22.8 15.861-33.5 24.071-11.54 9.059-23.5 18.543-37.296 26.48-48.155 28.062-106.94 37.396-161.271 25.844-57.295-12.248-110.016-52.857-140.638-108.62-13.043-23.657-23.273-50.142-32.936-75.783-7.531-19.865-15.346-40.293-24.284-58.743-11.065-22.816-30.43-37.852-47.392-51.343-4.524-3.654-8.905-6.886-12.864-10.259-29.405-24.739-64.919-64.833-66.898-116.023-1.535-43.998 24.263-97.383 75.565-109.94 20.295-4.853 42.29-7.172 63.438-9.488 25.52-2.753 51.886-5.507 76.546-12.77 52.703-15.382 97.028-51.189 139.804-85.723 15.619-12.597 31.52-25.476 47.846-37.37 57.565-41.769 122.65-66.211 183.57-68.923 64.03-2.72 128.13 23.048 171.13 68.621l.42-.425-.42.425c32.11 34.18 53 87.009 55.41 141.442 1.05 23.267 6.89 42.855 19.22 63.27 5.95 9.855 12.75 19.99 20.11 30.688 13.46 19.848 27.62 40.399 36.28 60.824 14.34 33.385 13.29 62.723 6.14 75.86l-.14.423.28.281c30.57 36.301 43.11 81.396 36.9 130.917Z" fill="url(#y)"/><path d="M739.896 760.81c29.277 29.111 66.287 49.879 104.53 57.527 56.446 11.404 117.482.089 167.464-30.657 12.25-7.51 22.66-16.848 32.65-25.762 13.36-11.743 25.88-22.921 41.94-30.3 20-9.083 62.31-9.486 111.87 10.542 29.23 11.905 60.43 22.958 91.3 19.062 37.36-4.76 66.63-29.948 84.48-50.166 11.11-12.584 21.08-26.011 30.78-38.873 12.36-16.677 24.02-32.365 36.12-43.118l.14-.141v-.282c4.08-52.477-11.71-99.679-46.08-136.673 3.91-13.551 1.57-40.623-12.76-70.623-7.66-16.056-18.71-32.667-29.33-48.573-8.64-13.092-16.85-25.48-23.38-37.59-10.06-18.73-14.49-37.193-14.84-61.45-.72-54.155-21.88-107.265-56.39-141.862-.14-.14-.29-.281-.43-.422-43.28-43.033-106.53-66.265-169.27-62.28-59.93 3.697-121.639 27.848-178.357 69.615-15.763 11.609-31.523 24.347-46.579 36.66-43.057 35.099-87.803 71.331-141.072 86.15-22.971 6.412-47.363 8.879-71.05 11.203-22.136 2.178-45.118 4.641-66.258 10.061-53.412 14.114-79.202 70.601-76.109 116.711 2.8 42.443 28.871 84.962 73.536 119.248 4.382 3.513 9.045 6.744 13.991 10.255 18.514 13.346 37.875 27.254 49.503 49.504 10.069 19.293 18.17 41.131 26.128 62.263 8.384 22.401 17.053 45.365 28.113 66.207 10.07 19.857 23.52 38.013 39.36 53.764Zm699.724-132.587c-11.96 10.894-23.62 26.582-35.98 43.259-9.7 12.862-19.53 26.147-30.64 38.731-17.71 20.077-46.55 45.122-83.63 49.882-30.6 3.894-61.66-7.3-90.74-19.064-49.7-20.168-92.58-19.764-112.72-10.54-16.06 7.38-28.86 18.558-42.08 30.442-10.13 9.055-20.54 18.111-32.51 25.62-49.697 30.746-110.311 41.919-166.475 30.513-58.563-11.821-113.546-54.116-143.605-110.445-11.06-20.842-19.729-43.806-28.113-66.207-7.958-21.132-16.059-42.97-26.269-62.404-11.629-22.532-30.99-36.44-49.786-49.785-4.946-3.511-9.469-6.883-13.85-10.115-25.725-19.954-69.424-61.717-73.111-118.544-2.951-45.687 22.418-101.467 75.126-115.439 20.998-5.56 43.839-7.881 65.976-10.06 23.827-2.465 48.22-4.932 71.332-11.203 53.551-14.82 98.156-51.192 141.353-86.433 15.056-12.313 30.816-25.051 46.579-36.66 56.577-41.625 118.143-65.635 177.793-69.33 62.46-3.986 125.43 19.247 168.43 61.999l.42.422.42-.424-.42.424c34.37 34.456 55.39 87.144 56.11 141.017.35 24.539 4.78 43.002 14.99 61.872 6.52 12.11 14.73 24.498 23.37 37.59 10.63 15.906 21.53 32.377 29.19 48.433 14.33 30 16.67 56.79 12.47 70.059v.282l.29.281c34.37 36.713 50.3 83.773 46.08 135.827Z" fill="url(#z)"/><path d="M752.468 767.684c29.559 29.393 67.134 50.159 106.645 57.663 58.278 10.976 121.144-1.896 172.527-35.467 12.95-8.499 24.49-18.686 35.46-28.59 13.93-12.592 27.01-24.335 43.48-32.985 22.11-11.768 65.82-15.842 113.68 1.934l1.28.419c25.83 9.658 55.06 20.435 84.1 16.686 27.77-3.605 55.37-20.89 77.99-48.738 11.39-13.995 21.08-28.831 30.49-43.102 8.98-13.565 17.27-26.423 25.7-36.037l.14-.142v-.282c1.82-53.88-17.64-103.892-54.98-141.02-.28-.281-.71-.703-.99-.984.67-12.272-3.91-36.517-18.94-64.681-6.24-11.83-14.45-24.217-22.39-36.324-9.63-14.64-19.68-29.702-26.35-44.21-9.94-21.127-10.98-41.292-10.61-60.333.98-53.032-20.76-107.269-57.24-141.577-43.13-40.637-105.53-61.897-167.29-56.644-57.67 4.818-117.258 29.104-172.427 70.161-15.34 11.467-30.677 24.063-45.452 36.093-43.619 35.665-88.504 72.602-142.762 87.001-21.421 5.702-44.404 7.883-66.399 9.92-22.983 2.181-46.529 4.363-68.231 10.631-24.379 6.98-45.486 23.964-59.239 47.979-12.772 22.179-18.76 49.133-16.432 74.231 5.531 60.347 52.333 102.384 79.749 121.769 4.805 3.371 9.75 6.601 14.978 10.112 19.359 12.779 39.565 26.12 51.756 48.087 11.057 19.713 19.301 42.537 27.262 64.516 7.107 19.443 14.498 39.731 23.859 58.039a216.918 216.918 0 0 0 40.636 55.875Zm690.362-148.638c-8.43 9.615-16.86 22.332-25.7 36.037-9.41 14.272-19.1 29.108-30.48 43.103-22.49 27.424-49.95 44.568-77.3 48.312-28.76 3.749-57.84-7.169-83.54-16.687l-1.27-.419c-48-17.916-92.13-13.701-114.52-1.931-16.34 8.79-30.26 21.1-43.63 33.126-10.97 9.904-22.37 19.949-35.32 28.448-51.099 33.289-113.682 46.16-171.678 35.183-60.96-11.392-117.073-54.53-146.432-112.412-9.36-18.308-16.61-38.456-23.859-58.039-7.96-21.979-16.346-44.662-27.403-64.657-12.333-22.108-32.539-35.449-52.039-48.368-5.228-3.511-10.173-6.741-14.978-10.112-27.275-19.527-73.935-61.141-79.324-121.065-4.364-47.093 20.433-105.411 74.97-120.939 21.56-6.126 45.107-8.308 68.09-10.489 22.136-2.179 45.118-4.359 66.681-9.921 54.399-14.258 99.425-51.337 143.185-87.143 14.775-12.03 30.112-24.626 45.452-36.094 55.028-40.915 114.475-65.06 171.865-69.877 61.48-5.252 123.59 15.727 166.44 56.364 36.06 34.169 57.93 87.982 56.81 140.874-.37 19.041.68 39.488 10.75 60.755 6.96 14.507 16.87 29.711 26.5 44.351 7.79 11.966 16.01 24.354 22.39 36.041 15.03 28.165 19.61 52.41 18.94 64.4v.282l.14.14c.43.422.71.704 1.13 1.125 36.64 36.424 55.96 86.014 54.13 139.612Z" fill="url(#A)"/><path d="M764.899 774.7c29.843 29.674 68.122 50.297 108.902 57.656 59.97 10.69 124.663-4.021 177.589-39.994 13.94-9.489 26.18-20.666 38.13-31.559 13.93-12.592 28.28-25.608 44.75-35.668 22.39-13.462 66.22-23.318 115.49-6.675 2.26.84 4.38 1.539 6.77 2.237 23.58 7.972 47.72 16.225 72.67 12.91 35.39-4.755 60.14-31.622 71.66-47.168 12.08-16.112 21.76-33.769 30.32-49.449 5.47-9.746 10.52-19.069 15.58-26.699l.14-.142v-.282c-.45-57.259-23.86-109.516-65.58-147.336-3.15-15.787-12.66-37.903-25.41-58.74-4.68-7.743-9.92-15.485-15.44-23.791-11.19-16.751-22.94-34.065-29.62-51.111-7.81-19.3-7.59-38.199-6.23-59.076 2.95-52.756-19.35-106.991-57.81-141.294-42.84-38.099-104.52-56.964-164.87-50.304-55.41 5.94-113.022 30.502-166.501 70.708-14.918 11.325-29.833 23.497-44.185 35.384-43.9 36.23-89.488 73.875-144.311 87.711-20.154 4.994-41.445 6.888-62.172 8.78-23.406 2.041-47.658 4.084-69.781 11.058-24.8 7.686-46.045 25.658-59.796 50.519-12.769 23.025-18.33 51.248-15.295 77.049 5.35 46.385 36.789 91.709 85.961 124.29a399.715 399.715 0 0 0 16.107 10.108c20.203 12.213 40.971 24.988 54.008 46.671 11.762 19.852 20.008 42.958 27.97 65.501 5.972 17.19 12.369 34.801 20.172 50.998 9.934 21.691 24.093 41.114 40.782 57.708Zm681.011-164.689c-5.05 7.63-9.96 16.811-15.44 26.558-8.7 15.539-18.38 33.196-30.32 49.167-11.52 15.546-36.13 41.99-71.09 46.884-24.67 3.314-48.81-4.938-72.1-12.911-2.26-.84-4.66-1.538-6.78-2.237-49.55-16.643-93.67-6.786-116.19 6.817-16.62 9.92-30.97 22.936-44.75 35.668-11.96 10.894-24.2 22.071-37.99 31.418-52.789 35.832-117.341 50.401-176.888 39.851-63.357-11.243-120.46-55.084-149.258-114.378-7.803-16.197-14.059-33.95-20.172-50.997-7.962-22.543-16.067-45.791-28.111-65.643-13.037-21.682-33.947-34.598-54.291-46.951-5.651-3.369-10.879-6.598-16.107-10.109-49.031-32.44-80.187-77.483-85.536-123.586-5.641-49.205 20.702-109.925 74.53-126.438 21.982-6.832 46.234-8.876 69.64-10.917 20.727-1.892 42.159-3.645 62.454-8.78 55.105-13.837 100.694-51.482 144.734-87.853 14.352-11.888 29.267-24.059 44.185-35.384 53.338-40.065 110.81-64.486 165.94-70.425 60.2-6.518 121.46 12.207 164.17 50.165 38.31 34.163 60.47 87.975 57.51 140.448-1.21 21.018-1.43 39.917 6.38 59.499 6.82 16.905 18.43 34.36 29.76 51.252 5.53 8.306 10.77 16.048 15.3 23.651 12.61 20.978 22.12 42.812 25.27 58.598l.14.141.14.141c41.29 37.398 64.43 89.374 64.87 146.351Z" fill="url(#B)"/><path d="M777.046 781.154c6.506 6.469 13.434 12.514 20.925 18.275 26.997 20.655 58.346 34.388 90.516 39.656 61.662 10.12 128.323-6.006 182.793-44.664 14.92-10.479 28.15-22.645 40.95-34.67 14.34-13.298 29.25-26.879 46.01-38.069 25.62-16.715 69.87-29.534 117.29-15.283 3.53.977 7.34 2.236 10.87 3.213 20.33 6.43 41.22 12.858 62.51 10.118 24.53-3.454 48.32-20.023 65.45-45.74 12.92-19.5 22.17-41.528 29.45-59.037 2.1-4.942 4.06-9.743 6.03-13.979l-.01-.282c-2.84-59.086-30.22-114.717-75.32-152.527-6.95-14.507-18.29-33.374-31.6-52.799-2.41-3.519-4.95-6.896-7.5-10.556-12.75-18.016-27.33-38.425-33.88-58.433-5.69-17.754-4.05-35.247-2.55-53.727l.41-4.091c4.79-51.774-18.35-107.135-58.64-141.01-21.21-17.71-47.48-31.175-75.71-38.71-27.8-7.396-57.71-9.286-86.61-5.396-53.15 7.062-108.507 31.618-160.437 71.115-14.636 11.042-28.987 23.212-43.057 34.817-44.321 36.936-90.19 75.145-146.144 88.421-19.027 4.426-38.908 6.034-58.367 7.499-23.829 1.901-48.505 3.805-71.05 11.203-25.221 8.393-46.605 27.07-60.353 53.06-12.766 24.153-18.042 53.221-14.441 79.866 6.767 48.638 40.324 94.943 92.174 126.811 5.511 3.51 11.584 6.737 17.235 10.106 20.907 11.787 42.52 23.996 56.12 45.112 12.607 19.569 20.572 42.958 28.111 65.643 4.979 15.077 10.382 30.575 16.911 44.942a212.57 212.57 0 0 0 41.914 59.116Zm672.084-180.319c-1.96 4.236-3.78 8.896-5.88 13.838-7.71 18.497-16.53 39.537-29.45 59.036-17 25.294-40.5 41.862-64.89 45.175-21.15 2.881-41.9-3.689-62.09-9.978l-11.01-3.354c-47.85-14.108-92.38-1.289-118 15.426-16.75 10.908-31.66 24.771-46.15 37.929-12.94 11.884-26.17 24.05-40.94 34.67-54.33 38.516-120.856 54.783-182.376 44.521-65.895-10.955-124.269-55.497-152.085-116.345-6.528-14.367-11.79-29.725-16.911-44.942-7.68-22.826-15.645-46.215-28.252-65.783-13.741-21.258-35.496-33.607-56.402-45.395-5.792-3.227-11.725-6.595-17.094-9.964-51.568-31.869-85.124-77.892-91.75-126.389-7.054-50.612 18.858-113.728 74.233-132.079 22.262-7.397 46.938-9.301 70.767-11.202 19.459-1.465 39.481-3.215 58.508-7.641 56.095-13.134 102.104-51.486 146.566-88.563 13.929-11.746 28.422-23.775 43.058-34.817C970.771 115.623 1026.13 91.067 1079 84.006c58.93-7.784 119.48 8.546 161.75 44.107 40.01 33.594 63.01 88.532 58.36 140.164l-.41 4.092c-1.64 18.621-3.28 36.114 2.41 54.15 6.54 20.009 21.13 40.699 33.87 58.715 2.55 3.66 5.1 7.038 7.51 10.557 13.45 19.565 24.79 38.15 31.6 52.798 44.96 37.952 72.19 93.442 75.04 152.246Z" fill="url(#C)"/><path d="M789.053 787.749c30.55 30.377 70.805 51.558 113.981 58.205 63.352 9.834 131.846-8.131 187.996-49.332 15.77-11.609 30.11-24.908 43.9-37.922 14.91-13.864 30.24-28.152 47.27-40.188 35.61-25.065 80.16-33.935 119.25-24.033 4.52 1.115 9.32 2.512 13.83 3.91 17.51 5.027 35.43 10.195 53.48 7.605 22.84-3.168 44.93-19.732 59.11-44.171 14.45-24.722 23.55-50.276 25.04-70.166 4.48-61.927-39.52-111.869-84.93-157.859-7.49-7.453-15.14-17.586-24.05-28.985-4.39-5.77-9.06-11.821-14.02-17.871-15.28-18.855-31.99-41.092-37.41-63.36-3.71-15.503-1.64-30.318.71-46.261.56-3.387.97-6.914 1.38-10.441 3.32-25.395-.71-52.463-11.5-77.536-10.65-24.933-27.21-46.747-47.85-62.766-21.48-16.863-46.76-28.78-75.41-35.327-27.24-6.269-56.43-7.173-84.63-2.58-51.45 8.185-103.286 32.309-154.511 71.662-14.213 10.9-28.142 22.645-41.79 34.108-44.742 37.642-91.032 76.559-147.693 89.131-17.759 3.999-36.654 5.181-54.844 6.502-24.112 1.62-49.211 3.384-71.895 11.487-25.643 9.099-47.306 28.906-60.91 55.6-12.763 25.282-17.754 55.477-13.305 82.684 4.165 26.362 15.661 51.575 34.202 74.793 16.702 21.108 39.039 39.943 64.044 54.398a450.984 450.984 0 0 0 18.504 9.961c21.61 11.363 44.068 23.005 58.371 43.696 13.17 19.003 20.571 42.394 27.969 64.938 4.268 13.245 8.679 26.913 14.075 39.591 9.795 22.679 24.098 43.088 41.636 60.527Zm459.337-648.938c33.95 33.752 51.57 82.218 45.64 128.071-.41 3.527-.97 6.913-1.38 10.44-2.35 15.944-4.57 30.9-.71 46.544 5.42 22.55 22.26 44.645 37.55 63.782 5.1 6.191 9.63 12.102 14.01 17.872 8.78 11.54 16.57 21.531 24.06 28.985 45.26 45.848 89.27 95.791 84.79 157.436-1.5 19.608-10.59 45.161-24.91 69.742-14.17 24.157-35.99 40.438-58.68 43.747-17.91 2.448-35.84-2.719-53.2-7.606-4.65-1.256-9.31-2.794-13.83-3.91-21.17-5.299-43.17-5.519-65.3-.237-19.31 4.427-38.18 12.942-54.37 24.412-17.03 12.036-32.36 26.325-47.27 40.188-13.79 13.015-28.14 26.313-43.9 37.922-56.01 41.06-124.365 58.883-187.576 49.191-67.585-10.386-128.504-56.896-155.051-118.17-5.396-12.678-9.806-26.346-14.075-39.591-7.257-22.686-14.658-46.077-27.969-65.22-14.445-20.832-36.903-32.474-58.655-43.977-6.074-3.227-12.429-6.453-18.362-9.821-54.246-31.155-89.921-78.16-97.963-128.909-8.327-51.878 17.154-117.672 73.794-137.578 22.543-7.962 47.642-9.726 71.754-11.346 18.19-1.321 37.085-2.503 54.985-6.644 56.943-12.573 103.373-51.63 148.115-89.273 13.648-11.462 27.718-23.349 41.791-34.108 50.943-39.352 102.912-63.335 154.232-71.66 57.94-9.333 117.49 4.884 159.33 37.767 4.53 3.654 8.91 7.732 13.15 11.951Z" fill="url(#D)"/><path d="M801.203 794.765c30.691 30.518 71.934 51.838 116.519 58.199 64.903 9.406 135.368-10.257 193.208-54.002 16.74-12.599 32.08-27.169 46.99-41.315 15.33-14.57 31.08-29.565 48.25-42.307 22.66-16.848 68.56-43.493 121.06-32.641 5.36 1.113 10.72 2.508 16.09 3.903 14.82 3.766 30.06 7.954 45.28 5.654 21.29-3.304 41.55-19.44 52.77-42.601 10.24-20.762 15.39-45.175 14.62-67.034-1.36-30.6-11.32-61.036-29.73-90.883-15.87-25.623-37.8-49.96-64.95-72.448-17.24-14.337-31.38-27.272-44.4-41.056-19.52-20.536-30.86-39.967-33.73-57.729-2.29-13.815.63-26.939 3.69-41.052.98-4.656 2.09-9.455 2.78-14.393 8.6-51.079-15.53-107.425-60.05-140.159-21.48-15.735-46.76-26.523-74.84-31.944-26.53-5.002-55.16-5.061-82.51.094-48.77 9.165-98.908 33.565-148.584 72.209-13.65 10.616-27.297 22.361-40.664 33.541-45.163 38.348-91.874 77.971-149.524 89.841-16.914 3.433-34.541 4.47-51.603 5.506-24.395 1.338-49.636 2.961-72.459 11.488-26.064 9.806-47.865 30.6-61.467 58.422-13.04 26.693-17.467 57.169-12.309 85.644 4.873 27.347 17.358 53.262 36.747 77.041 17.832 21.669 41.157 40.643 67.571 54.812 6.356 3.508 12.994 6.733 19.632 9.958 22.315 10.937 45.476 22.154 60.624 42.279 13.733 18.437 20.709 41.406 27.26 63.671 3.559 11.695 7.119 23.673 11.664 34.943 9.657 23.385 24.102 44.499 42.065 62.359Zm583.587-353.54c43.84 43.596 68.81 92.887 70.78 141.257.9 21.716-4.53 46.131-14.62 66.751-11.22 22.879-31.34 39.156-52.35 42.177-15.22 2.3-30.33-1.747-45.14-5.513-5.37-1.395-10.73-2.79-16.09-3.903-20.75-4.314-42.75-3.123-65.29 3.711-19.31 5.837-38.6 15.906-56.33 28.931-17.32 12.884-33.07 27.878-48.4 42.448-14.91 14.146-30.24 28.716-46.85 41.174-57.7 43.603-127.878 63.265-192.78 53.859-70.547-10.236-132.455-57.448-157.878-120.136-4.545-11.27-8.105-23.248-11.664-34.944-6.692-22.405-13.668-45.374-27.401-63.811-15.29-20.265-38.311-31.624-60.766-42.419-6.496-3.085-13.275-6.45-19.491-9.818-56.076-30.163-95-79.273-104.175-131.43-10.891-60.614 21.368-123.608 73.355-143.077 22.824-8.527 48.064-10.15 72.318-11.63 17.062-1.035 34.689-2.073 51.744-5.647 57.79-12.011 104.501-51.634 149.805-90.124 13.225-11.32 26.873-22.783 40.523-33.399 49.676-38.644 99.53-63.044 148.31-72.209 57.79-10.882 114.94.661 156.92 31.711 44.52 32.734 68.37 88.798 59.77 139.595-.83 4.798-1.81 9.737-2.78 14.394-2.92 13.971-5.85 27.377-3.55 41.192 2.87 18.045 14.21 37.475 33.87 58.152 13.02 13.784 27.3 26.86 44.4 41.056 8.49 7.309 16.4 14.339 23.76 21.652Z" fill="url(#E)"/><path d="M812.926 801.079c6.789 6.75 14 13.076 21.773 18.836 28.69 21.215 62.437 35.082 97.569 39.918 34.002 4.558 69.252 1.355 104.482-9.464 33.11-10.107 65.64-27.265 93.93-49.206 17.59-13.73 34.19-29.573 49.94-44.85 15.75-14.994 31.93-30.695 49.38-44.284 29.41-23.072 74.61-48.728 122.86-41.249 5.79.97 11.57 2.223 17.22 3.618 12.56 2.926 25.26 5.992 38.09 4.122 19.73-3.158 38.02-19.288 46.56-41.173 6.58-17.366 8.08-38.384 4.05-64.041-5.03-32.847-17.11-65.674-35.24-94.676-18-29.143-41.9-54.602-69.04-73.706-5.93-4.214-12.29-8.286-18.37-12.077-11.02-7.02-22.32-14.322-32.5-23.037-18.1-15.745-28.73-34.19-29.76-52.099-.89-12.69 2.74-25.112 6.24-37.11 1.53-5.504 3.35-11.292 4.46-16.937 5.43-25.26 2.11-52.471-9.67-78.247-11.07-24.508-29.19-46.458-51.23-61.627-41.55-28.653-98.13-37.942-155.07-25.651-46.94 10.147-93.692 33.973-142.662 72.756-13.228 10.474-26.453 21.795-39.397 32.832-45.584 39.055-92.716 79.384-151.213 90.692-15.929 3.007-32.569 3.901-48.503 4.651-24.537 1.198-49.779 2.539-72.882 11.631-26.344 10.652-48.425 32.294-62.024 60.962-13.037 27.821-17.179 59.143-11.314 88.32 10.733 54.55 52.199 104.782 110.813 134.374 6.779 3.366 13.84 6.73 20.901 9.813 23.018 10.512 46.742 21.164 62.594 40.863 14.295 17.589 20.423 39.996 26.408 61.699 2.85 10.146 5.701 20.857 9.537 30.859 9.093 23.386 23.399 44.924 42.068 63.488Zm573.104-369.307c38.19 37.971 64.56 88.669 72.61 141.675 3.88 25.516 2.53 46.393-4.05 63.759-8.4 21.744-26.55 37.732-46.14 40.749-12.69 2.011-25.39-1.056-37.95-3.982-5.65-1.394-11.57-2.787-17.36-3.758-48.54-7.478-93.88 18.319-123.29 41.391-17.45 13.589-33.62 29.29-49.51 44.426-15.9 15.136-32.35 31.12-49.94 44.85-59.39 46.146-131.54 67.506-197.993 58.528-72.378-9.808-137.112-58.986-160.703-122.103-3.837-10.003-6.547-20.573-9.537-30.86-5.986-21.702-12.255-44.25-26.55-61.839-15.992-19.558-39.717-30.491-62.876-40.862-6.92-3.224-13.981-6.307-20.76-9.673-58.472-29.451-99.797-79.542-110.388-133.951-12.305-62.021 19.806-127.411 73.057-148.718 22.962-9.232 48.204-10.573 72.6-11.63 16.075-.892 32.716-1.503 48.785-4.652 58.779-11.308 105.911-51.637 151.636-90.834 12.804-10.896 26.169-22.358 39.397-32.832 48.97-38.783 95.582-62.468 142.382-72.755 56.66-12.29 113.1-3.142 154.64 25.511 46.5 31.882 71.34 89.213 60.62 139.311-1.25 5.786-2.93 11.432-4.46 16.937-3.49 11.998-7.13 24.701-6.24 37.392 1.18 18.049 11.81 36.777 30.05 52.38 10.17 8.715 21.48 16.016 32.5 23.037 6.07 3.791 12.43 7.863 18.37 12.077 10.88 7.726 21.34 16.722 31.1 26.426Z" fill="url(#F)"/></g><defs><linearGradient id="a" x1="1377.79" y1="89.162" x2="491.95" y2="980.052" gradientUnits="userSpaceOnUse"><stop stop-color="#4AFEBF"/><stop offset="1" stop-color="#51EEDA"/></linearGradient><linearGradient id="b" x1="1373.04" y1="92.682" x2="510.022" y2="960.614" gradientUnits="userSpaceOnUse"><stop stop-color="#4AFEBF"/><stop offset="1" stop-color="#51EEDA"/></linearGradient><linearGradient id="c" x1="1369.72" y1="95.61" x2="528.523" y2="941.6" gradientUnits="userSpaceOnUse"><stop stop-color="#4AFEBF"/><stop offset="1" stop-color="#51EEDA"/></linearGradient><linearGradient id="d" x1="1364.61" y1="98.801" x2="546.255" y2="921.823" gradientUnits="userSpaceOnUse"><stop stop-color="#4AFEBF"/><stop offset="1" stop-color="#51EEDA"/></linearGradient><linearGradient id="e" x1="1359.9" y1="101.681" x2="563.888" y2="902.229" gradientUnits="userSpaceOnUse"><stop stop-color="#4AFEBF"/><stop offset="1" stop-color="#51EEDA"/></linearGradient><linearGradient id="f" x1="1355.06" y1="104.258" x2="581.445" y2="882.277" gradientUnits="userSpaceOnUse"><stop stop-color="#4AFEBF"/><stop offset="1" stop-color="#51EEDA"/></linearGradient><linearGradient id="g" x1="1349.55" y1="106.255" x2="598.238" y2="861.846" gradientUnits="userSpaceOnUse"><stop stop-color="#4AFEBF"/><stop offset="1" stop-color="#51EEDA"/></linearGradient><linearGradient id="h" x1="1344.58" y1="108.384" x2="615.51" y2="841.612" gradientUnits="userSpaceOnUse"><stop stop-color="#4AFEBF"/><stop offset="1" stop-color="#51EEDA"/></linearGradient><linearGradient id="i" x1="1339.15" y1="110.506" x2="632.123" y2="821.565" gradientUnits="userSpaceOnUse"><stop stop-color="#4AFEBF"/><stop offset="1" stop-color="#51EEDA"/></linearGradient><linearGradient id="j" x1="1334.06" y1="112.2" x2="648.832" y2="801.333" gradientUnits="userSpaceOnUse"><stop stop-color="#4AFEBF"/><stop offset="1" stop-color="#51EEDA"/></linearGradient><linearGradient id="k" x1="1329.94" y1="115.5" x2="666.69" y2="782.525" gradientUnits="userSpaceOnUse"><stop stop-color="#4AFEBF"/><stop offset="1" stop-color="#51EEDA"/></linearGradient><linearGradient id="l" x1="1324.67" y1="117.376" x2="670.606" y2="775.168" gradientUnits="userSpaceOnUse"><stop stop-color="#4AFEBF"/><stop offset="1" stop-color="#51EEDA"/></linearGradient><linearGradient id="m" x1="1318.87" y1="117.699" x2="670.946" y2="769.318" gradientUnits="userSpaceOnUse"><stop stop-color="#4AFEBF"/><stop offset="1" stop-color="#51EEDA"/></linearGradient><linearGradient id="n" x1="1312.57" y1="119.11" x2="671.576" y2="763.756" gradientUnits="userSpaceOnUse"><stop stop-color="#4AFEBF"/><stop offset="1" stop-color="#51EEDA"/></linearGradient><linearGradient id="o" x1="1309.18" y1="122.4" x2="674.472" y2="760.729" gradientUnits="userSpaceOnUse"><stop stop-color="#4AFEBF"/><stop offset="1" stop-color="#51EEDA"/></linearGradient><linearGradient id="p" x1="1307.24" y1="126.931" x2="678.856" y2="758.9" gradientUnits="userSpaceOnUse"><stop stop-color="#4AFEBF"/><stop offset="1" stop-color="#51EEDA"/></linearGradient><linearGradient id="q" x1="1305.78" y1="131.514" x2="683.365" y2="757.477" gradientUnits="userSpaceOnUse"><stop stop-color="#4AFEBF"/><stop offset="1" stop-color="#51EEDA"/></linearGradient><linearGradient id="r" x1="1303.79" y1="135.683" x2="687.542" y2="755.442" gradientUnits="userSpaceOnUse"><stop stop-color="#4AFEBF"/><stop offset="1" stop-color="#51EEDA"/></linearGradient><linearGradient id="s" x1="1301.83" y1="140.003" x2="691.667" y2="753.638" gradientUnits="userSpaceOnUse"><stop stop-color="#4AFEBF"/><stop offset="1" stop-color="#51EEDA"/></linearGradient><linearGradient id="t" x1="1300.75" y1="143.898" x2="696.026" y2="752.066" gradientUnits="userSpaceOnUse"><stop stop-color="#4AFEBF"/><stop offset="1" stop-color="#51EEDA"/></linearGradient><linearGradient id="u" x1="1299.42" y1="147.893" x2="700.312" y2="750.419" gradientUnits="userSpaceOnUse"><stop stop-color="#4AFEBF"/><stop offset="1" stop-color="#51EEDA"/></linearGradient><linearGradient id="v" x1="1297.54" y1="152.185" x2="704.465" y2="748.643" gradientUnits="userSpaceOnUse"><stop stop-color="#4AFEBF"/><stop offset="1" stop-color="#51EEDA"/></linearGradient><linearGradient id="w" x1="1295.88" y1="155.622" x2="708.302" y2="746.551" gradientUnits="userSpaceOnUse"><stop stop-color="#4AFEBF"/><stop offset="1" stop-color="#51EEDA"/></linearGradient><linearGradient id="x" x1="1294.77" y1="159.324" x2="712.404" y2="745.005" gradientUnits="userSpaceOnUse"><stop stop-color="#4AFEBF"/><stop offset="1" stop-color="#51EEDA"/></linearGradient><linearGradient id="y" x1="1295.39" y1="164.581" x2="718.159" y2="745.101" gradientUnits="userSpaceOnUse"><stop stop-color="#4AFEBF"/><stop offset="1" stop-color="#51EEDA"/></linearGradient><linearGradient id="z" x1="1296.41" y1="169.675" x2="724.17" y2="745.172" gradientUnits="userSpaceOnUse"><stop stop-color="#4AFEBF"/><stop offset="1" stop-color="#51EEDA"/></linearGradient><linearGradient id="A" x1="1297.42" y1="174.537" x2="729.923" y2="745.268" gradientUnits="userSpaceOnUse"><stop stop-color="#4AFEBF"/><stop offset="1" stop-color="#51EEDA"/></linearGradient><linearGradient id="B" x1="1298.69" y1="179.777" x2="735.854" y2="745.82" gradientUnits="userSpaceOnUse"><stop stop-color="#4AFEBF"/><stop offset="1" stop-color="#51EEDA"/></linearGradient><linearGradient id="C" x1="1299.45" y1="185.169" x2="741.746" y2="746.053" gradientUnits="userSpaceOnUse"><stop stop-color="#4AFEBF"/><stop offset="1" stop-color="#51EEDA"/></linearGradient><linearGradient id="D" x1="1301.12" y1="190.526" x2="747.933" y2="746.862" gradientUnits="userSpaceOnUse"><stop stop-color="#4AFEBF"/><stop offset="1" stop-color="#51EEDA"/></linearGradient><linearGradient id="E" x1="1302.81" y1="195.384" x2="753.745" y2="747.576" gradientUnits="userSpaceOnUse"><stop stop-color="#4AFEBF"/><stop offset="1" stop-color="#51EEDA"/></linearGradient><linearGradient id="F" x1="1304.34" y1="200.648" x2="759.819" y2="748.273" gradientUnits="userSpaceOnUse"><stop stop-color="#4AFEBF"/><stop offset="1" stop-color="#51EEDA"/></linearGradient></defs></svg>