<svg width="24" height="24" viewBox="0 0 24 24" fill="none" xmlns="http://www.w3.org/2000/svg">
<g clip-path="url(#clip0_3110_5760)">
<path d="M24 12C24 5.375 18.625 0 12 0C5.375 0 0 5.375 0 12C0 18.625 5.375 24 12 24C18.625 24 24 18.625 24 12ZM13.4917 5.825C13.2083 5.25833 12.6333 4.9 12 4.9C11.3667 4.89167 10.7917 5.25 10.5083 5.825L5.825 15.2C5.70833 15.425 5.65 15.6833 5.65 15.9417C5.65 16.8583 6.4 17.6083 7.31667 17.6083H16.6833C16.9417 17.6083 17.1917 17.55 17.425 17.4333C18.25 17.025 18.5833 16.025 18.175 15.2L13.4917 5.825ZM9.48333 5.30833C9.95833 4.35 10.9333 3.75 12 3.75C13.0667 3.75 14.0417 4.35 14.5167 5.30833L19.2083 14.6917C19.4083 15.0833 19.5083 15.5167 19.5083 15.95C19.5083 17.5 18.2417 18.7583 16.6917 18.7583H7.31667C6.88333 18.7583 6.45 18.65 6.05833 18.4583C4.66667 17.7583 4.10833 16.075 4.8 14.6833L9.48333 5.30833Z" fill="white"/>
</g>
<defs>
<clipPath id="clip0_3110_5760">
<rect width="24" height="24" fill="white"/>
</clipPath>
</defs>
</svg>
