<svg width="24" height="24" viewBox="0 0 24 24" fill="none" xmlns="http://www.w3.org/2000/svg">
<path d="M10.668 18.0437L10.6571 18.0612C10.3211 18.6492 10.151 18.947 9.91532 19.1717C9.66004 19.4161 9.35022 19.5972 9.00986 19.6965C8.70113 19.7826 8.35532 19.7826 7.66368 19.7826H4.7215C4.10404 19.7826 3.79859 19.7826 3.61204 19.6626C3.51386 19.5987 3.4321 19.5125 3.37335 19.4111C3.31461 19.3098 3.28053 19.196 3.27386 19.079C3.26295 18.8597 3.41568 18.5914 3.72113 18.0546L10.9833 5.25281C11.292 4.70954 11.4491 4.43681 11.6455 4.33645C11.7506 4.28299 11.8669 4.25513 11.9848 4.25513C12.1027 4.25513 12.2189 4.28299 12.324 4.33645C12.5204 4.43572 12.6775 4.70736 12.9862 5.25281L14.4797 7.86009L14.4873 7.87209C14.8211 8.45572 14.9902 8.75245 15.0644 9.06118C15.1464 9.40177 15.1464 9.75695 15.0644 10.0975C14.9891 10.4095 14.8222 10.7085 14.484 11.2997L10.668 18.0437ZM20.7666 19.0714C20.7608 19.1894 20.727 19.3044 20.6681 19.4069C20.6091 19.5093 20.5265 19.5962 20.4273 19.6605C20.2397 19.7826 19.9277 19.7826 19.307 19.7826H15.0917C14.4699 19.7826 14.1568 19.7826 13.9746 19.6637C13.8759 19.5989 13.7938 19.5118 13.7349 19.4095C13.676 19.3072 13.6419 19.1925 13.6353 19.0746C13.6244 18.8565 13.7771 18.5914 14.0859 18.0601L14.0935 18.0481L16.1968 14.4372C16.5066 13.9037 16.6626 13.6397 16.8568 13.5383C16.961 13.4852 17.0763 13.4575 17.1933 13.4575C17.3103 13.4575 17.4256 13.4852 17.5299 13.5383C17.7219 13.6365 17.8724 13.8895 18.1691 14.3914L18.1931 14.4317L20.304 18.0426L20.3346 18.095C20.627 18.6012 20.7764 18.8586 20.7666 19.0714Z" fill="white"/>
</svg>
