<svg width="24" height="24" viewBox="0 0 24 24" fill="none" xmlns="http://www.w3.org/2000/svg">
<path d="M14.3935 18.4877V20.6902L12.5193 21.8182L10.6975 20.6902V18.4877L12.5193 19.6168L14.3935 18.4877ZM4.36365 10.8721L6.18547 12.0001V15.7757L9.32074 17.6957V19.8982L4.36365 16.9048V10.8721ZM20.6738 10.8721V16.9135L15.6633 19.907V17.7055L18.7996 15.7855V12.0001L20.6738 10.8721ZM15.6556 7.87861L17.5287 9.00661V11.2081L14.3935 13.1281V16.9681L12.5716 18.0961L10.7509 16.9681V13.1281L7.50001 11.2081V9.00661L9.37419 7.87643L12.5095 9.79643L15.6546 7.87643L15.6556 7.87861ZM7.50874 12.7921L9.33056 13.9201V16.1215L7.50874 14.9935V12.7921ZM17.5287 12.7921V14.9935L15.7091 16.1215V13.9201L17.5309 12.7921H17.5287ZM6.18547 5.95861L8.06074 7.08661L6.18438 8.21461V10.4182L4.36365 9.28807V7.08661L6.18547 5.95861ZM18.8542 5.95861L20.7273 7.08661V9.28807L18.8531 10.4182V8.21461L17.0313 7.08661L18.8531 5.95861H18.8542ZM12.5204 5.95861L14.3946 7.08661L12.5204 8.22334L10.6986 7.09534L12.5204 5.95861ZM12.5204 2.18188L17.5298 5.17534L15.7091 6.30552L12.5727 4.38552L9.37528 6.30552L7.56328 5.17643L12.5193 2.18188H12.5204Z" fill="white"/>
</svg>
