<svg width="24" height="24" viewBox="0 0 24 24" fill="none" xmlns="http://www.w3.org/2000/svg">
<path d="M8.4327 16.6323C7.98888 16.6323 7.6141 16.3159 7.53942 15.8786L5.01317 1.056C4.97231 0.816975 5.02726 0.577945 5.16815 0.381097C5.30905 0.184249 5.51757 0.0534862 5.75568 0.0127106C6.24882 -0.0702467 6.718 0.261583 6.80254 0.753702L9.32738 15.5749C9.36824 15.814 9.31329 16.053 9.1724 16.2498C9.0315 16.4467 8.82298 16.5775 8.58486 16.6182C8.53555 16.6267 8.48483 16.6323 8.4327 16.6323Z" fill="white"/>
<path d="M12.6665 9.79468C11.2224 9.79468 9.87963 10.2263 8.7567 10.9673L9.06244 12.7615C10.0276 11.922 11.2886 11.4116 12.6665 11.4116C15.6972 11.4116 18.1629 13.8722 18.1629 16.8967C18.1629 19.9211 15.6972 22.3817 12.6665 22.3817C9.63588 22.3817 7.17022 19.9211 7.17022 16.8967C7.17022 16.4931 7.2153 16.1008 7.29843 15.7226L6.81093 12.8669C6.01629 14.0128 5.54993 15.402 5.54993 16.8981C5.54993 20.8139 8.74261 24.0001 12.6665 24.0001C16.5905 24.0001 19.7832 20.8139 19.7832 16.8981C19.7832 12.9822 16.5919 9.79468 12.6665 9.79468Z" fill="white"/>
<path d="M12.2777 21.0431C12.8131 21.0431 13.2471 20.6101 13.2471 20.0758C13.2471 19.5415 12.8131 19.1084 12.2777 19.1084C11.7423 19.1084 11.3083 19.5415 11.3083 20.0758C11.3083 20.6101 11.7423 21.0431 12.2777 21.0431Z" fill="white"/>
<path d="M15.3055 19.9169C15.8409 19.9169 16.2749 19.4838 16.2749 18.9495C16.2749 18.4152 15.8409 17.9822 15.3055 17.9822C14.7702 17.9822 14.3362 18.4152 14.3362 18.9495C14.3362 19.4838 14.7702 19.9169 15.3055 19.9169Z" fill="white"/>
<path d="M12.9246 17.8429C13.4599 17.8429 13.8939 17.4099 13.8939 16.8756C13.8939 16.3413 13.4599 15.9082 12.9246 15.9082C12.3892 15.9082 11.9552 16.3413 11.9552 16.8756C11.9552 17.4099 12.3892 17.8429 12.9246 17.8429Z" fill="white"/>
<path d="M9.91638 18.8312C10.4517 18.8312 10.8857 18.3982 10.8857 17.8639C10.8857 17.3296 10.4517 16.8965 9.91638 16.8965C9.38102 16.8965 8.94702 17.3296 8.94702 17.8639C8.94702 18.3982 9.38102 18.8312 9.91638 18.8312Z" fill="white"/>
<path d="M15.9255 16.8515C16.4609 16.8515 16.8949 16.4184 16.8949 15.8841C16.8949 15.3498 16.4609 14.9167 15.9255 14.9167C15.3902 14.9167 14.9562 15.3498 14.9562 15.8841C14.9562 16.4184 15.3902 16.8515 15.9255 16.8515Z" fill="white"/>
<path d="M13.5726 14.6427C14.108 14.6427 14.542 14.2097 14.542 13.6754C14.542 13.1411 14.108 12.708 13.5726 12.708C13.0373 12.708 12.6033 13.1411 12.6033 13.6754C12.6033 14.2097 13.0373 14.6427 13.5726 14.6427Z" fill="white"/>
<path d="M10.5349 15.766C11.0703 15.766 11.5043 15.333 11.5043 14.7987C11.5043 14.2644 11.0703 13.8313 10.5349 13.8313C9.99955 13.8313 9.56555 14.2644 9.56555 14.7987C9.56555 15.333 9.99955 15.766 10.5349 15.766Z" fill="white"/>
</svg>
