<svg width="24" height="24" viewBox="0 0 24 24" fill="none" xmlns="http://www.w3.org/2000/svg">
<path d="M9.55771 5.45404C5.75554 6.91076 5.40724 10.6414 4.317 12.3837C3.21386 14.1467 0.686586 15.1194 1.03219 16.0179C1.37777 16.9162 3.90805 15.9513 5.90987 16.5246C7.88797 17.091 10.648 19.6311 14.4501 18.1743C16.387 17.4323 17.7896 15.905 18.4345 14.0958C18.5039 13.9016 18.3742 13.6939 18.1684 13.6747C18.0406 13.6627 17.9178 13.7296 17.8602 13.844C17.2768 15.0037 16.2759 15.9588 14.9663 16.4605C12.8041 17.2888 10.4383 16.6385 8.98542 15.0073C8.65543 14.637 8.37319 14.2153 8.1504 13.7493C8.08915 13.6211 8.03089 13.4907 7.97925 13.3559C7.9273 13.221 7.88316 13.0853 7.84263 12.9489C8.98542 12.4173 10.3041 11.8542 11.7992 11.2815C13.2649 10.7199 14.5991 10.2644 15.7868 9.90001C16.5903 9.65369 17.3269 9.44871 17.9919 9.28119C18.0401 9.26921 18.0874 9.25722 18.1346 9.24553C18.2351 9.22066 18.3385 9.2743 18.3756 9.37079L18.3763 9.37259C18.3982 9.42983 18.4171 9.48736 18.4376 9.54491C18.569 9.9162 18.6676 10.2914 18.7326 10.6675C18.7612 10.832 18.9413 10.9216 19.0891 10.8425C19.635 10.55 20.1343 10.2647 20.5804 9.99022C22.2431 8.96833 23.1648 8.10168 22.9756 7.6105C22.7868 7.11903 21.5208 7.09087 19.6001 7.44149C18.9897 7.55297 18.313 7.7028 17.5837 7.88831C17.4575 7.92036 17.3298 7.95363 17.2008 7.98779C16.587 8.15021 15.9397 8.33632 15.2656 8.54459C14.0121 8.93207 12.6672 9.39627 11.2787 9.92819C9.97987 10.426 8.74881 10.942 7.61984 11.4562C7.60603 9.2737 8.92807 7.21043 11.0902 6.38213C12.3996 5.88048 13.7839 5.92154 14.9951 6.39412C15.1146 6.44087 15.2506 6.40851 15.338 6.31411C15.4778 6.16277 15.4349 5.92183 15.2532 5.82354C13.5611 4.91043 11.4947 4.71205 9.55771 5.45404Z" fill="white"/>
</svg>
