<svg width="24" height="24" viewBox="0 0 24 24" fill="none" xmlns="http://www.w3.org/2000/svg">
<path d="M10.6864 1.21046C11.2183 0.929848 12.0277 0.929848 12.5596 1.21046L17.9873 4.07381C18.3076 4.24279 18.4836 4.49462 18.5151 4.75459H18.5203V19.1472C18.5132 19.4308 18.3356 19.7124 17.9873 19.8962L12.5596 22.7595C12.0277 23.0401 11.2183 23.0401 10.6864 22.7595L5.25872 19.8962C4.91185 19.7132 4.74538 19.4296 4.73713 19.1472C4.73629 19.1182 4.73621 19.0943 4.73711 19.0747L4.73713 4.85149C4.73632 4.83149 4.73631 4.81157 4.73711 4.79173L4.73713 4.75459H4.73956C4.76367 4.49175 4.93162 4.24635 5.25872 4.07381L10.6864 1.21046ZM17.6659 12.7841L12.5596 15.4779C12.0277 15.7585 11.2183 15.7585 10.6864 15.4779L5.59143 12.7901V19.1188L10.6864 21.7924C10.9875 21.9531 11.3006 22.1096 11.6054 22.1165L11.623 22.1167C11.9273 22.1177 12.2226 21.9634 12.5222 21.8173L17.6659 19.0958V12.7841ZM3.85433 18.8343C3.85433 19.3857 3.91849 19.7482 4.04589 20.0035C4.15149 20.2151 4.30993 20.3769 4.59923 20.5737L4.61574 20.5848C4.67923 20.6276 4.74917 20.6724 4.83431 20.725L4.9347 20.7864L5.24299 20.9723L4.80082 21.7024L4.45576 21.4943L4.39777 21.4587C4.298 21.3972 4.2153 21.3443 4.13817 21.2924C3.31366 20.7372 3.00616 20.1319 3.00009 18.8726L3 18.8343H3.85433ZM11.1958 8.92647C11.1563 8.94002 11.1192 8.95573 11.0854 8.97354L5.65772 11.8369C5.65202 11.8399 5.64659 11.8429 5.64142 11.8458L5.63682 11.8485L5.64535 11.8534L5.65772 11.86L11.0854 14.7234C11.1192 14.7412 11.1563 14.7569 11.1958 14.7705V8.92647ZM12.0502 8.92647V14.7705C12.0897 14.7569 12.1268 14.7412 12.1606 14.7234L17.5883 11.86C17.594 11.8571 17.5994 11.8541 17.6046 11.8511L17.6092 11.8485L17.6007 11.8436L17.5883 11.8369L12.1606 8.97354C12.1268 8.95573 12.0897 8.94002 12.0502 8.92647ZM17.6659 5.77554L12.7969 8.34418L17.6659 10.9128V5.77554ZM5.59143 5.78155V10.9068L10.4491 8.34418L5.59143 5.78155ZM12.1606 1.96499C11.8784 1.81609 11.3677 1.81609 11.0854 1.96499L5.65772 4.82833C5.65202 4.83135 5.64659 4.83431 5.64142 4.83727L5.63682 4.83991L5.64535 4.84478L5.65772 4.85149L11.0854 7.71482C11.3677 7.86375 11.8784 7.86375 12.1606 7.71482L17.5883 4.85149C17.594 4.84848 17.5994 4.84552 17.6046 4.84259L17.6092 4.83991L17.6007 4.83505L17.5883 4.82833L12.1606 1.96499ZM18.468 2.27899L18.813 2.48714L18.871 2.5227C18.9708 2.58421 19.0535 2.63706 19.1306 2.689C19.9551 3.24421 20.2626 3.84953 20.2687 5.10876L20.2688 5.14712H19.4145C19.4145 4.59565 19.3503 4.23323 19.2229 3.97787C19.1173 3.76625 18.9589 3.60451 18.6696 3.40771L18.653 3.39653C18.5896 3.35378 18.5196 3.30899 18.4345 3.25636L18.3341 3.19494L18.0258 3.00912L18.468 2.27899Z" fill="white"/>
</svg>
