<svg width="24" height="24" viewBox="0 0 24 24" fill="none" xmlns="http://www.w3.org/2000/svg">
<g clip-path="url(#clip0_4155_4256)">
<path d="M7.05418 13.6654C7.7439 13.6654 8.41679 13.4355 8.96072 13.0149L4.58689 8.64111C3.53268 10.0037 3.78502 11.9663 5.14764 13.0206C5.69717 13.4355 6.36446 13.6654 7.05418 13.6654Z" fill="white"/>
<path d="M20.0636 10.542C20.0636 9.85232 19.8337 9.17942 19.4131 8.6355L15.0393 13.0093C16.4019 14.0635 18.3589 13.8112 19.4131 12.4486C19.8337 11.9047 20.0636 11.2318 20.0636 10.542Z" fill="white"/>
<path d="M22.2673 5.78125L20.3327 7.71583C21.8916 9.58312 21.6449 12.3644 19.7776 13.9233C18.1402 15.2915 15.7626 15.2915 14.1252 13.9233L12 16.0485L9.88037 13.9289C8.01308 15.4878 5.23178 15.2411 3.6729 13.3738C2.30467 11.7364 2.30467 9.35882 3.6729 7.72144L2.68037 6.72891L1.73832 5.78125C0.6 7.65415 0 9.80742 0 11.9999C0 18.628 5.37196 23.9999 12 23.9999C18.628 23.9999 24 18.628 24 11.9999C24.0056 9.80742 23.4 7.65415 22.2673 5.78125Z" fill="white"/>
<path d="M20.6804 3.71769C16.1103 -1.0767 8.51777 -1.25614 3.72338 3.31395C3.58319 3.44853 3.44861 3.58311 3.31964 3.71769C3.02244 4.03171 2.74207 4.35694 2.47852 4.699L12 14.2261L21.5215 4.699C21.2636 4.35694 20.9776 4.03171 20.6804 3.71769ZM12 1.57002C14.8037 1.57002 17.4168 2.65227 19.3795 4.6261L12 12.0055L4.62057 4.6261C6.58319 2.65227 9.19627 1.57002 12 1.57002Z" fill="white"/>
</g>
<defs>
<clipPath id="clip0_4155_4256">
<rect width="24" height="24" fill="white"/>
</clipPath>
</defs>
</svg>
