<svg width="24" height="24" viewBox="0 0 24 24" fill="none" xmlns="http://www.w3.org/2000/svg">
<path d="M17.2724 2.7273C16.7477 2.72701 16.2281 2.83015 15.7433 3.03081C15.2585 3.23148 14.8179 3.52573 14.4469 3.89675C13.6958 4.64724 13.2725 5.66475 13.2698 6.72657V11.1611C12.8472 11.1904 12.4237 11.2053 12 11.2058C11.5637 11.2058 11.1437 11.2244 10.7291 11.2495V6.72548C10.7129 5.67314 10.2843 4.66919 9.53566 3.92948C8.78783 3.19145 7.77943 2.77764 6.72875 2.77764C5.67807 2.77764 4.66966 3.19145 3.92184 3.92948C3.17251 4.66928 2.74356 5.67369 2.72729 6.72657V17.3247C2.74413 18.3769 3.17303 19.3804 3.92184 20.1197C4.66966 20.8577 5.67807 21.2715 6.72875 21.2715C7.77943 21.2715 8.78783 20.8577 9.53566 20.1197C10.2845 19.3804 10.7134 18.3769 10.7302 17.3247V12.8902C11.1415 12.8618 11.5637 12.8444 12 12.8444C12.4364 12.8444 12.8564 12.8269 13.2709 12.8029V17.3247C13.2875 18.3767 13.716 19.3802 14.4644 20.1197C15.2122 20.8577 16.2206 21.2715 17.2713 21.2715C18.322 21.2715 19.3304 20.8577 20.0782 20.1197C20.827 19.3804 21.2559 18.3769 21.2727 17.3247V6.72657C21.2703 5.6649 20.8475 4.64742 20.0967 3.89675C19.7257 3.52573 19.2852 3.23148 18.8004 3.03081C18.3156 2.83015 17.796 2.72701 17.2713 2.7273H17.2724ZM6.72766 4.36584C7.03743 4.36565 7.3442 4.42655 7.63041 4.54504C7.91663 4.66353 8.17667 4.83729 8.39566 5.05639C8.83857 5.4993 9.08729 6.0993 9.08948 6.72657V11.4218C7.91848 11.5921 6.77513 11.9163 5.68911 12.3862C5.21893 12.5935 4.77602 12.8586 4.3702 13.1749V6.72657C4.37239 6.10039 4.62111 5.50039 5.06293 5.05748C5.50423 4.61539 6.10301 4.36662 6.72766 4.36584ZM9.08948 17.3247C9.08948 17.952 8.84075 18.5553 8.39784 18.9993C8.06783 19.3312 7.64655 19.5573 7.18761 19.649C6.72867 19.7407 6.25282 19.6938 5.82062 19.5143C5.38842 19.3347 5.0194 19.0307 4.76054 18.6408C4.50167 18.2509 4.36466 17.7928 4.36693 17.3247V16.2611C4.36693 15.3229 5.10875 14.4327 6.35239 13.8786C7.22832 13.4996 8.1476 13.2299 9.08948 13.0757V17.3247ZM17.2713 19.6855C16.9617 19.6855 16.6551 19.6246 16.3691 19.5061C16.0831 19.3876 15.8232 19.2139 15.6044 18.9949C15.1615 18.5518 14.912 17.9513 14.9106 17.3247V12.6284C16.0815 12.4585 17.2249 12.1346 18.3109 11.6651C18.7811 11.4578 19.224 11.1927 19.6298 10.8753V17.3247C19.6284 17.9508 19.3793 18.5508 18.9371 18.9938C18.4958 19.4359 17.897 19.6847 17.2724 19.6855H17.2713ZM17.6477 10.1662C16.7717 10.5447 15.852 10.8142 14.9106 10.9691V6.72657C14.9106 6.0982 15.1593 5.49602 15.6022 5.05202C15.8212 4.83231 16.0814 4.65799 16.3679 4.53904C16.6544 4.4201 16.9616 4.35887 17.2718 4.35887C17.5821 4.35887 17.8892 4.4201 18.1757 4.53904C18.4623 4.65799 18.7225 4.83231 18.9415 5.05202C19.3844 5.49602 19.6331 6.0993 19.6331 6.72657V7.78911C19.6331 8.72511 18.8913 9.6142 17.6477 10.1662Z" fill="white"/>
</svg>
