<svg width="24" height="24" viewBox="0 0 24 24" fill="none" xmlns="http://www.w3.org/2000/svg">
<path d="M21.7141 5.71803C21.3831 5.45703 20.9884 5.10055 20.2691 5.01143C19.5943 4.92231 18.9068 5.37428 18.4421 5.67347C17.9774 5.97266 17.099 6.85113 16.7361 7.11849C16.3733 7.38585 15.4439 7.63412 13.9479 8.53169C12.452 9.42926 6.58275 13.1978 6.58275 13.1978L8.11053 13.2169L1.29919 16.7244H1.98032L1 17.4692C1 17.4692 1.86574 17.6984 2.59144 17.24V17.4501C2.59144 17.4501 10.7014 14.2545 12.2674 15.082L11.3125 15.3621C11.3953 15.3621 12.9358 15.464 12.9358 15.464C12.9732 15.783 13.0804 16.0898 13.2498 16.3627C13.4193 16.6355 13.6467 16.8677 13.9161 17.0427C14.8455 17.6538 14.8646 17.9912 14.8646 17.9912C14.8646 17.9912 14.3808 18.1885 14.3808 18.4368C14.3808 18.4368 15.0938 18.2203 15.7558 18.2394C16.176 18.2554 16.5927 18.3216 16.9971 18.4368C16.9971 18.4368 16.9462 18.1694 16.3032 17.9912C15.6603 17.8129 15.0237 17.1127 14.7118 16.7308C14.5207 16.4876 14.3962 16.199 14.3505 15.8932C14.3047 15.5874 14.3393 15.2749 14.4508 14.9865C14.6736 14.4073 15.4502 14.089 17.0544 13.2614C18.945 12.2811 19.3779 11.5554 19.6453 10.9889C19.9126 10.4223 20.3073 9.29557 20.5301 8.76722C20.8102 8.08608 21.1539 7.72324 21.4404 7.5068C21.7269 7.29037 23 6.81294 23 6.81294C23 6.81294 22.026 5.96629 21.7141 5.71803Z" fill="white"/>
</svg>
