<svg width="24" height="24" viewBox="0 0 24 24" fill="none" xmlns="http://www.w3.org/2000/svg">
<g clip-path="url(#clip0_4148_1200)">
<path d="M14.2419 1.91992C12.2912 1.92069 10.4207 2.69624 9.04175 4.07601C7.66281 5.45579 6.88838 7.32678 6.88879 9.27748C6.88879 9.28264 6.88879 9.28756 6.88879 9.29284V9.30484C6.89404 9.39725 6.93449 9.48413 7.00183 9.54763C7.06917 9.61113 7.15828 9.64642 7.25084 9.64624H21.2329C21.3254 9.64642 21.4145 9.61113 21.4818 9.54762C21.5491 9.48412 21.5896 9.39724 21.5948 9.30484L21.5954 9.29284C21.5954 9.28756 21.5954 9.28264 21.5954 9.27748C21.5958 7.32671 20.8213 5.45567 19.4423 4.07589C18.0633 2.6961 16.1927 1.92059 14.2419 1.91992Z" fill="white"/>
<path d="M2.02045 17.4923C2.02038 17.5808 1.99407 17.6672 1.94486 17.7408C1.89566 17.8143 1.82576 17.8716 1.74399 17.9054C1.66223 17.9392 1.57227 17.9481 1.4855 17.9308C1.39872 17.9135 1.31902 17.8708 1.25647 17.8082C1.19392 17.7457 1.15132 17.6659 1.13407 17.5792C1.11682 17.4924 1.12569 17.4024 1.15955 17.3207C1.19342 17.2389 1.25075 17.169 1.32431 17.1199C1.39788 17.0707 1.48436 17.0445 1.57285 17.0444C1.63165 17.0444 1.68987 17.056 1.7442 17.0785C1.79852 17.101 1.84787 17.134 1.88944 17.1756C1.931 17.2172 1.96396 17.2666 1.98644 17.3209C2.00892 17.3752 2.02048 17.4335 2.02045 17.4923Z" fill="white"/>
<path d="M20.7465 15.0151H5.74374C5.66742 15.0152 5.59243 15.0351 5.52609 15.0729C5.45976 15.1106 5.40435 15.165 5.36528 15.2305C5.32621 15.2961 5.30482 15.3707 5.3032 15.447C5.30158 15.5233 5.31978 15.5987 5.35602 15.6659C5.35842 15.6706 5.36094 15.6753 5.36346 15.6798C5.40125 15.7497 5.45725 15.8081 5.52553 15.8488C5.59382 15.8894 5.67184 15.9108 5.7513 15.9107H20.7393C20.8188 15.9108 20.8968 15.8894 20.9651 15.8487C21.0333 15.8081 21.0893 15.7497 21.1271 15.6798L21.1346 15.6659C21.1708 15.5987 21.189 15.5232 21.1873 15.4469C21.1857 15.3706 21.1642 15.296 21.1251 15.2304C21.086 15.1649 21.0306 15.1106 20.9642 15.0728C20.8979 15.0351 20.8228 15.0152 20.7465 15.0151Z" fill="white"/>
<path d="M22.74 10.9558H5.74347C5.68347 10.956 5.62414 10.9683 5.56908 10.9922C5.51402 11.016 5.4644 11.0508 5.42323 11.0945C5.38207 11.1381 5.35022 11.1897 5.32965 11.246C5.30907 11.3024 5.30019 11.3623 5.30355 11.4222C5.30355 11.4269 5.30355 11.4316 5.30427 11.4363C5.31059 11.5486 5.35974 11.6543 5.4416 11.7315C5.52345 11.8087 5.63178 11.8516 5.74431 11.8514H22.74C22.8525 11.8516 22.9609 11.8087 23.0427 11.7315C23.1246 11.6543 23.1737 11.5486 23.1801 11.4363C23.1801 11.4316 23.1801 11.4269 23.1808 11.4222C23.1841 11.3623 23.1752 11.3022 23.1546 11.2458C23.134 11.1894 23.1021 11.1378 23.0608 11.0942C23.0196 11.0505 22.9698 11.0157 22.9147 10.9919C22.8595 10.9681 22.8001 10.9558 22.74 10.9558Z" fill="white"/>
<path d="M16.3405 21.1035H8.68056C8.58119 21.1036 8.48474 21.1372 8.40686 21.1989C8.32897 21.2606 8.27421 21.3468 8.25146 21.4435C8.22871 21.5403 8.2393 21.6419 8.2815 21.7318C8.32371 21.8218 8.39507 21.8949 8.484 21.9392L8.51208 21.9532C8.57311 21.9836 8.64037 21.9993 8.70852 21.9991H16.3122C16.3804 21.9993 16.4477 21.9836 16.5088 21.9532L16.5367 21.9392C16.6256 21.8949 16.697 21.8218 16.7392 21.7319C16.7814 21.642 16.792 21.5404 16.7693 21.4437C16.7466 21.347 16.6919 21.2608 16.6141 21.199C16.5363 21.1373 16.4399 21.1036 16.3405 21.1035Z" fill="white"/>
<path d="M21.0203 19.074H13.3606C13.2613 19.0742 13.165 19.1078 13.0872 19.1696C13.0094 19.2313 12.9547 19.3175 12.932 19.4142C12.9093 19.5108 12.9198 19.6123 12.962 19.7023C13.0041 19.7922 13.0753 19.8652 13.1642 19.9097L13.1921 19.9237C13.2532 19.954 13.3205 19.9696 13.3887 19.9694H20.9919C21.0601 19.9696 21.1273 19.954 21.1884 19.9237L21.2164 19.9097C21.3052 19.8653 21.3764 19.7922 21.4186 19.7023C21.4607 19.6124 21.4713 19.511 21.4486 19.4143C21.4259 19.3177 21.3713 19.2315 21.2936 19.1697C21.2159 19.108 21.1196 19.0742 21.0203 19.074Z" fill="white"/>
<path d="M10.5757 17.7991L10.5628 17.7852C10.5044 17.7223 10.4657 17.6437 10.4513 17.5592C10.4369 17.4746 10.4476 17.3876 10.4819 17.309C10.5162 17.2303 10.5727 17.1634 10.6445 17.1164C10.7163 17.0694 10.8002 17.0444 10.886 17.0444H23.318C23.4038 17.0444 23.4878 17.0694 23.5596 17.1164C23.6314 17.1634 23.6879 17.2303 23.7222 17.309C23.7565 17.3876 23.7672 17.4746 23.7528 17.5592C23.7384 17.6437 23.6997 17.7223 23.6413 17.7852L23.6284 17.7991C23.587 17.8434 23.5369 17.8788 23.4814 17.903C23.4258 17.9272 23.3658 17.9398 23.3052 17.94H10.8989C10.8383 17.9398 10.7783 17.9272 10.7227 17.903C10.6671 17.8788 10.6171 17.8434 10.5757 17.7991Z" fill="white"/>
<path d="M3.17128 17.0444H9.10792C9.20722 17.0446 9.30356 17.0783 9.38134 17.14C9.45912 17.2018 9.51379 17.2879 9.53652 17.3846C9.55924 17.4813 9.54869 17.5828 9.50655 17.6727C9.46442 17.7626 9.39318 17.8357 9.30436 17.8801L9.2764 17.8942C9.21537 17.9245 9.14811 17.9402 9.07996 17.94H3.19996C3.13176 17.9402 3.06447 17.9245 3.0034 17.8942L2.97544 17.8801C2.88666 17.8357 2.81545 17.7627 2.77331 17.6728C2.73116 17.583 2.72056 17.4815 2.7432 17.3849C2.76585 17.2883 2.82042 17.2021 2.8981 17.1403C2.97578 17.0785 3.07203 17.0448 3.17128 17.0444Z" fill="white"/>
<path d="M4.59259 11.4035C4.59254 11.492 4.56626 11.5785 4.51707 11.6521C4.46788 11.7256 4.39797 11.7829 4.31621 11.8168C4.23445 11.8506 4.14449 11.8594 4.05771 11.8422C3.97093 11.8249 3.89121 11.7822 3.82865 11.7197C3.76609 11.6571 3.72349 11.5774 3.70623 11.4906C3.68897 11.4038 3.69782 11.3138 3.73168 11.2321C3.76554 11.1503 3.82287 11.0804 3.89644 11.0313C3.97001 10.9821 4.05651 10.9558 4.14499 10.9558C4.20378 10.9558 4.26199 10.9674 4.31631 10.9899C4.37062 11.0124 4.41997 11.0454 4.46153 11.087C4.5031 11.1285 4.53607 11.1779 4.55855 11.2322C4.58104 11.2865 4.59261 11.3447 4.59259 11.4035Z" fill="white"/>
<path d="M15.142 13.5542C15.1432 13.5496 15.1444 13.5448 15.1457 13.5402C15.1632 13.4749 15.1654 13.4065 15.1522 13.3402C15.139 13.2739 15.1107 13.2115 15.0695 13.1579C15.0284 13.1043 14.9754 13.0608 14.9148 13.031C14.8541 13.0011 14.7874 12.9856 14.7198 12.9856H2.28589C2.21828 12.9855 2.15156 13.001 2.0909 13.0309C2.03024 13.0608 1.97726 13.1042 1.93609 13.1578C1.89491 13.2115 1.86663 13.2738 1.85344 13.3402C1.84025 13.4065 1.84249 13.4749 1.86001 13.5402C1.86121 13.5448 1.86253 13.5496 1.86385 13.5542C1.88906 13.6478 1.94441 13.7306 2.02133 13.7896C2.09826 13.8487 2.19249 13.8808 2.28949 13.881H14.7162C14.8132 13.8808 14.9075 13.8487 14.9844 13.7896C15.0613 13.7306 15.1167 13.6478 15.142 13.5542Z" fill="white"/>
<path d="M1.13483 13.4333C1.13478 13.5218 1.1085 13.6083 1.0593 13.6819C1.0101 13.7554 0.940196 13.8127 0.858425 13.8466C0.776655 13.8804 0.686689 13.8892 0.599902 13.8719C0.513115 13.8546 0.433402 13.812 0.370844 13.7494C0.308287 13.6868 0.265696 13.6071 0.248449 13.5203C0.231203 13.4335 0.240077 13.3435 0.273952 13.2618C0.307828 13.18 0.365179 13.1102 0.438762 13.061C0.512344 13.0118 0.598853 12.9856 0.687346 12.9856C0.806047 12.9857 0.919862 13.0329 1.00377 13.1168C1.08769 13.2008 1.13483 13.3146 1.13483 13.4333Z" fill="white"/>
<path d="M4.59259 15.4629C4.59254 15.5513 4.56626 15.6378 4.51707 15.7114C4.46788 15.7849 4.39797 15.8423 4.31621 15.8761C4.23445 15.9099 4.14449 15.9188 4.05771 15.9015C3.97093 15.8842 3.89121 15.8416 3.82865 15.779C3.76609 15.7164 3.72349 15.6367 3.70623 15.5499C3.68897 15.4631 3.69782 15.3732 3.73168 15.2914C3.76554 15.2097 3.82287 15.1398 3.89644 15.0906C3.97001 15.0414 4.05651 15.0152 4.14499 15.0151C4.26371 15.0152 4.37756 15.0624 4.4615 15.1463C4.54544 15.2303 4.59259 15.3441 4.59259 15.4629Z" fill="white"/>
<path d="M12.2098 19.5219C12.2097 19.6104 12.1835 19.6969 12.1343 19.7705C12.0851 19.844 12.0152 19.9013 11.9334 19.9352C11.8516 19.969 11.7617 19.9778 11.6749 19.9606C11.5881 19.9433 11.5084 19.9006 11.4458 19.8381C11.3833 19.7755 11.3407 19.6958 11.3234 19.609C11.3062 19.5222 11.315 19.4322 11.3489 19.3505C11.3827 19.2687 11.4401 19.1988 11.5136 19.1497C11.5872 19.1005 11.6737 19.0742 11.7622 19.0742C11.821 19.0742 11.8792 19.0858 11.9335 19.1083C11.9878 19.1308 12.0372 19.1638 12.0787 19.2054C12.1203 19.2469 12.1533 19.2963 12.1757 19.3506C12.1982 19.4049 12.2098 19.4631 12.2098 19.5219Z" fill="white"/>
<path d="M7.52948 21.5515C7.52943 21.64 7.50315 21.7265 7.45395 21.8C7.40475 21.8736 7.33485 21.9309 7.25308 21.9647C7.17131 21.9986 7.08134 22.0074 6.99456 21.9901C6.90777 21.9728 6.82806 21.9302 6.7655 21.8676C6.70294 21.805 6.66035 21.7253 6.6431 21.6385C6.62586 21.5517 6.63473 21.4617 6.66861 21.3799C6.70248 21.2982 6.75984 21.2283 6.83342 21.1792C6.90701 21.13 6.99351 21.1038 7.082 21.1038C7.14078 21.1038 7.19898 21.1154 7.25328 21.1379C7.30758 21.1604 7.35692 21.1934 7.39847 21.2349C7.44002 21.2765 7.47298 21.3259 7.49546 21.3802C7.51794 21.4345 7.5295 21.4927 7.52948 21.5515Z" fill="white"/>
</g>
<defs>
<clipPath id="clip0_4148_1200">
<rect width="24" height="24" fill="white"/>
</clipPath>
</defs>
</svg>
