<svg width="24" height="24" viewBox="0 0 24 24" fill="none" xmlns="http://www.w3.org/2000/svg">
<path d="M16.8611 8.60731C16.5208 8.40003 16.0833 8.40003 15.6939 8.60731L12.972 10.3168L11.1251 11.4044L8.45131 13.1139C8.11094 13.3211 7.67349 13.3211 7.28403 13.1139L5.19385 11.7666C5.01275 11.6492 4.86427 11.4879 4.76222 11.2978C4.66018 11.1076 4.60789 10.8947 4.61021 10.6789V8.08913C4.61021 7.67458 4.80549 7.26003 5.19385 7.00149L7.28403 5.70658C7.6244 5.49931 8.06185 5.49931 8.45131 5.70658L10.5415 7.05385C10.8819 7.26113 11.1251 7.67567 11.1251 8.14149V9.85094L12.972 8.71094V6.95022C12.972 6.53567 12.7779 6.12113 12.3884 5.86258L8.49931 3.42767C8.15894 3.2204 7.72149 3.2204 7.33203 3.42767L3.34694 5.91494C2.95749 6.12222 2.76331 6.53676 2.76331 6.95022V11.8189C2.76331 12.2335 2.95749 12.648 3.34694 12.9066L7.28512 15.3404C7.6244 15.5477 8.06185 15.5477 8.45131 15.3404L11.124 13.6833L12.972 12.5444L15.6448 10.8862C15.9862 10.6789 16.4237 10.6789 16.812 10.8862L18.9022 12.1811C19.2426 12.3884 19.4859 12.8029 19.4859 13.2688V15.8586C19.4859 16.2731 19.2917 16.6877 18.9022 16.9462L16.8611 18.2411C16.5208 18.4484 16.0833 18.4484 15.6939 18.2411L13.6037 16.9462C13.4226 16.8288 13.2741 16.6676 13.172 16.4774C13.07 16.2873 13.0177 16.0744 13.02 15.8586V14.2004L11.1731 15.3404V17.0499C11.1731 17.4644 11.3673 17.8789 11.7568 18.1375L15.6949 20.5724C16.0342 20.7797 16.4717 20.7797 16.8611 20.5724L20.7993 18.1375C21.1386 17.9302 21.3819 17.5157 21.3819 17.0499V12.1299C21.3819 11.7153 21.1877 11.3008 20.7982 11.0422L16.86 8.60731H16.8611Z" fill="white"/>
</svg>
