<svg width="24" height="24" viewBox="0 0 24 24" fill="none" xmlns="http://www.w3.org/2000/svg">
<g clip-path="url(#clip0_4075_10632)">
<path d="M14.3688 24C12.6586 24 11.4104 23.5875 10.6241 22.7625C9.89564 22.0641 9.47293 21.1054 9.44833 20.0958C9.43948 19.7891 9.51046 19.4854 9.65429 19.2145C9.78845 18.9804 9.98225 18.7861 10.2159 18.6516C10.4875 18.516 10.7868 18.4454 11.0903 18.4454C11.3938 18.4454 11.6931 18.516 11.9647 18.6516C12.1979 18.7856 12.3908 18.98 12.5231 19.2145C12.6711 19.4841 12.7447 19.7883 12.7364 20.0958C12.7517 20.4631 12.6465 20.8253 12.4369 21.1271C12.2622 21.3734 12.0125 21.5564 11.7252 21.6487C12.0061 22.0069 12.4036 22.2551 12.8485 22.35C13.3463 22.4947 13.8617 22.5692 14.38 22.5712C15.0662 22.5771 15.7383 22.3759 16.3086 21.9937C16.9002 21.5751 17.3414 20.9768 17.5667 20.2875C17.8525 19.467 17.9919 18.6026 17.9787 17.7338C18.0017 16.828 17.8491 15.9263 17.5293 15.0787C17.2887 14.4008 16.8321 13.821 16.2299 13.4287C15.6701 13.074 15.0203 12.8878 14.3579 12.8925C13.7807 12.9415 13.2241 13.1307 12.7364 13.4438L11.5341 14.0475V13.4438L16.9376 6.18456H9.44833V13.7175C9.42717 14.2611 9.57077 14.7984 9.86025 15.2588C10.0003 15.4594 10.1897 15.6203 10.4101 15.7261C10.6306 15.8319 10.8745 15.8788 11.1184 15.8624C11.569 15.8533 12.0048 15.6995 12.3615 15.4237C12.7659 15.1269 13.1178 14.7644 13.4026 14.3512C13.4282 14.2787 13.4755 14.2159 13.538 14.1713C13.5882 14.1279 13.6522 14.1039 13.7185 14.1038C13.8486 14.1157 13.9718 14.1681 14.0706 14.2537C14.1957 14.3938 14.2639 14.5758 14.2615 14.7637C14.247 14.89 14.2245 15.0153 14.1941 15.1387C13.928 15.7835 13.4821 16.338 12.9096 16.7357C12.3779 17.096 11.7499 17.287 11.1079 17.2838C9.4864 17.2838 8.36308 16.9638 7.73793 16.3238C7.41661 15.97 7.16897 15.5557 7.00951 15.1049C6.85004 14.6542 6.78196 14.1761 6.80924 13.6987V6.18456H3V4.78493H6.827V1.59367L5.95081 0.715631V0H8.49331L9.44833 0.495066V4.78493L19.3415 4.7548L20.3265 5.74478L14.2601 11.8493C14.6266 11.7017 15.0126 11.6083 15.4059 11.5718C16.1844 11.606 16.944 11.8231 17.6232 12.2057C18.4097 12.58 19.0725 13.1724 19.5331 13.9125C19.9457 14.539 20.2378 15.2372 20.3943 15.9712C20.523 16.5502 20.592 17.1409 20.6003 17.7339C20.6043 18.8658 20.3481 19.9834 19.8514 21.0001C19.3804 21.9846 18.5876 22.7785 17.6045 23.2502C16.5981 23.7468 15.4907 24.0034 14.3688 24Z" fill="white"/>
</g>
<defs>
<clipPath id="clip0_4075_10632">
<rect width="24" height="24" fill="white"/>
</clipPath>
</defs>
</svg>
