<svg width="24" height="24" viewBox="0 0 24 24" fill="none" xmlns="http://www.w3.org/2000/svg">
<g clip-path="url(#clip0_3110_5762)">
<path fill-rule="evenodd" clip-rule="evenodd" d="M24 14.099H21.636L19.9593 12.6623L18.288 14.0925H16.2895L15.3349 12.9328H12.0436L12.8771 11.903H14.496L13.2633 10.3954L8.95855 15.6361H6.96L8.20582 14.1143H6.12545L4.99964 10.9605L3.88364 14.0914H1.77273L0 9.17684H1.62L2.81236 12.5227L4.00036 9.19102H6L7.18473 12.515L8.36945 9.18993H9.99491L8.20582 14.1143L8.604 13.6277L12.2564 9.18229H14.2658L17.3051 12.8914L18.7669 11.6336L14.1404 7.63647H16.5153L24 14.099ZM21.6545 11.1263L20.5396 10.1707L21.6524 9.22157L23.9029 9.22484L21.6545 11.1263Z" fill="white"/>
</g>
<defs>
<clipPath id="clip0_3110_5762">
<rect width="24" height="24" fill="white"/>
</clipPath>
</defs>
</svg>
