<svg width="212" height="212" fill="none" xmlns="http://www.w3.org/2000/svg"><circle cx="106" cy="106" r="106" fill="#1E2121"/><path d="M110.87 48.84a2.27 2.27 0 0 1 2.26-2.27h43.52a2.27 2.27 0 0 1 2.26 2.27v53.12a2.27 2.27 0 0 1-2.26 2.27h-43.52a2.27 2.27 0 0 1-2.26-2.27V48.84Z" fill="#fff"/><circle cx="126.11" cy="61.32" r="8.48" fill="#51EEDA"/><circle cx="136.49" cy="68.5" r="10.38" fill="url(#a)"/><circle cx="146.86" cy="75.31" r="5.29" fill="#4AFEBF"/><path fill-rule="evenodd" clip-rule="evenodd" d="M118.2 86.58c0-.31.25-.56.55-.56h32.27a.55.55 0 1 1 0 1.1h-32.27a.55.55 0 0 1-.55-.54ZM118.2 91.22c0-.3.25-.55.55-.55h32.27a.55.55 0 1 1 0 1.1h-32.27a.55.55 0 0 1-.55-.55ZM118.2 96.3c0-.31.25-.56.55-.56h32.27a.55.55 0 1 1 0 1.1h-32.27a.55.55 0 0 1-.55-.55Z" fill="#1E2121"/><path d="M57.87 48.84a2.27 2.27 0 0 1 2.26-2.27h43.52a2.27 2.27 0 0 1 2.26 2.27v53.12a2.27 2.27 0 0 1-2.26 2.27H60.13a2.27 2.27 0 0 1-2.26-2.27V48.84Z" fill="#fff"/><circle cx="73.11" cy="61.32" r="8.48" fill="#51EEDA"/><circle cx="83.49" cy="68.5" r="10.38" fill="url(#b)"/><circle cx="93.86" cy="75.31" r="5.29" fill="#4AFEBF"/><path fill-rule="evenodd" clip-rule="evenodd" d="M65.2 86.58c0-.31.25-.56.56-.56h32.26a.55.55 0 0 1 0 1.1H65.76a.55.55 0 0 1-.56-.54ZM65.2 91.22c0-.3.25-.55.56-.55h32.26a.55.55 0 0 1 0 1.1H65.76a.55.55 0 0 1-.56-.55ZM65.2 96.3c0-.31.25-.56.56-.56h32.26a.55.55 0 1 1 0 1.1H65.76a.55.55 0 0 1-.56-.55Z" fill="#1E2121"/><path d="M110.87 111.02a2.27 2.27 0 0 1 2.26-2.26h43.52a2.27 2.27 0 0 1 2.26 2.26v53.13a2.27 2.27 0 0 1-2.26 2.26h-43.52a2.27 2.27 0 0 1-2.26-2.26v-53.13Z" fill="#fff"/><circle cx="126.11" cy="123.5" r="8.48" fill="#51EEDA"/><circle cx="136.49" cy="130.69" r="10.38" fill="url(#c)"/><circle cx="146.86" cy="137.5" r="5.29" fill="#4AFEBF"/><path fill-rule="evenodd" clip-rule="evenodd" d="M118.2 148.76c0-.3.25-.55.55-.55h32.27a.55.55 0 1 1 0 1.1h-32.27a.55.55 0 0 1-.55-.55ZM118.2 153.4c0-.3.25-.55.55-.55h32.27a.55.55 0 1 1 0 1.1h-32.27a.55.55 0 0 1-.55-.54ZM118.2 158.47c0-.3.25-.55.55-.55h32.27a.55.55 0 1 1 0 1.1h-32.27a.55.55 0 0 1-.55-.55Z" fill="#1E2121"/><path d="M57.87 111.02a2.27 2.27 0 0 1 2.26-2.26h43.52a2.27 2.27 0 0 1 2.26 2.26v53.13a2.27 2.27 0 0 1-2.26 2.26H60.13a2.27 2.27 0 0 1-2.26-2.26v-53.13Z" fill="#fff"/><circle cx="73.11" cy="123.5" r="8.48" fill="#51EEDA"/><circle cx="83.49" cy="130.69" r="10.38" fill="url(#d)"/><circle cx="93.86" cy="137.5" r="5.29" fill="#4AFEBF"/><path fill-rule="evenodd" clip-rule="evenodd" d="M65.2 148.76c0-.3.25-.55.56-.55h32.26a.55.55 0 1 1 0 1.1H65.76a.55.55 0 0 1-.56-.55ZM65.2 153.4c0-.3.25-.55.56-.55h32.26a.55.55 0 1 1 0 1.1H65.76a.55.55 0 0 1-.56-.54ZM65.2 158.47c0-.3.25-.55.56-.55h32.26a.55.55 0 1 1 0 1.1H65.76a.55.55 0 0 1-.56-.55Z" fill="#1E2121"/><g filter="url(#e)"><path d="m39.47 138.85 9.93-13.88a5.84 5.84 0 0 1 9.97 1.39 5.85 5.85 0 0 1 9.46 1.95 5.85 5.85 0 0 1 9.43 1.9l11.98-13.79a5.84 5.84 0 0 1 9.18 7.24l-25.45 30.87 12.47.47a6.84 6.84 0 0 1 6.6 6c.3 2.51-1.5 4.8-4.02 5.1l-28.59 3.37c-4.45.53-8.84-.72-12.37-3.5l-5.33-4.2a16.75 16.75 0 0 1-3.26-22.92Z" fill="#F7A678"/></g><defs><linearGradient id="a" x1="136.49" y1="58.13" x2="136.49" y2="78.88" gradientUnits="userSpaceOnUse"><stop stop-color="#4AFEBF"/><stop offset="1" stop-color="#51EEDA"/></linearGradient><linearGradient id="b" x1="83.49" y1="58.13" x2="83.49" y2="78.88" gradientUnits="userSpaceOnUse"><stop stop-color="#4AFEBF"/><stop offset="1" stop-color="#51EEDA"/></linearGradient><linearGradient id="c" x1="136.49" y1="120.31" x2="136.49" y2="141.06" gradientUnits="userSpaceOnUse"><stop stop-color="#4AFEBF"/><stop offset="1" stop-color="#51EEDA"/></linearGradient><linearGradient id="d" x1="83.49" y1="120.31" x2="83.49" y2="141.06" gradientUnits="userSpaceOnUse"><stop stop-color="#4AFEBF"/><stop offset="1" stop-color="#51EEDA"/></linearGradient><filter id="e" x="26.35" y="108.21" width="84.32" height="75.38" filterUnits="userSpaceOnUse" color-interpolation-filters="sRGB"><feFlood flood-opacity="0" result="BackgroundImageFix"/><feColorMatrix in="SourceAlpha" values="0 0 0 0 0 0 0 0 0 0 0 0 0 0 0 0 0 0 127 0" result="hardAlpha"/><feOffset dy="4"/><feGaussianBlur stdDeviation="5"/><feColorMatrix values="0 0 0 0 0 0 0 0 0 0 0 0 0 0 0 0 0 0 0.5 0"/><feBlend in2="BackgroundImageFix" result="effect1_dropShadow_1231_4205"/><feBlend in="SourceGraphic" in2="effect1_dropShadow_1231_4205" result="shape"/></filter></defs></svg>