<svg width="213" height="212" viewBox="0 0 213 212" fill="none" xmlns="http://www.w3.org/2000/svg">
<path d="M212.512 106C212.512 164.542 165.054 212 106.512 212C47.9695 212 0.511719 164.542 0.511719 106C0.511719 47.4578 47.9695 0 106.512 0C165.054 0 212.512 47.4578 212.512 106Z" fill="#1E2121"/>
<path d="M42.7623 64.4406C42.4384 63.2316 43.1559 61.9889 44.3649 61.6649L86.3953 50.4029C87.6043 50.0789 88.847 50.7964 89.171 52.0054L102.92 103.318C103.244 104.527 102.527 105.769 101.318 106.093L59.2871 117.355C58.0781 117.679 56.8354 116.962 56.5114 115.753L42.7623 64.4406Z" fill="white"/>
<path d="M68.9022 70.3562C70.114 74.8788 67.4301 79.5275 62.9075 80.7393C58.3848 81.9512 53.7361 79.2672 52.5243 74.7446C51.3125 70.222 53.9964 65.5733 58.519 64.3614C63.0417 63.1496 67.6904 65.8335 68.9022 70.3562Z" fill="#51EEDA"/>
<path d="M82.6211 74.1181C84.1046 79.6543 80.8191 85.3448 75.2829 86.8283C69.7467 88.3117 64.0561 85.0263 62.5727 79.49C61.0893 73.9538 64.3747 68.2633 69.9109 66.7798C75.4472 65.2964 81.1377 68.5819 82.6211 74.1181Z" fill="url(#paint0_linear)"/>
<path d="M89.489 79.3284C90.2445 82.148 88.5712 85.0463 85.7515 85.8018C82.9319 86.5573 80.0337 84.884 79.2781 82.0644C78.5226 79.2448 80.1959 76.3465 83.0156 75.591C85.8352 74.8355 88.7334 76.5088 89.489 79.3284Z" fill="#4AFEBF"/>
<path fill-rule="evenodd" clip-rule="evenodd" d="M59.6137 98.9916C59.5347 98.6969 59.7096 98.394 60.0043 98.315L91.1727 89.9635C91.4674 89.8845 91.7703 90.0594 91.8493 90.3541C91.9283 90.6488 91.7534 90.9517 91.4587 91.0307L60.2903 99.3822C59.9956 99.4612 59.6926 99.2863 59.6137 98.9916Z" fill="#1E2121"/>
<path fill-rule="evenodd" clip-rule="evenodd" d="M60.8168 103.48C60.7378 103.185 60.9127 102.882 61.2074 102.803L92.3758 94.4518C92.6705 94.3728 92.9735 94.5477 93.0524 94.8424C93.1314 95.1371 92.9565 95.44 92.6618 95.519L61.4934 103.871C61.1987 103.949 60.8958 103.775 60.8168 103.48Z" fill="#1E2121"/>
<path fill-rule="evenodd" clip-rule="evenodd" d="M62.1293 108.376C62.0503 108.082 62.2252 107.779 62.5199 107.7L93.6883 99.3482C93.983 99.2693 94.286 99.4442 94.3649 99.7389C94.4439 100.034 94.269 100.336 93.9743 100.415L62.8059 108.767C62.5112 108.846 62.2083 108.671 62.1293 108.376Z" fill="#1E2121"/>
<path d="M122.761 32.2783C123.128 30.9078 124.537 30.0946 125.907 30.4618L173.55 43.2277C174.921 43.5949 175.734 45.0036 175.367 46.374L159.782 104.538C159.415 105.909 158.006 106.722 156.635 106.355L108.992 93.5889C107.622 93.2217 106.809 91.813 107.176 90.4426L122.761 32.2783Z" fill="white"/>
<path d="M145.07 52.901C143.696 58.0276 138.427 61.0699 133.3 59.6962C128.174 58.3226 125.131 53.0531 126.505 47.9265C127.879 42.7999 133.148 39.7576 138.275 41.1313C143.401 42.5049 146.444 47.7744 145.07 52.901Z" fill="#51EEDA"/>
<path d="M156.404 64.3691C154.722 70.6447 148.272 74.3688 141.996 72.6873C135.721 71.0058 131.996 64.5553 133.678 58.2798C135.36 52.0043 141.81 48.2801 148.085 49.9617C154.361 51.6432 158.085 58.0936 156.404 64.3691Z" fill="url(#paint1_linear)"/>
<path d="M160.194 73.3768C159.337 76.5729 156.052 78.4697 152.856 77.6133C149.66 76.7569 147.763 73.4716 148.619 70.2754C149.476 67.0793 152.761 65.1825 155.957 66.0389C159.153 66.8954 161.05 70.1806 160.194 73.3768Z" fill="#4AFEBF"/>
<path fill-rule="evenodd" clip-rule="evenodd" d="M119.723 75.7474C119.812 75.4134 120.156 75.2151 120.49 75.3047L155.82 84.7714C156.154 84.861 156.352 85.2043 156.263 85.5384C156.173 85.8724 155.83 86.0707 155.496 85.9812L120.165 76.5144C119.831 76.4249 119.633 76.0815 119.723 75.7474Z" fill="#1E2121"/>
<path fill-rule="evenodd" clip-rule="evenodd" d="M118.359 80.8353C118.449 80.5013 118.792 80.303 119.126 80.3925L154.457 89.8593C154.791 89.9488 154.989 90.2922 154.9 90.6263C154.81 90.9603 154.467 91.1586 154.133 91.0691L118.802 81.6023C118.468 81.5128 118.27 81.1694 118.359 80.8353Z" fill="#1E2121"/>
<path fill-rule="evenodd" clip-rule="evenodd" d="M116.871 86.3856C116.961 86.0516 117.304 85.8533 117.638 85.9428L152.969 95.4096C153.303 95.4991 153.501 95.8425 153.411 96.1766C153.322 96.5106 152.979 96.7089 152.644 96.6194L117.314 87.1526C116.98 87.0631 116.782 86.7197 116.871 86.3856Z" fill="#1E2121"/>
<path d="M55.1426 115.736C55.1426 113.754 56.7494 112.147 58.7315 112.147H153.882C155.865 112.147 157.471 113.754 157.471 115.736V167.775C157.471 169.757 155.865 171.364 153.882 171.364H58.7315C56.7494 171.364 55.1426 169.757 55.1426 167.775V115.736Z" fill="#51EEDA"/>
<path d="M182.893 79.2797C184.995 77.1774 188.403 77.1774 190.506 79.2797L191.524 80.2978C193.626 82.4001 193.626 85.8086 191.524 87.911L158.533 120.901C156.431 123.004 153.022 123.004 150.92 120.901L149.902 119.883C147.8 117.781 147.8 114.373 149.902 112.27L182.893 79.2797Z" fill="#51EEDA"/>
<path d="M30.1289 79.2797C28.0265 77.1774 24.618 77.1774 22.5157 79.2797L21.4976 80.2978C19.3953 82.4001 19.3953 85.8086 21.4976 87.911L54.4881 120.901C56.5905 123.004 59.999 123.004 62.1013 120.901L63.1193 119.883C65.2217 117.781 65.2217 114.373 63.1193 112.27L30.1289 79.2797Z" fill="#51EEDA"/>
<path fill-rule="evenodd" clip-rule="evenodd" d="M106.309 171.364L106.309 123.961C106.309 123.133 106.98 122.461 107.809 122.461C108.637 122.461 109.309 123.133 109.309 123.961L109.309 171.364L106.309 171.364Z" fill="white"/>
<defs>
<linearGradient id="paint0_linear" x1="69.9109" y1="66.7798" x2="75.2829" y2="86.8283" gradientUnits="userSpaceOnUse">
<stop stop-color="#4AFEBF"/>
<stop offset="1" stop-color="#51EEDA"/>
</linearGradient>
<linearGradient id="paint1_linear" x1="148.085" y1="49.9617" x2="141.996" y2="72.6873" gradientUnits="userSpaceOnUse">
<stop stop-color="#4AFEBF"/>
<stop offset="1" stop-color="#51EEDA"/>
</linearGradient>
</defs>
</svg>
