<svg width="213" height="213" viewBox="0 0 213 213" fill="none" xmlns="http://www.w3.org/2000/svg">
<path d="M212.711 106.5C212.711 165.042 165.253 212.5 106.711 212.5C48.1688 212.5 0.710938 165.042 0.710938 106.5C0.710938 47.9573 48.1688 0.499512 106.711 0.499512C165.253 0.499512 212.711 47.9573 212.711 106.5Z" fill="#1E2121"/>
<path fill-rule="evenodd" clip-rule="evenodd" d="M51.8004 67.1753C46.583 67.1753 42.3535 71.4048 42.3535 76.6222V139.208C42.3535 144.425 46.583 148.655 51.8004 148.655H161.621C166.838 148.655 171.067 144.425 171.067 139.208V76.6222C171.067 71.4048 166.838 67.1753 161.621 67.1753H51.8004Z" fill="white"/>
<path d="M163.982 90.3262C163.982 100.04 156.108 107.915 146.394 107.915C136.679 107.915 128.805 100.04 128.805 90.3262C128.805 80.6121 136.679 72.7373 146.394 72.7373C156.108 72.7373 163.982 80.6121 163.982 90.3262Z" fill="#4AFEBF"/>
<path d="M146.393 107.915C156.107 107.915 163.981 100.04 163.981 90.3262C163.981 80.6121 156.107 72.7373 146.393 72.7373V107.915Z" fill="#51EEDA"/>
<path d="M73.9282 107.011L48.8477 142.751H164.572L123.423 113.64C121.545 112.311 118.982 112.529 117.355 114.156L106.302 125.21C104.445 127.066 101.431 127.053 99.5914 125.179L81.1648 106.415C79.0964 104.308 75.6241 104.594 73.9282 107.011Z" fill="url(#paint0_linear)"/>
<path d="M115.449 51.916L122.094 55.7521L92.9392 106.249L83.4985 114.929L86.2949 102.413L115.449 51.916Z" fill="#E1E1E1"/>
<path d="M84.6387 109.826L83.4987 114.929L87.3474 111.39C87.3103 109.163 85.5262 109.42 84.6387 109.826Z" fill="#595656"/>
<path d="M115.449 51.9162C118.441 52.1521 119.953 52.8124 122.097 55.7542L92.8814 106.357C90.7372 104.075 89.3631 103.095 86.2338 102.519L115.449 51.9162Z" fill="#595656"/>
<defs>
<linearGradient id="paint0_linear" x1="106.71" y1="105" x2="106.71" y2="142.751" gradientUnits="userSpaceOnUse">
<stop stop-color="#4AFEBF"/>
<stop offset="1" stop-color="#51EEDA"/>
</linearGradient>
</defs>
</svg>
