<svg width="213" height="213" viewBox="0 0 213 213" fill="none" xmlns="http://www.w3.org/2000/svg">
<path d="M212.111 106.5C212.111 165.042 164.654 212.5 106.111 212.5C47.5691 212.5 0.111328 165.042 0.111328 106.5C0.111328 47.9573 47.5691 0.499512 106.111 0.499512C164.654 0.499512 212.111 47.9573 212.111 106.5Z" fill="#1E2121"/>
<path d="M36.834 83.9023C36.834 81.4497 38.8222 79.4614 41.2748 79.4614H101.67C104.123 79.4614 106.111 81.4497 106.111 83.9023V103.886C106.111 106.339 104.123 108.327 101.67 108.327H41.2748C38.8222 108.327 36.834 106.339 36.834 103.886V83.9023Z" fill="#4AFEBF"/>
<path d="M60.9119 99.4453C63.0222 99.4453 64.9246 98.646 64.9246 96.3918C64.9246 94.7451 63.7256 94.0417 62.9742 93.722V93.706C63.6776 93.3383 64.5249 92.6508 64.5249 91.3239C64.5249 89.0058 62.3347 88.2544 60.5122 88.2544H56.1797V99.4453H60.9119ZM58.226 90.029H60.4163C61.7592 90.029 62.4626 90.4446 62.4626 91.5158C62.4626 92.3631 61.7912 92.9226 60.5601 92.9226H58.226V90.029ZM58.226 94.6652H60.8479C62.1109 94.6652 62.8623 95.2887 62.8623 96.216C62.8623 97.1912 62.2388 97.6708 60.8 97.6708H58.226V94.6652Z" fill="#1E2121"/>
<path d="M66.8399 94.8411C66.8399 98.0225 68.9502 99.6532 71.5561 99.6532C74.162 99.6532 76.2723 98.0225 76.2723 94.8411V88.2544H74.226V94.7611C74.226 96.8395 73.2188 97.7827 71.5561 97.7827C69.9095 97.7827 68.8863 96.8395 68.8863 94.7611V88.2544H66.8399V94.8411Z" fill="#1E2121"/>
<path d="M83.8212 99.4453V95.2407L88.1058 88.2544H85.6917L82.814 93.0665L79.9204 88.2544H77.4903L81.7749 95.2407V99.4453H83.8212Z" fill="#1E2121"/>
<path d="M106.111 115.702C106.111 113.249 108.1 111.261 110.552 111.261H170.948C173.4 111.261 175.389 113.249 175.389 115.702V135.686C175.389 138.139 173.4 140.127 170.948 140.127H110.552C108.1 140.127 106.111 138.139 106.111 135.686V115.702Z" fill="#D84747"/>
<path d="M121.953 130.014C123.216 130.973 124.911 131.453 126.605 131.453C129.131 131.453 130.842 130.062 130.842 128.032C130.842 125.25 128.508 124.946 126.653 124.658C125.406 124.45 124.415 124.275 124.415 123.251C124.415 122.18 125.294 121.717 126.573 121.717C127.565 121.717 128.508 122.02 129.611 122.756L130.602 121.109C129.115 120.134 127.996 119.846 126.493 119.846C124.143 119.846 122.337 121.125 122.337 123.315C122.337 126.097 124.783 126.337 126.653 126.673C127.836 126.881 128.764 127.12 128.764 128.127C128.764 129.007 127.996 129.582 126.525 129.582C125.438 129.582 124.063 129.103 122.976 128.335L121.953 130.014Z" fill="white"/>
<path d="M140.969 131.245V129.406H135.022V126.529H140.601V124.69H135.022V121.893H140.889V120.054H132.975V131.245H140.969Z" fill="white"/>
<path d="M150.522 131.245V129.438H145.295V120.054H143.248V131.245H150.522Z" fill="white"/>
<path d="M159.687 131.245V129.438H154.459V120.054H152.413V131.245H159.687Z" fill="white"/>
<path fill-rule="evenodd" clip-rule="evenodd" d="M140.009 63.7833V51.4614H147.366V63.7833H159.688V71.1396H147.366V83.4614H140.009V71.1396H127.688V63.7833H140.009Z" fill="white"/>
<path d="M51.6875 147.483H83.6875V140.126H51.6875V147.483Z" fill="white"/>
</svg>
