<svg width="212" height="212" fill="none" xmlns="http://www.w3.org/2000/svg"><circle cx="106" cy="106" r="106" fill="#1E2121"/><path fill-rule="evenodd" clip-rule="evenodd" d="M54.21 66.68a9.45 9.45 0 0 0-9.45 9.44v62.59a9.45 9.45 0 0 0 9.45 9.44h109.82a9.45 9.45 0 0 0 9.45-9.44V76.12a9.45 9.45 0 0 0-9.45-9.44H54.21Z" fill="#fff"/><path d="M166.4 89.83a17.59 17.59 0 1 1-35.18 0 17.59 17.59 0 0 1 35.17 0Z" fill="#4AFEBF"/><path d="M148.8 107.42a17.59 17.59 0 1 0 0-35.18v35.18Z" fill="#51EEDA"/><path d="m76.34 106.51-25.08 35.74h115.72l-41.14-29.11a4.72 4.72 0 0 0-6.07.52L108.7 124.7a4.72 4.72 0 0 1-6.7-.03l-18.43-18.77a4.72 4.72 0 0 0-7.24.6Z" fill="url(#a)"/><path d="m117.86 51.42 6.64 3.83-29.15 50.5-9.44 8.68 2.8-12.52 29.15-50.5Z" fill="#E1E1E1"/><path d="m87.05 109.33-1.14 5.1 3.85-3.54c-.04-2.23-1.82-1.97-2.71-1.56ZM117.86 51.42c3 .23 4.5.9 6.65 3.83l-29.22 50.6c-2.14-2.27-3.52-3.25-6.65-3.83l29.22-50.6Z" fill="#595656"/><defs><linearGradient id="a" x1="109.12" y1="104.5" x2="109.12" y2="142.25" gradientUnits="userSpaceOnUse"><stop stop-color="#4AFEBF"/><stop offset="1" stop-color="#51EEDA"/></linearGradient></defs></svg>