<svg width="212" height="212" fill="none" xmlns="http://www.w3.org/2000/svg"><circle cx="106" cy="106" r="106" fill="#1E2121"/><path fill-rule="evenodd" clip-rule="evenodd" d="M77.8 89.47 56.5 62.64 35.18 89.47h10.76v36.44h21.1V89.47H77.8ZM176.78 96.12l-17.42-21.93-17.42 21.93h8.8v29.79h17.24v-29.8h8.8Z" fill="#4AFEBF"/><path d="M68.42 56.54c3.08-1.77 6.68 1.47 8.08 3.3.99 5.89 2.36 17.73 0 18.02a4.52 4.52 0 0 1-4.78-2.76c-.36-.92-4.22-6.25-5.51-9.37-1.29-3.13-1.66-6.99 2.2-9.2Z" fill="#F6A678"/><path d="M70.48 61.3c1.68-.95 3.63.8 4.4 1.8.53 3.2 1.27 9.62 0 9.78-1.6.2-2.4-1-2.6-1.5-.2-.5-2.3-3.4-3-5.09-.7-1.7-.9-3.79 1.2-4.99Z" fill="#DD8958"/><path d="M144.06 56.54c-3.1-1.77-6.69 1.47-8.1 3.3-.97 5.89-2.35 17.73 0 18.02a4.52 4.52 0 0 0 4.79-2.76c.36-.92 4.22-6.25 5.51-9.37 1.29-3.13 1.66-6.99-2.2-9.2Z" fill="#F6A678"/><path d="M141.99 61.3c-1.68-.95-3.63.8-4.4 1.8-.53 3.2-1.27 9.62 0 9.78 1.6.2 2.4-1 2.6-1.5.2-.5 2.3-3.4 3-5.09.7-1.7.9-3.79-1.2-4.99Z" fill="#DD8958"/><path d="M156 174.53c.58-1.62 2.01-12.2 3-16.73l-16.15-5.89a144.4 144.4 0 0 0-7.7 5.89c-1.67 1.47-2.74 3-3.06 3.58l3.06 4.07 1.54-1.03c-1.41 2.02-4.16 6.28-3.86 7.17.3.88 10.9 5.51 16.18 7.72 2.08-.92 6.4-3.17 6.98-4.78Z" fill="#F6A678"/><path d="m147.41 178.7 3.22-6.07-5.6 4.97 2.38 1.1ZM141.97 176.31l1.95-3.68-3.4 3.01 1.45.67Z" fill="#DD8958"/><path d="M146.59 163.53c4.11 1.03 7.04 5.09 8 6.99-5.2-4.4-8.43-6.05-15.17-6.44.67-.6 3.05-1.58 7.17-.55Z" fill="#ED935F"/><path d="M56.71 174.53c-.59-1.62-2.02-12.2-3-16.73l16.14-5.89c1.87 1.35 6.03 4.42 7.7 5.89 1.68 1.47 2.74 3 3.06 3.58l-3.06 4.07-1.54-1.03c1.41 2.02 4.16 6.28 3.86 7.17-.29.88-10.9 5.51-16.17 7.72-2.09-.92-6.4-3.17-6.99-4.78Z" fill="#F6A678"/><path d="M75.14 94.32h61.78l-7.17 58.7H81.76l-6.62-58.7Z" fill="#51EEDA"/><path d="M72.02 131.88c.73-7.36 4.35-14.96 6.07-17.84l1.28-19.67c-.92-.18-3.9.07-8.45 2.57-5.7 3.13-13.24 18.57-17.1 29.97-3.09 9.12-1.29 26.72 0 34.38 1.1-.8 4-2.8 6.8-4.41 2.8-1.62 8.76-2.03 11.4-2.03-.3-4.6-.74-15.62 0-22.97ZM140.36 131.87c-.74-7.35-4.35-14.95-6.07-17.83l-1.28-19.67c.91-.18 3.9.07 8.45 2.57 5.7 3.13 13.24 18.57 17.1 29.97 3.09 9.12 1.29 26.72 0 34.38-1.1-.8-4-2.8-6.8-4.41-2.8-1.62-8.77-2.03-11.4-2.03.3-4.6.73-15.62 0-22.98Z" fill="#51EEDA"/><path d="M76.59 55.11a18.38 18.38 0 0 1 16.92-17.7l2.2-.18h22.43l.98.09c9.3.79 16.52 8.4 16.82 17.73l.95 29.8c-23.7 36.08-37.11 38.6-61.31 0l1-29.74Z" fill="#F6A678"/><mask id="a" style="mask-type:alpha" maskUnits="userSpaceOnUse" x="75" y="37" width="62" height="76"><path d="M76.59 55.11a18.38 18.38 0 0 1 16.92-17.7l2.2-.18h22.43l.98.09c9.3.79 16.52 8.4 16.82 17.73l.95 29.8c-23.7 36.08-37.11 38.6-61.31 0l1-29.74Z" fill="#F6A678"/></mask><g mask="url(#a)"><path opacity=".1" d="M85.23 49.37c-3.97 1.02-7.3 6.8-8.46 9.56a8.73 8.73 0 0 1-2.39-9.56C76 44.5 82.3 40.1 85.23 38.52l11.95 9.93c-2.33-.13-7.98-.11-11.95.92Z" fill="#000"/></g><path d="M125.57 68.8a7.37 7.37 0 1 1-14.75 0 7.37 7.37 0 0 1 14.75 0ZM101.74 68.8a7.37 7.37 0 1 1-14.74 0 7.37 7.37 0 0 1 14.74 0Z" fill="#DD8958"/><path d="M122.2 68.02a5.3 5.3 0 1 1-10.59 0 5.3 5.3 0 0 1 10.59 0Z" fill="#FDFDFD"/><path d="M119.99 68.02a3.08 3.08 0 1 1-6.17 0 3.08 3.08 0 0 1 6.17 0Z" fill="#51EEDA"/><path d="M118.28 68.02a1.37 1.37 0 1 1-2.75 0 1.37 1.37 0 0 1 2.75 0Z" fill="#141616"/><path d="M112.95 66.42c1.58.03 11.36-3.14 16.04-4.74a28.78 28.78 0 0 0-8.18-4.09c-4.18-1.15-7.86-.23-9.05.74-1.2.96-2.12 4.27-1.98 5.7.14 1.42 1.2 2.34 3.17 2.39Z" fill="#E0E0E0"/><path d="M90.27 68.02a5.3 5.3 0 1 0 10.59 0 5.3 5.3 0 0 0-10.59 0Z" fill="#FDFDFD"/><path d="M92.48 68.02a3.08 3.08 0 1 0 6.17 0 3.08 3.08 0 0 0-6.17 0Z" fill="#51EEDA"/><path d="M94.2 68.02a1.37 1.37 0 1 0 2.74 0 1.37 1.37 0 0 0-2.75 0Z" fill="#141616"/><path d="M99.52 66.42c-1.58.03-11.35-3.14-16.04-4.74a28.77 28.77 0 0 1 8.18-4.09c4.18-1.15 7.86-.23 9.05.74 1.2.96 2.12 4.27 1.98 5.7-.14 1.42-1.2 2.34-3.17 2.39Z" fill="#E0E0E0"/><path fill-rule="evenodd" clip-rule="evenodd" d="M75.99 74.55c-1.44 4.17-4 13.24-2.74 16.18 1.25 2.94 6.9 12.62 9.58 17.1l1.37-2.94c.32.98 1.64 3.53 4.3 5.88 2.62 2.32 12.67 6.02 17.58 7.65v.07l.1-.03c.04 0 .08.02.11.03v-.07c4.91-1.63 14.97-5.33 17.59-7.65a15.64 15.64 0 0 0 4.3-5.88l1.37 2.94c2.67-4.48 8.33-14.16 9.58-17.1 1.25-2.94-1.3-12.01-2.74-16.18-2.74 5.4-9.27 17.03-13.5 20.4-4.14 3.33-12.65.66-16.6-1.18v-.1l-.1.05-.1-.05v.1c-3.95 1.84-12.46 4.51-16.61 1.19-4.23-3.38-10.76-15.02-13.5-20.4Z" fill="#E0E0E0"/><path d="M100.86 91.88h10.75V95c-4.2 1.34-6.55 1.37-10.75 0v-3.12Z" fill="#DD8958"/><path d="M113.41 78.73c-2.84 0-3.32 4.5-3.32 8.05 3.46-1.48 3.3-2.83 8.03-1 .86-6.3-1.86-7.05-4.7-7.05Z" fill="#ED935F"/><path fill-rule="evenodd" clip-rule="evenodd" d="M106.23 91.9a8.92 8.92 0 0 1-2.69 2.32c-3.3 1.92-11.98 5.03-15.9 6.35.86-2.03 2.8-6.64 3.67-8.92l.34-.89c1.01-2.7 2.2-5.88 5.18-7.2 2.52-1.12 7.11.55 9.4 1.67 2.3-1.12 6.9-2.79 9.41-1.67 2.98 1.32 4.17 4.5 5.18 7.2l.34.89c.88 2.28 2.81 6.9 3.67 8.92-3.92-1.32-12.59-4.43-15.9-6.35a8.94 8.94 0 0 1-2.7-2.33Z" fill="#fff"/><path d="M99.23 78.73c2.85 0 3.33 4.5 3.33 8.05-3.46-1.48-3.3-2.83-8.03-1-.86-6.3 1.86-7.05 4.7-7.05Z" fill="#ED935F"/><path fill-rule="evenodd" clip-rule="evenodd" d="M106.3 64.93c-1.26 0-2.36.85-2.69 2.07l-3.76 14.08h.04a6.48 6.48 0 1 0 12.19-1.48L109 67.05a2.78 2.78 0 0 0-2.7-2.12Z" fill="#DD8958"/><path d="M106.23 83.97a2.02 2.02 0 1 1-4.04 0 2.02 2.02 0 0 1 4.05 0ZM108.26 94.84c0 .22-.9.4-2.03.4-1.11 0-2.02-.18-2.02-.4 0-.21.9-.39 2.03-.39 1.11 0 2.02.18 2.02.4Z" fill="#FDFDFD" fill-opacity=".2"/><path d="M96.26 49.55c-4.41-1.62-9.44-6.31-11.4-8.46-2.2-2.14-5.3-7.39 0-11.21 6.62-4.78 22.8-4.05 35.3-1.84 12.5 2.2 20.4 11.03 23.35 16.91 2.35 4.7.98 20.23 0 27.4-.37-1.05-1.84-4.64-4.78-10.67-3.68-7.53-9-9-14.7-10.1-5.7-1.11-22.25 0-27.77-2.03Z" fill="#E0E0E0"/><path d="m65.29 178.7-3.22-6.07 5.61 4.97-2.39 1.1ZM70.74 176.31l-1.95-3.68 3.4 3.01-1.45.67Z" fill="#DD8958"/><path d="M66.12 163.53c-4.12 1.03-7.05 5.09-8 6.99 5.2-4.4 8.43-6.05 15.17-6.44-.68-.6-3.05-1.58-7.17-.55Z" fill="#ED935F"/><path fill-rule="evenodd" clip-rule="evenodd" d="m122.55 141.49-16.52-20.8-16.52 20.8h8.34v28.25h16.36v-28.25h8.34Z" fill="#D84747"/></svg>