<svg width="212" height="212" fill="none" xmlns="http://www.w3.org/2000/svg"><circle cx="106" cy="106" r="106" fill="#1E2121"/><path fill="#28BCA9" d="M102.86 85.22h5.18v50.19h-5.18z"/><path fill="#28BCA9" d="m74.04 88.78 4.49-2.59 28.64 49.62-4.49 2.59z"/><path fill="#28BCA9" d="m136.97 88.78-4.49-2.59-28.64 49.62 4.48 2.59z"/><path fill="#28BCA9" d="m167.82 86.5 4 5.11-70.47 55.06-3.99-5.1z"/><path fill="#28BCA9" d="m111.48 146.75 3.99-5.11L45 86.59l-3.98 5.1z"/><path d="M46.2 96c-3.58 0-6.52-2.9-6.17-6.45C43.28 56.13 71.55 30 105.93 30c34.4 0 62.67 26.13 65.92 59.55.34 3.55-2.6 6.45-6.18 6.45H46.2Z" fill="#4AFEBF"/><path d="M63.68 96c0-36.45 18.92-66 42.26-66 23.34 0 42.26 29.55 42.26 66H63.68Z" fill="#fff"/><path d="M92.5 96c0-36.45 5.94-66 13.28-66 7.33 0 13.27 29.55 13.27 66H92.5Z" fill="#4AFEBF"/><path opacity=".2" fill-rule="evenodd" clip-rule="evenodd" d="M105.88 30a66.23 66.23 0 0 1 65.85 59.75 5.92 5.92 0 0 1-4.5 6.25h-61.35V30Z" fill="#000"/><path d="M73.72 138.97c0-3.57 2.9-6.47 6.48-6.47h51.16c3.58 0 6.48 2.9 6.48 6.47v37.24c0 3.58-2.9 6.48-6.48 6.48H80.2a6.48 6.48 0 0 1-6.48-6.48v-37.24Z" fill="#DD8958"/><path d="M73.72 138.97c0-3.57 2.9-6.47 6.48-6.47h19.1c3.58 0 6.48 2.9 6.48 6.47v37.24c0 3.58-2.9 6.48-6.48 6.48H80.2a6.48 6.48 0 0 1-6.48-6.48v-37.24Z" fill="#F8B893"/><path d="M79.22 145.13c0-.72.58-1.3 1.3-1.3h18.46c.71 0 1.3.58 1.3 1.3v25.25c0 .72-.59 1.3-1.3 1.3H80.52a1.3 1.3 0 0 1-1.3-1.3v-25.25Z" fill="#DD8958"/><path fill="#28BCA9" d="M119.06 132.5h5.18v50.19h-5.18z"/></svg>