<svg width="212" height="212" fill="none" xmlns="http://www.w3.org/2000/svg"><circle cx="106" cy="106" r="106" fill="#1E2121"/><path d="M71.27 52.28c-6.3 2.06-11.15 12.9-11.15 16.13 0 4.52 15.08 12.7 20.33 14.85h24.27c.21-.22-.14-2.33-3.28-9.04-3.94-8.39-22.3-24.53-30.17-21.94Z" fill="#fff"/><ellipse cx="81.9" cy="77.37" rx="3.62" ry="20.37" transform="rotate(-60.82 81.9 77.37)" fill="#A9E4DD"/><path d="M142.73 52.28c6.3 2.06 11.15 12.9 11.15 16.13 0 4.52-15.08 12.7-20.33 14.85h-24.27c-.21-.22.14-2.33 3.28-9.04 3.94-8.39 22.3-24.53 30.17-21.94Z" fill="#fff"/><ellipse rx="3.62" ry="20.37" transform="scale(-1 1) rotate(-60.82 -.13 151.23)" fill="#A9E4DD"/><circle cx="107" cy="83.49" r="10.05" fill="#51EEDA"/><rect x="66.81" y="101.12" width="80.37" height="58.05" rx="4" fill="#51EEDA"/><path fill="#28BCA9" d="M66.81 98.88h80.37v14.51H66.81z"/><rect x="59" y="83.26" width="96" height="22.33" rx="4" fill="#51EEDA"/><path fill="#fff" d="M95.84 113.4h22.33v45.77H95.84z"/><path opacity=".6" fill="#fff" d="M95.84 105.58h22.33v7.81H95.84z"/><path fill="#fff" d="M95.84 83.26h22.33v22.33H95.84z"/></svg>