<svg width="212" height="212" fill="none" xmlns="http://www.w3.org/2000/svg"><circle cx="106" cy="106" r="106" fill="#1E2121"/><path d="M36.72 83.4a4.44 4.44 0 0 1 4.44-4.44h60.4A4.44 4.44 0 0 1 106 83.4v19.99a4.44 4.44 0 0 1-4.44 4.44h-60.4a4.44 4.44 0 0 1-4.44-4.44V83.4Z" fill="#4AFEBF"/><path d="M60.8 98.95c2.11 0 4.01-.8 4.01-3.06 0-1.64-1.2-2.35-1.95-2.67v-.01c.7-.37 1.55-1.06 1.55-2.39 0-2.31-2.19-3.07-4-3.07h-4.34v11.2h4.73Zm-2.68-9.42h2.19c1.34 0 2.04.42 2.04 1.49 0 .84-.67 1.4-1.9 1.4h-2.33v-2.9Zm0 4.64h2.62c1.26 0 2.01.62 2.01 1.55 0 .97-.62 1.45-2.06 1.45h-2.57v-3ZM66.73 94.34c0 3.18 2.11 4.81 4.72 4.81 2.6 0 4.71-1.63 4.71-4.8v-6.6h-2.04v6.51c0 2.08-1.01 3.02-2.67 3.02-1.65 0-2.67-.94-2.67-3.02v-6.5h-2.05v6.58ZM83.71 98.95v-4.2l4.29-7h-2.42l-2.88 4.82-2.89-4.82h-2.43l4.28 7v4.2h2.05Z" fill="#1E2121"/><path d="M106 115.2a4.44 4.44 0 0 1 4.44-4.44h60.4a4.44 4.44 0 0 1 4.44 4.44v19.99a4.44 4.44 0 0 1-4.44 4.44h-60.4a4.44 4.44 0 0 1-4.44-4.44V115.2Z" fill="#D84747"/><path d="M121.84 129.51a7.76 7.76 0 0 0 4.65 1.44c2.53 0 4.24-1.39 4.24-3.42 0-2.78-2.33-3.08-4.19-3.37-1.25-.2-2.24-.38-2.24-1.4 0-1.08.88-1.54 2.16-1.54 1 0 1.94.3 3.04 1.04l1-1.65a6.73 6.73 0 0 0-4.12-1.26c-2.35 0-4.16 1.28-4.16 3.47 0 2.78 2.45 3.02 4.32 3.35 1.18.21 2.11.45 2.11 1.46 0 .88-.77 1.45-2.24 1.45a6.64 6.64 0 0 1-3.55-1.24l-1.02 1.67ZM140.86 130.75v-1.84h-5.95v-2.88h5.58v-1.84h-5.58v-2.8h5.87v-1.83h-7.92v11.19h8ZM150.41 130.75v-1.81h-5.23v-9.38h-2.04v11.19h7.27ZM159.57 130.75v-1.81h-5.22v-9.38h-2.05v11.19h7.27Z" fill="#fff"/><path fill-rule="evenodd" clip-rule="evenodd" d="M139.9 63.28V50.96h7.35v12.32h12.33v7.36h-12.33v12.32h-7.35V70.64h-12.32v-7.36h12.32Z" fill="#fff"/><path d="M51.58 146.98h32v-7.35h-32v7.35Z" fill="#fff"/></svg>