<svg width="212" height="212" fill="none" xmlns="http://www.w3.org/2000/svg"><circle cx="106" cy="106" r="106" fill="#1E2121"/><path d="M45.84 81.15H97V146H53.05a7.2 7.2 0 0 1-7.2-7.2V81.14Z" fill="#4AFEBF"/><path d="M61.7 130.87c0-1.6 1.28-2.88 2.88-2.88h13.68c1.6 0 2.89 1.29 2.89 2.88V146H61.69v-15.13Z" fill="#3FD09D"/><path d="M68 130.88c0-1.6.86-2.88 1.93-2.88h9.14c1.07 0 1.93 1.29 1.93 2.88V146H68v-15.12Z" fill="#32A67E"/><path d="M57.37 92.68c0-1.59 1.3-2.88 2.88-2.88h4.33c1.59 0 2.88 1.3 2.88 2.88v4.33c0 1.59-1.3 2.88-2.88 2.88h-4.33A2.88 2.88 0 0 1 57.37 97v-4.33ZM57.37 110.7c0-1.6 1.3-2.89 2.88-2.89h4.33c1.59 0 2.88 1.3 2.88 2.88v4.33c0 1.59-1.3 2.88-2.88 2.88h-4.33a2.88 2.88 0 0 1-2.88-2.88v-4.33ZM75.38 92.68c0-1.59 1.3-2.88 2.89-2.88h4.32c1.59 0 2.88 1.3 2.88 2.88v4.33c0 1.59-1.29 2.88-2.88 2.88h-4.32A2.88 2.88 0 0 1 75.38 97v-4.33ZM75.38 110.7c0-1.6 1.3-2.89 2.89-2.89h4.32c1.59 0 2.88 1.3 2.88 2.88v4.33c0 1.59-1.29 2.88-2.88 2.88h-4.32a2.88 2.88 0 0 1-2.89-2.88v-4.33Z" fill="#3FD09D"/><rect x="42" y="74" width="66" height="10" rx="4" fill="#3FD09D"/><path opacity=".2" d="M42 79h66v1a4 4 0 0 1-4 4H46a4 4 0 0 1-4-4v-1Z" fill="#000"/><path fill="#fff" d="M97 54.5h58V146H97z"/><rect x="93" y="50" width="66" height="10" rx="4" fill="#CCC"/><path opacity=".2" d="M93 55h66v1a4 4 0 0 1-4 4H97a4 4 0 0 1-4-4v-1ZM93 74h4v72h-4z" fill="#000"/><g opacity=".2" fill="#000"><path d="M111.4 74.67c0-1.6 1.3-2.88 2.89-2.88h4.32c1.6 0 2.89 1.29 2.89 2.88V79c0 1.6-1.3 2.89-2.89 2.89h-4.32a2.88 2.88 0 0 1-2.88-2.89v-4.32ZM111.4 92.68c0-1.59 1.3-2.88 2.89-2.88h4.32c1.6 0 2.89 1.3 2.89 2.88v4.33c0 1.59-1.3 2.88-2.89 2.88h-4.32a2.88 2.88 0 0 1-2.88-2.88v-4.33ZM129.42 74.67c0-1.6 1.3-2.88 2.88-2.88h4.33c1.59 0 2.88 1.29 2.88 2.88V79c0 1.6-1.3 2.89-2.88 2.89h-4.33a2.88 2.88 0 0 1-2.88-2.89v-4.32ZM129.42 92.68c0-1.59 1.3-2.88 2.88-2.88h4.33c1.59 0 2.88 1.3 2.88 2.88v4.33c0 1.59-1.3 2.88-2.88 2.88h-4.33a2.88 2.88 0 0 1-2.88-2.88v-4.33Z"/></g><g filter="url(#a)"><circle cx="140" cy="142" r="29" fill="#51EEDA"/><path fill-rule="evenodd" clip-rule="evenodd" d="M140 163.8a21.8 21.8 0 1 0 0-43.6 21.8 21.8 0 0 0 0 43.6Zm0 1.91a23.71 23.71 0 1 0 0-47.42 23.71 23.71 0 0 0 0 47.42Z" fill="#28BCA9"/><path d="M139.31 127.05 131.3 140c-.1.16-.05.36.1.46l8.2 5.17c.1.07.24.07.35 0l7.97-5.17c.16-.1.2-.3.1-.46l-8.13-12.95a.34.34 0 0 0-.56 0Z" fill="#fff"/><path d="m139.88 150.11 7.04-4.38c.3-.19.65.17.45.47l-7.09 10.77c-.13.2-.41.2-.55.02l-7.67-10.71c-.22-.3.13-.67.44-.48l7.03 4.31c.1.07.24.07.35 0Z" fill="#fff"/></g><defs><filter id="a" x="108" y="113" width="64" height="64" filterUnits="userSpaceOnUse" color-interpolation-filters="sRGB"><feFlood flood-opacity="0" result="BackgroundImageFix"/><feColorMatrix in="SourceAlpha" values="0 0 0 0 0 0 0 0 0 0 0 0 0 0 0 0 0 0 127 0" result="hardAlpha"/><feOffset dy="3"/><feGaussianBlur stdDeviation="1.5"/><feComposite in2="hardAlpha" operator="out"/><feColorMatrix values="0 0 0 0 0 0 0 0 0 0 0 0 0 0 0 0 0 0 0.5 0"/><feBlend in2="BackgroundImageFix" result="effect1_dropShadow_1231_4422"/><feBlend in="SourceGraphic" in2="effect1_dropShadow_1231_4422" result="shape"/></filter></defs></svg>