<svg width="212" height="212" fill="none" xmlns="http://www.w3.org/2000/svg"><circle cx="106" cy="106" r="106" fill="#1E2121"/><circle cx="106" cy="105" r="66" fill="#3FCFBD"/><g filter="url(#a)"><path fill-rule="evenodd" clip-rule="evenodd" d="M65.41 79A5.44 5.44 0 0 0 60 84.47v41.06a5.44 5.44 0 0 0 5.41 5.47H89.7a6 6 0 0 0 5.86-4.7l1.96-8.8a8.27 8.27 0 0 1 7.81-5.66 8.27 8.27 0 0 1 7.82 5.65l1.96 8.81a6 6 0 0 0 5.86 4.7h25.63a5.44 5.44 0 0 0 5.41-5.47V84.47a5.44 5.44 0 0 0-5.41-5.47H65.4ZM83 107.74a8.16 8.16 0 0 0 8.12-8.21A8.16 8.16 0 0 0 83 91.32a8.16 8.16 0 0 0-8.12 8.2 8.16 8.16 0 0 0 8.12 8.22Zm54.12-8.21a8.16 8.16 0 0 1-8.12 8.2 8.16 8.16 0 0 1-8.12-8.2 8.16 8.16 0 0 1 8.12-8.21 8.16 8.16 0 0 1 8.12 8.2Z" fill="#fff"/></g><path fill-rule="evenodd" clip-rule="evenodd" d="M190.76 109.86c-4.43-2.9-10.87-5.55-18.9-7.8l.27-.96c8.07 2.26 14.63 4.94 19.18 7.92 4.53 2.97 7.19 6.33 7.19 9.98 0 3.72-2.77 7.14-7.46 10.15-4.72 3.03-11.5 5.74-19.85 8.01-16.7 4.54-39.75 7.34-65.19 7.34-25.44 0-48.48-2.8-65.18-7.34-8.35-2.27-15.14-4.98-19.86-8-4.7-3.02-7.46-6.44-7.46-10.16 0-3.65 2.66-7 7.2-9.98 4.54-2.98 11.1-5.66 19.17-7.92l.26.97c-8.02 2.24-14.46 4.88-18.89 7.79-4.45 2.92-6.74 6.02-6.74 9.14 0 3.19 2.38 6.34 7 9.31 4.6 2.95 11.28 5.63 19.58 7.88 16.6 4.52 39.55 7.31 64.92 7.31 25.37 0 48.33-2.8 64.92-7.3 8.3-2.26 14.99-4.94 19.58-7.89 4.62-2.97 7-6.12 7-9.31 0-3.13-2.3-6.22-6.74-9.14Z" fill="#fff"/><defs><filter id="a" x="60" y="79" width="95" height="55" filterUnits="userSpaceOnUse" color-interpolation-filters="sRGB"><feFlood flood-opacity="0" result="BackgroundImageFix"/><feColorMatrix in="SourceAlpha" values="0 0 0 0 0 0 0 0 0 0 0 0 0 0 0 0 0 0 127 0" result="hardAlpha"/><feOffset dx="3" dy="3"/><feComposite in2="hardAlpha" operator="out"/><feColorMatrix values="0 0 0 0 0 0 0 0 0 0 0 0 0 0 0 0 0 0 0.25 0"/><feBlend in2="BackgroundImageFix" result="effect1_dropShadow_1231_4286"/><feBlend in="SourceGraphic" in2="effect1_dropShadow_1231_4286" result="shape"/></filter></defs></svg>