<svg width="212" height="212" fill="none" xmlns="http://www.w3.org/2000/svg"><circle cx="106" cy="106" r="106" fill="#1E2121"/><path d="M42.25 64.44c-.32-1.2.4-2.45 1.6-2.78L85.88 50.4c1.21-.32 2.46.4 2.78 1.6l13.75 51.32c.32 1.2-.4 2.45-1.6 2.77l-42.03 11.27c-1.21.32-2.46-.4-2.78-1.6L42.25 64.43Z" fill="#fff"/><circle cx="60.2" cy="72.55" r="8.48" transform="rotate(-15 60.2 72.55)" fill="#51EEDA"/><circle cx="72.09" cy="76.8" r="10.38" transform="rotate(-15 72.09 76.8)" fill="url(#a)"/><circle cx="83.87" cy="80.7" r="5.29" transform="rotate(-15 83.87 80.7)" fill="#4AFEBF"/><path fill-rule="evenodd" clip-rule="evenodd" d="M59.1 99c-.08-.3.1-.6.4-.69l31.16-8.35a.55.55 0 1 1 .29 1.07l-31.17 8.35c-.3.08-.6-.1-.68-.39ZM60.3 103.48c-.07-.3.1-.6.4-.68l31.17-8.35a.55.55 0 1 1 .28 1.07l-31.17 8.35c-.3.08-.6-.1-.67-.39ZM61.62 108.38c-.08-.3.1-.6.39-.68l31.17-8.35a.55.55 0 1 1 .28 1.07l-31.17 8.35c-.29.08-.6-.1-.67-.4Z" fill="#1E2121"/><path d="M122.25 32.28a2.57 2.57 0 0 1 3.15-1.82l47.64 12.77a2.57 2.57 0 0 1 1.82 3.14l-15.59 58.17a2.57 2.57 0 0 1-3.15 1.81L108.48 93.6a2.57 2.57 0 0 1-1.81-3.15l15.58-58.16Z" fill="#fff"/><circle cx="135.28" cy="50.41" r="9.61" transform="rotate(15 135.28 50.41)" fill="#51EEDA"/><circle cx="144.53" cy="61.32" r="11.76" transform="rotate(15 144.53 61.32)" fill="url(#b)"/><circle cx="153.9" cy="71.83" r="5.99" transform="rotate(15 153.9 71.83)" fill="#4AFEBF"/><path fill-rule="evenodd" clip-rule="evenodd" d="M119.21 75.75a.63.63 0 0 1 .77-.45l35.33 9.47a.63.63 0 1 1-.33 1.21l-35.33-9.47a.63.63 0 0 1-.44-.76ZM117.85 80.84a.63.63 0 0 1 .77-.45l35.32 9.47a.63.63 0 0 1-.32 1.2L118.3 81.6a.63.63 0 0 1-.44-.76ZM116.36 86.39a.63.63 0 0 1 .77-.45l35.33 9.47a.63.63 0 1 1-.33 1.2l-35.33-9.46a.63.63 0 0 1-.44-.76Z" fill="#1E2121"/><path d="M182.38 79.28a5.38 5.38 0 0 1 7.62 0L191 80.3a5.38 5.38 0 0 1 0 7.61l-32.99 33a5.38 5.38 0 0 1-7.61 0l-1.02-1.03a5.38 5.38 0 0 1 0-7.61l33-32.99ZM29.62 79.28a5.38 5.38 0 0 0-7.61 0l-1.02 1.02a5.38 5.38 0 0 0 0 7.61l32.99 33a5.38 5.38 0 0 0 7.61 0l1.02-1.03a5.38 5.38 0 0 0 0-7.61l-33-32.99Z" fill="#51EEDA"/><path d="M55 115.59c0-1.98 1.6-3.59 3.59-3.59h95.15c1.98 0 3.59 1.6 3.59 3.59v52.04c0 1.98-1.6 3.59-3.59 3.59H58.59a3.59 3.59 0 0 1-3.59-3.6V115.6Z" fill="#51EEDA"/><path d="M104.5 165v1.5h3V165h-3Zm3-45.9a1.5 1.5 0 1 0-3 0h3Zm0 45.9v-45.9h-3V165h3Z" fill="#fff"/><defs><linearGradient id="a" x1="72.09" y1="66.43" x2="72.09" y2="87.18" gradientUnits="userSpaceOnUse"><stop stop-color="#4AFEBF"/><stop offset="1" stop-color="#51EEDA"/></linearGradient><linearGradient id="b" x1="144.53" y1="49.56" x2="144.53" y2="73.09" gradientUnits="userSpaceOnUse"><stop stop-color="#4AFEBF"/><stop offset="1" stop-color="#51EEDA"/></linearGradient></defs></svg>