<svg width="213" height="212" viewBox="0 0 213 212" fill="none" xmlns="http://www.w3.org/2000/svg">
<path d="M212.111 106C212.111 164.542 164.654 212 106.111 212C47.5691 212 0.111328 164.542 0.111328 106C0.111328 47.4578 47.5691 0 106.111 0C164.654 0 212.111 47.4578 212.111 106Z" fill="#1E2121"/>
<path d="M110.588 48.84C110.588 47.5884 111.603 46.5737 112.854 46.5737H156.367C157.619 46.5737 158.634 47.5884 158.634 48.84V101.962C158.634 103.214 157.619 104.229 156.367 104.229H112.854C111.603 104.229 110.588 103.214 110.588 101.962V48.84Z" fill="white"/>
<path d="M134.305 61.3196C134.305 66.0018 130.51 69.7974 125.827 69.7974C121.145 69.7974 117.35 66.0018 117.35 61.3196C117.35 56.6374 121.145 52.8418 125.827 52.8418C130.51 52.8418 134.305 56.6374 134.305 61.3196Z" fill="#51EEDA"/>
<path d="M146.584 68.5038C146.584 74.2353 141.937 78.8816 136.206 78.8816C130.474 78.8816 125.828 74.2353 125.828 68.5038C125.828 62.7723 130.474 58.126 136.206 58.126C141.937 58.126 146.584 62.7723 146.584 68.5038Z" fill="url(#paint0_linear)"/>
<path d="M151.87 75.3148C151.87 78.2339 149.503 80.6003 146.584 80.6003C143.665 80.6003 141.299 78.2339 141.299 75.3148C141.299 72.3957 143.665 70.0293 146.584 70.0293C149.503 70.0293 151.87 72.3957 151.87 75.3148Z" fill="#4AFEBF"/>
<path fill-rule="evenodd" clip-rule="evenodd" d="M117.924 86.5754C117.924 86.2703 118.171 86.0229 118.476 86.0229H150.744C151.049 86.0229 151.297 86.2703 151.297 86.5754C151.297 86.8805 151.049 87.1278 150.744 87.1278H118.476C118.171 87.1278 117.924 86.8805 117.924 86.5754Z" fill="#1E2121"/>
<path fill-rule="evenodd" clip-rule="evenodd" d="M117.924 91.2224C117.924 90.9173 118.171 90.6699 118.476 90.6699H150.744C151.049 90.6699 151.297 90.9173 151.297 91.2224C151.297 91.5275 151.049 91.7748 150.744 91.7748H118.476C118.171 91.7748 117.924 91.5275 117.924 91.2224Z" fill="#1E2121"/>
<path fill-rule="evenodd" clip-rule="evenodd" d="M117.924 96.2917C117.924 95.9866 118.171 95.7393 118.476 95.7393H150.744C151.049 95.7393 151.297 95.9866 151.297 96.2917C151.297 96.5968 151.049 96.8441 150.744 96.8441H118.476C118.171 96.8441 117.924 96.5968 117.924 96.2917Z" fill="#1E2121"/>
<path d="M57.5898 48.84C57.5898 47.5884 58.6045 46.5737 59.8562 46.5737H103.369C104.621 46.5737 105.636 47.5884 105.636 48.84V101.962C105.636 103.214 104.621 104.229 103.369 104.229H59.8562C58.6045 104.229 57.5898 103.214 57.5898 101.962V48.84Z" fill="white"/>
<path d="M81.3072 61.3196C81.3072 66.0018 77.5116 69.7974 72.8294 69.7974C68.1472 69.7974 64.3516 66.0018 64.3516 61.3196C64.3516 56.6374 68.1472 52.8418 72.8294 52.8418C77.5116 52.8418 81.3072 56.6374 81.3072 61.3196Z" fill="#51EEDA"/>
<path d="M93.5857 68.5038C93.5857 74.2353 88.9394 78.8816 83.2079 78.8816C77.4764 78.8816 72.8301 74.2353 72.8301 68.5038C72.8301 62.7723 77.4764 58.126 83.2079 58.126C88.9394 58.126 93.5857 62.7723 93.5857 68.5038Z" fill="url(#paint1_linear)"/>
<path d="M98.8718 75.3148C98.8718 78.2339 96.5054 80.6003 93.5863 80.6003C90.6672 80.6003 88.3008 78.2339 88.3008 75.3148C88.3008 72.3957 90.6672 70.0293 93.5863 70.0293C96.5054 70.0293 98.8718 72.3957 98.8718 75.3148Z" fill="#4AFEBF"/>
<path fill-rule="evenodd" clip-rule="evenodd" d="M64.9258 86.5754C64.9258 86.2703 65.1731 86.0229 65.4782 86.0229H97.7461C98.0512 86.0229 98.2985 86.2703 98.2985 86.5754C98.2985 86.8805 98.0512 87.1278 97.7461 87.1278H65.4782C65.1731 87.1278 64.9258 86.8805 64.9258 86.5754Z" fill="#1E2121"/>
<path fill-rule="evenodd" clip-rule="evenodd" d="M64.9258 91.2224C64.9258 90.9173 65.1731 90.6699 65.4782 90.6699H97.7461C98.0512 90.6699 98.2985 90.9173 98.2985 91.2224C98.2985 91.5275 98.0512 91.7748 97.7461 91.7748H65.4782C65.1731 91.7748 64.9258 91.5275 64.9258 91.2224Z" fill="#1E2121"/>
<path fill-rule="evenodd" clip-rule="evenodd" d="M64.9258 96.2917C64.9258 95.9866 65.1731 95.7393 65.4782 95.7393H97.7461C98.0512 95.7393 98.2985 95.9866 98.2985 96.2917C98.2985 96.5968 98.0512 96.8441 97.7461 96.8441H65.4782C65.1731 96.8441 64.9258 96.5968 64.9258 96.2917Z" fill="#1E2121"/>
<path d="M110.588 111.023C110.588 109.771 111.603 108.757 112.854 108.757H156.367C157.619 108.757 158.634 109.771 158.634 111.023V164.145C158.634 165.397 157.619 166.412 156.367 166.412H112.854C111.603 166.412 110.588 165.397 110.588 164.145V111.023Z" fill="white"/>
<path d="M134.305 123.503C134.305 128.185 130.51 131.981 125.827 131.981C121.145 131.981 117.35 128.185 117.35 123.503C117.35 118.821 121.145 115.025 125.827 115.025C130.51 115.025 134.305 118.821 134.305 123.503Z" fill="#51EEDA"/>
<path d="M146.584 130.687C146.584 136.418 141.937 141.065 136.206 141.065C130.474 141.065 125.828 136.418 125.828 130.687C125.828 124.955 130.474 120.309 136.206 120.309C141.937 120.309 146.584 124.955 146.584 130.687Z" fill="url(#paint2_linear)"/>
<path d="M151.87 137.498C151.87 140.417 149.503 142.783 146.584 142.783C143.665 142.783 141.299 140.417 141.299 137.498C141.299 134.579 143.665 132.212 146.584 132.212C149.503 132.212 151.87 134.579 151.87 137.498Z" fill="#4AFEBF"/>
<path fill-rule="evenodd" clip-rule="evenodd" d="M117.924 148.758C117.924 148.453 118.171 148.206 118.476 148.206H150.744C151.049 148.206 151.297 148.453 151.297 148.758C151.297 149.064 151.049 149.311 150.744 149.311H118.476C118.171 149.311 117.924 149.064 117.924 148.758Z" fill="#1E2121"/>
<path fill-rule="evenodd" clip-rule="evenodd" d="M117.924 153.405C117.924 153.1 118.171 152.853 118.476 152.853H150.744C151.049 152.853 151.297 153.1 151.297 153.405C151.297 153.711 151.049 153.958 150.744 153.958H118.476C118.171 153.958 117.924 153.711 117.924 153.405Z" fill="#1E2121"/>
<path fill-rule="evenodd" clip-rule="evenodd" d="M117.924 158.475C117.924 158.17 118.171 157.922 118.476 157.922H150.744C151.049 157.922 151.297 158.17 151.297 158.475C151.297 158.78 151.049 159.027 150.744 159.027H118.476C118.171 159.027 117.924 158.78 117.924 158.475Z" fill="#1E2121"/>
<path d="M57.5898 111.023C57.5898 109.771 58.6045 108.757 59.8562 108.757H103.369C104.621 108.757 105.636 109.771 105.636 111.023V164.145C105.636 165.397 104.621 166.412 103.369 166.412H59.8562C58.6045 166.412 57.5898 165.397 57.5898 164.145V111.023Z" fill="white"/>
<path d="M81.3072 123.503C81.3072 128.185 77.5116 131.981 72.8294 131.981C68.1472 131.981 64.3516 128.185 64.3516 123.503C64.3516 118.821 68.1472 115.025 72.8294 115.025C77.5116 115.025 81.3072 118.821 81.3072 123.503Z" fill="#51EEDA"/>
<path d="M93.5857 130.687C93.5857 136.418 88.9394 141.065 83.2079 141.065C77.4764 141.065 72.8301 136.418 72.8301 130.687C72.8301 124.955 77.4764 120.309 83.2079 120.309C88.9394 120.309 93.5857 124.955 93.5857 130.687Z" fill="url(#paint3_linear)"/>
<path d="M98.8718 137.498C98.8718 140.417 96.5054 142.783 93.5863 142.783C90.6672 142.783 88.3008 140.417 88.3008 137.498C88.3008 134.579 90.6672 132.212 93.5863 132.212C96.5054 132.212 98.8718 134.579 98.8718 137.498Z" fill="#4AFEBF"/>
<path fill-rule="evenodd" clip-rule="evenodd" d="M64.9258 148.758C64.9258 148.453 65.1731 148.206 65.4782 148.206H97.7461C98.0512 148.206 98.2985 148.453 98.2985 148.758C98.2985 149.064 98.0512 149.311 97.7461 149.311H65.4782C65.1731 149.311 64.9258 149.064 64.9258 148.758Z" fill="#1E2121"/>
<path fill-rule="evenodd" clip-rule="evenodd" d="M64.9258 153.405C64.9258 153.1 65.1731 152.853 65.4782 152.853H97.7461C98.0512 152.853 98.2985 153.1 98.2985 153.405C98.2985 153.711 98.0512 153.958 97.7461 153.958H65.4782C65.1731 153.958 64.9258 153.711 64.9258 153.405Z" fill="#1E2121"/>
<path fill-rule="evenodd" clip-rule="evenodd" d="M64.9258 158.475C64.9258 158.17 65.1731 157.922 65.4782 157.922H97.7461C98.0512 157.922 98.2985 158.17 98.2985 158.475C98.2985 158.78 98.0512 159.027 97.7461 159.027H65.4782C65.1731 159.027 64.9258 158.78 64.9258 158.475Z" fill="#1E2121"/>
<g filter="url(#filter0_d)">
<path d="M39.1972 138.848L49.1186 124.973C51.1081 122.451 54.7827 122.014 57.3287 124.022C58.1355 124.658 58.7287 125.465 59.0923 126.356C61.1551 124.351 64.4473 124.138 66.7832 125.98C67.587 126.617 68.1803 127.423 68.5496 128.311C70.6131 126.312 73.9049 126.095 76.2377 127.938C77.0277 128.561 77.6123 129.347 77.9821 130.213L89.9655 116.426C91.955 113.903 95.6296 113.466 98.1756 115.474C100.701 117.464 101.135 121.139 99.1427 123.664L73.6926 154.525L86.1635 155.001C89.5275 155.084 92.3623 157.664 92.7572 161.008C93.0533 163.516 91.2537 165.797 88.7461 166.093L60.156 169.469C55.7017 169.995 51.3095 168.755 47.7872 165.977L42.4544 161.771C38.9358 158.998 36.7103 155.018 36.1851 150.57C35.6945 146.416 36.7647 142.253 39.1972 138.848Z" fill="#F7A678"/>
</g>
<defs>
<filter id="filter0_d" x="22.748" y="107.565" width="92.8868" height="78.4358" filterUnits="userSpaceOnUse" color-interpolation-filters="sRGB">
<feFlood flood-opacity="0" result="BackgroundImageFix"/>
<feColorMatrix in="SourceAlpha" type="matrix" values="0 0 0 0 0 0 0 0 0 0 0 0 0 0 0 0 0 0 127 0" result="hardAlpha"/>
<feOffset dy="4"/>
<feGaussianBlur stdDeviation="5"/>
<feColorMatrix type="matrix" values="0 0 0 0 0 0 0 0 0 0 0 0 0 0 0 0 0 0 0.5 0"/>
<feBlend mode="normal" in2="BackgroundImageFix" result="effect1_dropShadow"/>
<feBlend mode="normal" in="SourceGraphic" in2="effect1_dropShadow" result="shape"/>
</filter>
<linearGradient id="paint0_linear" x1="136.206" y1="58.126" x2="136.206" y2="78.8816" gradientUnits="userSpaceOnUse">
<stop stop-color="#4AFEBF"/>
<stop offset="1" stop-color="#51EEDA"/>
</linearGradient>
<linearGradient id="paint1_linear" x1="83.2079" y1="58.126" x2="83.2079" y2="78.8816" gradientUnits="userSpaceOnUse">
<stop stop-color="#4AFEBF"/>
<stop offset="1" stop-color="#51EEDA"/>
</linearGradient>
<linearGradient id="paint2_linear" x1="136.206" y1="120.309" x2="136.206" y2="141.065" gradientUnits="userSpaceOnUse">
<stop stop-color="#4AFEBF"/>
<stop offset="1" stop-color="#51EEDA"/>
</linearGradient>
<linearGradient id="paint3_linear" x1="83.2079" y1="120.309" x2="83.2079" y2="141.065" gradientUnits="userSpaceOnUse">
<stop stop-color="#4AFEBF"/>
<stop offset="1" stop-color="#51EEDA"/>
</linearGradient>
</defs>
</svg>
