<svg width="212" height="212" fill="none" xmlns="http://www.w3.org/2000/svg"><circle cx="106" cy="106" r="106" fill="#1E2121"/><rect x="46.05" y="43.83" width="96.61" height="108.81" rx="9.5" fill="#fff" fill-opacity=".05" stroke="#fff"/><path fill-rule="evenodd" clip-rule="evenodd" d="M102.35 76.82c-8.11 8.65-24.77 26.34-26.49 27.89a49.65 49.65 0 0 1-2.65 2.29l.1-.01c.9-.07 2.03-.16 2.88.47.88.65 1.65 1.3-.84 3.64-1.99 1.87-7.01 3.62-9.28 4.26-2.15 3.21-6.68 10.65-7.6 14.7-.92 4.04-1.64 9.19-1.89 11.26 2-.57 6.97-2.1 10.83-3.63 3.85-1.55 10.49-7.19 13.32-9.81.28-2.34 1.22-7.58 2.76-9.83 1.9-2.83 2.68-2.16 3.46-1.4.76.74.85 1.87.92 2.77v.1c.1-.19.6-1.04 1.85-2.98 1.26-1.94 16.12-21.16 23.4-30.52l-5.39-4.6-5.38-4.6Z" fill="#fff"/><path d="M103.43 76.75c-7.21 7.7-24.17 25.94-25.7 27.31-1.52 1.38-2.12 1.93-2.27 2.04.03 0-.03 0 0 0 .8-.07 2.15.15 2.9.7.78.59-.97 4.03-3.18 6.1-1.77 1.67-6.59 2.93-8.6 3.5-1.91 2.86-5.94 9.47-6.76 13.07-.82 3.6-1.46 8.17-1.68 10 1.78-.5 6.2-1.85 9.63-3.22 3.42-1.37 9.32-6.38 11.85-8.72.24-2.08.68-7.08 2.04-9.08 1.7-2.51 4.84-4.79 5.53-4.1.67.65 1.15 2 1.21 2.8v.04c.08-.17.53-.88 1.65-2.6 1.12-1.72 16.49-21.33 22.95-29.66l-9.57-8.18Z" fill="#4AFEBF"/><path d="m125.16 57.88 3.1 2.64-13.5 17.2-4.47-3.82 14.87-16.02Z" fill="#E0E0E0"/><path d="m82.38 104.5 22.36-23.99 2.18 1.86-42.89 50.22a45.2 45.2 0 0 1 1.87-6.82 40.99 40.99 0 0 1 4.28-8.03c.94-.32 3.38-1.23 5.7-2.26 2.89-1.3 4.98-3.06 6.07-6.3.58-1.75.7-3.66.43-4.69Z" fill="#3FCFBD"/><path d="m88.91 110.07 20.19-25.84-2.18-1.86-42.89 50.22c.97-.32 3.62-1.36 6.45-2.9a41.02 41.02 0 0 0 7.26-5.5c.17-.97.68-3.53 1.34-5.98.83-3.05 2.25-5.4 5.28-6.98 1.62-.85 3.5-1.27 4.55-1.16Z" fill="#51EEDA"/><path d="M131.46 59.9a4.07 4.07 0 1 1-6.18-5.29 4.07 4.07 0 0 1 6.18 5.28Z" fill="#4AFEBF"/><path d="M130.2 58.77a2.37 2.37 0 1 1-3.6-3.09 2.37 2.37 0 0 1 3.6 3.09Z" fill="#51EEDA"/><path d="M103.82 66.57c3.98 2.77 5.96 6.01 6.45 7.3-1.32 2.5-4.43 7.2-6.37 5.94-1.94-1.26-5.47-1.86-7-2.01.3-.27 1.09-.92 1.82-1.32.74-.4 2.4-.83 3.13-1-.14-.18-.74-.79-2.06-1.75-1.32-.97-3.23-.98-4.02-.86.18-.25.75-.97 1.61-1.9a7.79 7.79 0 0 1 3.07-1.73c-.59-.47-2-1.64-2.98-2.54-.97-.9-1.74-3.37-2-4.5 1.12.31 4.37 1.6 8.35 4.37ZM123.01 82.96c-3.35-3.5-6.87-4.94-8.2-5.23-2.28 1.7-6.43 5.5-4.89 7.22 1.55 1.72 2.7 5.11 3.08 6.6.23-.34.74-1.22 1.02-2 .28-.8.45-2.5.5-3.25.2.1.9.61 2.06 1.76 1.15 1.15 1.46 3.04 1.47 3.84.22-.22.84-.9 1.62-1.9.77-1 1.14-2.61 1.23-3.3.56.51 1.93 1.73 2.98 2.55 1.05.81 3.6 1.2 4.75 1.28-.48-1.07-2.27-4.07-5.62-7.57Z" fill="#E0E0E0"/><path d="M113.78 81.58c-2.3 2.7-5.78 3.53-7.76 1.84-1.97-1.69-1.7-5.25.6-7.95 2.31-2.7 5.79-3.53 7.77-1.84 1.97 1.69 1.7 5.25-.6 7.95Z" fill="#C4C4C4"/><path d="M113.01 80.92c-1.81 2.13-4.54 2.77-6.1 1.45-1.55-1.33-1.34-4.13.48-6.25 1.81-2.12 4.54-2.77 6.1-1.44 1.55 1.32 1.33 4.12-.48 6.24Z" fill="#51EEDA"/><path d="M111.83 76.85a1.1 1.1 0 1 1-1.66-1.42 1.1 1.1 0 0 1 1.66 1.42ZM168.67 139.83a29.95 29.95 0 1 1-59.9 0 29.95 29.95 0 0 1 59.9 0Z" fill="#fff"/><path fill-rule="evenodd" clip-rule="evenodd" d="M138.72 169.78v-59.9a29.95 29.95 0 0 1 0 59.9Z" fill="#E0E0E0" fill-opacity=".5"/><path fill-rule="evenodd" clip-rule="evenodd" d="M138.72 169.12a29.28 29.28 0 1 0 0-58.57 29.28 29.28 0 0 0 0 58.57Zm0 3.99a33.28 33.28 0 1 0 0-66.56 33.28 33.28 0 0 0 0 66.56Z" fill="#51EEDA"/><path fill-rule="evenodd" clip-rule="evenodd" d="M121.58 124.62c.85-.94 2.36-.96 3.38-.05l13.24 11.93c1.02.92 1.16 2.42.3 3.36-.84.94-2.35.96-3.37.05l-13.24-11.93c-1.02-.92-1.16-2.42-.3-3.36Z" fill="#28BCA9"/><path fill-rule="evenodd" clip-rule="evenodd" d="M136.64 142.12a2.3 2.3 0 0 1 0-3.24l9.6-9.6a2.3 2.3 0 0 1 3.24 3.24l-9.6 9.6c-.89.9-2.34.9-3.24 0Z" fill="#28BCA9"/><circle cx="138.72" cy="139.83" r="4.58" fill="#4AFEBF"/><rect x="137.35" y="114.61" width="2.75" height="6.42" rx="1.38" fill="#141616"/><rect x="137.35" y="158.63" width="2.75" height="6.42" rx="1.38" fill="#141616"/><rect x="163.94" y="138.46" width="2.75" height="6.42" rx="1.38" transform="rotate(90 163.94 138.46)" fill="#141616"/><rect x="119.93" y="138.46" width="2.75" height="6.42" rx="1.38" transform="rotate(90 119.93 138.46)" fill="#141616"/></svg>