<svg width="213" height="212" viewBox="0 0 213 212" fill="none" xmlns="http://www.w3.org/2000/svg">
<path d="M212.713 106C212.713 164.542 165.255 212 106.713 212C48.1707 212 0.712891 164.542 0.712891 106C0.712891 47.4578 48.1707 0 106.713 0C165.255 0 212.713 47.4578 212.713 106Z" fill="#1E2121"/>
<path fill-rule="evenodd" clip-rule="evenodd" d="M117.849 71.7299C108.225 86.7378 88.4506 117.442 86.338 120.195C84.2253 122.949 83.2646 124.085 83.0484 124.309C83.0942 124.296 83.1404 124.284 83.187 124.271C84.5046 123.917 86.1423 123.476 87.5698 124.174C89.0478 124.897 90.3711 125.661 87.3342 129.789C84.9046 133.092 77.956 137.053 74.7854 138.62C72.4872 143.959 67.8276 156.195 67.5752 162.428C67.3228 168.661 67.6625 176.463 67.8639 179.586C70.6686 178.199 77.596 174.592 82.8674 171.257C88.1388 167.922 96.4057 157.769 99.8802 153.109C99.6526 149.579 99.6087 141.581 101.254 137.826C103.311 133.132 104.634 133.896 105.999 134.814C107.317 135.702 107.754 137.34 108.106 138.658C108.119 138.705 108.131 138.751 108.143 138.797C108.229 138.498 108.732 137.098 110.06 133.892C111.389 130.685 128.092 98.2078 136.278 82.3699L127.063 77.0499L117.849 71.7299Z" fill="white"/>
<path d="M119.426 71.3339C110.87 84.6774 90.7982 116.29 88.9199 118.738C87.0415 121.186 86.3107 122.163 86.1184 122.362C86.1591 122.351 86.0769 122.373 86.1184 122.362C87.2899 122.047 89.3341 121.994 90.6033 122.615C91.9173 123.257 90.2642 128.838 87.564 132.509C85.4039 135.445 78.6377 138.627 75.8187 140.021C73.7753 144.768 69.6325 155.647 69.4081 161.188C69.1837 166.73 69.4857 173.667 69.6647 176.443C72.1585 175.21 78.3176 172.003 83.0044 169.038C87.6912 166.073 95.0413 157.046 98.1305 152.903C97.9281 149.764 97.2029 142.257 98.6658 138.918C100.494 134.745 104.501 130.522 105.714 131.339C106.886 132.128 107.961 133.981 108.274 135.153C108.285 135.195 108.274 135.17 108.285 135.211C108.361 134.945 108.83 133.766 110.012 130.915C111.193 128.064 128.534 94.8755 135.811 80.7939L119.426 71.3339Z" fill="#4AFEBF"/>
<path d="M146.376 37.4873L151.669 40.5434L136.433 69.6503L128.786 65.2359L146.376 37.4873Z" fill="#E0E0E0"/>
<path d="M95.9135 118.099L122.395 76.5324L126.12 78.6831L76.4857 164.653C76.4598 163.113 76.6014 158.838 77.3752 154.056C78.1491 149.275 80.4507 143.372 81.5048 141.018C82.7998 140.284 86.1727 138.276 89.3048 136.11C93.2199 133.404 95.8334 130.221 96.556 125.136C96.9442 122.404 96.6043 119.543 95.9135 118.099Z" fill="#3FCFBD"/>
<path d="M107.088 124.55L129.845 80.8333L126.12 78.6826L76.4856 164.652C77.8321 163.905 81.4635 161.644 85.2173 158.584C88.9711 155.523 92.9327 150.578 94.4443 148.488C94.4322 147 94.4852 143.074 94.7942 139.279C95.1803 134.536 96.6299 130.681 100.673 127.512C102.845 125.81 105.492 124.674 107.088 124.55Z" fill="#51EEDA"/>
<path d="M156.24 38.7388C154.552 41.6623 150.814 42.6639 147.89 40.9761C144.967 39.2882 143.965 35.5499 145.653 32.6265C147.341 29.703 151.079 28.7013 154.002 30.3892C156.926 32.0771 157.928 35.8153 156.24 38.7388Z" fill="#4AFEBF"/>
<path d="M154.063 37.4161C153.078 39.1214 150.898 39.7057 149.192 38.7211C147.487 37.7366 146.903 35.5559 147.887 33.8505C148.872 32.1452 151.052 31.5609 152.758 32.5455C154.463 33.5301 155.047 35.7107 154.063 37.4161Z" fill="#51EEDA"/>
<path d="M117.211 56.1789C123.847 59.1736 127.662 63.4325 128.739 65.1876C127.481 69.2536 124.163 77.0534 120.957 75.725C117.75 74.3966 112.36 74.4652 110.066 74.6656C110.434 74.1805 111.413 73.0121 112.394 72.219C113.375 71.4259 115.702 70.3384 116.743 69.8937C116.486 69.6586 115.421 68.9219 113.214 67.8563C111.006 66.7906 108.176 67.3003 107.037 67.6884C107.23 67.2774 107.875 66.0551 108.904 64.4535C109.934 62.8519 112.039 61.5144 112.963 61.0458C111.964 60.5126 109.546 59.1774 107.866 58.1029C106.186 57.0283 104.366 53.5992 103.667 52.019C105.416 52.1578 110.575 53.1841 117.211 56.1789Z" fill="#E0E0E0"/>
<path d="M150.064 75.1454C144.152 70.8959 138.556 69.7216 136.498 69.6656C133.605 72.7883 128.51 79.5618 131.263 81.6744C134.017 83.7871 136.652 88.489 137.626 90.5759C137.862 90.0154 138.385 88.5829 138.581 87.337C138.777 86.0911 138.556 83.5321 138.42 82.4083C138.752 82.5127 139.923 83.0664 141.949 84.4457C143.976 85.8251 144.95 88.5307 145.183 89.711C145.442 89.3378 146.178 88.1683 147.051 86.4762C147.923 84.784 148.029 82.292 147.973 81.2574C148.934 81.8561 151.299 83.2828 153.07 84.2004C154.841 85.1181 158.72 84.9791 160.438 84.7948C159.443 83.349 155.975 79.3949 150.064 75.1454Z" fill="#E0E0E0"/>
<path d="M136.047 75.6369C133.375 80.2658 128.465 82.4345 125.082 80.481C121.698 78.5274 121.121 73.1913 123.794 68.5624C126.466 63.9336 131.376 61.7648 134.759 63.7184C138.143 65.672 138.72 71.0081 136.047 75.6369Z" fill="#C4C4C4"/>
<path d="M134.724 74.8724C132.625 78.5083 128.769 80.2119 126.111 78.6774C123.453 77.1429 123 72.9514 125.099 69.3154C127.199 65.6795 131.055 63.9759 133.713 65.5104C136.371 67.0449 136.824 71.2364 134.724 74.8724Z" fill="#51EEDA"/>
<path d="M131.872 69.174C131.419 69.959 130.415 70.228 129.63 69.7747C128.845 69.3215 128.576 68.3177 129.029 67.5327C129.482 66.7477 130.486 66.4787 131.271 66.932C132.056 67.3852 132.325 68.389 131.872 69.174Z" fill="white"/>
<path d="M151.631 138.71L159.107 133.873L134.713 125.15L143.436 149.544L148.273 142.068L153.51 147.305C154.438 148.233 155.941 148.233 156.868 147.305C157.796 146.378 157.796 144.875 156.868 143.947L151.631 138.71Z" fill="white"/>
<path d="M30 67.618C30 65.437 31.7681 63.6689 33.9491 63.6689H88.5128C90.6938 63.6689 92.4619 65.437 92.4619 67.618V67.618C92.4619 69.799 90.6938 71.5671 88.5128 71.5671H33.9491C31.7681 71.5671 30 69.799 30 67.618V67.618Z" fill="white"/>
<path d="M30 90.2616C30 88.0806 31.7681 86.3125 33.9491 86.3125H88.5128C90.6938 86.3125 92.4619 88.0806 92.4619 90.2616V90.2616C92.4619 92.4426 90.6938 94.2107 88.5128 94.2107H33.9491C31.7681 94.2107 30 92.4426 30 90.2616V90.2616Z" fill="white"/>
<path d="M59.231 66.6443C59.231 72.0928 54.814 76.5098 49.3655 76.5098C43.9169 76.5098 39.5 72.0928 39.5 66.6443C39.5 61.1957 43.9169 56.7788 49.3655 56.7788C54.814 56.7788 59.231 61.1957 59.231 66.6443Z" fill="#4AFEBF"/>
<path fill-rule="evenodd" clip-rule="evenodd" d="M49.3655 74.5098C53.7095 74.5098 57.231 70.9883 57.231 66.6443C57.231 62.3003 53.7095 58.7788 49.3655 58.7788C45.0215 58.7788 41.5 62.3003 41.5 66.6443C41.5 70.9883 45.0215 74.5098 49.3655 74.5098ZM49.3655 76.5098C54.814 76.5098 59.231 72.0928 59.231 66.6443C59.231 61.1957 54.814 56.7788 49.3655 56.7788C43.9169 56.7788 39.5 61.1957 39.5 66.6443C39.5 72.0928 43.9169 76.5098 49.3655 76.5098Z" fill="#4AFEBF"/>
<path d="M80.9614 89.2883C80.9614 94.7369 76.5445 99.1538 71.0959 99.1538C65.6474 99.1538 61.2305 94.7369 61.2305 89.2883C61.2305 83.8398 65.6474 79.4229 71.0959 79.4229C76.5445 79.4229 80.9614 83.8398 80.9614 89.2883Z" fill="#4AFEBF"/>
<path fill-rule="evenodd" clip-rule="evenodd" d="M71.0959 97.1538C75.4399 97.1538 78.9614 93.6323 78.9614 89.2883C78.9614 84.9443 75.4399 81.4229 71.0959 81.4229C66.752 81.4229 63.2305 84.9443 63.2305 89.2883C63.2305 93.6323 66.752 97.1538 71.0959 97.1538ZM71.0959 99.1538C76.5445 99.1538 80.9614 94.7369 80.9614 89.2883C80.9614 83.8398 76.5445 79.4229 71.0959 79.4229C65.6474 79.4229 61.2305 83.8398 61.2305 89.2883C61.2305 94.7369 65.6474 99.1538 71.0959 99.1538Z" fill="#4AFEBF"/>
</svg>
