<svg width="212" height="212" fill="none" xmlns="http://www.w3.org/2000/svg"><circle cx="106" cy="106" r="106" fill="#1E2121"/><path d="M31.5 79.5h149m-149 15h149m-149 15h149m-149 15h149m-149 15h149" stroke="#fff" stroke-linecap="round"/><path opacity=".8" fill="#28BCA9" d="M65.95 77.24h5.78v27.23h-5.78z"/><circle cx="59.96" cy="104.88" r="11.96" fill="#4AFEBF"/><path d="M65.95 65.76c0-2 1.75-3.53 3.72-3.28l19.8 2.57a3.3 3.3 0 0 1 2.88 3.28v12.2c0 1.98-1.75 3.52-3.73 3.26l-22.67-2.94v-15.1Z" fill="#4AFEBF"/><path opacity=".8" fill="#28BCA9" d="M144.06 58.09h4.2v19.82h-4.2z"/><circle cx="139.71" cy="78.21" r="8.71" fill="#4AFEBF"/><path d="M144.06 49.73a2.4 2.4 0 0 1 2.72-2.38l14.41 1.87a2.4 2.4 0 0 1 2.1 2.39v8.87a2.4 2.4 0 0 1-2.72 2.38l-16.5-2.14V49.73Z" fill="#4AFEBF"/><path fill="#28BCA9" d="M97 110.47h7v33h-7zM137 116h7v33h-7z"/><path d="M97 98.54a4 4 0 0 1 4.5-3.96l39 4.98a4 4 0 0 1 3.5 3.97V122l-47-6V98.53Z" fill="#4AFEBF"/><circle cx="129.5" cy="150.5" r="14.5" fill="#4AFEBF"/><circle cx="89.5" cy="144.5" r="14.5" fill="#4AFEBF"/></svg>