<svg width="212" height="212" fill="none" xmlns="http://www.w3.org/2000/svg"><circle cx="106" cy="106" r="106" fill="#1E2121"/><path d="M172.74 71.92a27.95 27.95 0 1 1-55.9 0 27.95 27.95 0 0 1 55.9 0Z" fill="#fff"/><path fill-rule="evenodd" clip-rule="evenodd" d="M144.8 99.86V43.97a27.95 27.95 0 0 1 0 55.9Z" fill="#E0E0E0" fill-opacity=".5"/><path fill-rule="evenodd" clip-rule="evenodd" d="M144.8 99.24a27.33 27.33 0 1 0 0-54.65 27.33 27.33 0 0 0 0 54.65Zm0 3.73a31.05 31.05 0 1 0 0-62.1 31.05 31.05 0 0 0 0 62.1Z" fill="#51EEDA"/><path fill-rule="evenodd" clip-rule="evenodd" d="M128.8 57.72c.79-.87 2.2-.9 3.15-.04l12.36 11.13c.95.85 1.07 2.26.28 3.14-.79.87-2.2.9-3.14.04l-12.36-11.13c-.95-.85-1.08-2.26-.3-3.14Z" fill="#28BCA9"/><path fill-rule="evenodd" clip-rule="evenodd" d="M142.85 74.05a2.14 2.14 0 0 1 0-3.02l8.96-8.96a2.14 2.14 0 1 1 3.02 3.03l-8.95 8.95c-.84.84-2.19.84-3.03 0Z" fill="#28BCA9"/><circle cx="144.79" cy="71.92" r="4.28" fill="#4AFEBF"/><rect x="143.51" y="48.39" width="2.57" height="5.99" rx="1.28" fill="#141616"/><rect x="143.51" y="89.46" width="2.57" height="5.99" rx="1.28" fill="#141616"/><rect x="168.32" y="70.63" width="2.57" height="5.99" rx="1.28" transform="rotate(90 168.32 70.63)" fill="#141616"/><rect x="127.25" y="70.63" width="2.57" height="5.99" rx="1.28" transform="rotate(90 127.25 70.63)" fill="#141616"/><path d="M92.76 65.6h5.98v100.42h-5.98V65.6Z" fill="#4AFEBF"/><path d="M97.89 146.14c6.64 4.45 16.63 4.92 25.78.46 9.16-4.46 14.95-12.62 15.53-20.6-6.64-4.45-16.63-4.91-25.78-.45-9.16 4.45-14.95 12.61-15.53 20.59ZM93.32 146.14c-6.65 4.45-16.64 4.92-25.8.46C58.39 142.14 52.6 133.98 52 126c6.65-4.45 16.64-4.91 25.79-.45 9.15 4.45 14.94 12.61 15.53 20.59ZM132.03 98.27c-.49 6.6-5.29 13.37-12.87 17.06-7.58 3.7-15.86 3.31-21.37-.38.49-6.61 5.28-13.37 12.87-17.07 7.58-3.7 15.86-3.3 21.37.39ZM59.77 98.27c.48 6.6 5.28 13.37 12.86 17.06 7.59 3.7 15.87 3.31 21.37-.38-.48-6.61-5.28-13.37-12.86-17.07-7.59-3.7-15.87-3.3-21.37.39ZM95.62 71.66c4.92-2.84 8.35-9.05 8.38-16.28.03-7.23-3.35-13.47-8.25-16.35-4.92 2.84-8.35 9.06-8.38 16.28-.02 7.23 3.36 13.47 8.25 16.35ZM124.3 74.45c-.39 5.2-4.16 10.5-10.12 13.41-5.96 2.9-12.47 2.6-16.8-.3.39-5.2 4.16-10.5 10.12-13.4 5.96-2.91 12.47-2.6 16.8.3ZM67.5 74.45c.38 5.2 4.15 10.5 10.11 13.41 5.97 2.9 12.47 2.6 16.8-.3-.38-5.2-4.15-10.5-10.11-13.4-5.96-2.91-12.47-2.6-16.8.3Z" fill="#4AFEBF"/><path opacity=".2" fill-rule="evenodd" clip-rule="evenodd" d="M95.42 165.99V39.19l.33-.19c4.9 2.87 8.28 9.12 8.25 16.35-.02 5.57-2.07 10.54-5.26 13.83v13.44a18.76 18.76 0 0 1 8.76-8.5c5.96-2.9 12.47-2.6 16.8.3-.39 5.2-4.16 10.5-10.12 13.41-5.37 2.62-11.18 2.63-15.44.5v22.18c1.82-5.07 6.03-9.79 11.92-12.66 7.58-3.7 15.86-3.3 21.37.38-.49 6.61-5.29 13.37-12.87 17.07-7.16 3.49-14.94 3.34-20.42.2v26.16c2-6.44 7.23-12.52 14.68-16.15 9.15-4.46 19.14-4 25.78.46-.58 7.98-6.37 16.14-15.52 20.6-8.77 4.27-18.3 4.02-24.94.08v19.34h-3.32Z" fill="#000"/><path fill-rule="evenodd" clip-rule="evenodd" d="M126.84 174H63.5c1.96-9.37 15.4-16.63 31.67-16.63 16.28 0 29.71 7.26 31.67 16.63Z" fill="#F8B893"/><path d="M95.42 174v-16.63c16.16.08 29.47 7.3 31.42 16.63H95.42Z" fill="#DD8958"/></svg>