<svg width="212" height="212" fill="none" xmlns="http://www.w3.org/2000/svg"><circle cx="106" cy="106" r="106" fill="#1E2121"/><path d="M106.2 160.6V48.98c6.82-.38 20.78-.3 22.02 0 1.54.39 19.3 6.96 22 8.89 2.17 1.54 14.3 28.19 20.1 41.32l-23.95 11.97-5.41-11.97v61.4H106.2Z" fill="#51EEDA"/><path opacity=".1" fill-rule="evenodd" clip-rule="evenodd" d="m140.98 117.3-.38.22-5.02-25.5 10.81-1.15 9.66 15.52-9.66 4.82-5.4-11.97v18.06Z" fill="#000"/><path d="M106.2 160.6V48.98c-6.82-.38-20.78-.3-22.01 0-1.55.39-19.31 6.96-22.02 8.89-2.16 1.54-14.29 28.19-20.08 41.32l23.95 11.97 5.4-11.97v61.4h34.76Z" fill="#51EEDA"/><path opacity=".1" fill-rule="evenodd" clip-rule="evenodd" d="m71.44 117.3.39.22 5.02-25.5-10.82-1.15-9.65 15.52 9.65 4.82 5.41-11.97v18.06Z" fill="#000"/><path d="M43.46 95.41a.77.77 0 0 0-1.03.35l-3.09 6.23a.77.77 0 0 0 .35 1.04L63.92 115c.39.2.85.04 1.04-.35l3.08-6.23a.77.77 0 0 0-.35-1.03L43.46 95.4ZM168.54 95.41a.77.77 0 0 1 1.03.35l3.09 6.23c.19.38.03.85-.35 1.04L148.08 115a.77.77 0 0 1-1.04-.35l-3.08-6.23a.77.77 0 0 1 .35-1.03l24.23-11.99ZM140.96 151.6v8.25c0 .41-.35.75-.77.75H72.2a.76.76 0 0 1-.77-.75v-8.25h69.52ZM107.75 78.29c0 .32-.35.58-.78.58h-1.54c-.43 0-.77-.26-.77-.58v-22.8c0-.33.34-.59.77-.59h1.54c.43 0 .78.26.78.59v22.8Z" fill="#fff"/><path d="M107.45 61.29a.77.77 0 0 1-1.09.04l-1.14-1.04a.77.77 0 0 1-.04-1.1l6.05-6.58a.77.77 0 0 1 1.1-.05l1.13 1.05c.32.29.34.78.05 1.09l-6.06 6.59Z" fill="#fff"/><path d="M105.05 61.29c.3.3.78.33 1.1.04l1.13-1.04a.77.77 0 0 0 .05-1.1l-6.06-6.58a.77.77 0 0 0-1.09-.05l-1.13 1.05A.77.77 0 0 0 99 54.7l6.05 6.59ZM43.46 95.41a.77.77 0 0 0-1.03.35l-3.09 6.23a.77.77 0 0 0 .35 1.04l24.57 12.15c.39.2.85.03 1.04-.35l3.08-6.23a.77.77 0 0 0-.35-1.03L43.46 95.4Z" fill="#fff"/><path d="M106.2 58.76 91.52 42.54h29.36L106.2 58.76Z" fill="#28BCA9"/><path fill-rule="evenodd" clip-rule="evenodd" d="m97.12 48.72 9.08 10.04 9.08-10.04H97.13Z" fill="#144741"/><g filter="url(#a)"><path d="m84.57 48.72 6.95-6.18 11.2 12.36-11.18 7.94a.77.77 0 0 1-1.16-.33l-5.8-13.79Z" fill="#fff"/></g><g filter="url(#b)"><path d="m127.83 48.72-6.95-6.18-11.2 12.36 11.18 7.94c.4.29.97.13 1.16-.33l5.8-13.79Z" fill="#fff"/></g><path fill="#51EEDA" d="M97.38 78.88h18.25v72.72H97.38z"/><path d="M105.99 91.08 95.4 108.15c-.13.2-.06.47.14.6l10.8 6.82c.14.1.33.1.48 0l10.5-6.81c.2-.14.26-.4.13-.6l-10.71-17.09a.44.44 0 0 0-.75 0Z" fill="#fff"/><path d="m106.73 121.48 9.28-5.77c.4-.25.86.22.6.62l-9.35 14.2a.44.44 0 0 1-.73.01l-10.11-14.11c-.28-.4.18-.9.59-.64l9.25 5.69c.15.09.33.09.47 0Z" fill="#fff"/><defs><filter id="a" x="84.57" y="42.54" width="19.15" height="22.44" filterUnits="userSpaceOnUse" color-interpolation-filters="sRGB"><feFlood flood-opacity="0" result="BackgroundImageFix"/><feColorMatrix in="SourceAlpha" values="0 0 0 0 0 0 0 0 0 0 0 0 0 0 0 0 0 0 127 0" result="hardAlpha"/><feOffset dx="1" dy="2"/><feComposite in2="hardAlpha" operator="out"/><feColorMatrix values="0 0 0 0 0 0 0 0 0 0 0 0 0 0 0 0 0 0 0.15 0"/><feBlend in2="BackgroundImageFix" result="effect1_dropShadow_1231_4523"/><feBlend in="SourceGraphic" in2="effect1_dropShadow_1231_4523" result="shape"/></filter><filter id="b" x="108.68" y="42.54" width="19.15" height="22.44" filterUnits="userSpaceOnUse" color-interpolation-filters="sRGB"><feFlood flood-opacity="0" result="BackgroundImageFix"/><feColorMatrix in="SourceAlpha" values="0 0 0 0 0 0 0 0 0 0 0 0 0 0 0 0 0 0 127 0" result="hardAlpha"/><feOffset dx="-1" dy="2"/><feComposite in2="hardAlpha" operator="out"/><feColorMatrix values="0 0 0 0 0 0 0 0 0 0 0 0 0 0 0 0 0 0 0.15 0"/><feBlend in2="BackgroundImageFix" result="effect1_dropShadow_1231_4523"/><feBlend in="SourceGraphic" in2="effect1_dropShadow_1231_4523" result="shape"/></filter></defs></svg>