<svg width="212" height="212" fill="none" xmlns="http://www.w3.org/2000/svg"><circle cx="106" cy="106" r="106" fill="#1E2121"/><path fill-rule="evenodd" clip-rule="evenodd" d="m62.38 117.26 71.05-20.68.63 2.16a2 2 0 1 0 3.84-1.11l-.63-2.16 21.13-6.15a4 4 0 0 1 4.96 2.72l1.68 5.79c-.32.07-.64.16-.97.25a18 18 0 1 0 11.02 34.26l1.68 5.79a4 4 0 0 1-2.72 4.96l-21.13 6.15-.56-1.93a2 2 0 0 0-3.84 1.12l.56 1.92-71.05 20.68a4 4 0 0 1-4.96-2.72l-13.41-46.09a4 4 0 0 1 2.72-4.96Zm81.36 7.57a2 2 0 0 0-1.36 2.48l.9 3.12a2 2 0 0 0 3.84-1.12l-.9-3.12a2 2 0 0 0-2.48-1.36Zm1.71 13.04a2 2 0 1 1 3.84-1.12l.9 3.12a2 2 0 1 1-3.83 1.12l-.91-3.12Zm-6.15-21.12a2 2 0 1 1 3.84-1.12l.91 3.12a2 2 0 0 1-3.84 1.12l-.9-3.12Zm-1.71-13.04a2 2 0 0 0-1.36 2.48l.9 3.12a2 2 0 0 0 3.85-1.12l-.91-3.12a2 2 0 0 0-2.48-1.36Z" fill="#fff"/><path fill-rule="evenodd" clip-rule="evenodd" d="m62.38 117.26 71.05-20.68.63 2.16a2 2 0 1 0 3.84-1.11l-.63-2.16 21.13-6.15a4 4 0 0 1 4.96 2.72l1.68 5.79a18.2 18.2 0 0 0-4.68 1.8l-.4-1.39a3 3 0 0 0-3.73-2.04L67.9 121.9a3 3 0 0 0-2.04 3.72l10.62 36.49a3 3 0 0 0 3.71 2.04l88.34-25.7a3 3 0 0 0 2.04-3.72l-.4-1.4a18.12 18.12 0 0 0 4.92-.99l1.68 5.79a4 4 0 0 1-2.72 4.96l-21.13 6.15-.56-1.93a2 2 0 0 0-3.84 1.12l.56 1.92-71.05 20.68a4 4 0 0 1-4.96-2.72l-13.41-46.09a4 4 0 0 1 2.72-4.96Zm97.09-17.1a18 18 0 0 0 9.66 33.21l.48 1.63a2 2 0 0 1-1.36 2.49l-88.34 25.7a2 2 0 0 1-2.47-1.36l-10.62-36.49a2 2 0 0 1 1.36-2.47l88.33-25.71a2 2 0 0 1 2.48 1.36l.48 1.64Zm-15.73 24.67a2 2 0 0 0-1.36 2.48l.9 3.12a2 2 0 0 0 3.84-1.12l-.9-3.12a2 2 0 0 0-2.48-1.36Zm1.71 13.04a2 2 0 1 1 3.84-1.12l.9 3.12a2 2 0 1 1-3.83 1.12l-.91-3.12Zm-6.15-21.12a2 2 0 1 1 3.84-1.12l.91 3.12a2 2 0 0 1-3.84 1.12l-.9-3.12Zm-1.71-13.04a2 2 0 0 0-1.36 2.48l.9 3.12a2 2 0 0 0 3.85-1.12l-.91-3.12a2 2 0 0 0-2.48-1.36Z" fill="#51EEDA"/><path d="m85.05 140.32-.18-.6a14.7 14.7 0 0 1-.59-4.88c.1-1.64.45-3.18 1.08-4.61a10.32 10.32 0 0 1 6.82-6.01 9.3 9.3 0 0 1 4.53-.28c1.41.28 2.7.79 3.89 1.53a16.9 16.9 0 0 1 3.18 2.54c.92.94 1.7 1.86 2.36 2.76a70.6 70.6 0 0 1 1.54 2.11l.28.95c-.03.64-.08 1.52-.16 2.63-.07 1.1-.25 2.3-.52 3.6-.27 1.3-.7 2.57-1.3 3.84-.59 1.26-1.4 2.4-2.45 3.4a9.44 9.44 0 0 1-3.96 2.17 10.52 10.52 0 0 1-9.02-1.4 13.4 13.4 0 0 1-3.37-3.29 14.9 14.9 0 0 1-2.13-4.46Zm3.99-1.82.17.61c.36 1.22.83 2.32 1.43 3.32.61.98 1.32 1.8 2.13 2.46a6.13 6.13 0 0 0 5.8 1.17 5.9 5.9 0 0 0 2.64-1.53 8.67 8.67 0 0 0 1.68-2.47c.41-.91.71-1.84.9-2.77a17.87 17.87 0 0 0 .41-4.37l-.27-.94a17.97 17.97 0 0 0-2.68-3.42c-.66-.7-1.4-1.31-2.25-1.86a8 8 0 0 0-2.76-1.18c-.98-.23-2-.2-3.07.12a5.93 5.93 0 0 0-2.67 1.55 6.46 6.46 0 0 0-1.55 2.55 9.8 9.8 0 0 0-.48 3.24c.03 1.15.22 2.32.57 3.52Zm38.52-11.2.18.6c.48 1.63.67 3.27.57 4.91a13.4 13.4 0 0 1-1.08 4.59 10.82 10.82 0 0 1-2.67 3.73 10.35 10.35 0 0 1-4.17 2.28c-1.6.47-3.11.57-4.53.3-1.4-.3-2.7-.81-3.9-1.56a17.43 17.43 0 0 1-3.15-2.54 28.61 28.61 0 0 1-3.89-4.9l-.27-.94c.02-.65.07-1.51.14-2.6.08-1.12.26-2.32.54-3.6.27-1.3.7-2.59 1.3-3.85a11.5 11.5 0 0 1 2.46-3.38 9.45 9.45 0 0 1 4-2.21c1.61-.47 3.19-.57 4.71-.3 1.53.27 2.94.84 4.24 1.72 1.31.87 2.44 1.98 3.38 3.31.95 1.32 1.67 2.8 2.14 4.43Zm-3.98 1.81-.18-.6c-.35-1.2-.83-2.3-1.44-3.27a9.84 9.84 0 0 0-2.14-2.48 6.45 6.45 0 0 0-2.68-1.32 5.81 5.81 0 0 0-3.06.11 5.94 5.94 0 0 0-2.67 1.56 8.1 8.1 0 0 0-1.68 2.46 13.6 13.6 0 0 0-.92 2.79 17.91 17.91 0 0 0-.43 4.32l.28.94a17.97 17.97 0 0 0 2.7 3.46c.66.7 1.41 1.31 2.24 1.87.84.55 1.76.94 2.73 1.18.98.22 2 .17 3.06-.14a6.08 6.08 0 0 0 4.23-4.08c.35-1 .52-2.07.5-3.22a13.4 13.4 0 0 0-.54-3.58Z" fill="#fff"/><g filter="url(#a)"><path fill-rule="evenodd" clip-rule="evenodd" d="m34.23 123.42 41.16-61.49 1.87 1.25a2 2 0 1 0 2.22-3.32l-1.87-1.25 12.24-18.29a4 4 0 0 1 5.55-1.1l5 3.36c-.2.26-.38.53-.57.81a18 18 0 1 0 30.45 19.18l5 3.36a4 4 0 0 1 1.1 5.54l-12.23 18.29-1.66-1.12a2 2 0 1 0-2.23 3.33l1.66 1.11-41.16 61.5a4 4 0 0 1-5.55 1.1l-39.89-26.7a4 4 0 0 1-1.1-5.55Zm67.2-46.46a2 2 0 0 0 .55 2.77l2.7 1.8a2 2 0 1 0 2.23-3.32l-2.7-1.8a2 2 0 0 0-2.78.55Zm9.7 8.89a2 2 0 1 1 2.22-3.32l2.7 1.8a2 2 0 0 1-2.23 3.33l-2.7-1.81ZM92.82 73.6a2 2 0 0 1 2.23-3.32l2.7 1.8a2 2 0 1 1-2.22 3.33l-2.7-1.8Zm-9.68-8.9a2 2 0 0 0 .55 2.78l2.7 1.81a2 2 0 1 0 2.22-3.32l-2.7-1.81a2 2 0 0 0-2.77.55Z" fill="#fff"/><path fill-rule="evenodd" clip-rule="evenodd" d="m34.23 123.42 41.16-61.49 1.87 1.25a2 2 0 1 0 2.22-3.32l-1.87-1.25 12.24-18.29a4 4 0 0 1 5.55-1.1l5 3.36a18.69 18.69 0 0 0-2.43 4.39l-1.2-.8a3 3 0 0 0-4.16.82l-51.17 76.45a3 3 0 0 0 .82 4.16l31.58 21.14a3 3 0 0 0 4.16-.83l51.18-76.45a3 3 0 0 0-.83-4.16l-1.2-.8a18.08 18.08 0 0 0 3.13-3.93l5 3.36a4 4 0 0 1 1.1 5.54l-12.23 18.29-1.66-1.12a2 2 0 1 0-2.23 3.33l1.66 1.11-41.16 61.5a4 4 0 0 1-5.55 1.1l-39.89-26.7a4 4 0 0 1-1.1-5.55Zm63.4-75.48a18 18 0 0 0 28.75 19.24l1.42.95a2 2 0 0 1 .55 2.77l-51.18 76.46a2 2 0 0 1-2.77.55l-31.58-21.14a2 2 0 0 1-.55-2.77l51.17-76.46a2 2 0 0 1 2.78-.55l1.41.95Zm3.8 29.02a2 2 0 0 0 .55 2.77l2.7 1.8a2 2 0 1 0 2.23-3.32l-2.7-1.8a2 2 0 0 0-2.78.55Zm9.7 8.89a2 2 0 1 1 2.22-3.32l2.7 1.8a2 2 0 0 1-2.23 3.33l-2.7-1.81ZM92.82 73.6a2 2 0 0 1 2.23-3.32l2.7 1.8a2 2 0 1 1-2.22 3.33l-2.7-1.8Zm-9.68-8.9a2 2 0 0 0 .55 2.78l2.7 1.81a2 2 0 1 0 2.22-3.32l-2.7-1.81a2 2 0 0 0-2.77.55Z" fill="#4AFEBF"/><path d="m66.41 126.53-.52-.35a14.7 14.7 0 0 1-3.6-3.36 13.35 13.35 0 0 1-2.13-4.22 10.33 10.33 0 0 1 1.36-8.99 9.3 9.3 0 0 1 3.3-3.12c1.26-.7 2.58-1.14 3.96-1.32 1.4-.2 2.75-.23 4.07-.1 1.31.12 2.5.32 3.58.59 1.08.25 1.93.46 2.55.63l.81.55c.4.5.92 1.21 1.57 2.12a25.8 25.8 0 0 1 1.91 3.08 17.47 17.47 0 0 1 1.48 3.78c.36 1.35.46 2.75.3 4.18a9.45 9.45 0 0 1-1.63 4.21 10.53 10.53 0 0 1-7.82 4.73 13.4 13.4 0 0 1-4.7-.36 14.91 14.91 0 0 1-4.49-2.05Zm1.89-3.95.52.35a14 14 0 0 0 3.23 1.63c1.1.35 2.17.52 3.21.5a6.13 6.13 0 0 0 5.2-2.84c.62-.91.96-1.86 1.04-2.85.07-1-.03-2-.3-2.96-.27-.97-.64-1.88-1.1-2.7a17.96 17.96 0 0 0-2.48-3.62l-.82-.55a17.97 17.97 0 0 0-4.25-.9c-.95-.1-1.92-.1-2.92.02-1.01.12-1.97.4-2.87.88a5.9 5.9 0 0 0-2.28 2.05c-.62.94-.97 1.9-1.04 2.91-.09 1 .06 1.98.45 2.95.38.98.95 1.9 1.71 2.79.76.86 1.66 1.64 2.7 2.34Zm22.32-33.35.52.36c1.42.94 2.62 2.07 3.6 3.39.97 1.3 1.67 2.7 2.12 4.2.44 1.51.56 3.03.34 4.59-.2 1.53-.77 3.01-1.72 4.43a9.58 9.58 0 0 1-3.28 3.13 11.87 11.87 0 0 1-3.98 1.31c-1.39.19-2.74.21-4.06.08a28.55 28.55 0 0 1-6.13-1.25l-.81-.55c-.4-.5-.92-1.2-1.57-2.1-.65-.9-1.28-1.93-1.9-3.1a17.49 17.49 0 0 1-1.47-3.77 11.5 11.5 0 0 1-.29-4.17c.16-1.44.7-2.86 1.64-4.26s2.08-2.5 3.43-3.27a10.9 10.9 0 0 1 4.35-1.4 14.31 14.31 0 0 1 9.2 2.38Zm-1.89 3.96-.53-.35a13 13 0 0 0-3.2-1.58 9.8 9.8 0 0 0-3.23-.53 6.46 6.46 0 0 0-2.9.71 5.81 5.81 0 0 0-2.28 2.06c-.62.93-.97 1.9-1.04 2.9a8.1 8.1 0 0 0 .3 2.97c.27.97.63 1.88 1.08 2.73a17.96 17.96 0 0 0 2.45 3.59l.82.54a17.98 17.98 0 0 0 4.29.92c.95.1 1.92.1 2.91-.01 1-.12 1.96-.4 2.86-.86a6.04 6.04 0 0 0 2.26-2.06 6.1 6.1 0 0 0 .61-5.85 9.52 9.52 0 0 0-1.68-2.8 13.34 13.34 0 0 0-2.72-2.38Z" fill="#fff"/></g><defs><filter id="a" x="33.55" y="38.55" width="104.52" height="123.8" filterUnits="userSpaceOnUse" color-interpolation-filters="sRGB"><feFlood flood-opacity="0" result="BackgroundImageFix"/><feColorMatrix in="SourceAlpha" values="0 0 0 0 0 0 0 0 0 0 0 0 0 0 0 0 0 0 127 0" result="hardAlpha"/><feOffset dx="1" dy="6"/><feComposite in2="hardAlpha" operator="out"/><feColorMatrix values="0 0 0 0 0 0 0 0 0 0 0 0 0 0 0 0 0 0 0.25 0"/><feBlend in2="BackgroundImageFix" result="effect1_dropShadow_1231_4596"/><feBlend in="SourceGraphic" in2="effect1_dropShadow_1231_4596" result="shape"/></filter></defs></svg>