<svg width="212" height="212" fill="none" xmlns="http://www.w3.org/2000/svg"><circle cx="106" cy="106" r="106" fill="#1E2121"/><path fill-rule="evenodd" clip-rule="evenodd" d="M117.14 71.73c-9.63 15-29.4 45.71-31.51 48.46a73.78 73.78 0 0 1-3.3 4.12l.15-.04c1.31-.35 2.95-.8 4.38-.1 1.48.73 2.8 1.5-.24 5.62-2.43 3.3-9.38 7.26-12.55 8.83-2.3 5.34-6.95 17.57-7.2 23.8-.26 6.24.08 14.04.28 17.17 2.8-1.4 9.73-5 15-8.33 5.28-3.34 13.54-13.5 17.02-18.15-.23-3.53-.27-11.53 1.37-15.29 2.06-4.69 3.38-3.92 4.75-3 1.32.88 1.75 2.52 2.1 3.84l.04.14c.09-.3.6-1.7 1.92-4.9 1.33-3.22 18.03-35.7 26.22-51.53l-9.22-5.32-9.21-5.32Z" fill="#fff"/><path d="M118.72 71.33c-8.56 13.35-28.63 44.96-30.51 47.4-1.88 2.46-2.61 3.43-2.8 3.63.04 0-.04.01 0 0 1.17-.31 3.21-.36 4.48.25 1.32.65-.34 6.23-3.04 9.9-2.16 2.94-8.92 6.12-11.74 7.51-2.05 4.75-6.19 15.63-6.41 21.17-.23 5.54.08 12.48.25 15.25 2.5-1.23 8.66-4.44 13.34-7.4 4.7-2.97 12.04-12 15.13-16.14-.2-3.14-.93-10.64.54-13.98 1.82-4.17 5.83-8.4 7.04-7.58a7.75 7.75 0 0 1 2.56 3.81c.02.04 0 .02.01.06.08-.27.55-1.44 1.73-4.3 1.18-2.84 18.52-36.03 25.8-50.12l-16.38-9.46Z" fill="#4AFEBF"/><path d="m145.66 37.49 5.3 3.05-15.24 29.11-7.65-4.41 17.6-27.75Z" fill="#E0E0E0"/><path d="m95.2 118.1 26.48-41.57 3.73 2.15-49.64 85.97c-.02-1.54.12-5.81.9-10.6.77-4.78 3.07-10.68 4.12-13.03 1.3-.74 4.67-2.75 7.8-4.91 3.92-2.7 6.53-5.89 7.25-10.98.4-2.73.05-5.59-.64-7.03Z" fill="#3FCFBD"/><path d="m106.38 124.55 22.75-43.72-3.72-2.15-49.64 85.97c1.35-.75 4.98-3 8.74-6.07 3.75-3.06 7.71-8 9.22-10.1 0-1.48.04-5.4.35-9.2.39-4.74 1.84-8.6 5.88-11.77 2.17-1.7 4.82-2.84 6.42-2.96Z" fill="#51EEDA"/><path d="M155.53 38.74a6.11 6.11 0 1 1-10.59-6.11 6.11 6.11 0 0 1 10.59 6.1Z" fill="#4AFEBF"/><path d="M153.35 37.42a3.57 3.57 0 1 1-6.18-3.57 3.57 3.57 0 0 1 6.18 3.57Z" fill="#51EEDA"/><path d="M116.5 56.18c6.64 3 10.45 7.25 11.53 9-1.26 4.07-4.58 11.87-7.78 10.54-3.21-1.32-8.6-1.25-10.9-1.05.37-.49 1.35-1.66 2.33-2.45.98-.8 3.31-1.88 4.35-2.33-.25-.23-1.32-.97-3.53-2.03-2.2-1.07-5.03-.56-6.17-.17.2-.41.84-1.63 1.86-3.24 1.03-1.6 3.14-2.94 4.06-3.4-1-.54-3.41-1.87-5.1-2.95-1.67-1.07-3.5-4.5-4.2-6.08 1.76.14 6.91 1.16 13.55 4.16ZM149.35 75.15c-5.91-4.25-11.5-5.43-13.56-5.48-2.9 3.12-8 9.9-5.24 12 2.75 2.12 5.4 6.82 6.36 8.9.24-.55.76-1.99.96-3.23.2-1.25-.03-3.8-.16-4.93.33.1 1.5.66 3.53 2.04 2.02 1.38 3 4.08 3.23 5.26.26-.37 1-1.54 1.87-3.23.87-1.7.98-4.19.92-5.22.96.6 3.33 2.02 5.1 2.94 1.77.92 5.65.78 7.37.6-1-1.45-4.47-5.4-10.38-9.65Z" fill="#E0E0E0"/><path d="M135.34 75.64c-2.68 4.63-7.59 6.8-10.97 4.84-3.38-1.95-3.96-7.29-1.29-11.92s7.58-6.8 10.97-4.84c3.38 1.95 3.96 7.29 1.29 11.92Z" fill="#C4C4C4"/><path d="M134.01 74.87c-2.1 3.64-5.95 5.34-8.61 3.8-2.66-1.53-3.11-5.72-1.01-9.35 2.1-3.64 5.95-5.34 8.61-3.8 2.66 1.53 3.11 5.72 1.01 9.35Z" fill="#51EEDA"/><path d="M131.16 69.17a1.64 1.64 0 1 1-2.84-1.64 1.64 1.64 0 0 1 2.84 1.64ZM150.92 138.71l7.48-4.84-24.4-8.72 8.72 24.4 4.84-7.48 5.24 5.24a2.37 2.37 0 1 0 3.36-3.36l-5.24-5.24Z" fill="#fff"/><rect x="29.29" y="63.67" width="62.46" height="7.9" rx="3.95" fill="#fff"/><rect x="29.29" y="86.31" width="62.46" height="7.9" rx="3.95" fill="#fff"/><circle cx="48.65" cy="66.64" r="8.87" fill="#4AFEBF" stroke="#E0E0E0" stroke-width="2"/><circle cx="70.38" cy="89.29" r="8.87" fill="#4AFEBF" stroke="#E0E0E0" stroke-width="2"/></svg>