<svg width="212" height="212" fill="none" xmlns="http://www.w3.org/2000/svg"><circle cx="106" cy="106" r="106" fill="#1E2121"/><circle cx="106.12" cy="106.12" r="65.12" fill="#1E2121" stroke="#fff" stroke-opacity=".5" stroke-width="2" stroke-linecap="round" stroke-dasharray="4 6"/><path d="M35 135.12a13.12 13.12 0 1 0 26.24 0 13.12 13.12 0 0 0-26.24 0ZM146 142.12a13.12 13.12 0 1 0 26.23 0 13.12 13.12 0 0 0-26.24 0Z" fill="#51EEDA" stroke="#1E2121" stroke-width="6"/><path d="M58.21 82.01a11.36 11.36 0 1 0-19.7-11.3A11.36 11.36 0 0 0 58.2 82ZM116.21 177.01a11.36 11.36 0 1 0-19.7-11.3 11.36 11.36 0 0 0 19.7 11.3ZM176.2 81.01a11.36 11.36 0 1 0-19.7-11.3A11.36 11.36 0 0 0 176.2 81Z" fill="#4AFEBF" stroke="#1E2121" stroke-width="6"/><path d="M107.12 54.32a13.12 13.12 0 1 0 0-26.24 13.12 13.12 0 0 0 0 26.24Z" fill="#51EEDA" stroke="#1E2121" stroke-width="6"/><g filter="url(#a)" shape-rendering="crispEdges"><circle cx="107.5" cy="106.5" r="29.5" fill="#1E2121"/><circle cx="107.5" cy="106.5" r="30" stroke="#fff" stroke-opacity=".5"/></g><path d="M98.91 102.51a1.06 1.06 0 0 1-.18-1.5l1.81-2.28a1.06 1.06 0 0 1 1.67 1.32l-1.8 2.29c-.37.46-1.04.54-1.5.17Z" fill="#4AFEBF"/><path d="M111.03 106.5a3.5 3.5 0 1 1-7.02 0 3.5 3.5 0 0 1 7.02 0Z" fill="#51EEDA"/><path fill-rule="evenodd" clip-rule="evenodd" d="M109.84 120.85a3.05 3.05 0 0 1-4.65 0l-10.08-11.87a3.05 3.05 0 0 1 0-3.96l1-1.18a1.53 1.53 0 1 1 2.33 1.97l-1 1.19 10.08 11.87 2.92-3.44a1.52 1.52 0 1 1 2.33 1.98l-2.92 3.44Zm6.31-9.78a1.53 1.53 0 0 1-.17-2.15l1.63-1.92-10.09-11.87-2.12 2.5a1.53 1.53 0 0 1-2.33-1.98l2.13-2.5a3.05 3.05 0 0 1 4.64 0l10.1 11.87a3.05 3.05 0 0 1 0 3.96l-1.64 1.91c-.54.65-1.5.72-2.15.18Z" fill="url(#b)"/><path fill-rule="evenodd" clip-rule="evenodd" d="M107.52 88.53a18.47 18.47 0 1 0 0 36.94 1.53 1.53 0 0 1 0 3.05 21.52 21.52 0 1 1 0-43.04 1.53 1.53 0 0 1 0 3.05Z" fill="url(#c)"/><path fill-rule="evenodd" clip-rule="evenodd" d="M120.51 122.28c-.6-.6-.59-1.57.01-2.16a18.41 18.41 0 0 0 5.47-13.12c0-5.13-2.1-9.77-5.47-13.12a1.53 1.53 0 0 1 2.15-2.17c3.93 3.9 6.37 9.31 6.37 15.29 0 5.98-2.44 11.39-6.37 15.29-.6.59-1.57.59-2.16-.01Z" fill="url(#d)"/><path d="M116.6 125.48a1.64 1.64 0 1 1-3.28 0 1.64 1.64 0 0 1 3.28 0Z" fill="#4AFEBF"/><defs><linearGradient id="b" x1="107.52" y1="121.92" x2="107.52" y2="92.08" gradientUnits="userSpaceOnUse"><stop stop-color="#4AFEBF"/><stop offset="1" stop-color="#51EEDA"/></linearGradient><linearGradient id="c" x1="97.52" y1="85.48" x2="97.52" y2="128.52" gradientUnits="userSpaceOnUse"><stop stop-color="#4AFEBF"/><stop offset="1" stop-color="#51EEDA"/></linearGradient><linearGradient id="d" x1="124.56" y1="122.73" x2="124.56" y2="91.27" gradientUnits="userSpaceOnUse"><stop stop-color="#4AFEBF"/><stop offset="1" stop-color="#51EEDA"/></linearGradient><filter id="a" x="71" y="70" width="73" height="73" filterUnits="userSpaceOnUse" color-interpolation-filters="sRGB"><feFlood flood-opacity="0" result="BackgroundImageFix"/><feColorMatrix in="SourceAlpha" values="0 0 0 0 0 0 0 0 0 0 0 0 0 0 0 0 0 0 127 0" result="hardAlpha"/><feOffset/><feGaussianBlur stdDeviation="3"/><feComposite in2="hardAlpha" operator="out"/><feColorMatrix values="0 0 0 0 1 0 0 0 0 1 0 0 0 0 1 0 0 0 0.5 0"/><feBlend in2="BackgroundImageFix" result="effect1_dropShadow_1231_4401"/><feBlend in="SourceGraphic" in2="effect1_dropShadow_1231_4401" result="shape"/></filter></defs></svg>