<svg width="213" height="212" viewBox="0 0 213 212" fill="none" xmlns="http://www.w3.org/2000/svg">
<path d="M212.912 106C212.912 164.542 165.454 212 106.912 212C48.3699 212 0.912109 164.542 0.912109 106C0.912109 47.4578 48.3699 0 106.912 0C165.454 0 212.912 47.4578 212.912 106Z" fill="#1E2121"/>
<path fill-rule="evenodd" clip-rule="evenodd" d="M78.5252 89.4674L57.2157 62.6445L35.9062 89.4674H46.6676V125.91H67.7638V89.4674H78.5252Z" fill="#4AFEBF"/>
<path fill-rule="evenodd" clip-rule="evenodd" d="M177.499 96.1182L160.079 74.1904L142.658 96.1182H151.456V125.91H168.702V96.1182H177.499Z" fill="#4AFEBF"/>
<path d="M69.1366 56.5355C72.2252 54.7706 75.8163 58.0063 77.2258 59.8447C78.2063 65.7278 79.579 77.5673 77.2258 77.8615C74.2843 78.2292 72.8135 76.023 72.4458 75.1038C72.0781 74.1846 68.2174 68.8531 66.9305 65.7278C65.6436 62.6024 65.2759 58.7417 69.1366 56.5355Z" fill="#F6A678"/>
<path d="M71.2046 61.3037C72.8809 60.3458 74.83 62.102 75.5949 63.0998C76.1271 66.2927 76.8721 72.7186 75.5949 72.8782C73.9985 73.0778 73.2002 71.8804 73.0007 71.3815C72.8011 70.8826 70.7057 67.989 70.0073 66.2927C69.3088 64.5965 69.1092 62.5011 71.2046 61.3037Z" fill="#DD8958"/>
<path d="M144.775 56.5355C141.687 54.7706 138.096 58.0063 136.686 59.8447C135.706 65.7278 134.333 77.5673 136.686 77.8615C139.628 78.2292 141.099 76.023 141.466 75.1038C141.834 74.1846 145.695 68.8531 146.982 65.7278C148.269 62.6024 148.636 58.7417 144.775 56.5355Z" fill="#F6A678"/>
<path d="M142.707 61.3037C141.031 60.3458 139.082 62.102 138.317 63.0998C137.785 66.2927 137.04 72.7186 138.317 72.8782C139.914 73.0778 140.712 71.8804 140.911 71.3815C141.111 70.8826 143.206 67.989 143.905 66.2927C144.603 64.5965 144.803 62.5011 142.707 61.3037Z" fill="#DD8958"/>
<path d="M156.715 174.526C157.303 172.909 158.736 162.331 159.717 157.797L143.57 151.914C141.701 153.262 137.545 156.326 135.872 157.797C134.199 159.267 133.137 160.799 132.815 161.382L135.872 165.449L137.411 164.415C136.002 166.437 133.256 170.702 133.551 171.585C133.845 172.467 144.459 177.1 149.729 179.306C151.812 178.387 156.127 176.144 156.715 174.526Z" fill="#F6A678"/>
<path d="M148.134 178.7L151.352 172.633L145.744 177.597L148.134 178.7Z" fill="#DD8958"/>
<path d="M142.689 176.31L144.639 172.633L141.24 175.642L142.689 176.31Z" fill="#DD8958"/>
<path d="M147.307 163.533C151.426 164.562 154.355 168.619 155.305 170.519C150.11 166.115 146.88 164.471 140.138 164.084C140.812 163.472 143.189 162.503 147.307 163.533Z" fill="#ED935F"/>
<path d="M57.4315 174.526C56.8432 172.909 55.4102 162.331 54.4297 157.797L70.5764 151.914C72.4455 153.262 76.6019 156.326 78.2749 157.797C79.9479 159.267 81.0096 160.799 81.3313 161.382L78.2749 165.449L76.7352 164.415C78.1447 166.437 80.8901 170.702 80.5959 171.585C80.3018 172.467 69.6878 177.1 64.4176 179.306C62.3341 178.387 58.0198 176.144 57.4315 174.526Z" fill="#F6A678"/>
<path d="M75.8652 94.3232H137.637L130.467 153.017H82.4836L75.8652 94.3232Z" fill="#51EEDA"/>
<path d="M72.7399 131.875C73.4753 124.521 77.0909 116.922 78.8068 114.042L80.0937 94.3707C79.1745 94.1869 76.1962 94.4443 71.6369 96.9445C65.9377 100.07 58.4001 115.513 54.5394 126.911C51.4508 136.03 53.2524 153.63 54.5394 161.29C55.6424 160.493 58.5472 158.496 61.3416 156.878C64.136 155.26 70.1048 154.856 72.7399 154.856C72.4335 150.259 72.0046 139.229 72.7399 131.875Z" fill="#51EEDA"/>
<path d="M141.078 131.874C140.343 124.521 136.727 116.922 135.012 114.042L133.725 94.3702C134.644 94.1864 137.622 94.4438 142.181 96.9441C147.881 100.069 155.418 115.512 159.279 126.911C162.368 136.029 160.566 153.629 159.279 161.29C158.176 160.493 155.271 158.495 152.477 156.877C149.682 155.26 143.714 154.855 141.078 154.855C141.385 150.259 141.814 139.228 141.078 131.874Z" fill="#51EEDA"/>
<path d="M77.3078 55.1106C77.6243 45.7639 84.9072 38.1443 94.2301 37.4058L96.4317 37.2314H118.861L119.847 37.3154C129.138 38.1061 136.366 45.7278 136.663 55.0479L137.613 84.8471C113.907 120.933 100.499 123.449 76.3008 84.8471L77.3078 55.1106Z" fill="#F6A678"/>
<mask id="mask0" mask-type="alpha" maskUnits="userSpaceOnUse" x="76" y="37" width="62" height="76">
<path d="M77.3078 55.1106C77.6243 45.7639 84.9072 38.1443 94.2301 37.4058L96.4317 37.2314H118.861L119.847 37.3154C129.138 38.1061 136.366 45.7278 136.663 55.0479L137.613 84.8471C113.907 120.933 100.499 123.449 76.3008 84.8471L77.3078 55.1106Z" fill="#F6A678"/>
</mask>
<g mask="url(#mask0)">
<path opacity="0.1" d="M85.9533 49.3654C81.9822 50.3949 78.6608 56.1676 77.4964 58.9253C76.0257 57.7609 73.4886 54.2189 75.1065 49.3654C76.7243 44.5119 83.0118 40.1119 85.9533 38.5186L97.9032 48.4461C95.5745 48.3236 89.9243 48.3358 85.9533 49.3654Z" fill="black"/>
</g>
<path d="M126.291 68.8079C126.291 72.8793 122.99 76.1799 118.919 76.1799C114.847 76.1799 111.547 72.8793 111.547 68.8079C111.547 64.7366 114.847 61.436 118.919 61.436C122.99 61.436 126.291 64.7366 126.291 68.8079Z" fill="#DD8958"/>
<path d="M102.463 68.8079C102.463 72.8793 99.1621 76.1799 95.0907 76.1799C91.0193 76.1799 87.7188 72.8793 87.7188 68.8079C87.7188 64.7366 91.0193 61.436 95.0907 61.436C99.1621 61.436 102.463 64.7366 102.463 68.8079Z" fill="#DD8958"/>
<path d="M122.919 68.015C122.919 70.9379 120.549 73.3074 117.626 73.3074C114.703 73.3074 112.334 70.9379 112.334 68.015C112.334 65.0921 114.703 62.7227 117.626 62.7227C120.549 62.7227 122.919 65.0921 122.919 68.015Z" fill="#FDFDFD"/>
<path d="M120.708 68.0147C120.708 69.7167 119.329 71.0964 117.627 71.0964C115.925 71.0964 114.545 69.7167 114.545 68.0147C114.545 66.3128 115.925 64.9331 117.627 64.9331C119.329 64.9331 120.708 66.3128 120.708 68.0147Z" fill="#51EEDA"/>
<path d="M119.001 68.0149C119.001 68.7734 118.386 69.3883 117.627 69.3883C116.869 69.3883 116.254 68.7734 116.254 68.0149C116.254 67.2565 116.869 66.6416 117.627 66.6416C118.386 66.6416 119.001 67.2565 119.001 68.0149Z" fill="#141616"/>
<path d="M113.673 66.4167C115.254 66.4534 125.026 63.276 129.714 61.6827C128.381 60.7022 124.879 58.5114 121.533 57.5921C117.35 56.4431 113.673 57.3623 112.478 58.3275C111.283 59.2927 110.364 62.6019 110.502 64.0267C110.64 65.4515 111.697 66.3707 113.673 66.4167Z" fill="#E0E0E0"/>
<path d="M90.9934 68.015C90.9934 70.9379 93.3628 73.3074 96.2857 73.3074C99.2086 73.3074 101.578 70.9379 101.578 68.015C101.578 65.0921 99.2086 62.7227 96.2857 62.7227C93.3628 62.7227 90.9934 65.0921 90.9934 68.015Z" fill="#FDFDFD"/>
<path d="M93.2039 68.0147C93.2039 69.7167 94.5836 71.0964 96.2855 71.0964C97.9875 71.0964 99.3672 69.7167 99.3672 68.0147C99.3672 66.3128 97.9875 64.9331 96.2855 64.9331C94.5836 64.9331 93.2039 66.3128 93.2039 68.0147Z" fill="#51EEDA"/>
<path d="M94.9115 68.0149C94.9115 68.7734 95.5264 69.3883 96.2849 69.3883C97.0433 69.3883 97.6582 68.7734 97.6582 68.0149C97.6582 67.2565 97.0433 66.6416 96.2849 66.6416C95.5264 66.6416 94.9115 67.2565 94.9115 68.0149Z" fill="#141616"/>
<path d="M100.239 66.4167C98.6577 66.4534 88.8864 63.276 84.1984 61.6827C85.5312 60.7022 89.0335 58.5114 92.3795 57.5921C96.5619 56.4431 100.239 57.3623 101.434 58.3275C102.629 59.2927 103.548 62.6019 103.41 64.0267C103.272 65.4515 102.215 66.3707 100.239 66.4167Z" fill="#E0E0E0"/>
<path fill-rule="evenodd" clip-rule="evenodd" d="M76.7074 74.5518C75.2734 78.7189 72.7182 87.7886 73.9697 90.7301C75.2212 93.6716 80.879 103.354 83.5515 107.828L84.9203 104.886C85.2462 105.867 86.5629 108.416 89.2224 110.769C91.8433 113.088 101.897 116.788 106.804 118.42V118.491C106.839 118.479 106.875 118.467 106.911 118.455C106.946 118.467 106.982 118.479 107.017 118.491V118.42C111.925 116.788 121.978 113.088 124.599 110.769C127.258 108.416 128.575 105.867 128.901 104.886L130.27 107.828C132.942 103.354 138.6 93.6716 139.851 90.7301C141.103 87.7886 138.548 78.7189 137.114 74.5518C134.376 79.9445 127.845 91.5757 123.621 94.9585C119.474 98.2802 110.964 95.6102 107.017 93.772V93.6716C106.982 93.6883 106.946 93.7052 106.911 93.7221C106.875 93.7052 106.839 93.6883 106.804 93.6716V93.772C102.857 95.6102 94.3477 98.2802 90.2001 94.9585C85.9763 91.5757 79.445 79.9445 76.7074 74.5518Z" fill="#E0E0E0"/>
<path d="M101.578 91.8784H112.333V95.0047C108.133 96.3354 105.778 96.3705 101.578 95.0047V91.8784Z" fill="#DD8958"/>
<path d="M114.134 78.7344C111.289 78.7344 110.811 83.2216 110.811 86.7776C114.268 85.2976 114.113 83.9491 118.837 85.7825C119.7 79.4807 116.979 78.7344 114.134 78.7344Z" fill="#ED935F"/>
<path fill-rule="evenodd" clip-rule="evenodd" d="M106.956 91.891C106.34 92.7055 105.47 93.5243 104.26 94.2235C100.951 96.1355 92.2794 99.2486 88.3574 100.566C89.2154 98.5438 91.1519 93.9294 92.0343 91.6497C92.1457 91.3619 92.2571 91.0647 92.3708 90.7615C93.3827 88.0623 94.5746 84.8828 97.5496 83.5605C100.066 82.4421 104.665 84.1145 106.956 85.23C109.246 84.1145 113.845 82.4421 116.361 83.5605C119.336 84.8828 120.528 88.0623 121.54 90.7615C121.654 91.0647 121.765 91.3619 121.877 91.6497C122.759 93.9294 124.696 98.5438 125.554 100.566C121.632 99.2486 112.96 96.1355 109.651 94.2235C108.441 93.5243 107.571 92.7055 106.956 91.891Z" fill="white"/>
<path d="M99.9559 78.7344C102.801 78.7344 103.279 83.2216 103.279 86.7776C99.8218 85.2976 99.9768 83.9491 95.2527 85.7825C94.3903 79.4807 97.1111 78.7344 99.9559 78.7344Z" fill="#ED935F"/>
<path fill-rule="evenodd" clip-rule="evenodd" d="M107.024 64.9336C105.764 64.9336 104.661 65.7801 104.335 66.9973L100.567 81.0785H100.61C100.52 81.5094 100.473 81.956 100.473 82.4137C100.473 85.994 103.375 88.8965 106.955 88.8965C110.536 88.8965 113.438 85.994 113.438 82.4137C113.438 81.4067 113.209 80.4533 112.799 79.6031L109.727 67.0549C109.422 65.8095 108.306 64.9336 107.024 64.9336Z" fill="#DD8958"/>
<path d="M106.957 83.9739C106.957 85.0908 106.051 85.9962 104.934 85.9962C103.818 85.9962 102.912 85.0908 102.912 83.9739C102.912 82.8571 103.818 81.9517 104.934 81.9517C106.051 81.9517 106.957 82.8571 106.957 83.9739Z" fill="#FDFDFD" fill-opacity="0.2"/>
<path d="M108.978 94.8437C108.978 95.0595 108.073 95.2344 106.956 95.2344C105.839 95.2344 104.934 95.0595 104.934 94.8437C104.934 94.628 105.839 94.4531 106.956 94.4531C108.073 94.4531 108.978 94.628 108.978 94.8437Z" fill="#FDFDFD" fill-opacity="0.2"/>
<path d="M96.982 49.5492C92.5697 47.9314 87.5447 43.2372 85.5836 41.0924C83.3775 38.9475 80.2889 33.7018 85.5836 29.8779C92.202 25.0979 108.38 25.8333 120.882 28.0394C133.383 30.2455 141.289 39.0701 144.23 44.9531C146.583 49.6595 145.211 65.176 144.23 72.3459C143.862 71.3041 142.392 67.713 139.45 61.6829C135.773 54.1453 130.442 52.6746 124.743 51.5715C119.043 50.4684 102.497 51.5715 96.982 49.5492Z" fill="#E0E0E0"/>
<path d="M66.0102 178.7L62.793 172.633L68.4002 177.597L66.0102 178.7Z" fill="#DD8958"/>
<path d="M71.4577 176.31L69.5078 172.633L72.9061 175.641L71.4577 176.31Z" fill="#DD8958"/>
<path d="M66.839 163.533C62.7209 164.562 59.7917 168.619 58.8418 170.519C64.0365 166.115 67.2669 164.471 74.009 164.084C73.3349 163.472 70.9571 162.503 66.839 163.533Z" fill="#ED935F"/>
<path fill-rule="evenodd" clip-rule="evenodd" d="M123.27 141.489L106.751 120.696L90.2324 141.489H98.5744V169.738H114.928V141.489H123.27Z" fill="#D84747"/>
</svg>
