<svg width="212" height="212" fill="none" xmlns="http://www.w3.org/2000/svg"><circle cx="106" cy="106" r="106" fill="#1E2121"/><path d="M97.76 106.09a14.5 14.5 0 0 1 14.4.17c16.2 9.45 31.84 28.8 31.84 51.23H66c0-22.67 15.43-42.25 31.76-51.4Z" fill="#E0E0E0"/><path d="M110.56 105.18a11.85 11.85 0 0 1-11.06-.14C82.73 95.98 66 76.08 66 52.88h78c0 23.45-16.5 43.6-33.44 52.3Z" fill="#fff"/><path d="M106.35 99.17c-.88.27-1.82.26-2.7-.03-9.32-3.15-19.18-10.56-21.91-19.65-.8-2.65 1.5-4.93 4.26-4.93h38c2.76 0 5.06 2.28 4.28 4.93-2.68 9.22-12.47 16.7-21.93 19.68Z" fill="#F6A678"/><path fill="#F6A678" d="M103 96.24h4v34.15h-4z"/><path d="M105 130c16.04 3.47 34 13.77 34 26H71c0-12.36 17.72-22.78 34-26Z" fill="#F6A678"/><path fill-rule="evenodd" clip-rule="evenodd" d="M138 151c.65 1.62 1 3.3 1 5H71c0-1.7.34-3.38.97-5H138Z" fill="#DD8958"/><rect x="61" y="48" width="88" height="8.67" rx="4.34" fill="#28BCA9"/><rect x="61" y="155.33" width="88" height="8.67" rx="4.34" fill="#28BCA9"/><path fill-rule="evenodd" clip-rule="evenodd" d="M105 48v116H65.34a4.34 4.34 0 1 1 0-8.67h.7c.95-21.75 15.92-40.39 31.72-49.24.64-.36 1.3-.67 1.98-.92l-.24-.13c-15.85-8.56-31.66-26.8-33.35-48.37h-.81a4.34 4.34 0 0 1 0-8.67H105Z" fill="#fff" fill-opacity=".2"/></svg>