<svg width="283" height="180" viewBox="0 0 283 180" fill="none" xmlns="http://www.w3.org/2000/svg">
<g clip-path="url(#clip0)">
<path d="M104.028 10.7668L107.612 4.24182V3.14161H102.133V4.42701H105.945L102.471 10.7777L104.028 10.7668Z" fill="white"/>
<path d="M111.462 10.9084C113.586 10.9084 114.555 9.12196 114.555 6.95422C114.555 4.78648 113.586 3 111.462 3C109.348 3 108.368 4.78648 108.368 6.95422C108.368 9.12196 109.348 10.9084 111.462 10.9084ZM111.462 9.63394C110.154 9.63394 109.784 8.31587 109.784 6.95422C109.784 5.59258 110.154 4.2745 111.462 4.2745C112.769 4.2745 113.15 5.59258 113.15 6.95422C113.15 8.31587 112.78 9.63394 111.462 9.63394Z" fill="white"/>
<path d="M43.7295 31.4798L42.5895 32.6198L42.9978 35.9858C43.121 36.9409 43.2674 37.7959 44.0145 38.5431C45.039 39.5675 46.541 39.6523 47.7965 38.3967C49.0443 37.1489 48.9673 35.6392 47.9429 34.6147C46.8876 33.5595 45.4164 33.521 44.3303 34.607C44.261 34.6764 44.184 34.7534 44.1301 34.8381L43.7295 31.4798ZM44.9697 37.588C44.392 37.0103 44.4074 36.2862 45.0467 35.6469C45.686 35.0076 46.4177 34.9999 46.9877 35.5699C47.5577 36.1399 47.5577 36.8793 46.9184 37.5186C46.2791 38.158 45.5396 38.158 44.9697 37.588Z" fill="white"/>
<path d="M52.6243 33.5689C54.1263 32.0669 53.5486 30.1182 52.0158 28.5853C50.483 27.0525 48.5342 26.4748 47.0322 27.9768C45.5379 29.4711 46.1079 31.4276 47.6407 32.9604C49.1735 34.4933 51.13 35.0632 52.6243 33.5689ZM51.7231 32.6677C50.7988 33.592 49.6049 32.9219 48.6421 31.9591C47.6792 30.9963 47.0091 29.8023 47.9334 28.878C48.8577 27.9537 50.0593 28.6161 51.0222 29.579C51.985 30.5418 52.6551 31.7357 51.7231 32.6677Z" fill="white"/>
<path d="M163.185 32.618C164.687 34.1201 166.636 33.5424 168.169 32.0095C169.702 30.4767 170.279 28.5279 168.777 27.0259C167.283 25.5316 165.327 26.1016 163.794 27.6344C162.261 29.1673 161.691 31.1237 163.185 32.618ZM164.086 31.7168C163.162 30.7925 163.832 29.5986 164.795 28.6358C165.758 27.6729 166.952 27.0028 167.876 27.9271C168.8 28.8515 168.138 30.0531 167.175 31.0159C166.212 31.9787 165.019 32.6488 164.086 31.7168Z" fill="white"/>
<path d="M188.985 89.3357L196.61 89.3357L196.61 88.4642L195.63 86.1658L194.399 86.6451L194.976 87.9414L188.985 87.9414L188.985 89.3357Z" fill="white"/>
<path d="M188.844 93.8409C188.844 95.965 190.63 96.9345 192.798 96.9345C194.965 96.9345 196.752 95.965 196.752 93.8409C196.752 91.7276 194.965 90.7472 192.798 90.7472C190.63 90.7472 188.844 91.7276 188.844 93.8409ZM190.118 93.8409C190.118 92.5337 191.436 92.1633 192.798 92.1633C194.159 92.1633 195.477 92.5337 195.477 93.8409C195.477 95.148 194.159 95.5293 192.798 95.5293C191.436 95.5293 190.118 95.1589 190.118 93.8409Z" fill="white"/>
<path d="M163.965 147.199L164.851 148.085L167.108 145.828L167.146 148.501C167.154 149.587 167.393 150.303 167.993 150.904C168.964 151.875 170.296 151.852 171.375 150.773C172.145 150.003 172.407 149.079 172.422 148.016L171.128 147.939C171.121 148.871 170.92 149.425 170.535 149.81C170.035 150.311 169.426 150.334 168.933 149.841C168.525 149.433 168.448 148.986 168.448 148.262L168.402 144.164L167.708 143.456L163.965 147.199Z" fill="white"/>
<path d="M160.975 149.989C159.473 151.491 160.051 153.44 161.583 154.972C163.116 156.505 165.065 157.083 166.567 155.581C168.061 154.087 167.491 152.13 165.959 150.597C164.426 149.064 162.469 148.495 160.975 149.989ZM161.876 150.89C162.8 149.966 163.994 150.636 164.957 151.599C165.92 152.561 166.59 153.755 165.666 154.68C164.742 155.604 163.54 154.942 162.577 153.979C161.614 153.016 160.944 151.822 161.876 150.89Z" fill="white"/>
<path d="M115.555 171.088C114.89 170.348 113.877 169.868 112.722 169.868C111.219 169.868 109.934 170.62 109.934 172.112C109.934 173.18 110.62 173.67 111.176 173.899L111.176 173.91C110.664 174.171 110.141 174.661 110.141 175.609C110.141 177.112 111.437 177.777 112.69 177.777C113.736 177.777 114.727 177.33 115.424 176.546L114.574 175.609C113.953 176.252 113.431 176.535 112.799 176.535C112.047 176.535 111.546 176.143 111.546 175.435C111.546 174.977 111.818 174.444 112.777 174.444L114.03 174.444L114.03 173.278L112.733 173.278C111.851 173.278 111.35 172.842 111.35 172.2C111.35 171.579 111.731 171.11 112.722 171.11C113.42 171.11 114.084 171.383 114.694 172.047L115.555 171.088Z" fill="white"/>
<path d="M105.87 169.868C103.746 169.868 102.777 171.655 102.777 173.823C102.777 175.99 103.746 177.777 105.87 177.777C107.984 177.777 108.964 175.99 108.964 173.823C108.964 171.655 107.984 169.868 105.87 169.868ZM105.87 171.143C107.178 171.143 107.548 172.461 107.548 173.823C107.548 175.184 107.178 176.502 105.87 176.502C104.563 176.502 104.182 175.184 104.182 173.823C104.182 172.461 104.552 171.143 105.87 171.143Z" fill="white"/>
<path d="M52.125 149.874L53.3498 148.649L52.4023 147.702L51.1776 148.927L50.469 148.218L49.5909 149.096L50.2995 149.805L47.0105 153.094L48.0503 154.134L53.9814 153.271L54.7516 152.501L52.125 149.874ZM49.2288 152.74L51.2392 150.729L52.7412 152.231L49.2288 152.74Z" fill="white"/>
<path d="M49.0925 144.192C47.5905 142.69 45.6417 143.268 44.1089 144.8C42.5761 146.333 41.9984 148.282 43.5004 149.784C44.9947 151.278 46.9512 150.708 48.484 149.176C50.0168 147.643 50.5868 145.686 49.0925 144.192ZM48.1913 145.093C49.1156 146.017 48.4455 147.211 47.4826 148.174C46.5198 149.137 45.3259 149.807 44.4016 148.883C43.4773 147.959 44.1397 146.757 45.1025 145.794C46.0654 144.831 47.2593 144.161 48.1913 145.093Z" fill="white"/>
<path d="M26.6557 96.5239C27.4074 95.8377 27.9084 94.8355 27.9084 93.6481C27.9084 91.9815 27.0152 90.8377 25.3377 90.8377C23.6274 90.8377 23.0174 92.0577 23.0174 93.6372L23.0174 94.5523L21.3943 94.3453L21.3943 91.2298L20.1416 91.2298L20.1416 95.5435L24.2592 96.0664L24.2592 93.7571C24.2592 92.7658 24.6514 92.2538 25.4139 92.2538C26.1111 92.2538 26.6339 92.7222 26.6339 93.6481C26.6339 94.4651 26.2745 95.0969 25.6862 95.6307L26.6557 96.5239Z" fill="white"/>
<path d="M27.9084 86.7861C27.9084 84.6619 26.122 83.6925 23.9542 83.6925C21.7865 83.6925 20 84.6619 20 86.7861C20 88.8994 21.7865 89.8798 23.9542 89.8798C26.122 89.8798 27.9084 88.8994 27.9084 86.7861ZM26.6339 86.7861C26.6339 88.0933 25.3159 88.4637 23.9542 88.4637C22.5926 88.4637 21.2745 88.0933 21.2745 86.7861C21.2745 85.4789 22.5926 85.0977 23.9542 85.0977C25.3159 85.0977 26.6339 85.468 26.6339 86.7861Z" fill="white"/>
<path d="M179.726 90.2868C179.726 129.692 147.781 161.637 108.376 161.637C68.97 161.637 37.0254 129.692 37.0254 90.2868C37.0254 50.8811 68.97 18.9365 108.376 18.9365C147.781 18.9365 179.726 50.8811 179.726 90.2868Z" fill="#E0E0E0"/>
<path d="M108.814 41.4038L115.795 61.7264H101.832L108.814 41.4038Z" fill="#4AFEBF"/>
<path d="M141.056 90.2869C141.056 108.335 126.425 122.966 108.377 122.966C90.3284 122.966 75.6973 108.335 75.6973 90.2869C75.6973 72.2385 90.3284 57.6074 108.377 57.6074C126.425 57.6074 141.056 72.2385 141.056 90.2869Z" fill="white"/>
<path fill-rule="evenodd" clip-rule="evenodd" d="M108.921 23.8386C109.823 23.8386 110.555 24.5702 110.555 25.4726L110.555 36.3422C110.555 37.2446 109.823 37.9762 108.921 37.9762C108.018 37.9762 107.287 37.2446 107.287 36.3422L107.287 25.4726C107.287 24.5702 108.018 23.8386 108.921 23.8386Z" fill="#1E2121"/>
<path fill-rule="evenodd" clip-rule="evenodd" d="M174.279 91.376C174.279 92.2785 173.548 93.01 172.645 93.01L161.776 93.01C160.873 93.01 160.142 92.2785 160.142 91.376C160.142 90.4736 160.873 89.7421 161.776 89.7421L172.645 89.7421C173.548 89.7421 174.279 90.4736 174.279 91.376Z" fill="#1E2121"/>
<path fill-rule="evenodd" clip-rule="evenodd" d="M155.044 41.8131C155.682 42.4512 155.682 43.4858 155.044 44.1239L147.358 51.8099C146.72 52.448 145.685 52.448 145.047 51.8099C144.409 51.1718 144.409 50.1372 145.047 49.4991L152.733 41.8131C153.371 41.175 154.406 41.175 155.044 41.8131Z" fill="#1E2121"/>
<path fill-rule="evenodd" clip-rule="evenodd" d="M153.821 137.738C153.183 138.376 152.149 138.376 151.511 137.738L143.825 130.052C143.187 129.414 143.187 128.379 143.825 127.741C144.463 127.103 145.497 127.103 146.135 127.741L153.821 135.427C154.46 136.065 154.46 137.1 153.821 137.738Z" fill="#1E2121"/>
<path fill-rule="evenodd" clip-rule="evenodd" d="M108.921 141.508C109.823 141.508 110.555 142.24 110.555 143.142L110.555 154.012C110.555 154.914 109.823 155.646 108.921 155.646C108.018 155.646 107.287 154.914 107.287 154.012L107.287 143.142C107.287 142.24 108.018 141.508 108.921 141.508Z" fill="#1E2121"/>
<path fill-rule="evenodd" clip-rule="evenodd" d="M56.6094 91.376C56.6094 92.2785 55.8778 93.01 54.9754 93.01L44.1058 93.01C43.2033 93.01 42.4718 92.2785 42.4718 91.376C42.4718 90.4736 43.2033 89.7421 44.1058 89.7421L54.9754 89.7421C55.8778 89.7421 56.6094 90.4736 56.6094 91.376Z" fill="#1E2121"/>
<path fill-rule="evenodd" clip-rule="evenodd" d="M71.8387 125.018C72.4769 125.656 72.4769 126.691 71.8387 127.329L64.1528 135.015C63.5146 135.653 62.4801 135.653 61.842 135.015C61.2039 134.377 61.2039 133.342 61.842 132.704L69.528 125.018C70.1661 124.38 71.2006 124.38 71.8387 125.018Z" fill="#1E2121"/>
<path fill-rule="evenodd" clip-rule="evenodd" d="M70.6163 54.5328C69.9782 55.1709 68.9436 55.1709 68.3055 54.5328L60.6196 46.8468C59.9814 46.2087 59.9814 45.1742 60.6196 44.5361C61.2577 43.8979 62.2922 43.8979 62.9303 44.5361L70.6163 52.222C71.2544 52.8602 71.2544 53.8947 70.6163 54.5328Z" fill="#1E2121"/>
<g filter="url(#filter0_d)">
<path d="M251.268 107.842L232.045 80.9577C228.19 76.0704 221.07 75.2238 216.137 79.1149C214.573 80.348 213.424 81.91 212.719 83.6379C208.722 79.7526 202.344 79.3389 197.817 82.9089C196.26 84.1426 195.11 85.7047 194.395 87.4251C190.397 83.5516 184.018 83.1318 179.498 86.7026C177.968 87.9099 176.835 89.432 176.118 91.1108L152.899 64.3958C149.044 59.5085 141.924 58.6619 136.991 62.553C132.098 66.4072 131.257 73.5278 135.117 78.4216L184.43 138.217L160.266 139.141C153.748 139.3 148.255 144.299 147.49 150.779C146.916 155.638 150.403 160.059 155.262 160.632L210.658 167.174C219.289 168.193 227.799 165.791 234.624 160.407L244.957 152.257C251.775 146.885 256.087 139.173 257.105 130.554C258.055 122.505 255.982 114.439 251.268 107.842Z" fill="#F7A678"/>
</g>
<path opacity="0.8" d="M217.816 22.6255V34.6217C221.59 34.926 225.169 35.9137 228.433 37.4611L234.432 27.0697C229.385 24.5325 223.765 22.9691 217.816 22.6255Z" fill="#4AFEBF"/>
<path opacity="0.6" d="M212.825 22.6255C206.877 22.9691 201.256 24.5325 196.209 27.0696L202.208 37.4609C205.472 35.9135 209.052 34.9258 212.825 34.6216V22.6255Z" fill="#4AFEBF"/>
<path d="M238.753 29.5698L232.754 39.9613C235.787 42.0632 238.422 44.6982 240.524 47.7312L250.915 41.7317C247.728 36.9003 243.585 32.7568 238.753 29.5698V29.5698Z" fill="#4AFEBF"/>
<path opacity="0.3" d="M179.727 41.7317L190.118 47.7312C192.22 44.6981 194.855 42.0632 197.888 39.9612L191.888 29.5698C187.057 32.757 182.914 36.9005 179.727 41.7317V41.7317Z" fill="#4AFEBF"/>
<path d="M210.108 53.2423C209.013 57.3272 211.437 61.5262 215.522 62.6208C219.607 63.7154 223.806 61.2912 224.901 57.2061C225.995 53.1211 223.662 32.2422 223.662 32.2422C223.662 32.2422 211.202 49.1573 210.108 53.2423V53.2423Z" fill="white"/>
</g>
<defs>
<filter id="filter0_d" x="112.537" y="52.854" width="161.226" height="133.226" filterUnits="userSpaceOnUse" color-interpolation-filters="sRGB">
<feFlood flood-opacity="0" result="BackgroundImageFix"/>
<feColorMatrix in="SourceAlpha" type="matrix" values="0 0 0 0 0 0 0 0 0 0 0 0 0 0 0 0 0 0 127 0" result="hardAlpha"/>
<feOffset dy="4"/>
<feGaussianBlur stdDeviation="5"/>
<feColorMatrix type="matrix" values="0 0 0 0 0 0 0 0 0 0 0 0 0 0 0 0 0 0 0.5 0"/>
<feBlend mode="normal" in2="BackgroundImageFix" result="effect1_dropShadow"/>
<feBlend mode="normal" in="SourceGraphic" in2="effect1_dropShadow" result="shape"/>
</filter>
<clipPath id="clip0">
<rect width="283" height="180" fill="white"/>
</clipPath>
</defs>
</svg>
