<svg width="283" height="180" viewBox="0 0 283 180" fill="none" xmlns="http://www.w3.org/2000/svg">
<path d="M75.5352 109.554V134.845H206.87V109.554" stroke="#4AFEBF"/>
<path d="M75.5352 118.07C106.759 118.07 132.07 92.7588 132.07 61.5352C132.07 30.3117 106.759 5 75.5352 5C44.3117 5 19 30.3117 19 61.5352C19 92.7588 44.3117 118.07 75.5352 118.07Z" fill="#51EEDA"/>
<path d="M100.028 10.5669C106.664 19.8316 110.571 31.1833 110.571 43.4485C110.571 74.6721 85.2595 99.9838 54.036 99.9838C45.2611 99.9838 36.9533 97.9845 29.543 94.4168C39.7997 108.737 56.577 118.07 75.5355 118.07C106.759 118.07 132.071 92.7587 132.071 61.5352C132.071 39.0865 118.987 19.694 100.028 10.5669Z" fill="#4AFEBF"/>
<path d="M75.5353 110.764C102.724 110.764 124.764 88.7236 124.764 61.5353C124.764 34.3471 102.724 12.3066 75.5353 12.3066C48.3471 12.3066 26.3066 34.3471 26.3066 61.5353C26.3066 88.7236 48.3471 110.764 75.5353 110.764Z" fill="white"/>
<path d="M107.02 23.6914C109.314 29.8418 110.571 36.4975 110.571 43.4478C110.571 74.6714 85.2597 99.983 54.0362 99.983C50.4817 99.983 47.0053 99.6516 43.6328 99.0241C52.2255 106.343 63.3636 110.763 75.5355 110.763C102.724 110.763 124.764 88.7226 124.764 61.5345C124.764 46.3214 117.862 32.7216 107.02 23.6914V23.6914Z" fill="#E0E0E0"/>
<path d="M74.8719 31.9966L58.9941 57.6024C58.8024 57.9116 58.8958 58.3175 59.2034 58.5116L75.4008 68.7416C75.6194 68.8796 75.8983 68.8778 76.1152 68.7372L91.8731 58.516C92.1767 58.319 92.2662 57.9147 92.0736 57.6079L75.9962 31.9933C75.7356 31.5783 75.1302 31.5801 74.8719 31.9966V31.9966Z" fill="#4AFEBF"/>
<path d="M75.9854 77.5999L89.903 68.9439C90.5063 68.5687 91.1969 69.2773 90.8062 69.8707L76.7835 91.1713C76.528 91.5595 75.9624 91.5708 75.6917 91.1929L60.5179 70.0202C60.0968 69.4326 60.7874 68.6912 61.4033 69.0697L75.2886 77.6017C75.5026 77.7333 75.7723 77.7327 75.9854 77.5999V77.5999Z" fill="#4AFEBF"/>
<path d="M207.41 120.802C238.634 120.802 263.945 95.4902 263.945 64.2667C263.945 33.0431 238.634 7.73145 207.41 7.73145C176.187 7.73145 150.875 33.0431 150.875 64.2667C150.875 95.4902 176.187 120.802 207.41 120.802Z" fill="#51EEDA"/>
<path d="M235.462 15.1721C241.314 24.076 244.721 34.7293 244.721 46.1804C244.721 77.4039 219.41 102.716 188.186 102.716C177.978 102.716 168.401 100.009 160.135 95.2752C170.239 110.649 187.638 120.802 207.41 120.802C238.634 120.802 263.946 95.4906 263.946 64.267C263.946 43.252 252.479 24.9163 235.462 15.1721V15.1721Z" fill="#4AFEBF"/>
<path d="M207.41 113.495C234.599 113.495 256.639 91.4551 256.639 64.2668C256.639 37.0785 234.599 15.0381 207.41 15.0381C180.222 15.0381 158.182 37.0785 158.182 64.2668C158.182 91.4551 180.222 113.495 207.41 113.495Z" fill="white"/>
<path d="M208.052 49.1581L217.934 59.0417C218.289 59.3972 218.866 59.3972 219.221 59.0417L224.43 53.832C224.785 53.4767 224.785 52.9005 224.43 52.5452L208.052 36.1639C207.697 35.8083 207.12 35.8083 206.765 36.1639L190.393 52.5392C190.038 52.8945 190.038 53.4707 190.393 53.8261L195.602 59.0357C195.957 59.3912 196.534 59.3912 196.889 59.0357L206.765 49.1581C207.121 48.8026 207.697 48.8026 208.052 49.1581V49.1581Z" fill="#4AFEBF"/>
<path d="M184.52 58.412L179.311 63.6218C178.956 63.9772 178.956 64.5533 179.311 64.9087L184.52 70.1183C184.875 70.4739 185.451 70.4739 185.807 70.1183L191.016 64.9084C191.371 64.5531 191.371 63.9769 191.016 63.6216L185.807 58.4122C185.452 58.0566 184.876 58.0566 184.52 58.412Z" fill="#4AFEBF"/>
<path d="M208.053 92.3705L224.433 75.9863C224.789 75.6308 224.789 75.0544 224.433 74.699L219.222 69.4923C218.866 69.1372 218.29 69.1374 217.935 69.4927L208.053 79.376C207.698 79.7315 207.121 79.7315 206.766 79.376L196.889 69.4976C196.534 69.1425 195.958 69.142 195.603 69.4967L190.387 74.6995C190.03 75.0548 190.03 75.6314 190.386 75.9872L206.766 92.3703C207.121 92.7258 207.698 92.7258 208.053 92.3705Z" fill="#4AFEBF"/>
<path d="M229.012 58.4154L223.804 63.6253C223.448 63.9806 223.448 64.5568 223.804 64.9121L229.012 70.1218C229.367 70.4773 229.944 70.4773 230.299 70.1218L235.508 64.9119C235.863 64.5566 235.863 63.9804 235.508 63.6251L230.299 58.4154C229.944 58.0601 229.368 58.0601 229.012 58.4154Z" fill="#4AFEBF"/>
<path d="M213.36 63.6236L208.052 58.315C207.697 57.9595 207.121 57.9595 206.765 58.315L201.458 63.6236C201.103 63.9789 201.103 64.5551 201.458 64.9104L206.765 70.2194C207.121 70.575 207.697 70.575 208.052 70.2194L213.36 64.9104C213.715 64.5549 213.715 63.9789 213.36 63.6236Z" fill="#4AFEBF"/>
<path d="M242.2 29.4375C243.838 34.7284 244.722 40.3512 244.722 46.1805C244.722 77.4041 219.41 102.716 188.186 102.716C183.56 102.716 179.065 102.156 174.762 101.108C183.451 108.814 194.883 113.496 207.411 113.496C234.599 113.496 256.64 91.4555 256.64 64.2674C256.639 50.6629 251.121 38.3475 242.2 29.4375V29.4375Z" fill="#E0E0E0"/>
<path d="M117.277 162.843C117.277 155.635 123.12 149.792 130.328 149.792H152.078C159.286 149.792 165.128 155.635 165.128 162.843V162.843C165.128 170.05 159.286 175.893 152.078 175.893H130.328C123.12 175.893 117.277 170.05 117.277 162.843V162.843Z" fill="url(#paint0_linear)"/>
<ellipse cx="152.078" cy="162.843" rx="10.8752" ry="10.8752" fill="white"/>
<defs>
<linearGradient id="paint0_linear" x1="141.203" y1="149.792" x2="141.203" y2="175.893" gradientUnits="userSpaceOnUse">
<stop stop-color="#4AFEBF"/>
<stop offset="1" stop-color="#51EEDA"/>
</linearGradient>
</defs>
</svg>
