<svg width="283" height="180" viewBox="0 0 283 180" fill="none" xmlns="http://www.w3.org/2000/svg">
<g clip-path="url(#clip0)">
<rect x="134.779" y="1" width="129.909" height="155.891" rx="5" fill="white"/>
<circle cx="175.987" cy="40.8713" r="22.9228" fill="#51EEDA"/>
<circle cx="204.047" cy="60.296" r="28.0602" fill="url(#paint0_linear)"/>
<circle cx="232.108" cy="78.7112" r="14.2913" fill="#4AFEBF"/>
<path fill-rule="evenodd" clip-rule="evenodd" d="M154.613 109.159C154.613 108.334 155.282 107.665 156.107 107.665H243.355C244.18 107.665 244.849 108.334 244.849 109.159C244.849 109.984 244.18 110.652 243.355 110.652H156.107C155.282 110.652 154.613 109.984 154.613 109.159Z" fill="#1E2121"/>
<path fill-rule="evenodd" clip-rule="evenodd" d="M154.613 121.723C154.613 120.898 155.282 120.229 156.107 120.229H243.355C244.18 120.229 244.849 120.898 244.849 121.723C244.849 122.548 244.18 123.217 243.355 123.217H156.107C155.282 123.217 154.613 122.548 154.613 121.723Z" fill="#1E2121"/>
<path fill-rule="evenodd" clip-rule="evenodd" d="M154.613 135.429C154.613 134.604 155.282 133.936 156.107 133.936H243.355C244.18 133.936 244.849 134.604 244.849 135.429C244.849 136.254 244.18 136.923 243.355 136.923H156.107C155.282 136.923 154.613 136.254 154.613 135.429Z" fill="#1E2121"/>
<path d="M120.343 4.94238H82.8723C81.9689 4.94258 81.1027 5.30166 80.464 5.94057L19.9991 62.1473C18.668 63.4768 18.6668 65.6337 19.9965 66.9648L19.9991 66.9674L57.4702 104.438C58.8005 105.768 60.9567 105.768 62.2869 104.438L122.752 48.2317C123.391 47.5922 123.751 46.7246 123.75 45.82V8.34892C123.75 6.46751 122.225 4.94238 120.343 4.94238ZM99.9046 35.6006C96.142 35.6006 93.0917 32.5503 93.0917 28.7877C93.0917 25.0251 96.142 21.9748 99.9046 21.9748C103.667 21.9748 106.717 25.0251 106.717 28.7877C106.717 32.5503 103.667 35.6006 99.9046 35.6006Z" fill="#4AFEBF"/>
<path fill-rule="evenodd" clip-rule="evenodd" d="M97.1393 107.537L119.116 121.722C120.22 122.434 120.537 123.906 119.825 125.01L105.64 146.987C105.297 147.517 104.758 147.89 104.141 148.023L80.5618 152.21L84.7901 147.409L75.9848 141.726L82.931 138.063L71.7031 129.034L75.908 120.548L66.0852 112.407L95.3489 107.211C95.9653 107.078 96.6093 107.195 97.1393 107.537ZM56.2974 114.145L38.6082 117.287C37.3242 117.563 36.507 118.827 36.783 120.111L36.7835 120.114L44.5754 156.276C44.8523 157.559 46.117 158.376 47.4005 158.099L73.1834 153.521L69.751 149.412L61.8442 144.309L70.5939 138.246L59.9687 129.861L61.9127 120.933L56.2974 114.145ZM94.1061 125.391C92.6817 127.598 93.316 130.542 95.5228 131.966C97.7296 133.39 100.673 132.756 102.098 130.549C103.522 128.342 102.888 125.399 100.681 123.974C98.4742 122.55 95.5305 123.184 94.1061 125.391Z" fill="#D84747"/>
<path d="M54.3376 78.449C56.1579 76.6452 55.4716 74.291 53.6308 72.4333C51.7899 70.5757 49.4421 69.8681 47.6218 71.6719C45.8108 73.4665 46.4878 75.83 48.3286 77.6876C50.1695 79.5452 52.5267 80.2436 54.3376 78.449ZM53.2553 77.3568C52.1351 78.4669 50.6985 77.6519 49.5421 76.485C48.3858 75.3182 47.5839 73.8742 48.7041 72.7641C49.8243 71.6541 51.2703 72.4598 52.4266 73.6267C53.5829 74.7935 54.3848 76.2375 53.2553 77.3568Z" fill="#1E2121"/>
<path d="M57.2392 74.038C57.6462 74.4487 58.3246 74.4611 58.7446 74.0448C59.1647 73.6286 59.1585 72.9501 58.7515 72.5394C58.3444 72.1287 57.6754 72.1256 57.2553 72.5419C56.8352 72.9582 56.8322 73.6273 57.2392 74.038Z" fill="#1E2121"/>
<path d="M63.1802 69.6864C65.0005 67.8825 64.3142 65.5283 62.4733 63.6707C60.6325 61.8131 58.2846 61.1054 56.4643 62.9093C54.6534 64.7039 55.3303 67.0673 57.1712 68.925C59.012 70.7826 61.3692 71.4809 63.1802 69.6864ZM62.0979 68.5942C60.9777 69.7042 59.541 68.8892 58.3847 67.7224C57.2284 66.5555 56.4265 65.1115 57.5466 64.0015C58.6668 62.8914 60.1128 63.6972 61.2691 64.864C62.4254 66.0309 63.2274 67.4749 62.0979 68.5942Z" fill="#1E2121"/>
<path d="M69.0537 63.6254L62.5783 57.091L61.8315 57.8311L60.6944 60.6231L62.1505 61.2709L62.771 59.6753L67.8588 64.8095L69.0537 63.6254Z" fill="#1E2121"/>
<path d="M77.1448 55.6074L76.081 54.5338L72.6085 57.975L70.9434 56.2948L74.2012 53.0663L73.1374 51.9928L69.8796 55.2213L68.2607 53.5877L71.6866 50.1927L70.6228 49.1192L66.0021 53.6982L72.4774 60.2326L77.1448 55.6074Z" fill="#1E2121"/>
<path d="M81.0615 51.7261L75.6685 46.2839L77.6941 44.2765L76.6118 43.1843L71.3563 48.3924L72.4386 49.4845L74.4736 47.4679L79.8666 52.9101L81.0615 51.7261Z" fill="#1E2121"/>
<path d="M85.204 47.6209L82.4751 44.8672L85.537 41.833L88.2658 44.5868L89.4607 43.4027L82.9854 36.8684L81.7905 38.0524L84.4732 40.7595L81.4113 43.7937L78.7287 41.0866L77.5338 42.2706L84.0092 48.805L85.204 47.6209Z" fill="#1E2121"/>
<rect x="101.156" y="24.2302" width="53.6181" height="6.74056" rx="3.37028" transform="rotate(-15.5867 101.156 24.2302)" fill="#E0E0E0"/>
</g>
<defs>
<linearGradient id="paint0_linear" x1="204.047" y1="32.2358" x2="204.047" y2="88.3563" gradientUnits="userSpaceOnUse">
<stop stop-color="#4AFEBF"/>
<stop offset="1" stop-color="#51EEDA"/>
</linearGradient>
<clipPath id="clip0">
<rect width="283" height="180" fill="white"/>
</clipPath>
</defs>
</svg>
