<svg width="117" height="51" fill="none" xmlns="http://www.w3.org/2000/svg"><g clip-path="url(#clip0)" fill="#4AFEBF"><path fill-rule="evenodd" clip-rule="evenodd" d="M31.54 38.78c-2.1-.12-4.24.08-6.35-.43-2.83-.72-5.26-2.17-7.56-3.82-1.77-1.28-3.52-2.6-5.31-3.82C8.95 28.36 4.37 28.62 0 28.54c0-1.09.03-2.17.03-3.26 0-1.1-.03-2.19-.03-3.27 4.37-.09 8.95.18 12.32-2.18 1.8-1.21 3.54-2.53 5.3-3.81 2.31-1.65 4.74-3.1 7.57-3.82 2.11-.51 4.24-.32 6.35-.43-1.02-1.24-2.04-2.22-3.18-3.36-.31-.31-.58-.67-.31-1.13.2-.37.56-.47.95-.47 1.35-.01 2.66-.08 4-.08 1.06 0 1.94.4 2.68 1.14 1.95 1.97 3.9 3.9 5.82 5.87 1.04 1.06 1 1.85-.05 2.93-1.91 1.95-3.89 3.87-5.82 5.85-.7.7-1.55 1.07-2.54 1.1-1.28.03-2.57.03-3.86.03-.48 0-.95-.08-1.18-.57-.3-.55.11-.88.44-1.22 1.04-1 2.06-2 3.28-3.16-3.21-.38-5.95-.07-8.37 1.6-2.15 1.48-4.26 3-6.45 4.52-.25.17-.4.31-.41.46.01.13.16.28.41.45 2.2 1.51 4.3 3.04 6.45 4.52 2.42 1.67 5.16 1.98 8.37 1.6a939.4 939.4 0 01-3.28-3.16c-.33-.35-.74-.68-.44-1.22.23-.5.7-.57 1.18-.57 1.29 0 2.58 0 3.86.03 1 .03 1.83.4 2.54 1.1 1.93 1.98 3.9 3.9 5.82 5.84 1.06 1.09 1.09 1.88.05 2.93-1.93 1.98-3.87 3.9-5.82 5.88a3.64 3.64 0 01-2.67 1.14c-1.35 0-2.66-.07-4-.09-.4 0-.77-.1-.96-.46-.27-.46 0-.82.3-1.13 1.15-1.14 2.17-2.13 3.2-3.36z"/><path d="M57.13 38.8V10.32l4.58-.76v9.76a12.43 12.43 0 013.75-.64c1.6 0 2.9.23 3.94.68a5.99 5.99 0 012.53 1.84 6.83 6.83 0 011.33 2.83c.28 1.1.42 2.34.42 3.7V38.8H69.1V28.44c0-1.06-.08-1.95-.23-2.68a4.25 4.25 0 00-.68-1.8c-.3-.48-.72-.82-1.25-1.02a5.03 5.03 0 00-1.97-.34 12.76 12.76 0 00-3.26.53V38.8h-4.58zM95.01 38.2c-.88.22-2.03.45-3.44.68-1.42.25-2.97.37-4.66.37-1.59 0-2.93-.22-4.01-.68a6.59 6.59 0 01-2.58-1.88 7.55 7.55 0 01-1.36-2.86 15.47 15.47 0 01-.42-3.7V19.1h4.58v10.32c0 2.1.3 3.62.91 4.52.63.9 1.72 1.36 3.26 1.36a21.11 21.11 0 003.14-.27V19.1h4.58v19.1zM112.43 28.9c0-1.94-.4-3.48-1.18-4.6-.75-1.14-1.97-1.7-3.63-1.7a6.8 6.8 0 00-3.75 1.1v11.33c.33.08.75.15 1.25.23.53.05 1.16.07 1.9.07 1.69 0 3.01-.56 3.97-1.7.96-1.15 1.44-2.73 1.44-4.74zm4.7.07c0 1.58-.25 3.01-.73 4.3a8.92 8.92 0 01-5.15 5.3 11.6 11.6 0 01-4.2.72 27.06 27.06 0 01-7.76-1.1V10.33l4.58-.76v10.21c.53-.27 1.17-.52 1.93-.75a9.25 9.25 0 012.58-.34c1.39 0 2.62.25 3.7.75a7.1 7.1 0 012.77 2.08c.73.9 1.29 2 1.67 3.27.4 1.26.6 2.65.6 4.19z"/></g><defs><clipPath id="clip0"><path fill="#fff" transform="translate(0 .73)" d="M0 0h117v50H0z"/></clipPath></defs></svg>