<svg width="214" height="69" fill="none" xmlns="http://www.w3.org/2000/svg"><mask id="a" style="mask-type:alpha" maskUnits="userSpaceOnUse" x="4" y="16" width="207" height="36"><path fill-rule="evenodd" clip-rule="evenodd" d="m22.67 16 2.58 25.07v5.14h1.29v-5.14L29.1 16h14.17l2.57 25.07v5.14h1.29v-5.14L49.7 16h14.17l2.57 25.07v5.14h1.3v-5.14L70.31 16h8.37l-4.5 36H60.01l-2.58-25.07v-5.14h-1.29v5.14L53.58 52H39.4l-2.57-25.07v-5.14h-1.3v5.14L32.98 52H18.81l-2.58-25.07v-5.14h-1.28v5.14L12.37 52H4l4.5-36h14.17Zm141.55 12.2c.81 0 1.62.1 2.43.28.8.2 1.53.5 2.2.94.66.44 1.2 1.03 1.6 1.77.4.75.61 1.68.61 2.8v11.26h-3.81v-2.31h-.13l-.13.23a4.92 4.92 0 0 1-2.52 2.05c-.65.25-1.42.37-2.3.37-1.06 0-2.02-.2-2.87-.58a4.62 4.62 0 0 1-2.02-1.7 4.97 4.97 0 0 1-.74-2.78c0-.95.18-1.74.53-2.36.35-.62.83-1.12 1.43-1.49.6-.37 1.3-.65 2.06-.85a17 17 0 0 1 2.37-.42c.99-.1 1.79-.2 2.4-.28a3.48 3.48 0 0 0 1.34-.4c.28-.17.42-.45.42-.83v-.31a2.39 2.39 0 0 0-.73-1.68c-.49-.45-1.2-.68-2.12-.68-.97 0-1.74.22-2.3.64-.57.42-.95.92-1.15 1.5l-3.7-.52.1-.34c.3-.88.75-1.62 1.35-2.23.67-.7 1.49-1.21 2.46-1.56a9.53 9.53 0 0 1 3.22-.52Zm28.08 0c1.04 0 2.02.17 2.94.5a6.75 6.75 0 0 1 4.14 4.18c.4 1.07.61 2.35.61 3.82v1.22h-11.72v.22c.03.74.17 1.4.42 1.96l.11.24c.36.7.86 1.23 1.5 1.6.65.36 1.4.55 2.26.55.58 0 1.1-.08 1.57-.25.47-.16.87-.4 1.22-.73.34-.32.6-.72.77-1.2l3.7.43-.08.32a5.7 5.7 0 0 1-1.24 2.23A6.48 6.48 0 0 1 196 45a9.5 9.5 0 0 1-3.5.59 8.6 8.6 0 0 1-4.36-1.06 7.07 7.07 0 0 1-2.82-3c-.66-1.3-.99-2.83-.99-4.59 0-1.73.33-3.25 1-4.56a7.46 7.46 0 0 1 2.77-3.07 7.84 7.84 0 0 1 4.2-1.1Zm-66.7-3.81v4.03h3.32v3.07h-3.32v8.92c.03.42.1.76.25 1 .16.28.38.47.65.57.27.1.57.16.9.16a3.97 3.97 0 0 0 1.16-.16l.67 3.1-.14.05a7.54 7.54 0 0 1-2.2.35h-.36l-.36-.01c-.7-.05-1.36-.2-1.96-.44a4.1 4.1 0 0 1-1.89-1.56l-.13-.21a4.76 4.76 0 0 1-.55-2.41v-9.36h-2.4v-3.07h2.4v-4.03h3.96Zm80.8 0v4.03h3.32v3.07h-3.32v8.92c.03.42.1.76.25 1 .16.28.38.47.65.57.27.1.57.16.9.16a3.99 3.99 0 0 0 1.16-.16l.67 3.1-.14.05a7.55 7.55 0 0 1-2.2.35h-.37l-.35-.01c-.71-.05-1.37-.2-1.96-.44a4.11 4.11 0 0 1-1.9-1.56l-.12-.21a4.76 4.76 0 0 1-.56-2.41v-9.36h-2.39v-3.07h2.4v-4.03h3.96ZM100.73 22.8l7.91 22.44h-4.33l-1.86-5.53H94l-1.86 5.53h-4.34l7.9-22.44h5.02Zm16.84 5.37a11.21 11.21 0 0 1 1.43.1v3.66l-.11-.04a8.04 8.04 0 0 0-1.73-.2c-.73 0-1.38.16-1.95.47a3.48 3.48 0 0 0-1.84 3.19v9.89h-3.97V28.42h3.84v2.8h.18l.1-.28c.31-.84.8-1.5 1.48-1.97.75-.53 1.6-.8 2.57-.8Zm15.4-5.37L137 39.3h.2l4.32-16.5h3.98l4.33 16.51h.2l4.04-16.5h4.37l-6.33 22.44h-4.01l-4.5-15.75h-.17l-4.5 15.75h-4.01l-6.34-22.44h4.37Zm44.03 0v22.44h-3.97V22.81H177Zm6.01 0v22.44h-3.97V22.81h3.97Zm-15.9 14.42-.09.06c-.13.08-.3.15-.55.22-.3.1-.62.17-.99.23a30.06 30.06 0 0 1-2.01.31c-.6.08-1.12.21-1.6.4-.46.18-.83.43-1.1.76-.27.32-.4.74-.4 1.25 0 .73.26 1.28.8 1.66.53.37 1.2.55 2.03.55.8 0 1.5-.15 2.08-.47a3.48 3.48 0 0 0 1.35-1.27c.32-.52.47-1.1.47-1.72v-1.98ZM98.3 27.4h-.17l-3.04 9.04h6.25l-3.04-9.04Zm94.04 3.88a3.89 3.89 0 0 0-3.56 2.12c-.3.55-.47 1.15-.51 1.8v.04h7.91l-.01-.29a4.2 4.2 0 0 0-.48-1.75 3.6 3.6 0 0 0-3.34-1.92Z" fill="#131415"/></mask><g mask="url(#a)"><path fill="#4AFEBF" d="M-5 1.38h235.13v64.13H-5z"/></g></svg>