<svg width="187" height="69" fill="none" xmlns="http://www.w3.org/2000/svg"><path fill-rule="evenodd" clip-rule="evenodd" d="M68.51 17.97a9.5 9.5 0 0 0-13.79 0l-8.96 9.3a10.4 10.4 0 0 0 0 14.33l8.96 9.3a9.5 9.5 0 0 0 13.8 0l8.96-9.3a10.4 10.4 0 0 0 0-14.33l-8.97-9.3Zm-7.47 7.64a2.6 2.6 0 0 0 .04-3.58 2.37 2.37 0 0 0-3.45-.04L51.72 28a9.21 9.21 0 0 0 0 12.87l5.91 6c.97.99 2.51.97 3.45-.03.94-1 .93-2.6-.04-3.58l-5.91-6.01a4.01 4.01 0 0 1 0-5.63l5.91-6ZM25.41 17.97a9.38 9.38 0 0 0-13.68 0l-8.9 9.3a10.46 10.46 0 0 0 0 14.33l8.9 9.3a9.38 9.38 0 0 0 13.68 0l8.9-9.3a10.46 10.46 0 0 0 0-14.33l-8.9-9.3ZM19.3 25.6a2.62 2.62 0 0 1-.04-3.58c.94-1 2.47-1.02 3.42-.04L28.55 28a9.26 9.26 0 0 1 0 12.87l-5.87 6c-.95.99-2.48.97-3.42-.03-.93-1-.92-2.6.04-3.58l5.87-6.01a4.03 4.03 0 0 0 0-5.63l-5.87-6Z" fill="#4AFEBF"/><path d="M96.35 34.72c-.19 0-.36-.04-.53-.1a1.46 1.46 0 0 1-.7-.7c-.07-.17-.1-.35-.1-.54v-13.3c0-.2.03-.37.1-.53a1.31 1.31 0 0 1 1.24-.81h5.69a4.44 4.44 0 0 1 4.08 6.08c-.2.52-.48 1-.83 1.42a4.97 4.97 0 0 1 1.34 5.6 4.84 4.84 0 0 1-4.43 2.87h-5.86Zm1.36-6.92V32h4.4a2.1 2.1 0 0 0 1.56-.66c.2-.21.37-.45.49-.72.11-.26.17-.54.17-.83 0-.3-.06-.57-.19-.81a2.04 2.04 0 0 0-1.2-1.02c-.25-.1-.53-.16-.83-.16h-4.4Zm0-6.35v3.65h4.24a1.78 1.78 0 0 0 1.25-.58c.17-.17.3-.36.38-.57a1.64 1.64 0 0 0 0-1.39c-.1-.21-.23-.4-.4-.57-.17-.17-.36-.3-.59-.39-.22-.1-.46-.15-.7-.15H97.7ZM108.2 28.91a6.1 6.1 0 0 1 3.62-5.48 5.64 5.64 0 0 1 4.6 0 5.76 5.76 0 0 1 3.14 3.18c.3.71.47 1.48.47 2.3v4.42c0 .2-.04.37-.11.54a1.3 1.3 0 0 1-.74.73c-.16.08-.34.12-.53.12-.32 0-.6-.1-.82-.29-.22-.2-.37-.43-.44-.72-.48.35-.99.64-1.54.84a4.8 4.8 0 0 1-1.73.32 5.77 5.77 0 0 1-4.16-1.75 6.1 6.1 0 0 1-1.75-4.2Zm2.7 0a3.27 3.27 0 0 0 .94 2.3 3.15 3.15 0 0 0 2.28.95 3.14 3.14 0 0 0 2.28-.95 3.38 3.38 0 0 0 .93-2.3 3.2 3.2 0 0 0-5.49-2.3 3.2 3.2 0 0 0-.94 2.3ZM125 33.38c0 .2-.04.37-.11.54-.07.16-.16.3-.28.41-.11.12-.25.21-.4.29a1.52 1.52 0 0 1-1.06 0 1.59 1.59 0 0 1-.44-.29 1.29 1.29 0 0 1-.4-.95v-4.03a6.1 6.1 0 0 1 1.82-4.4 6.23 6.23 0 0 1 4.36-1.84h.03c.44 0 .79.13 1.03.39.25.25.37.57.37.96a1.3 1.3 0 0 1-.42.97 1.41 1.41 0 0 1-.98.39h-.03a3.42 3.42 0 0 0-2.45 1.02c-.32.32-.57.69-.76 1.11-.19.43-.28.88-.28 1.36v4.07ZM134.12 23.11h4.31c.19 0 .36.04.53.11a1.45 1.45 0 0 1 .73.74 1.28 1.28 0 0 1 0 1.05 1.34 1.34 0 0 1-1.25.8h-4.32v3.17a3.18 3.18 0 0 0 .94 2.26 3.29 3.29 0 0 0 3.39.76c.34-.12.65-.3.94-.57l.26-.2a1.3 1.3 0 0 1 .95-.22c.23.01.44.12.64.3.15.14.25.3.3.49.07.17.1.36.08.56a1.5 1.5 0 0 1-.48 1.05c-.5.48-1.07.85-1.71 1.1a5.9 5.9 0 0 1-2.09.36 5.8 5.8 0 0 1-4.18-1.73 5.9 5.9 0 0 1-1.74-4.2v-8c0-.2.04-.37.1-.54.08-.16.18-.3.3-.43.13-.13.27-.22.44-.3a1.28 1.28 0 0 1 1.04 0c.17.08.3.17.42.3.13.12.22.27.29.43.07.17.1.35.1.54v2.17ZM145.46 30.12a2.95 2.95 0 0 0 1.97 1.91c.3.1.63.14.97.14.85 0 1.52-.22 2-.67.26-.18.5-.28.72-.31.22-.04.43-.02.63.05.14.05.26.12.37.23a1.38 1.38 0 0 1 .46.78c.04.15.05.3.02.46a1.32 1.32 0 0 1-.5.88c-.17.17-.38.33-.61.5a5.31 5.31 0 0 1-1.82.67 6.45 6.45 0 0 1-3.58-.35 6.09 6.09 0 0 1-3.16-3.17 5.75 5.75 0 0 1-.47-2.33 5.97 5.97 0 0 1 8.22-5.5 6 6 0 0 1 3.67 5.43c0 .38-.12.7-.37.94-.24.23-.56.34-.95.34h-7.57Zm6.13-2.24a2.78 2.78 0 0 0-1.15-1.62 3.1 3.1 0 0 0-.91-.44 3.68 3.68 0 0 0-3.05.46 2.86 2.86 0 0 0-1.1 1.6h6.2ZM158.62 33.38c0 .2-.04.37-.11.54a1.3 1.3 0 0 1-1.2.8c-.18 0-.37-.04-.54-.1a1.59 1.59 0 0 1-.43-.29 1.35 1.35 0 0 1-.3-.41 1.3 1.3 0 0 1-.11-.54v-4.03a6.1 6.1 0 0 1 1.82-4.4 6.23 6.23 0 0 1 4.37-1.84h.02c.45 0 .79.13 1.03.39.25.25.37.57.37.96a1.3 1.3 0 0 1-.42.97 1.42 1.42 0 0 1-.98.39h-.02a3.42 3.42 0 0 0-2.46 1.02c-.31.32-.57.69-.76 1.11-.19.43-.28.88-.28 1.36v4.07ZM98.14 45c-.45-.1-.9-.24-1.33-.4a5.25 5.25 0 0 1-1.17-.63 3.14 3.14 0 0 1-.83-.92 2.44 2.44 0 0 1-.32-1.26c0-.5.11-.94.32-1.33a3.35 3.35 0 0 1 2-1.63 4.1 4.1 0 0 1 1.34-.22 4.88 4.88 0 0 1 2 .45 3.4 3.4 0 0 1 1.43 1.3c.07.11.08.23.05.36a.63.63 0 0 1-.17.28.6.6 0 0 1-.34.15.59.59 0 0 1-.42-.14 3.15 3.15 0 0 0-1.15-.91 3.35 3.35 0 0 0-2.26-.15c-.28.08-.54.2-.78.37a2 2 0 0 0-.57.61c-.15.25-.23.53-.24.85 0 .33.09.61.26.84.18.22.41.41.68.57.28.15.59.28.91.38l.95.25c.46.14.9.3 1.34.49.44.18.82.4 1.16.66.34.26.6.58.81.94.2.36.31.8.31 1.3a3.48 3.48 0 0 1-1.19 2.62c-.37.31-.8.56-1.27.73a4.49 4.49 0 0 1-2.8.08 4.3 4.3 0 0 1-2.04-1.2 3.24 3.24 0 0 1-.58-.91c-.1-.2-.11-.37-.05-.51a.67.67 0 0 1 .3-.32c.15-.08.3-.1.42-.05.13.05.27.17.4.35a2.64 2.64 0 0 0 1.16 1.16 3.6 3.6 0 0 0 2.7.28c.33-.1.62-.25.88-.44a2.08 2.08 0 0 0 .86-1.74c0-.35-.08-.65-.24-.88a2.2 2.2 0 0 0-.63-.61 4.24 4.24 0 0 0-.9-.43c-.32-.12-.66-.24-1-.34ZM104.98 50.09a.6.6 0 0 1-.17.44.62.62 0 0 1-.85 0 .59.59 0 0 1-.19-.44v-5.11a3.22 3.22 0 0 1 3.17-3.1 3.34 3.34 0 0 1 2.58 1.31 3.48 3.48 0 0 1 1.83-1.23 3.11 3.11 0 0 1 2.94.79 3.12 3.12 0 0 1 .99 2.21v5.13a.6.6 0 0 1-.18.44.62.62 0 0 1-.85 0 .59.59 0 0 1-.18-.44V44.9a1.86 1.86 0 0 0-.63-1.3 2.06 2.06 0 0 0-1.34-.52c-.26 0-.51.05-.75.15-.23.1-.44.23-.62.4-.17.17-.32.37-.43.59-.1.23-.17.46-.17.71V50.1a.6.6 0 0 1-.18.44.59.59 0 0 1-.42.16.65.65 0 0 1-.44-.16.59.59 0 0 1-.18-.44v-5.11a1.88 1.88 0 0 0-1.22-1.73 1.86 1.86 0 0 0-1.48-.01 1.95 1.95 0 0 0-1.23 1.68v5.17ZM116.69 46.35a4.42 4.42 0 0 1 2.71-4.12 4.26 4.26 0 0 1 4.83.94 4.46 4.46 0 0 1 1.32 3.12V50.05c0 .19-.06.34-.17.47a.6.6 0 0 1-.45.17.56.56 0 0 1-.43-.17.69.69 0 0 1-.16-.46v-.74c-.42.45-.9.8-1.44 1.08a4.33 4.33 0 0 1-4.91-.9 4.4 4.4 0 0 1-1.3-3.16Zm1.2 0a3.16 3.16 0 0 0 .95 2.28 3.2 3.2 0 0 0 3.55.7 3.21 3.21 0 0 0 1.95-2.98 3.19 3.19 0 0 0-.94-2.3 3.05 3.05 0 0 0-2.28-.96 3.2 3.2 0 0 0-3.22 3.26ZM128.78 50.09a.6.6 0 0 1-.18.44.56.56 0 0 1-.4.16.64.64 0 0 1-.45-.16.6.6 0 0 1-.18-.44v-3.44a4.68 4.68 0 0 1 4.6-4.66H132.22c.2 0 .35.06.47.17.1.11.16.26.16.43 0 .18-.06.32-.18.44a.6.6 0 0 1-.45.18h-.06a3.37 3.37 0 0 0-3.12 2.1c-.18.42-.27.86-.27 1.34v3.44ZM135.44 42h4.02c.17 0 .31.05.43.17.13.12.19.26.19.43 0 .16-.06.3-.18.43a.57.57 0 0 1-.44.18h-4.02v3.23a3.1 3.1 0 0 0 1.97 2.9c.4.17.82.25 1.27.25a2.93 2.93 0 0 0 2.1-.77 1.31 1.31 0 0 1 .24-.16.6.6 0 0 1 .3-.04c.1.01.2.06.3.14.06.07.1.14.13.22.03.08.05.17.04.25a.7.7 0 0 1-.07.27.74.74 0 0 1-.15.21c-.38.36-.82.64-1.3.82a4.52 4.52 0 0 1-4.73-.98c-.41-.4-.73-.85-.97-1.38a4.35 4.35 0 0 1-.34-1.74v-6.78a.6.6 0 0 1 .18-.44.57.57 0 0 1 .42-.19c.18 0 .32.06.43.18.12.12.18.27.18.45v2.34ZM142.99 46.35a4.44 4.44 0 0 1 7.56-3.17c.4.4.72.88.95 1.43a4.34 4.34 0 0 1 0 3.47 4.48 4.48 0 0 1-4.07 2.74 4.28 4.28 0 0 1-3.23-1.42v3.83c0 .18-.06.33-.17.45a.53.53 0 0 1-.43.19.6.6 0 0 1-.43-.19.61.61 0 0 1-.18-.45v-6.88Zm1.2 0a3.18 3.18 0 0 0 .95 2.28 3.2 3.2 0 0 0 3.55.7 3.21 3.21 0 0 0 1.95-2.98 3.2 3.2 0 0 0-.94-2.3 3.05 3.05 0 0 0-2.27-.96 3.2 3.2 0 0 0-3.23 3.26ZM156.97 50.1c0 .17-.06.31-.17.43a.57.57 0 0 1-.42.16h-.05c-.42 0-.81-.08-1.17-.23a2.75 2.75 0 0 1-1.55-1.61c-.14-.38-.21-.8-.21-1.27v-8.34c0-.18.06-.32.17-.44a.57.57 0 0 1 .42-.18c.16 0 .3.06.43.18s.19.26.19.44v8.35a2 2 0 0 0 .46 1.38c.31.33.73.5 1.26.5h.05c.17 0 .31.07.42.2a.6.6 0 0 1 .17.42ZM157.87 46.35a4.42 4.42 0 0 1 2.71-4.12 4.26 4.26 0 0 1 4.83.94 4.46 4.46 0 0 1 1.32 3.12V50.05c0 .19-.06.34-.18.47a.6.6 0 0 1-.45.17.56.56 0 0 1-.42-.17.69.69 0 0 1-.16-.46l-.01-.74c-.4.45-.89.8-1.43 1.08a4.32 4.32 0 0 1-4.91-.9 4.58 4.58 0 0 1-1.3-3.15Zm1.2 0a3.18 3.18 0 0 0 .94 2.28 3.2 3.2 0 0 0 3.55.7 3.21 3.21 0 0 0 1.96-2.98 3.2 3.2 0 0 0-.94-2.3 3.05 3.05 0 0 0-2.28-.96 3.2 3.2 0 0 0-3.23 3.26ZM169.48 46.3l-.02.04.01.02h.01a3.2 3.2 0 0 0 .9 2.24c.27.29.6.53.98.7a3.17 3.17 0 0 0 2.37.1c.36-.14.7-.35 1.02-.63l.2-.15a.7.7 0 0 1 .22-.1.64.64 0 0 1 .54.17c.13.12.2.27.19.45 0 .17-.07.33-.22.48a3.83 3.83 0 0 1-1.35.89c-.26.1-.52.17-.8.22a4.23 4.23 0 0 1-2.56-.26 4.54 4.54 0 0 1-2.35-2.35 4.35 4.35 0 0 1-.35-1.73l.02-.05v-.02l-.02-.01a4.37 4.37 0 0 1 2.7-4.1 4.6 4.6 0 0 1 3.37-.05c.52.21.97.5 1.34.87.15.15.22.3.22.49 0 .18-.06.33-.2.45a.58.58 0 0 1-.27.16.57.57 0 0 1-.26 0 .82.82 0 0 1-.23-.1 5.4 5.4 0 0 1-.2-.15 3.17 3.17 0 0 0-3.37-.52 3.23 3.23 0 0 0-1.89 2.94ZM178.46 46.9a3.05 3.05 0 0 0 1.97 2.5 3.25 3.25 0 0 0 2.42-.06c.41-.18.75-.43 1.01-.74.21-.16.41-.2.6-.14.12.04.21.12.28.25.08.11.12.24.12.4 0 .16-.08.3-.22.42-.33.36-.76.67-1.27.92-.51.24-1.12.37-1.81.37a4.35 4.35 0 0 1-3.14-1.32 4.42 4.42 0 0 1-.96-4.9 4.58 4.58 0 0 1 2.36-2.37 4.32 4.32 0 0 1 4.85.95A4.47 4.47 0 0 1 186 46.3a.58.58 0 0 1-.59.59h-6.95Zm6.3-1.03a3.1 3.1 0 0 0-2.02-2.57 3.18 3.18 0 0 0-4.32 2.57h6.34Z" fill="#4AFEBF"/></svg>