<svg width="200" height="69" fill="none" xmlns="http://www.w3.org/2000/svg"><path d="m43.77 37.8-1.46-8.94a2.77 2.77 0 0 0 .53-4.65l.84-2 .3.03a2.78 2.78 0 1 0-1.3-5.23l-2.64-2.53a2.78 2.78 0 0 0-2.49-4.02c-1.25 0-2.3.83-2.65 1.97h-6.45a2.78 2.78 0 0 0-5.3 0H16.8a2.78 2.78 0 1 0-5.16 2.02l-2.73 2.58a2.77 2.77 0 1 0-1.31 5.21l.31-.02.82 1.93a2.77 2.77 0 0 0 .55 4.77L7.86 37.8a2.78 2.78 0 1 0 1.82 5.13l13.58 11.72a2.78 2.78 0 1 0 5.08 0l13.61-11.71a2.77 2.77 0 1 0 1.82-5.14ZM12.79 27.74l2.52 1.09-5.82 9.06 1.4-8.8c.81-.16 1.5-.66 1.9-1.35Zm1.35-11.73a3 3 0 0 0 .29-.01l.4 1.48-4.65.95c-.03-.09-.08-.17-.12-.26l2.68-2.54c.41.24.9.38 1.4.38Zm.91 2.26.2.7H11.6l3.44-.7Zm.17-2.47a2.79 2.79 0 0 0 1.58-1.75h6.35c.15.5.44.94.82 1.28l-.2.33-8.14 1.66-.41-1.52Zm21.83.8.17-.61a2.7 2.7 0 0 0 1.7-.34l2.56 2.45-4.43-1.5Zm4.22 2.29v.08h-4.08c-.16-.22-.39-.4-.65-.49l.3-1.09 4.43 1.5ZM30.95 35.64l-.98 3.52c-.59.06-1.06.48-1.2 1.04h-6.84l-2.65-9.64 11.67 5.08ZM19 29.56l-.64-2.34c.11-.14.2-.31.25-.5h14.8l-2.25 8.12L19 29.56Zm9.81 11.45c.1.26.26.47.47.64L26.14 53a2.85 2.85 0 0 0-.68 0l-3.3-12h6.65Zm1.24.9.06.01c.6 0 1.1-.38 1.3-.91h1.58l-5.77 11.11 2.83-10.2Zm1.4-1.71a1.4 1.4 0 0 0-.68-.88l.93-3.36 2.3 1c.08.37.33.68.65.86l-1.23 2.38h-1.97Zm4.02-2.2c.2-.02.38-.08.54-.17l4.66 2.03c-.03.11-.05.22-.06.34h-6.28l1.14-2.2Zm.45-2.62a1.39 1.39 0 0 0-1.87.72l-2.13-.93 2.34-8.45h4.09c.1.77.5 1.44 1.1 1.87l-3.53 6.79Zm-2.28-9.47H18.58a1.42 1.42 0 0 0-.2-.36l3.7-5.76h12.6c0 .38.15.71.39.96l-1.43 5.16Zm1.3-6.93H22.6l1.67-2.6 1.94-.4c.1 0 .2-.03.3-.06l3.71-.76 5.85 1.98-.36 1.32c-.32.08-.58.27-.76.52Zm-6.82-4.2.15-.27.42.14-.57.12Zm3.68.06 3.16-.65c.26.72.8 1.3 1.49 1.6l-.16.56-4.49-1.5Zm-1.53-.51-.8-.27h2.11l-1.31.27Zm-7.12 2.29-1.52 2.36H16.1l-.24-.87 7.3-1.5Zm-2.04 3.17-3.36 5.24-1.44-5.24h4.8Zm-3.83 7.97c.13 0 .25-.02.37-.06l.4 1.45-1.55-.67.48-.75.3.03Zm1.04 2.39L21.1 40.2H11.02c-.08-.7-.42-1.3-.92-1.75l5.96-9.29 2.26.99Zm-2.57-2-2.66-1.16.04-.27h2.81c.06.23.18.45.34.61l-.53.82ZM11 41h10.31l3.37 12.21c-.13.05-.25.12-.36.19l-13.55-11.7c.1-.22.19-.45.23-.7Zm22.91 0h6.72c.04.25.13.49.23.7l-13.23 11.4L33.9 41Zm7.07-1.9-4.39-1.9a1.36 1.36 0 0 0-.05-1.26l3.61-6.97c.18.06.37.1.56.13l1.45 8.93c-.49.23-.9.6-1.18 1.07Zm.35-15.5-.24-.02c-1.37 0-2.51 1-2.73 2.32h-3.88l1.32-4.76a1.39 1.39 0 0 0 1.65-1.36h3.78c.09.71.44 1.34.95 1.78l-.85 2.04ZM9.4 21.57c.52-.44.87-1.07.95-1.78h5.12l1.44 5.25c-.44.11-.79.44-.94.87h-2.86a2.77 2.77 0 0 0-2.73-2.31h-.12l-.86-2.03ZM58.48 17.49h4.5l-1.38 9.67h.06c.62-.7 1.35-1.2 2.2-1.49a8.32 8.32 0 0 1 2.7-.43 5.4 5.4 0 0 1 2.7.64c.76.44 1.38 1.01 1.86 1.73.49.72.81 1.55.98 2.48a9.76 9.76 0 0 1-.9 5.96 8.57 8.57 0 0 1-1.79 2.39 7.85 7.85 0 0 1-5.5 2.12 5.41 5.41 0 0 1-3.57-1.49 3.79 3.79 0 0 1-.6-.8h-.06l-.24 1.93h-4.15l3.19-22.71Zm1.98 15.41c-.16 1.1.03 2 .56 2.67.53.68 1.37 1.03 2.5 1.03 1.15 0 2.08-.34 2.82-1.03a4.4 4.4 0 0 0 1.33-2.67c.16-1.1-.03-2-.57-2.67-.54-.68-1.38-1.03-2.52-1.03a3.9 3.9 0 0 0-2.8 1.03 4.4 4.4 0 0 0-1.32 2.67ZM77.11 17.49h4.51l-3.18 22.7h-4.5l3.17-22.7ZM82.12 32.9a8.48 8.48 0 0 1 3.13-5.57 9 9 0 0 1 2.8-1.55 9.86 9.86 0 0 1 3.24-.54c1.12 0 2.15.18 3.09.54a6 6 0 0 1 3.77 3.97 8.39 8.39 0 0 1-.89 6.31 9.11 9.11 0 0 1-4.87 3.96 9.86 9.86 0 0 1-3.24.54 8.58 8.58 0 0 1-3.1-.54 6.07 6.07 0 0 1-3.74-3.97c-.28-.94-.35-1.99-.19-3.15Zm4.5 0c-.15 1.1.03 2 .56 2.67.53.68 1.37 1.03 2.51 1.03 1.14 0 2.08-.34 2.8-1.03a4.4 4.4 0 0 0 1.34-2.67c.16-1.1-.03-2-.57-2.67-.54-.68-1.38-1.03-2.52-1.03a3.9 3.9 0 0 0-2.8 1.03 4.45 4.45 0 0 0-1.31 2.67ZM111.08 30.31a2.12 2.12 0 0 0-.83-.8 2.47 2.47 0 0 0-1.24-.31 3.9 3.9 0 0 0-2.8 1.02 4.44 4.44 0 0 0-1.32 2.68c-.16 1.1.03 1.99.55 2.67.53.68 1.37 1.02 2.5 1.02.5 0 .96-.1 1.36-.33.4-.22.75-.48 1.05-.78l2.53 3.13a7.17 7.17 0 0 1-2.7 1.51c-.99.3-1.91.44-2.77.44a8.59 8.59 0 0 1-3.1-.54 6.08 6.08 0 0 1-3.74-3.97 8.56 8.56 0 0 1 2.93-8.73 9 9 0 0 1 2.8-1.54 9.86 9.86 0 0 1 3.25-.54c.86 0 1.74.14 2.66.44.9.29 1.66.8 2.27 1.51l-3.4 3.12ZM122.9 29.47c-.3-.58-.7-1.03-1.2-1.38-.5-.34-1.11-.5-1.83-.5-.34 0-.7.04-1.04.12-.35.08-.66.2-.94.37-.28.17-.5.39-.68.64-.17.26-.25.58-.25.97 0 .66.23 1.14.69 1.44.46.3 1.15.56 2.07.78l2.01.48c.98.22 1.8.67 2.45 1.34.65.67.98 1.5.98 2.5 0 .77-.16 1.42-.47 1.97-.3.55-.72 1-1.23 1.35-.5.35-1.1.61-1.76.77-.66.15-1.33.24-2 .24-1.09 0-2.1-.2-3.03-.62a5.58 5.58 0 0 1-2.39-2.11l1.71-1.17c.4.64.9 1.15 1.52 1.53.61.39 1.34.57 2.18.57.4 0 .8-.04 1.2-.13.4-.1.75-.23 1.07-.42.3-.19.56-.44.75-.74.19-.3.28-.65.28-1.05 0-.7-.26-1.2-.78-1.52a6.87 6.87 0 0 0-1.89-.73l-1.92-.45c-.24-.06-.57-.16-.98-.3a4.66 4.66 0 0 1-1.2-.63c-.39-.28-.72-.65-1-1.1-.28-.45-.42-1-.42-1.67a3.72 3.72 0 0 1 1.6-3.21c.5-.34 1.05-.6 1.67-.76a7.2 7.2 0 0 1 4.65.31 4.03 4.03 0 0 1 1.95 1.95l-1.77 1.16ZM128.4 26.14h1.98v2.34h.06c.31-.48.7-.89 1.14-1.23a7.02 7.02 0 0 1 4.32-1.47c1.1 0 2.11.18 3.02.55a7 7 0 0 1 3.91 3.9c.37.9.56 1.88.56 2.94a7.6 7.6 0 0 1-.56 2.94 7.07 7.07 0 0 1-3.9 3.9 7.97 7.97 0 0 1-4.48.4 6.5 6.5 0 0 1-4.01-2.56h-.06v11h-1.99V26.14Zm12.81 7.03c0-.78-.12-1.51-.37-2.2a5.06 5.06 0 0 0-4.94-3.4 5.68 5.68 0 0 0-4.03 1.63 5.73 5.73 0 0 0-1.59 3.97 5.73 5.73 0 0 0 1.6 3.97 5.58 5.58 0 0 0 4.02 1.62c.82 0 1.56-.14 2.2-.44a4.93 4.93 0 0 0 2.74-2.96c.25-.68.38-1.41.38-2.19ZM160.97 33.17c0 1.06-.19 2.04-.56 2.94a7.08 7.08 0 0 1-6.92 4.45 7.88 7.88 0 0 1-2.99-.55 7 7 0 0 1-3.9-3.9 7.69 7.69 0 0 1-.56-2.94c0-1.06.18-2.04.55-2.94a7.09 7.09 0 0 1 6.9-4.45c1.1 0 2.1.18 3.02.55a7.04 7.04 0 0 1 3.9 3.9c.37.9.56 1.88.56 2.94Zm-2.16 0c0-.78-.13-1.51-.38-2.2a5.03 5.03 0 0 0-4.94-3.4c-.82.01-1.55.15-2.2.45-.66.29-1.2.69-1.66 1.18-.45.5-.8 1.1-1.05 1.78a6.27 6.27 0 0 0-.38 2.19c0 .78.13 1.51.38 2.2a4.87 4.87 0 0 0 2.7 2.96c.65.29 1.39.43 2.21.43.82 0 1.56-.14 2.2-.44a4.95 4.95 0 0 0 2.75-2.96c.24-.68.37-1.41.37-2.19ZM164.56 30.52a39 39 0 0 0-.04-1.89 98.4 98.4 0 0 1-.08-2.49h1.96v2.61h.06a4.42 4.42 0 0 1 1.54-2.03 4.68 4.68 0 0 1 2.96-.94c.56 0 1.05.06 1.47.18l-.4 1.96c-.25-.1-.63-.15-1.14-.15a4.05 4.05 0 0 0-3.3 1.55 4.82 4.82 0 0 0-1.05 2.96v7.93h-1.99v-9.69h.01ZM182.88 27.94h-4.05v8.29c0 .52.05.95.15 1.28.1.33.24.58.42.76.17.18.4.31.64.38a3 3 0 0 0 .83.1 4.63 4.63 0 0 0 2.04-.54l.09 1.83a6.43 6.43 0 0 1-3.86.36c-.41-.1-.79-.29-1.13-.57a3.14 3.14 0 0 1-.84-1.14 4.58 4.58 0 0 1-.33-1.9v-8.85h-2.97v-1.8h2.97v-3.97h1.98v3.97h4.06v1.8ZM162.55 48.27c0 .16-.06.31-.18.44a.58.58 0 0 1-.45.19.57.57 0 0 1-.46-.2.63.63 0 0 1 0-.87c.12-.13.27-.19.46-.19.18 0 .34.06.45.2.12.12.18.27.18.43ZM169.75 46.1c0 .41-.08.79-.22 1.14a2.74 2.74 0 0 1-1.52 1.51 3.1 3.1 0 0 1-1.18.22c-.42 0-.8-.07-1.16-.22a2.73 2.73 0 0 1-1.52-1.51 2.99 2.99 0 0 1-.22-1.14c0-.42.08-.8.22-1.15a2.74 2.74 0 0 1 1.52-1.5 3.1 3.1 0 0 1 2.34 0 2.74 2.74 0 0 1 1.52 1.5c.14.35.22.73.22 1.15Zm-.85 0c0-.3-.05-.6-.14-.85a2.04 2.04 0 0 0-1.06-1.16 2.1 2.1 0 0 0-.86-.17c-.32 0-.61.06-.86.17-.25.12-.47.27-.65.47a2.41 2.41 0 0 0-.55 1.54c0 .3.05.59.15.85a1.93 1.93 0 0 0 1.91 1.32 2.02 2.02 0 0 0 1.5-.63c.19-.2.32-.43.42-.7.1-.25.14-.54.14-.84ZM172.04 43.36l.03.44v.44h.03a2.16 2.16 0 0 1 .77-.73c.16-.1.34-.16.53-.21.18-.05.36-.08.54-.08.7 0 1.22.18 1.55.55.34.37.5.9.5 1.59v3.47h-.76V45.8c0-.6-.1-1.07-.32-1.4-.2-.32-.6-.48-1.17-.48l-.33.05c-.18.03-.37.12-.56.26-.2.14-.38.35-.53.63-.16.28-.24.67-.24 1.17v2.8h-.77v-4.26c0-.15 0-.33-.02-.56l-.04-.65h.8ZM178.43 46.3c.02.28.1.54.2.78a2 2 0 0 0 1.81 1.19c.42 0 .77-.1 1.07-.29.3-.19.53-.4.69-.65l.6.49c-.34.41-.7.7-1.09.88a3 3 0 0 1-3.29-.55 2.9 2.9 0 0 1-.8-2.05c0-.41.07-.8.2-1.14a2.7 2.7 0 0 1 2.56-1.73 2.47 2.47 0 0 1 2.44 1.67c.12.33.18.69.18 1.06v.35h-4.57Zm3.72-.62c0-.52-.16-.95-.47-1.27a1.73 1.73 0 0 0-1.3-.48 1.93 1.93 0 0 0-1.34.53 1.9 1.9 0 0 0-.42.57c-.1.2-.16.42-.16.65h3.69Z" fill="#4AFEBF"/></svg>