<svg width="123" height="69" fill="none" xmlns="http://www.w3.org/2000/svg"><mask id="q" style="mask-type:alpha" maskUnits="userSpaceOnUse" x="7" y="7" width="108" height="55"><path d="M37.86 37.98h-7.71v7.74h7.71v-7.74Z" fill="#fff"/><path d="M37.86 45.72h-7.71v7.74h7.71v-7.74Z" fill="url(#a)"/><path d="M30.15 45.72H14.7v7.74h15.44v-7.74Z" fill="#fff"/><path d="M30.15 53.48H14.7v7.74h15.44v-7.74Z" fill="url(#b)"/><path d="M14.71 14.74H7v30.98h7.71V14.74Z" fill="#fff"/><path d="M14.71 45.72H7v7.74h7.71v-7.74Z" fill="url(#c)"/><path d="M37.86 14.74h-7.71v7.74h7.71v-7.74Z" fill="#fff"/><path d="M37.86 22.5h-7.71v7.74h7.71V22.5Z" fill="url(#d)"/><path d="M30.15 7H14.7v7.74h15.44V7Z" fill="#fff"/><path d="M30.15 14.74H14.7v7.74h15.44v-7.74Z" fill="url(#e)"/><path d="M115 37.98h-7.71v7.74H115v-7.74Z" fill="#fff"/><path d="M115 45.72h-7.71v7.74H115v-7.74Z" fill="url(#f)"/><path d="M107.3 45.72H91.88v7.74h15.44v-7.74Z" fill="#fff"/><path d="M107.3 53.48H91.88v7.74h15.44v-7.74Z" fill="url(#g)"/><path d="M91.87 14.74h-7.71v30.98h7.7V14.74Z" fill="#fff"/><path d="M91.87 45.72h-7.71v7.74h7.7v-7.74Z" fill="url(#h)"/><path d="M115 14.74h-7.71v7.74H115v-7.74Z" fill="#fff"/><path d="M115 22.5h-7.71v7.74H115V22.5Z" fill="url(#i)"/><path d="M107.3 7H91.88v7.74h15.44V7Z" fill="#fff"/><path d="M107.3 14.74H91.88v7.74h15.44v-7.74Z" fill="url(#j)"/><path d="M76.43 37.57h-7.71v8.15h7.71v-8.15Z" fill="#fff"/><path d="M76.43 45.72h-7.71v7.74h7.71v-7.74Z" fill="url(#k)"/><path d="M68.74 45.72H53.3v7.74h15.44v-7.74Z" fill="#fff"/><path d="M68.74 53.48H53.3v7.74h15.44v-7.74Z" fill="url(#l)"/><path d="M53.28 14.74h-7.71v30.98h7.71V14.74Z" fill="#fff"/><path d="M53.28 45.72h-7.71v7.74h7.71v-7.74Z" fill="url(#m)"/><path d="M76.43 14.74h-7.71v7.74h7.71v-7.74Z" fill="#fff"/><path d="M76.43 22.5h-7.71v7.74h7.71V22.5Z" fill="url(#n)"/><path d="M68.74 7H53.3v7.74h15.44V7Z" fill="#fff"/><path d="M68.74 14.74H53.3v7.74h15.44v-7.74Z" fill="url(#o)"/><path d="M76.45 30.24H61v7.74h15.44v-7.74Z" fill="#fff"/><path d="M68.72 37.98H61v7.74h7.7v-7.74Z" fill="url(#p)"/></mask><g mask="url(#q)"><path fill="#4AFEBF" d="M5 4h116v65H5z"/></g><defs><linearGradient id="a" x1="36.65" y1="47.06" x2="31.27" y2="52.16" gradientUnits="userSpaceOnUse"><stop stop-color="#fff"/><stop offset="1" stop-color="#C8C8C8"/></linearGradient><linearGradient id="b" x1="27.73" y1="54.82" x2="23.29" y2="63.26" gradientUnits="userSpaceOnUse"><stop stop-color="#fff"/><stop offset="1" stop-color="#C8C8C8"/></linearGradient><linearGradient id="c" x1="13.5" y1="47.06" x2="8.12" y2="52.16" gradientUnits="userSpaceOnUse"><stop stop-color="#fff"/><stop offset="1" stop-color="#C8C8C8"/></linearGradient><linearGradient id="d" x1="36.65" y1="23.84" x2="31.27" y2="28.94" gradientUnits="userSpaceOnUse"><stop stop-color="#fff"/><stop offset="1" stop-color="#C8C8C8"/></linearGradient><linearGradient id="e" x1="27.73" y1="16.08" x2="23.29" y2="24.52" gradientUnits="userSpaceOnUse"><stop stop-color="#fff"/><stop offset="1" stop-color="#C8C8C8"/></linearGradient><linearGradient id="f" x1="113.79" y1="47.06" x2="108.41" y2="52.16" gradientUnits="userSpaceOnUse"><stop stop-color="#fff"/><stop offset="1" stop-color="#C8C8C8"/></linearGradient><linearGradient id="g" x1="104.89" y1="54.82" x2="100.44" y2="63.26" gradientUnits="userSpaceOnUse"><stop stop-color="#fff"/><stop offset="1" stop-color="#C8C8C8"/></linearGradient><linearGradient id="h" x1="90.66" y1="47.06" x2="85.28" y2="52.16" gradientUnits="userSpaceOnUse"><stop stop-color="#fff"/><stop offset="1" stop-color="#C8C8C8"/></linearGradient><linearGradient id="i" x1="113.79" y1="23.84" x2="108.41" y2="28.94" gradientUnits="userSpaceOnUse"><stop stop-color="#fff"/><stop offset="1" stop-color="#C8C8C8"/></linearGradient><linearGradient id="j" x1="104.89" y1="16.08" x2="100.44" y2="24.52" gradientUnits="userSpaceOnUse"><stop stop-color="#fff"/><stop offset="1" stop-color="#C8C8C8"/></linearGradient><linearGradient id="k" x1="75.22" y1="47.06" x2="69.84" y2="52.16" gradientUnits="userSpaceOnUse"><stop stop-color="#fff"/><stop offset="1" stop-color="#C8C8C8"/></linearGradient><linearGradient id="l" x1="66.32" y1="54.82" x2="61.87" y2="63.26" gradientUnits="userSpaceOnUse"><stop stop-color="#fff"/><stop offset="1" stop-color="#C8C8C8"/></linearGradient><linearGradient id="m" x1="52.07" y1="47.06" x2="46.69" y2="52.16" gradientUnits="userSpaceOnUse"><stop stop-color="#fff"/><stop offset="1" stop-color="#C8C8C8"/></linearGradient><linearGradient id="n" x1="75.22" y1="23.84" x2="69.84" y2="28.94" gradientUnits="userSpaceOnUse"><stop stop-color="#fff"/><stop offset="1" stop-color="#C8C8C8"/></linearGradient><linearGradient id="o" x1="66.32" y1="16.08" x2="61.87" y2="24.52" gradientUnits="userSpaceOnUse"><stop stop-color="#fff"/><stop offset="1" stop-color="#C8C8C8"/></linearGradient><linearGradient id="p" x1="67.51" y1="39.32" x2="62.13" y2="44.42" gradientUnits="userSpaceOnUse"><stop stop-color="#fff"/><stop offset="1" stop-color="#C8C8C8"/></linearGradient></defs></svg>