<svg width="308" height="69" fill="none" xmlns="http://www.w3.org/2000/svg"><path d="M109.67 57.55H92.97v-24h4.69v19.81h8.17v-3.22l3.86-.09v7.5ZM110.89 33.71h4.7v14.17c0 2 .24 3.43.7 4.27.42.71 1.39 1.05 2.85 1.05.63 0 1.26-.13 1.89-.34.63-.25 1-.54 1.21-.92.47-.88.68-2.39.68-4.53V33.55h4.69V48.8c0 1.72-.09 2.97-.25 3.85-.17.8-.5 1.55-.93 2.18a6.57 6.57 0 0 1-2.72 2.43c-.5.25-1.21.42-2.05.59-.84.12-1.68.2-2.52.2-2.1 0-3.52-.2-4.35-.58a7.7 7.7 0 0 1-2.73-2.47 6.55 6.55 0 0 1-.92-2.1c-.17-.58-.25-1.8-.3-3.6V33.71h.05ZM140.18 48.97l-4.86 8.42H130l7.7-12.11-7.5-11.9h5.33l4.65 8.34 4.6-8.34h5.33l-7.46 11.9 7.67 12.1h-5.28l-4.86-8.41ZM183.92 40.67h-5.74a7.68 7.68 0 0 0-2.47-2.1 6.93 6.93 0 0 0-3.15-.67 6.9 6.9 0 0 0-5.2 2.22 7.56 7.56 0 0 0-2.13 5.45c0 2.14.71 3.94 2.14 5.45a7.22 7.22 0 0 0 5.28 2.22c1.17 0 2.18-.21 3.06-.67a6.4 6.4 0 0 0 2.34-1.89h5.7a14.4 14.4 0 0 1-1.97 3.23c-.75.92-1.6 1.67-2.47 2.3a11.57 11.57 0 0 1-6.7 1.85 11.7 11.7 0 0 1-8.68-3.6 11.32 11.32 0 0 1-3.14-5.66 14.7 14.7 0 0 1-.38-3.35 11.98 11.98 0 0 1 3.73-8.89 11.8 11.8 0 0 1 3.86-2.6 12.4 12.4 0 0 1 4.65-.87c1.34 0 2.51.16 3.64.46a11.1 11.1 0 0 1 5.62 3.77c.7.96 1.42 2.1 2 3.35ZM194.14 52.53l-1.84 5.02h-4.86l8.17-20.1h-6.2l.08-3.9h10.22l10.31 24h-5.07l-1.88-5.02h-8.93Zm7.38-4.44-2.85-7.71-2.94 7.7h5.78ZM219.36 57.55h-4.69l-.08-9.09h-3.27v-4.15h3.27l.08-10.76h5.95c.71 0 1.68.04 2.93.12 1.26.09 2.14.21 2.6.3.92.2 1.68.46 2.18.8a7.53 7.53 0 0 1 2.35 2.63c.58 1.17.83 2.35.83 3.52 0 2.3-.75 4.15-2.26 5.49a7.11 7.11 0 0 1-3.48 1.42c-1.59.3-3.14.46-4.65.46h-1.72v9.26h-.04Zm0-13.28h1.22c.88 0 1.88-.04 2.93-.17 1.05-.08 1.76-.29 2.05-.54a2.94 2.94 0 0 0 1.05-2.43c0-1.09-.33-1.89-1-2.43-.3-.21-1-.42-2.14-.63-1.13-.2-2.1-.33-2.93-.33h-1.18v6.53ZM237.8 33.55h-4.65v24h4.65v-24ZM253.47 33.55v4.23h-4.53v19.77h-4.73V37.78h-4.53v-4.23h13.79ZM262.52 52.53l-1.84 5.02h-4.87l8.17-20.1h-6.2l.09-3.9h10.22l10.3 24h-5.06l-1.89-5.02h-8.92Zm7.37-4.44-2.85-7.71-2.93 7.7h5.78ZM297 57.55h-16.72v-24h4.65v19.81h8.21v-3.22l3.86-.09v7.5ZM29.15 46.16l7.62-16.05-7.12-15.3L10 57.27h39.38l-.08-.2-5.07-10.9H29.15ZM85.92 57.26 81.1 46.5H61.37L49.38 20.85h23.09L67.77 10H32.47l21.5 47.26h31.96Z" fill="#fff"/></svg>