<svg width="214" height="69" fill="none" xmlns="http://www.w3.org/2000/svg"><path d="M30.22 20.47V48.1h-7.65l-10.5-12.54v12.54H3V20.47h7.65l10.5 12.55V20.47h9.07Z" fill="#fff"/><path d="M30.78 27.5v4.73H42.3v7.02H30.78v8.84h-6.36V20.47h19.5v7.03H30.77Z" fill="url(#a)"/><path d="M38.43 27.5h-8.09v-7.03h25.49v7.03h-8.09v20.6h-9.31V27.5Z" fill="#fff"/><path d="M30.78 27.5H43.9v-7.03H30.78v7.03Z" fill="url(#b)"/><path d="M38.43 32.23v7.02h3.87v-7.02h-3.87Z" fill="url(#c)"/><path d="M30.82 48.1V20.46h-6.4V48.1h6.4Z" fill="url(#d)"/><path d="M76.5 48.57c-2.18 0-4.3-.3-6.35-.87a15.14 15.14 0 0 1-4.9-2.33l2.18-4.81c1.18.86 2.59 1.56 4.22 2.09 1.63.52 3.26.79 4.9.79 1.8 0 3.15-.27 4.02-.8.87-.54 1.3-1.27 1.3-2.16 0-.66-.26-1.2-.79-1.62a5.4 5.4 0 0 0-1.97-1.07c-.8-.26-1.87-.55-3.24-.86-2.1-.5-3.82-1-5.17-1.5a8.55 8.55 0 0 1-3.47-2.41 6.56 6.56 0 0 1-1.42-4.42c0-1.6.44-3.05 1.3-4.34a8.72 8.72 0 0 1 3.9-3.12c1.77-.76 3.92-1.14 6.44-1.14 1.76 0 3.49.21 5.17.63 1.68.42 3.16 1.03 4.42 1.82l-1.97 4.85a15.4 15.4 0 0 0-7.66-2.17c-1.79 0-3.12.29-3.98.87a2.66 2.66 0 0 0-1.27 2.29c0 .94.49 1.65 1.46 2.13 1 .44 2.52.9 4.54 1.34a45 45 0 0 1 5.17 1.5 8.4 8.4 0 0 1 3.43 2.36A6.3 6.3 0 0 1 88.22 40c0 1.58-.45 3.03-1.34 4.34a8.8 8.8 0 0 1-3.95 3.08c-1.76.76-3.9 1.15-6.43 1.15ZM101.87 25.68h-8.84v-5.2h24.07v5.2h-8.84V48.1h-6.39V25.7ZM141.28 42.17h-12.82l-2.44 5.92h-6.55l12.3-27.62h6.32l12.35 27.62h-6.7l-2.46-5.92Zm-2-4.85-4.39-10.57-4.38 10.57h8.76ZM174.85 48.1l-5.33-7.7h-5.88v7.7h-6.4V20.46h11.96c2.45 0 4.57.41 6.36 1.23a9.44 9.44 0 0 1 4.18 3.47 9.57 9.57 0 0 1 1.46 5.33c0 2.05-.5 3.82-1.5 5.32a9.3 9.3 0 0 1-4.18 3.4l6.2 8.87h-6.87Zm-.12-17.6c0-1.56-.5-2.74-1.5-3.56-1-.84-2.46-1.26-4.38-1.26h-5.2v9.63h5.2c1.92 0 3.38-.42 4.38-1.26a4.4 4.4 0 0 0 1.5-3.55ZM199.28 48.57c-2.18 0-4.3-.3-6.35-.87a15.12 15.12 0 0 1-4.9-2.33l2.18-4.81c1.18.86 2.59 1.56 4.22 2.09 1.63.52 3.26.79 4.9.79 1.8 0 3.15-.27 4.02-.8.86-.54 1.3-1.27 1.3-2.16 0-.66-.27-1.2-.8-1.62a5.4 5.4 0 0 0-1.96-1.07c-.8-.26-1.87-.55-3.24-.86-2.1-.5-3.83-1-5.17-1.5a8.55 8.55 0 0 1-3.47-2.41 6.56 6.56 0 0 1-1.42-4.42c0-1.6.43-3.05 1.3-4.34a8.72 8.72 0 0 1 3.9-3.12c1.77-.76 3.91-1.14 6.44-1.14 1.76 0 3.49.21 5.17.63 1.68.42 3.15 1.03 4.42 1.82l-1.98 4.85a15.4 15.4 0 0 0-7.65-2.17c-1.79 0-3.12.29-3.98.87a2.66 2.66 0 0 0-1.27 2.29c0 .94.49 1.65 1.46 2.13 1 .44 2.51.9 4.54 1.34 2.1.5 3.83 1 5.17 1.5a8.4 8.4 0 0 1 3.43 2.36A6.29 6.29 0 0 1 211 40c0 1.58-.45 3.03-1.34 4.34a8.8 8.8 0 0 1-3.95 3.08c-1.76.76-3.9 1.15-6.43 1.15Z" fill="#fff"/><defs><linearGradient id="a" x1="40.86" y1="25.25" x2="23.07" y2="37.2" gradientUnits="userSpaceOnUse"><stop stop-color="#fff"/><stop offset="1" stop-color="#C8C8C8"/></linearGradient><linearGradient id="b" x1="41.86" y1="21.69" x2="37.67" y2="29.13" gradientUnits="userSpaceOnUse"><stop stop-color="#fff"/><stop offset="1" stop-color="#C8C8C8"/></linearGradient><linearGradient id="c" x1="41.69" y1="33.45" x2="37.67" y2="35.55" gradientUnits="userSpaceOnUse"><stop stop-color="#fff"/><stop offset="1" stop-color="#C8C8C8"/></linearGradient><linearGradient id="d" x1="29.82" y1="25.25" x2="21.74" y2="27.04" gradientUnits="userSpaceOnUse"><stop stop-color="#fff"/><stop offset="1" stop-color="#C8C8C8"/></linearGradient></defs></svg>