<svg width="257" height="69" fill="none" xmlns="http://www.w3.org/2000/svg"><mask id="a" style="mask-type:alpha" maskUnits="userSpaceOnUse" x="3" y="3" width="249" height="63"><path d="M83.78 41.77a9.95 9.95 0 0 1-3.93-3.72 10.15 10.15 0 0 1-1.43-5.34c-.03-1.88.46-3.73 1.43-5.35a9.95 9.95 0 0 1 3.93-3.72 12.5 12.5 0 0 1 11.3 0 10.27 10.27 0 0 1 0 18.13 12.5 12.5 0 0 1-11.3 0Zm8.9-3.43a5.83 5.83 0 0 0 2.24-2.32 7.14 7.14 0 0 0 0-6.67 5.83 5.83 0 0 0-2.24-2.27 6.76 6.76 0 0 0-6.45 0 5.94 5.94 0 0 0-2.28 2.29 7.2 7.2 0 0 0 0 6.67c.53.96 1.31 1.75 2.26 2.3a6.76 6.76 0 0 0 6.45 0h.02ZM106.63 41.99a7.64 7.64 0 0 1-3.03-2.84 8.32 8.32 0 0 1 0-8.22 7.6 7.6 0 0 1 3.03-2.85 9.37 9.37 0 0 1 4.4-1.05 9.27 9.27 0 0 1 4.36 1.02 7.61 7.61 0 0 1 4.12 6.95 7.64 7.64 0 0 1-4.12 6.95 9.16 9.16 0 0 1-4.37 1.03 9.27 9.27 0 0 1-4.39-1Zm7.2-3.83a4.35 4.35 0 0 0 1.1-3.12 4.35 4.35 0 0 0-1.1-3.12 3.76 3.76 0 0 0-2.83-1.17 3.8 3.8 0 0 0-2.86 1.17 4.3 4.3 0 0 0-1.07 3.12 4.31 4.31 0 0 0 1.12 3.12 3.76 3.76 0 0 0 2.85 1.17 3.72 3.72 0 0 0 2.82-1.17h-.03ZM128.96 27.64c1-.4 2.07-.6 3.15-.57v4.14c-.5 0-.83-.06-1-.06a4.15 4.15 0 0 0-3.03 1.08 4.36 4.36 0 0 0-1.09 3.24v7.3h-4.5V27.3h4.3v2.05a4.92 4.92 0 0 1 2.17-1.7ZM145.32 42.03a4.6 4.6 0 0 1-1.63.73 7.8 7.8 0 0 1-2.02.25c-1.55.1-3.08-.4-4.27-1.41a5.38 5.38 0 0 1-1.51-4.15V31.1h-2.4v-3.46h2.4v-3.76h4.5v3.76h3.85v3.46h-3.9v6.3c-.03.54.15 1.08.5 1.5a1.87 1.87 0 0 0 1.42.53c.65.02 1.28-.18 1.8-.57l1.26 3.17ZM156.32 22.63h9.14c2-.04 4 .4 5.8 1.25a9.37 9.37 0 0 1 5.31 8.83 9.37 9.37 0 0 1-5.3 8.82c-1.81.86-3.8 1.29-5.8 1.25h-9.15V22.63Zm8.92 16.32c1.76.09 3.5-.52 4.82-1.68a5.96 5.96 0 0 0 1.8-4.56 5.97 5.97 0 0 0-1.8-4.56 6.77 6.77 0 0 0-4.82-1.68h-4.22v12.48h4.22ZM180 24.42a2.43 2.43 0 0 1 0-3.6c.55-.5 1.27-.75 2.01-.72.73-.04 1.45.2 2.02.68a2.24 2.24 0 0 1 .78 1.73 2.44 2.44 0 0 1-.78 1.86 3.17 3.17 0 0 1-4.03 0v.05Zm-.23 2.87h4.5v15.49h-4.5V27.29ZM204.4 27.3v12.89c0 2.84-.74 4.94-2.22 6.3-1.48 1.34-3.6 2.06-6.47 2.06-1.44 0-2.87-.17-4.26-.54a9.51 9.51 0 0 1-3.33-1.58l1.8-3.23a7.46 7.46 0 0 0 2.47 1.29c.97.3 1.98.46 3 .46 1.22.11 2.43-.25 3.4-1a4.17 4.17 0 0 0 1.12-3.19v-.66a6.3 6.3 0 0 1-4.9 1.93 8.26 8.26 0 0 1-3.9-.9 7.13 7.13 0 0 1-3.84-6.54c0-1.38.36-2.72 1.03-3.92a7.13 7.13 0 0 1 2.81-2.63 8.26 8.26 0 0 1 3.9-.9 6.14 6.14 0 0 1 5.12 2.21V27.3h4.27Zm-5.56 10a3.9 3.9 0 0 0 0-5.5 4.15 4.15 0 0 0-2.93-1.05 4.2 4.2 0 0 0-2.94 1.05 3.86 3.86 0 0 0 0 5.5 4.2 4.2 0 0 0 2.94 1.04 4.15 4.15 0 0 0 2.93-1.05ZM208.8 24.42a2.43 2.43 0 0 1 0-3.6c.55-.5 1.27-.75 2.01-.72.74-.04 1.46.2 2.02.68a2.22 2.22 0 0 1 .78 1.73 2.47 2.47 0 0 1-.78 1.86 3.16 3.16 0 0 1-4.03 0v.05Zm-.23 2.87h4.5v15.49h-4.5V27.29ZM227.22 42.03c-.5.35-1.04.6-1.62.73-.67.17-1.35.26-2.03.25-1.56.1-3.09-.4-4.28-1.41a5.4 5.4 0 0 1-1.5-4.15V31.1h-2.4v-3.46h2.4v-3.76h4.49v3.76h3.86v3.46h-3.86v6.3c-.03.54.15 1.08.5 1.5a1.88 1.88 0 0 0 1.42.53c.65.02 1.28-.18 1.8-.57l1.22 3.17ZM241.52 28.78c1.29 1.14 1.93 2.86 1.93 5.17v8.83h-4.2v-1.93c-.84 1.44-2.41 2.16-4.71 2.16a7.3 7.3 0 0 1-3.1-.6 4.38 4.38 0 0 1-2.69-4.08 4.03 4.03 0 0 1 1.63-3.41c1.08-.82 2.75-1.23 5.02-1.23h3.6a2.87 2.87 0 0 0-.9-2.26 3.93 3.93 0 0 0-2.7-.8 7.7 7.7 0 0 0-4.46 1.45l-1.57-3.14a9.89 9.89 0 0 1 3.03-1.39c1.18-.32 2.39-.48 3.6-.48a8.1 8.1 0 0 1 5.52 1.7Zm-3.83 10.67c.6-.35 1.05-.9 1.27-1.56V36.3h-3.08c-1.84 0-2.76.6-2.76 1.8a1.6 1.6 0 0 0 .68 1.37c.55.36 1.2.54 1.85.5.72.02 1.42-.16 2.04-.52ZM247.5 21.43h4.5v21.35h-4.5V21.43Z" fill="#30465C"/><path d="M48.91 59.85a28.78 28.78 0 0 1-14.57 3.9 29.38 29.38 0 0 1-26.3-42.36M60.7 47.36a29.33 29.33 0 0 0-40.86-38.5" stroke="#30465C" stroke-width="3" stroke-miterlimit="10"/><path d="M41.73 18.23a17.48 17.48 0 0 0-16.1.69 17.77 17.77 0 0 0-6.93 23.76 17.42 17.42 0 0 0 8.33 7.81 17.74 17.74 0 0 0 23.03-24.45" stroke="#30465C" stroke-width="3" stroke-miterlimit="10"/><path d="M46.55 25.16a3.77 3.77 0 1 0 0-7.53 3.77 3.77 0 0 0 0 7.53ZM55.66 60.28a6.1 6.1 0 1 0 0-12.2 6.1 6.1 0 0 0 0 12.2ZM13.17 20.86a6.47 6.47 0 1 0 0-12.93 6.47 6.47 0 0 0 0 12.93Z" fill="#55AFBC"/></mask><g mask="url(#a)"><path fill="#4AFEBF" d="M0 0h257v69H0z"/></g></svg>