<svg width="258" height="69" fill="none" xmlns="http://www.w3.org/2000/svg"><mask id="a" style="mask-type:alpha" maskUnits="userSpaceOnUse" x="4" y="3" width="249" height="63"><path d="M84.702 41.771a9.945 9.945 0 0 1-3.939-3.723 10.152 10.152 0 0 1-1.43-5.342 10.152 10.152 0 0 1 1.43-5.341 9.946 9.946 0 0 1 3.94-3.723 12.5 12.5 0 0 1 11.294 0 10.27 10.27 0 0 1 0 18.13 12.5 12.5 0 0 1-11.295 0Zm8.894-3.435a5.827 5.827 0 0 0 2.239-2.311 7.14 7.14 0 0 0 0-6.673 5.827 5.827 0 0 0-2.24-2.275 6.762 6.762 0 0 0-6.447 0 5.944 5.944 0 0 0-2.275 2.293 7.194 7.194 0 0 0 0 6.673 5.945 5.945 0 0 0 2.257 2.293 6.762 6.762 0 0 0 6.448 0h.018ZM107.552 41.987a7.638 7.638 0 0 1-3.039-2.833 8.313 8.313 0 0 1 0-8.228 7.603 7.603 0 0 1 3.039-2.842 9.374 9.374 0 0 1 4.389-1.052 9.269 9.269 0 0 1 4.37 1.016 7.612 7.612 0 0 1 3.022 2.842 8.27 8.27 0 0 1 0 8.228 7.647 7.647 0 0 1-3.022 2.833 9.162 9.162 0 0 1-4.37 1.025 9.267 9.267 0 0 1-4.389-.99Zm7.194-3.831a4.344 4.344 0 0 0 1.107-3.12 4.344 4.344 0 0 0-1.107-3.12 3.746 3.746 0 0 0-2.832-1.17 3.804 3.804 0 0 0-2.851 1.17 4.307 4.307 0 0 0-1.079 3.12 4.31 4.31 0 0 0 1.124 3.12 3.769 3.769 0 0 0 2.851 1.17 3.718 3.718 0 0 0 2.814-1.17h-.027ZM129.881 27.644c1-.402 2.07-.598 3.147-.576v4.146c-.494 0-.827-.063-1.007-.063A4.146 4.146 0 0 0 129 32.23a4.358 4.358 0 0 0-1.088 3.237v7.311h-4.497V27.293h4.29v2.05a4.922 4.922 0 0 1 2.176-1.7ZM146.238 42.032a4.586 4.586 0 0 1-1.627.728 7.804 7.804 0 0 1-2.024.252 6.043 6.043 0 0 1-4.271-1.412 5.401 5.401 0 0 1-1.511-4.145v-6.358h-2.392v-3.453h2.392v-3.768h4.497v3.768h3.857v3.453h-3.902v6.295c-.033.55.147 1.09.503 1.51a1.879 1.879 0 0 0 1.421.531 2.89 2.89 0 0 0 1.799-.575l1.258 3.174ZM157.236 22.635h9.146a12.858 12.858 0 0 1 5.8 1.25 9.37 9.37 0 0 1 3.912 3.525 9.892 9.892 0 0 1 1.394 5.296 9.893 9.893 0 0 1-1.394 5.297 9.37 9.37 0 0 1-3.912 3.525 12.858 12.858 0 0 1-5.8 1.25h-9.146V22.635Zm8.921 16.312a6.771 6.771 0 0 0 4.82-1.681 5.973 5.973 0 0 0 1.799-4.56 5.97 5.97 0 0 0-1.799-4.559 6.771 6.771 0 0 0-4.82-1.681h-4.217v12.481h4.217ZM180.914 24.415a2.443 2.443 0 0 1-.792-1.798 2.443 2.443 0 0 1 .792-1.799 2.824 2.824 0 0 1 2.014-.72 2.915 2.915 0 0 1 2.015.684 2.228 2.228 0 0 1 .782 1.727 2.439 2.439 0 0 1-.782 1.861 3.167 3.167 0 0 1-4.029 0v.045Zm-.225 2.878h4.497v15.485h-4.497V27.293ZM205.32 27.293v12.895c0 2.842-.737 4.946-2.221 6.295-1.484 1.35-3.597 2.069-6.475 2.069a16.358 16.358 0 0 1-4.253-.54 9.515 9.515 0 0 1-3.337-1.583l1.799-3.228a7.458 7.458 0 0 0 2.473 1.286 9.89 9.89 0 0 0 2.994.468 4.876 4.876 0 0 0 3.409-1.008 4.172 4.172 0 0 0 1.115-3.183v-.666a6.293 6.293 0 0 1-4.892 1.934 8.255 8.255 0 0 1-3.903-.9 7.127 7.127 0 0 1-2.806-2.634 7.913 7.913 0 0 1 0-7.824 7.127 7.127 0 0 1 2.806-2.635 8.255 8.255 0 0 1 3.903-.899 6.137 6.137 0 0 1 5.116 2.212v-2.059h4.272Zm-5.566 10a3.896 3.896 0 0 0 0-5.495 4.147 4.147 0 0 0-2.923-1.052 4.21 4.21 0 0 0-2.941 1.052 3.852 3.852 0 0 0-1.149 2.747 3.864 3.864 0 0 0 1.149 2.748 4.21 4.21 0 0 0 2.941 1.052 4.148 4.148 0 0 0 2.923-1.052ZM209.717 24.415a2.44 2.44 0 0 1 0-3.597 2.844 2.844 0 0 1 2.015-.72 2.913 2.913 0 0 1 2.014.684 2.23 2.23 0 0 1 .782 1.727 2.439 2.439 0 0 1-.782 1.861 3.165 3.165 0 0 1-4.029 0v.045Zm-.224 2.878h4.496v15.485h-4.496V27.293ZM228.134 42.032a4.62 4.62 0 0 1-1.618.728 7.92 7.92 0 0 1-2.033.252 6.043 6.043 0 0 1-4.271-1.412 5.401 5.401 0 0 1-1.511-4.145v-6.358h-2.392v-3.453h2.392v-3.768h4.496v3.768h3.858v3.453h-3.858v6.295c-.032.55.148 1.09.504 1.51a1.87 1.87 0 0 0 1.421.531 2.886 2.886 0 0 0 1.798-.575l1.214 3.174ZM242.441 28.777c1.283 1.139 1.925 2.862 1.925 5.17v8.831h-4.191v-1.924c-.845 1.439-2.419 2.158-4.721 2.158a7.3 7.3 0 0 1-3.093-.611 4.501 4.501 0 0 1-1.997-1.664 4.373 4.373 0 0 1-.692-2.419 4.028 4.028 0 0 1 1.628-3.4c1.079-.82 2.751-1.231 5.017-1.231h3.598a2.853 2.853 0 0 0-.9-2.257 3.929 3.929 0 0 0-2.698-.792 7.712 7.712 0 0 0-2.428.387 6.482 6.482 0 0 0-2.032 1.052l-1.574-3.138a9.905 9.905 0 0 1 3.04-1.385 13.657 13.657 0 0 1 3.597-.486 8.091 8.091 0 0 1 5.521 1.709Zm-3.83 10.674a2.91 2.91 0 0 0 1.268-1.565v-1.582h-3.076c-1.843 0-2.77.602-2.77 1.798a1.605 1.605 0 0 0 .684 1.367 3.04 3.04 0 0 0 1.852.504 3.868 3.868 0 0 0 2.042-.522ZM248.422 21.43h4.496v21.348h-4.496V21.43Z" fill="#30465C"/><path d="M49.829 59.846A28.775 28.775 0 0 1 35.26 63.75 29.379 29.379 0 0 1 5.918 34.343a28.777 28.777 0 0 1 3.048-12.95M61.618 47.364a28.867 28.867 0 0 0 3.049-12.949A29.325 29.325 0 0 0 35.333 5a28.911 28.911 0 0 0-14.577 3.867" stroke="#30465C" stroke-width="3" stroke-miterlimit="10"/><path d="M42.644 18.229A17.483 17.483 0 0 0 35.27 16.6a17.77 17.77 0 0 0-15.656 26.078 17.419 17.419 0 0 0 8.336 7.815 17.184 17.184 0 0 0 7.329 1.628 17.742 17.742 0 0 0 15.7-26.079" stroke="#30465C" stroke-width="3" stroke-miterlimit="10"/><path d="M47.473 25.162a3.768 3.768 0 1 0 0-7.536 3.768 3.768 0 0 0 0 7.536ZM56.573 60.278a6.097 6.097 0 1 0 0-12.194 6.097 6.097 0 0 0 0 12.194ZM14.083 20.863a6.466 6.466 0 1 0 0-12.931 6.466 6.466 0 0 0 0 12.931Z" fill="#55AFBC"/></mask><g mask="url(#a)"><path fill="#fff" d="M.918 0h257v69h-257z"/><circle cx="56.5" cy="54.5" r="6.5" fill="url(#b)"/><ellipse cx="14" cy="14.5" rx="7" ry="6.5" fill="url(#c)"/><circle cx="47.5" cy="21.5" r="4.5" fill="url(#d)"/></g><defs><linearGradient id="b" x1="60.966" y1="50.25" x2="51.925" y2="58.849" gradientUnits="userSpaceOnUse"><stop stop-color="#fff"/><stop offset="1" stop-color="#C8C8C8"/></linearGradient><linearGradient id="c" x1="18.81" y1="10.25" x2="9.759" y2="19.519" gradientUnits="userSpaceOnUse"><stop stop-color="#fff"/><stop offset="1" stop-color="#C8C8C8"/></linearGradient><linearGradient id="d" x1="50.592" y1="18.558" x2="44.332" y2="24.511" gradientUnits="userSpaceOnUse"><stop stop-color="#fff"/><stop offset="1" stop-color="#C8C8C8"/></linearGradient></defs></svg>