<svg width="176" height="69" fill="none" xmlns="http://www.w3.org/2000/svg"><path d="M35.83 27.4h21.21V23H35.83v4.4zM35.83 45h21.21v-4.4H35.83V45z" fill="#fff" stroke="#F1F2F2" stroke-width="1.33" stroke-miterlimit="10"/><path d="M84.63 38.27L66.39 24.73a2.15 2.15 0 01-.86-1.73H61.3v22h4.24V29.5l18.24 13.55c.54.4.86 1.04.86 1.72V45h4.24V23h-4.24v15.27z" fill="#fff"/><path d="M84.63 38.27L66.39 24.73a2.15 2.15 0 01-.86-1.73H61.3v22h4.24V29.5l18.24 13.55c.54.4.86 1.04.86 1.72V45h4.24V23h-4.24v15.27z" stroke="#F1F2F2" stroke-width="1.33" stroke-miterlimit="10"/><path d="M167.38 38.27l-18.24-13.54a2.15 2.15 0 01-.86-1.73h-4.24v22h4.24V29.5l18.24 13.55c.54.4.86 1.04.86 1.72V45h4.24V23h-4.24v15.27z" fill="#fff"/><path d="M167.38 38.27l-18.24-13.54a2.15 2.15 0 01-.86-1.73h-4.24v22h4.24V29.5l18.24 13.55c.54.4.86 1.04.86 1.72V45h4.24V23h-4.24v15.27z" stroke="#F1F2F2" stroke-width="1.33" stroke-miterlimit="10"/><path d="M135.55 45h4.24V23h-4.24v22z" fill="#fff" stroke="#F1F2F2" stroke-width="1.33" stroke-miterlimit="10"/><path d="M120.7 39.5L114.33 23h-4.24l-6.37 16.5L97.36 23h-4.24l8.48 22h4.25l6.36-16.5 6.37 16.5h4.24l8.49-22h-4.25l-6.36 16.5z" fill="#fff"/><path d="M120.7 39.5L114.33 23h-4.24l-6.37 16.5L97.36 23h-4.24l8.48 22h4.25l6.36-16.5 6.37 16.5h4.24l8.49-22h-4.25l-6.36 16.5z" stroke="#F1F2F2" stroke-width="1.33" stroke-miterlimit="10"/><path d="M35.83 36.2h21.21v-4.4H35.83v4.4z" fill="#fff" stroke="#F1F2F2" stroke-width="1.33" stroke-miterlimit="10"/><path d="M4 23v4.4h17.16L4 45h27.58v-4.4H14.61L31.58 23H4z" fill="#fff"/><path d="M4 23v4.4h17.16L4 45h27.58v-4.4H14.61L31.58 23H4z" stroke="#F1F2F2" stroke-width="1.33" stroke-miterlimit="10"/></svg>