<svg width="176" height="69" fill="none" xmlns="http://www.w3.org/2000/svg"><path d="M137.42 31.56c-.63 0-1.17.22-1.6.67-.45.46-.69.99-.69 1.61 0 .95.48 1.68 1.43 2.2 1.03.3 1.88.1 2.5-.54.46-.46.68-1 .68-1.62 0-.65-.22-1.19-.68-1.63-.46-.46-1-.7-1.64-.7zM100.54 14.12h-1.7c-.74 0-1.33.6-1.33 1.33v.95c-1.83-1.9-3.9-2.84-6.18-2.84-2.67 0-4.9.98-6.65 2.96a10.61 10.61 0 00-2.66 7.4c0 3.01.88 5.52 2.66 7.53a8.73 8.73 0 006.75 2.97c2.17 0 4.18-.9 6.08-2.66v1.9c0 .91.73 1.67 1.66 1.67h2.91V15.64a1.54 1.54 0 00-1.54-1.52zM96.21 28.6a5.27 5.27 0 01-4.1 1.73c-1.6 0-2.9-.6-3.93-1.8a6.85 6.85 0 01-1.52-4.62c0-1.78.52-3.27 1.56-4.47a5.07 5.07 0 013.92-1.78c1.68 0 3.02.58 4.07 1.76A6.69 6.69 0 0197.77 24c.01 1.88-.51 3.4-1.56 4.61z" fill="#fff"/><path d="M82 15.5c0-.76-.62-1.37-1.39-1.37h-1.8c-.75 0-1.38.61-1.38 1.37v.85a7.95 7.95 0 00-6.2-2.78 8.46 8.46 0 00-6.85 3.2 11.41 11.41 0 00-2.43 7.34c0 2.96.88 5.43 2.61 7.4a8.38 8.38 0 006.6 2.9c2.36 0 4.46-.9 6.27-2.75v2.74c0 4.1-1.66 6.15-5 6.15-1.8 0-3.2-.61-4.13-1.85-.25-.3-.44-.7-.6-1.17a1.62 1.62 0 00-1.53-1.1h-1.71c-.88 0-1.52.85-1.3 1.7a8.44 8.44 0 002.74 4.38c1.7 1.42 3.88 2.12 6.52 2.12 3.11 0 5.57-1.04 7.36-3.08a8.48 8.48 0 001.9-3.85 25.97 25.97 0 00.36-4.35V30.5a11.24 11.24 0 01-1.92-6.6c0-2.51.65-4.68 1.92-6.49v-1.9H82zm-5.79 12.96a4.97 4.97 0 01-4.13 1.9c-1.73 0-3.1-.63-4.1-1.9a6.9 6.9 0 01-1.35-4.4c0-1.83.45-3.32 1.35-4.48a4.9 4.9 0 014.1-1.9c1.63 0 2.96.57 4 1.74a6.64 6.64 0 011.54 4.6c0 1.8-.46 3.29-1.4 4.44zM119.93 14.13l-9.47-.01v-5.8c0-.74-.6-1.35-1.35-1.35h-1.85c-.76 0-1.37.61-1.37 1.37v5.78h-1.93v4.25h1.95v16.96h2.6c1.1 0 1.97-.86 1.97-1.95V18.37h4.66c.37-.72.81-1.36 1.35-1.95a8.36 8.36 0 013.44-2.29zM143.21 6.97c-.81 0-1.5.29-2.08.88a2.84 2.84 0 00-.88 2.07c0 .84.29 1.54.88 2.13.57.58 1.28.86 2.12.86.82 0 1.52-.28 2.08-.86.57-.6.88-1.29.88-2.12 0-.83-.29-1.52-.88-2.08-.6-.6-1.3-.88-2.12-.88zM144.13 16.35h-1.66c-.85 0-1.54.7-1.54 1.54v14.48c.35.4.5.9.5 1.45 0 .56-.17 1.05-.5 1.46v.81h2.92c.9 0 1.63-.72 1.63-1.62V17.7c.02-.75-.6-1.36-1.35-1.36zM165.56 19.14a10.27 10.27 0 00-7.48-3.03c-2.93 0-5.44 1-7.47 3a9.84 9.84 0 00-3.07 7.3c0 3.03 1 5.54 3 7.53 2 2.04 4.49 3.05 7.45 3.05 2.98 0 5.5-1 7.55-2.98a10.01 10.01 0 003.07-7.45c0-2.93-1.02-5.38-3.05-7.42zm-3.22 12.04a5.59 5.59 0 01-4.28 1.71 5.6 5.6 0 01-4.28-1.72c-1.07-1.16-1.6-2.71-1.6-4.7 0-1.84.55-3.33 1.63-4.5a5.55 5.55 0 014.25-1.74 5.6 5.6 0 014.28 1.74c1.07 1.14 1.6 2.68 1.6 4.6 0 1.94-.53 3.46-1.6 4.61z" fill="#fff"/><path d="M134.24 31.95c-2.58-.07-8.77-.12-9.03-.12a4.76 4.76 0 01-3.57-1.43 5.89 5.89 0 01-1.6-3.87h13.08c.6 0 1.1-.48 1.1-1.09 0-3.26-.85-5.8-2.5-7.63-1.72-1.87-4-2.78-6.91-2.78-2.88 0-5.19.95-6.93 2.86-1.73 1.93-2.59 4.47-2.59 7.59 0 3.13.9 5.67 2.67 7.57a8.84 8.84 0 004.6 2.59 9.7 9.7 0 002.33.25c2.5.07 4.74.1 7.13.15h.02l2.16.05v-.47c-.3-.34-.49-.73-.56-1.19a2.2 2.2 0 01.58-1.91l.02-.57zM121 21.28c.28-.46.62-.83 1.03-1.14a4.7 4.7 0 012.88-.98c2.42 0 3.96 1.2 4.6 3.64h-9.17c.15-.57.37-1.08.66-1.52zM21.47 34.2l-.47-.48c-.36-.35-.99-.1-.99.41v6.82c0 .32.26.58.58.58h6.84c.5 0 .76-.61.4-.98a.58.58 0 010-.82l7.27-7.28a.58.58 0 000-.8l-.66-.67c-.36-.36-.1-.98.4-.98h6.81c.32 0 .58.25.58.57v6.83c0 .5-.63.76-.98.4l-.46-.45a.55.55 0 00-.81 0L27.73 49.59a.58.58 0 01-.8 0L11.94 34.62a.58.58 0 010-.81l20.73-20.74a.58.58 0 000-.82l-4.86-4.87a.58.58 0 00-.81 0L.17 34.2a.58.58 0 000 .82L27 61.86c.22.22.59.22.8 0l26.85-26.83a.58.58 0 000-.82L38.88 18.43a.58.58 0 00-.82 0L22.3 34.2a.6.6 0 01-.83 0c.02 0 0 0 0 0z" fill="#fff"/><path d="M168.6 48.98h-32.45M93.97 49.15H61.51" stroke="#fff" stroke-width="1.98" stroke-miterlimit="10"/><path d="M112.44 51.15v3.87c0 .56-.4.97-.96.97a1 1 0 01-.91-.97 4.35 4.35 0 01-3.22.95 4.9 4.9 0 01-4.42-3.84 4.85 4.85 0 015.59-5.66 4.69 4.69 0 013.92 4.68zm-2.03 1.1c.73-2.32-1.25-4.6-3.65-3.81-.87.28-1.56.98-1.85 1.84-.8 2.4 1.47 4.39 3.81 3.66.8-.24 1.44-.88 1.7-1.7zM123.03 49.86a4.83 4.83 0 11-9.48 1.29v-8.62c0-.63.62-1.12 1.33-.88.33.12.58.5.58.83v4.82a4.9 4.9 0 014.32-.78 4.71 4.71 0 013.25 3.34zm-1.95.17a2.92 2.92 0 00-5.62 1.1v.08c0 1.1.63 2.14 1.64 2.58a2.94 2.94 0 003.98-3.76z" fill="#fff"/><path d="M113.58 56h.08c.99 0 1.8-.79 1.8-1.79V47.3h-1.88V56zM101.66 53.96V41.65h-1.88v12.43c0 1.06.86 1.9 1.91 1.9h1.17v-1.96h-1.15c-.02 0-.05-.01-.05-.06zM127.18 56.04a4.78 4.78 0 01-2.3-.7l-.21-.13-.22-.17c-.22-.17-.5-.44-.71-.74l-.03-.04a.58.58 0 01-.14-.27.8.8 0 011-.98h.03c.09.02.17.07.27.17.17.17.32.3.51.44.6.44 1.2.64 1.85.64.45 0 .83-.12 1.11-.34a.93.93 0 00.34-.62c.02-.2 0-.4-.08-.56a.85.85 0 00-.34-.36 8.34 8.34 0 00-1.6-.63c-.5-.13-.92-.28-1.26-.43a3.15 3.15 0 01-.85-.53c-.22-.2-.39-.44-.49-.73-.1-.29-.17-.62-.17-1.03 0-.42.09-.8.25-1.13.17-.34.41-.63.72-.85.3-.24.66-.4 1.05-.53a5.3 5.3 0 012.47-.07c.42.1 1.25.36 2.03 1.07.02.02.07.05.15.17.16.17.24.4.24.61v.04c-.02.49-.4.88-.88.91h-.07a1 1 0 01-.44-.1l-.05-.04-.19-.15-.01-.02a2.97 2.97 0 00-1.93-.88h-.12c-.27 0-.53.07-.78.2a.78.78 0 00-.44.74c0 .15.03.28.1.4s.19.2.36.29c.15.08.35.15.6.24l.94.28c.39.12.78.26 1.11.41.34.15.65.34.9.54.26.22.44.48.6.8a2.83 2.83 0 01-.09 2.35c-.2.36-.47.68-.81.93a3.92 3.92 0 01-2.42.8z" fill="#fff"/></svg>