<svg width="294" height="69" fill="none" xmlns="http://www.w3.org/2000/svg"><path d="M0 37.45C0 29.92 4.86 25.5 10.6 25.5c2.9 0 5.23 1.37 6.71 2.93l-2.4 2.89c-1.16-1.11-2.5-1.93-4.2-1.93-3.44 0-6.04 2.97-6.04 7.86 0 4.97 2.34 7.97 5.97 7.97 1.93 0 3.48-.93 4.7-2.26l2.42 2.85a9.31 9.31 0 01-7.3 3.38C4.7 49.2 0 45.08 0 37.45zM27.1 40.41l-6.86-14.5h4.86l2.3 5.57c.62 1.7 1.25 3.3 1.96 5.08h.11c.7-1.75 1.37-3.38 2.04-5.08l2.3-5.56h4.74l-6.9 14.5v8.37H27.1v-8.38zM43.48 25.92h7.49c5.08 0 8.97 1.74 8.97 7.15 0 5.23-3.93 7.56-8.82 7.56h-3.04v8.12h-4.56V25.92h-.04zm7.34 11.12c3.15 0 4.67-1.34 4.67-3.97 0-2.67-1.67-3.56-4.82-3.56h-2.6v7.5h2.75v.03zM66.4 25.92h4.55v8.97h8.64v-8.97h4.56v22.83h-4.52V38.9h-8.64v9.9h-4.56V25.92h-.04zM132.49 48.79l-4.71-8.64h-3.19v8.64h-4.56V25.92H128c4.78 0 8.6 1.67 8.6 6.93 0 3.41-1.74 5.56-4.34 6.56l5.34 9.34h-5.11v.04zm-7.86-12.27h2.96c2.93 0 4.53-1.22 4.53-3.67 0-2.48-1.6-3.3-4.53-3.3h-2.96v6.97zM156.1 39.08c-.33 1-.6 1.93-.89 2.85-.37 1.26-.74 2.49-1.19 3.82-.48-1.45-.85-2.74-1.26-4.08-.26-.81-.48-1.67-.77-2.55l-4.12-13.2h-2.74l7.6 23.24h2.55l7.57-23.24h-2.67l-4.08 13.16zM167.18 38h8.94v-2.33h-8.94v-7.45h10.6v-2.34h-13.2v23.28h13.54V46.8h-10.94V38zM195.02 39.6c0 1.78.08 3.6.19 5.37l-1.9-3.45-9.3-15.64h-2.48v23.24H184V35.3c0-1.63-.07-3.2-.15-4.67 0-.19-.03-.37-.03-.6l1.92 3.45 9.27 15.68h2.49V25.88h-2.52V39.6h.03zM200.29 28.22h7.08v20.94h2.6V28.22h7.1v-2.34H200.3v2.34zM233.39 39.9c0 4.81-1.9 7.26-5.6 7.26-3.63 0-5.45-2.45-5.45-7.27v-14h-2.6v14.08c0 7.9 4.38 9.56 8.05 9.56 3.7 0 8.08-1.67 8.08-9.56V25.88h-2.48V39.9zM255.63 32.3c0-2.93-1.37-6.38-7.86-6.38h-6.93v23.24h2.6V39h4l6 10.16h2.97l-6.2-10.42c3.46-.74 5.42-3.04 5.42-6.45zm-12.23-4.12h3.93c3.96 0 5.67 1.22 5.67 4.11 0 2.93-1.93 4.42-5.67 4.42h-3.93v-8.53zM261.41 38h8.94v-2.33h-8.94v-7.45h10.6v-2.34h-13.2v23.28h13.54V46.8H261.4V38zM284.77 36.74l-3.38-1.48c-1.59-.7-3.6-1.56-3.6-3.9 0-2.1 1.75-3.44 4.42-3.44 1.96 0 3.67.7 5.04 2.15l.3.3 1.52-1.75-.22-.25a8.99 8.99 0 00-6.64-2.86c-4.08 0-7.04 2.52-7.04 6 0 3.38 2.4 4.9 4.78 5.97l3.37 1.49c2.34 1.03 3.75 1.85 3.75 4.22 0 2.41-1.97 3.97-5.05 3.97-2.37 0-4.6-1-6.22-2.86l-.3-.3-1.63 1.86.22.26c1.41 1.6 3.97 3.49 7.93 3.49 4.53 0 7.68-2.67 7.68-6.5.03-3.85-2.52-5.3-4.93-6.37zM93.75 25.77s1.78-6.38 9.3-6.38h13.8s-1.3 6.38-9.13 6.38H93.75zM91.3 37.26s1.78-6.37 9.3-6.37h13.8s-1.3 6.37-9.12 6.37H91.3zM89.3 48.79s1.78-6.38 9.3-6.38h13.8s-1.3 6.38-9.13 6.38H89.3z" fill="#4AFEBF"/></svg>