<svg width="192" height="69" fill="none" xmlns="http://www.w3.org/2000/svg"><path d="M33.14 27.98V11.5H18.2V41l14.95-13.03zM61.05 31.39c-.06 0-.09-.04-.09-.13L61 22.5l-4.14-12.47c-.02-.09.02-.13.1-.13h3.42c.1 0 .17.04.19.13l2.28 8.3 2.32-8.3c.02-.09.07-.13.15-.13h3.46c.08 0 .11.04.1.13L64.7 22.37l.03 8.9c0 .08-.04.12-.13.12h-3.55zM70.7 31.39c-.09 0-.13-.05-.13-.16l.06-21.2c0-.09.05-.13.13-.13h5.92a6.13 6.13 0 016.14 6.11 5.99 5.99 0 01-2.04 4.32 6.42 6.42 0 011.03 7.82 6.66 6.66 0 01-2.35 2.37c-.96.58-2.04.87-3.24.87H70.7zm3.64-12.97h2.34c.72 0 1.3-.24 1.73-.74.46-.51.68-1.07.68-1.67 0-.65-.23-1.22-.7-1.7a2.27 2.27 0 00-1.7-.73h-2.35v4.84zm-.03 9.2h1.91a2.72 2.72 0 001.91-4.66 2.61 2.61 0 00-1.9-.8h-1.9l-.02 5.46zM85.02 31.39c-.09 0-.13-.05-.13-.16l.06-21.2c0-.09.04-.13.13-.13H91a6.13 6.13 0 016.14 6.11 5.98 5.98 0 01-2.04 4.32 6.42 6.42 0 011.03 7.82 6.66 6.66 0 01-2.35 2.37c-.96.58-2.05.87-3.24.87h-5.52zm3.64-12.97H91c.72 0 1.3-.24 1.73-.74.46-.51.68-1.07.68-1.67 0-.65-.23-1.22-.7-1.7a2.27 2.27 0 00-1.7-.73h-2.35v4.84zm-.03 9.2h1.91c.74 0 1.38-.27 1.91-.8a2.72 2.72 0 000-3.86 2.61 2.61 0 00-1.9-.8h-1.9l-.02 5.46z" fill="#fff"/><path d="M18.2 41.02v16.7h14.94V27.98L18.2 41.02z" fill="#A6A6A6"/><path d="M0 8v53h51.34V8H0zm47.95 49.71H3.38V11.5h44.57V57.7zM58.3 57.5c-.1 0-.16-.06-.16-.16l.06-22.15c0-.09.05-.13.13-.13h10.32c.1 0 .16.04.16.13v3.64c0 .09-.04.13-.13.13h-6.6v5h6.6c.09 0 .13.05.13.16l.03 3.64c0 .09-.05.13-.16.13h-6.6v9.45c0 .1-.06.16-.17.16H58.3zM76.5 57.82a6.09 6.09 0 01-3.18-.87 7.05 7.05 0 01-2.3-2.35 6.32 6.32 0 01-.86-3.26l.03-10.22a6.33 6.33 0 019.48-5.55 6.49 6.49 0 013.13 5.55l.03 10.22a6.67 6.67 0 01-3.16 5.61c-.95.58-2 .87-3.16.87zm0-3.9c.65 0 1.21-.26 1.69-.77.49-.54.74-1.14.74-1.81l-.03-10.22c0-.71-.23-1.31-.68-1.8a2.21 2.21 0 00-1.71-.75c-.67 0-1.24.25-1.71.74-.47.48-.7 1.08-.7 1.8v10.23c0 .7.23 1.32.7 1.84.47.5 1.04.74 1.7.74zM91.4 57.82c-1.14 0-2.19-.29-3.16-.87a6.5 6.5 0 01-3.16-5.64l.07-16.12c0-.09.04-.13.13-.13h3.6c.1 0 .14.04.14.13V51.3c0 .73.22 1.35.67 1.87.48.5 1.05.74 1.71.74.7 0 1.26-.25 1.71-.74.47-.52.71-1.14.71-1.87V35.19c0-.09.04-.13.13-.13h3.61c.09 0 .13.04.13.13l.06 16.12c0 1.2-.29 2.3-.87 3.29a6.33 6.33 0 01-5.48 3.22zM100.6 57.5c-.18 0-.27-.08-.27-.23l-.03-21.96c0-.17.09-.25.26-.25h2.9l5.45 12.7-.16-12.45c0-.17.1-.25.29-.25h3.2c.12 0 .19.08.19.25l.03 22c0 .12-.06.19-.16.19h-2.84l-5.58-11.87.23 11.61c0 .17-.1.26-.3.26h-3.22zM115.42 57.5c-.1 0-.16-.06-.16-.16l.06-22.15c0-.09.05-.13.13-.13l6.03-.04a5.93 5.93 0 013.22.84 6.5 6.5 0 013.23 5.58v9.26a6.66 6.66 0 01-3.32 5.83c-1.01.6-2.15.91-3.42.94l-5.77.03zm3.77-3.97h2c.8 0 1.46-.28 2-.84.56-.55.84-1.22.84-2v-9.28c0-.69-.26-1.28-.78-1.77a2.26 2.26 0 00-1.77-.75l-2.26.04-.03 14.6zM128.74 57.34l4-22.15c.02-.09.07-.13.16-.13h4.67c.1 0 .15.04.17.13l3.83 22.15c.03.1-.02.16-.13.16h-3.57c-.09 0-.14-.06-.17-.16l-.35-2.36h-4.38l-.36 2.36c-.02.1-.08.16-.16.16h-3.58c-.09 0-.13-.06-.13-.16zm4.87-5.8h3.1l-1.33-9.07-.2-1.19-.12 1.2-1.45 9.05zM145.28 57.5c-.09 0-.13-.06-.13-.16V38.96h-4.2c-.1 0-.15-.06-.15-.16l.03-3.61c0-.09.04-.13.13-.13h12.25c.1 0 .16.04.16.13v3.6c0 .11-.04.17-.13.17h-4.22l.03 18.38c0 .1-.04.16-.13.16h-3.64zM155.13 57.5c-.11 0-.16-.06-.16-.16l.03-22.15c0-.09.04-.13.13-.13h3.6c.1 0 .14.04.14.13l.03 22.15c0 .1-.05.16-.13.16h-3.64zM167.7 57.82a6.09 6.09 0 01-3.2-.87 7.06 7.06 0 01-2.28-2.35 6.32 6.32 0 01-.87-3.26l.03-10.22a6.33 6.33 0 019.48-5.55 6.49 6.49 0 013.13 5.55l.03 10.22a6.67 6.67 0 01-3.16 5.61c-.95.58-2 .87-3.16.87zm0-3.9c.65 0 1.2-.26 1.68-.77.5-.54.74-1.14.74-1.81l-.03-10.22c0-.71-.23-1.31-.68-1.8a2.22 2.22 0 00-1.71-.75c-.67 0-1.24.25-1.7.74a2.45 2.45 0 00-.72 1.8v10.23c0 .7.24 1.32.71 1.84.47.5 1.04.74 1.71.74zM176.76 57.5c-.17 0-.26-.08-.26-.23l-.03-21.96c0-.17.09-.25.26-.25h2.9l5.45 12.7-.16-12.45c0-.17.1-.25.29-.25h3.2c.12 0 .19.08.19.25l.03 22c0 .12-.06.19-.16.19h-2.84l-5.58-11.87.23 11.61c0 .17-.1.26-.3.26h-3.22z" fill="#fff"/></svg>