<svg width="181" height="69" fill="none" xmlns="http://www.w3.org/2000/svg"><g clip-path="url(#clip0)" fill="#4AFEBF"><path d="M120.31 26.92v5.24h18.96c.2.02.4.14.49.31.06.1.09.18.09.3V36.75a.68.68 0 01-.61.6h-18.96v5.25h20.26c.2.02.4.14.49.31.06.1.09.18.09.3v4.02a.66.66 0 01-.64.6h-24.07a2.6 2.6 0 01-2.6-2.6V24.31a2.62 2.62 0 012.57-2.6H140.57a.62.62 0 01.63.67v3.96a.66.66 0 01-.63.6H120.3v-.02zM108.43 47.1c0-.12-.03-.21-.09-.3L94.6 22.92a2.57 2.57 0 00-2.2-1.24h-4.6c-.89 0-1.67.46-2.16 1.15l-.2.35-13.61 23.65c0 .03-.03.03-.03.06-.06.09-.06.17-.06.29 0 .17.09.35.2.46.12.12.3.2.47.2h6.41l3-5.23h16.57l3 5.23h6.39c.34 0 .63-.26.63-.6v-.06c.03-.03.03-.06.03-.09zM84.8 37.36l5.26-9.15 5.26 9.15H84.8zM179.93 46.83c.06.09.08.2.08.35 0 .17-.08.35-.2.46a.68.68 0 01-.46.2h-7.66l-8.44-8.45-8.4 8.43h-7.66a.68.68 0 01-.47-.2.68.68 0 01-.2-.47c0-.17.06-.32.17-.43l.06-.06h.03l11.88-11.93-11.9-11.92a.68.68 0 01-.21-.47c0-.35.29-.63.63-.66h7.66l8.44 8.45 8.44-8.45h7.66c.23 0 .43.11.55.31.06.1.08.2.08.35 0 .18-.08.35-.2.47l-11.93 11.95 11.93 11.96c.06.02.09.05.12.11zM56.33 45.93c-.15-.34-.3-.69-.5-1-.05-.12-.14-.24-.2-.39l-.17-.28c-.06-.1-.11-.2-.2-.3-.15-.2-.26-.4-.43-.57l-.3-.35-.02-.03c-.06-.09-.15-.14-.2-.23l-.3-.32-.25-.26-.03-.03-.12-.11c-.52-.5-1.1-.9-1.7-1.28-.12-.09-.26-.14-.4-.23a9.47 9.47 0 00-2.52-.98c-.15-.03-.3-.06-.46-.12a10.5 10.5 0 00-5.18.26c-.06.03-.11.03-.2.06-.06.03-.12.03-.2.06-.06.03-.12.03-.18.05-.05.03-.11.03-.17.06-.03.03-.09.03-.11.06l-.3.12a4.7 4.7 0 01-.37.17c-.09.03-.2.09-.29.14-.03 0-.03.03-.06.03-.05.03-.14.06-.2.12-.03.03-.08.03-.11.06 0 0-.03 0-.03.03l-.3.17-.4.26-.03.03-.26.2-.2.15-.26.2h-.03l-7.25 5.41-3.84 2.87-11.16 8.3c.17-.14.35-.28.52-.46a10.69 10.69 0 01-7.17 2.78H10.18c-.12 0-.23 0-.35-.03h-.09c-.05 0-.11 0-.17-.03-.14 0-.29-.03-.43-.05l-.5-.1a4.6 4.6 0 01-.6-.14 2.13 2.13 0 01-.4-.11c-.12-.03-.24-.06-.32-.12l-.26-.08a2 2 0 01-.38-.15c-.09-.03-.2-.09-.29-.11a6.5 6.5 0 01-.63-.32c-.1-.03-.15-.09-.24-.12-.02 0-.05-.03-.08-.06l-.2-.11-.44-.26-.49-.35-.32-.26-.06-.06c-.11-.09-.23-.2-.34-.32l-.38-.34a7.89 7.89 0 01-.66-.73c-.15-.14-.26-.32-.38-.49l-.26-.38c-.08-.14-.2-.29-.29-.43-.05-.12-.14-.23-.2-.35-.03-.09-.09-.14-.11-.23-.12-.2-.2-.4-.3-.6l-.14-.33c-.09-.2-.17-.43-.23-.63-.03-.12-.06-.2-.12-.32l-.08-.32a.85.85 0 01-.06-.26c0-.03 0-.03-.03-.06v-.06c-.03-.08-.03-.2-.06-.29 0-.05-.03-.11-.03-.17 0-.06 0-.12-.02-.17-.03-.09-.03-.2-.03-.3v-.05-.15c0-.05 0-.11-.03-.17v-.14-.12-.17-.18-.46-.46-.12c0-.11 0-.26.03-.38v-.05c0-.06 0-.12.03-.18 0-.14.02-.29.05-.43l.09-.52c.03-.18.09-.35.12-.52v-.06c.02-.15.08-.29.11-.44l.12-.37a.54.54 0 00.05-.2l.15-.4c.14-.39.32-.73.52-1.08l.09-.15 5.95-10.3 11.76-20.4c.06-.12.12-.21.2-.33l.18-.29.11-.17.18-.23c.11-.18.23-.35.37-.5a6.84 6.84 0 01.95-1.01c.1-.05.15-.14.24-.2.08-.06.14-.14.23-.2.11-.09.2-.18.32-.26.08-.09.2-.15.28-.2.1-.06.2-.15.3-.2.1-.07.2-.15.31-.21.12-.06.2-.12.32-.2l.32-.18.31-.17c.32-.15.64-.29.99-.4.11-.03.23-.1.32-.12.43-.15.9-.26 1.32-.35.24-.03.44-.09.67-.11a10.9 10.9 0 013.4.11c.12.03.24.06.36.06l.66.17c1.04.32 2.02.78 2.92 1.4.12.05.2.14.29.2.09.05.17.14.26.2a5.03 5.03 0 01.63.58c.2.17.4.37.58.58.06.05.15.14.2.23.06.08.15.14.2.23l.27.32.2.29.2.29c.06.08.15.2.2.31.06.12.12.2.2.32l.06.12 17.86 30.6.09.14c.23.4.43.84.58 1.27z"/><path d="M42.83 39.88c-.03 0-.06.03-.08.03-.03 0-.06 0-.1.03a.41.41 0 01.18-.06zM41.24 40.6s-.03 0-.03.04c0-.03.03-.03.03-.03z"/><path d="M42.83 39.88c-.03 0-.06.03-.08.03-.03 0-.06 0-.1.03a.41.41 0 01.18-.06zM43 39.8c-.05.03-.11.03-.17.06.06 0 .12-.03.18-.06zM41.36 40.55c.06-.03.11-.09.2-.12l-.35.2c-.23.15-.46.27-.66.41l-.03.03a1.6 1.6 0 00-.26.2l.26-.2.03-.03.4-.26.3-.17.02-.03.09-.03zM41.9 40.26l-.34.17.06-.02c.09-.06.2-.12.29-.15z"/><path d="M43.2 39.74c-.05.03-.1.03-.2.06l-.25.08c-.06.03-.12.06-.2.06.02 0 .08-.03.1-.06.07-.02.12-.02.18-.05.06-.03.12-.06.18-.06.05.03.14 0 .2-.03z"/><path d="M57.08 49.81v.64c0 .09 0 .14-.03.23 0 .18-.03.32-.06.5 0 .02 0 .08-.03.11 0 .09-.03.17-.03.26 0 .12-.02.23-.05.35-.03.11-.03.2-.06.29l-.17.7c-.03.1-.06.2-.12.31-.06.2-.14.43-.23.64-.03.11-.09.2-.15.32-.08.23-.2.43-.31.63-.03.06-.06.15-.12.2-.14.27-.32.55-.49.79-.09.11-.17.26-.26.37l-.06.09-.29.38c-.2.26-.43.52-.7.75-.1.11-.22.23-.37.35l-.34.31c-.03 0-.03.03-.06.06-.12.09-.2.18-.32.26l-.49.35-.43.26c-.06.03-.12.09-.2.12-.03.03-.06.03-.1.05a.86.86 0 01-.22.12c-.12.06-.2.12-.32.17-.09.03-.17.1-.26.12-.44.2-.87.38-1.33.5-.15.02-.26.08-.4.1-.2.07-.41.1-.61.15l-.5.09c-.14.03-.28.03-.43.06-.05 0-.11 0-.17.03h-.09l-.34.03H46.36c-2.08 0-4.1-.61-5.84-1.74l-.06-.03-.92-.67-.7-.6.58.55-10.86-8.08 3.84-2.87 7.25-5.41h.03l.26-.2.2-.15.26-.2.03-.03a11.3 11.3 0 013.9-1.62 11.08 11.08 0 014.14 0c.14.03.29.06.46.12.9.23 1.73.55 2.51.98l.4.23a10.42 10.42 0 015.24 9.03z"/><path d="M56.33 45.85c0 .03.03.06.03.08-.03-.02-.03-.08-.06-.11a3.45 3.45 0 01-.23-.58c-.06-.2-.15-.38-.3-.52-.05-.06-.08-.15-.14-.23l-5.9-10.25c-.02-.03-.02-.06-.05-.06-3.84-1.68-9.65-1.39-18.93 3.33C8.47 48.9 6.48 36.12 6.48 36.12l-.35.64-4.45 7.73-.09.14a7.33 7.33 0 00-.72 1.68c-.06.12-.09.26-.11.38-.03.14-.1.29-.12.43v.06c-.06.17-.09.35-.12.52l-.08.52c-.03.15-.03.3-.06.44 0 .05 0 .11-.03.17v.06l-.03.37v1.65c0 .06 0 .12.03.18v.2c0 .12.03.2.03.29 0 .06.03.12.03.17l.03.18c.03.08.03.2.06.29v.05l.02.06c.03.09.03.18.06.26l.09.32a5.64 5.64 0 00.35.96c.02.11.08.2.14.31l.29.61.06.09.23.4.32.53c.08.11.17.26.26.37.11.18.23.32.37.5.2.25.44.49.67.72.11.11.23.23.37.34l.35.32c.03 0 .03.03.06.06.11.09.2.18.32.26l.49.35c.14.09.26.17.43.26.06.03.12.09.2.12.03.02.06.02.09.05a6.53 6.53 0 00.87.43c.08.04.2.1.28.12a2 2 0 00.38.15l.26.09c.12.02.2.08.32.11.14.03.26.09.4.12.2.05.4.08.61.14l.5.09.42.06c.06 0 .12 0 .18.02h.08c.12 0 .24.03.35.03H10.9c2.28 0 4.57-.75 6.41-2.14.27-.2.53-.4.76-.64-.18.18-.35.32-.52.47l5.05-3.77 2.03-1.5.14-.12 2.31-1.7a2.73 2.73 0 013.27 0l2.05 1.5 7.22 5.39c-.2-.18-.4-.35-.57-.55.23.23.43.43.69.6l.92.67.06.03a10.76 10.76 0 005.84 1.73H47.14c.11 0 .23 0 .34-.02h.1c.05 0 .1 0 .17-.03.14 0 .28-.03.43-.06l.49-.09c.2-.03.4-.08.6-.14.15-.03.27-.06.41-.12.46-.14.9-.32 1.33-.49.09-.03.17-.09.26-.12.12-.05.2-.11.32-.17.09-.03.14-.09.23-.12.03 0 .06-.02.09-.05l.2-.12c.17-.09.32-.2.46-.29.15-.09.29-.2.43-.32l.35-.26s.03 0 .03-.03c.12-.08.29-.26.4-.34l.35-.35c.23-.23.46-.5.7-.75.08-.12.2-.24.28-.38l.06-.09c.09-.11.18-.26.26-.37.18-.26.35-.52.5-.79.02-.02.02-.08.05-.11l.29-.55c.06-.15.14-.32.2-.5.09-.2.18-.43.23-.63.03-.12.06-.2.12-.32.06-.23.14-.46.17-.7.03-.08.03-.17.06-.25.03-.12.06-.26.06-.38 0-.09.03-.17.03-.26 0-.03 0-.09.03-.12.02-.17.02-.31.05-.49 0-.09 0-.14.03-.23v-.17V49.8a14.72 14.72 0 00-.92-3.96z"/></g><defs><clipPath id="clip0"><path fill="#fff" transform="translate(.18)" d="M0 0h180v69H0z"/></clipPath></defs></svg>