<svg width="180" height="69" fill="none" xmlns="http://www.w3.org/2000/svg"><path d="M120.13 26.92v5.24h18.96c.2.02.4.14.49.31.06.1.09.18.09.3V36.75a.68.68 0 01-.61.6H120.1v5.25h20.26c.2.02.4.14.5.31.05.1.08.18.08.3v4.02a.66.66 0 01-.64.6h-24.07a2.6 2.6 0 01-2.6-2.6V24.31a2.62 2.62 0 012.57-2.6H140.4a.62.62 0 01.64.67v3.96a.66.66 0 01-.64.6h-20.26v-.02zM108.25 47.1c0-.12-.03-.21-.08-.3L94.4 22.92a2.57 2.57 0 00-2.2-1.24h-4.59c-.9 0-1.68.46-2.17 1.15l-.2.35-13.61 23.65c0 .03-.03.03-.03.06-.06.09-.06.17-.06.29 0 .17.09.35.2.46.12.12.3.2.47.2h6.41l3-5.23H98.2l3 5.23h6.39c.35 0 .63-.26.63-.6v-.06c.03-.03.03-.06.03-.09zm-23.63-9.73l5.25-9.15 5.26 9.15H84.62zM179.75 46.83c.06.09.09.2.09.35 0 .17-.1.35-.2.46a.68.68 0 01-.47.2h-7.66l-8.44-8.45-8.4 8.43H147a.68.68 0 01-.47-.2.68.68 0 01-.2-.47c0-.17.06-.32.18-.43l.05-.06h.03l11.88-11.93-11.9-11.92a.68.68 0 01-.2-.47c0-.35.28-.63.63-.66h7.66l8.43 8.45 8.44-8.45h7.66c.23 0 .43.11.55.31.06.1.09.2.09.35 0 .18-.1.35-.2.47L167.7 34.76l11.93 11.96c.06.02.09.05.12.11z" fill="#fff"/><path d="M56.15 45.93c-.14-.34-.29-.69-.5-1-.05-.12-.14-.24-.2-.39l-.17-.28c-.05-.1-.11-.2-.2-.3-.14-.2-.26-.4-.43-.57l-.3-.35-.02-.03c-.06-.09-.15-.14-.2-.23-.09-.12-.2-.2-.3-.32l-.25-.26-.03-.03-.12-.11c-.52-.5-1.1-.9-1.7-1.28-.12-.09-.26-.14-.4-.23a9.47 9.47 0 00-2.52-.98c-.14-.03-.29-.06-.46-.12a10.5 10.5 0 00-5.18.26c-.05.03-.11.03-.2.06-.06.03-.11.03-.2.06-.06.03-.12.03-.17.05l-.18.06c-.03.03-.08.03-.11.06l-.3.12-.37.17-.29.14c-.02 0-.02.03-.05.03-.06.03-.15.06-.2.12-.04.03-.1.03-.12.06 0 0-.03 0-.03.03l-.29.17-.4.26-.03.03-.26.2-.2.15c-.1.05-.18.14-.27.2h-.02l-7.26 5.41-3.84 2.87-11.16 8.3c.18-.14.35-.28.52-.46a10.69 10.69 0 01-7.17 2.78H10c-.12 0-.23 0-.35-.03h-.08c-.06 0-.12 0-.18-.03-.14 0-.29-.03-.43-.05l-.5-.1a4.6 4.6 0 01-.6-.14 2.13 2.13 0 01-.4-.11c-.12-.03-.24-.06-.32-.12l-.26-.08a2 2 0 01-.38-.15c-.08-.03-.2-.09-.29-.11a6.5 6.5 0 01-.63-.32c-.09-.03-.15-.09-.23-.12-.03 0-.06-.03-.09-.06l-.2-.11-.44-.26-.49-.35-.32-.26-.05-.06c-.12-.09-.23-.2-.35-.32l-.38-.34c-.23-.24-.46-.47-.66-.73-.14-.14-.26-.32-.38-.49l-.26-.38c-.08-.14-.2-.29-.29-.43-.05-.12-.14-.23-.2-.35-.03-.09-.08-.14-.11-.23-.12-.2-.2-.4-.3-.6l-.14-.33c-.08-.2-.17-.43-.23-.63-.03-.12-.06-.2-.11-.32a4.75 4.75 0 00-.09-.32.85.85 0 01-.06-.26c0-.03 0-.03-.03-.06v-.06c-.03-.08-.03-.2-.05-.29 0-.05-.03-.11-.03-.17 0-.06 0-.12-.03-.17-.03-.09-.03-.2-.03-.3v-.05-.15c0-.05 0-.11-.03-.17v-.14-.12-.17-.18-.46-.46-.12c0-.11 0-.26.03-.38v-.05c0-.06 0-.12.03-.18a94299.05 94299.05 0 00.14-.96l.12-.51v-.06l.11-.44.12-.37a.54.54 0 00.06-.2c.05-.15.08-.26.14-.4.15-.39.32-.73.52-1.08l.09-.15 5.95-10.3 11.76-20.4c.06-.12.12-.21.2-.33l.18-.29c.03-.05.09-.11.11-.17l.18-.23c.11-.18.23-.35.37-.5a6.84 6.84 0 01.95-1.01c.1-.05.15-.14.24-.2s.14-.14.23-.2c.12-.09.2-.18.32-.26.08-.09.2-.15.29-.2l.29-.2c.11-.07.2-.15.31-.21.12-.06.2-.12.32-.2l.32-.18.32-.17c.31-.15.63-.29.98-.4.12-.03.23-.1.32-.12.43-.15.9-.26 1.33-.35.23-.03.43-.09.66-.11a10.9 10.9 0 013.41.11c.12.03.23.06.35.06l.66.17c1.04.32 2.03.78 2.92 1.4.12.05.2.14.3.2.08.05.16.14.25.2a5.03 5.03 0 01.64.58c.2.17.4.37.57.58.06.05.15.14.2.23.06.08.15.14.2.23l.27.32.2.29.2.29c.06.08.15.2.2.31.06.12.12.2.2.32l.07.12 17.86 30.6.08.14c.23.4.44.84.58 1.27z" fill="url(#paint0_linear)"/><path d="M42.65 39.88c-.02 0-.05.03-.08.03s-.06 0-.09.03a.41.41 0 01.17-.06z" fill="url(#paint1_linear)"/><path d="M41.06 40.6s-.02 0-.02.04c0-.03.02-.03.02-.03z" fill="url(#paint2_linear)"/><path d="M42.65 39.88c-.02 0-.05.03-.08.03s-.06 0-.09.03a.41.41 0 01.17-.06z" fill="url(#paint3_linear)"/><path d="M42.83 39.8l-.18.06c.06 0 .12-.03.18-.06z" fill="url(#paint4_linear)"/><path d="M41.18 40.55c.06-.03.12-.09.2-.12-.11.06-.23.12-.34.2-.24.15-.47.27-.67.41l-.03.03a1.6 1.6 0 00-.26.2l.26-.2.03-.03c.15-.08.26-.17.4-.26l.3-.17.02-.03.09-.03z" fill="url(#paint5_linear)"/><path d="M41.73 40.26l-.35.17.06-.02c.09-.06.2-.12.29-.15z" fill="url(#paint6_linear)"/><path d="M43.03 39.74c-.06.03-.12.03-.2.06l-.26.08c-.06.03-.12.06-.2.06.02 0 .08-.03.11-.06.06-.02.12-.02.17-.05.06-.03.12-.06.18-.06.06.03.14 0 .2-.03z" fill="url(#paint7_linear)"/><path d="M56.9 49.81v.64c0 .09 0 .14-.03.23 0 .18-.03.32-.06.5 0 .02 0 .08-.02.11 0 .09-.03.17-.03.26 0 .12-.03.23-.06.35-.03.11-.03.2-.06.29l-.17.7c-.03.1-.06.2-.12.31-.06.2-.14.43-.23.64-.03.11-.09.2-.14.32-.09.23-.2.43-.32.63-.03.06-.06.15-.12.2-.14.27-.31.55-.49.79-.08.11-.17.26-.26.37l-.06.09-.28.38c-.2.26-.44.52-.7.75l-.37.35-.35.31c-.03 0-.03.03-.06.06-.11.09-.2.18-.32.26l-.49.35-.43.26c-.06.03-.12.09-.2.12-.03.03-.06.03-.09.05a.86.86 0 01-.23.12c-.12.06-.2.12-.32.17-.09.03-.17.1-.26.12-.43.2-.87.38-1.33.5-.14.02-.26.08-.4.1-.2.07-.4.1-.61.15l-.5.09c-.14.03-.28.03-.43.06-.05 0-.11 0-.17.03h-.09l-.34.03H46.18c-2.08 0-4.1-.61-5.84-1.74l-.06-.03-.92-.67-.7-.6.58.55-10.86-8.08 3.84-2.87 7.26-5.41h.02l.26-.2.2-.15.27-.2.03-.03a11.3 11.3 0 013.9-1.62 11.08 11.08 0 014.13 0c.14.03.29.06.46.12.9.23 1.74.55 2.52.98l.4.23a10.42 10.42 0 015.23 9.03z" fill="url(#paint8_linear)"/><path d="M56.15 45.85c0 .03.03.06.03.08-.03-.02-.03-.08-.06-.11a3.45 3.45 0 01-.23-.58c-.06-.2-.14-.38-.29-.52-.06-.06-.09-.15-.14-.23l-5.9-10.25c-.03-.03-.03-.06-.06-.06-3.84-1.68-9.65-1.39-18.93 3.33C8.3 48.9 6.3 36.12 6.3 36.12l-.35.64-4.45 7.73c-.03.05-.06.08-.08.14a7.33 7.33 0 00-.73 1.68c-.05.12-.08.26-.11.38l-.12.43v.06c-.06.17-.08.35-.11.52l-.09.52c-.03.15-.03.3-.06.44 0 .05 0 .11-.03.17v.06l-.03.37v1.65c0 .06 0 .12.03.18v.2c0 .12.03.2.03.29 0 .06.03.12.03.17l.03.18c.03.08.03.2.06.29v.05c0 .03 0 .03.03.06.03.09.03.18.05.26.03.12.06.23.1.32a5.64 5.64 0 00.35.96c.02.11.07.2.13.31l.3.61c.02.03.02.06.05.09l.23.4.32.53c.09.11.17.26.26.37.11.18.23.32.37.5a7.86 7.86 0 001.04 1.06c.12.12.24.2.35.32.03 0 .03.03.06.06.11.09.2.18.32.26l.49.35c.14.09.26.17.43.26.06.03.12.09.2.12l.1.05a6.53 6.53 0 00.87.43c.07.04.19.1.28.12a2 2 0 00.37.15l.26.09c.12.02.2.08.32.11.14.03.26.09.4.12.2.05.41.08.61.14l.5.09c.14.03.28.03.43.06.05 0 .11 0 .17.02h.09l.34.03H10.72c2.28 0 4.57-.75 6.42-2.14.26-.2.52-.4.75-.64-.18.18-.35.32-.52.47l5.06-3.77 2.02-1.5.14-.12 2.31-1.7a2.73 2.73 0 013.27 0l2.05 1.5 7.23 5.39c-.2-.18-.4-.35-.58-.55.23.23.43.43.7.6l.92.67.05.03a10.76 10.76 0 005.84 1.73H46.96c.12 0 .23 0 .35-.02h.08c.06 0 .12 0 .18-.03.14 0 .29-.03.43-.06l.5-.09c.2-.03.4-.08.6-.14.14-.03.26-.06.4-.12.47-.14.9-.32 1.33-.49.09-.03.18-.09.26-.12.12-.05.2-.11.32-.17.09-.03.15-.09.23-.12.03 0 .06-.02.09-.05l.2-.12c.17-.09.32-.2.46-.29.15-.09.3-.2.44-.32l.34-.26s.03 0 .03-.03c.12-.08.3-.26.4-.34l.35-.35c.23-.23.47-.5.7-.75.08-.12.2-.24.29-.38.03-.03.03-.06.05-.09.1-.11.18-.26.26-.37.18-.26.35-.52.5-.79.02-.02.02-.08.05-.11l.3-.55c.05-.15.14-.32.2-.5.08-.2.17-.43.23-.63.02-.12.05-.2.11-.32.06-.23.15-.46.17-.7.03-.08.03-.17.06-.25.03-.12.06-.26.06-.38 0-.09.03-.17.03-.26 0-.03 0-.09.03-.12l.06-.49c0-.09 0-.14.02-.23v-.17V49.8a14.72 14.72 0 00-.92-3.96z" fill="url(#paint9_linear)"/><defs><linearGradient id="paint0_linear" x1=".06" y1="34.42" x2="56.16" y2="34.42" gradientUnits="userSpaceOnUse"><stop stop-color="#ABABAB"/><stop offset="1" stop-color="#fff"/></linearGradient><linearGradient id="paint1_linear" x1="42.49" y1="39.91" x2="42.65" y2="39.91" gradientUnits="userSpaceOnUse"><stop stop-color="#1473F9"/><stop offset="1" stop-color="#1AD4FF"/></linearGradient><linearGradient id="paint2_linear" x1="41.02" y1="40.61" x2="41.07" y2="40.61" gradientUnits="userSpaceOnUse"><stop stop-color="#1473F9"/><stop offset="1" stop-color="#1AD4FF"/></linearGradient><linearGradient id="paint3_linear" x1="42.49" y1="39.91" x2="42.65" y2="39.91" gradientUnits="userSpaceOnUse"><stop stop-color="#1473F9"/><stop offset="1" stop-color="#1AD4FF"/></linearGradient><linearGradient id="paint4_linear" x1="42.65" y1="39.84" x2="42.83" y2="39.84" gradientUnits="userSpaceOnUse"><stop stop-color="#1473F9"/><stop offset="1" stop-color="#1AD4FF"/></linearGradient><linearGradient id="paint5_linear" x1="40.07" y1="40.84" x2="41.37" y2="40.84" gradientUnits="userSpaceOnUse"><stop stop-color="#1473F9"/><stop offset="1" stop-color="#1AD4FF"/></linearGradient><linearGradient id="paint6_linear" x1="41.37" y1="40.35" x2="41.73" y2="40.35" gradientUnits="userSpaceOnUse"><stop stop-color="#1473F9"/><stop offset="1" stop-color="#1AD4FF"/></linearGradient><linearGradient id="paint7_linear" x1="42.37" y1="39.87" x2="43.02" y2="39.87" gradientUnits="userSpaceOnUse"><stop stop-color="#1473F9"/><stop offset="1" stop-color="#1AD4FF"/></linearGradient><linearGradient id="paint8_linear" x1="28.5" y1="49.86" x2="56.91" y2="49.86" gradientUnits="userSpaceOnUse"><stop stop-color="#1473F9"/><stop offset="1" stop-color="#1AD4FF"/></linearGradient><linearGradient id="paint9_linear" x1="28.5" y1="60.49" x2="28.5" y2="33.26" gradientUnits="userSpaceOnUse"><stop stop-color="#fff"/><stop offset=".99" stop-color="#C8C8C8"/></linearGradient></defs></svg>