<svg width="162" height="69" fill="none" xmlns="http://www.w3.org/2000/svg"><path d="M50.48 43.71V25.14h3.9c1.86 0 3.35.18 4.42.55 1.16.38 2.23.97 3.16 1.86 1.93 1.75 2.86 4.05 2.86 6.91 0 2.86-1 5.17-3 6.95-1.01.9-2.05 1.49-3.16 1.86-1.05.33-2.5.52-4.39.52h-3.79v-.08zm2.79-2.63h1.26c1.26 0 2.3-.15 3.16-.41a6.37 6.37 0 004.35-6.24c0-2.05-.67-3.68-2.05-4.95-1.22-1.11-3.04-1.7-5.42-1.7H53.3v13.3h-.04zM75.23 31.97h2.7v11.7h-2.7v-1.22a5.18 5.18 0 01-7.62-.19 6.53 6.53 0 01-1.56-4.45c0-1.75.52-3.24 1.56-4.39a5.01 5.01 0 013.94-1.74 5 5 0 013.68 1.67v-1.38zm-6.4 5.84c0 1.11.3 2.04.9 2.75.63.7 1.4 1.07 2.34 1.07a3 3 0 002.41-1.04c.63-.7.93-1.63.93-2.71 0-1.11-.3-2-.93-2.71a3.05 3.05 0 00-2.41-1.04 3 3 0 00-2.34 1.04c-.6.7-.9 1.6-.9 2.64zM80.13 31.97h2.71v1.08c.52-.56.97-.93 1.34-1.11.4-.19.9-.3 1.49-.3 1.33 0 2.37.6 3.15 1.74a4.1 4.1 0 013.46-1.74c2.64 0 3.97 1.6 3.97 4.8v7.24h-2.7V37.2c0-1.11-.16-1.93-.42-2.38-.3-.48-.74-.7-1.37-.7-.74 0-1.3.3-1.64.85a5.44 5.44 0 00-.52 2.71v6.06h-2.7v-6.5c0-2.08-.6-3.12-1.83-3.12-.78 0-1.3.3-1.67.85a5.54 5.54 0 00-.52 2.71v6.06h-2.71V31.97h-.04zM97.85 37.77c0-1.71.6-3.12 1.82-4.31a6.08 6.08 0 014.42-1.78 6.17 6.17 0 016.28 6.2 6.2 6.2 0 01-6.32 6.2 6.2 6.2 0 01-6.2-6.32zm2.75.04c0 1.18.3 2.08.93 2.78.63.7 1.49 1.04 2.53 1.04 1.04 0 1.9-.33 2.52-1.04.63-.67.97-1.6.97-2.75s-.34-2.04-.97-2.75a3.23 3.23 0 00-2.52-1.04c-1.04 0-1.86.34-2.53 1.04a4.2 4.2 0 00-.93 2.72zM115.31 25.14v15.94h7.28v2.63h-10.1V25.14h2.82zM133 31.97h2.71v11.7H133v-1.22a5.18 5.18 0 01-7.62-.19 6.52 6.52 0 01-1.56-4.45c0-1.75.52-3.24 1.56-4.39a5.01 5.01 0 013.94-1.74c1.38 0 2.6.55 3.68 1.67v-1.38zm-6.43 5.84c0 1.11.3 2.04.9 2.75.62.7 1.4 1.07 2.33 1.07a3 3 0 002.42-1.04c.63-.7.93-1.63.93-2.71 0-1.11-.3-2-.93-2.71a3.05 3.05 0 00-2.42-1.04 3 3 0 00-2.34 1.04c-.55.7-.89 1.6-.89 2.64zM140.61 25.14v8.2a5 5 0 013.68-1.66 5 5 0 013.94 1.78 6.4 6.4 0 011.56 4.38c0 1.82-.52 3.3-1.6 4.46a5.04 5.04 0 01-3.97 1.75 5.14 5.14 0 01-3.64-1.56v1.22h-2.72V25.14h2.75zm6.43 12.78c0-1.12-.3-2.05-.93-2.75a2.96 2.96 0 00-2.3-1.08 3 3 0 00-2.41 1.04c-.64.7-.93 1.6-.93 2.71 0 1.15.3 2.05.93 2.75a3 3 0 002.41 1.04 3 3 0 002.34-1.04 4 4 0 00.9-2.67zM158.26 33.98l-2.23 1.19c-.33-.7-.78-1.08-1.3-1.08a.81.81 0 00-.63.26c-.19.15-.26.37-.26.63 0 .45.52.9 1.56 1.34 1.45.63 2.42 1.19 2.9 1.7a3 3 0 01.74 2.13 3.6 3.6 0 01-1.26 2.82 4.33 4.33 0 01-2.94 1.08c-1.97 0-3.34-.97-4.16-2.86l2.3-1.08c.34.56.56.93.75 1.08.33.3.7.44 1.19.44.93 0 1.37-.4 1.37-1.26 0-.48-.33-.93-1.04-1.34-.26-.15-.56-.26-.81-.4a8.36 8.36 0 01-.82-.42 5.38 5.38 0 01-1.67-1.15 2.84 2.84 0 01-.64-1.9c0-1 .34-1.85 1.04-2.52.71-.67 1.6-1 2.6-1 1.45.04 2.57.78 3.31 2.34zM133.22 27.51h-6.28v1.86h6.28v-1.86zM35.29 31.68h5.98A17.64 17.64 0 0023.92 17H3v35.18h5.87V22.87h15.05c5.46 0 10.07 3.75 11.37 8.8z" fill="#fff"/><path d="M35.29 37.5c-1.3 5.06-5.91 8.81-11.37 8.81H20.6V28.74h-5.87v23.44H23.91c8.7 0 15.95-6.35 17.36-14.67h-5.98z" fill="#fff"/></svg>