<svg width="166" height="69" fill="none" xmlns="http://www.w3.org/2000/svg"><path d="M71.18 25.04c.65.15 1.32.25 1.94.47 2.48.8 3.87 2.59 4.6 5.1-.62 0-1.2.04-1.78-.04-.17-.01-.37-.3-.45-.53a5.37 5.37 0 00-7.18-2.86 5.7 5.7 0 00-2.92 2.93 9.29 9.29 0 00.54 9.27 4.98 4.98 0 004.84 2.41c2.1-.15 3.54-1.35 4.44-3.2.23-.48.37-1.01.58-1.55h1.87a8 8 0 01-1.98 4.18 6.68 6.68 0 01-4.31 2.22c-.11.01-.2.06-.32.1H69.6c-.1-.04-.2-.1-.31-.1a6.64 6.64 0 01-5.17-3.2c-1.76-2.92-2-6.11-1.09-9.34.76-2.72 2.46-4.7 5.26-5.53.42-.13.87-.2 1.3-.32l1.6-.01zM163.87 42.94h-10.65V25.61h1.84v15.64h8.82l-.01 1.7zM95.14 42.97c-.62 0-1.17.03-1.71-.01-.16-.02-.38-.22-.44-.38a151.2 151.2 0 01-1.6-4.44c-.13-.36-.28-.48-.67-.48h-6.43c-.4 0-.56.1-.69.46-.56 1.62-1.15 3.2-1.72 4.82h-2.04c.42-1.13.8-2.22 1.21-3.3 1.65-4.45 3.3-8.91 4.94-13.39.17-.45.34-.71.9-.65.65.08 1.46-.17 1.91.14.44.3.49 1.13.7 1.72 1.83 4.96 3.63 9.93 5.44 14.9l.2.61zm-7.64-15.6c-1.05 2.92-2.06 5.73-3.07 8.6h6.13l-3.06-8.6zM136.76 42.94h-2.02l.18-.59 6-16.24c.14-.4.32-.56.76-.53.54.05 1.09.02 1.63 0 .29-.01.44.05.55.34l6.12 16.79c.02.04.02.1.02.23-.6 0-1.17.03-1.73-.01-.14-.02-.31-.24-.36-.4a146.1 146.1 0 01-1.57-4.33c-.14-.4-.32-.59-.78-.57-2.1.03-4.22.03-6.32 0-.44 0-.61.15-.75.54l-1.73 4.77zm8.69-6.98l-3.07-8.59-3.07 8.6h6.14zM100.45 35.54v7.4H98.6V25.63l.54-.03h6.22a5.05 5.05 0 015.1 4.58 4.97 4.97 0 01-4.3 5.33c-.3.05-.63.05-.94.05l-4.77-.02zm.03-8.22v6.53l.25.03c1.56 0 3.11.02 4.69-.03a3.33 3.33 0 003.14-3.23 3.13 3.13 0 00-2.96-3.28c-1.7-.08-3.39-.02-5.12-.02zM128.7 42.94h-1.89V27.3h-5.76v-1.66h13.38v1.63h-5.74v15.68zM116.63 42.93h-1.78V25.6h1.78v17.32zM24.19 39.21c-.06-.01-.16.06-.2.13a.82.82 0 00-.13.35c-.22.95-.58 1.84-1.01 2.7-.4.78-.87 1.5-1.47 2.14a5.68 5.68 0 01-2.66 1.64c-.57.17-1.17.31-1.77.31-2.32.02-4.66.02-6.98.02l-.3-.03v-.39-9.73-13.77-.28c0-.12.07-.18.2-.2h3.87v-.48H2v.5h4.02V46.5h-4v.48h22.35V39.4c-.03-.1-.06-.19-.18-.19zM29.71 15h-.8v38.55h.8V15zM49.94 31.58l-.03-.22c-.08-.3-.13-.6-.22-.9a11.97 11.97 0 00-1.87-3.85 10.74 10.74 0 00-3.67-3.16c-.76-.42-1.56-.76-2.37-1.02a14.34 14.34 0 00-3.88-.83c-.38-.04-.77-.04-1.15-.06-.64-.03-1.29-.06-1.93-.06-.4 0-.8.03-1.2.05l-1.06.06c.05.45.07.47.46.47.48-.02.95-.07 1.43-.07 1.12-.01 2.22-.01 3.33.2.51.1 1.03.2 1.53.33a8.86 8.86 0 013.67 2.13c.83.82 1.42 1.8 1.85 2.88.49 1.16.75 2.37.9 3.62l.05.43c.25 2.8.07 4.97.07 4.97l-.02.25c-.1.67-.17 1.32-.31 2-.17.82-.42 1.62-.78 2.39l-.78 1.5a6.4 6.4 0 01-1.27 1.68 7.73 7.73 0 01-3.37 1.87c-.85.23-1.73.3-2.58.35-.84.07-1.68.03-2.54.03h-1.43c-.14.33-.11.38.26.42.23.03.47.05.72.05 1.55.03 3.11.06 4.68-.06a11.83 11.83 0 004.89-1.34c.7-.34 1.36-.78 2.01-1.23a11.46 11.46 0 003.9-4.96c.35-.86.6-1.75.76-2.67l.03-.28c.37-2.47-.08-4.97-.08-4.97z" fill="#4AFEBF"/></svg>