<svg width="166" height="69" fill="none" xmlns="http://www.w3.org/2000/svg"><path fill-rule="evenodd" clip-rule="evenodd" d="M29.84 17.17c15.5 1.9 24.64 17.34 15.54 28.9-5.63 7.14-11.75 7.51-10.27 1.45.66-2.74-1.62-4.19-4.89-4.19-3.66 0-4.77 1.28-7.9 3.3-3.14 2.02-14.26 3.9-16.94-6.8-2.67-10.7 8.95-24.54 24.46-22.66zm-3 11.15c-6.43.47-8.9 7.8-4 9.11 4.9 1.3 8.94-2.29 17.52 4.9 0 0 1.9-4.4-2.38-9.5-3.35-4-8.02-4.73-11.14-4.5z" fill="url(#paint0_linear)"/><path fill-rule="evenodd" clip-rule="evenodd" d="M29.84 17.17c15.5 1.9 24.64 17.34 15.54 28.9-2.9 3.66-5.9 5.54-7.96 5.69 1-.76 2.07-1.84 3.12-3.23 7.03-9.36-.02-21.86-12-23.39-11.98-1.53-20.96 9.69-18.9 18.35.4 1.62 1.01 2.9 1.78 3.87-2.65-1.08-5-3.34-6.04-7.53-2.67-10.7 8.95-24.54 24.46-22.66z" fill="url(#paint1_linear)"/><path fill-rule="evenodd" clip-rule="evenodd" d="M113.23 20.64v11.94h-2.02l-.19-1.05h-.05c-.31.3-.67.55-1.07.75-.4.2-.82.3-1.25.3a3.15 3.15 0 01-2.55-1.16c-.3-.38-.54-.83-.71-1.37a6.1 6.1 0 01.05-3.65c.2-.54.47-1 .8-1.37.33-.37.7-.66 1.13-.86a3.08 3.08 0 012.54-.06 4 4 0 01.93.65l-.09-1.3v-2.82h2.48zm-3.87 5.24c-.46 0-.86.19-1.19.57-.33.38-.5.96-.5 1.74 0 .83.15 1.43.43 1.81.28.38.68.57 1.2.57.27 0 .53-.06.77-.18.23-.11.46-.31.69-.59v-3.37a2.07 2.07 0 00-1.4-.55zM72.77 32.58c.6 0 1.13-.12 1.58-.38.45-.25.86-.59 1.23-1.01h.06l.19 1.4h2.02v-8.72h-2.48v5.66c-.29.37-.55.62-.8.76-.24.13-.51.2-.83.2-.47 0-.79-.13-.96-.39a2.3 2.3 0 01-.25-1.22v-5.01h-2.47v5.33c0 1.05.21 1.87.64 2.48.42.6 1.11.9 2.07.9zM86.56 32.58c.57 0 1.17-.1 1.78-.3a4.9 4.9 0 001.67-.92l-1-1.56c-.3.21-.63.4-1 .55-.37.16-.77.24-1.21.24a2.3 2.3 0 01-1.7-.64 2.3 2.3 0 01-.64-1.72c0-.73.22-1.3.67-1.73a2.44 2.44 0 011.75-.64c.62 0 1.24.22 1.85.66l1.15-1.53a4.8 4.8 0 00-3.13-1.12c-.64 0-1.25.1-1.84.3-.58.19-1.1.47-1.54.84a4.06 4.06 0 00-1.45 3.22c0 .69.12 1.3.35 1.85.24.54.57 1 .99 1.36.42.37.9.65 1.47.85.56.2 1.17.3 1.83.3zM66.39 32.58V30.5h-4.88v-8.84h-2.47v10.92h7.35zM98.37 23.05c.49 0 .88-.14 1.19-.4.3-.27.46-.64.46-1.1 0-.45-.15-.82-.46-1.1-.3-.3-.7-.43-1.19-.43-.48 0-.87.14-1.18.42-.31.29-.47.66-.47 1.12 0 .45.16.82.47 1.09.3.26.7.4 1.18.4zM99.72 32.58v-8.71H93.9v1.93h3.35v6.78h2.47zM120.97 21.66h.21c.5 0 .95.05 1.38.12.48.09.9.23 1.27.45.36.2.64.49.85.83.2.35.3.79.3 1.31a2.2 2.2 0 01-.45 1.42 2.4 2.4 0 01-1.43.94v.07l.14.03c.72.15 1.27.42 1.65.8.4.42.6 1 .6 1.73a2.77 2.77 0 01-1.21 2.44 4.1 4.1 0 01-1.34.59c-.5.13-1.06.2-1.65.2h-3.76V21.65h3.44zm.11 6.15h-1.07v2.86h1.07c1.33 0 1.99-.5 1.99-1.49 0-.48-.16-.83-.48-1.05a2.72 2.72 0 00-1.5-.32zm-.21-4.24H120v2.5h.84c.6 0 1.04-.13 1.31-.37s.4-.56.4-.98c0-.41-.13-.7-.4-.88-.28-.18-.71-.27-1.3-.27zM134.54 32.58a6.83 6.83 0 002.51-.45l-.55-1.81a3.92 3.92 0 01-1.32.27c-.17 0-.33-.03-.5-.07-.16-.04-.3-.12-.43-.23-.13-.1-.23-.24-.3-.41-.08-.18-.11-.4-.11-.65v-8.6h-4.9v1.95h2.43v6.55c0 1.06.26 1.9.8 2.52.53.62 1.32.93 2.37.93zM143.43 32.58c.6 0 1.13-.12 1.58-.38.45-.25.86-.59 1.23-1.01h.06l.19 1.4h2.02v-8.72h-2.47v5.66c-.3.37-.56.62-.8.76-.25.13-.52.2-.84.2-.47 0-.79-.13-.96-.39a2.3 2.3 0 01-.25-1.22v-5.01h-2.47v5.33c0 1.05.21 1.87.64 2.48.42.6 1.11.9 2.07.9zM156.72 23.87c.64 0 1.2.1 1.7.3a3.34 3.34 0 011.97 2.1 4.81 4.81 0 01.15 2.63h-5.62c.12.63.4 1.1.84 1.38.44.28.96.42 1.58.42.38 0 .74-.04 1.09-.14.34-.1.7-.24 1.06-.42l.81 1.47a6.17 6.17 0 01-5.11.68 4.05 4.05 0 01-2.45-2.22 4.44 4.44 0 01-.36-1.84 4.16 4.16 0 012.72-4.05c.52-.21 1.06-.31 1.62-.31zm.05 1.88c-.45 0-.85.13-1.2.39-.36.26-.58.67-.69 1.23h3.52c0-.48-.13-.87-.39-1.17-.25-.3-.67-.45-1.24-.45zM63.78 49l3.3-10.92h-2.52l-1.3 5.09-.44 1.75c-.13.56-.28 1.15-.45 1.75h-.07l-.43-1.75c-.13-.56-.27-1.15-.44-1.75l-1.31-5.1h-2.63L60.8 49h2.98zM74.28 40.29c.64 0 1.2.1 1.7.3a3.33 3.33 0 011.97 2.1 4.8 4.8 0 01.15 2.62h-5.62c.12.64.4 1.1.84 1.39.44.28.97.42 1.58.42.38 0 .75-.04 1.09-.14.34-.1.7-.24 1.07-.43l.8 1.48a6.17 6.17 0 01-5.11.68 4.05 4.05 0 01-2.45-2.22 4.45 4.45 0 01-.36-1.85 4.17 4.17 0 012.72-4.05c.52-.2 1.06-.3 1.62-.3zm.05 1.87c-.45 0-.85.14-1.2.4s-.58.67-.68 1.23h3.51c0-.48-.13-.87-.38-1.17-.26-.3-.68-.46-1.25-.46zM84.48 49v-5.75c.29-.29.56-.5.81-.65.25-.15.55-.22.89-.22.46 0 .77.13.95.39.18.25.27.66.27 1.22v5h2.48v-5.32c0-1.05-.22-1.87-.66-2.48-.44-.6-1.13-.9-2.07-.9-.63 0-1.17.13-1.64.38-.46.26-.88.57-1.24.92h-.06l-.19-1.1H82v8.5h2.48zM99.1 49c.53 0 1.03-.05 1.5-.14.45-.1.87-.2 1.24-.31l-.44-1.78a5.51 5.51 0 01-1.68.3c-.6 0-1.05-.13-1.33-.4-.28-.25-.42-.7-.42-1.34v-2.91h3.52v-1.93h-3.52v-2.41h-2.04l-.32 2.4-2.2.1v1.84h2.09v2.93c0 .54.06 1.04.18 1.49.12.45.33.83.62 1.15.28.31.65.56 1.11.74.46.18 1.02.27 1.69.27zM108.1 49c.6 0 1.13-.13 1.58-.38.45-.25.86-.59 1.23-1.01h.06l.19 1.39h2.02v-8.71h-2.48v5.66c-.29.37-.55.62-.8.75-.23.14-.51.2-.83.2-.47 0-.79-.12-.96-.38a2.3 2.3 0 01-.25-1.22v-5.01h-2.47v5.33c0 1.05.21 1.87.64 2.47.42.6 1.11.9 2.07.9zM120.55 49v-4.52c.36-.75.78-1.28 1.28-1.58.5-.3 1.01-.45 1.53-.45a4.35 4.35 0 011.48.23l.5-2.06c-.25-.1-.48-.2-.71-.25a3.93 3.93 0 00-.9-.08c-.68 0-1.3.16-1.89.5-.58.32-1.08.83-1.5 1.5h-.05l-.2-1.8h-2.02v8.5h2.48zM133.16 40.29c.64 0 1.21.1 1.7.3a3.32 3.32 0 011.97 2.1 4.79 4.79 0 01.15 2.62h-5.61a2 2 0 00.84 1.39c.43.28.96.42 1.58.42.38 0 .74-.04 1.08-.14.34-.1.7-.24 1.07-.43l.8 1.48a6.17 6.17 0 01-5.1.68 4.05 4.05 0 01-2.45-2.22 4.45 4.45 0 01-.37-1.85 4.17 4.17 0 012.72-4.05c.52-.2 1.06-.3 1.63-.3zm.06 1.87c-.45 0-.85.14-1.2.4-.36.26-.59.67-.69 1.23h3.52c0-.48-.13-.87-.39-1.17-.26-.3-.67-.46-1.25-.46zM144.66 49c.67 0 1.26-.07 1.77-.21.51-.14.94-.33 1.28-.57.34-.24.6-.52.78-.85.18-.32.27-.67.27-1.05 0-.36-.08-.67-.25-.94a2.3 2.3 0 00-.67-.69c-.28-.19-.61-.35-.98-.49s-.76-.27-1.18-.38l-.83-.22c-.26-.08-.5-.15-.68-.23-.2-.08-.34-.17-.46-.27a.44.44 0 01-.17-.33c0-.22.12-.38.33-.49.22-.11.6-.17 1.12-.17.44 0 .86.08 1.26.23.4.15.8.34 1.18.56l1.11-1.47a9.13 9.13 0 00-1.57-.78 6.18 6.18 0 00-3.63-.17 4 4 0 00-1.22.53c-.33.22-.58.5-.76.82-.18.32-.27.67-.27 1.05 0 .34.09.64.26.9.17.25.4.48.68.67.28.2.6.36.95.5.36.14.72.26 1.09.36.67.2 1.21.37 1.62.53.41.16.61.37.61.63 0 .22-.12.4-.37.52a4.54 4.54 0 01-2.8-.08 7.8 7.8 0 01-1.45-.73l-1.11 1.55a8.2 8.2 0 001.88.9c.72.25 1.45.37 2.2.37z" fill="#fff"/><defs><linearGradient id="paint0_linear" x1="11.03" y1="27.21" x2="33.52" y2="48.36" gradientUnits="userSpaceOnUse"><stop stop-color="#fff"/><stop offset="1" stop-color="#D2E4FE"/></linearGradient><linearGradient id="paint1_linear" x1="37.38" y1="23.44" x2="16.82" y2="33.19" gradientUnits="userSpaceOnUse"><stop stop-color="#fff"/><stop offset="1" stop-color="#D2E4FE"/></linearGradient></defs></svg>