<svg width="130" height="69" fill="none" xmlns="http://www.w3.org/2000/svg"><path d="M52.84 12.34c-8.5 0-15.41 6.74-15.41 15.07s6.89 15.07 15.4 15.07c8.5 0 15.41-6.74 15.41-15.07s-6.9-15.07-15.4-15.07zm-.07 25.78a10.47 10.47 0 01-10.58-10.34c0-5.71 4.74-10.35 10.58-10.35 5.83 0 10.57 4.64 10.57 10.35 0 5.7-4.73 10.34-10.57 10.34zM2 11c0 7.47.07 29.97.12 33.83a5.12 5.12 0 007-.07c-.13-6.93-.32-21.43-.13-21.22 0 0 16.95 21.07 17.73 22 3.72 3.51 7.13-.72 5.91-2.62C28.2 37.25 9.7 13.18 7.88 10.86 6.15 8.96 3.81 9.44 2 11zM102.64 30.15l9.92-.02s2.53 1.85.25 5.82c-3.38 0-10 .05-10 .05s-2.99-2.48-.17-5.85z" fill="#fff"/><path d="M128 43.67s-12.14-23.5-15.63-30.14c-4.18-6.23-8.61-.14-8.61-.14L89.67 38.42S77.9 17.47 74.57 11.16c-4.36-1.5-4.59 2.72-4.59 2.72S84.33 39.85 86.6 43.82c3.1 4.8 6.06.1 6.06.1s11.31-21 12.33-22.7c3.42-5.7 6.06.6 6.06.6s8.7 16.73 12.65 23.93c3.91 2.23 4.3-2.08 4.3-2.08zM3.37 59.59v-6.38h.86l3.36 5.01v-5h.8v6.37h-.86l-3.35-5v5h-.81zM16.32 56.48c0-1.05.28-1.88.86-2.48.56-.6 1.3-.9 2.2-.9.57 0 1.12.15 1.6.43.47.28.82.67 1.06 1.18.25.5.37 1.07.37 1.7 0 .65-.12 1.23-.38 1.74-.27.5-.64.9-1.11 1.16-.48.26-1 .39-1.55.39-.6 0-1.14-.15-1.61-.44a2.72 2.72 0 01-1.08-1.2 3.49 3.49 0 01-.36-1.58zm.87.02c0 .77.22 1.37.62 1.8.42.45.93.67 1.55.67.63 0 1.15-.22 1.56-.66.4-.44.61-1.07.61-1.9 0-.53-.08-.97-.26-1.35a2.03 2.03 0 00-1.91-1.21c-.6 0-1.11.2-1.55.61-.44.4-.62 1.09-.62 2.04zM32.09 59.59l-2.48-6.38h.92l1.65 4.64c.14.37.24.72.33 1.04.1-.35.21-.7.35-1.04l1.72-4.64h.87l-2.5 6.38h-.86zM41.61 59.59l2.44-6.38h.92l2.6 6.38h-.95l-.74-1.93h-2.67l-.7 1.93h-.9zm1.85-2.62h2.16l-.67-1.75c-.21-.55-.35-.99-.46-1.32-.09.4-.2.8-.35 1.21l-.68 1.86zM83.75 57.36l.84.21c-.17.68-.49 1.23-.94 1.58a2.6 2.6 0 01-1.69.55c-.69 0-1.25-.15-1.67-.43a2.6 2.6 0 01-.98-1.2 4.27 4.27 0 01.05-3.45c.25-.5.61-.88 1.09-1.13a3.3 3.3 0 011.55-.38c.63 0 1.17.16 1.61.49.44.32.74.77.91 1.37l-.82.2c-.14-.46-.37-.81-.65-1.03a1.7 1.7 0 00-1.05-.31c-.5 0-.9.12-1.23.35-.34.23-.57.54-.69.95-.14.4-.2.8-.2 1.23 0 .54.08 1.02.24 1.42.15.4.4.7.73.91.34.2.7.3 1.1.3.47 0 .87-.14 1.19-.4.28-.3.49-.7.61-1.23zM93.43 59.59v-6.38h.84v5.62h3.15v.76h-3.99zM110.43 53.21h.85v3.7c0 .62-.07 1.13-.21 1.52-.14.37-.4.69-.8.91-.38.23-.87.36-1.49.36-.6 0-1.09-.11-1.45-.32-.4-.21-.66-.51-.81-.9a4.36 4.36 0 01-.25-1.6V53.2h.84v3.67c0 .56.06.96.16 1.23.1.26.28.45.53.61.25.14.56.21.91.21.62 0 1.06-.14 1.32-.42.26-.28.4-.82.4-1.62v-3.67zM120.48 59.59v-6.38h2.4c.48 0 .87.07 1.17.2.3.12.53.33.68.6.16.26.25.54.25.84 0 .28-.07.52-.23.77-.14.25-.37.44-.67.58a1.56 1.56 0 011.21 1.55 1.84 1.84 0 01-.66 1.42c-.2.14-.42.24-.7.31-.29.07-.62.11-1.04.11h-2.4zm.84-3.69h1.38a3 3 0 00.8-.07c.21-.07.37-.17.5-.32.1-.14.15-.33.15-.56a1 1 0 00-.16-.56.85.85 0 00-.43-.33c-.2-.06-.51-.1-.97-.1h-1.28v1.94h.02zm0 2.93h1.59c.26 0 .45-.01.58-.03.19-.04.35-.09.49-.18.12-.08.24-.19.31-.35.07-.16.13-.33.13-.54 0-.25-.06-.44-.18-.62a.99.99 0 00-.5-.37c-.22-.07-.53-.1-.94-.1h-1.47v2.2zM29.12 16.76a3.88 3.88 0 100-7.76 3.88 3.88 0 000 7.76z" fill="#fff"/></svg>