<svg width="123" height="69" fill="none" xmlns="http://www.w3.org/2000/svg"><path d="M91.64 30.02a20.06 20.06 0 00-3.06-5.83H50.3v14.35c0 .1-.04.22-.04.33 0 4.4-3.88 7.97-8.63 7.97-4.67 0-8.47-3.75-8.59-8.12l-.04.37V24.16h-7.41v-1.28c-.83.95-1.57 2-2.24 3.1h-2.86l.04 10.2c0 11.46 9.5 20.75 21.18 20.75 5.8 0 11.1-2.3 14.95-6.01a21.24 21.24 0 0014.87 6h.43c3.18 0 5.73-2.4 5.73-5.31 0-2.91-2.55-4.88-5.73-4.88h-.4l-.03.04c-3.96 0-7.14-2.22-8.2-5.5H80.1V56.2h12.55V29.98h-1.02v.04zm-28.8 1.46v-6.92h17.27v6.92H62.85zM5.22 60.1v.72h.98v-.25c0-.3-.16-.44-.47-.44h-.51v-.04zm0 1.05v3.64h.98v-3.2c0-.3-.16-.44-.47-.44h-.51zm4.9 3.64v-2.15c0-1.05-.55-1.56-1.65-1.56-1.14 0-1.68.5-1.68 1.56v2.15H7.8v-2.33c0-.36.23-.58.66-.58.43 0 .67.18.67.58v1.9c0 .29.16.43.5.47h.48v-.04zm2.08-3.2v-.22h-.63v-.26c.04-.18.16-.25.4-.25h.27v-.77c-.16-.03-.32-.03-.47-.03-.75 0-1.18.29-1.14.98v3.75h.98v-2.73h.12a.5.5 0 00.47-.47zm2-.51c-1.18 0-1.8.62-1.8 1.9 0 1.27.58 1.88 1.8 1.88 1.18 0 1.8-.61 1.8-1.89 0-1.24-.58-1.9-1.8-1.9zm0 .83c.51 0 .75.37.75 1.06 0 .73-.28 1.1-.79 1.1-.5 0-.78-.37-.78-1.06.07-.73.31-1.1.82-1.1zm2.28 2.88h1.02v-1.9c0-.54.27-.8.82-.8h.35v-.94h-.15c-1.34 0-2 .58-2.04 1.78v1.86zm4.31-2.88c.43 0 .67.19.67.59v2.33h.98V62.5c0-.37.23-.59.67-.59.43 0 .66.19.66.59v1.9c0 .28.16.43.51.46h.51v-2.14c0-1.06-.55-1.57-1.68-1.57-.51 0-.9.1-1.18.3a1.85 1.85 0 00-1.18-.34c-1.14 0-1.69.51-1.69 1.57v2.15h1.02V62.5c.04-.4.28-.59.71-.59zm6 2.23c-.31 0-.47-.15-.5-.44 0-.26.19-.44.58-.51l.79-.22v.33c0 .5-.32.84-.87.84zm.24-2.3c.4 0 .63.11.63.33 0 .18-.2.33-.63.36-.98.08-1.69.33-1.69 1.2 0 .8.67 1.2 1.61 1.13 1.06-.07 1.73-.5 1.73-1.53V62.1c-.04-.7-.6-1.02-1.65-1.02-.9 0-1.41.32-1.53 1.02h.98c0-.19.2-.26.55-.26zm3.8-.5v-.23h-.58v-.58c0-.25-.2-.47-.47-.47h-.51v4c0 .4.15.62.54.66.36.03.71.03 1.06 0v-.7h-.31c-.2 0-.27-.07-.27-.21v-2h.11c.24 0 .43-.19.43-.48zm.6-1.25v.73h.97v-.25c0-.3-.15-.44-.47-.44h-.5v-.04zm0 1.06v3.64h.97v-3.2c0-.3-.15-.44-.47-.44h-.5zm3.29-.07c-1.18 0-1.8.62-1.8 1.9 0 1.27.58 1.88 1.8 1.88 1.18 0 1.8-.61 1.8-1.89-.04-1.24-.62-1.9-1.8-1.9zm0 .83c.5 0 .74.37.74 1.06 0 .73-.27 1.1-.78 1.1s-.79-.37-.79-1.06c.04-.73.28-1.1.83-1.1zm5.6 2.88v-2.15c0-1.05-.54-1.56-1.64-1.56-1.14 0-1.69.5-1.69 1.56v2.15h1.02v-2.33c0-.36.24-.58.67-.58.43 0 .67.18.67.58v1.9c0 .29.15.43.5.47h.48v-.04zm4.83-1.2h-1.02c0 .44.16.73.44.95.27.21.66.32 1.21.32 1.06 0 1.8-.32 1.8-1.23a.84.84 0 00-.27-.66 3.6 3.6 0 00-1.33-.47c-.51-.08-.79-.22-.79-.44 0-.18.2-.3.6-.3.3 0 .5.08.58.26.08.15.2.22.43.22h.63c-.04-.36-.2-.69-.47-.87-.32-.22-.7-.33-1.22-.33-.9 0-1.57.4-1.57 1.17 0 .58.47.94 1.34 1.09.66.1 1.02.25 1.02.44 0 .21-.2.32-.63.32-.4.08-.7-.07-.75-.47zm3.34 1.86v.76c.04.04.16.04.43.04.82 0 1.06-.22 1.3-.8l1.56-4.26h-.7c-.24 0-.4.1-.47.32l-.67 2.23-.78-2.55h-1.14l1.33 3.56c.16.48-.04.73-.59.73h-.27v-.03zm4.63-1.86H52.1c0 .44.15.73.43.95.27.21.67.32 1.22.32 1.05 0 1.8-.32 1.8-1.23a.84.84 0 00-.27-.66 3.6 3.6 0 00-1.34-.47c-.5-.08-.78-.22-.78-.44 0-.18.2-.3.59-.3.3 0 .5.08.58.26.08.15.2.22.44.22h.62c-.04-.36-.2-.69-.47-.87-.31-.22-.7-.33-1.21-.33-.9 0-1.57.4-1.57 1.17 0 .58.47.94 1.33 1.09.67.1 1.02.25 1.02.44 0 .21-.2.32-.63.32-.43.08-.74-.07-.74-.47zm4.47-2.26v-.22H57v-.58c0-.25-.2-.47-.47-.47h-.5v4c0 .4.15.62.54.66.35.03.7.03 1.06 0v-.7h-.31c-.2 0-.28-.07-.28-.21v-2h.12c.2 0 .43-.19.43-.48zm3.88 2.37h-.74a.5.5 0 00-.35.14c-.2.19-.4.26-.63.26-.47 0-.75-.3-.79-.84h2.55c.08-1.42-.5-2.15-1.76-2.15-1.22 0-1.8.62-1.8 1.86 0 1.24.58 1.9 1.8 1.93.98 0 1.53-.44 1.72-1.2zm-1.72-1.86c.43 0 .66.26.74.73H59c.08-.47.32-.73.75-.73zm3.92.07c.43 0 .67.19.67.59v2.33h.98V62.5c0-.37.23-.59.67-.59.43 0 .66.19.66.59v1.9c0 .28.16.43.51.46h.51v-2.14c0-1.06-.55-1.57-1.68-1.57-.51 0-.9.1-1.18.3a1.85 1.85 0 00-1.18-.34c-1.14 0-1.69.51-1.69 1.57v2.15h1.02V62.5c.04-.4.28-.59.71-.59zm5.5 1.68h-1.03c0 .44.16.73.44.95.27.21.66.32 1.21.32 1.06 0 1.8-.32 1.8-1.23a.84.84 0 00-.27-.66A3.61 3.61 0 0070 62.5c-.51-.08-.79-.22-.79-.44 0-.18.2-.3.6-.3.3 0 .5.08.58.26.08.15.2.22.43.22h.63c-.04-.36-.2-.69-.47-.87-.32-.22-.7-.33-1.22-.33-.9 0-1.57.4-1.57 1.17 0 .58.47.94 1.34 1.09.66.1 1.02.25 1.02.44 0 .21-.2.32-.63.32-.4.08-.7-.07-.75-.47zm8.2-1.68c.54 0 .82.33.82 1.06s-.28 1.13-.87 1.13c-.55 0-.82-.36-.82-1.13.08-.73.35-1.06.86-1.06zm1.33-1.82h-.51v1.57a1.3 1.3 0 00-1.14-.58c-1.06.03-1.57.65-1.57 1.93 0 1.2.63 1.82 1.84 1.85 1.22 0 1.85-.54 1.85-1.63v-2.66c.04-.26-.2-.48-.47-.48zm4.43 3.6h-.75a.5.5 0 00-.35.15c-.2.19-.4.26-.63.26-.47 0-.74-.3-.78-.84h2.55c.08-1.42-.51-2.15-1.77-2.15-1.21 0-1.8.62-1.8 1.86 0 1.24.59 1.9 1.8 1.93.98 0 1.5-.44 1.73-1.2zm-1.73-1.85c.44 0 .67.26.75.73h-1.5c.09-.47.32-.73.75-.73zm4.87-.69c-.24 0-.4.1-.47.33l-.67 2.22-.78-2.55h-1.1l1.37 3.64h1.06l1.37-3.64h-.78zm4.43 2.55h-.74a.5.5 0 00-.36.14c-.2.19-.39.26-.62.26-.48 0-.75-.3-.79-.84h2.55c.08-1.42-.5-2.15-1.76-2.15-1.22 0-1.8.62-1.8 1.86 0 1.24.58 1.9 1.8 1.93.98 0 1.53-.44 1.72-1.2zm-1.69-1.86c.44 0 .67.26.75.73h-1.5c.05-.47.32-.73.75-.73zm2.75-1.75h-.5v4.7h.97v-4.26c0-.22-.23-.44-.47-.44zm2.79.99c-1.18 0-1.8.62-1.8 1.9 0 1.27.58 1.88 1.8 1.88 1.17 0 1.8-.61 1.8-1.89 0-1.24-.63-1.9-1.8-1.9zm0 .83c.5 0 .74.37.74 1.06 0 .73-.27 1.1-.78 1.1s-.79-.37-.79-1.06c.04-.73.32-1.1.83-1.1zm3.25 3.86c0 .3-.15.48-.5.48h-.52v-3.5c.04-1.09.67-1.64 1.85-1.64 1.21 0 1.84.62 1.84 1.86 0 1.24-.51 1.9-1.57 1.93-.5 0-.86-.18-1.1-.58v1.45zm.83-1.7c.55 0 .82-.37.82-1.06 0-.73-.27-1.1-.86-1.1-.55 0-.83.37-.83 1.1.08.69.36 1.05.87 1.05zm4-2.16c.43 0 .67.19.67.59v2.33h.98V62.5c0-.37.23-.59.66-.59.43 0 .67.19.67.59v1.9c0 .28.16.43.5.46h.52v-2.14c0-1.06-.55-1.57-1.69-1.57-.5 0-.9.1-1.17.3a1.85 1.85 0 00-1.18-.34c-1.14 0-1.69.51-1.69 1.57v2.15h1.02V62.5c.04-.4.28-.59.7-.59zm8.08 1.79h-.75a.5.5 0 00-.35.14c-.2.19-.4.26-.63.26-.47 0-.74-.3-.78-.84h2.55c.08-1.42-.51-2.15-1.77-2.15-1.21 0-1.8.62-1.8 1.86 0 1.24.59 1.9 1.8 1.93.98 0 1.53-.44 1.73-1.2zm-1.73-1.86c.44 0 .67.26.75.73h-1.5c.09-.47.32-.73.75-.73zm5.61 2.95v-2.15c0-1.05-.55-1.56-1.64-1.56-1.14 0-1.7.5-1.7 1.56v2.15h1.03v-2.33c0-.36.23-.58.67-.58.43 0 .66.18.66.58v1.9c0 .29.16.43.51.47h.47v-.04zm2.04-3.46v-.22h-.58v-.58c0-.25-.2-.47-.48-.47h-.54v4c0 .4.15.62.54.66.36.03.71.03 1.06 0v-.7h-.31c-.2 0-.27-.07-.27-.21v-2h.11c.24 0 .47-.19.47-.48zM110.04 14.47c-3.57 0-6.47 2.73-6.47 6.12 0 3.38 2.9 6.12 6.47 6.12s6.48-2.74 6.48-6.12c0-3.39-2.9-6.12-6.48-6.12z" fill="#fff"/><path d="M50.65 31.44h-.04l.04.04v-.04zM34.72 28.6l-.04.04.04-.04zM4 15.45v40.78h12.55V20.41c0-2.7-2.27-4.88-5.1-4.92M80.1 24.56H62.86v.36H80.1v-.36zM50.3 24.2H33.02v.72H50.3v-.73z" fill="#fff"/><path d="M86.23 21.83c-.04.03-.08.07-.12.07-.23.22-.47.47-.7.73-.08.07-.32.22-.4.07-.15-.3.24-1.13.36-1.46.07-.14.11-.32.2-.47-1.22-.95-2.71-1.93-2.71-1.93a21.2 21.2 0 00-11.38-3.24c-5.8 0-11.07 2.22-14.87 5.94l-.12.1c-.35.33-.7.7-1.02 1.06-.08.07-.31.22-.4.07-.15-.29.24-1.13.36-1.45.08-.19.16-.4.28-.59a21.33 21.33 0 00-22.33-3.45c-.47.43-1.05.98-1.56 1.52-.08.08-.32.22-.4.08-.15-.3.24-1.13.36-1.46.27-.7.66-1.42 1.06-2.07a16.8 16.8 0 00-8.36-12.9A9.43 9.43 0 0019.85 1a6.39 6.39 0 00-6.47 6.19 6.05 6.05 0 003.17 5.35c.4.22.67.33 1.06.51 2 1.06 2.87 3.57 2.87 6.05v12.38h.04c.2 3.09 2.9 5.53 6.27 5.53a6.49 6.49 0 006.56-5.5v-.03c.94-3.46 4.31-6.05 8.31-6.05 4.04 0 7.42 2.59 8.32 6.05v.1c.4 3.06 3.22 5.36 6.55 5.36 3.34 0 5.92-2.08 6.51-5.14l.04-.32a8.5 8.5 0 018.36-6.2c4.24 0 7.8 2.92 8.47 6.56.51 2.91 3.26 5.13 6.52 5.13.15 0 .3 0 .47-.03a6.23 6.23 0 006-5.14v-.32a8.52 8.52 0 018.28-6.2v-9.72a21 21 0 00-14.95 6.27z" fill="#fff"/></svg>