<svg width="174" height="69" fill="none" xmlns="http://www.w3.org/2000/svg"><path fill-rule="evenodd" clip-rule="evenodd" d="M61.46 45.42c.75.2 1.53.3 2.34.3 1.3 0 2.55-.23 3.74-.67a8.66 8.66 0 0 0 3.14-2.01 9.81 9.81 0 0 0 2.17-3.38 12 12 0 0 0 .83-4.64c0-3.06-.75-5.48-2.3-7.23-1.52-1.77-3.6-2.65-6.21-2.65-1.28 0-2.43.25-3.45.76-.82.39-1.57.87-2.24 1.45l-.5-1.97h-4.26v29.2h5.39V44.9c.4.2.85.38 1.35.5Zm.14-15.27a4.13 4.13 0 0 1 2.36-.67c1.4 0 2.4.52 3.06 1.54a7.17 7.17 0 0 1 1.08 4.12c0 1.21-.16 2.22-.47 3.03-.28.8-.66 1.44-1.13 1.94a4.2 4.2 0 0 1-1.53 1.05c-.58.22-1.17.34-1.78.34-.6 0-1.2-.08-1.75-.23-.5-.16-.94-.39-1.33-.69v-9.22c.34-.4.83-.8 1.5-1.2Zm15.8-4.65v19.81h5.42v-19.8h-5.43Zm.49-4.55v.01a3 3 0 0 0 2.22.82 2.9 2.9 0 0 0 2.13-.82 2.8 2.8 0 0 0 .82-2.05c0-.8-.27-1.5-.82-2.05a2.9 2.9 0 0 0-2.13-.82 2.87 2.87 0 0 0-3 2.87c0 .8.26 1.5.78 2.04Zm19.2 4.19c-1.54 0-2.96.25-4.27.75a9.43 9.43 0 0 0-5.5 5.34c-.5 1.28-.76 2.7-.76 4.24 0 1.67.26 3.15.8 4.44a9.31 9.31 0 0 0 5.6 5.18c1.27.42 2.64.62 4.1.62a13.44 13.44 0 0 0 5.66-1.2l.25-.12-1.11-4.02-.37.2a7.76 7.76 0 0 1-5.87.62 4.65 4.65 0 0 1-1.77-1.02 5.24 5.24 0 0 1-1.28-1.9 7.59 7.59 0 0 1-.5-2.92c0-2.02.52-3.49 1.51-4.48a5.36 5.36 0 0 1 4.04-1.55c.66 0 1.3.09 1.92.27a8.6 8.6 0 0 1 1.82.77l.36.2 1.22-4.06-.27-.12c-1.04-.5-2.02-.82-2.94-1-.9-.16-1.78-.24-2.64-.24Zm8.55.36v19.81h5.43v-19.8h-5.43Zm.5-4.55v.01a3 3 0 0 0 2.21.82 2.8 2.8 0 0 0 2.95-2.87 2.8 2.8 0 0 0-2.95-2.87 2.87 2.87 0 0 0-2.99 2.87c0 .8.25 1.5.78 2.04Zm16.41 24.47c.76.2 1.54.3 2.35.3 1.3 0 2.55-.23 3.74-.67a8.66 8.66 0 0 0 3.14-2.01 9.83 9.83 0 0 0 2.17-3.38c.56-1.34.83-2.88.83-4.64 0-3.06-.75-5.48-2.3-7.23-1.52-1.77-3.6-2.65-6.21-2.65-1.28 0-2.44.25-3.45.76-.82.39-1.57.87-2.25 1.45l-.49-1.97h-4.26v29.2h5.38V44.9c.4.2.86.38 1.35.5Zm.15-15.27a4.13 4.13 0 0 1 2.36-.67c1.4 0 2.4.52 3.06 1.54a7.17 7.17 0 0 1 1.07 4.12c0 1.21-.15 2.22-.46 3.03-.28.8-.66 1.44-1.14 1.94a4.2 4.2 0 0 1-1.53 1.05c-.58.22-1.17.34-1.77.34-.61 0-1.2-.08-1.76-.23-.5-.16-.94-.39-1.33-.69v-9.22c.35-.4.84-.8 1.5-1.2Zm20.24 14.9c1.22.44 2.54.66 3.94.66 1.41 0 2.73-.23 3.95-.7a9.04 9.04 0 0 0 5.35-5.35c.53-1.3.79-2.78.79-4.4 0-1.64-.25-3.1-.75-4.35a8.43 8.43 0 0 0-5.27-5.1c-1.2-.45-2.5-.67-3.9-.67-1.41 0-2.73.23-3.95.7a9.46 9.46 0 0 0-3.22 2.05 9.4 9.4 0 0 0-2.17 3.34c-.5 1.31-.75 2.8-.75 4.44 0 1.59.25 3.02.75 4.27a9.02 9.02 0 0 0 2.1 3.18c.89.84 1.94 1.48 3.13 1.93ZM151 32.63c.25.76.38 1.7.38 2.84 0 1.18-.13 2.17-.38 2.95a5.17 5.17 0 0 1-.98 1.82c-.4.44-.86.76-1.4.95a4.49 4.49 0 0 1-3.3-.03 4.03 4.03 0 0 1-1.4-1.04c-.4-.5-.73-1.12-.99-1.86a8.91 8.91 0 0 1-.38-2.8c0-1.2.13-2.2.38-3 .26-.8.6-1.4.98-1.85.4-.47.85-.78 1.35-.95h.01a4.6 4.6 0 0 1 1.66-.3c.57 0 1.11.1 1.63.33h.01c.54.22 1 .57 1.4 1.04.43.47.77 1.1 1.03 1.9Z" fill="#fff"/><path d="M29.54 21.07H9.4v20.14h20.14V21.07Z" fill="#fff"/><path d="M32.9 31.14H12.76V51.3H32.9V31.14Z" fill="url(#a)"/><path fill-rule="evenodd" clip-rule="evenodd" d="M39.61 29.13H26.2v13.43H39.6V29.13Zm-16.78-3.36v20.14h20.14V25.77H22.83Z" fill="#fff"/><path d="M37.6 17.71H17.46v20.15H37.6V17.7Z" fill="url(#b)"/><defs><linearGradient id="a" x1="29.75" y1="34.63" x2="15.74" y2="47.95" gradientUnits="userSpaceOnUse"><stop stop-color="#fff"/><stop offset="1" stop-color="#C8C8C8"/></linearGradient><linearGradient id="b" x1="34.45" y1="21.2" x2="20.44" y2="34.52" gradientUnits="userSpaceOnUse"><stop stop-color="#fff"/><stop offset="1" stop-color="#C8C8C8"/></linearGradient></defs></svg>