<svg width="176" height="69" fill="none" xmlns="http://www.w3.org/2000/svg"><path d="M56.63 25.2a9.88 9.88 0 0 1 3.35-2.8c1.4-.75 3-1.13 4.78-1.13 2.03 0 3.88.52 5.55 1.57a10.57 10.57 0 0 1 3.98 4.33c.96 1.87 1.44 4 1.44 6.43 0 2.42-.48 4.59-1.44 6.51a11.12 11.12 0 0 1-3.98 4.46 10.2 10.2 0 0 1-5.55 1.57 10.02 10.02 0 0 1-8.13-3.89v14.96H51.8V21.66h4.83v3.54Zm14.19 8.4c0-1.66-.34-3.1-1.02-4.29a6.58 6.58 0 0 0-2.63-2.75 6.8 6.8 0 0 0-6.94 0 7.27 7.27 0 0 0-2.62 2.8 9.11 9.11 0 0 0-.98 4.32c0 1.67.33 3.12.98 4.38a7.27 7.27 0 0 0 2.62 2.8 6.8 6.8 0 0 0 6.94 0 7.11 7.11 0 0 0 2.63-2.9 9.05 9.05 0 0 0 1.02-4.36ZM101.63 21.66v24.1H96.8V42.9a8 8 0 0 1-3 2.36 10.32 10.32 0 0 1-8.85-.35 8.56 8.56 0 0 1-3.43-3.5 11.81 11.81 0 0 1-1.23-5.6V21.67h4.78v13.42c0 2.16.53 3.82 1.57 4.99a5.52 5.52 0 0 0 4.28 1.7c1.8 0 3.23-.57 4.27-1.7 1.08-1.17 1.61-2.83 1.61-4.99V21.66h4.83ZM112.82 25.16a7.58 7.58 0 0 1 2.8-2.84 8.1 8.1 0 0 1 4.19-1.05v5.16h-1.23c-1.89 0-3.33.5-4.32 1.48-.96 1-1.44 2.71-1.44 5.16v12.68H108V21.66h4.82v3.5ZM145.63 33.12c0 .9-.06 1.72-.17 2.44h-17.83a6.78 6.78 0 0 0 2.08 4.64 6.43 6.43 0 0 0 4.57 1.75c2.6 0 4.43-1.12 5.5-3.37H145a10.92 10.92 0 0 1-3.85 5.47 10.98 10.98 0 0 1-6.86 2.1c-2.23 0-4.23-.52-6.01-1.54a11.27 11.27 0 0 1-4.15-4.37 13.98 13.98 0 0 1-1.48-6.56c0-2.47.48-4.64 1.44-6.5a10.6 10.6 0 0 1 4.1-4.38 12.04 12.04 0 0 1 6.1-1.53c2.2 0 4.16.5 5.89 1.48 1.72 1 3.06 2.4 4.02 4.2a12.77 12.77 0 0 1 1.44 6.17Zm-5.04-1.58a5.75 5.75 0 0 0-1.9-4.41 6.68 6.68 0 0 0-4.62-1.66c-1.67 0-3.1.55-4.28 1.66a6.85 6.85 0 0 0-2.11 4.41h12.91ZM161.22 25.73h-4.32v20.02h-4.87V25.73h-2.75v-4.07h2.75v-1.7c0-2.77.7-4.78 2.12-6.04 1.44-1.28 3.68-1.92 6.73-1.92v4.15c-1.47 0-2.5.3-3.1.88-.58.55-.88 1.53-.88 2.93v1.7h4.32v4.07ZM167.95 18.47c-.87 0-1.6-.3-2.2-.92a3.14 3.14 0 0 1-.89-2.27c0-.9.3-1.66.89-2.27.6-.62 1.33-.92 2.2-.92.85 0 1.57.3 2.16.92.6.6.89 1.37.89 2.27 0 .9-.3 1.66-.89 2.27a2.9 2.9 0 0 1-2.16.92Zm2.37 3.2v24.08h-4.82V21.66h4.82Z" fill="#fff"/><path fill-rule="evenodd" clip-rule="evenodd" d="m16.53 16.08 17.33 19.53-20.63-17.87c-.28.18-.57.38-.84.58l20.84 18.06L9.61 20.84l-.65.76 23.75 15.62L6.91 24.8l-.42.9 25.8 12.43-26.95-8.77-.17 1L32 39.09 5 34.18c.02.34.05.69.09 1.03l26.75 4.87L5.9 38.91c.1.35.23.69.37 1.02l25.52 1.16L8 43.24c.2.32.43.64.66.94l23.23-2.1-20.78 4.76c.32.28.65.55.98.8l20.01-4.57-17.04 6.4c.43.21.87.4 1.32.57l16.05-6.03-12.86 6.92c.56.1 1.14.16 1.72.2l11.6-6.23-8.55 6.18c.77-.09 1.51-.22 2.25-.4l6.85-4.95-4.37 4.13c1.3-.54 2.51-1.24 3.63-2.07l1.4-1.32-.49.6c3.9-3.32 6.4-8.35 6.4-13.97 0-1.77-.25-3.48-.71-5.1l-.22 5.24-.65-7.64c-.34-.77-.73-1.51-1.16-2.21l.84 9.94-2.66-12.4c-.4-.46-.83-.9-1.28-1.3l2.99 13.92-5.62-15.94c-.42-.26-.85-.5-1.29-.73l6 17-9.21-18.25c-.41-.11-.83-.21-1.25-.3l9.6 19.02-13.12-19.34c-.39 0-.77.03-1.15.06l13.47 19.86-17.03-19.19c-.35.1-.68.22-1.02.34Z" fill="#fff"/><path fill-rule="evenodd" clip-rule="evenodd" d="m16.53 16.08 17.33 19.53-20.63-17.87c-.28.18-.57.38-.84.58l20.84 18.06L9.61 20.84l-.65.76 23.75 15.62L6.91 24.8l-.42.9 25.8 12.43-26.95-8.77-.17 1L32 39.09 5 34.18c.02.34.05.69.09 1.03l26.75 4.87L5.9 38.91c.1.35.23.69.37 1.02l25.52 1.16L8 43.24c.2.32.43.64.66.94l23.23-2.1-20.78 4.76c.32.28.65.55.98.8l20.01-4.57-17.04 6.4c.43.21.87.4 1.32.57l16.05-6.03-12.86 6.92c.56.1 1.14.16 1.72.2l11.6-6.23-8.55 6.18c.77-.09 1.51-.22 2.25-.4l6.85-4.95-4.37 4.13c1.3-.54 2.51-1.24 3.63-2.07l1.4-1.32-.49.6c3.9-3.32 6.4-8.35 6.4-13.97 0-1.77-.25-3.48-.71-5.1l-.22 5.24-.65-7.64c-.34-.77-.73-1.51-1.16-2.21l.84 9.94-2.66-12.4c-.4-.46-.83-.9-1.28-1.3l2.99 13.92-5.62-15.94c-.42-.26-.85-.5-1.29-.73l6 17-9.21-18.25c-.41-.11-.83-.21-1.25-.3l9.6 19.02-13.12-19.34c-.39 0-.77.03-1.15.06l13.47 19.86-17.03-19.19c-.35.1-.68.22-1.02.34Z" fill="#fff"/></svg>