<svg width="208" height="69" fill="none" xmlns="http://www.w3.org/2000/svg"><path d="M199.21 52.29c-1.5 0-2.96.02-4.42 0-1.12-.03-1.9-.67-2.57-1.5-2.01-2.53-4.05-5.04-6.07-7.56l-9.4-11.74c-.06-.07-.1-.16-.2-.33v21.1h-6.83V18.93c1.68 0 3.34-.03 5 .02.7.02 1.19.49 1.6 1.01l7.69 9.56 8.12 10.13.26.29V18.9h6.82V52.3ZM147.53 18.44c4.02.05 7.71 1.1 10.94 3.48a15.92 15.92 0 0 1 6.37 10.72c.63 4 .1 7.86-1.89 11.45-2.62 4.73-6.74 7.43-12.08 8.3-3.9.63-7.73.3-11.36-1.39-5.33-2.48-8.4-6.7-9.35-12.4-.77-4.6 0-8.95 2.68-12.87 2.67-3.93 6.51-6.12 11.18-6.94 1.15-.2 2.34-.23 3.5-.35Zm9.56 17.15c-.11-1-.16-2-.35-2.97-.5-2.73-1.72-5.05-4.24-6.49a10.31 10.31 0 0 0-6.96-1.06 8.05 8.05 0 0 0-6.57 5.09 14.25 14.25 0 0 0-.22 10.3 8.05 8.05 0 0 0 4.61 5.01c1.67.71 3.44.87 5.23.72 3.08-.26 5.5-1.62 7-4.34a13.36 13.36 0 0 0 1.5-6.26ZM8.03 18.9h7.83v.7c0 6.24-.02 12.47.02 18.7.01 1.2.15 2.42.5 3.56.93 3.05 3.69 4.67 6.98 4.28 3.5-.42 5.63-2.77 5.85-6.47.03-.52.03-1.04.03-1.56V18.9h7.82c.01.12.04.23.04.33 0 6.7.03 13.4-.03 20.09a13.05 13.05 0 0 1-11.01 13.02c-3.52.62-6.97.45-10.29-1.02-4.18-1.86-6.57-5.11-7.44-9.5a18.2 18.2 0 0 1-.3-3.41C7.99 32.1 8 25.79 8 19.49l.03-.6ZM84.2 24.84v7.8h10.59v5.75H84.2v7.91h13.84v5.96H76.3V18.92h21.74v5.92H84.2ZM39.38 18.9c2.29 0 4.5-.06 6.7.01 1.2.04 1.91.85 2.3 1.92 1.6 4.34 3.2 8.68 4.76 13.03 1.14 3.17 2.2 6.36 3.3 9.54l.1.17c2.34-7.72 5.4-15.24 8.1-22.9a2.62 2.62 0 0 1 2.57-1.79h6c.12 0 .22 0 .39.02l-1.87 4.6-11.47 28.25c-.16.4-.33.57-.8.56-2.01-.03-4.04-.02-6.06 0-.35 0-.53-.1-.66-.43C48.34 41 43.92 30.13 39.5 19.26l-.12-.37ZM129.2 47.33a12.8 12.8 0 0 1-6.71 4.57 19.42 19.42 0 0 1-10.64.13c-4.68-1.29-8.1-4.14-9.94-8.6-2.43-5.89-2.32-11.75.95-17.33 2.46-4.19 6.31-6.53 11.1-7.32 3.87-.64 7.62-.22 11.16 1.52 1.37.67 2.58 1.56 3.71 2.67-1 1.28-1.96 2.58-2.99 3.81-.54.64-1.3.72-2.1.31-.6-.3-1.15-.68-1.73-1.02-2.62-1.53-7.42-1.84-10.38.8a9.04 9.04 0 0 0-2.78 4.7c-.77 3.14-.74 6.24.5 9.26 1.54 3.79 5.02 5.81 9.15 5.44a8.92 8.92 0 0 0 5.25-2.09c.93-.8 1.72-.71 2.56.15l2.9 3Z" fill="#fff"/></svg>