<svg width="181" height="69" fill="none" xmlns="http://www.w3.org/2000/svg"><g clip-path="url(#a)" fill-rule="evenodd" clip-rule="evenodd" fill="#4AFEBF"><path d="M27.99 7.5A27.52 27.52 0 0 1 55.47 35 27.52 27.52 0 0 1 28 62.48 27.52 27.52 0 0 1 .5 34.99 27.42 27.42 0 0 1 27.99 7.5Zm0 4.4A23.13 23.13 0 0 0 4.89 35 23.13 23.13 0 0 0 28 58.08a23.13 23.13 0 0 0 23.09-23.09C50.92 22.27 40.7 11.9 27.98 11.9Zm5.18 18.7c.16.15.47.3.63.62l-3.14 3.3-.16-.16c-1.88-1.88-2.98-1.88-4.87 0a98.98 98.98 0 0 0-5.5 5.97c-1.25 1.41-1.88 4.4 3.46 4.4h8.48c3.61 0 5.34-1.89 3.46-4.4l-.48-.47 3.3-3.46c.79.95 1.42 1.89 1.73 2.67 2.2 4.24.32 9.9-4.71 9.9H20.45c-5.34 0-6.91-6.28-5.34-9.27 1.57-3.14 5.18-6.6 7.7-8.95 2.66-2.51 5.96-4.56 10.36-.16Zm2.2-8.8c5.34 0 6.91 6.28 5.34 9.26-1.57 3.14-5.18 6.6-7.7 8.96-2.35 2.04-5.8 4.08-10.05-.16-.16-.16-.47-.31-.63-.63l3.14-3.3.16.16c1.89 1.88 2.99 1.88 4.87 0a98.95 98.95 0 0 0 5.5-5.97c1.25-1.41 1.88-4.4-3.46-4.4h-8.48c-3.61 0-5.34 1.89-3.46 4.4l.48.47-3.62 3.61a10.83 10.83 0 0 1-1.72-2.67c-2.2-4.24-.32-9.89 4.7-9.89h14.93v.16ZM96 20.07v2.83h2.83v-2.83h2.04v2.83h.15c5.82 0 9.27 2.67 9.59 6.9v.32c0 2.83-2.2 4.71-3.77 5.34 1.88.79 4.24 2.36 4.24 5.81 0 4.72-3.93 7.39-9.43 7.39h-.63V51h-2.04v-2.35h-2.83V51h-2.04v-2.35H66.78v-4.09l13.2-17.12H67.4V22.9h19.64v3.92l-13.2 17.12h27.33c2.67 0 4.08-1.41 4.08-3.14 0-1.73-1.25-3.14-4.08-3.14h-5.03v-4.55h4.56c2.51 0 3.93-1.26 3.93-2.99 0-1.73-1.42-2.98-3.93-2.98h-6.75V41.9h-5.19v-19h5.19v-2.83H96Zm39.58 13.5a6.87 6.87 0 0 1 2.2 2.52c.16.16.16.47.31.63l-4.08.63a4.7 4.7 0 0 0-1.57-1.73 5.51 5.51 0 0 0-2.99-.94c-.31 0-1.41 0-2.35.47-2.04.94-2.99 2.82-2.99 5.18 0 1.1.32 2.36.95 3.3.15.16.47.63.94 1.1a5.63 5.63 0 0 0 3.61 1.26c2.2 0 3.46-.95 3.93-1.73.31-.32.47-.63.78-1.26h3.93c-.16.79-.31 1.1-.47 1.57a4.99 4.99 0 0 1-1.57 2.04c-1.26 1.1-3.3 2.36-6.91 2.36-.79 0-3.93 0-6.13-1.89-2.67-2.2-2.83-5.5-2.83-6.75 0-1.57.32-3.3 1.26-4.71.31-.47.63-.79.94-1.26.47-.47.79-.78 1.1-.94.94-.79 2.99-1.73 5.97-1.73.79.16 3.61.16 5.97 1.89Zm18.38-.62c.15.16.62.31 1.25.78.47.32.79.79 1.26 1.26.63.79 1.57 2.51 1.57 5.34 0 .31 0 1.1-.16 2.04a7.3 7.3 0 0 1-3.14 5.03c-1.1.78-2.98 1.57-5.97 1.57-4.55 0-6.9-1.89-8-3.61a9.58 9.58 0 0 1-1.42-5.03c0-3.77 1.73-5.65 2.83-6.6 1.57-1.41 3.92-1.88 5.8-2.04 2.05 0 4.25.32 5.98 1.26ZM118.14 44.4v4.09h-4.4V44.4h4.4Zm47.6-12.09 4.7 11.94 4.72-11.94h5.34V48.5h-3.61l.16-12.41-4.87 12.4h-3.46l-4.87-12.4.16 12.4h-3.61V32.33h5.34Zm-17.28 2.36c-.32 0-1.26.15-2.2.47-2.83 1.25-2.98 4.24-2.98 5.34 0 .31 0 1.41.47 2.35.15.32.15.63.63 1.1.15.16.3.63.78.95a5.63 5.63 0 0 0 3.61 1.25c.32 0 1.26 0 2.2-.31 2.99-1.1 3.3-4.24 3.3-5.34 0-.63-.16-2.52-1.41-3.93a5.62 5.62 0 0 0-4.4-1.88Z"/></g><defs><clipPath id="a"><path fill="#fff" transform="translate(.5)" d="M0 0h180v69H0z"/></clipPath></defs></svg>